<?xml version="1.0" encoding="utf-8"?>
<!-- Generator: Adobe Illustrator 18.0.0, SVG Export Plug-In . SVG Version: 6.00 Build 0)  -->
<!DOCTYPE svg PUBLIC "-//W3C//DTD SVG 1.1//EN" "http://www.w3.org/Graphics/SVG/1.1/DTD/svg11.dtd">
<svg version="1.1" id="Layer_1" xmlns="http://www.w3.org/2000/svg" xmlns:xlink="http://www.w3.org/1999/xlink" x="0px" y="0px"
	 viewBox="0 0 200 200" enable-background="new 0 0 200 200" xml:space="preserve">
<g id="Layer_x0020_1">
	<path fill="#2B2A29" d="M42.4,33.2c0-2.6,0-5.3,0.1-7.9C51.2,8.3,62.2,4,79.6,1.2c13.9-2.1,24.8-1.3,38.2,2.7
		c12.9,4.8,18.6,9,23.9,21.2c0,9.2,0,18.4,0,27.6c-5.5,0-11,0-16.5,0c0-1.7,0-3.5,0-5.2c2.1,0,4.3,0,6.4,0c0-3.9,0-7.7,0-11.6
		c-2.1,0-4.2,0-6.3,0c0-3,0-6,0-9c-5.3-7.8-9.7-9.8-18.4-11.9c-11.3-2-19.1-2.1-30,0.5C68.2,18,64.7,20,58.9,27c0,2.1,0,4.2,0,6.3
		C53.4,33.2,47.9,33.3,42.4,33.2z"/>
	<path fill="#2B2A29" d="M42.3,33.2l0.1-7.9l0,0c4.4-8.5,9.3-13.9,15.3-17.4c6-3.6,13.2-5.3,21.9-6.7c7-1,13.2-1.4,19.3-0.9
		s12.2,1.7,19,3.7h0c6.4,2.4,11.1,4.7,14.8,7.8c3.7,3.2,6.5,7.3,9.2,13.4l0,0v27.7c-5.5,0-11.1,0-16.7,0v-5.4h6.4V36.1h-6.3V27
		c-2.6-3.9-5-6.3-7.9-8c-2.9-1.7-6.1-2.8-10.5-3.8c-5.7-1-10.4-1.5-15.1-1.5c-4.7,0-9.4,0.7-14.8,2c-4.4,1.2-7.5,2.3-10.2,4
		c-2.7,1.7-5,3.9-7.9,7.4v6.4l-0.1,0c-2.8,0-5.5,0-8.3,0C47.9,33.4,45.1,33.4,42.3,33.2L42.3,33.2L42.3,33.2z M42.5,29.3l0,3.9
		c2.7,0,5.4,0,8.2,0c2.7,0,5.5,0,8.2,0v-6.3l0,0c2.9-3.5,5.3-5.7,8-7.4c2.7-1.7,5.8-2.8,10.2-4l0,0c5.5-1.3,10.1-1.9,14.9-2
		s9.5,0.5,15.2,1.5h0c4.4,1,7.7,2,10.5,3.8c2.9,1.7,5.3,4.2,8,8.1l0,0v8.9h6.3v11.8h-6.4v5h16.3V25.2c-2.7-6.1-5.4-10.2-9.1-13.3
		c-3.7-3.2-8.3-5.4-14.7-7.8c-6.7-2-12.8-3.2-18.9-3.7c-6.1-0.4-12.3-0.1-19.3,0.9C70.9,2.7,63.8,4.5,57.8,8
		c-6,3.5-10.9,8.8-15.3,17.3L42.5,29.3z"/>
	<polygon fill="#2B2A29" points="38,33.2 64.5,33.3 64.5,44.2 68.8,41.1 166.3,93.7 151.7,93.7 151.7,156.8 38.6,156.8 36.5,155 
		36.5,94.9 23.7,94.9 21.9,92.3 40.6,71.2 40.7,42.9 38,42.9 	"/>
	<path fill="#2B2A29" d="M38,33.1l26.6,0.2V44l4.2-3c32.7,17.6,65.3,35.2,97.9,52.8h-14.9v63.1H38.6c-0.7-0.6-1.5-1.2-2.2-1.9V95
		H23.6l-1.9-2.7l18.8-21.1L40.7,43h-2.7C37.9,39.7,37.9,36.4,38,33.1L38,33.1z M64.4,33.4l-26.3-0.2v9.6h2.7
		c-0.1,9.5-0.1,18.9-0.2,28.4L22,92.3l1.8,2.5h12.8v60.1l2.1,1.8h112.9V93.6h14.3L68.8,41.2l-4.4,3.1V33.4z"/>
	<polygon fill="#F7DA36" points="39.5,34 39.5,42.2 41.9,42.2 41.9,71.7 23.4,92.4 37.9,92.4 37.9,154.7 149.1,154.7 149.1,92.2 
		162.2,92.2 69.2,42.2 61.7,50 61.7,42.1 63.3,42.1 63.3,34 	"/>
	<path fill="#2B2A29" d="M39.6,34.1v8H42v29.6L23.6,92.3H38v62.3h111V92.1h12.8L69.2,42.3l-7.7,7.9V42h1.7v-7.8L39.6,34.1z
		 M39.4,42.2v-8.3c8,0,16,0,24,0v8.2h-1.7v7.6l7.4-7.7c31.1,16.7,62.3,33.5,93.4,50.3h-13.4v62.5H37.8V92.5H23.2l18.7-20.9V42.3
		L39.4,42.2L39.4,42.2z"/>
	<path fill="#2B2A29" d="M52.8,76.7c4.1,0,8.2,0,12.3,0c1.2,1.1,2.4,2.2,3.7,3.4c0,9.8-0.1,19.6-0.2,29.4c-0.1,3.1,1.3,6.2,5.5,6.4
		c4.8,0,6.1-1.5,6.7-4.4c0-10.6,0-21.1,0-31.7c1.2-1.2,2.3-2.3,3.5-3.5c4.3,0,8.5,0,12.8,0c1.3,1.3,2.5,2.5,3.8,3.8
		c0,10.5,0,20.9,0,31.4c-2,9.5-4,11.5-11.6,17.1c-6.5,3.2-7,2.9-14.5,3.2c-6.4-0.4-8.6,0-14.5-2.7c-8.2-4.6-11-9.1-11.7-18.7
		c0-10,0-20,0-30C50,79,51.4,77.8,52.8,76.7z"/>
	<path fill="#2B2A29" d="M52.8,76.6h12.4l3.7,3.4c-0.1,9.8-0.2,19.6-0.2,29.5c0,1.7,0.3,3.3,1.4,4.5c0.8,1,2.2,1.7,4,1.8
		c2.4,0,3.9-0.4,4.9-1.1c1-0.7,1.4-1.8,1.8-3.2V79.7c1.2-1.2,2.4-2.4,3.6-3.6h12.9L101,80v31.4v0c-1,4.8-2,7.7-3.7,10
		c-1.7,2.4-4.1,4.3-7.9,7.1l0,0c-5.9,2.9-6.9,2.9-12.7,3.1c-0.6,0-1.1,0-1.8,0.1h0c-1.1-0.1-2.1-0.1-2.9-0.2
		c-4.3-0.2-6.7-0.3-11.6-2.6l0,0c-4.1-2.3-6.9-4.6-8.7-7.5c-1.8-2.9-2.7-6.5-3.1-11.3c-0.5-9.4,0-20.5,0-30.1
		C50,79,51.4,77.8,52.8,76.6L52.8,76.6z M65.1,76.8H52.8l-4.1,3.5v30c0.4,4.8,1.2,8.4,3,11.2c1.8,2.9,4.6,5.1,8.7,7.4
		c4.8,2.3,7.2,2.4,11.5,2.6c0.9,0,1.9,0.1,2.9,0.2c0.6,0,1.2,0,1.8-0.1c5.8-0.2,6.8-0.2,12.7-3.1c3.8-2.8,6.2-4.7,7.9-7
		c1.7-2.4,2.7-5.2,3.7-10V80.1l-3.8-3.8H84.4l-3.5,3.5v31.7v0c-0.3,1.5-0.8,2.6-1.8,3.4c-1,0.8-2.6,1.1-5,1.1h0
		c-1.9-0.1-3.3-0.8-4.2-1.8c-1.1-1.2-1.4-3-1.4-4.7l0.2-29.4L65.1,76.8z"/>
	<polygon fill="#2B2A29" points="107.3,147.4 104,144.1 104,96.5 107,93.5 119.8,93.5 123.7,97.3 123.7,131.7 141.5,131.7 
		145,135.2 145,144.1 141.6,147.4 	"/>
	<path fill="#2B2A29" d="M107.3,147.5l-3.4-3.4V96.5c1-1,2.1-2.1,3.1-3.1h12.9l3.9,3.9v34.4h17.8l3.6,3.6v8.9
		c-1.2,1.2-2.3,2.3-3.4,3.4C130.2,147.5,118.8,147.5,107.3,147.5L107.3,147.5z M104.1,144l3.3,3.3l34.2,0l3.3-3.3v-8.8l-3.5-3.5
		h-17.9V97.3l-3.8-3.8h-12.7l-3,3V144z"/>
	<path fill="#F7DA36" d="M52.5,101.4c0-7.1,0-14.1,0-21.2c4.1,0,8.1,0,12.2,0c0,10.3,0,20.5,0,30.8c0.4,5.3,3.7,7.5,9.6,8.1
		c7.3-0.4,10.2-3.6,10.4-9.1c0-10,0-20,0-30c4.1,0,8.2,0,12.3,0c0,10.8,0,21.7,0,32.5c-0.8,5.6-4.7,10.2-12,13.9
		c-3,1.2-6.1,1.3-9.9,1.6c-5.4-0.3-6.7,0-11.8-2.2c-7.5-3.7-10.4-8-10.9-15.7C52.6,107.2,52.5,104.3,52.5,101.4z"/>
	<path fill="#2B2A29" d="M52.4,101.4V80.2h12.4V111c0.2,2.6,1.1,4.5,2.7,5.7c1.6,1.3,3.9,2,6.8,2.3c3.6-0.2,6.1-1.1,7.8-2.6
		c1.6-1.5,2.4-3.7,2.5-6.4V79.9h12.5c0,7.8,1,26,0,32.6c-0.4,2.8-1.6,5.4-3.6,7.7c-2,2.3-4.8,4.4-8.4,6.3h0c-2.6,1-5.3,1.2-8.5,1.5
		c-0.4,0-0.9,0.1-1.4,0.1h0c-0.7,0-1.3-0.1-1.9-0.1c-3.9-0.2-5.4-0.2-9.9-2.1h0c-3.8-1.9-6.4-3.9-8.1-6.4c-1.7-2.5-2.6-5.5-2.9-9.4
		L52.4,101.4z M52.6,80.3v21.1l0.1,8.6c0.2,3.8,1.1,6.8,2.8,9.3c1.7,2.5,4.3,4.5,8.1,6.3c4.5,1.8,5.9,1.9,9.9,2.1
		c0.6,0,1.2,0,1.9,0.1c0.5,0,0.9-0.1,1.4-0.1c3.2-0.2,5.9-0.4,8.4-1.4c3.6-1.8,6.4-3.9,8.4-6.2c2-2.3,3.1-4.8,3.5-7.6V80.1H84.9V110
		c-0.1,2.8-0.9,5-2.6,6.6c-1.7,1.6-4.3,2.5-7.9,2.7h0c-3-0.3-5.3-1-6.9-2.3c-1.6-1.3-2.6-3.2-2.8-5.9V80.3H52.6z"/>
	<polygon fill="#F7DA36" points="107.4,97.2 120.3,97.2 120.3,134.9 141.6,134.9 141.6,144 107.6,144 	"/>
	<path fill="#2B2A29" d="M107.4,97.1h13v37.7h21.2c0,3.1,0,6.2,0,9.3h-34.2C107.4,128.4,107.4,112.8,107.4,97.1L107.4,97.1z
		 M120.2,97.3h-12.7l0.2,46.6h33.8V135h-21.2V97.3z"/>
	<path fill="#F7DA36" d="M2.9,163.8c3,0,6,0,9,0c0,7.3,0,14.5,0,21.8c0.4,3.9,2.3,5.2,4,5.9c4.4,1.1,9.8,0.2,10.5-5.5
		c0-7.5,0-15,0-22.6c2.8,0,5.6,0,8.4,0c0,7.8,0,15.7,0,23.5c-0.5,3.7-1,5.1-4.9,8c-7.2,4.1-10.9,3.3-17.5,2.4
		c-4.4-1.6-8.2-4.5-9.4-10.2C2.9,179.4,2.9,171.6,2.9,163.8z"/>
	<path fill="#F7DA36" d="M2.9,163.7H12v21.9c0.2,1.9,0.8,3.2,1.5,4.1c0.7,0.9,1.6,1.4,2.4,1.8c0.5,0.1,1,0.2,1.5,0.3
		c1.9,0.2,3.8,0.1,5.4-0.6c1.6-0.7,2.8-2.1,3.3-4.2c0.1-0.3,0.1-0.6,0.2-0.9v-22.7h8.6c0,6.1,0.7,18.3,0,23.6
		c-0.2,1.8-0.5,3.1-1.2,4.3c-0.7,1.2-1.8,2.3-3.8,3.7l0,0c-6.8,3.9-10.4,3.4-16.3,2.6c-0.4,0-0.8-0.1-1.2-0.2h0l0,0
		c-2.2-0.8-4.3-1.9-5.9-3.6c-1.7-1.6-2.9-3.8-3.6-6.7l0,0L2.9,163.7L2.9,163.7z M11.9,163.9H3v23.2c0.6,2.8,1.9,5,3.5,6.6
		c1.6,1.6,3.7,2.8,5.9,3.5c0.4,0.1,0.8,0.1,1.2,0.2c5.9,0.8,9.5,1.3,16.2-2.6c1.9-1.4,3-2.5,3.7-3.6c0.7-1.2,0.9-2.4,1.2-4.3v-23.4
		h-8.2c0,5.9,0.7,17.3,0,22.5c0,0.3-0.1,0.6-0.2,0.9c-0.5,2.2-1.8,3.5-3.5,4.3c-1.6,0.8-3.6,0.9-5.5,0.6c-0.5-0.1-1-0.2-1.5-0.3h0
		c-0.8-0.4-1.7-0.9-2.5-1.8c-0.8-0.9-1.3-2.2-1.5-4.2C11.3,179.7,11.9,170.2,11.9,163.9z"/>
	<path fill="#F7DA36" d="M38,196.7c0-8,0-16.1,0-24.1c2.6,0,5.2,0,7.8,0c0,1.2,0,2.3,0,3.5c2.8-3.1,5.7-4.1,11.1-3.7
		c2.3,0.4,4.5,1.2,7,4.2c0.8,1,0.9,2.2,1.2,3.2c0,5.8,0,11.6,0,17.4c-3.1,0-6.1,0-9.1,0c0-5.8,0-10.7,0-16.5c0-1-0.9-2.7-2.7-2.8
		c-4,0-6.7,1.8-6.8,3.3c0,5.2,0,10.4,0,15.5C43.7,196.8,40.8,196.8,38,196.7z"/>
	<path fill="#F7DA36" d="M37.9,196.7v-24.2h8v3.3c1.4-1.5,2.8-2.5,4.5-3c1.8-0.6,3.9-0.7,6.6-0.5h0c1.1,0.2,2.3,0.5,3.4,1.2
		c1.2,0.6,2.4,1.6,3.7,3.1l0,0c0.7,0.9,0.9,2,1.1,2.9l0.1,0.3v17.5h-9.3v-16.6c0-0.6-0.3-1.3-0.8-1.9c-0.4-0.4-1-0.8-1.8-0.8
		c-2,0-3.6,0.4-4.8,1.1c-1.2,0.6-1.8,1.4-1.8,2.1V197C43.7,196.9,40.8,196.9,37.9,196.7L37.9,196.7z M38.1,172.8v23.9l8.3,0.2v-15.4
		c0-0.8,0.7-1.6,1.9-2.3c1.2-0.6,2.9-1.1,4.9-1.1h0c0.8,0,1.4,0.4,1.9,0.9c0.6,0.6,0.9,1.4,0.9,2v16.4h9V180l-0.1-0.3
		c-0.2-1-0.4-2-1.1-2.9c-1.3-1.5-2.5-2.4-3.6-3.1c-1.1-0.6-2.2-0.9-3.4-1.1c-2.7-0.2-4.7-0.1-6.5,0.5c-1.7,0.6-3.2,1.6-4.5,3.1
		l-0.2,0.2v-3.7H38.1z"/>
	<polygon fill="#F7DA36" points="69.7,175.1 69.7,197 78.8,197 78.8,175.1 	"/>
	<path fill="#F7DA36" d="M69.8,175.2v21.8h9l-0.1-21.8L69.8,175.2z M69.6,197v-22c3.1,0,6.2,0,9.3,0c0,7.4,0,14.8,0.1,22.2L69.6,197
		L69.6,197z"/>
	<path fill="#F7DA36" d="M69.9,169.2c0.3-2.3,1.8-3.8,4.4-3.9c3.9-0.1,4.9,2.2,4.9,4.6C78.6,174.7,70.3,175.3,69.9,169.2z"/>
	<path fill="#F7DA36" d="M69.8,169.2c0.1-1.2,0.6-2.2,1.4-2.9c0.8-0.7,1.8-1,3.1-1.1c0.1,0,0.3,0,0.4,0c1.7,0,2.8,0.6,3.5,1.4
		c0.7,0.8,1,1.9,1,3c0,0.1,0,0.2,0,0.3v0c-0.2,1.7-1.3,2.8-2.6,3.4c-0.7,0.3-1.4,0.4-2.2,0.4c-0.7,0-1.5-0.2-2.1-0.5
		C70.9,172.6,69.9,171.3,69.8,169.2L69.8,169.2z M71.3,166.4c-0.7,0.7-1.2,1.6-1.3,2.8c0.2,2,1.1,3.2,2.4,3.9
		c0.6,0.3,1.4,0.5,2.1,0.5c0.7,0,1.4-0.1,2.1-0.4c1.3-0.6,2.3-1.7,2.5-3.3c0-0.1,0-0.2,0-0.3c0-1-0.3-2.1-1-2.8
		c-0.7-0.8-1.7-1.3-3.4-1.3c-0.1,0-0.3,0-0.4,0C73,165.5,72,165.8,71.3,166.4z"/>
	<path fill="#2B2A29" d="M83.8,165.4v33.8H110v-7.8H94.6v-25.9c-0.3-0.1-0.3-0.2-0.6-0.2H83.8z"/>
	<path fill="#2B2A29" d="M83.9,165.5v33.6h26v-7.6H94.5v-25.9c-0.1,0-0.2-0.1-0.2-0.1c-0.1,0-0.1-0.1-0.3,0H83.9z M83.7,199.2v-33.9
		H94c0.2,0,0.3,0,0.4,0.1c0,0,0.1,0.1,0.2,0.1l0.1,0v25.9h15.4v8L83.7,199.2L83.7,199.2z"/>
	<ellipse fill="#2B2A29" cx="125.6" cy="187.2" rx="14.2" ry="12.7"/>
	<path fill="#2B2A29" d="M125.6,174.4c3.9,0,7.5,1.4,10.1,3.7c2.6,2.3,4.2,5.5,4.2,9s-1.6,6.7-4.2,9c-2.6,2.3-6.2,3.7-10.1,3.7
		c-3.9,0-7.5-1.4-10.1-3.7c-2.6-2.3-4.2-5.5-4.2-9s1.6-6.7,4.2-9C118.1,175.9,121.6,174.4,125.6,174.4z M135.6,178.3
		c-2.6-2.3-6.1-3.7-10-3.7c-3.9,0-7.4,1.4-10,3.7c-2.6,2.3-4.1,5.4-4.1,8.9c0,3.5,1.6,6.6,4.1,8.9c2.6,2.3,6.1,3.7,10,3.7
		c3.9,0,7.4-1.4,10-3.7c2.6-2.3,4.1-5.4,4.1-8.9C139.7,183.7,138.1,180.6,135.6,178.3z"/>
	<ellipse fill="#FFFFFF" cx="125.6" cy="187.2" rx="5.6" ry="7.5"/>
	<path fill="#2B2A29" d="M125.6,179.6c1.6,0,3,0.9,4,2.2c1,1.4,1.6,3.3,1.6,5.4c0,2.1-0.6,4-1.6,5.4c-1,1.4-2.5,2.2-4,2.2
		c-1.6,0-3-0.9-4-2.2c-1-1.4-1.6-3.3-1.6-5.4c0-2.1,0.6-4,1.6-5.4C122.6,180.4,124,179.6,125.6,179.6z M129.5,181.9
		c-1-1.3-2.4-2.2-3.9-2.2c-1.5,0-2.9,0.8-3.9,2.2c-1,1.4-1.6,3.2-1.6,5.3s0.6,3.9,1.6,5.3c1,1.3,2.4,2.2,3.9,2.2
		c1.5,0,2.9-0.8,3.9-2.2c1-1.4,1.6-3.2,1.6-5.3S130.5,183.3,129.5,181.9z"/>
	<path fill="#2B2A29" d="M163.5,180.6c0.5-1.6,1.1-3.1,1.6-4.7c-24-9-30.5,28.8-0.1,22.7c-0.6-1.7-1.2-3.5-1.9-5.2
		C145.8,199,147.1,175.4,163.5,180.6z"/>
	<path fill="#2B2A29" d="M163.4,180.5l1.5-4.5c-7.3-2.7-13-1-16.5,2.4c-2.2,2.2-3.5,5.1-3.8,8s0.5,5.9,2.4,8.3
		c3,3.6,8.7,5.7,17.7,3.9l-1.8-5c-5.1,1.6-8.5,0.7-10.5-1.2c-1.4-1.3-2-3.1-2-5c0-1.8,0.7-3.7,2.1-5.1
		C154.7,180.1,158.4,178.9,163.4,180.5z M165.1,176l-1.6,4.7l-0.1,0c-5-1.6-8.6-0.5-10.6,1.7c-1.3,1.4-2,3.2-2,5
		c0,1.8,0.6,3.5,1.9,4.8c1.9,1.9,5.4,2.8,10.4,1.2l0.1,0c0.6,1.8,1.3,3.6,1.9,5.4l-0.1,0c-9.2,1.8-15-0.3-18-4
		c-2-2.4-2.7-5.4-2.5-8.4c0.3-3,1.6-5.9,3.8-8.1c3.5-3.5,9.3-5.2,16.8-2.4L165.1,176L165.1,176z"/>
	<polygon fill="#2B2A29" points="167.9,164 167.9,199.3 176.6,199.3 176.6,191.7 178.7,189.4 186,199.2 196.9,199.2 184.8,185 
		194.5,175.1 184.4,175.1 176.9,184.7 176.9,163.6 	"/>
	<path fill="#2B2A29" d="M168,164.1v35.1h8.5v-7.5l2.2-2.5l7.4,9.9h10.6l-12-14.1l9.6-9.8h-9.8l-7.7,9.8v-21.3L168,164.1z
		 M167.8,199.3v-35.4c3.1-0.1,6.1-0.3,9.2-0.4v20.9l7.4-9.4h10.3l-9.8,10l12.2,14.3H186l-7.4-9.8l-2,2.2v7.6L167.8,199.3
		L167.8,199.3z"/>
</g>
</svg>
