<?xml version="1.0" encoding="utf-8"?>
<!-- Generator: Adobe Illustrator 19.2.1, SVG Export Plug-In . SVG Version: 6.00 Build 0)  -->
<svg version="1.1" id="Layer_1" xmlns="http://www.w3.org/2000/svg" xmlns:xlink="http://www.w3.org/1999/xlink" x="0px" y="0px"
	 viewBox="0 0 200 200" style="enable-background:new 0 0 200 200;" xml:space="preserve">
<style type="text/css">
	.st0{fill:#FFFFFF;}
	.st1{fill:none;}
</style>
<g id="Layer_x0020_1_1_">
	<path class="st0" d="M51.2,43.3c0-2.2,0-4.5,0.1-6.7C58.6,22.1,68,18.5,82.8,16.1c11.8-1.8,21.1-1.1,32.5,2.3
		c10.9,4.1,15.8,7.6,20.3,18c0,7.8,0,15.6,0,23.4c-4.7,0-9.3,0-14,0c0-1.5,0-2.9,0-4.4c1.8,0,3.6,0,5.4,0c0-3.3,0-6.6,0-9.8
		c-1.8,0-3.5,0-5.3,0c0-2.5,0-5.1,0-7.6c-4.5-6.6-8.3-8.4-15.7-10.1c-9.6-1.7-16.2-1.8-25.5,0.4c-7.5,2.1-10.4,3.8-15.4,9.7
		c0,1.8,0,3.6,0,5.4C60.5,43.3,55.8,43.4,51.2,43.3z"/>
	<path class="st1" d="M48.8,44v6.8h2.1V76L35.2,93.5h12.2v52.9h94.2V93.3h10.9L73.9,51l-6.5,6.7v-7h1.4v-6.7L48.8,44z M48.6,50.9
		v-7.1c6.8,0,13.6,0,20.4,0v7h-1.4v6.4l6.3-6.5c26.4,14.2,52.9,28.4,79.3,42.7h-11.4v53.1H47.2V93.6H34.8l15.8-17.7V51L48.6,50.9
		L48.6,50.9z"/>
	<path class="st0" d="M73.9,50.9l-6.4,6.6v-6.7h1.4V44l-20.2,0v7h2.1v25L35,93.6h12.3v52.9h94.4V93.4h11.1L73.9,50.9z M97.6,110.6
		c-0.7,4.8-4,8.7-10.2,11.8c-2.5,1-5.2,1.1-8.4,1.3c-4.6-0.2-5.6,0-10-1.8c-6.4-3.1-8.9-6.8-9.3-13.3c0-2.4,0-4.9-0.1-7.3
		c0-6,0-12,0-18c3.4,0,6.9,0,10.4,0c0,8.7,0,17.4,0,26.1c0.3,4.5,3.2,6.4,8.2,6.9c6.2-0.4,8.7-3.1,8.9-7.8c0-8.5,0-17,0-25.5
		c3.5,0,7,0,10.5,0C97.6,92.2,97.6,101.4,97.6,110.6z M135.3,137.3h-28.9l-0.1-39.7h11v32h18V137.3z"/>
	<path class="st0" d="M17.7,154.2c2.5,0,5.1,0,7.6,0c0,6.2,0,12.3,0,18.5c0.3,3.3,2,4.4,3.4,5c3.7,0.9,8.3,0.1,8.9-4.7
		c0-6.4,0-12.8,0-19.1c2.4,0,4.7,0,7.1,0c0,6.6,0,13.3,0,19.9c-0.4,3.1-0.8,4.4-4.2,6.8c-6.1,3.5-9.2,2.8-14.9,2
		c-3.8-1.3-6.9-3.8-8-8.7C17.7,167.4,17.7,160.8,17.7,154.2z"/>
	<path class="st0" d="M47.4,182.1c0-6.8,0-13.6,0-20.4c2.2,0,4.4,0,6.6,0c0,1,0,2,0,3c2.4-2.7,4.9-3.5,9.4-3.1c1.9,0.3,3.8,1,6,3.6
		c0.6,0.9,0.8,1.8,1,2.7c0,4.9,0,9.8,0,14.7c-2.6,0-5.2,0-7.8,0c0-4.9,0-9.1,0-14c0-0.8-0.8-2.3-2.3-2.4c-3.4,0-5.7,1.6-5.7,2.8
		c0,4.4,0,8.8,0,13.2C52.3,182.2,49.8,182.2,47.4,182.1z"/>
	<polygon class="st0" points="74.3,163.7 74.3,182.4 82.1,182.4 82,163.7 	"/>
	<path class="st0" d="M74.5,158.7c0.2-2,1.5-3.2,3.7-3.3c3.3-0.1,4.2,1.9,4.1,3.9C81.9,163.4,74.9,164,74.5,158.7z"/>
	<path class="st0" d="M86.3,155.5v28.7h22.3v-6.6H95.4v-22c-0.3-0.1-0.2-0.2-0.5-0.1H86.3z"/>
	<path class="st0" d="M121.8,163.3c-6.7,0-12.1,4.8-12.1,10.8s5.4,10.8,12.1,10.8c6.7,0,12.1-4.8,12.1-10.8S128.4,163.3,121.8,163.3
		z M121.8,180.4c-2.6,0-4.7-2.9-4.7-6.4c0-3.5,2.1-6.4,4.7-6.4c2.6,0,4.7,2.9,4.7,6.4C126.5,177.6,124.4,180.4,121.8,180.4z"/>
	<path class="st0" d="M153.9,168.4c0.5-1.3,0.9-2.6,1.4-3.9c-20.4-7.6-25.9,24.5-0.1,19.3c-0.5-1.5-1.1-3-1.6-4.4
		C138.9,184.1,140.1,164,153.9,168.4z"/>
	<polygon class="st0" points="157.7,154.3 157.7,184.3 165.1,184.3 165.1,177.8 166.8,175.8 173.1,184.2 182.3,184.2 172.1,172.2 
		180.3,163.7 171.7,163.7 165.3,171.9 165.3,154 	"/>
</g>
</svg>
