<?xml version="1.0" encoding="utf-8"?>
<!-- Generator: Adobe Illustrator 18.0.0, SVG Export Plug-In . SVG Version: 6.00 Build 0)  -->
<!DOCTYPE svg PUBLIC "-//W3C//DTD SVG 1.1//EN" "http://www.w3.org/Graphics/SVG/1.1/DTD/svg11.dtd">
<svg version="1.1" id="Layer_1" xmlns="http://www.w3.org/2000/svg" xmlns:xlink="http://www.w3.org/1999/xlink" x="0px" y="0px"
	 viewBox="0 0 200 200" enable-background="new 0 0 200 200" xml:space="preserve">
<g id="Layer_x0020_1">
	<polygon fill="#ED1D24" points="0,78.7 9.5,111.5 16.9,111.5 26.6,78.7 17.2,78.7 13.9,93.4 9.9,78.7 	"/>
	<polygon fill="#ED1C24" points="25.2,86.7 25.2,111.6 34.2,111.6 34.2,86.7 	"/>
	<polygon fill="#ED1C24" points="27.7,81.9 33.3,77.2 35.4,79.7 29.6,84.7 	"/>
	<path fill="#ED1C24" d="M37.8,86.8v25h9.5V93H50v18.8h7.3c0-7.5,0-10.6,0-18.1c0.1-4-0.8-7-9.3-6.9H37.8z"/>
	<path fill="#ED1C24" d="M59.8,101.3c0.1,4,2.2,10.5,7.3,10.6h10.1l0-10.2c-2.2,0-5.3,0-7.6,0c0-2,0-4.1,0-6.1h7.5v-9
		c-3.7,0-7.5,0-11.2,0C61,87.1,59.4,92.7,59.8,101.3z"/>
	<polygon fill="#ED1D24" points="79.3,86.7 79.3,111.9 88.1,111.9 88.1,86.7 	"/>
	<path fill="#ED1D24" d="M116.9,80.5c0.9,0,1.8,0,2.6,0c0,10.5,0,20.1,0,30.6c-0.8,0-1.7,0-2.6,0c0-1.9,0-2.9,0-4.8
		c-0.5,0-0.2,0-0.7,0c-3.2,6.3-15.4,6.4-18.5-1.4c-5.1-11.6,10.6-21.2,18.4-10.8c0.3,0,0.3,0,0.6,0
		C116.9,89.7,116.9,85.1,116.9,80.5z"/>
	<path fill="#FFFFFF" d="M115.3,103.3c0.7-1.8,0.9-4.2-0.1-6.1c-4.7-9.5-17.7-4.1-15.6,5.5C101.5,109.1,111.4,111.1,115.3,103.3z"/>
	<path fill="#ED1D24" d="M127,106.3l12.8-12.9c-3.4-3.5-7.2-4.4-10.7-3.5c-6.5,1.7-9.8,9.9-6.1,16c1.3,2.2,3,4,6.7,5.3
		c4.8,1,7.1-0.2,11.1-3.4l0.6-0.7c-1.3,0-3.3,0-4.6,0C133.7,109.4,129.6,110,127,106.3z"/>
	<path fill="#FFFFFF" d="M136.5,93.3c-3.7,3.6-7.5,7.2-11.2,10.7c-2.3-4.6-0.3-10.5,4.7-11.7C131.6,91.9,134.5,92.1,136.5,93.3z"/>
	<path fill="#ED1D24" d="M155.3,110.9c1.7-0.3,4.7-1.9,5.2-3.8c-1.2,0-2.3,0-3.5,0c-3.3,2.4-7.2,2-9.9-1.1c-1.9-2.2-3-5.5-1.5-9
		c1.1-2.5,3.2-4.2,5.6-4.8c2.1-0.5,5.3-0.1,6.5,2c0.9,0,1.8,0,2.7,0c-2-4-5.9-4.9-10.1-4c-3,0.6-5.4,3-6.8,5.8
		c-1.8,3.7-1.3,7.9,0.9,10.9C146.9,110.1,151.2,111.6,155.3,110.9z"/>
	<path fill="#ED1D24" d="M185.7,111.9V88.7h3.4v2c4.7-3,5.3-2.7,10.8-2.7c-0.6,0.7-1.3,1.4-1.9,2.1c-4.6,0.3-5.2,0.4-8.9,3.6v18.1
		H185.7z"/>
	<polygon fill="#ED1C24" points="9.9,118.8 198,118.8 198,121.5 198,122.8 9.9,122.8 	"/>
	<path fill="#ED1D24" d="M173.4,89.6c6.2,0,11.3,4.8,11.3,10.7c0,5.9-5.1,10.7-11.3,10.7c-6.3,0-11.3-4.8-11.3-10.7
		C162.1,94.3,167.2,89.6,173.4,89.6z"/>
	<path fill="#ED1D24" d="M173.4,89.5c3.1,0,6,1.2,8.1,3.1c2.1,2,3.3,4.6,3.3,7.6c0,3-1.3,5.7-3.3,7.6c-2.1,1.9-4.9,3.1-8.1,3.1
		c-3.1,0-6-1.2-8.1-3.1c-2.1-2-3.3-4.6-3.3-7.6c0-3,1.3-5.7,3.3-7.6C167.4,90.7,170.3,89.5,173.4,89.5z M181.4,92.8
		c-2-1.9-4.8-3.1-7.9-3.1c-3.1,0-5.9,1.2-7.9,3.1c-2,1.9-3.3,4.6-3.3,7.5c0,2.9,1.2,5.6,3.3,7.5c2,1.9,4.8,3.1,7.9,3.1
		c3.1,0,5.9-1.2,7.9-3.1c2-1.9,3.3-4.6,3.3-7.5C184.6,97.3,183.4,94.7,181.4,92.8z"/>
	<path fill="#FEFEFE" d="M173.4,92c4.8,0,8.7,3.7,8.7,8.2c0,4.5-3.9,8.2-8.7,8.2c-4.8,0-8.7-3.7-8.7-8.2
		C164.7,95.7,168.6,92,173.4,92z"/>
	<path fill="#FEFEFE" d="M173.4,91.9c2.4,0,4.6,0.9,6.2,2.4c1.6,1.5,2.6,3.6,2.6,5.9c0,2.3-1,4.4-2.6,5.9c-1.6,1.5-3.8,2.4-6.2,2.4
		c-2.4,0-4.6-0.9-6.2-2.4c-1.6-1.5-2.6-3.6-2.6-5.9c0-2.3,1-4.4,2.6-5.9S171,91.9,173.4,91.9z M179.5,94.5c-1.6-1.5-3.7-2.4-6.1-2.4
		c-2.4,0-4.5,0.9-6.1,2.4c-1.6,1.5-2.5,3.5-2.5,5.8c0,2.2,1,4.3,2.5,5.7c1.6,1.5,3.7,2.4,6.1,2.4c2.4,0,4.5-0.9,6.1-2.4
		c1.6-1.5,2.5-3.5,2.5-5.7C182,98,181.1,96,179.5,94.5z"/>
	<polygon fill="#ED1C24" points="80.7,81.9 86.4,77.2 88.4,79.7 82.6,84.7 	"/>
</g>
</svg>
