<?xml version="1.0" encoding="utf-8"?>
<!-- Generator: Adobe Illustrator 19.2.1, SVG Export Plug-In . SVG Version: 6.00 Build 0)  -->
<svg version="1.1" id="Layer_1" xmlns="http://www.w3.org/2000/svg" xmlns:xlink="http://www.w3.org/1999/xlink" x="0px" y="0px"
	 viewBox="0 0 200 200" style="enable-background:new 0 0 200 200;" xml:space="preserve">
<style type="text/css">
	.st0{fill:#FFFFFF;}
</style>
<g id="Layer_x0020_1">
	<polygon class="st0" points="0.8,78.9 10.2,111.4 17.5,111.4 27.2,78.9 17.9,78.9 14.6,93.4 10.5,78.9 	"/>
	<polygon class="st0" points="25.8,86.8 25.8,111.5 34.7,111.5 34.7,86.8 	"/>
	<polygon class="st0" points="28.3,82.1 33.8,77.3 35.9,79.9 30.1,84.8 	"/>
	<path class="st0" d="M38.2,86.9v24.8h9.4V93h2.8v18.7h7.3c0-7.4,0-10.5,0-17.9c0.1-4-0.8-7-9.2-6.8H38.2z"/>
	<path class="st0" d="M60.1,101.3c0.1,3.9,2.2,10.5,7.3,10.5h10.1l0-10.1c-2.2,0-5.3,0-7.5,0c0-2,0-4.1,0-6.1h7.5v-8.9
		c-3.7,0-7.4,0-11.1,0C61.2,87.2,59.7,92.8,60.1,101.3z"/>
	<polygon class="st0" points="79.5,86.8 79.5,111.8 88.2,111.8 88.2,86.8 	"/>
	<path class="st0" d="M116.8,80.7c0,4.5-0.1,9.1-0.1,13.6c-0.3,0-0.3,0-0.6,0c-7.8-10.4-23.3-0.9-18.2,10.7
		c3.2,7.7,15.2,7.6,18.4,1.4c0.5,0,0.2,0,0.7,0c0,1.9,0,2.9,0,4.7c0.8,0,1.7,0,2.5,0c0-10.4,0-20,0-30.4
		C118.5,80.7,117.7,80.7,116.8,80.7z M115.2,103.3c-3.8,7.7-13.6,5.8-15.6-0.6c-2-9.6,10.9-14.9,15.5-5.5
		C116.1,99.2,115.8,101.5,115.2,103.3z"/>
	<path class="st0" d="M136.6,107c-3.1,2.4-7.2,3-9.7-0.7l12.7-12.8c-3.4-3.4-7.1-4.4-10.6-3.5c-6.4,1.7-9.8,9.8-6,15.8
		c1.3,2.2,3,4,6.6,5.2c4.7,0.9,7-0.2,11.1-3.4l0.6-0.7C139.9,107,137.9,107,136.6,107z M129.7,92.4c1.6-0.4,4.5-0.2,6.5,1
		c-3.7,3.5-7.4,7.1-11.1,10.6C122.8,99.4,124.8,93.5,129.7,92.4z"/>
	<path class="st0" d="M154.9,110.8c1.7-0.3,4.6-1.8,5.1-3.8c-1.1,0-2.3,0-3.4,0c-3.2,2.4-7.2,2-9.8-1.1c-1.9-2.2-3-5.5-1.4-8.9
		c1.1-2.5,3.2-4.2,5.5-4.7c2.1-0.5,5.2-0.1,6.4,2c0.9,0,1.8,0,2.7,0c-2-3.9-5.9-4.9-10.1-4c-2.9,0.6-5.4,3-6.7,5.7
		c-1.8,3.6-1.3,7.9,0.9,10.8C146.5,110.1,150.8,111.5,154.9,110.8z"/>
	<path class="st0" d="M185.1,111.8v-23h3.4v2c4.7-3,5.3-2.6,10.7-2.6c-0.6,0.7-1.3,1.4-1.9,2.1c-4.6,0.3-5.1,0.4-8.8,3.6v18H185.1z"
		/>
	<polygon class="st0" points="10.6,118.7 197.3,118.7 197.3,121.3 197.3,122.7 10.6,122.7 	"/>
	<path class="st0" d="M172.9,89.6c-6.2,0-11.2,4.7-11.2,10.6c0,5.9,5,10.6,11.2,10.6c6.2,0,11.2-4.7,11.2-10.6
		C184.1,94.4,179.1,89.6,172.9,89.6z M172.9,108.4c-4.8,0-8.6-3.7-8.6-8.2c0-4.5,3.9-8.2,8.6-8.2c4.8,0,8.6,3.7,8.6,8.2
		C181.5,104.7,177.6,108.4,172.9,108.4z"/>
	<polygon class="st0" points="80.9,82.1 86.5,77.3 88.5,79.9 82.7,84.8 	"/>
</g>
</svg>
