<?xml version="1.0" encoding="utf-8"?>
<!-- Generator: Adobe Illustrator 19.2.1, SVG Export Plug-In . SVG Version: 6.00 Build 0)  -->
<svg version="1.1" id="Layer_1" xmlns="http://www.w3.org/2000/svg" xmlns:xlink="http://www.w3.org/1999/xlink" x="0px" y="0px"
	 viewBox="0 0 200 200" style="enable-background:new 0 0 200 200;" xml:space="preserve">
<style type="text/css">
	.st0{fill:#FFFFFF;}
	.st1{fill:#FEFEFE;}
</style>
<g id="Слой_x0020_1">
	<path class="st0" d="M22.2,97.2c3.2,0,6.4,0,9.6,0c0-7.2-2.2-9.9-8.1-12.3c-10.4-2.4-21.1,4.7-22.6,15.6
		c-1.8,26.2,29.3,15.5,29.3,3c-3.3,0-6.6,0-9.8,0c-0.1,6-13.3,7.7-8.5-5.2C14.6,91.9,21.9,89.7,22.2,97.2z"/>
	<polygon class="st0" points="37.4,85.5 47.2,85.5 42.8,107 51,107 46.2,115.3 30.7,115.3 	"/>
	<g>
		<path class="st0" d="M76.3,85.6h-9.8L49.8,115l0,0.2l10,0l1.7-3.7h9.1l0.2,3.7h9.7L76.3,85.6z M65.2,104.8l-0.4,0l-0.2-0.1l0-0.1
			l4.2-8.6h0.7c0.1,2.9,0.2,5.9,0.3,8.8L65.2,104.8z"/>
	</g>
	<path class="st0" d="M101.5,94.2c3.1,0,6.1,0,9.1,0c-0.2-7.2-4.5-10.1-13.6-9.7C90,85.6,82.6,90.4,85.4,99c3,6.2,9.8,3.1,12.5,6.1
		c2,3.7-5.2,5.8-6.3,0.5c-3.2,0-6.4,0-9.6,0c0,11.6,12.6,12.2,20.7,8.4c4.8-2.6,9.2-8.6,5.8-13.7c-2.5-2.7-7.6-3.7-11.1-5
		C91.6,92.5,101,87.9,101.5,94.2z"/>
	<path class="st0" d="M190,85.4l-3.2,15.1h-0.3l-5.6-15.2h-7.7l-0.1,0.3c5,13.9,2.4,23.2-5,29.5l0,0h6.1l3.1-15h0.4l5.6,14.9h9.7
		l6-29.8H190z"/>
	<path class="st0" d="M171,77.1c0.3-0.7,0.5-1.3,0.7-2c0.3-0.7,0.5-1.3,0.7-2c0-1.4,0.2-2,0.5-2.3c0.1-0.1,0.2-0.2,0.3-0.2
		c0.1,0,0.2,0,0.3,0.1c0.2,0.1,0.3,0.4,0.4,0.6c0.1,0,0.2,0,0.3-0.1c0.2,0,0.3-0.1,0.4,0c0.1,0.1,0.2,0.2,0.3,0.6l1.5,1.2l0,0
		c-0.2,1.4-0.6,2.1-1.1,3.4l-0.2,0.6c-0.6,1.2-1.3,2-1.8,2.7c-1,1.3-1.5,1.9-0.8,4.1c5,12.6,4,21.5-1,27.9
		c-5,6.4-14.1,10.4-25.2,13.1l0,0c-3.3,0.7-6.7,1.4-10,2.1c-3.4,0.7-6.7,1.5-10,2.2h0c-1.3,0.2-1.9,0-2-0.4
		c-0.1-0.5,0.5-1.2,1.1-2.2c1-1.5,2.4-3.6,2.9-6c1.1-5.3,1.4-9.7,1.6-13.7c0.4-7.4,0.8-13.8,6.1-22.7v0c1.3-1.8,2.9-3.5,4.6-4.9
		c1.6-1.4,3.4-2.5,5.4-3.4c2.3-1,4.5-1.4,6.6-1.4c2.2,0,4.3,0.4,6.7,1.1l0,0c1,0.3,2.1,0.8,3.2,1.3C166,78.2,169.5,79.7,171,77.1z
		 M171.9,75.2c-0.3,0.7-0.5,1.3-0.7,2l0,0c-1.6,2.8-5.2,1.2-8.6-0.3c-1.1-0.5-2.2-0.9-3.2-1.3c-2.3-0.7-4.5-1.1-6.7-1.1
		c-2.2,0-4.3,0.4-6.6,1.4c-2,0.9-3.8,2-5.4,3.4c-1.7,1.4-3.2,3.1-4.6,4.9c-5.3,8.9-5.7,15.3-6.1,22.7c-0.2,4.1-0.5,8.5-1.6,13.8
		c-0.5,2.5-1.9,4.6-2.9,6.1c-0.7,1-1.2,1.7-1.1,2.1c0,0.3,0.5,0.4,1.8,0.3c3.4-0.8,6.7-1.5,10-2.2c3.3-0.7,6.7-1.4,10-2.1
		c11.1-2.7,20.2-6.6,25.1-13c5-6.4,5.9-15.2,1-27.8l0,0c-0.7-2.3-0.2-3,0.8-4.3c0.5-0.6,1.1-1.4,1.8-2.7l0.2-0.5
		c0.6-1.3,0.9-2,1.1-3.3l-1.4-1.1l0,0c-0.1-0.3-0.1-0.4-0.2-0.5c0,0-0.1,0-0.3,0c-0.1,0-0.2,0-0.4,0.1l-0.1,0v-0.1
		c0-0.2-0.1-0.4-0.3-0.6c-0.1,0-0.1-0.1-0.2-0.1c-0.1,0-0.2,0-0.2,0.1c-0.2,0.3-0.4,0.9-0.4,2.2v0l0,0
		C172.4,73.9,172.1,74.5,171.9,75.2z"/>
	<polygon class="st1" points="143.6,85.6 137.6,115.2 162.3,115.2 163.8,107.4 149.1,107.4 149.8,103.7 162.3,103.7 163.3,96.5 
		151.6,96.5 152.4,93.1 166.5,93.1 167.9,85.4 	"/>
	<path class="st0" d="M129.8,94.2c3.1,0,6.1,0,9.1,0c-0.2-7.2-4.5-10.1-13.6-9.7c-7.1,1.1-14.4,5.9-11.7,14.5
		c3,6.2,9.8,3.1,12.5,6.1c2,3.7-5.2,5.8-6.3,0.5c-3.2,0-6.4,0-9.5,0c0,11.6,12.6,12.2,20.7,8.4c4.8-2.6,9.1-8.6,5.8-13.7
		c-2.5-2.7-7.6-3.7-11.1-5C119.9,92.5,129.3,87.9,129.8,94.2z"/>
</g>
</svg>
