<?xml version="1.0" encoding="utf-8"?>
<!-- Generator: Adobe Illustrator 18.0.0, SVG Export Plug-In . SVG Version: 6.00 Build 0)  -->
<!DOCTYPE svg PUBLIC "-//W3C//DTD SVG 1.1//EN" "http://www.w3.org/Graphics/SVG/1.1/DTD/svg11.dtd">
<svg version="1.1" id="Layer_1" xmlns="http://www.w3.org/2000/svg" xmlns:xlink="http://www.w3.org/1999/xlink" x="0px" y="0px"
	 viewBox="0 0 200 200" enable-background="new 0 0 200 200" xml:space="preserve">
<g id="Layer_x0020_1">
	<path fill="#D3313C" d="M14.9,85c8.2,0,14.8,6.7,14.8,15s-6.6,15-14.8,15s-14.8-6.7-14.8-15S6.7,85,14.9,85z"/>
	<path fill="#D3313C" d="M14.9,84.9c4.1,0,7.8,1.7,10.5,4.4c2.7,2.7,4.4,6.5,4.4,10.7s-1.7,7.9-4.4,10.7c-2.7,2.7-6.4,4.4-10.5,4.4
		s-7.8-1.7-10.5-4.4S0,104.2,0,100s1.7-7.9,4.4-10.7S10.8,84.9,14.9,84.9z M25.3,89.4C22.7,86.7,19,85,14.9,85s-7.8,1.7-10.5,4.4
		c-2.7,2.7-4.3,6.5-4.3,10.6s1.7,7.9,4.3,10.6c2.7,2.7,6.4,4.4,10.5,4.4s7.8-1.7,10.5-4.4c2.7-2.7,4.3-6.5,4.3-10.6
		S28,92.1,25.3,89.4z"/>
	<polygon fill="#FFFFFF" points="8.9,90.7 14.9,90.7 14.9,95.4 9.1,102.8 3,102.8 3,96.7 8.9,96.7 	"/>
	<path fill="#FEFEFE" d="M8.9,90.6H15v4.7c-2,2.5-3.9,5-5.9,7.5H2.9v-6.2h6L8.9,90.6L8.9,90.6z M14.9,90.8H8.9l0,6H3v6h6l5.8-7.4
		V90.8z"/>
	<path fill="#505050" d="M51.3,92.4c-4.2-2.3-11.7-3.6-12.4,3.5c-0.1,3.8,2.3,5,5.9,5.5c2.3,0.1,4.6,1.3,2.9,3.6
		c-1.7,1.6-4.1,0.8-6.3-0.5c-0.3-0.3-0.7-0.5-1-0.8c-0.7,0.8-1.5,1.7-2.2,2.6c2.4,3.9,15.5,4.9,13.8-4.5c-2.5-6.5-9-1.7-9.2-6.1
		c0.7-2.9,4.7-1.6,6.6-0.4C50,94.4,50.6,93.4,51.3,92.4z"/>
	<path fill="#505050" d="M51.2,92.5c-1.6-0.9-3.6-1.6-5.6-1.8c-1.2-0.1-2.4,0-3.4,0.4c-1,0.4-1.9,1.1-2.5,2.1
		c-0.4,0.7-0.7,1.6-0.8,2.7c-0.1,1.9,0.5,3.1,1.5,4c1,0.8,2.5,1.2,4.3,1.5c1,0.1,2.1,0.3,2.7,0.8c0.2,0.2,0.4,0.4,0.6,0.6
		c0.1,0.2,0.2,0.5,0.2,0.8c0,0.4-0.2,0.9-0.6,1.4l0,0c-0.8,0.8-1.9,1-3,0.8c-1.1-0.2-2.2-0.7-3.3-1.4c-0.3-0.2-0.7-0.5-1-0.7
		l-2.2,2.5c0.9,1.4,3.3,2.5,5.8,2.7c1.3,0.1,2.7,0.1,3.9-0.3c1.2-0.3,2.3-0.9,3.1-1.9c1-1.2,1.4-2.8,1-5.1c-1.4-3.5-3.9-3.7-6-3.8
		c-1.7-0.1-3.1-0.2-3.2-2.3v0l0,0c0.1-0.3,0.2-0.6,0.3-0.8c0.4-0.6,0.9-0.8,1.5-1c0.6-0.1,1.3,0,2,0.1c1,0.3,2,0.7,2.8,1.2
		L51.2,92.5z M45.6,90.6c2,0.2,4.1,0.9,5.6,1.8l0,0c-0.6,1-1.3,2-1.9,3l0,0c-0.7-0.5-1.8-0.9-2.8-1.2c-0.7-0.2-1.4-0.2-2-0.1
		c-0.6,0.1-1.1,0.4-1.5,0.9c-0.1,0.2-0.2,0.5-0.3,0.7c0.1,2,1.4,2.1,3.2,2.2c2.1,0.1,4.6,0.3,6,3.9l0,0v0c0.4,2.3-0.1,4-1.1,5.2
		c-0.8,0.9-1.9,1.5-3.1,1.9c-1.2,0.3-2.6,0.4-3.9,0.3c-2.6-0.3-5-1.3-5.8-2.8l0,0l2.3-2.6l1.1,0.8c1.1,0.6,2.2,1.2,3.3,1.4
		c1.1,0.2,2.1,0,2.9-0.8c0.4-0.5,0.5-0.9,0.6-1.3c0-0.3,0-0.5-0.2-0.7c-0.1-0.2-0.3-0.4-0.6-0.6c-0.7-0.5-1.7-0.8-2.7-0.8h0
		c-1.8-0.2-3.3-0.6-4.3-1.5c-1.1-0.8-1.6-2.1-1.6-4.1v0c0.1-1.1,0.4-2.1,0.8-2.8c0.6-1.1,1.5-1.8,2.5-2.2
		C43.2,90.6,44.4,90.5,45.6,90.6z M41.4,104.5L41.4,104.5L41.4,104.5z"/>
	<polygon fill="#FFFFFF" points="20,90.9 26.7,90.9 19.9,99.8 26.8,108.7 19.9,108.7 14.9,102.6 14.9,108.7 8.9,108.7 8.9,105.1 	
		"/>
	<path fill="#FEFEFE" d="M20,90.8h6.8L20,99.8l6.9,9h-7l-4.8-6.1v6.1H8.9V105C12.5,100.3,16.2,95.6,20,90.8L20,90.8z M26.6,90.9H20
		L9,105.1v3.6h5.9v-6.3l5,6.3h6.8l-6.8-8.9L26.6,90.9z"/>
	<polygon fill="#505050" points="52.5,90.9 57.5,109 60.6,109 63.9,97.5 67.1,109.1 70.4,109.1 75,90.8 71,90.8 68.5,102.2 
		65.3,90.9 62.5,90.9 59.4,102.1 56.6,90.9 	"/>
	<path fill="#505050" d="M52.6,90.9l5,18h3l3.4-11.6l3.2,11.7h3.1L75,90.9h-3.9l-2.5,11.5l-3.3-11.5h-2.7l-3.1,11.4l-2.9-11.4
		L52.6,90.9z M57.5,109l-5-18.2c1.4,0,2.7,0,4.1,0l2.8,11.1l3-11.1h2.9l3.2,11.1L71,90.8h4.1c-1.6,6.1-3.1,12.2-4.7,18.3
		c-1.1,0-2.2,0-3.3,0l-3.2-11.4L60.7,109L57.5,109L57.5,109z"/>
	<polygon fill="#505050" points="76.5,90.8 80.5,90.8 80.5,109 76.5,109 	"/>
	<path fill="#505050" d="M76.5,90.7h4c0,6.1,0,12.2,0,18.3h-4.1C76.4,102.9,76.4,96.8,76.5,90.7L76.5,90.7z M80.4,90.9h-3.9v18h3.9
		V90.9z"/>
	<polygon fill="#505050" points="121.1,90.8 125.2,90.8 125.2,98.7 131.3,90.8 135.6,90.8 129.8,97.8 136.1,109 131.5,109 
		127.5,101.2 125.2,103.9 125.2,109 121.1,109 	"/>
	<path fill="#505050" d="M121.1,90.7h4.2v7.8l6-7.9h4.4l-5.8,7.1l6.4,11.2h-4.7l-4-7.8l-2.2,2.7v5.1H121
		C121,102.9,121.1,96.8,121.1,90.7L121.1,90.7z M125.2,90.9h-4v18h4v-5l2.3-2.8l4.1,7.8h4.5l-6.3-11.1l5.7-7h-4.1l-6.2,8.1V90.9z"/>
	<polygon fill="#505050" points="170.2,90.9 174.3,90.9 180.7,102 180.7,90.9 184.3,90.9 184.3,109 180.5,109 173.7,97.1 173.7,109 
		170.2,109 	"/>
	<path fill="#515151" d="M170.2,90.8h4.1l6.3,11v-11h3.7V109h-3.8l-6.7-11.7V109h-3.6L170.2,90.8L170.2,90.8z M174.2,91h-4v17.9h3.4
		V96.9l6.9,11.9h3.6v-18h-3.5v11.3L174.2,91z"/>
	<path fill="#505050" d="M137.6,90.8v17.9v0.2h4v-6.8h2.6l3.1,6.9h4.5c-1.2-2.5-2.3-4.9-3.5-7.4c2.9-2.1,4.1-5.5,1.9-8.6
		c-1.3-1.5-2-2-3.9-2.1H137.6z"/>
	<path fill="#505050" d="M137.7,90.9v18h3.9V102h2.7l3.1,6.9h4.4l-3.5-7.4l0,0c1.5-1.1,2.6-2.5,2.9-4.1c0.3-1.4,0.1-3-1-4.5
		c-0.7-0.7-1.2-1.2-1.7-1.6c-0.6-0.3-1.2-0.5-2.1-0.6H137.7z M137.6,108.7V90.7c2.6,0,6.4-0.2,8.8,0c0.9,0.1,1.6,0.2,2.2,0.6
		c0.6,0.3,1.1,0.8,1.8,1.6l0,0c1.1,1.5,1.3,3.1,1,4.6c-0.4,1.6-1.4,3-2.9,4.1l3.5,7.5h-4.6l-3.1-6.9h-2.5v6.8h-4.1V108.7z"/>
	<path fill="#FFFFFF" d="M141.5,94.3c0,1.5,0,3.1,0,4.6c1.3,0,2.7,0,4,0c1.8-0.5,2.6-2.1,1.4-3.7c-0.4-0.6-1.2-0.9-2.3-0.9
		C143.7,94.3,142.4,94.3,141.5,94.3z"/>
	<path fill="#FFFFFF" d="M141.6,94.4v4.5h4c0.4-0.1,0.7-0.3,1-0.5c0.4-0.3,0.6-0.6,0.8-1c0.2-0.4,0.2-0.8,0.1-1.2
		c-0.1-0.3-0.2-0.6-0.4-0.9l0,0c-0.2-0.3-0.5-0.5-0.8-0.6c-0.4-0.1-0.9-0.2-1.4-0.2H141.6z M141.5,98.9v-4.6h3.2
		c0.6,0,1.1,0.1,1.5,0.2c0.4,0.2,0.7,0.4,0.9,0.7c0.2,0.3,0.4,0.6,0.5,1c0.1,0.5,0.1,0.9-0.1,1.3c-0.2,0.4-0.4,0.8-0.8,1
		c-0.3,0.2-0.6,0.4-1,0.5h0L141.5,98.9L141.5,98.9z"/>
	<path fill="#505050" d="M161,90.9c1.4,0,2.6,0.3,3.7,1.1c1.5,1.1,2.6,2.9,3.1,5.1c0.2,0.9,0.2,1.9,0.2,2.9c0,1.1,0,2.2-0.2,3.2
		c-0.5,2-1.6,3.6-2.9,4.7c-1.1,0.9-2.4,1.2-3.8,1.2c-1.7,0-3.2-0.5-4.4-1.8c-1-1-1.8-2.4-2.3-4c-0.3-1-0.3-2.1-0.3-3.3
		c0-1.4,0-2.8,0.5-4c0.6-1.7,1.7-3.2,2.9-4.2C158.5,91.1,159.7,90.9,161,90.9z"/>
	<path fill="#505050" d="M161,90.9c0.7,0,1.3,0.1,2,0.2c0.6,0.2,1.2,0.5,1.8,0.9c0.7,0.6,1.4,1.3,1.9,2.2c0.5,0.9,0.9,1.8,1.2,2.9
		c0.2,0.7,0.2,1.5,0.2,2.3c0,0.2,0,0.3,0,0.5v0.3c0,1,0,2-0.2,2.9c-0.3,1-0.7,1.9-1.2,2.7c-0.5,0.8-1.1,1.5-1.8,2
		c-0.6,0.5-1.2,0.8-1.8,1c-0.7,0.2-1.3,0.3-2,0.3c-0.9,0-1.7-0.1-2.4-0.5c-0.7-0.3-1.4-0.7-2-1.3c-0.5-0.5-1-1.1-1.4-1.8
		c-0.4-0.7-0.7-1.4-0.9-2.2c-0.3-1-0.3-2-0.3-3.1V100c0-0.7,0-1.4,0.1-2.1s0.2-1.3,0.4-1.9c0.3-0.9,0.7-1.7,1.2-2.4
		c0.5-0.7,1.1-1.3,1.7-1.8c0.5-0.4,1.1-0.6,1.7-0.8C159.8,90.9,160.4,90.9,161,90.9z M163,91.2c-0.6-0.2-1.3-0.2-1.9-0.2
		c-0.6,0-1.3,0.1-1.9,0.2c-0.6,0.2-1.1,0.4-1.7,0.8c-0.6,0.5-1.2,1.1-1.7,1.8c-0.5,0.7-0.9,1.5-1.2,2.4c-0.2,0.6-0.3,1.2-0.4,1.9
		c-0.1,0.7-0.1,1.4-0.1,2.1v0.3c0,1.1,0,2.1,0.3,3c0.2,0.8,0.5,1.5,0.9,2.2c0.4,0.7,0.8,1.3,1.3,1.8c0.6,0.6,1.2,1,2,1.3
		c0.7,0.3,1.6,0.4,2.4,0.4c0.7,0,1.4-0.1,2-0.3c0.6-0.2,1.2-0.5,1.8-0.9c0.7-0.5,1.3-1.2,1.7-2c0.5-0.8,0.9-1.7,1.2-2.6
		c0.2-0.9,0.2-1.8,0.2-2.8V100c0-0.2,0-0.3,0-0.5c0-0.8,0-1.6-0.2-2.3c-0.3-1.1-0.7-2-1.2-2.9c-0.5-0.9-1.2-1.6-1.9-2.2
		C164.2,91.7,163.6,91.4,163,91.2z"/>
	<path fill="#FFFFFF" d="M161.1,94.3c0.8,0,1.6,0.2,2.2,1c0.9,1.2,1,2.4,1,4.5c0,1.9,0,3.6-0.8,4.7c-0.6,1-1.5,1.3-2.4,1.3
		c-0.9,0-1.8-0.4-2.4-1.4c-0.7-1.2-0.8-2.7-0.8-4.6c0-2.1,0.2-3.5,1.2-4.6C159.5,94.5,160.3,94.3,161.1,94.3z"/>
	<path fill="#FEFEFE" d="M161.1,94.3c0.4,0,0.8,0.1,1.2,0.2c0.4,0.2,0.7,0.4,1,0.8c0.5,0.6,0.7,1.2,0.8,1.9c0.1,0.7,0.2,1.6,0.2,2.6
		c0,1,0,1.8-0.1,2.7c-0.1,0.8-0.3,1.5-0.7,2.1c-0.3,0.5-0.7,0.8-1.1,1c-0.4,0.2-0.9,0.3-1.4,0.3c-0.5,0-0.9-0.1-1.4-0.3
		c-0.4-0.2-0.8-0.6-1.1-1.1c-0.4-0.6-0.6-1.3-0.7-2.1c-0.1-0.8-0.1-1.6-0.1-2.6c0-1.1,0.1-1.9,0.2-2.7c0.2-0.8,0.5-1.4,0.9-2
		c0.3-0.4,0.7-0.6,1.1-0.8C160.3,94.3,160.7,94.3,161.1,94.3z M162.2,94.6c-0.4-0.1-0.7-0.2-1.1-0.2c-0.4,0-0.8,0.1-1.2,0.2
		c-0.4,0.1-0.7,0.4-1,0.7c-0.5,0.6-0.8,1.2-0.9,1.9c-0.2,0.7-0.2,1.6-0.2,2.7c0,0.9,0,1.8,0.1,2.6c0.1,0.8,0.3,1.4,0.7,2
		c0.3,0.5,0.7,0.8,1.1,1c0.4,0.2,0.8,0.3,1.3,0.3c0.5,0,0.9-0.1,1.3-0.3c0.4-0.2,0.8-0.5,1.1-1c0.4-0.6,0.6-1.3,0.7-2.1
		c0.1-0.8,0.1-1.7,0.1-2.6c0-1,0-1.9-0.2-2.6c-0.1-0.7-0.4-1.3-0.8-1.9C162.9,95,162.6,94.7,162.2,94.6z"/>
	<path fill="#505050" d="M96.3,92.4c-4.2-2.3-11.7-3.6-12.4,3.5c-0.1,3.8,2.3,5,5.9,5.5c2.3,0.1,4.2,1.2,2.9,3.6
		c-1.7,1.6-4.1,0.8-6.3-0.5c-0.3-0.3-0.7-0.5-1-0.8c-0.7,0.8-1.5,1.7-2.2,2.6c2.4,3.9,15.5,4.9,13.8-4.5c-2.5-6.5-9-1.7-9.2-6.1
		c0.7-2.9,4.7-1.6,6.6-0.4C95.1,94.4,95.7,93.4,96.3,92.4z"/>
	<path fill="#505050" d="M96.3,92.5c-1.6-0.9-3.6-1.6-5.6-1.8c-1.2-0.1-2.4,0-3.4,0.4s-1.9,1.1-2.5,2.1c-0.4,0.7-0.7,1.6-0.8,2.7
		c-0.1,1.9,0.5,3.1,1.5,4c1,0.8,2.5,1.2,4.3,1.5c0.9,0.1,1.7,0.2,2.3,0.6c0.3,0.2,0.6,0.4,0.8,0.7c0.2,0.3,0.3,0.6,0.3,1
		c0,0.4-0.2,0.8-0.5,1.4v0l0,0c-0.9,0.8-1.9,1-3,0.8c-1.1-0.2-2.2-0.7-3.3-1.4c-0.3-0.2-0.7-0.5-1-0.7l-2.2,2.5
		c0.9,1.4,3.3,2.5,5.8,2.7c1.3,0.1,2.7,0.1,3.9-0.3c1.2-0.3,2.3-0.9,3.1-1.9c1-1.2,1.4-2.8,1-5.1c-1.3-3.5-3.9-3.7-6-3.8
		c-1.7-0.1-3.1-0.2-3.2-2.3v0l0,0c0.1-0.3,0.2-0.6,0.3-0.8c0.4-0.6,0.9-0.8,1.5-1c0.6-0.1,1.3,0,2,0.1c1,0.3,2,0.7,2.8,1.2
		L96.3,92.5z M90.7,90.6c2,0.2,4.1,0.9,5.6,1.8l0,0c-0.6,1-1.3,2-1.9,3l0,0c-0.7-0.5-1.7-0.9-2.8-1.2c-0.7-0.2-1.4-0.2-2-0.1
		c-0.6,0.1-1.1,0.4-1.5,0.9c-0.1,0.2-0.2,0.5-0.3,0.7c0.1,2,1.4,2.1,3.2,2.2c2.1,0.1,4.6,0.3,6,3.9v0l0,0c0.4,2.3-0.1,4-1.1,5.2
		c-0.8,0.9-1.9,1.5-3.1,1.9c-1.2,0.3-2.6,0.4-3.9,0.3c-2.6-0.3-5-1.3-5.8-2.8l0,0l2.3-2.6l1.1,0.8c1.1,0.6,2.2,1.2,3.3,1.4
		c1.1,0.2,2.1,0,2.9-0.8c0.3-0.5,0.4-0.9,0.4-1.3c0-0.4-0.1-0.7-0.2-1c-0.2-0.3-0.4-0.5-0.8-0.7c-0.6-0.3-1.4-0.5-2.3-0.6l0,0
		c-1.8-0.2-3.3-0.6-4.4-1.5c-1-0.8-1.6-2.1-1.6-4.1v0c0.1-1.1,0.4-2.1,0.8-2.8c0.6-1.1,1.5-1.8,2.5-2.2
		C88.3,90.6,89.5,90.5,90.7,90.6z M86.4,104.5L86.4,104.5L86.4,104.5z"/>
	<path fill="#505050" d="M111.4,92.4c-4.2-2.3-11.7-3.6-12.4,3.5c-0.1,3.8,2.3,5,5.9,5.5c2.3,0.1,4.2,1.2,2.9,3.6
		c-1.7,1.6-4.1,0.8-6.3-0.5c-0.3-0.3-0.7-0.5-1-0.8c-0.7,0.8-1.5,1.7-2.2,2.6c2.4,3.9,15.5,4.9,13.9-4.5c-2.5-6.5-9-1.7-9.2-6.1
		c0.7-2.9,4.7-1.6,6.6-0.4C110.2,94.4,110.8,93.4,111.4,92.4z"/>
	<path fill="#505050" d="M111.3,92.5c-1.6-0.9-3.6-1.6-5.6-1.8c-1.2-0.1-2.4,0-3.4,0.4s-1.9,1.1-2.5,2.1c-0.4,0.7-0.7,1.6-0.8,2.7
		c-0.1,1.9,0.5,3.1,1.5,4c1,0.8,2.5,1.2,4.3,1.5c0.9,0.1,1.7,0.2,2.3,0.6c0.3,0.2,0.6,0.4,0.8,0.7c0.2,0.3,0.3,0.6,0.3,1
		c0,0.4-0.2,0.8-0.5,1.4v0l0,0c-0.8,0.8-1.9,1-3,0.8s-2.2-0.7-3.3-1.4c-0.3-0.2-0.7-0.5-1-0.7l-2.2,2.5c0.9,1.4,3.3,2.5,5.8,2.7
		c1.3,0.1,2.7,0.1,3.9-0.3c1.2-0.3,2.3-0.9,3.1-1.9c1-1.2,1.4-2.8,1-5.1c-1.3-3.5-3.9-3.7-6-3.8c-1.7-0.1-3.1-0.2-3.2-2.3v0l0,0
		c0.1-0.3,0.2-0.6,0.3-0.8c0.4-0.6,0.9-0.8,1.5-1c0.6-0.1,1.3,0,2,0.1c1,0.3,2,0.7,2.8,1.2L111.3,92.5z M105.8,90.6
		c2,0.2,4.1,0.9,5.6,1.8l0,0c-0.6,1-1.3,2-1.9,3l0,0c-0.7-0.5-1.7-0.9-2.8-1.2c-0.7-0.2-1.4-0.2-2-0.1c-0.6,0.1-1.1,0.4-1.5,0.9
		c-0.1,0.2-0.2,0.5-0.3,0.7c0.1,2,1.4,2.1,3.2,2.2c2.1,0.1,4.6,0.3,6,3.9l0,0v0c0.4,2.3-0.1,4-1.1,5.2c-0.8,0.9-1.9,1.5-3.1,1.9
		s-2.6,0.4-3.9,0.3c-2.6-0.3-5-1.3-5.8-2.8l0,0l2.3-2.6l1.1,0.8c1.1,0.6,2.2,1.2,3.3,1.4c1.1,0.2,2.1,0,2.9-0.8
		c0.3-0.5,0.4-0.9,0.4-1.3c0-0.4-0.1-0.7-0.2-1c-0.2-0.3-0.4-0.5-0.8-0.7c-0.6-0.3-1.4-0.5-2.3-0.6l0,0c-1.8-0.2-3.3-0.6-4.4-1.5
		c-1-0.8-1.6-2.1-1.6-4.1v0c0.1-1.1,0.4-2.1,0.8-2.8c0.6-1.1,1.5-1.8,2.5-2.2C103.4,90.6,104.6,90.5,105.8,90.6z M101.5,104.5
		L101.5,104.5L101.5,104.5z"/>
	<path fill="#505050" d="M193,90.9c1.4,0,2.6,0.3,3.7,1.1c1.5,1.1,2.6,2.9,3.1,5.1c0.2,0.9,0.2,1.9,0.2,2.9c0,1.1,0,2.2-0.2,3.2
		c-0.5,2-1.6,3.6-2.9,4.7c-1.1,0.9-2.4,1.2-3.8,1.2c-1.7,0-3.2-0.5-4.4-1.8c-1-1-1.8-2.4-2.3-4c-0.3-1-0.3-2.1-0.3-3.3
		c0-1.4,0-2.8,0.5-4c0.6-1.7,1.7-3.2,2.9-4.2C190.5,91.1,191.7,90.9,193,90.9z"/>
	<path fill="#505050" d="M193,90.9c0.7,0,1.3,0.1,2,0.2c0.6,0.2,1.2,0.5,1.8,0.9c0.7,0.6,1.4,1.3,1.9,2.2c0.5,0.9,0.9,1.8,1.2,2.9
		c0.2,0.7,0.2,1.5,0.2,2.3c0,0.2,0,0.3,0,0.5v0.3c0,1,0,2-0.2,2.9c-0.3,1-0.7,1.9-1.2,2.7c-0.5,0.8-1.1,1.5-1.8,2
		c-0.6,0.5-1.2,0.8-1.8,1c-0.7,0.2-1.3,0.3-2,0.3c-0.9,0-1.7-0.1-2.4-0.5c-0.7-0.3-1.4-0.7-2-1.3c-0.5-0.5-1-1.1-1.4-1.8
		c-0.4-0.7-0.7-1.4-0.9-2.2c-0.3-1-0.3-2-0.3-3.1V100c0-0.7,0-1.4,0.1-2.1c0.1-0.7,0.2-1.3,0.4-1.9c0.3-0.9,0.7-1.7,1.2-2.4
		c0.5-0.7,1.1-1.3,1.7-1.8c0.5-0.4,1.1-0.6,1.7-0.8C191.7,90.9,192.3,90.9,193,90.9z M194.9,91.2c-0.6-0.2-1.3-0.2-1.9-0.2
		c-0.6,0-1.3,0.1-1.8,0.2c-0.6,0.2-1.2,0.4-1.7,0.8c-0.6,0.5-1.2,1.1-1.7,1.8c-0.5,0.7-0.9,1.5-1.2,2.4c-0.2,0.6-0.3,1.2-0.4,1.9
		c-0.1,0.7-0.1,1.4-0.1,2.1l0,0.3c0,1.1,0,2.1,0.3,3c0.2,0.8,0.5,1.5,0.9,2.2c0.4,0.7,0.8,1.3,1.3,1.8c0.6,0.6,1.2,1,2,1.3
		c0.7,0.3,1.5,0.4,2.4,0.4c0.7,0,1.4-0.1,2-0.3c0.6-0.2,1.2-0.5,1.8-0.9c0.7-0.5,1.3-1.2,1.7-2c0.5-0.8,0.9-1.7,1.2-2.6
		c0.2-0.9,0.2-1.8,0.2-2.8V100c0-0.2,0-0.3,0-0.5c0-0.8,0-1.6-0.2-2.3c-0.3-1.1-0.7-2-1.2-2.9c-0.5-0.9-1.2-1.6-1.9-2.2
		C196.1,91.7,195.5,91.4,194.9,91.2z"/>
	<path fill="#FFFFFF" d="M193,94.3c0.8,0,1.6,0.2,2.2,1c0.9,1.2,1,2.4,1,4.5c0,1.9,0,3.6-0.8,4.7c-0.7,1-1.5,1.3-2.5,1.3
		c-0.9,0-1.8-0.4-2.4-1.4c-0.7-1.2-0.8-2.7-0.8-4.6c0-2.1,0.2-3.5,1.2-4.6C191.4,94.5,192.2,94.3,193,94.3z"/>
	<path fill="#FEFEFE" d="M193,94.3c0.4,0,0.8,0.1,1.2,0.2c0.4,0.2,0.7,0.4,1,0.8c0.5,0.6,0.7,1.2,0.9,1.9c0.1,0.7,0.2,1.6,0.2,2.6
		c0,1,0,1.8-0.1,2.7c-0.1,0.8-0.3,1.5-0.7,2.1c-0.3,0.5-0.7,0.8-1.1,1c-0.4,0.2-0.9,0.3-1.4,0.3c-0.5,0-0.9-0.1-1.4-0.3
		c-0.4-0.2-0.8-0.6-1.1-1.1c-0.4-0.6-0.6-1.3-0.7-2.1c-0.1-0.8-0.1-1.6-0.1-2.6c0-1.1,0-1.9,0.2-2.7c0.2-0.8,0.5-1.4,1-2
		c0.3-0.4,0.7-0.6,1.1-0.8C192.2,94.3,192.6,94.3,193,94.3z M194.2,94.6c-0.4-0.1-0.7-0.2-1.2-0.2c-0.4,0-0.8,0.1-1.1,0.2
		c-0.4,0.1-0.7,0.4-1,0.7c-0.5,0.6-0.8,1.2-0.9,1.9c-0.2,0.7-0.2,1.6-0.2,2.7c0,0.9,0,1.8,0.1,2.6c0.1,0.8,0.3,1.4,0.7,2
		c0.3,0.5,0.7,0.8,1.1,1c0.4,0.2,0.8,0.3,1.3,0.3c0.5,0,0.9-0.1,1.3-0.3c0.4-0.2,0.8-0.5,1.1-1c0.4-0.6,0.6-1.3,0.7-2.1
		c0.1-0.8,0.1-1.7,0.1-2.6c0-1,0-1.9-0.2-2.6c-0.1-0.7-0.4-1.3-0.8-1.9C194.8,95,194.5,94.7,194.2,94.6z"/>
</g>
</svg>
