<?xml version="1.0" encoding="utf-8"?>
<!-- Generator: Adobe Illustrator 19.2.1, SVG Export Plug-In . SVG Version: 6.00 Build 0)  -->
<svg version="1.1" id="Layer_1" xmlns="http://www.w3.org/2000/svg" xmlns:xlink="http://www.w3.org/1999/xlink" x="0px" y="0px"
	 viewBox="0 0 200 200" style="enable-background:new 0 0 200 200;" xml:space="preserve">
<style type="text/css">
	.st0{fill:#FFFFFF;}
</style>
<g id="Layer_x0020_1">
	<path class="st0" d="M51.6,92.5C47.4,90.2,39.9,89,39.3,96c-0.1,3.8,2.3,5,5.9,5.4c2.3,0.1,4.5,1.3,2.9,3.6
		c-1.7,1.6-4.1,0.8-6.2-0.5c-0.3-0.3-0.7-0.5-1-0.8c-0.7,0.8-1.5,1.7-2.2,2.5c2.3,3.9,15.4,4.9,13.8-4.5c-2.5-6.4-9-1.6-9.1-6.1
		c0.7-2.9,4.7-1.6,6.6-0.4C50.4,94.4,51,93.5,51.6,92.5z"/>
	<path class="st0" d="M27.2,90.9l-6.7,8.8l6.8,8.9h-6.9l-4.9-6.1v6.1h-6V105l11-14.1L27.2,90.9c-2.7-3.6-6.9-5.9-11.7-5.9
		c-8.1,0-14.7,6.7-14.7,14.9c0,8.2,6.6,14.9,14.7,14.9s14.7-6.7,14.7-14.9C30.2,96.6,29.1,93.5,27.2,90.9z M3.6,102.8v-6.1h5.9l0-6
		h6v4.6l-5.8,7.4H3.6z"/>
	<polygon class="st0" points="52.9,91 57.8,108.9 60.9,108.9 64.2,97.6 67.4,109 70.6,109 75.2,90.9 71.2,90.9 68.7,102.2 
		65.5,90.9 62.8,90.9 59.7,102.1 56.8,90.9 	"/>
	<polygon class="st0" points="76.7,90.9 80.6,90.9 80.6,108.9 76.7,108.9 	"/>
	<polygon class="st0" points="121,90.9 125,90.9 125,98.8 131.1,90.8 135.3,90.8 129.6,97.8 135.9,108.9 131.3,108.9 127.3,101.1 
		125,103.9 125,108.9 121,108.9 	"/>
	<polygon class="st0" points="169.7,91 173.8,91 180.2,102 180.2,90.9 183.7,90.9 183.7,108.9 180,108.9 173.3,97.2 173.3,108.9 
		169.7,108.9 	"/>
	<path class="st0" d="M148.1,101.6c2.9-2.1,4.1-5.4,1.9-8.6c-1.3-1.5-2-1.9-3.9-2.1h-8.7v17.7v0.2h3.9v-6.8h2.6l3.1,6.9h4.5
		C150.4,106.5,149.2,104,148.1,101.6z M145.2,98.9c-1.3,0-2.7,0-4,0c0-1.5,0-3,0-4.6c0.9,0,2.1,0,3.1,0c1.1,0,1.9,0.3,2.3,0.9
		C147.8,96.8,147,98.4,145.2,98.9z"/>
	<path class="st0" d="M167.4,97.2c-0.5-2.1-1.6-3.9-3.1-5.1c-1.1-0.8-2.3-1.1-3.7-1.1c-1.3,0-2.5,0.2-3.5,1
		c-1.3,0.9-2.3,2.4-2.9,4.1c-0.4,1.2-0.5,2.5-0.5,3.9c0,1.2,0,2.3,0.3,3.3c0.5,1.6,1.3,2.9,2.3,3.9c1.2,1.2,2.7,1.8,4.4,1.8
		c1.4,0,2.7-0.3,3.8-1.2c1.3-1.1,2.4-2.7,2.9-4.7c0.3-1,0.2-2,0.2-3.1C167.6,99,167.6,98,167.4,97.2z M163,104.5
		c-0.6,1-1.5,1.3-2.4,1.3c-0.9,0-1.8-0.4-2.4-1.4c-0.7-1.2-0.8-2.7-0.8-4.6c0-2.1,0.2-3.5,1.2-4.6c0.6-0.7,1.4-1,2.2-1
		c0.8,0,1.6,0.2,2.2,1c0.9,1.1,1,2.4,1,4.5C163.8,101.7,163.8,103.4,163,104.5z"/>
	<path class="st0" d="M96.4,92.5C92.2,90.2,84.7,89,84.1,96c-0.1,3.8,2.3,5,5.9,5.4c2.3,0.1,4.2,1.2,2.9,3.6
		c-1.7,1.6-4.1,0.8-6.2-0.5c-0.3-0.3-0.7-0.5-1-0.8c-0.7,0.8-1.5,1.7-2.2,2.5c2.3,3.9,15.4,4.9,13.8-4.5c-2.5-6.4-9-1.6-9.1-6.1
		c0.7-2.9,4.7-1.6,6.6-0.4C95.1,94.4,95.8,93.5,96.4,92.5z"/>
	<path class="st0" d="M111.3,92.5C107.2,90.2,99.7,89,99,96c-0.1,3.8,2.3,5,5.9,5.4c2.3,0.1,4.2,1.2,2.9,3.6
		c-1.7,1.6-4.1,0.8-6.2-0.5c-0.3-0.3-0.7-0.5-1-0.8c-0.7,0.8-1.5,1.7-2.2,2.5c2.3,3.9,15.4,4.9,13.8-4.5c-2.5-6.4-9-1.6-9.1-6.1
		c0.7-2.9,4.7-1.6,6.6-0.4C110.1,94.4,110.7,93.5,111.3,92.5z"/>
	<path class="st0" d="M199.1,97.2c-0.5-2.1-1.6-3.9-3.1-5.1c-1.1-0.8-2.3-1.1-3.7-1.1c-1.3,0-2.5,0.2-3.5,1
		c-1.3,0.9-2.3,2.4-2.9,4.1c-0.4,1.2-0.5,2.5-0.5,3.9c0,1.2,0,2.3,0.3,3.3c0.5,1.6,1.3,2.9,2.3,3.9c1.2,1.2,2.7,1.8,4.4,1.8
		c1.4,0,2.7-0.3,3.8-1.2c1.3-1.1,2.3-2.7,2.9-4.7c0.3-1,0.2-2,0.2-3.1C199.3,99,199.3,98,199.1,97.2z M194.8,104.5
		c-0.6,1-1.5,1.3-2.4,1.3c-0.9,0-1.8-0.4-2.4-1.4c-0.7-1.2-0.8-2.7-0.8-4.6c0-2.1,0.2-3.5,1.1-4.6c0.6-0.7,1.4-1,2.2-1
		c0.8,0,1.6,0.2,2.2,1c0.9,1.1,1,2.4,1,4.5C195.6,101.7,195.5,103.4,194.8,104.5z"/>
</g>
</svg>
