<?xml version="1.0" encoding="utf-8"?>
<!-- Generator: Adobe Illustrator 18.0.0, SVG Export Plug-In . SVG Version: 6.00 Build 0)  -->
<!DOCTYPE svg PUBLIC "-//W3C//DTD SVG 1.1//EN" "http://www.w3.org/Graphics/SVG/1.1/DTD/svg11.dtd">
<svg version="1.1" id="Layer_1" xmlns="http://www.w3.org/2000/svg" xmlns:xlink="http://www.w3.org/1999/xlink" x="0px" y="0px"
	 viewBox="0 0 200 200" enable-background="new 0 0 200 200" xml:space="preserve">
<g id="Layer_x0020_1">
	
		<linearGradient id="SVGID_1_" gradientUnits="userSpaceOnUse" x1="1832.8246" y1="-2408.4424" x2="1832.8246" y2="-853.0707" gradientTransform="matrix(5.404448e-002 0 0 -5.404448e-002 0.946 11.8666)">
		<stop  offset="0" style="stop-color:#440000"/>
		<stop  offset="1" style="stop-color:#EB000C"/>
	</linearGradient>
	<polygon fill="url(#SVGID_1_)" points="0,58 200,58 200,142 0.1,142 	"/>
	
		<linearGradient id="SVGID_2_" gradientUnits="userSpaceOnUse" x1="-0.7777" y1="201.1024" x2="-0.5739" y2="201.1024" gradientTransform="matrix(62.0971 0 0 -174.4141 76.284 35174.543)">
		<stop  offset="0" style="stop-color:#FFFFFF"/>
		<stop  offset="1" style="stop-color:#FEFEFE"/>
	</linearGradient>
	<path fill="url(#SVGID_2_)" d="M40.6,81.7v34.9c-0.8,0-1.7,0-2.5,0c0-0.7,0-1.3,0-2c-2.7,4.3-10.2,3.1-10.2-2.3
		c0-5.7,0-11.4,0-17.1c0.1-5.3,6.4-7,9.3-4.1v-7.9L40.6,81.7z"/>
	<path fill="#FFFFFF" d="M45.8,81.4c1.2,0,2.2,0.9,2.2,2.1c0,1.2-1,2.1-2.2,2.1c-1.2,0-2.2-0.9-2.2-2.1
		C43.6,82.3,44.6,81.4,45.8,81.4z"/>
	<polygon fill="#FFFFFF" points="43.8,90.5 47.1,90.5 47.1,116.5 43.8,116.5 	"/>
	
		<linearGradient id="SVGID_3_" gradientUnits="userSpaceOnUse" x1="910.2587" y1="-1690.6501" x2="1139.2954" y2="-1690.6501" gradientTransform="matrix(5.404448e-002 0 0 -5.404448e-002 0.946 11.8666)">
		<stop  offset="0" style="stop-color:#FFFFFF"/>
		<stop  offset="1" style="stop-color:#FEFEFE"/>
	</linearGradient>
	<path fill="url(#SVGID_3_)" d="M51.7,93c0.8,0.6,1.6,1.2,2.4,1.8c0.3-0.4,0.7-0.8,1-1.2c1.5-1.5,3.6-1.1,4.1,1.3c0,0.9,0,1.9,0,2.8
		c-1.1,0.9-2.1,1.7-3.2,2.5c-2.6,2.1-5.8,4.7-5.8,8.2c0,1,0,3.2,0,4.2c0,4.9,7.8,5.1,9.8,2.2c0,0.6,0,1.1,0,1.7c0.8,0,1.7,0,2.5,0
		c0-7.7,0-15.4,0-23.1c-0.3-3.3-5.2-4.3-7.8-3.1C53.1,91.2,52.9,91.5,51.7,93z"/>
	<path fill="#8A0005" d="M59.3,102.7c0,2.9,0,5.9,0,8.8c-0.2,0.8-0.7,1.4-1.2,1.5c-2,0.5-3.4,0.3-4-0.8c-0.2-0.4-0.3-0.8-0.4-1.2
		C53.2,106.9,55.7,104.5,59.3,102.7z"/>
	<path fill="#FFFFFF" d="M65.8,90.4v26.1h3.7c0-7,0-14.1,0-21.1c0.8-3.2,5.4-3.4,6-0.3v21.3h3.7c0-7.5,0-15,0-22.6
		c0-4.7-8.2-5-9.8-2.2c0-0.4,0-0.9,0-1.3L65.8,90.4z"/>
	<path fill="#FFFFFF" d="M99.1,116.5h3.2V92.9h3.2v-2.5h-3.2c0-1,0-2.1,0-3.1c0.7-2.7,2.9-3.1,4.9-2.6c0.3-0.7,0.6-1.4,0.9-2
		c-3.7-2.2-9.1,0.7-9.1,4.4v3.4h-1.6v2.5h1.6L99.1,116.5z"/>
	
		<linearGradient id="SVGID_4_" gradientUnits="userSpaceOnUse" x1="1980.0479" y1="-1694.3385" x2="2209.0847" y2="-1694.3385" gradientTransform="matrix(5.404448e-002 0 0 -5.404448e-002 0.946 11.8666)">
		<stop  offset="0" style="stop-color:#FFFFFF"/>
		<stop  offset="1" style="stop-color:#FEFEFE"/>
	</linearGradient>
	<path fill="url(#SVGID_4_)" d="M108,112.4c0-6.1,0-12.1,0-18.2c0.3-3.3,2.6-4.5,6.3-4.5c3.2,0,5.9,1.2,6,4c0,0.3,0,0.6,0,0.9
		c0,5.9,0,11.8,0,17.8c0,3.4-3.3,4.6-6.4,4.6C110.5,117.1,108,115.5,108,112.4z"/>
	
		<linearGradient id="SVGID_5_" gradientUnits="userSpaceOnUse" x1="-7.1085" y1="201.4324" x2="-6.9047" y2="201.4324" gradientTransform="matrix(63.9086 0 0 -129.7608 586.652 26241.543)">
		<stop  offset="0" style="stop-color:#FFFFFF"/>
		<stop  offset="1" style="stop-color:#FEFEFE"/>
	</linearGradient>
	<path fill="url(#SVGID_5_)" d="M132.4,110.6c0-4.8,0-9.6,0-14.4c0-3.1,2.5-5.9,6.3-5.9c4.5,0,6.7,2.9,6.7,6.7c0.2,4-0.5,6-3.2,8.2
		c-0.8,0.6-1.7,1.2-2.5,1.8c-1.2,0.7-2.5,1.4-3.7,2c0,2.5,0.4,4.4,3.1,4.4c2.2,0,3.5-0.3,3.5-3.4c0.8-0.3,1.6-0.6,2.4-1
		c0,5.8-1.4,7.7-6.3,7.7C134.2,116.7,132.4,115.7,132.4,110.6z"/>
	<path fill="#8A0005" d="M135.7,104c0-2.7,0-5.5,0-8.2c1-3.6,5.8-3.1,6.5,0.4c0.2,1.7,0.2,2.3-0.3,3.9c-0.7,2.6-3,5.3-6.1,5.3
		C135.7,104.9,135.7,104.4,135.7,104z"/>
	<path fill="#FFFFFF" d="M147.9,109.1c0.9,0.2,1.7,0.3,2.6,0.5c0,5.3,7,5.4,7,0.6c0-0.4,0-1.3-0.1-1.7c-0.3-0.9-1.7-2.1-2.4-2.8
		c-1.1-1-2.2-1.9-3.3-2.9c-1-1.2-2.2-2.2-2.9-3.5c-1.2-2-1.1-5.1,1.6-7.8c5.8-4.3,10.4,0.3,10.4,6.4c-0.7-0.3-1.8-0.8-2.5-1.1
		c-0.3-1.6-0.4-4.4-3.5-4.4c-1.7,0-2.7,1.2-3.2,3c-0.2,1.4,0.2,2.6,1,3.6c2.3,2.1,4.6,4.2,6.8,6.4c1.3,1.6,1.3,1.7,1.6,3.6
		c0,0.6,0,1.2,0,1.7c0,3.1-1.5,4.1-3.9,5.4C151.3,117.9,148.1,114.7,147.9,109.1z"/>
	<path fill="#FFFFFF" d="M165.7,90.5c0-1.6,0-3.2,0-4.8c1.1-0.3,2.1-0.7,3.2-1c0,1.9,0,3.9,0,5.8c1.7,0,3.3,0,4.9,0
		c0,0.8,0,1.6,0,2.4c-1.6,0-3.3,0-4.9,0c0,6.4,0,12.9,0,19.3c0,2.1,2.8,1.2,3.8,0.7c0.7,0.7,1.3,1.4,2,2c-1.6,1.5-1.9,1.5-2.8,1.7
		c-2.3,0.3-6.3,0-6.3-3.1c0-6.9,0-13.8,0-20.7c-0.8,0-1.7,0-2.5,0v-2.4H165.7z"/>
	<path fill="#8A0005" d="M31.6,96c0,5,0,10,0,15.1c0,3,5.6,3.2,5.6,0.1c0-5.6,0-10.7,0-16.3c0-2.6-5.6-2.6-5.6,0.1
		C31.6,95.3,31.6,95.6,31.6,96z"/>
	
		<linearGradient id="SVGID_6_" gradientUnits="userSpaceOnUse" x1="-4.2911" y1="201.4095" x2="-4.0874" y2="201.4095" gradientTransform="matrix(60.746 0 0 -131.8413 342.6692 26657.3301)">
		<stop  offset="0" style="stop-color:#FFFFFF"/>
		<stop  offset="1" style="stop-color:#FEFEFE"/>
	</linearGradient>
	<path fill="url(#SVGID_6_)" d="M83.6,93c0.8,0.6,1.6,1.2,2.4,1.8c0.3-0.4,0.7-0.8,1-1.2c1.5-1.5,3.6-1.1,4.1,1.3c0,0.9,0,1.9,0,2.8
		c-1.1,0.9-2.1,1.7-3.2,2.5c-2.6,2.1-5.8,4.7-5.8,8.2c0,1,0,3.2,0,4.2c0,4.9,7.8,5.1,9.8,2.2c0,0.6,0,1.1,0,1.7c0.8,0,1.7,0,2.5,0
		c0-7.7,0-15.4,0-23.1c-0.4-3.3-5.2-4.3-7.8-3.1C85,91.2,84.7,91.5,83.6,93z"/>
	<path fill="#8A0005" d="M91.1,102.7c0,2.9,0,5.9,0,8.8c-0.2,0.8-0.7,1.4-1.2,1.5c-2,0.5-3.4,0.3-4-0.8c-0.2-0.4-0.3-0.8-0.4-1.2
		C85.1,106.9,87.6,104.5,91.1,102.7z"/>
	<path fill="#8A0005" d="M111.5,110.1c0-4.5,0-9,0-13.5c0.1-2.4,1.1-3.3,2.7-3.3c1.4,0,2.5,1,2.6,3.7c0,4.4,0,8.8,0,13.2
		c0,2.5-1.4,3.4-2.7,3.4C112.6,113.6,111.5,112.4,111.5,110.1z"/>
	<path fill="#FFFFFF" d="M126.7,116.5c0-6.9,0-13.7,0-20.6c0-1.7,2.6-3.3,4.1-2.4c0.5-0.9,1-1.8,1.6-2.7c-2.5-1.2-4.6-0.6-5.8,1.3
		c0-0.6,0-1.1,0-1.7h-2.9v26.1H126.7z"/>
</g>
</svg>
