<?xml version="1.0" encoding="utf-8"?>
<!-- Generator: Adobe Illustrator 19.2.1, SVG Export Plug-In . SVG Version: 6.00 Build 0)  -->
<svg version="1.1" id="Layer_1" xmlns="http://www.w3.org/2000/svg" xmlns:xlink="http://www.w3.org/1999/xlink" x="0px" y="0px"
	 viewBox="0 0 200 200" style="enable-background:new 0 0 200 200;" xml:space="preserve">
<style type="text/css">
	.st0{fill:#FFFFFF;}
	.st1{clip-path:url(#SVGID_2_);fill:#FFFFFF;}
	.st2{clip-path:url(#SVGID_4_);fill:#FFFFFF;}
	.st3{clip-path:url(#SVGID_6_);fill:#FFFFFF;}
	.st4{clip-path:url(#SVGID_8_);fill:#FFFFFF;}
	.st5{clip-path:url(#SVGID_10_);fill:#FFFFFF;}
</style>
<g id="Layer_x0020_1_1_">
	<g>
		<path class="st0" d="M25,75.9c1.6,0,2.9,1.3,2.9,2.8c0,1.6-1.3,2.8-2.9,2.8c-1.6,0-2.9-1.3-2.9-2.8C22.1,77.1,23.4,75.9,25,75.9z"
			/>
	</g>
	<g>
		<polygon class="st0" points="22.4,88.1 26.8,88.1 26.8,123.2 22.4,123.2 		"/>
	</g>
	<g>
		<g>
			<defs>
				<path id="SVGID_1_" d="M37.1,87.8c-2.1,1.3-2.5,1.8-4.1,3.7c1.1,0.8,2.2,1.6,3.3,2.4c0.4-0.5,0.9-1.1,1.3-1.6
					c2-2,4.9-1.5,5.5,1.7c0,1.2,0,2.5,0,3.8c-1.5,1.2-2.8,2.3-4.4,3.4c-3.5,2.9-7.9,6.3-7.9,11.1c0,1.3,0,4.3,0,5.6
					c0,6.6,10.6,6.9,13.3,3c0,0.8,0,1.5,0,2.3c1.1,0,2.3,0,3.4,0c0-10.4,0-20.8,0-31.1C47.2,87.6,40.6,86.3,37.1,87.8z M43.2,116.5
					c-0.3,1.1-1,1.9-1.6,2c-2.6,0.7-4.6,0.4-5.4-1.1c-0.3-0.5-0.4-1-0.5-1.6c-0.5-5.5,2.8-8.8,7.6-11.2
					C43.2,108.6,43.2,112.5,43.2,116.5z"/>
			</defs>
			<clipPath id="SVGID_2_">
				<use xlink:href="#SVGID_1_"  style="overflow:visible;"/>
			</clipPath>
			<rect x="35.1" y="104.6" class="st1" width="8.1" height="14.6"/>
			<path class="st1" d="M30.9,86.3v38.5V86.3z"/>
			<rect x="30.9" y="86.3" class="st1" width="16.7" height="38.5"/>
			<path class="st1" d="M47.6,124.8V86.3V124.8z"/>
		</g>
	</g>
	<g>
		<path class="st0" d="M52,88v35.2h5c0-9.5,0-19,0-28.4c1.1-4.3,7.3-4.6,8.1-0.4v28.8h5c0-10.1,0-20.3,0-30.4c0-6.3-11.1-6.7-13.3-3
			c0-0.6,0-1.2,0-1.8L52,88z"/>
	</g>
	<g>
		<path class="st0" d="M97,123.2h4.3V91.4h4.3v-3.4h-4.3c0-1.4,0-2.8,0-4.2c1-3.6,4-4.2,6.7-3.5c0.4-0.9,0.8-1.8,1.3-2.8
			c-5.1-2.9-12.3,0.9-12.3,6v4.5h-2.1v3.3h2.2L97,123.2z"/>
	</g>
	<g>
		<g>
			<defs>
				<path id="SVGID_3_" d="M150.7,119.1c-3.7,0-4.2-2.6-4.2-6c1.6-0.8,3.5-1.7,5.1-2.7c1.1-0.8,2.3-1.6,3.4-2.4
					c3.6-2.9,4.6-5.7,4.3-11.1c0-5.2-2.9-9.1-9-9.1c-5.2,0-8.5,3.8-8.5,8c0,6.5,0,12.9,0,19.4c0,7,2.5,8.3,8.5,8.3
					c6.5,0,8.5-2.5,8.5-10.3c-1.1,0.4-2.2,0.9-3.3,1.3C155.5,118.7,153.7,119.1,150.7,119.1z M146.3,106.3c0-3.7,0-7.4,0-11.1
					c1.3-4.9,7.8-4.2,8.7,0.6c0.2,2.3,0.2,3.1-0.4,5.3c-1,3.5-4.1,7.2-8.3,7.2C146.4,107.6,146.4,107,146.3,106.3z"/>
			</defs>
			<clipPath id="SVGID_4_">
				<use xlink:href="#SVGID_3_"  style="overflow:visible;"/>
			</clipPath>
			<rect x="146.3" y="90.4" class="st2" width="8.9" height="17.9"/>
			<path class="st2" d="M141.8,87.9v35.7V87.9z"/>
			<rect x="141.8" y="87.9" class="st2" width="17.6" height="35.7"/>
			<rect x="159.4" y="87.9" class="st2" width="0.2" height="35.7"/>
		</g>
	</g>
	<g>
		<path class="st0" d="M162.7,113.3c1.2,0.2,2.3,0.4,3.5,0.7c0,7.1,9.5,7.2,9.5,0.9c0-0.5,0-1.8-0.1-2.2c-0.4-1.2-2.2-2.9-3.2-3.7
			c-1.5-1.3-2.9-2.6-4.4-3.9c-1.4-1.6-2.9-3-3.9-4.8c-1.6-2.7-1.5-6.9,2.1-10.5c7.8-5.8,14.1,0.5,14.1,8.7c-1-0.4-2.4-1.1-3.4-1.5
			c-0.4-2.1-0.5-5.9-4.8-5.9c-2.3,0-3.7,1.6-4.4,4.1c-0.3,1.8,0.2,3.5,1.3,4.9c3.1,2.9,6.1,5.7,9.2,8.6c1.8,2.2,1.8,2.2,2.1,4.9
			c0,0.8,0,1.6,0,2.3c0,4.2-2.1,5.5-5.2,7.3C167.4,125.1,163,120.8,162.7,113.3z"/>
	</g>
	<g>
		<path class="st0" d="M186.8,88.1c0-2.2,0-4.3,0-6.5c1.4-0.4,2.9-0.9,4.3-1.3c0,2.6,0,5.2,0,7.8c2.2,0,4.4,0,6.7,0
			c0,1.1,0,2.2,0,3.3c-2.2,0-4.4,0-6.6,0c0,8.7,0,17.3,0,26c0,2.8,3.7,1.7,5.1,0.9c0.9,0.9,1.8,1.8,2.7,2.7c-2.1,2.1-2.6,2-3.7,2.3
			c-3.1,0.5-8.5,0-8.5-4.1c0-9.3,0-18.6,0-27.9c-1.1,0-2.2,0-3.3,0v-3.2H186.8z"/>
	</g>
	<g>
		<g>
			<defs>
				<path id="SVGID_5_" d="M13.6,78.4V89c-4-4-12.4-1.6-12.6,5.5c0,7.7,0,15.4,0,23.1c0,7.2,10,8.9,13.7,3.1c0,0.9,0,1.8,0,2.7
					c1.1,0,2.2,0,3.4,0V76.2L13.6,78.4z M13.5,116c0,4.2-7.6,3.9-7.6-0.1c0-6.8,0-13.6,0-20.3c0-0.5,0-1,0.1-1.4
					c0-3.6,7.5-3.6,7.5-0.1C13.5,101.6,13.5,108.4,13.5,116z"/>
			</defs>
			<clipPath id="SVGID_6_">
				<use xlink:href="#SVGID_5_"  style="overflow:visible;"/>
			</clipPath>
			<rect x="5.9" y="90.5" class="st3" width="7.6" height="29.7"/>
			<path class="st3" d="M1,76.2v50.2V76.2z"/>
			<rect x="1" y="76.2" class="st3" width="17.1" height="50.2"/>
			<path class="st3" d="M18.1,126.5V76.2V126.5z"/>
		</g>
	</g>
	<g>
		<g>
			<defs>
				<path id="SVGID_7_" d="M80,87.8c-2.1,1.3-2.5,1.8-4.1,3.7c1.1,0.8,2.2,1.6,3.3,2.4c0.4-0.5,0.9-1.1,1.3-1.6c2-2,4.9-1.5,5.5,1.7
					c0,1.2,0,2.5,0,3.8c-1.5,1.2-2.8,2.3-4.4,3.4c-3.5,2.9-7.9,6.3-7.9,11.1c0,1.3,0,4.3,0,5.6c0,6.6,10.6,6.9,13.3,3
					c0,0.8,0,1.5,0,2.3c1.1,0,2.3,0,3.4,0c0-10.4,0-20.8,0-31.1C90.1,87.6,83.6,86.3,80,87.8z M86.2,116.5c-0.3,1.1-1,1.9-1.6,2
					c-2.6,0.7-4.6,0.4-5.4-1.1c-0.3-0.5-0.4-1-0.5-1.6c-0.5-5.5,2.8-8.8,7.6-11.2C86.2,108.6,86.2,112.5,86.2,116.5z"/>
			</defs>
			<clipPath id="SVGID_8_">
				<use xlink:href="#SVGID_7_"  style="overflow:visible;"/>
			</clipPath>
			<rect x="78.1" y="104.6" class="st4" width="8.1" height="14.6"/>
			<path class="st4" d="M73.9,86.3v38.5V86.3z"/>
			<rect x="73.9" y="86.3" class="st4" width="16.7" height="38.5"/>
			<path class="st4" d="M90.6,124.8V86.3V124.8z"/>
		</g>
	</g>
	<g>
		<g>
			<defs>
				<path id="SVGID_9_" d="M125.5,92.6c-0.2-3.8-3.8-5.4-8.2-5.4c-5,0-8.1,1.6-8.5,6c0,8.2,0,16.4,0,24.5c0,4.1,3.4,6.2,8.1,6.2
					c4.2,0,8.6-1.6,8.6-6.2c0-8,0-16,0-24C125.6,93.4,125.5,93,125.5,92.6z M120.8,114.7c0,3.4-1.9,4.6-3.7,4.6
					c-2,0-3.4-1.6-3.4-4.6c0-6.1,0-12.1,0-18.2c0.2-3.2,1.5-4.5,3.6-4.5c1.9,0,3.4,1.4,3.5,4.9C120.8,102.8,120.8,108.7,120.8,114.7
					z"/>
			</defs>
			<clipPath id="SVGID_10_">
				<use xlink:href="#SVGID_9_"  style="overflow:visible;"/>
			</clipPath>
			<rect x="113.7" y="91.9" class="st5" width="7.1" height="27.3"/>
			<path class="st5" d="M108.9,87.2V124V87.2z"/>
			<rect x="108.9" y="87.2" class="st5" width="16.7" height="36.8"/>
			<path class="st5" d="M125.6,124V87.2V124z"/>
		</g>
	</g>
	<g>
		<path class="st0" d="M134.2,123.2c0-9.3,0-18.5,0-27.8c0-2.3,3.5-4.4,5.5-3.3c0.7-1.2,1.4-2.5,2.1-3.7c-3.4-1.6-6.2-0.8-7.9,1.8
			c0-0.7,0-1.5,0-2.2H130v35.2H134.2z"/>
	</g>
</g>
</svg>
