<?xml version="1.0" encoding="utf-8"?>
<!-- Generator: Adobe Illustrator 19.2.1, SVG Export Plug-In . SVG Version: 6.00 Build 0)  -->
<svg version="1.1" id="Layer_1" xmlns="http://www.w3.org/2000/svg" xmlns:xlink="http://www.w3.org/1999/xlink" x="0px" y="0px"
	 viewBox="0 0 200 200" style="enable-background:new 0 0 200 200;" xml:space="preserve">
<style type="text/css">
	.st0{fill:#FFFFFF;}
</style>
<g id="Layer_x0020_1">
	<path class="st0" d="M21.8,110.6c-7.3-1.3-19.6-15.8-7.5-19.2c-1.2-11.8,7.7-10.4,15.6-8c0.8,0.3,1.7,0.7,2.5,1
		c-8.1-5.8-26.6-13.5-25,3.5c-12,2.6-5.1,12.1,0.4,17.3c4.9,3.5,8.4,5.4,14.1,7.1c0,1.2,0,2.3,0,3.5c-1,1.8-2.1,3.6-3.1,5.4
		c3.7,0,7.4,0,11,0c-1-1.8-2.1-3.6-3.1-5.4c0-2.4,0-4.8,0-7.2c0.8,0.3,1.7,0.6,2.5,0.9c27.1,8.1,17.2-25.2-7.3-23
		c6.4,0.9,21.2,6.2,19.7,14.3c-1.4,7-6.5,6.3-12.4,5.8c-6.9-1.8-9.5-3.8-14.8-8.2c2.3,2.9,4.3,5.6,7.5,7.6
		C21.8,107.4,21.8,109,21.8,110.6z"/>
	<path class="st0" d="M70.9,112.5c-0.7-1.9-2.7-3.5-5.7-4.7c2.1-1,4.5-2.2,5.1-4.7c0.3-3.3-0.7-4.8-2.4-6.2
		c-3.1-1.9-6.1-2.2-10.5-2.1c-2.7,0.3-4.6,0.6-7.1,2c0,8,0,16,0,24c2.5,0.5,4.2,0.8,6.8,1.1c3.6,0.3,6.8,0.4,8.9-0.4
		C70.8,119.4,71.8,116.6,70.9,112.5z M56.7,98.6c0-0.3,0-0.5,0-0.8c2.4-0.3,3.7-0.2,5.9,0.7c2,1.3,2.1,4,1.9,5
		c-1.2,3.6-4.7,3.3-7.8,3.3C56.7,104,56.7,101.3,56.7,98.6z M63.1,118.3c-1.8,1-4,0.8-6.5,0.4c0-3.1,0-6.2,0-9.3
		c2.9-0.3,5-0.5,7.2,1.5C66,113.2,65.5,116.2,63.1,118.3z"/>
	<path class="st0" d="M96.6,102.6c0,6.4,0,12.8,0,19.2c2,0,4.1,0,6.1,0c0-5.6,0-11.2,0-16.8c1-1,0.8-0.8,2.2-1
		c1.3,0.1,1.3,0,2.4,0.6c0.4-1.3,0.9-2.6,1.3-3.8c-0.7-0.1-1.4-0.1-2.1-0.2C103.5,100.6,98.8,100.6,96.6,102.6z"/>
	<polygon class="st0" points="111.4,92.7 111.4,121.9 118,121.9 118,91.1 	"/>
	<polygon class="st0" points="123.3,94.7 123.3,99.3 129.4,98.2 129.4,93 	"/>
	<polygon class="st0" points="123.1,102.4 123.1,121.9 129.7,121.9 129.7,101 	"/>
	<path class="st0" d="M134.8,102.2c2.9-1.2,4.7-1.3,7.8-1.6c4.1,0.1,8.9,0.3,11.1,4.3c0,5.4-0.1,10.7-0.1,16.1c0,0.2,0,0.5,0,0.7
		c-2,0-3.9,0-5.9,0c0-5.3,0-10.6,0-15.9c-0.6-1-1-1.2-2-1.8c-2-0.4-3-0.2-5,0.1c0,5.9,0,11.8,0,17.6c-2,0-4,0-5.9,0
		C134.8,115.3,134.8,108.7,134.8,102.2z"/>
	<path class="st0" d="M170.3,101.2c-4.4-1.2-7.8-0.4-11,2.6c-2.1,2.5-2.7,4.9-2.8,7.6c0,5,2.5,8.1,6.4,10.1
		c2.9,1.2,8.7,1.5,12.4-0.8c-0.5-1.3-0.7-2.6-1.7-3.6c-4.5,2.2-9.4,1.8-11.3-3.5c4.8-0.6,9.5-1.2,14.3-1.8
		C177.1,106.7,174.9,103.3,170.3,101.2z M170.6,109.4c-2.8,0.4-5.6,0.7-8.4,1.1c0-3.5,0.5-6.6,5.1-6.5
		C169.7,104.3,170.7,106.8,170.6,109.4z"/>
	<polygon class="st0" points="179.1,92.7 185.4,91.9 185.4,110.2 191.8,101 198.1,101.1 191,110.4 199.3,122.1 191.7,122.1 
		185.5,111.3 185.5,122 179.1,122 	"/>
	<path class="st0" d="M85,100.5c-3.8,0-5.7,0.4-9.4,1.9c0.5,0.9,1.1,1.9,1.6,2.8c2.2-1.2,3.6-1.8,5.6-1.7c2,0.1,2.7,0.3,4.1,2.2
		c0,0.9,0,2,0,2.8c-7,0.7-15.3,2-12,10.9c2.1,3.9,8.6,3.2,13.8,2.9c2.2-0.4,2.4-0.7,3.8-1.7c0-5.1,0-10.2,0-15.3
		C91.6,103,89.1,100.8,85,100.5z M87,118.8c-3.3,0.8-6.4,1-7.5-1.7c-1.3-4.8,3.5-6.5,7.5-6.4C87,113.4,87,116.1,87,118.8z"/>
</g>
</svg>
