<?xml version="1.0" encoding="utf-8"?>
<!-- Generator: Adobe Illustrator 18.0.0, SVG Export Plug-In . SVG Version: 6.00 Build 0)  -->
<!DOCTYPE svg PUBLIC "-//W3C//DTD SVG 1.1//EN" "http://www.w3.org/Graphics/SVG/1.1/DTD/svg11.dtd">
<svg version="1.1" id="Layer_1" xmlns="http://www.w3.org/2000/svg" xmlns:xlink="http://www.w3.org/1999/xlink" x="0px" y="0px"
	 viewBox="0 0 200 200" enable-background="new 0 0 200 200" xml:space="preserve">
<g id="Layer_x0020_1">
	<path fill="#EA702D" d="M21.2,110.6c-7.3-1.3-19.7-15.9-7.5-19.3c-1.2-11.9,7.7-10.5,15.7-8.1c0.8,0.3,1.7,0.7,2.5,1
		c-8.1-5.9-26.8-13.6-25.2,3.5c-12.1,2.6-5.2,12.2,0.4,17.4c4.9,3.5,8.5,5.4,14.2,7.2c0,1.2,0,2.4,0,3.5c-1,1.8-2.1,3.6-3.1,5.4
		c3.7,0,7.4,0,11.1,0c-1-1.8-2.1-3.6-3.1-5.4c0-2.4,0-4.9,0-7.3c0.8,0.3,1.7,0.6,2.5,0.9c27.3,8.1,17.3-25.4-7.3-23.1
		c6.5,0.9,21.4,6.2,19.8,14.4c-1.4,7-6.5,6.3-12.5,5.9c-7-1.8-9.6-3.8-14.9-8.3c2.3,3,4.4,5.6,7.5,7.6
		C21.3,107.5,21.3,109.1,21.2,110.6z"/>
	<path fill="#EA702D" d="M21.2,110.7c-3.3-0.6-7.5-3.8-10.2-7.4c-1.1-1.5-2-3.2-2.3-4.7c-0.4-1.6-0.3-3,0.4-4.3
		c0.8-1.3,2.2-2.3,4.5-3c-0.6-5.9,1.4-8.6,4.5-9.4c3.1-0.8,7.3,0.1,11.3,1.3c0.7,0.2,1.5,0.6,2.1,0.9c-3.4-2.4-8.4-5-13-6.1
		c-2.5-0.6-4.9-0.8-6.8-0.2c-2,0.5-3.5,1.7-4.3,3.9c-0.6,1.5-0.8,3.6-0.6,6.2l0,0l0,0c-1.9,0.4-3.3,1-4.4,1.7
		c-1.5,1-2.2,2.4-2.3,3.8C0,94.8,0.5,96.4,1.4,98c1.4,2.6,3.7,5.2,5.7,7.1c2.5,1.8,4.6,3.1,6.8,4.2c2.2,1.1,4.5,2,7.4,2.9l0,0v3.6
		l-3.1,5.3h10.9c-1-1.8-2.1-3.6-3.1-5.4v-7.4l2.6,1c7,2.1,11.5,1.4,14-0.7c1.6-1.4,2.3-3.4,2.3-5.6c-0.1-2.3-1-4.8-2.5-7.1
		c-3.6-5.5-11-10.3-20.7-9.6c0.2,0,0.5,0.1,0.7,0.1c3.4,0.7,8.4,2.2,12.3,4.6c4,2.4,7,5.5,6.4,9.3c0,0.1,0,0.2-0.1,0.3
		c-1.3,6.8-6.2,6.4-11.9,6c-0.1,0-0.6,0-0.7-0.1c-3.5-0.9-5.9-1.9-8.1-3.2c-2.1-1.2-4-2.7-6.4-4.8c2.2,2.8,4.2,5.3,7.2,7.2l0,0
		L21.2,110.7L21.2,110.7z M11.1,103.2c2.6,3.6,6.8,6.8,10,7.4l0.1-4.7c-3-1.9-5.1-4.5-7.3-7.3l-0.5-0.7l0.4,0.3
		c2.6,2.2,4.6,3.8,6.8,5.1c2.2,1.3,4.6,2.2,8.1,3.1l0.7,0.1c5.6,0.4,10.5,0.8,11.8-5.9c0-0.1,0-0.2,0.1-0.3c0.5-3.7-2.4-6.8-6.4-9.2
		c-4-2.4-8.9-3.9-12.3-4.6c-0.4-0.1-0.8-0.1-1.1-0.2l-0.4-0.1l0.4,0c9.9-0.9,17.5,4,21.2,9.6c1.6,2.4,2.5,4.9,2.5,7.2
		c0.1,2.3-0.6,4.3-2.3,5.7c-2.5,2.1-7,2.8-14.1,0.7l-2.4-0.9v7.2l3.2,5.5H18.1l3.1-5.5v-3.5c-2.8-0.9-5.2-1.8-7.4-2.9
		c-2.2-1.1-4.4-2.5-6.8-4.3l0,0c-2.1-1.9-4.4-4.5-5.8-7.1c-0.9-1.6-1.4-3.2-1.3-4.7s0.8-2.8,2.3-3.9c1-0.7,2.5-1.3,4.3-1.7
		c-0.2-2.6,0-4.6,0.6-6.2c0.8-2.2,2.4-3.4,4.4-4c2-0.5,4.4-0.4,6.9,0.2c4.8,1.2,10,3.9,13.4,6.4l0.3,0.3l-2.9-1.2
		c-4-1.2-8.2-2.2-11.2-1.3c-3.1,0.8-5,3.4-4.4,9.4v0l0,0c-2.3,0.6-3.7,1.7-4.5,3c-0.7,1.2-0.8,2.7-0.4,4.2
		C9.2,100.1,10,101.7,11.1,103.2z"/>
	<path fill="#1A653A" d="M50,96.8c0,8.1,0,16.1,0,24.2c2.5,0.5,4.2,0.8,6.8,1.1c3.6,0.3,6.8,0.4,9-0.4c4.8-2.2,5.8-5,4.9-9.1
		c-0.7-1.9-2.8-3.5-5.7-4.7c2.1-1,4.5-2.2,5.2-4.7c0.3-3.3-0.7-4.8-2.4-6.3c-3.2-1.9-6.1-2.2-10.6-2.1C54.4,95.1,52.6,95.4,50,96.8z
		"/>
	<path fill="#1A653A" d="M50.1,96.9V121c1.2,0.3,2.2,0.5,3.3,0.7c1.1,0.2,2.2,0.3,3.5,0.4c1.8,0.1,3.5,0.2,5,0.2
		c1.5,0,2.8-0.2,3.9-0.6c2.4-1.1,3.8-2.3,4.5-3.8s0.8-3.2,0.3-5.2c-0.3-0.9-1-1.8-2-2.6c-1-0.8-2.3-1.5-3.8-2.1l-0.1,0l0.1-0.1
		c1-0.5,2.2-1.1,3.1-1.8c0.9-0.7,1.7-1.7,2-2.9c0.2-1.7,0-2.8-0.4-3.8c-0.4-1-1.1-1.7-2-2.4c-1.6-1-3.1-1.5-4.8-1.8
		c-1.7-0.3-3.5-0.3-5.8-0.3c-1.4,0.2-2.5,0.3-3.6,0.6C52.4,95.8,51.3,96.2,50.1,96.9z M50,121V96.8l0,0c1.3-0.7,2.4-1.1,3.5-1.4
		c1.1-0.3,2.3-0.5,3.7-0.6h0c2.2-0.1,4.1,0,5.8,0.3c1.7,0.3,3.2,0.9,4.8,1.8l0,0c0.9,0.7,1.6,1.5,2,2.4c0.4,1,0.6,2.2,0.4,3.9v0
		c-0.3,1.3-1.1,2.2-2.1,2.9c-0.9,0.7-2,1.3-3,1.8c1.5,0.6,2.7,1.3,3.7,2.1c1,0.8,1.6,1.7,2,2.6l0,0c0.5,2.1,0.4,3.8-0.3,5.3
		c-0.7,1.5-2.2,2.8-4.6,3.9l0,0c-1.1,0.4-2.4,0.5-3.9,0.6c-1.5,0-3.2-0.1-5-0.2l0,0c-1.3-0.1-2.4-0.3-3.5-0.4
		C52.3,121.5,51.3,121.3,50,121L50,121L50,121z"/>
	<path fill="#FFFFFF" d="M56.4,98.6c0,2.7,0,5.4,0,8.2c3.1,0,6.7,0.3,7.9-3.3c0.3-1,0.1-3.7-1.9-5c-2.2-0.9-3.6-0.9-5.9-0.7
		C56.4,98,56.4,98.3,56.4,98.6z"/>
	<path fill="#1A653A" d="M56.4,98.6v8.1c0.2,0,0.4,0,0.7,0c2.9,0,6,0,7.1-3.2c0.1-0.6,0.2-1.7-0.3-2.9c-0.3-0.8-0.8-1.5-1.6-2.1
		c-1.1-0.4-2-0.6-2.9-0.7c-0.9-0.1-1.8,0-3,0.1v0C56.4,98.1,56.4,98.3,56.4,98.6z M56.3,106.7v-8.2c0-0.2,0-0.5,0-0.7v-0.1l0,0
		c1.2-0.1,2.1-0.2,3.1-0.1s1.8,0.3,2.9,0.7l0,0h0c0.8,0.5,1.3,1.3,1.6,2.1c0.4,1.2,0.4,2.4,0.3,3l0,0c-1.1,3.4-4.3,3.3-7.2,3.3
		C56.9,106.8,56.6,106.8,56.3,106.7L56.3,106.7L56.3,106.7z"/>
	<path fill="#FFFFFF" d="M56.4,109.4c0,3.1,0,6.3,0,9.4c2.5,0.4,4.7,0.6,6.5-0.4c2.4-2.1,2.9-5.2,0.7-7.5
		C61.4,108.9,59.3,109.2,56.4,109.4z"/>
	<path fill="#1A653A" d="M56.4,109.5v9.3c1.2,0.2,2.4,0.4,3.5,0.3c1.1,0,2.1-0.2,3-0.7l0,0c1.2-1.1,1.9-2.3,2-3.6
		c0.1-1.3-0.3-2.6-1.3-3.8l0,0c-2-1.9-4.1-1.7-6.8-1.5L56.4,109.5z M56.3,118.8v-9.4l0.4,0c2.7-0.3,4.8-0.4,6.9,1.5l0,0
		c1.1,1.2,1.5,2.5,1.3,3.9c-0.2,1.3-0.9,2.6-2,3.7l-0.1,0l0,0c-0.9,0.5-1.9,0.7-3,0.7C58.8,119.2,57.6,119.1,56.3,118.8L56.3,118.8
		L56.3,118.8z"/>
	<path fill="#1A653A" d="M77,105.3c2.2-1.2,3.7-1.8,5.6-1.8c2,0.1,2.7,0.3,4.2,2.2c0,0.9,0,2,0,2.8c-7.1,0.7-15.4,2-12.1,10.9
		c2.1,3.9,8.7,3.2,13.9,2.9c2.2-0.4,2.4-0.7,3.9-1.7c0-5.1,0-10.2,0-15.4c-1-2.3-3.5-4.6-7.6-4.9c-3.9,0-5.8,0.4-9.5,1.9
		C76,103.4,76.5,104.3,77,105.3z"/>
	<path fill="#1A653A" d="M77.1,105.2c1.1-0.6,2-1,2.9-1.3c0.9-0.3,1.7-0.4,2.7-0.4l0,0c1,0,1.7,0.1,2.3,0.4c0.6,0.3,1.2,0.8,1.9,1.8
		l0,0v0c0,0.4,0,0.9,0,1.4c0,0.5,0,1,0,1.4v0h0c-3.5,0.3-7.4,0.8-9.9,2.4c-2.5,1.5-3.8,4.1-2.1,8.5c2,3.7,8,3.3,13,2.9l0.8-0.1
		c1.8-0.3,2.3-0.6,3.2-1.3c0.2-0.1,0.4-0.2,0.6-0.4v-15.3c-0.5-1.2-1.5-2.5-2.9-3.4c-1.2-0.8-2.7-1.3-4.6-1.4
		c-1.9,0-3.4,0.1-4.8,0.4c-1.4,0.3-2.8,0.8-4.6,1.5L77.1,105.2z M80,104c-0.9,0.3-1.8,0.7-2.9,1.3l0,0c-0.6-1-1.1-2-1.7-3l0.1,0
		c1.9-0.8,3.3-1.3,4.7-1.6c1.4-0.3,2.9-0.4,4.8-0.4l0,0c1.9,0.1,3.5,0.7,4.7,1.5c1.4,0.9,2.4,2.2,3,3.4l0,0v15.4l0,0
		c-0.2,0.2-0.4,0.3-0.6,0.4c-1,0.7-1.4,1-3.3,1.3c-0.2,0-0.6,0-0.8,0.1c-5.1,0.4-11.1,0.8-13.1-3v0c-1.7-4.5-0.4-7.1,2.1-8.6
		c2.5-1.5,6.4-2,9.9-2.4c0-0.4,0-0.9,0-1.4c0-0.5,0-0.9,0-1.4c-0.7-0.9-1.2-1.4-1.8-1.7c-0.6-0.3-1.3-0.4-2.3-0.4
		C81.7,103.6,80.8,103.7,80,104z"/>
	<path fill="#1A653A" d="M96.5,102.7c0,6.4,0,12.9,0,19.4c2,0,4.1,0,6.1,0c0-5.6,0-11.3,0-16.9c1-1,0.8-0.8,2.2-1
		c1.3,0.1,1.3,0,2.4,0.6c0.4-1.3,0.9-2.6,1.3-3.9c-0.7-0.1-1.4-0.1-2.1-0.2C103.5,100.6,98.8,100.6,96.5,102.7z"/>
	<path fill="#1A653A" d="M96.6,102.7V122h6v-16.9l0,0c0.5-0.5,0.7-0.7,0.9-0.8c0.2-0.1,0.4-0.1,0.7-0.2c0.2,0,0.3,0,0.6-0.1l0,0
		l0.2,0c1.1,0.1,1.2,0.1,2.2,0.6l1.3-3.7l-2-0.2h0C103.5,100.7,98.8,100.7,96.6,102.7z M96.5,122v-19.4l0,0c2.2-2.1,6.9-2.1,9.9-2.1
		c0.6,0,1.6,0.2,2.2,0.2c-0.5,1.3-0.9,2.7-1.4,4l-0.1,0c-1.1-0.5-1.1-0.5-2.2-0.6l-0.1,0c-0.2,0-0.4,0.1-0.6,0.1
		c-0.3,0-0.5,0.1-0.7,0.2c-0.2,0.1-0.4,0.3-0.9,0.8h0v16.9L96.5,122L96.5,122z"/>
	<polygon fill="#1A653A" points="111.5,92.6 111.5,122.1 118.1,122.1 118.1,91.1 	"/>
	<path fill="#1A653A" d="M111.5,92.6V122h6.5V91.1L111.5,92.6z M111.4,122.1V92.6c2.2-0.5,4.5-1,6.7-1.6v31.1L111.4,122.1
		L111.4,122.1z"/>
	<polygon fill="#1A653A" points="123.4,94.6 123.4,99.3 129.6,98.1 129.6,93 	"/>
	<path fill="#1A653A" d="M123.5,94.7v4.6l6.1-1.1V93L123.5,94.7z M123.4,99.3v-4.7c2.1-0.6,4.2-1.1,6.3-1.7v5.3
		C127.5,98.6,125.4,99,123.4,99.3L123.4,99.3z"/>
	<polygon fill="#1A653A" points="123.3,102.4 123.3,122 129.9,122 129.9,101 	"/>
	<path fill="#1A653A" d="M123.3,102.5V122h6.5V101L123.3,102.5z M123.2,122v-19.6c2.2-0.5,4.5-1,6.7-1.5v21.1L123.2,122L123.2,122z"
		/>
	<path fill="#1A653A" d="M135,102.2c3-1.2,4.8-1.3,7.9-1.6c4.1,0.1,8.9,0.3,11.2,4.4c0,5.4-0.1,10.8-0.1,16.2c0,0.2,0,0.5,0,0.7
		c-2,0-3.9,0-5.9,0c0-5.3,0-10.7,0-16c-0.6-1.1-1-1.2-2-1.8c-2-0.4-3.1-0.2-5,0.1c0,5.9,0,11.8,0,17.8c-2,0-4,0-6,0
		C135,115.4,135,108.8,135,102.2z"/>
	<path fill="#1A653A" d="M135,102.2c2.9-1.2,4.6-1.3,7.5-1.6c0.1,0,0.3,0,0.4,0c2.1,0.1,4.3,0.1,6.3,0.7c2,0.6,3.8,1.6,4.9,3.7l0,0
		l-0.1,16.2v0.8h-6v-16c-0.6-1-1-1.2-1.8-1.7l-0.2-0.1c-1.9-0.4-3-0.2-4.8,0l-0.2,0V122H135L135,102.2L135,102.2z M142.5,100.7
		c-2.9,0.2-4.6,0.4-7.4,1.6v19.6h5.9v-17.7l0.3,0c1.8-0.3,2.9-0.4,4.8,0h0l0.2,0.1c0.9,0.5,1.3,0.7,1.9,1.7l0,0v16h5.8v-0.7
		l0.1-16.2c-1.1-2-2.9-3.1-4.9-3.6c-2-0.6-4.2-0.7-6.3-0.7L142.5,100.7z"/>
	<path fill="#1A653A" d="M175.7,120.9c-3.7,2.3-9.5,2-12.4,0.8c-3.9-2.1-6.4-5.1-6.4-10.2c0.1-2.7,0.7-5.1,2.8-7.6
		c3.2-3,6.6-3.9,11.1-2.6c4.6,2.1,6.8,5.5,6.3,10.7c-4.8,0.6-9.6,1.2-14.4,1.8c1.8,5.3,6.8,5.7,11.4,3.5
		C175,118.3,175.2,119.5,175.7,120.9z"/>
	<path fill="#1A653A" d="M175.8,120.9c-1.7,1-3.8,1.6-5.9,1.7c-2.5,0.2-5-0.2-6.6-0.9h0c-1.9-1-3.5-2.3-4.7-4
		c-1.1-1.7-1.8-3.7-1.8-6.2l0,0c0.1-1.4,0.2-2.7,0.7-3.9c0.4-1.3,1.1-2.5,2.2-3.8l0,0c1.6-1.5,3.3-2.5,5.1-2.9
		c1.8-0.4,3.8-0.3,6,0.3h0c2.3,1.1,4.1,2.4,5.1,4.2c1.1,1.8,1.5,3.9,1.2,6.5l0,0c-4.8,0.6-9.6,1.2-14.4,1.8c0.1,0.4,0.3,0.7,0.5,1.1
		c0.9,1.8,2.3,2.9,3.9,3.4c1.6,0.5,3.5,0.3,5.3-0.3c0.5-0.2,1.1-0.4,1.6-0.7l0,0l0,0c0.7,0.8,1.1,1.8,1.4,2.8
		C175.6,120.3,175.7,120.5,175.8,120.9L175.8,120.9L175.8,120.9z M169.9,122.5c2.1-0.1,4.1-0.6,5.8-1.7c-0.1-0.3-0.2-0.5-0.3-0.8
		c-0.3-1-0.6-1.9-1.3-2.7c-0.5,0.3-1.1,0.5-1.6,0.7c-1.9,0.6-3.7,0.8-5.3,0.3c-1.6-0.5-3-1.6-4-3.4c-0.2-0.3-0.3-0.7-0.5-1.1l0-0.1
		c4.8-0.6,9.6-1.2,14.4-1.8c0.2-2.6-0.2-4.7-1.2-6.4s-2.8-3.1-5.1-4.2c-2.2-0.6-4.1-0.7-5.9-0.3c-1.8,0.4-3.5,1.4-5.1,2.9
		c-1.1,1.3-1.7,2.5-2.2,3.7c-0.4,1.2-0.6,2.5-0.7,3.9c0,2.5,0.6,4.6,1.8,6.2c1.1,1.6,2.7,2.9,4.6,4
		C164.9,122.3,167.4,122.6,169.9,122.5z"/>
	<path fill="#FFFFFF" d="M162.6,110.6c0-3.6,0.5-6.6,5.1-6.5c2.4,0.3,3.4,2.8,3.3,5.5C168.3,109.9,165.4,110.2,162.6,110.6z"/>
	<path fill="#1A653A" d="M162.6,110.6c0-1.8,0.1-3.5,0.9-4.7c0.7-1.2,2-2,4.3-1.9h0c1.1,0.1,2,0.8,2.5,1.7c0.6,1,0.9,2.4,0.8,3.8v0
		C168.3,109.9,165.4,110.3,162.6,110.6L162.6,110.6z M163.5,106c-0.7,1.2-0.8,2.8-0.8,4.6l8.3-1.1c0-1.4-0.2-2.7-0.8-3.7
		c-0.5-0.9-1.3-1.5-2.4-1.6C165.5,104,164.2,104.8,163.5,106z"/>
	<polygon fill="#1A653A" points="179.6,92.7 185.9,91.9 185.9,110.2 192.4,101.1 198.7,101.1 191.6,110.5 199.9,122.2 192.3,122.2 
		186.1,111.4 186.1,122.2 179.6,122.2 	"/>
	<path fill="#1A653A" d="M179.6,92.6l6.4-0.8v18.2l6.4-9.1c2.2,0,4.3,0,6.5,0.1l-7.2,9.4l8.3,11.7h-7.7l-6.2-10.7v10.6h-6.6
		L179.6,92.6L179.6,92.6z M185.9,91.9l-6.2,0.8v29.4h6.4v-10.9l6.3,11h7.5l-8.3-11.6l7.1-9.3l-6.2-0.1l-6.6,9.3V91.9z"/>
	<path fill="#FFFFFF" d="M86.9,110.8c0,2.7,0,5.4,0,8.1c-3.3,0.8-6.4,1-7.5-1.7C78,112.4,82.9,110.7,86.9,110.8z"/>
	<path fill="#1A653A" d="M86.9,110.8v8.2l0,0c-1.7,0.4-3.3,0.7-4.6,0.5c-1.3-0.2-2.4-0.8-3-2.2v0c-0.2-0.6-0.2-1.1-0.2-1.7
		c0-1.2,0.5-2.2,1.3-2.9c0.8-0.7,1.8-1.2,3-1.5C84.5,110.8,85.7,110.7,86.9,110.8L86.9,110.8L86.9,110.8z M86.8,118.9v-8.1
		c-1.1,0-2.3,0.1-3.4,0.4c-1.1,0.3-2.2,0.8-3,1.5c-0.8,0.7-1.3,1.7-1.3,2.8c0,0.5,0.1,1,0.2,1.6c0.6,1.4,1.6,2,2.9,2.2
		C83.6,119.6,85.2,119.3,86.8,118.9z"/>
</g>
</svg>
