<?xml version="1.0" encoding="utf-8"?>
<!-- Generator: Adobe Illustrator 18.0.0, SVG Export Plug-In . SVG Version: 6.00 Build 0)  -->
<!DOCTYPE svg PUBLIC "-//W3C//DTD SVG 1.1//EN" "http://www.w3.org/Graphics/SVG/1.1/DTD/svg11.dtd">
<svg version="1.1" id="Layer_1" xmlns="http://www.w3.org/2000/svg" xmlns:xlink="http://www.w3.org/1999/xlink" x="0px" y="0px"
	 viewBox="0 0 200 200" enable-background="new 0 0 200 200" xml:space="preserve">
<g id="Layer_x0020_1">
	<path fill="#2B2A29" d="M46.7,75.3c-9.9,0-18.3,0-28.1,0c-3.9,0.4-5.8,3.4-7.3,7.8C8,91.9,4.6,98.9,2.1,106.9c-4,9.6-2,15.7,4.6,17
		c32.7,0,64.7,0,97.4,0c2.1,0,1.6,0.2,2.3-1.8c4.1-10.3,8.1-20.6,12.2-30.9c0.3-0.8,0.1-0.7-0.5-1.4c-0.8-1-1.6-2-2.4-3
		c-1.1,2.5-2.1,5.1-3.2,7.6H48.2l3.6-11.2C53.1,79.4,50.2,75.7,46.7,75.3z"/>
	<path fill="#2B2A29" d="M46.7,75.3H18.6c-1.9,0.2-3.4,1-4.5,2.4c-1.2,1.4-2,3.2-2.7,5.4v0c-1.3,3.4-2.6,6.6-3.9,9.7
		c-2,4.7-3.8,9.2-5.3,14.1l0,0c-0.8,2-1.4,3.8-1.7,5.5c-0.6,2.8-0.4,5.1,0.3,6.9c0.7,1.8,2.1,3.2,4,4c0.6,0.3,1.3,0.4,2,0.6h97.4
		c0.2,0,0.4,0,0.5,0c0.6,0,0.9,0,1.1-0.1c0.2-0.1,0.2-0.4,0.4-0.8c0.1-0.2,0.2-0.5,0.3-0.8l12.2-30.9c0.2-0.6,0.2-0.7-0.1-1
		c-0.1-0.1-0.2-0.2-0.3-0.4l-2.3-2.9l-3.2,7.6H48.2l3.7-11.2c0.1-0.4,0.2-0.8,0.2-1.2c0.2-1.5-0.3-2.9-1-4.1c-0.8-1.2-1.9-2-3.3-2.5
		C47.4,75.4,47.1,75.3,46.7,75.3z M18.6,75.3c7.9,0,20.8-0.8,28.1,0c0.4,0,0.7,0.1,1.1,0.2c1.3,0.4,2.5,1.3,3.3,2.5
		c0.8,1.2,1.2,2.6,1,4.1c0,0.4-0.1,0.8-0.2,1.2l-3.6,11.1h64.3l3.2-7.7l2.4,3c0.1,0.2,0.2,0.3,0.3,0.4c0.3,0.4,0.4,0.4,0.1,1.1
		l-12.2,30.9c-0.1,0.3-0.2,0.6-0.3,0.8c-0.2,0.5-0.2,0.7-0.4,0.8c-0.2,0.1-0.5,0.1-1.1,0.1c-0.2,0-0.3,0-0.5,0
		c-19.7,0-82.7,2.8-97.4,0c-0.7-0.1-1.4-0.3-2-0.6c-1.9-0.8-3.3-2.1-4-4c-0.7-1.8-0.9-4.2-0.3-7c0.3-1.7,0.9-3.5,1.7-5.5
		c1.5-4.8,3.4-9.3,5.3-14.1c1.3-3.1,2.6-6.3,3.9-9.7c0.7-2.2,1.6-4,2.7-5.4C15.2,76.3,16.6,75.4,18.6,75.3L18.6,75.3z"/>
	<path fill="#FFFFFF" d="M112.3,95.2l-64.6,0l-6.4,17.1c-1.3-3.7-3.9-6.4-6.5-6.7c-9.4,0-17.7,0-27.1,0c-8.2,0.7-9.4,15.4-0.8,17.5
		h96.5c1.8,0,1.3,0.1,2.1-1.5c1-2.2,0.9-1.7-1.8-4L112.3,95.2z"/>
	<path fill="#2B2A29" d="M112.3,95.2l-64.6,0l-6.4,17.1l0-0.1c-0.6-1.9-1.6-3.4-2.7-4.6c-1.1-1.2-2.5-1.9-3.8-2.1H7.7
		c-2.4,0.2-4.2,1.7-5.4,3.7c-0.7,1.3-1.2,2.8-1.3,4.4c-0.1,1.6,0.1,3.2,0.6,4.6c0.9,2.3,2.6,4.1,5.2,4.8h96.5c0.1,0,0.3,0,0.4,0
		c0.6,0,0.8,0,1-0.1c0.1-0.1,0.2-0.3,0.3-0.6c0.1-0.2,0.2-0.5,0.3-0.8l0.1-0.2c0.4-0.9,0.6-1.3,0.4-1.6c-0.1-0.3-0.5-0.6-1.1-1.1
		c-0.3-0.3-0.7-0.6-1.2-1l0,0L112.3,95.2z M47.7,95.2l64.6,0l-8.7,22.4c0.5,0.4,0.9,0.7,1.2,1c0.6,0.5,1,0.8,1.1,1.1
		c0.2,0.4,0,0.8-0.4,1.7l-0.1,0.2c-0.2,0.3-0.3,0.6-0.3,0.8c-0.1,0.3-0.2,0.5-0.3,0.6c-0.2,0.1-0.4,0.1-1,0.1c-0.1,0-0.2,0-0.4,0
		H6.9l0,0c-2.7-0.7-4.4-2.5-5.3-4.8c-0.5-1.4-0.8-3-0.6-4.6c0.1-1.6,0.6-3.1,1.3-4.4c1.1-2,3-3.5,5.4-3.7c6-0.3,21.6-0.6,27.1,0
		c1.3,0.2,2.6,0.9,3.8,2.1c1.1,1.2,2.1,2.7,2.7,4.6L47.7,95.2L47.7,95.2z"/>
	<polygon fill="#06458F" points="82.9,99.6 79.2,99.6 72.1,117.8 75.9,117.8 78.8,110.8 81.2,110.8 78.5,117.8 82.7,117.8 
		89.3,99.5 85.9,99.5 82.9,107.4 79.9,107.4 	"/>
	<polygon fill="#06458F" points="63.8,99.7 68.2,99.7 68.2,99.7 65.3,107.1 69.6,103.3 71.1,99.6 75.1,99.6 68.7,117.8 64.3,117.8 
		67.9,108.7 63.1,113.1 61.1,117.9 57.1,117.9 	"/>
	<path fill="#06458F" d="M41.3,117.8l0.9-2.5c1.8,0,2.1,0.4,2.9-1l5.5-14.5h8.7l-6.5,18.1h-3.5l5.1-14c-0.8,0-1.7,0-2.5,0l-4.3,11.9
		c-0.2,0.7-1.6,2-2.5,2L41.3,117.8z"/>
	<polygon fill="#FF0A07" points="121.1,99.7 114.1,117.8 118.5,117.8 123.8,104 126.5,104 121.1,117.8 125.4,117.8 132.1,99.7 	"/>
	<polygon fill="#FF0A07" points="141.5,117.8 146.2,117.7 147.9,115.1 152.8,115.1 152.5,117.8 156.7,117.8 158.4,99.6 153.2,99.6 	
		"/>
	<polygon fill="#FF0A07" points="178.3,99.6 176.4,104.8 179.3,104.8 174.6,118.6 178.9,118.6 183.6,104.8 186.9,104.8 188.7,99.6 	
		"/>
	<polygon fill="#141515" points="192.2,104.7 193.5,101.3 192.3,101.3 192.7,100.4 195.7,100.4 195.3,101.3 194.3,101.3 193,104.7 	
		"/>
	<path fill="#2B2A29" d="M192.1,104.7l1.3-3.4l-1.2,0l0.4-0.9h3.1l-0.4,0.9h-0.9l-1.3,3.4L192.1,104.7L192.1,104.7z M193.5,101.3
		l-1.3,3.4h0.8l1.3-3.4h0.9l0.4-0.8h-2.9l-0.4,0.8L193.5,101.3L193.5,101.3z"/>
	<polygon fill="#2B2A29" points="196.5,104.7 197.4,104.7 198.6,103 198.2,104.8 199,104.7 200,100.5 199.1,100.5 197.3,103.5 
		197.6,100.4 197,100.4 194.8,104.7 195.7,104.8 196.6,103 	"/>
	<path fill="#2B2A29" d="M196.5,104.7h0.9l1.3-1.8l-0.4,1.8l0.8,0l0.9-4.2l-0.8,0l-1.8,3.2l0.3-3.2l-0.6,0l-2.2,4.3l0.9,0l0.9-1.8
		L196.5,104.7z M197.4,104.8h-0.9l0.1-1.6l-0.8,1.6l-1,0c0.7-1.5,1.5-2.9,2.2-4.4l0.7,0l-0.3,3l1.7-3c0.3,0,0.6,0,0.9,0
		c-0.3,1.4-0.6,2.9-1,4.3c-0.3,0-0.6,0-0.9,0l0.4-1.7L197.4,104.8L197.4,104.8z"/>
	<polygon fill="#06458F" points="115.8,89.2 117.3,90.9 114.2,98.8 108.1,114.3 106.6,118.6 105.1,117 109,107.4 113.3,95.9 	"/>
	<path fill="#06458F" d="M3.6,106.6c2.9-8.3,6.5-18.3,10-26.2c1.1-2.3,2.4-3.9,5.6-4.1c8.3,0,16.6,0,24.9,0
		c7.3,0.4,7.2,4.9,5.1,10.6L40.8,110c-0.8-2.1-3.5-5.1-5.5-5.1c-9.6,0-18.9,0-28.5,0C5.9,104.9,4.2,106,3.6,106.6z"/>
	<polygon fill="#FFFFFF" points="17.7,82.3 17.9,82.2 41.3,82.2 38.8,90.1 36.3,97.2 35.2,100.4 11.1,100.4 	"/>
	<polygon fill="#06458F" points="16.7,89.2 16.5,90 24,90 25.9,93.5 35.6,93.5 35.9,92.7 29.1,92.7 27.1,89.2 	"/>
	<polygon fill="#FF0A07" points="31.5,84 31.1,85.2 32.4,85.2 31.2,89.2 30.6,89.2 30.3,90 32.9,90 33.2,89.2 32.5,89.2 33.7,85.1 
		36.3,85.1 35.2,89.2 34.7,89.2 34.4,90 36.9,90 37.2,89.1 36.4,89.1 37.5,85.2 38.9,85.2 39.2,84 	"/>
	<polygon fill="#FF0A07" points="15.6,92.6 15.3,93.5 16.4,93.5 17,95.4 14.2,97.8 13.6,97.8 13.2,98.7 15.9,98.7 16.2,97.8 
		15.5,97.8 18,95.8 19,97.8 18.4,97.8 18.1,98.7 21.1,98.7 21.4,97.7 20.8,97.7 19.2,95.5 22.3,93.5 23.1,93.5 23.5,92.6 20.7,92.6 
		20.2,93.5 21,93.5 18.4,95.2 17.8,93.5 18.8,93.5 19.3,92.6 	"/>
	<polygon fill="#06458F" points="18.5,84 18.2,84.9 29.1,84.9 29.4,84 	"/>
	<path fill="#2B2A29" d="M7.5,106.5c8.9,0,17.9,0,26.8,0c8.6,1.8,7.5,14.6-0.1,15.6c-8.9,0-17.9,0-26.8,0
		C0.7,121.2-0.1,107.8,7.5,106.5z"/>
	<path fill="#2B2A29" d="M7.5,106.5h26.8l0,0c2.6,0.5,4.4,2.1,5.3,4.1c0.6,1.2,0.8,2.6,0.8,4c-0.1,1.4-0.4,2.7-1,3.9
		c-1,1.9-2.7,3.3-5.1,3.6c-2.9,0.4-24,0.4-26.8,0c-2.1-0.3-3.6-1.7-4.5-3.7c-0.6-1.2-0.9-2.6-0.9-4c0-1.4,0.2-2.8,0.7-4.1
		C3.6,108.4,5.2,106.9,7.5,106.5L7.5,106.5z M34.3,106.6H7.5c-2.3,0.4-3.8,1.9-4.6,3.9c-0.5,1.2-0.8,2.6-0.7,4c0,1.4,0.3,2.8,0.9,4
		c0.9,1.9,2.4,3.4,4.4,3.6h26.8c2.3-0.3,4-1.7,5-3.6c0.6-1.2,1-2.5,1-3.9c0.1-1.4-0.2-2.7-0.8-4C38.7,108.7,36.9,107.1,34.3,106.6z"
		/>
	<path fill="#FFFFFF" d="M8.2,107.4c8.4,0,16.8,0,25.2,0c6.5-0.1,7.7,12.5,0.6,13.9c-8.8,0-17.5,0-26.3,0
		C1.1,120,1.5,108.1,8.2,107.4z"/>
	<path fill="#2B2A29" d="M8.2,107.3h25.2c2.1,0,3.6,1.2,4.5,3c0.5,1,0.8,2.1,0.9,3.2c0.1,1.1,0,2.3-0.3,3.4
		c-0.6,2.1-2.1,3.9-4.5,4.3c-0.9,0.2-25.5,0.2-26.3,0c-2.1-0.4-3.5-1.8-4.2-3.6c-0.5-1.1-0.7-2.3-0.6-3.6c0-1.2,0.3-2.5,0.9-3.5
		C4.7,108.9,6.2,107.6,8.2,107.3L8.2,107.3z M33.4,107.4H8.2c-2.1,0.2-3.5,1.5-4.4,3.2c-0.5,1.1-0.8,2.3-0.9,3.5
		c0,1.2,0.2,2.5,0.6,3.6c0.7,1.8,2.1,3.1,4.2,3.5l26.3,0c2.4-0.5,3.9-2.2,4.5-4.3c0.3-1.1,0.4-2.2,0.3-3.3c-0.1-1.1-0.4-2.2-0.9-3.2
		C37,108.6,35.5,107.4,33.4,107.4z"/>
	<path fill="#2B2A29" d="M8.4,108.2c8.4,0,16.8,0,25.1,0c5.7,0.3,5.8,11.6-0.1,12.1c-8.4,0-16.7,0-25.1,0
		C2.4,119.4,2.1,109.6,8.4,108.2z"/>
	<path fill="#2B2A29" d="M8.4,108.2h25.1c1.9,0.1,3.1,1.4,3.8,3.1c0.3,0.9,0.5,1.8,0.5,2.8c0,1-0.1,2-0.4,2.9c-0.6,1.8-2,3.3-4,3.4
		c-3.1,0.3-22.5,0.4-25.1,0c-1.8-0.3-3-1.4-3.8-2.8c-0.5-0.9-0.8-2-0.8-3.1c0-1.1,0.2-2.2,0.7-3.2C5.2,109.8,6.4,108.6,8.4,108.2
		L8.4,108.2L8.4,108.2z M33.5,108.3H8.4c-1.9,0.4-3.2,1.6-3.9,3.1c-0.5,1-0.7,2.1-0.7,3.2c0,1.1,0.3,2.2,0.8,3.1
		c0.7,1.4,2,2.4,3.7,2.7h25.1c2-0.2,3.3-1.6,3.9-3.4c0.3-0.9,0.5-1.9,0.4-2.8c0-1-0.2-1.9-0.5-2.8C36.6,109.6,35.3,108.4,33.5,108.3
		z"/>
	<path fill="#FFFFFF" d="M32.8,109.1c5.2,0.1,5,10.2-0.4,10.4c-7.7,0-15.5,0-23.2,0c-6.2-0.9-5.6-9.6-0.3-10.4
		C16.9,109.1,24.9,109.1,32.8,109.1z"/>
	<path fill="#2B2A29" d="M32.8,109.1c1.8,0,2.9,1.3,3.4,2.8c0.2,0.7,0.3,1.5,0.3,2.2c0,0.8-0.1,1.5-0.4,2.2
		c-0.6,1.7-1.9,3.1-3.8,3.1c-1.2,0.2-21.8,0.2-23.2,0c-1.9-0.3-3.2-1.3-3.9-2.6c-0.4-0.8-0.6-1.7-0.6-2.6c0-0.9,0.2-1.8,0.6-2.6
		c0.7-1.4,1.9-2.5,3.6-2.7C13.3,108.3,27.5,109.1,32.8,109.1z M36.2,111.9c-0.5-1.6-1.7-2.8-3.4-2.8l-23.9-0.1
		c-1.7,0.3-2.9,1.3-3.6,2.7c-0.4,0.8-0.6,1.7-0.6,2.5c0,0.9,0.2,1.8,0.6,2.5c0.7,1.3,1.9,2.3,3.8,2.6h23.2c1.9,0,3.2-1.4,3.8-3.1
		c0.2-0.7,0.4-1.5,0.4-2.2C36.6,113.4,36.5,112.6,36.2,111.9z"/>
	<path fill="#2B2A29" d="M9.2,110c-4.5,0.6-4.5,8.2,0,8.6c7.8,0,15.6,0,23.4,0c4.1-0.3,4-8.5,0-8.7C24.8,110,17,110,9.2,110z"/>
	<path fill="#2B2A29" d="M9.2,110c-1.5,0.2-2.5,1.2-3,2.4c-0.3,0.6-0.4,1.3-0.4,2c0,0.7,0.2,1.4,0.4,2c0.5,1.1,1.5,2,2.9,2.1h23.4
		c1.4-0.1,2.3-1.1,2.7-2.4c0.2-0.6,0.3-1.3,0.3-2c0-0.7-0.1-1.4-0.4-2c-0.5-1.2-1.4-2.2-2.7-2.2L9.2,110z M6.2,112.4
		c0.5-1.2,1.5-2.2,3-2.4c5.3-0.7,17.3-0.1,23.4-0.1c1.4,0.1,2.3,1,2.8,2.2c0.2,0.6,0.4,1.3,0.4,2c0,0.7-0.1,1.4-0.3,2
		c-0.4,1.3-1.4,2.4-2.8,2.5c-6.7,0.3-16.7,0.3-23.4,0c-1.5-0.1-2.4-1-3-2.1c-0.3-0.6-0.4-1.3-0.4-2C5.8,113.8,5.9,113,6.2,112.4z"/>
	<path fill="#FFFFFF" d="M9.3,110.8c7.5,0,15,0,22.5,0c4,0.1,4,6.5,0.3,6.9c-7.4,0-14.9,0-22.3,0C5.9,117.3,6.2,111.4,9.3,110.8z"/>
	<path fill="#2B2A29" d="M9.3,110.8h22.5c1.3,0,2.2,0.8,2.7,1.7c0.2,0.5,0.3,1,0.4,1.5s-0.1,1.1-0.2,1.6c-0.4,1.1-1.2,2-2.5,2.1
		c-3.4,0.4-18.8,0.4-22.3,0c-1.2-0.1-2.1-0.8-2.5-1.7c-0.3-0.5-0.4-1.1-0.4-1.7c0-0.6,0.1-1.2,0.3-1.7C7.6,111.7,8.3,111,9.3,110.8
		L9.3,110.8z M31.8,110.9H9.3c-1,0.2-1.7,0.9-2.1,1.8c-0.2,0.5-0.3,1.1-0.3,1.7c0,0.6,0.1,1.2,0.4,1.7c0.4,0.9,1.3,1.5,2.5,1.6h22.3
		c1.3-0.1,2.1-1,2.5-2.1c0.2-0.5,0.2-1,0.2-1.6s-0.1-1.1-0.4-1.5C34,111.6,33.1,110.9,31.8,110.9z"/>
	<path fill="#2B2A29" d="M10.2,111.7c7.2,0,14.4,0,21.6,0c3.1,0.2,2.5,5.1,0.1,5.2c-7.3,0-14.5,0-21.8,0C7.3,116.7,7,112,10.2,111.7
		z"/>
	<path fill="#2B2A29" d="M10.2,111.7h21.6c1.1,0.1,1.7,0.7,2,1.5c0.1,0.4,0.2,0.8,0.2,1.1c0,0.4-0.1,0.8-0.2,1.1
		c-0.3,0.8-0.9,1.4-1.8,1.4c-0.2,0.1-20.2,0.1-21.8,0c-0.9-0.1-1.6-0.7-1.9-1.5c-0.2-0.4-0.2-0.8-0.2-1.2c0-0.4,0.1-0.8,0.2-1.2
		C8.4,112.4,9.1,111.8,10.2,111.7L10.2,111.7z M31.7,111.7H10.2c-1,0.1-1.7,0.6-2,1.4c-0.2,0.4-0.2,0.8-0.2,1.2s0.1,0.8,0.2,1.2
		c0.3,0.8,1,1.4,1.9,1.4h21.8c0.8,0,1.4-0.6,1.7-1.4c0.1-0.3,0.2-0.7,0.2-1.1c0-0.4,0-0.8-0.2-1.1C33.4,112.4,32.7,111.8,31.7,111.7
		z"/>
	<path fill="#FFFFFF" d="M11.1,112.6c6.6,0,13.2,0,19.8,0c2.1,0.1,2.3,3.1,0.4,3.4c-6.9,0-13.8,0-20.6,0
		C8.8,115.8,8.4,112.9,11.1,112.6z"/>
	<path fill="#2B2A29" d="M11.1,112.6l19.8,0c0.7,0.1,1.2,0.4,1.5,0.9c0.1,0.3,0.2,0.5,0.2,0.8c0,0.3,0,0.6-0.1,0.8
		c-0.2,0.5-0.6,0.8-1.2,0.9c-1.1,0.2-19.3,0.2-20.6,0c-0.6-0.1-1.1-0.5-1.4-1c-0.1-0.2-0.2-0.5-0.2-0.8c0-0.3,0.1-0.5,0.2-0.8
		C9.6,113,10.2,112.7,11.1,112.6L11.1,112.6z M30.9,112.6H11.1c-0.9,0.1-1.4,0.5-1.7,0.9c-0.1,0.2-0.2,0.5-0.2,0.8
		c0,0.3,0.1,0.5,0.2,0.8c0.2,0.5,0.7,0.9,1.3,0.9h20.6c0.6-0.1,1-0.5,1.2-0.9c0.1-0.3,0.1-0.5,0.1-0.8c0-0.3-0.1-0.6-0.2-0.8
		C32.1,113,31.6,112.7,30.9,112.6z"/>
	<polygon fill="#2B2A29" points="10.6,113.4 31.8,113.4 31.8,115.2 10.1,115.2 10.1,113.4 	"/>
	<path fill="#2B2A29" d="M10.6,113.4l21.2,0c0,0.6,0,1.2,0,1.8H10v-1.8L10.6,113.4z M31.7,113.4l-21.2,0l-0.5,0v1.7h21.6V113.4z"/>
	<path fill="#06458F" d="M99.8,99.3c3.1,1.4,3.6,6.8,1.2,12c-2.4,5.2-6.8,8.2-9.9,6.8c-3.1-1.4-3.6-6.8-1.2-12
		C92.2,100.9,96.7,97.9,99.8,99.3z"/>
	<path fill="#FEFEFE" d="M99.8,99.3c1.5,0.7,2.5,2.4,2.7,4.6c0.2,2.2-0.2,4.8-1.4,7.4l0,0c-1.2,2.6-2.9,4.7-4.7,5.9
		c-1.8,1.2-3.7,1.6-5.2,0.9c-1.5-0.7-2.5-2.4-2.7-4.6c-0.2-2.2,0.2-4.8,1.4-7.4l0,0c1.2-2.6,2.9-4.7,4.7-5.9
		C96.3,99,98.2,98.6,99.8,99.3z M102.4,103.9c-0.2-2.2-1.1-3.8-2.7-4.5c-1.5-0.7-3.4-0.3-5.2,0.9c-1.8,1.2-3.5,3.3-4.7,5.9l0,0
		c-1.2,2.6-1.7,5.2-1.4,7.4c0.2,2.2,1.1,3.8,2.7,4.5c1.5,0.7,3.4,0.3,5.2-0.9c1.8-1.2,3.5-3.3,4.7-5.9l0,0
		C102.2,108.7,102.6,106,102.4,103.9z"/>
	<path fill="#FFFFFF" d="M97.7,104.4c0.8,0.9,0.5,3.6-0.8,6c-1.3,2.4-2.9,3.5-3.8,2.6c-0.8-0.9-0.5-3.6,0.8-6
		C95.2,104.6,96.9,103.5,97.7,104.4z"/>
	<path fill="#FEFEFE" d="M97.7,104.4c0.4,0.5,0.5,1.4,0.4,2.5c-0.1,1.1-0.5,2.4-1.2,3.5c-0.5,1-1.1,1.8-1.7,2.3
		c-0.3,0.3-0.7,0.5-1,0.6c-0.3,0.1-0.6,0.1-0.8,0c-0.1-0.1-0.2-0.1-0.3-0.2c-0.4-0.5-0.5-1.4-0.4-2.5c0.1-1.1,0.5-2.4,1.2-3.5
		c0.5-1,1.1-1.8,1.7-2.3c0.3-0.3,0.7-0.5,1-0.6c0.3-0.1,0.6-0.1,0.8,0C97.5,104.2,97.6,104.3,97.7,104.4z M98.1,106.9
		c0.1-1.1,0-2-0.4-2.4c-0.1-0.1-0.2-0.2-0.3-0.2c-0.2-0.1-0.5-0.1-0.8,0c-0.3,0.1-0.6,0.3-1,0.6c-0.6,0.5-1.2,1.3-1.7,2.3
		c-0.6,1.2-1,2.4-1.2,3.5c-0.1,1.1,0,2,0.4,2.4c0.1,0.1,0.2,0.2,0.3,0.2c0.2,0.1,0.5,0.1,0.8,0c0.3-0.1,0.6-0.3,1-0.6
		c0.6-0.5,1.2-1.3,1.7-2.3C97.5,109.2,97.9,107.9,98.1,106.9z"/>
	<path fill="#FF0A07" d="M127.8,117.9l0.9-2.5c1.6,0,2.1,0.4,2.9-1.1l5.5-14.5h8.7l-6.5,18.1h-3.5l5.1-14c-0.8,0-1.7,0-2.5,0
		l-4.3,11.9c-0.2,0.7-1.6,2-2.5,2L127.8,117.9z"/>
	<polygon fill="#FEFEFE" points="153.4,105.4 149.4,111.8 153.1,111.8 	"/>
	<path fill="#FF0A07" d="M168.8,107c1.6,0,2.8,0,4.4,0c0.2-2.4,0.7-6.3-2.1-7.4c-4.2-0.8-6.5,0.9-8.2,3.6c-1.7,2.7-3,5.3-3.5,8.6
		c-1.3,8.6,8.7,8.9,12.3,0.4c-1.7,0-3,0-4.7,0c-1,2.6-4.1,2-3.2-0.9c0.3-0.7,0.6-1.5,0.9-2.2c0.4-0.7,0.8-1.5,1.2-2.2
		C166.9,104.4,169,103.7,168.8,107z"/>
	<polygon fill="#06458F" points="17.9,85.6 17.6,86.5 28.5,86.5 28.8,85.6 	"/>
	<polygon fill="#06458F" points="17.3,87.4 17,88.3 27.9,88.3 28.2,87.4 	"/>
	<polygon fill="#06458F" points="17.3,87.4 17,88.3 27.9,88.3 28.2,87.4 	"/>
	<polygon fill="#06458F" points="23.6,96 23.3,96.9 34.2,96.9 34.5,96 	"/>
	<polygon fill="#06458F" points="24.4,94.4 24.1,95.3 35,95.3 35.3,94.4 	"/>
	<polygon fill="#06458F" points="23,97.8 22.7,98.7 33.6,98.7 33.9,97.8 	"/>
</g>
</svg>
