<?xml version="1.0" encoding="utf-8"?>
<!-- Generator: Adobe Illustrator 19.2.1, SVG Export Plug-In . SVG Version: 6.00 Build 0)  -->
<svg version="1.1" id="Layer_1" xmlns="http://www.w3.org/2000/svg" xmlns:xlink="http://www.w3.org/1999/xlink" x="0px" y="0px"
	 viewBox="0 0 200 200" style="enable-background:new 0 0 200 200;" xml:space="preserve">
<style type="text/css">
	.st0{fill:none;}
	.st1{fill:#2B2A29;}
	.st2{fill:#FFFFFF;}
</style>
<g id="Layer_x0020_1_1_">
	<path class="st0" d="M112.2,95.7l-63.9,0L42,112.6c-1.2-3.7-3.9-6.3-6.4-6.6c-9.3,0-17.5,0-26.8,0c-8.1,0.7-9.3,15.2-0.8,17.3h95.4
		c1.8,0,1.3,0.1,2-1.5c1-2.2,0.9-1.6-1.8-3.9L112.2,95.7z"/>
	<path class="st1" d="M112.1,95.7l-63.8,0L42,112.6l0-0.1c-0.6-1.8-1.6-3.4-2.7-4.6c-1.1-1.2-2.4-1.9-3.7-2.1H8.8
		c-2.4,0.2-4.2,1.6-5.3,3.6c-0.7,1.3-1.2,2.8-1.3,4.4s0.1,3.1,0.6,4.5c0.9,2.2,2.6,4.1,5.2,4.7h95.4c0.1,0,0.3,0,0.4,0
		c0.6,0,0.8,0,1-0.1c0.1-0.1,0.2-0.3,0.3-0.6c0.1-0.2,0.2-0.5,0.3-0.8l0.1-0.2c0.4-0.9,0.6-1.3,0.4-1.6c-0.1-0.3-0.5-0.6-1.1-1
		c-0.3-0.3-0.7-0.6-1.2-1l0,0L112.1,95.7z M48.3,95.7l63.9,0l-8.6,22.1c0.5,0.4,0.9,0.7,1.2,1c0.6,0.5,1,0.8,1.1,1.1
		c0.2,0.4,0,0.8-0.4,1.7l-0.1,0.2c-0.1,0.3-0.2,0.6-0.3,0.8c-0.1,0.3-0.2,0.5-0.3,0.6c-0.2,0.1-0.4,0.1-1,0.1c-0.1,0-0.2,0-0.4,0H8
		l0,0c-2.6-0.6-4.4-2.5-5.2-4.8c-0.5-1.4-0.7-3-0.6-4.6s0.5-3.1,1.3-4.4c1.1-2,2.9-3.4,5.3-3.6c5.9-0.3,21.4-0.6,26.8,0
		c1.3,0.2,2.6,0.9,3.7,2.1c1.1,1.1,2.1,2.7,2.7,4.5L48.3,95.7L48.3,95.7z"/>
	<polygon class="st2" points="120.9,100.1 114,118 118.2,118 123.5,104.4 126.2,104.4 120.8,118 125.1,118 131.7,100.1 	"/>
	<polygon class="st2" points="177.4,100 175.5,105.2 178.4,105.2 173.8,118.9 178,118.9 182.6,105.2 185.9,105.2 187.7,100 	"/>
	<polygon class="st2" points="191.1,105.1 192.4,101.7 191.2,101.7 191.6,100.8 194.5,100.8 194.1,101.7 193.2,101.7 191.9,105.1 	
		"/>
	<path class="st2" d="M191.1,105.1l1.3-3.3l-1.2,0l0.4-0.9h3l-0.4,0.9h-0.9l-1.3,3.4L191.1,105.1L191.1,105.1z M192.4,101.7
		l-1.3,3.3h0.8l1.3-3.4h0.9l0.4-0.8h-2.9l-0.4,0.8L192.4,101.7L192.4,101.7z"/>
	<polygon class="st2" points="195.4,105.1 196.3,105.1 197.5,103.4 197.1,105.2 197.9,105.1 198.8,100.9 198,100.9 196.2,103.9 
		196.5,100.9 195.8,100.8 193.7,105.1 194.6,105.1 195.5,103.4 	"/>
	<path class="st2" d="M195.4,105.1h0.9l1.3-1.8l-0.4,1.8l0.8,0l0.9-4.2l-0.8,0l-1.8,3.1l0.3-3.2l-0.6,0l-2.1,4.2l0.9,0l0.9-1.8
		L195.4,105.1z M196.3,105.2h-0.9l0.1-1.6l-0.8,1.6l-1,0c0.7-1.4,1.5-2.9,2.2-4.3l0.7,0l-0.3,3l1.7-2.9c0.3,0,0.6,0,0.9,0
		c-0.3,1.4-0.6,2.9-0.9,4.3c-0.3,0-0.6,0-0.9,0l0.4-1.6L196.3,105.2L196.3,105.2z"/>
	<path class="st0" d="M8.5,106.9c8.8,0,17.7,0,26.5,0c8.5,1.8,7.4,14.4-0.1,15.4c-8.8,0-17.7,0-26.5,0C1.8,121.4,1,108.2,8.5,106.9z
		"/>
	<g>
		<path class="st2" d="M33.6,109.4c-7.9,0-15.7,0-23.6-0.1c-5.3,0.8-5.8,9.4,0.3,10.3c7.6,0,15.3,0,22.9,0
			C38.5,119.6,38.7,109.6,33.6,109.4z M32.9,118c-7.3,0-14.7,0-22,0c-3.9-0.4-3.6-6.3-0.5-6.8c7.4,0,14.8,0,22.2,0
			C36.5,111.2,36.6,117.6,32.9,118z"/>
		<path class="st2" d="M34.2,107.7c-8.3,0-16.6,0-24.9,0c-6.6,0.8-7.1,12.5-0.5,13.7c8.7,0,17.3,0,26,0
			C41.8,120.1,40.6,107.7,34.2,107.7z M34.2,120.6c-3,0.3-22.3,0.4-24.8,0c-1.7-0.3-3-1.3-3.7-2.7c-0.5-0.9-0.8-2-0.8-3.1
			c0-1.1,0.2-2.2,0.7-3.2c0.7-1.5,2-2.7,3.9-3.1l0,0h0h24.8c1.8,0.1,3.1,1.4,3.7,3c0.3,0.9,0.5,1.8,0.5,2.8c0,1-0.1,1.9-0.4,2.8
			C37.4,119,36.1,120.4,34.2,120.6z"/>
	</g>
	<path class="st2" d="M99.8,99.7c1.5,0.7,2.4,2.4,2.7,4.5c0.2,2.1-0.2,4.7-1.4,7.3l0,0c-1.2,2.6-2.9,4.6-4.7,5.8
		c-1.8,1.2-3.6,1.6-5.2,0.9c-1.5-0.7-2.4-2.4-2.7-4.5c-0.2-2.1,0.2-4.7,1.4-7.3l0,0c1.2-2.6,2.9-4.6,4.7-5.8
		C96.4,99.4,98.2,99,99.8,99.7z M102.4,104.3c-0.2-2.1-1.1-3.8-2.6-4.5c-1.5-0.7-3.4-0.3-5.1,0.9c-1.8,1.2-3.5,3.2-4.6,5.8l0,0
		c-1.2,2.6-1.6,5.2-1.4,7.3c0.2,2.1,1.1,3.8,2.6,4.5c1.5,0.7,3.4,0.3,5.1-0.9c1.8-1.2,3.5-3.2,4.6-5.8l0,0
		C102.1,109,102.6,106.4,102.4,104.3z"/>
	<path class="st2" d="M97.7,104.8c0.8,0.9,0.5,3.6-0.8,5.9c-1.2,2.3-2.9,3.5-3.7,2.6c-0.8-0.9-0.5-3.6,0.8-5.9
		C95.2,105,96.9,103.9,97.7,104.8z"/>
	<path class="st2" d="M97.7,104.8c0.4,0.5,0.5,1.4,0.4,2.5c-0.1,1.1-0.5,2.3-1.2,3.5c-0.5,1-1.1,1.7-1.7,2.2c-0.3,0.3-0.7,0.5-1,0.6
		c-0.3,0.1-0.6,0.1-0.8,0c-0.1-0.1-0.2-0.1-0.3-0.2c-0.4-0.5-0.5-1.4-0.4-2.5c0.1-1.1,0.5-2.3,1.2-3.5c0.5-1,1.1-1.7,1.7-2.2
		c0.3-0.3,0.7-0.5,1-0.6c0.3-0.1,0.6-0.1,0.8,0C97.5,104.6,97.6,104.7,97.7,104.8z M98.1,107.2c0.1-1.1,0-2-0.4-2.4
		c-0.1-0.1-0.2-0.2-0.3-0.2c-0.2-0.1-0.5-0.1-0.8,0c-0.3,0.1-0.6,0.3-1,0.6c-0.6,0.5-1.1,1.3-1.7,2.2c-0.6,1.2-1,2.4-1.1,3.5
		c-0.1,1.1,0,2,0.4,2.4c0.1,0.1,0.2,0.2,0.3,0.2c0.2,0.1,0.5,0.1,0.8,0c0.3-0.1,0.6-0.3,1-0.6c0.6-0.5,1.1-1.3,1.7-2.2
		C97.5,109.5,97.9,108.3,98.1,107.2z"/>
	<path class="st2" d="M127.5,118.1l0.9-2.5c1.6,0,2.1,0.4,2.9-1.1l5.4-14.3h8.6l-6.4,17.9h-3.5l5-13.8c-0.8,0-1.6,0-2.5,0l-4.3,11.7
		c-0.2,0.7-1.6,1.9-2.5,1.9L127.5,118.1z"/>
	<path class="st2" d="M152.6,100.1L141,118l4.7,0l1.7-2.6h4.8l-0.3,2.6l4.1,0l1.7-17.9H152.6z M152.5,112.1h-3.7l3.9-6.3
		L152.5,112.1z"/>
	<path class="st2" d="M168,107.4c1.6,0,2.7,0,4.3,0c0.2-2.3,0.7-6.2-2.1-7.3c-4.2-0.8-6.4,0.9-8.1,3.6c-1.7,2.7-3,5.2-3.5,8.5
		c-1.3,8.5,8.6,8.8,12.1,0.4c-1.7,0-3,0-4.7,0c-1,2.6-4,2-3.1-0.9c0.3-0.7,0.6-1.5,0.9-2.2c0.4-0.7,0.8-1.5,1.1-2.2
		C166.1,104.8,168.2,104.1,168,107.4z"/>
	<polygon class="st0" points="18.3,88 18,88.9 28.7,88.9 29.1,88 	"/>
	<g>
		<path class="st2" d="M18.6,82.9l-6.5,17.9H36l1.1-3.2l2.5-7l2.5-7.8H18.8L18.6,82.9z M18.8,86.2h10.8l-0.3,0.9H18.5L18.8,86.2z
			 M18.3,88h10.8l-0.3,0.9H18L18.3,88z M21.7,98.2h0.7l-0.3,1h-2.9l0.3-0.9h0.6l-1-2l-2.5,2l0.7,0l-0.3,0.8h-2.7l0.4-0.9h0.6
			l2.8-2.4L17.4,94l-1.1,0l0.3-0.9l3.6,0L19.7,94h-1l0.6,1.7l2.6-1.7l-0.7,0l0.4-0.8h2.8L23.9,94h-0.7l-3.1,2L21.7,98.2z M34.3,99.1
			H23.6l0.3-0.9h10.8L34.3,99.1z M35,97.4H24.2l0.3-0.9h10.8L35,97.4z M35.7,95.8H24.9l0.3-0.9H36L35.7,95.8z M36.4,94h-9.6
			l-1.9-3.4h-7.4l0.3-0.8l10.2,0l2,3.4h6.8L36.4,94z M31.4,89.8H32l1.1-4h-1.3l0.4-1.2l7.6,0l-0.3,1.2h-1.3l-1.1,3.9l0.7,0l-0.3,0.9
			l-2.4,0l0.3-0.8l0.5,0l1.2-4l-2.6,0l-1.2,4l0.6,0l-0.3,0.8l-2.6,0L31.4,89.8z M19.5,84.6h10.8l-0.3,0.9H19.2L19.5,84.6z"/>
		<path class="st2" d="M117.9,90.3c-0.8-1-1.6-2-2.3-2.9c-1.1,2.5-2.1,5-3.2,7.5H48.8l3.6-11c1.2-3.8-1.6-7.5-5.1-7.9
			c-9.8,0-18,0-27.8,0c-3.8,0.4-5.8,3.4-7.2,7.7c-3.3,8.7-6.6,15.6-9.1,23.5c-4,9.5-2,15.5,4.5,16.8c32.3,0,64,0,96.3,0
			c2,0,1.6,0.2,2.3-1.7c4-10.2,8-20.4,12-30.5C118.7,90.9,118.5,91,117.9,90.3z M41,114.9c-0.1,1.4-0.4,2.7-1,3.9
			c-1,1.9-2.7,3.3-5,3.6c-2.8,0.4-23.7,0.4-26.5,0c-2.1-0.3-3.6-1.7-4.4-3.6c-0.5-1.2-0.9-2.6-0.9-4c0-1.4,0.2-2.8,0.7-4
			c0.8-1.9,2.3-3.4,4.6-3.8l0,0h26.5l0,0c2.6,0.5,4.3,2.1,5.2,4.1C40.9,112.1,41.1,113.5,41,114.9z M36.1,105.3
			c-9.5,0-18.7,0-28.2,0c-1,0-2.6,1-3.2,1.7c2.9-8.2,6.4-18.1,9.9-25.9c1.1-2.3,2.4-3.9,5.5-4.1c8.2,0,16.4,0,24.6,0
			c7.2,0.4,7.1,4.8,5.1,10.4l-8.3,22.9C40.7,108.3,38.1,105.3,36.1,105.3z M49.9,118.1l5-13.8c-0.8,0-1.6,0-2.5,0l-4.3,11.7
			c-0.2,0.7-1.6,1.9-2.5,1.9l-3.7,0l0.9-2.5c1.8,0,2,0.4,2.9-1l5.4-14.3h8.6l-6.4,17.9H49.9z M64.7,118.1l3.5-9l-4.7,4.4l-2,4.7h-4
			l6.7-17.9h4.3l-2.8,7.3l4.2-3.8l1.5-3.6h3.9l-6.3,18H64.7z M78.7,118l2.7-6.9H79l-2.9,6.9l-3.7,0l7-18h3.6l-2.9,7.7h2.9l2.9-7.8
			l3.4,0L82.9,118H78.7z M101,111.6c-2.4,5.1-6.8,8.1-9.8,6.7c-3-1.4-3.6-6.7-1.2-11.8c2.4-5.1,6.7-8.1,9.8-6.7
			C102.8,101.2,103.3,106.5,101,111.6z"/>
	</g>
</g>
</svg>
