<?xml version="1.0" encoding="utf-8"?>
<!-- Generator: Adobe Illustrator 18.0.0, SVG Export Plug-In . SVG Version: 6.00 Build 0)  -->
<!DOCTYPE svg PUBLIC "-//W3C//DTD SVG 1.1//EN" "http://www.w3.org/Graphics/SVG/1.1/DTD/svg11.dtd">
<svg version="1.1" id="Layer_1" xmlns="http://www.w3.org/2000/svg" xmlns:xlink="http://www.w3.org/1999/xlink" x="0px" y="0px"
	 viewBox="0 0 200 200" enable-background="new 0 0 200 200" xml:space="preserve">
<g id="Layer_x0020_1">
	
		<linearGradient id="SVGID_1_" gradientUnits="userSpaceOnUse" x1="1705.6528" y1="-8109.4087" x2="1705.6528" y2="-4568.4849" gradientTransform="matrix(1.519545e-002 0 0 -1.519545e-002 0.9848 4.0583)">
		<stop  offset="0" style="stop-color:#FE6969"/>
		<stop  offset="0.2275" style="stop-color:#FD6666"/>
		<stop  offset="0.4588" style="stop-color:#CB0505"/>
		<stop  offset="1" style="stop-color:#FB6363"/>
	</linearGradient>
	<path fill="url(#SVGID_1_)" d="M26.9,73.5c14.9,0,26.9,12,26.9,26.9s-12,26.9-26.9,26.9S0,115.2,0,100.4S12,73.5,26.9,73.5z"/>
	<path fill="#FFFFFF" d="M32.9,76.3c-4.4,1.7-6.4,4-9.1,7.7c-0.3,1.7,0.9,1.4,1.9,0.8c1.4-1.9,2.2-2.9,3.8-4.5
		c0.3-0.2,0.6-0.4,0.9-0.6c-0.6,1.4-0.9,2-0.9,3.5c0,1,0,1.3,0.9,2c1,0.7,1.4-0.3,0.6-1.4c-1.2-1.9,1.3-3.9,2.8-4.8
		c2.7-1.3,3.7-1.6,7-1.3l0.7,0.1L41,77.4l-0.4-0.3L40,76.9l-0.5-0.3c-0.1-0.1-0.8-0.4-1.4-0.7c-0.3-0.1-0.6-0.3-0.8-0.4
		C35,76.1,35.3,75.8,32.9,76.3z"/>
	<path fill="#FEFEFE" d="M32.9,76.3c-2.2,0.9-3.8,1.9-5.2,3.1c-1.4,1.3-2.5,2.7-3.9,4.6c-0.1,0.3-0.1,0.6,0,0.8
		c0.1,0.2,0.2,0.3,0.3,0.4c0.1,0.1,0.3,0.1,0.5,0c0.3-0.1,0.7-0.2,1.1-0.5c0.7-0.9,1.2-1.7,1.8-2.3s1.2-1.4,2-2.2
		c0.2-0.2,0.7-0.5,1-0.7l-0.2,0.4c-0.5,1.2-0.8,1.8-0.7,3.2l0,0.1c0,0.9,0.1,1.2,0.8,1.9c0.3,0.2,0.5,0.3,0.7,0.2
		c0.1,0,0.2-0.1,0.2-0.1c0.1-0.1,0.1-0.2,0.1-0.3c0-0.3-0.1-0.7-0.4-1.1l0,0c-0.6-0.9-0.3-1.9,0.4-2.8c0.6-0.8,1.6-1.6,2.4-2
		l0.1-0.1c1.4-0.7,2.3-1.1,3.3-1.3c1-0.2,2.1-0.2,3.7-0.1l0.5,0.1L41,77.5l-0.4-0.3l-0.6-0.3l-0.5-0.3c-0.1,0-0.3-0.2-0.6-0.3
		c-0.2-0.1-0.5-0.2-0.8-0.4c-0.2-0.1-0.4-0.2-0.6-0.3l-0.2-0.1c-1.2,0.3-1.7,0.3-2.2,0.4C34.6,76.1,34,76.1,32.9,76.3z"/>
	<path fill="#FFFFFF" d="M33.7,82.9c0-0.7,0.1-1.5,0.1-2.3c0.2-0.8,1.5-0.6,1.4,0.2c-0.2,1.7-0.1,3.8-0.1,5.5c1.8,0.1,3.1,0.3,4,1.8
		c1.3,2.5,2.1,5.2,3.4,7.6c0.2,0.7,0.2,0.7-0.3,1.1c-1.8,1.5-7.3,4.8-6.7,7.2c0.2,1.1,0.1,1.5,0,2.6c-0.4,2.5-0.9,4.6-1.5,7.1
		c0.6,0,1.1,0,1.7,0c-0.1,0.4-0.1,0.7-0.2,1.1c-0.9,0-1.4-0.2-1.7,0.4c-0.5,1.7-0.7,3-0.9,4.8c-0.2,1.4-0.4,2.9-0.6,4.3
		c-0.2,1.3-0.2,1.1-0.4,2.4c-0.3,0-0.5,0.1-0.7,0.1c-0.4,0.1-0.8,0.1-1.2,0.2c1.1-3.3,1.6-3.1-0.2-6.4c-0.5-1-2.1-3.5-2.1-4.5
		c0-3.2-0.5-10.7,0.7-13.3c1.6-3.3,3-3.2,2.1,1c-0.2,1.1-0.3,1.8-0.4,3c0,0.2,0.5-0.2,0.8-0.2c0.2,0,0.5,0.1,0.5,0.3
		c-0.1,2.4,0.7,7.1-1.9,5.8c0,0.8,0.1,1.5,0.1,2.3c1.1-0.4,3.1-0.7,3.4-2c0.5-2.6,0.8-4.7,1.1-7.3c0-0.4,0-0.9,0.1-1.3
		c-1.6,0.2-2.1-0.7-1.1-1.8c0.9-0.8,7.7-6.5,7-7.7c-2.1-4.5-1.5-6.5-5.2-3.5c-0.6,0.7,0.5,0.5,1.4,0.6c2.1,1.2-3.5,3.7-4.8,4.7
		c-0.9,0.8,0.4,0.6,0.2,2.1c-0.6,1.1-1.5,1-2.6,0.9c-0.8-0.1-0.5,0.5-0.5,1c-0.1,1.3-2,0.7-1.9-0.5c0.1-1.6,0.5-2.5,1.3-3.8
		c1.5-3.2,3-5.8,5.4-8.5C34.2,86.8,33.7,84.3,33.7,82.9z"/>
	<path fill="#FFFFFF" d="M33.6,82.9c0-0.5,0-1,0.1-1.6c0-0.2,0-0.5,0-0.7v0c0.1-0.3,0.3-0.5,0.5-0.5c0.1,0,0.2,0,0.3,0
		c0.1,0,0.2,0.1,0.3,0.1c0.2,0.1,0.4,0.4,0.3,0.7v0c-0.1,1.2-0.1,2.6-0.1,4c0,0.5,0,1,0,1.5c0.9,0,1.7,0.1,2.3,0.4
		c0.7,0.3,1.2,0.7,1.7,1.5l0,0c0.6,1.2,1.1,2.3,1.6,3.5c0.6,1.4,1.2,2.8,1.9,4.1l0,0v0c0.2,0.7,0.2,0.7-0.3,1.1l-0.1,0.1
		c-0.4,0.3-0.9,0.7-1.5,1.2c-2.3,1.7-5.6,4.2-5.1,6v0c0.2,1,0.1,1.4,0,2.2c0,0.1,0,0.3-0.1,0.5v0c-0.2,1.3-0.4,2.4-0.7,3.6
		c-0.2,1.1-0.5,2.3-0.8,3.5h1.7l-0.2,1.1h0c-0.2,0-0.4,0-0.6,0c-0.6,0-0.9,0-1,0.4c-0.5,1.6-0.6,2.7-0.8,4.2
		c-0.3,2.4-0.7,4.9-1.1,7.3l-0.2,0c-0.2,0-0.4,0.1-0.6,0.1c-0.1,0-0.3,0-0.4,0.1c-0.3,0-0.5,0.1-0.8,0.1l-0.1,0l0-0.1
		c0.2-0.5,0.3-1,0.5-1.4c0.7-2,0.8-2.3-0.7-5v0c-0.1-0.2-0.3-0.5-0.4-0.8c-0.7-1.2-1.7-3-1.7-3.7c0-0.7,0-1.5,0-2.4
		c-0.1-3.6-0.2-8.8,0.7-10.9l0,0c0.6-1.2,1.1-1.9,1.5-2.2c0.2-0.1,0.4-0.2,0.5-0.1c0.1,0,0.3,0.2,0.3,0.4c0.2,0.5,0.1,1.5-0.2,2.9
		c-0.1,0.6-0.2,1-0.2,1.5c-0.1,0.5-0.1,0.9-0.1,1.5v0c0,0,0,0,0,0c0.1,0,0.2-0.1,0.3-0.1c0.1-0.1,0.3-0.1,0.4-0.1
		c0.1,0,0.3,0,0.4,0.1c0.1,0.1,0.2,0.1,0.2,0.2v0c0,0.5,0,1.2,0,1.8c0,1.4,0.1,2.9-0.3,3.7c-0.3,0.5-0.7,0.8-1.6,0.4l0.1,2.2
		c0.2-0.1,0.4-0.1,0.6-0.2c1.1-0.3,2.5-0.7,2.8-1.8c0.2-1.3,0.4-2.5,0.6-3.6c0.2-1.2,0.3-2.3,0.5-3.7l0.1-1.2
		c-0.5,0.1-0.9,0-1.1-0.1c-0.2-0.1-0.3-0.2-0.4-0.4c-0.1-0.2-0.1-0.3-0.1-0.5c0.1-0.3,0.2-0.6,0.5-0.9v0c0.1-0.1,0.4-0.4,0.8-0.7
		c2-1.8,6.8-6,6.2-7l0,0c-0.5-1-0.8-1.9-1.1-2.6c-0.3-0.9-0.6-1.5-0.9-1.9c-0.6-0.7-1.3-0.5-3.2,1c-0.2,0.2-0.2,0.3-0.1,0.4
		C35,92,35.4,92,35.8,92c0.2,0,0.4,0,0.6,0h0l0,0c0.5,0.3,0.6,0.7,0.4,1.1c-0.5,0.9-2.3,1.9-3.7,2.7c-0.6,0.4-1.2,0.7-1.5,0.9
		c-0.4,0.4-0.3,0.5-0.1,0.8c0.2,0.3,0.4,0.6,0.3,1.3l0,0l0,0c-0.3,0.6-0.7,0.8-1.1,0.9c-0.4,0.1-0.9,0-1.5,0l0,0
		c-0.4-0.1-0.5,0-0.5,0.2c0,0.1,0,0.2,0,0.4c0,0.1,0,0.3,0,0.4c0,0.4-0.3,0.7-0.5,0.7c-0.1,0-0.3,0-0.4,0c-0.1,0-0.3-0.1-0.4-0.2
		c-0.4-0.2-0.7-0.6-0.6-1.1c0-0.8,0.2-1.4,0.4-2c0.2-0.6,0.5-1.2,0.9-1.9c0.7-1.6,1.5-3,2.4-4.4c0.9-1.4,1.8-2.7,3-4
		c0.7-0.9,0.6-2.5,0.5-3.8C33.7,83.6,33.6,83.2,33.6,82.9z M33.8,81.3c0,0.5-0.1,1.1-0.1,1.6c0,0.4,0,0.8,0.1,1.2
		c0.1,1.4,0.2,3-0.5,3.9c-1.2,1.4-2.1,2.7-3,4c-0.9,1.4-1.6,2.8-2.3,4.4v0c-0.4,0.7-0.7,1.3-0.9,1.8c-0.2,0.6-0.3,1.2-0.4,2v0
		c-0.1,0.5,0.2,0.8,0.6,1c0.1,0.1,0.3,0.1,0.4,0.1c0.1,0,0.3,0,0.4,0c0.2-0.1,0.4-0.3,0.5-0.7c0-0.1,0-0.3,0-0.4c0-0.1,0-0.3,0-0.4
		c0-0.2,0.2-0.3,0.6-0.3c0.6,0.1,1.1,0.1,1.5,0c0.4-0.1,0.8-0.4,1.1-0.9c0.1-0.7-0.1-1-0.3-1.3c-0.2-0.3-0.3-0.4,0.1-0.9h0
		c0.3-0.2,0.9-0.6,1.5-0.9c1.4-0.8,3.1-1.8,3.6-2.7c0.2-0.4,0.2-0.7-0.3-1c-0.2,0-0.4,0-0.5,0c-0.4,0-0.8,0-1-0.1
		c-0.1-0.1-0.1-0.2,0.1-0.5l0,0c1.9-1.5,2.7-1.7,3.3-1c0.3,0.4,0.6,1.1,0.9,1.9c0.3,0.7,0.6,1.6,1.1,2.6c0.5,1.1-4.2,5.3-6.3,7.1
		c-0.4,0.3-0.6,0.6-0.8,0.7c-0.3,0.3-0.5,0.6-0.5,0.8c0,0.2,0,0.3,0,0.5c0.1,0.1,0.2,0.2,0.4,0.3c0.3,0.1,0.6,0.2,1.1,0.1l0,0
		c0,0.4,0,0.9-0.1,1.3c-0.1,1.3-0.3,2.5-0.5,3.7c-0.2,1.2-0.4,2.3-0.6,3.6v0c-0.3,1.1-1.7,1.5-2.8,1.8c-0.2,0.1-0.4,0.1-0.6,0.2l0,0
		l-0.1-2.4l0.1,0c0.8,0.4,1.3,0.2,1.5-0.3c0.4-0.8,0.3-2.3,0.3-3.7c0-0.7,0-1.3,0-1.8c0-0.1-0.1-0.1-0.1-0.2
		c-0.1-0.1-0.2-0.1-0.3-0.1c-0.1,0-0.2,0.1-0.4,0.1c-0.1,0.1-0.3,0.1-0.4,0.1c-0.1,0-0.1,0-0.1-0.1c0-0.6,0.1-1,0.1-1.5
		c0.1-0.5,0.1-0.9,0.2-1.5v0c0.3-1.4,0.3-2.4,0.2-2.9c-0.1-0.2-0.2-0.3-0.3-0.4c-0.1,0-0.3,0-0.4,0.1c-0.4,0.3-0.9,1-1.5,2.2
		c-0.9,2.1-0.8,7.2-0.7,10.9c0,0.9,0,1.8,0,2.4c0,0.7,1,2.5,1.7,3.7c0.2,0.3,0.3,0.6,0.4,0.8c1.6,2.8,1.5,3.1,0.7,5.1
		c-0.1,0.4-0.3,0.8-0.5,1.3c0.3,0,0.5-0.1,0.8-0.1c0.1,0,0.3,0,0.4-0.1c0.2,0,0.4-0.1,0.6-0.1l0.1,0l0.4-2.4l0.6-4.3l0.1-0.5
		c0.2-1.5,0.3-2.7,0.8-4.3l0,0c0.2-0.5,0.5-0.5,1.1-0.5c0.2,0,0.3,0,0.6,0l0.1-1H34l0,0c0.3-1.2,0.6-2.4,0.8-3.5
		c0.2-1.2,0.5-2.3,0.7-3.6c0-0.2,0-0.3,0.1-0.5c0.1-0.8,0.2-1.2,0-2.1c-0.5-1.9,2.9-4.4,5.2-6.1c0.6-0.4,1.1-0.8,1.5-1.2l0.1-0.1
		c0.4-0.4,0.5-0.4,0.3-1c-0.7-1.3-1.3-2.7-1.9-4.1c-0.5-1.2-1-2.4-1.6-3.5c-0.5-0.7-1-1.2-1.7-1.4c-0.7-0.3-1.4-0.3-2.4-0.4h0v0
		c0-0.5,0-1,0-1.5c0-1.4-0.1-2.8,0.1-4c0-0.3-0.1-0.5-0.3-0.6c-0.1-0.1-0.2-0.1-0.3-0.1c-0.1,0-0.2,0-0.3,0
		c-0.2,0.1-0.4,0.2-0.4,0.5C33.8,80.8,33.8,81.1,33.8,81.3z"/>
	<path fill="#EA4343" d="M30,116.6c1.2-0.6,1.2-0.2,2.3-1c0,1.6-0.1,2.4-0.5,3.9C30.8,121.2,29.7,117.9,30,116.6z"/>
	
		<linearGradient id="SVGID_2_" gradientUnits="userSpaceOnUse" x1="5581.3149" y1="-7415.7437" x2="5581.3149" y2="-5603.6519" gradientTransform="matrix(1.519545e-002 0 0 -1.519545e-002 0.9848 4.0583)">
		<stop  offset="0" style="stop-color:#FE6969"/>
		<stop  offset="0.2275" style="stop-color:#FD6666"/>
		<stop  offset="0.4588" style="stop-color:#CB0505"/>
		<stop  offset="1" style="stop-color:#FB6363"/>
	</linearGradient>
	<path fill="url(#SVGID_2_)" d="M66.9,111.5c1.2-1.1,2.5-2.2,3.7-3.3c0.8-0.7,1.6-1.4,2.4-2.1c0.1-0.1,0.2-0.2,0.1-0.3
		c-0.8-0.8-2.2-1.4-1.4-2.3c0.6-0.6,1.3-1.2,1.9-1.9c0.9-0.7,1.5,0.1,2.3,0.7c0.3,0.2,0.6,0,0.7-0.1c2.9-2.6,5.7-5,8.6-7.4
		c2.8-2.1,9.1-8.3,11.5-4.1c1.9,3.2,2.3,5,3.1,8.6c0.4,2.2,0.8,6.4,1.5,8.2c1,1.8,2.5,1,4,0c0.6-0.3,2.5-1.7,2.4-0.5
		c-0.3,1.7-4.7,4.7-6.2,5.6c-3.3,1.5-5-0.1-5.3-3.6c-0.3-2.6-0.3-5.4-0.7-7.8c-0.6-3-1.6-10-6-7.2c-3.2,2.2-6.1,4.6-9.1,7.2
		c-0.6,0.6-2.1,1.5-0.7,1.8c4.4,0.6,8.6,0.8,13,0.2c4.5-1.1-2,3.9-9.8,3.8c-2-0.1-3.9-0.2-5.9-0.7c-1.6-0.4-1.8,0.3-2.6,1.5
		c-1.5,1.9-3.1,3.5-4.5,5.4c-0.9,1-1.7,2-2.7,2.9c-1.1,0.9-2.1,1-3,0.2C62.6,114.5,65.6,112.8,66.9,111.5z"/>
	
		<linearGradient id="SVGID_3_" gradientUnits="userSpaceOnUse" x1="8073.9185" y1="-7233.2983" x2="8073.9185" y2="-6371.0381" gradientTransform="matrix(1.519545e-002 0 0 -1.519545e-002 0.9848 4.0583)">
		<stop  offset="0" style="stop-color:#FE6969"/>
		<stop  offset="0.2275" style="stop-color:#FD6666"/>
		<stop  offset="0.4588" style="stop-color:#CB0505"/>
		<stop  offset="1" style="stop-color:#FB6363"/>
	</linearGradient>
	<path fill="url(#SVGID_3_)" d="M110.9,109.2c0.5-0.8,1.2-0.3,1-1.5c-0.3-0.9-1-1-1.9-0.8c-1.5,0.8-2.2,1.6-2.4,3.4
		c-0.2,3.3,1.3,4.4,3.9,1.8c1.5-1.6,2.9-3.2,4.4-4.8c2.8-2.7,2.7-1.6,2.2,1.7c-1.4,5.6,0.4,6.1,4.7,2.6c0.5-0.4,0.9-0.8,1.4-1.2
		c0.8-0.7,2.2-2.4,2.3-0.5c0.1,3.2,2.3,4,5,3.9c2.9-0.2,5.1-2.1,7-4.1c0.3-0.3,1.7-1.6,1-2c-0.5-0.2-1.9,1.3-2.4,1.6
		c-2.3,1.6-8,1-8.3-1.5c1.9,0,2.9-0.2,4.8-0.8c3.7-1.9,6.4-6.9,1.6-6.2c-2,0.4-3,0.8-4.5,2.1c-1.5,1.3-2.4,2.3-3.6,3.8
		c-1,1.2-2.8,3.3-4.5,2.9c-1.6-0.7-0.6-2.7,0.1-3.8c1.9-4.3-0.8-5.2-4.3-2.1c-0.8,0.7-1.5,1.5-2.3,2.2c-0.9,1-1.8,1.8-2.8,2.6
		c-0.3,0.3-0.6,0.5-0.9,0.8C111.6,110.1,110.4,110.6,110.9,109.2z"/>
	
		<linearGradient id="SVGID_4_" gradientUnits="userSpaceOnUse" x1="10186.7754" y1="-7257.1826" x2="10186.7754" y2="-6385.4258" gradientTransform="matrix(1.519545e-002 0 0 -1.519545e-002 0.9848 4.0583)">
		<stop  offset="0" style="stop-color:#FE6969"/>
		<stop  offset="0.2275" style="stop-color:#FD6666"/>
		<stop  offset="0.4588" style="stop-color:#CB0505"/>
		<stop  offset="1" style="stop-color:#FB6363"/>
	</linearGradient>
	<path fill="url(#SVGID_4_)" d="M140.2,108c0.8-2,2.2-6,4.4-6.9c1-0.1,1.3,0.1,1.9,0.8c1.3,1.9-4.7,4.9-3,6.7c1,0.7,4.9-4,6.1-5.1
		c1.4-1.2,2.2-1.7,3.9-2.3c4.1-1,2.6,3.2,1.5,3.8c-1.5,0.8-3.4,0.6-5.1,0.6c-1.2,0-0.9,0.5-0.5,1.2c2.4,3.3,3,5.5,7.1,3
		c2.9-1.8,2-1.6,3.8-4.1c2.5-2.9,4.9-3.4,8.4-3.7c2.7-0.2,3.2,2.4,1.3,2.8c-1.9,0.1-2.6-1.3-4.8-0.7c-0.9,0.2-2,1.4-2.4,2.3
		c-0.7,1.4-0.3,2.8,0.9,3.6c1.6,1,4-0.3,5.7-1.4c6.9-3.8-2.8,5.8-8,5.2c-5.4-0.7,1.3-7.1-6.5-1.5c0,0,0,0-0.1,0
		c-0.4,0.3-0.9,0.6-1.3,1c0,0-0.1,0-0.1,0.1c-0.5,0.2-1,0.5-1.4,0.7c0,0,0,0-0.1,0.1c-0.4,0-0.8,0.1-1.3,0.1c0,0-0.1,0-0.1,0
		c-0.4-0.1-0.8-0.3-1.2-0.4c-0.4-0.4-0.9-0.9-1.3-1.3c-0.3-0.4-0.6-0.8-0.9-1.1c-0.2-0.4-0.4-0.8-0.6-1.2c-0.1-0.3-0.3-0.6-0.4-1
		c-1-1.7-1.9,0.7-2.8,1.8C140.1,115.8,139.1,111.6,140.2,108z"/>
	
		<linearGradient id="SVGID_5_" gradientUnits="userSpaceOnUse" x1="11695.7607" y1="-6839.248" x2="11695.7607" y2="-6593.334" gradientTransform="matrix(1.519545e-002 0 0 -1.519545e-002 0.9848 4.0583)">
		<stop  offset="0" style="stop-color:#FE6969"/>
		<stop  offset="0.2275" style="stop-color:#FD6666"/>
		<stop  offset="0.4588" style="stop-color:#CB0505"/>
		<stop  offset="1" style="stop-color:#FB6363"/>
	</linearGradient>
	<path fill="url(#SVGID_5_)" d="M174.5,106c1.6-1.7,1.8-2,4.3-1.6c1,0.2,2,0.3,3,0.5c1.6,0.3,2.5,0.6,1.8,2.1c-0.3,0.5-0.6,1-1.3,1
		c-2.7,0-5.5,0-8.2,0C172.9,107.9,173.9,106.6,174.5,106z"/>
	
		<linearGradient id="SVGID_6_" gradientUnits="userSpaceOnUse" x1="12537.1328" y1="-7311.1426" x2="12537.1328" y2="-5970.1089" gradientTransform="matrix(1.519545e-002 0 0 -1.519545e-002 0.9848 4.0583)">
		<stop  offset="0" style="stop-color:#FE6969"/>
		<stop  offset="0.2275" style="stop-color:#FD6666"/>
		<stop  offset="0.4588" style="stop-color:#CB0505"/>
		<stop  offset="1" style="stop-color:#FB6363"/>
	</linearGradient>
	<path fill="url(#SVGID_6_)" d="M188.1,100c-1.1-0.7,1.3-2.3,2.1-2.8c2.2-1.4,3.5-2.5,6.3-2.4c1.3,0,2,0.2,3,1.1
		c1.3,1.2,0.2,3.1-0.8,4c-1.3,1.1-1.7,1.3-3.3,1.8c1.6,0.6,2.2,0.8,3.3,2c1.3,1.8,0.3,3.7-1.1,5.1c-0.8,0.7-3.3,2.4-4.6,3.2
		c-1.7,0.9-3.3,1.5-5.1,2.2c-1.2,0.5-1.7,0.8-3.1,1c-0.8,0-2.6,0-1.3-1.1c0.2-0.2,4.3-1.8,5.6-2.5c0.9-0.4,3-2,3.5-2.8
		c1-1.6,1.3-2.2,1.3-4.1c-0.1-1.2-1.1-1.5-2.2-1.3c-3,0.7-1.1-0.6,0.1-1.4c1.7-0.9,3.4-1.6,3.8-3.6c0.2-2.4-3.3-0.8-4.4,0
		C190.4,98.9,188.8,100.4,188.1,100z"/>
	<path fill="#FFFFFF" d="M130.5,105c0.8-0.9,3.3-2.6,3.1-0.1c-0.2,0.9-1.2,1.6-2.2,1.9C128.5,107.2,128.8,106.8,130.5,105z"/>
</g>
</svg>
