<?xml version="1.0" encoding="utf-8"?>
<!-- Generator: Adobe Illustrator 19.2.1, SVG Export Plug-In . SVG Version: 6.00 Build 0)  -->
<svg version="1.1" id="Layer_1" xmlns="http://www.w3.org/2000/svg" xmlns:xlink="http://www.w3.org/1999/xlink" x="0px" y="0px"
	 viewBox="0 0 200 200" style="enable-background:new 0 0 200 200;" xml:space="preserve">
<style type="text/css">
	.st0{fill:#FFFFFF;}
</style>
<g id="Layer_x0020_1_3_">
	<g>
		<path class="st0" d="M63.6,120.1c-5.6-3-6.6-6.3-7.4-12.3c0-6.6,0-9.7,4.4-15c2.9-2.8,8.5-3.4,13.1-0.4c-0.5,1-1.1,2-1.7,3
			c-2.3-1.5-3.3-1.4-4.8-1.2c-7.8,2.1-7.2,11.7-5.3,17.8c1.8,5,8.1,5.5,11.5,2.8c2-4.5,3.1-9.5,3.1-14.7c0-20.3-16.7-36.7-37.3-36.7
			C18.6,63.3,1.9,79.7,1.9,100s16.7,36.7,37.3,36.7c13.2,0,24.8-6.7,31.5-16.9C69,120.4,65.9,120.9,63.6,120.1z M29.5,119.6h-5.1
			l0.2-28.8h4.9V119.6z M27.3,85.5c-2.3,0-4.1-1.9-4.1-4.2c0-2.3,1.8-4.2,4.1-4.2c2.3,0,4.1,1.9,4.1,4.2
			C31.4,83.7,29.5,85.5,27.3,85.5z M46.6,119.8h-4.2l-9.8-29l5-0.1l7,23l6.6-23.1h4.5L46.6,119.8z"/>
	</g>
	<path class="st0" d="M94.2,90.3c-6.6,1.4-9,5.5-10.3,11.6c-0.5,6.4-0.4,10.8,4,15.7c4.4,3,8,3,12.8,1.1c0.6,9.7-6,11.5-13.9,8
		c-0.4,0.9-0.9,1.9-1.3,2.8c3.3,1.8,5.4,2,9,2.1c6.6-0.6,9.3-2.9,10.7-9.2c0-10.2,0-20.3,0-30.5C101.8,90,97.8,90,94.2,90.3z
		 M100.5,116.3c-2.2,0.8-2.7,0.9-5.1,1.1c-8.1,0-8.2-12.7-6.6-18.2c2-4.6,6.9-8,11.7-5.2C100.5,101.4,100.5,108.9,100.5,116.3z"/>
	<path class="st0" d="M110.3,92.8c0,8.9,0,17.9,0,26.8c1.6,0,3.2,0,4.7,0c0-8.3,0-16.6,0-24.9c2.3-1.6,3.8-1.4,6.2-0.6
		c0.5-1.2,1-2.3,1.5-3.5C118.7,90.5,113.9,90.5,110.3,92.8z"/>
	<path class="st0" d="M135.7,90.5c-6,0-10.9,6.7-10.9,14.9s4.9,14.9,10.9,14.9c6,0,10.9-6.7,10.9-14.9S141.8,90.5,135.7,90.5z
		 M135.7,117.1c-3.5,0-6.4-5.3-6.4-11.8c0-6.5,2.8-11.8,6.4-11.8c3.5,0,6.4,5.3,6.4,11.8C142.1,111.9,139.2,117.1,135.7,117.1z"/>
	<path class="st0" d="M151,91.1c0,7.2,0,14.5,0,21.7c1.8,6.3,5.8,7.6,11.7,7.6c3.9-0.5,5-0.8,8.5-2.5c0-9,0-17.9,0-26.9
		c-1.5,0-3.1,0-4.6,0c0,8.3,0,16.6,0,24.9c-4.4,2.3-9.5,2.2-10.9-2.9c0-7.3,0-14.6,0-22C154.1,91,152.5,91.1,151,91.1z"/>
	<path class="st0" d="M197.6,99.9c-2.8-8.4-13.6-13.1-20.9-7.3c0,12.8,0,25.7,0,38.5c1.5,0,3,0,4.5,0c0-4,0-7.9,0-11.9
		C194.6,122.1,200,111.8,197.6,99.9z M181.4,116.2c0-7.4,0-14.8,0-22.2c9.1-3.6,12.3,2.5,12.4,10.3
		C193.9,111.8,190.2,119.5,181.4,116.2z"/>
</g>
</svg>
