<?xml version="1.0" encoding="utf-8"?>
<!-- Generator: Adobe Illustrator 18.0.0, SVG Export Plug-In . SVG Version: 6.00 Build 0)  -->
<!DOCTYPE svg PUBLIC "-//W3C//DTD SVG 1.1//EN" "http://www.w3.org/Graphics/SVG/1.1/DTD/svg11.dtd">
<svg version="1.1" id="Layer_1" xmlns="http://www.w3.org/2000/svg" xmlns:xlink="http://www.w3.org/1999/xlink" x="0px" y="0px"
	 viewBox="0 0 200 200" enable-background="new 0 0 200 200" xml:space="preserve">
<g id="Layer_x0020_1">
	<path fill="#2B2A29" d="M38.1,62.7c21,0,38,16.7,38,37.3s-17,37.3-38,37.3c-21,0-38-16.7-38-37.3S17.1,62.7,38.1,62.7z"/>
	<path fill="#2B2A29" d="M38.1,62.6c10.5,0,20,4.2,26.9,11c6.9,6.8,11.2,16.1,11.2,26.4s-4.3,19.7-11.2,26.4
		c-6.9,6.8-16.4,11-26.9,11c-10.5,0-20-4.2-26.9-11C4.3,119.7,0,110.3,0,100s4.3-19.7,11.2-26.4C18,66.8,27.6,62.6,38.1,62.6z
		 M64.9,73.6c-6.9-6.8-16.4-10.9-26.9-10.9c-10.5,0-20,4.2-26.9,10.9C4.3,80.4,0.1,89.7,0.1,100s4.3,19.6,11.1,26.4
		c6.9,6.8,16.4,10.9,26.9,10.9c10.5,0,20-4.2,26.9-10.9c6.9-6.8,11.1-16.1,11.1-26.4S71.8,80.4,64.9,73.6z"/>
	<path fill="#FFFFFF" d="M25.9,76.8c2.3,0,4.2,1.9,4.2,4.2s-1.9,4.2-4.2,4.2c-2.3,0-4.2-1.9-4.2-4.2S23.6,76.8,25.9,76.8z"/>
	<path fill="#FFFFFF" d="M25.9,76.7c1.2,0,2.2,0.5,3,1.3c0.8,0.8,1.2,1.8,1.2,3c0,1.2-0.5,2.3-1.2,3c-0.8,0.8-1.8,1.3-3,1.3
		c-1.2,0-2.2-0.5-3-1.3c-0.8-0.8-1.2-1.8-1.2-3c0-1.2,0.5-2.3,1.2-3C23.7,77.2,24.7,76.7,25.9,76.7z M28.8,78.1
		c-0.7-0.8-1.8-1.2-2.9-1.2c-1.1,0-2.2,0.5-2.9,1.2c-0.7,0.8-1.2,1.8-1.2,3s0.5,2.2,1.2,3c0.7,0.8,1.8,1.2,2.9,1.2
		c1.1,0,2.2-0.5,2.9-1.2c0.7-0.8,1.2-1.8,1.2-3S29.6,78.8,28.8,78.1z"/>
	<polygon fill="#FFFFFF" points="23.2,90.6 28.2,90.6 28.2,119.9 23,119.9 	"/>
	<path fill="#FFFFFF" d="M23.2,90.6h5V120H23C23,110.2,23.1,100.4,23.2,90.6L23.2,90.6z M28.2,90.6h-4.9l-0.2,29.2h5.1V90.6z"/>
	<polygon fill="#FFFFFF" points="31.4,90.6 41.3,120.2 45.6,120.2 54.9,90.3 50.4,90.3 43.7,113.9 36.5,90.5 	"/>
	<path fill="#FFFFFF" d="M31.4,90.7l9.9,29.5h4.2l9.3-29.8h-4.4L43.7,114l-7.2-23.5L31.4,90.7z M41.3,120.2l-10-29.6
		c1.7,0,3.5-0.1,5.2-0.1l7.1,23.3l6.7-23.4H55c-3.1,10-6.3,20-9.4,29.9L41.3,120.2L41.3,120.2z"/>
	<path fill="#FFFFFF" d="M71.5,95.2c-2.3-1.5-3.3-1.5-4.9-1.3c-7.9,2.2-7.4,12-5.4,18.2c1.9,5.1,8.2,5.6,11.7,2.9
		c-0.5,1-1.3,2.9-2.8,5.1c-1.8,0.7-4.8,1.1-7.2,0.3c-5.7-3.1-6.7-6.4-7.6-12.6c0-6.7,0-9.9,4.5-15.3c2.9-2.8,8.7-3.5,13.4-0.4
		C72.6,93.2,72.1,94.2,71.5,95.2z"/>
	<path fill="#FFFFFF" d="M71.5,95.3c-1.2-0.7-2-1.1-2.7-1.3c-0.7-0.2-1.4-0.1-2.2,0c-0.1,0-0.3,0.1-0.4,0.1c-3.5,1.1-5.2,3.8-5.9,7
		c-0.6,3.2-0.2,6.9,0.6,9.9c0.1,0.4,0.2,0.7,0.3,1.1c0.3,0.7,0.6,1.4,1,1.9c1,1.3,2.4,2.1,3.9,2.4c1.5,0.3,3.1,0.2,4.6-0.3
		c0.7-0.3,1.4-0.6,2.1-1.1l0.1-0.1l-0.1,0.2c-0.5,1-1.3,2.9-2.8,5l0,0l0,0c-1,0.4-2.3,0.7-3.8,0.8c-1.2,0.1-2.4-0.1-3.5-0.4l0,0
		c-2.9-1.6-4.5-3.2-5.6-5.2c-1.1-2-1.5-4.4-2-7.4c0,0,0-0.1,0-0.2c0-6.6,0-9.8,4.5-15.1l0,0c1.5-1.5,3.8-2.4,6.4-2.4
		c2.3-0.1,4.8,0.5,7.1,2l0,0C72.7,93.2,72.1,94.2,71.5,95.3L71.5,95.3z M68.8,93.9c0.7,0.2,1.6,0.5,2.7,1.3l1.6-3
		c-2.2-1.4-4.7-2-7-2c-2.5,0.1-4.8,1-6.3,2.4c-4.5,5.3-4.5,8.5-4.5,15.1v0.2c0.4,3.1,0.9,5.4,2,7.4c1.1,2,2.7,3.6,5.6,5.1
		c1.1,0.4,2.3,0.5,3.4,0.4c1.4-0.1,2.8-0.4,3.7-0.7c1.4-2.1,2.2-3.9,2.7-4.9c-0.6,0.4-1.2,0.8-1.9,1c-1.5,0.5-3.1,0.7-4.6,0.3
		c-1.5-0.3-3-1.1-4-2.4c-0.4-0.6-0.8-1.2-1.1-1.9l0,0c-0.1-0.4-0.2-0.7-0.3-1.1c-0.8-3-1.3-6.7-0.6-9.9c0.7-3.2,2.4-5.9,6-7.1
		c0.1,0,0.3-0.1,0.4-0.1h0C67.4,93.8,68.1,93.8,68.8,93.9z"/>
	<path fill="#2B2A29" d="M100.5,119c-4.9,1.9-8.5,2-13-1.1c-4.5-5-4.5-9.5-4-16c1.3-6.2,3.8-10.3,10.5-11.8c3.7-0.3,7.7-0.3,11,1.7
		c0,10.3,0,20.7,0,31c-1.4,6.4-4.2,8.8-10.9,9.4c-3.7-0.1-5.8-0.3-9.1-2.1c0.4-0.9,0.9-1.9,1.3-2.8
		C94.4,130.7,101.2,128.9,100.5,119z"/>
	<path fill="#2B2A29" d="M100.5,119.1c-2.4,1-4.5,1.5-6.6,1.3c-2.1-0.1-4.1-0.9-6.4-2.4l0,0l0,0c-2.2-2.5-3.4-4.9-3.9-7.5
		c-0.5-2.6-0.4-5.3-0.2-8.6v0c0.7-3.1,1.6-5.7,3.3-7.7s3.9-3.4,7.3-4.1l0,0c1.9-0.1,3.8-0.2,5.7,0c1.9,0.2,3.7,0.7,5.4,1.7l0,0v31v0
		c-0.7,3.2-1.8,5.4-3.5,6.9c-1.7,1.5-4.1,2.2-7.5,2.5h0c-1.8,0-3.3-0.1-4.7-0.4c-1.4-0.3-2.8-0.8-4.5-1.7l0,0c0.5-1,0.9-2,1.4-2.9
		l0,0c2.7,1.2,5.3,1.8,7.5,1.6c1.3-0.1,2.5-0.4,3.5-1.1c1-0.6,1.8-1.6,2.3-2.8C100.3,123.4,100.6,121.5,100.5,119.1z M93.9,120.3
		c2.1,0.1,4.2-0.4,6.6-1.3l0.1,0l0,0.1c0.2,2.4-0.1,4.4-0.8,5.9c-0.5,1.3-1.4,2.2-2.4,2.9c-1,0.7-2.2,1-3.6,1.1
		c-2.2,0.1-4.8-0.4-7.5-1.6l-1.3,2.8c1.7,0.9,3,1.4,4.4,1.7c1.4,0.3,2.8,0.4,4.7,0.4c3.4-0.3,5.7-1,7.4-2.5c1.7-1.5,2.7-3.6,3.4-6.8
		v-31c-1.6-1-3.5-1.5-5.3-1.7c-1.9-0.2-3.8-0.1-5.7,0c-3.3,0.7-5.6,2.1-7.3,4.1c-1.6,2-2.6,4.5-3.2,7.7c-0.2,3.2-0.4,6,0.2,8.5
		c0.5,2.6,1.6,4.9,3.9,7.4C89.8,119.4,91.8,120.2,93.9,120.3z"/>
	<path fill="#FFFFFF" d="M100.5,93.9c0,7.6,0,15.1,0,22.7c-2.3,0.9-2.8,0.9-5.2,1.1c-8.2,0-8.4-12.9-6.7-18.5
		C90.7,94.5,95.6,91,100.5,93.9z"/>
	<path fill="#2B2A29" d="M100.6,93.9v22.7l0,0c-1.1,0.4-1.8,0.7-2.5,0.8c-0.7,0.1-1.4,0.2-2.7,0.3h0c-0.7,0-1.4-0.1-1.9-0.3
		c-2.1-0.6-3.6-2.3-4.4-4.5c-0.9-2.2-1.2-4.8-1.2-7.3c0-2.5,0.3-4.8,0.8-6.5l0,0c0.2-0.4,0.4-0.8,0.6-1.2c1.1-1.9,2.7-3.5,4.5-4.4
		c1.8-0.9,3.9-1.1,6-0.1C100,93.6,100.3,93.7,100.6,93.9L100.6,93.9L100.6,93.9z M100.5,116.6V93.9c-0.3-0.2-0.5-0.3-0.8-0.4
		c-2.1-0.9-4.1-0.8-6,0.1c-1.8,0.9-3.4,2.4-4.5,4.3c-0.2,0.4-0.4,0.8-0.6,1.2c-0.5,1.7-0.8,4-0.8,6.5c0,2.5,0.4,5.1,1.2,7.3
		c0.9,2.1,2.3,3.8,4.4,4.4c0.6,0.2,1.2,0.3,1.9,0.3c1.2-0.1,1.9-0.2,2.6-0.3C98.7,117.2,99.4,117,100.5,116.6z"/>
	<path fill="#2B2A29" d="M110.5,92.7c0,9.1,0,18.2,0,27.3c1.6,0,3.2,0,4.8,0c0-8.5,0-16.9,0-25.4c2.3-1.6,3.8-1.4,6.4-0.7
		c0.5-1.2,1-2.4,1.5-3.6C119,90.3,114.1,90.3,110.5,92.7z"/>
	<path fill="#2B2A29" d="M110.5,92.7v27.2h4.7V94.5l0,0c1.2-0.8,2.1-1.1,3.1-1.2c1-0.1,2,0.2,3.2,0.5l1.5-3.5
		C119,90.4,114.1,90.4,110.5,92.7z M110.4,120V92.6l0,0c3.6-2.3,8.5-2.3,12.7-2.3h0.1c-0.5,1.2-1.1,2.5-1.6,3.7l0,0
		c-1.3-0.4-2.3-0.6-3.2-0.5c-1,0.1-1.9,0.4-3.1,1.2V120L110.4,120L110.4,120z"/>
	<path fill="#2B2A29" d="M136.4,90.3c6.1,0,11.1,6.8,11.1,15.1s-5,15.1-11.1,15.1c-6.1,0-11.1-6.8-11.1-15.1S130.2,90.3,136.4,90.3z
		"/>
	<path fill="#2B2A29" d="M136.4,90.3c3.1,0,5.9,1.7,7.9,4.5c2,2.7,3.3,6.5,3.3,10.7s-1.2,8-3.3,10.7c-2,2.7-4.8,4.5-7.9,4.5
		s-5.9-1.7-7.9-4.5c-2-2.7-3.3-6.5-3.3-10.7s1.2-8,3.3-10.7C130.5,92,133.3,90.3,136.4,90.3z M144.2,94.8c-2-2.7-4.8-4.4-7.8-4.4
		c-3.1,0-5.8,1.7-7.8,4.4c-2,2.7-3.2,6.5-3.2,10.7s1.2,7.9,3.2,10.7c2,2.7,4.8,4.4,7.8,4.4c3.1,0,5.8-1.7,7.8-4.4
		c2-2.7,3.2-6.5,3.2-10.7S146.2,97.5,144.2,94.8z"/>
	<path fill="#FFFFFF" d="M136.4,93.5c3.6,0,6.5,5.4,6.5,12c0,6.6-2.9,12-6.5,12c-3.6,0-6.5-5.4-6.5-12
		C129.9,98.9,132.8,93.5,136.4,93.5z"/>
	<path fill="#2B2A29" d="M136.4,93.5c1.8,0,3.4,1.3,4.6,3.5c1.2,2.2,1.9,5.2,1.9,8.5s-0.7,6.3-1.9,8.5c-1.2,2.2-2.8,3.5-4.6,3.5
		s-3.4-1.3-4.6-3.5c-1.2-2.2-1.9-5.2-1.9-8.5s0.7-6.3,1.9-8.5C132.9,94.8,134.6,93.5,136.4,93.5z M140.9,97
		c-1.2-2.2-2.8-3.5-4.5-3.5s-3.4,1.3-4.5,3.5c-1.2,2.2-1.9,5.1-1.9,8.4s0.7,6.3,1.9,8.4c1.2,2.2,2.8,3.5,4.5,3.5s3.4-1.3,4.5-3.5
		c1.2-2.2,1.9-5.1,1.9-8.4S142.1,99.2,140.9,97z"/>
	<path fill="#2B2A29" d="M151.9,90.9c0,7.4,0,14.7,0,22.1c1.8,6.4,6,7.8,11.9,7.8c4-0.5,5.1-0.8,8.6-2.6c0-9.1,0-18.2,0-27.4
		c-1.6,0-3.1,0-4.7,0c0,8.4,0,16.9,0,25.3c-4.5,2.3-9.7,2.3-11.1-2.9c0-7.5,0-14.9,0-22.4C155,90.9,153.4,90.9,151.9,90.9z"/>
	<path fill="#2B2A29" d="M151.9,91v22c0.9,3.2,2.4,5.1,4.4,6.2c2,1.1,4.5,1.5,7.5,1.5c2-0.2,3.3-0.4,4.5-0.8
		c1.2-0.4,2.4-0.9,4.1-1.7V90.9h-4.6v25.3l0,0c-0.9,0.5-1.8,0.8-2.7,1.1c-1.6,0.4-3.2,0.5-4.6,0.1c-1.4-0.4-2.5-1.3-3.3-2.7
		c-0.2-0.4-0.4-0.9-0.6-1.5v0V90.9L151.9,91z M151.8,113V90.9c1.6,0,3.2-0.1,4.8-0.1v22.4c0.1,0.5,0.3,1,0.6,1.4
		c0.7,1.4,1.9,2.3,3.2,2.7c1.4,0.4,2.9,0.3,4.5-0.1c0.9-0.2,1.8-0.6,2.7-1.1V90.8h4.8v27.4l0,0c-1.8,0.9-2.9,1.4-4.1,1.8
		c-1.2,0.4-2.5,0.6-4.5,0.8h0c-3,0-5.5-0.3-7.5-1.5C154.2,118.2,152.7,116.2,151.8,113L151.8,113L151.8,113z"/>
	<path fill="#2B2A29" d="M178.1,92.5c0,13.1,0,26.1,0,39.2c1.5,0,3,0,4.5,0c0-4,0-8,0-12.1c13.7,2.9,19.2-7.5,16.7-19.7
		C196.6,91.4,185.5,86.6,178.1,92.5z"/>
	<path fill="#2B2A29" d="M178.2,92.5v39.1h4.4v-12.1l0.1,0c2.8,0.6,5.2,0.6,7.3,0.2c2.6-0.5,4.7-1.7,6.3-3.5c1.6-1.7,2.6-4,3.2-6.6
		c0.6-2.9,0.6-6.3-0.1-9.8c-0.5-1.6-1.3-3-2.3-4.3c-1.8-2.3-4.3-4-6.9-5c-2.7-0.9-5.6-1.1-8.3-0.2C180.5,90.9,179.3,91.6,178.2,92.5
		z M178.1,131.7V92.4l0,0c1.1-0.9,2.4-1.5,3.6-2c2.7-0.9,5.7-0.8,8.4,0.2c2.7,0.9,5.2,2.7,7,5c1,1.3,1.8,2.7,2.3,4.3l0,0
		c0.7,3.5,0.7,6.9,0.1,9.8c-0.5,2.6-1.6,4.9-3.2,6.6c-1.6,1.8-3.7,3-6.3,3.5c-2.1,0.4-4.6,0.4-7.3-0.2v12.1
		C181.2,131.7,179.6,131.7,178.1,131.7L178.1,131.7z"/>
	<path fill="#FFFFFF" d="M182.9,93.9c0,7.5,0,15.1,0,22.6c8.9,3.3,12.7-4.5,12.7-12.1C195.4,96.5,192.1,90.3,182.9,93.9z"/>
	<path fill="#2B2A29" d="M182.9,94v22.5c1.4,0.5,2.7,0.8,3.9,0.8c1.9,0,3.5-0.6,4.7-1.7c1.2-1.1,2.2-2.6,2.8-4.3
		c0.8-2.1,1.1-4.4,1.1-6.8c0-2.5-0.4-4.8-1.2-6.7c-0.6-1.5-1.4-2.7-2.5-3.6c-1.1-0.8-2.5-1.3-4.2-1.3
		C186.3,92.9,184.7,93.3,182.9,94z M182.9,116.5V93.9l0,0c1.8-0.7,3.4-1,4.7-1.1c1.7,0,3.2,0.4,4.3,1.3c1.1,0.9,2,2.1,2.5,3.6
		c0.8,1.9,1.1,4.2,1.2,6.8v0c0,2.4-0.4,4.8-1.1,6.8c-0.7,1.7-1.6,3.3-2.9,4.3s-2.8,1.7-4.8,1.7C185.7,117.4,184.3,117.1,182.9,116.5
		L182.9,116.5L182.9,116.5z"/>
</g>
</svg>
