<?xml version="1.0" encoding="utf-8"?>
<!-- Generator: Adobe Illustrator 19.2.1, SVG Export Plug-In . SVG Version: 6.00 Build 0)  -->
<svg version="1.1" id="Layer_1" xmlns="http://www.w3.org/2000/svg" xmlns:xlink="http://www.w3.org/1999/xlink" x="0px" y="0px"
	 viewBox="0 0 200 200" style="enable-background:new 0 0 200 200;" xml:space="preserve">
<style type="text/css">
	.st0{fill:#FFFFFF;}
</style>
<g id="Layer_x0020_1_4_">
	<path class="st0" d="M121.7,102.1c7.5-3.9,5.6-13.9-0.9-14l-14,0v27.4h1.1v-12.8c4.3,0,8.6,0,12.9,0c2.4,0.8,4,2.2,4,4.2
		c0,2.8,0,5.3,0,8.2c0.4,0,0.9,0,1.3,0c0-2.7,0-5.4,0-8.1C126,104.5,124.2,103.1,121.7,102.1z M120.2,101.8c-1.6,0-3.2,0-4.8,0
		c-2.6,0-5.1,0-7.7,0V89.2l13.1,0.1C125.5,89.3,128,97.4,120.2,101.8z"/>
	<path class="st0" d="M139.5,87.7l-0.8,0.1l-11.4,27.5h1.2l3.8-8.9h13.1l3.8,9.1h1.2L139.5,87.7z M132.6,105.2l6.4-15.6l6.2,15.7
		L132.6,105.2z"/>
	<path class="st0" d="M186.3,87.2c-7.1,0-12.8,6.6-12.8,14.6c0,8.1,5.7,14.6,12.8,14.6c7.1,0,12.8-6.6,12.8-14.6
		C199.1,93.7,193.4,87.2,186.3,87.2z M186.3,115c-6.4,0-11.5-5.9-11.5-13.1c0-7.3,5.2-13.1,11.5-13.1c6.4,0,11.5,5.9,11.5,13.1
		C197.8,109.1,192.6,115,186.3,115z"/>
	<path class="st0" d="M91.7,103.4c3.5,0,6.9,0,10.4,0c0,4-0.1,5.1-2.4,8c-5,4.7-10.8,4.6-15.8,0.8c-2.1-2.1-3.9-5.3-4-9
		c-0.2-4.8,0.9-8.3,2.8-10.9c1.9-2.6,5-3.8,9.6-3.9c4.8,0.3,8.6,3.5,9.4,8.3c0.3,0,0.8,0,1.2,0c0-1.8-1.6-5.1-2.9-6.3
		c-2.7-2.4-4.7-3.2-8.2-3.2c-4.6,0.2-7.5,1.3-10,4.2c-2.6,3.3-3.3,6.8-3.2,11.6c0.3,7,4.5,12.3,11.5,13c4.8,0.3,8.3-1.2,11.1-5.1
		c0.3-0.5,0.5-0.7,0.8-1.2c0,1.8,0,3.3,0,5.1c0.4,0.1,0.7,0.2,1.1,0.3c0-4.3,0-8.7,0-13.1c-3.8,0-7.7,0-11.5,0
		C91.7,102.6,91.7,103,91.7,103.4z"/>
	<path class="st0" d="M64.6,97.3c-9.1-9-18.2-18.1-27.2-27.1c-2.1-2.3-5.8-2.3-7.7-0.3c-8.9,8.9-17.9,17.9-26.8,26.8
		c-2.3,2.2-3.1,3.3-1,5.8c9,9,18,18,27.1,27.1c2.3,2.1,5.4,2.9,7.4,1.3c9.4-9.1,18.7-18.1,28.1-27.2C66.4,101.4,66.7,99.4,64.6,97.3
		z M9.2,105.8c-0.8-0.9-1.7-1.8-2.5-2.7c-2-1.9-2.8-3-0.9-4.9c1.6-1.9,3.1-3.3,4.9-5c2.1-1.9,4.1-3.8,6.2-5.7
		c4.8-4.8,9.7-9.6,14.5-14.5c1.2-0.9,2.4-1.1,3.6,0.2c3.2,3.2,6.3,6.3,9.5,9.5c-1.4,0.3-2.8,0.9-4.1,1.5c-7.9-5-14.8,0-18.3,6.9
		c-2.4,4.4-2.5,7.2-1.1,11.9c-2.1,1-2.4,1.3-4,2.7c-1.8,1.9-1.9,2.5-1.7,6.3c0,0,0,0,0,0c-0.1-0.1-0.2-0.2-0.3-0.3
		c-0.8-0.9-1.6-1.8-2.4-2.7C11.3,107.9,10.2,106.9,9.2,105.8z M34.3,89c-0.3,3.4-1,5.7-2,8.9c-1,2.5-1.2,4.5-3.7,4.1
		c-2.1-0.9-0.4-5.8,0.1-7.7c0.6-2.1,1.2-4.7,2.5-6.5C32.8,85.7,34.5,86.2,34.3,89z M28.3,122.1l-1,0.1c-0.1,0-0.1,0-0.2,0l-0.9-0.1
		c-0.1,0-0.1,0-0.2,0l-0.8-0.2l-0.4-0.2c-1.2-1.2-2.3-2.3-3.5-3.5v-0.1l0.1-0.2l0.2,0h8.2l0.8,0.3l0.4,0.3l0.3,0.4l0.2,0.6v0.7
		c0,0.1,0,0.1-0.1,0.1l-0.2,0.5c-0.1,0-0.1,0-0.1,0.1l-0.5,0.4l-0.1,0.1l-0.8,0.4L28.3,122.1C28.3,122.1,28.4,122.1,28.3,122.1z
		 M60.1,102.4c-8.2,8.2-16.5,16.5-24.7,24.7c-1.4,1.3-2.8,1.9-4.3,0.6c-0.4-0.4-0.9-0.7-1.3-1.1c-0.2-0.2-0.4-0.4-0.6-0.6
		c5-0.8,7.1-3.3,9.2-8.2c1.8-5.6,0.2-8.6-5.1-8.7c-2.5,0-5.1,0-7.6,0.1c-2.2,0.1-3.9,0.6-4.2-1.6c0.3-3.2,5,0.5,10-1.2
		c4.1-1.7,6-3.9,8.4-7.5c2.3-4.2,2.2-7.7,1.7-12.2c0.9-0.9,4.9-2.8,4.2-0.6c-1.7,2-4.2,5.1-1.4,6.8c2.9,1.4,4.1-1.1,5.4-3.9
		c0.1-0.2,0.2-0.4,0.2-0.6c3.2,3.2,6.4,6.4,9.7,9.7c0.3,0.4,0.5,0.8,0.8,1.2c0,0.3,0.1,0.5,0.1,0.8c0,0.5,0,1,0.1,1.5
		C60.5,101.8,60.3,102.1,60.1,102.4z"/>
	<path class="st0" d="M166.5,101.3c1.3-0.7,2.2-1.3,3.2-2.5c1.3-2,1.2-4.4,0.7-6.7c-0.8-2.6-2.8-3.7-5.4-3.9c-4.5,0-9.1,0-13.6,0
		c0,9,0,18,0,27.1c4.5,0,8.9,0,13.4,0c0.5,0,1,0,1.5,0C173.3,113.8,174.5,103.4,166.5,101.3z M152.4,89.2l12.1,0
		c7,0.3,6.2,10.3,0.7,11c-4.3,0-8.5,0-12.8,0V89.2z M165.8,113.5c-4.5,0-8.9,0-13.4,0v-11l12.7,0
		C172.3,102.8,171.6,112.8,165.8,113.5z"/>
</g>
</svg>
