<?xml version="1.0" encoding="utf-8"?>
<!-- Generator: Adobe Illustrator 18.0.0, SVG Export Plug-In . SVG Version: 6.00 Build 0)  -->
<!DOCTYPE svg PUBLIC "-//W3C//DTD SVG 1.1//EN" "http://www.w3.org/Graphics/SVG/1.1/DTD/svg11.dtd">
<svg version="1.1" id="Layer_1" xmlns="http://www.w3.org/2000/svg" xmlns:xlink="http://www.w3.org/1999/xlink" x="0px" y="0px"
	 viewBox="0 0 200 200" enable-background="new 0 0 200 200" xml:space="preserve">
<g id="Layer_x0020_1">
	<path fill="#939598" d="M107,87.5v27.6h1.1v-12.8c4.3,0,8.7,0,13,0c2.4,0.8,4,2.2,4,4.3c0,2.9,0,5.4,0,8.2c0.4,0,0.9,0,1.3,0
		c0-2.7,0-5.4,0-8.1c0-2.6-1.8-4-4.3-5c7.6-3.9,5.7-14-0.9-14.1L107,87.5z"/>
	<path fill="#939598" d="M107,87.5v27.5h1v-12.8h13l0,0c1.3,0.4,2.3,1,3,1.7c0.7,0.7,1,1.6,1,2.6v8.2h1.2v-8.1
		c0-1.3-0.5-2.3-1.2-3.1c-0.8-0.8-1.8-1.4-3.1-1.9l-0.1,0l0.1,0c2.4-1.3,3.9-3.2,4.5-5.2c0.4-1.3,0.5-2.6,0.2-3.9
		c-0.2-1.2-0.8-2.4-1.6-3.2c-1-1-2.4-1.7-4-1.7L107,87.5z M106.9,115.1V87.4l14.2,0c1.7,0,3.1,0.7,4.1,1.7c0.8,0.9,1.4,2,1.6,3.3
		c0.3,1.3,0.2,2.6-0.2,3.9c-0.6,2-2.1,3.9-4.5,5.2c1.2,0.5,2.3,1.1,3,1.9c0.8,0.8,1.2,1.8,1.2,3.1v8.2H125v-8.3c0-1-0.4-1.8-1-2.5
		c-0.7-0.7-1.7-1.3-3-1.7h-12.9v12.8L106.9,115.1L106.9,115.1z"/>
	<path fill="#FEFEFE" d="M107.9,88.6v12.7c2.6,0,5.2,0,7.7,0c1.6,0,3.2,0,4.9,0c7.8-4.4,5.3-12.5,0.6-12.5L107.9,88.6z"/>
	<path fill="#939598" d="M107.9,88.6v12.6h12.6c2.6-1.5,4-3.3,4.6-5.2c0.4-1.2,0.4-2.3,0.2-3.4c-0.2-1-0.7-2-1.4-2.6
		c-0.8-0.8-1.8-1.2-2.9-1.2L107.9,88.6z M107.8,101.3V88.5l13.3,0.1c1.2,0,2.2,0.5,3,1.3c0.7,0.7,1.2,1.6,1.4,2.7
		c0.2,1.1,0.2,2.2-0.2,3.4c-0.6,1.9-2.1,3.8-4.7,5.2l0,0L107.8,101.3L107.8,101.3z"/>
	<polygon fill="#939598" points="139.1,87.1 127.6,114.8 128.8,114.8 132.6,105.8 145.9,105.8 149.7,115 150.9,115 139.9,87.1 	"/>
	<path fill="#939598" d="M139.1,87.2l-11.4,27.6h1.1l3.8-9c4.4,0,8.9,0,13.3,0l3.8,9.1h1.1l-11-27.8L139.1,87.2z M127.6,114.8
		l11.5-27.7l0.8-0.1c3.7,9.3,7.4,18.7,11.1,28h-1.3l-3.8-9.1h-13.2l-3.8,9L127.6,114.8L127.6,114.8z"/>
	<polygon fill="#FEFEFE" points="133,104.7 139.4,89 145.6,104.8 	"/>
	<path fill="#939598" d="M132.9,104.7l6.5-15.8c2.1,5.3,4.2,10.7,6.3,16C141.4,104.8,137.2,104.8,132.9,104.7L132.9,104.7z
		 M139.4,89.1l-6.4,15.6l12.5,0.1L139.4,89.1z"/>
	<path fill="#939598" d="M151.9,87.6c4.6,0,9.1,0,13.7,0c2.6,0.1,4.6,1.3,5.4,3.9c0.6,2.3,0.6,4.7-0.7,6.7c-1,1.2-2,1.7-3.3,2.5
		c8.1,2.1,6.9,12.7-0.2,14.1c-0.5,0-1,0-1.5,0c-4.5,0-9,0-13.5,0C151.9,105.8,151.9,96.7,151.9,87.6z"/>
	<path fill="#939598" d="M151.9,87.6l13.7,0c1.3,0.1,2.5,0.4,3.5,1.1c0.9,0.6,1.6,1.6,2,2.8l0,0c0.3,1.1,0.4,2.3,0.4,3.5
		c-0.1,1.2-0.4,2.3-1.1,3.3l0,0c-1,1.1-1.9,1.7-3.2,2.4c2.3,0.6,3.8,1.9,4.7,3.5c0.6,1.1,0.9,2.4,0.9,3.7c0,1.3-0.4,2.6-1.1,3.7
		c-1,1.6-2.6,2.9-4.7,3.3c-2.5,0.5-11.9,0-15.1,0L151.9,87.6L151.9,87.6z M165.6,87.7H152v27.2h15c2.1-0.4,3.7-1.7,4.6-3.3
		c0.7-1.1,1-2.4,1.1-3.6c0-1.3-0.2-2.6-0.9-3.7c-0.9-1.6-2.4-2.9-4.7-3.5l-0.1,0l0.1-0.1c1.3-0.7,2.2-1.3,3.2-2.4c0.7-1,1-2.1,1-3.2
		c0.1-1.1-0.1-2.3-0.4-3.5c-0.4-1.2-1.1-2.1-1.9-2.8C168.1,88.1,166.9,87.8,165.6,87.7z"/>
	<path fill="#FEFEFE" d="M152.9,88.6v11.1c4.3,0,8.6,0,12.9,0c5.6-0.7,6.3-10.7-0.7-11.1L152.9,88.6z"/>
	<path fill="#939598" d="M152.9,88.6v11h12.8c1.9-0.2,3.3-1.6,3.9-3.2c0.3-0.8,0.5-1.7,0.4-2.5c0-0.9-0.2-1.7-0.6-2.5
		c-0.7-1.5-2.2-2.6-4.4-2.7L152.9,88.6z M152.8,99.7V88.5c4.1,0,8.2,0,12.3,0c2.3,0.1,3.8,1.3,4.5,2.8c0.4,0.8,0.6,1.6,0.6,2.5
		c0,0.9-0.1,1.8-0.4,2.6c-0.7,1.7-2,3.1-4,3.3C162.5,100.1,156.3,99.7,152.8,99.7L152.8,99.7z"/>
	<path fill="#939598" d="M187,86.6c7.1,0,12.9,6.6,12.9,14.7s-5.8,14.7-12.9,14.7c-7.1,0-12.9-6.6-12.9-14.7S179.9,86.6,187,86.6z"
		/>
	<path fill="#939598" d="M187,86.5c3.6,0,6.8,1.7,9.2,4.3c2.3,2.7,3.8,6.4,3.8,10.5c0,4.1-1.4,7.8-3.8,10.5
		c-2.3,2.7-5.6,4.3-9.2,4.3c-3.6,0-6.8-1.7-9.2-4.3c-2.3-2.7-3.8-6.4-3.8-10.5c0-4.1,1.5-7.8,3.8-10.5
		C180.2,88.2,183.4,86.5,187,86.5z M196.1,90.9c-2.3-2.7-5.6-4.3-9.1-4.3c-3.6,0-6.8,1.6-9.1,4.3c-2.3,2.7-3.8,6.3-3.8,10.4
		c0,4.1,1.4,7.7,3.8,10.4c2.3,2.7,5.5,4.3,9.1,4.3c3.6,0,6.8-1.6,9.1-4.3c2.3-2.7,3.8-6.3,3.8-10.4
		C199.9,97.3,198.5,93.6,196.1,90.9z"/>
	<path fill="#FEFEFE" d="M187,88.1c6.4,0,11.6,5.9,11.6,13.2c0,7.3-5.2,13.2-11.6,13.2c-6.4,0-11.6-5.9-11.6-13.2
		C175.4,94,180.6,88.1,187,88.1z"/>
	<path fill="#939598" d="M187,88c3.2,0,6.1,1.5,8.2,3.9c2.1,2.4,3.4,5.7,3.4,9.4c0,3.7-1.3,7-3.4,9.4c-2.1,2.4-5,3.9-8.2,3.9
		c-3.2,0-6.1-1.5-8.2-3.9c-2.1-2.4-3.4-5.7-3.4-9.4c0-3.7,1.3-7,3.4-9.4C180.9,89.5,183.8,88,187,88z M195.2,92
		c-2.1-2.4-5-3.9-8.2-3.9c-3.2,0-6.1,1.5-8.2,3.9c-2.1,2.4-3.4,5.7-3.4,9.3c0,3.6,1.3,6.9,3.4,9.3c2.1,2.4,5,3.9,8.2,3.9
		c3.2,0,6.1-1.5,8.2-3.9c2.1-2.4,3.4-5.7,3.4-9.3C198.6,97.7,197.3,94.4,195.2,92z"/>
	<path fill="#939598" d="M91.8,102.9c3.5,0,7,0,10.5,0c0,4.1-0.1,5.1-2.4,8.1c-5,4.8-10.9,4.6-15.9,0.8c-2.2-2.1-3.9-5.3-4-9.1
		c-0.2-4.9,0.9-8.4,2.8-10.9c2-2.6,5-3.8,9.7-3.9c4.9,0.3,8.7,3.5,9.4,8.4c0.3,0,0.8,0,1.2,0c0-1.8-1.6-5.1-2.9-6.3
		c-2.7-2.4-4.7-3.2-8.2-3.3c-4.7,0.2-7.6,1.4-10,4.3c-2.7,3.4-3.3,6.9-3.2,11.7c0.3,7.1,4.5,12.3,11.6,13.1
		c4.9,0.3,8.3-1.2,11.2-5.2c0.3-0.5,0.5-0.7,0.8-1.2c0,1.8,0,3.3,0,5.2c0.4,0.1,0.7,0.2,1.1,0.3c0-4.4,0-8.8,0-13.1
		c-3.9,0-7.7,0-11.6,0C91.8,102.1,91.8,102.5,91.8,102.9z"/>
	<path fill="#939598" d="M91.8,102.9h10.5v0c0,2,0,3.3-0.4,4.5c-0.3,1.1-0.9,2.1-2.1,3.6l0,0c-2.5,2.3-5.1,3.5-7.8,3.6
		c-2.8,0.1-5.6-0.8-8.2-2.8l0,0c-1.1-1.1-2.2-2.5-2.9-4.2c-0.7-1.5-1.1-3.1-1.2-4.9c-0.1-2.4,0.1-4.4,0.6-6.2
		c0.5-1.9,1.3-3.5,2.3-4.8c1-1.3,2.3-2.3,3.9-2.9c1.6-0.6,3.6-1,5.9-1l0,0c2.5,0.1,4.7,1,6.4,2.5c1.6,1.4,2.7,3.4,3.1,5.8
		c0.2,0,0.4,0,0.5,0h0.5c0-0.9-0.4-2.1-0.9-3.2c-0.6-1.2-1.3-2.4-2-3c-1.4-1.2-2.5-2-3.8-2.5c-1.3-0.5-2.6-0.7-4.4-0.7
		c-2.3,0.1-4.2,0.4-5.8,1.1c-1.6,0.7-2.9,1.7-4.2,3.1c-1.3,1.7-2.1,3.4-2.6,5.3c-0.5,1.9-0.6,4-0.6,6.4c0.2,3.6,1.3,6.7,3.4,9
		c2,2.2,4.7,3.7,8.2,4.1c2.4,0.1,4.5-0.2,6.3-1c1.8-0.8,3.4-2.2,4.8-4.2l0,0c0.2-0.2,0.3-0.4,0.4-0.6c0.1-0.2,0.2-0.4,0.3-0.6
		l0.1-0.2v5.3l1,0.3v-13H91.8V102.9z M102.2,103H91.7v-1.3h11.7v13.3l-1.2-0.3v-5c-0.1,0.2-0.2,0.3-0.3,0.5
		c-0.1,0.2-0.2,0.4-0.4,0.6c-1.4,2-3,3.4-4.9,4.2c-1.8,0.8-3.9,1.1-6.4,1h0c-3.5-0.4-6.3-1.9-8.3-4.1c-2.1-2.3-3.2-5.5-3.4-9.1l0,0
		c0-2.4,0.1-4.5,0.6-6.4c0.5-1.9,1.3-3.6,2.6-5.3l0,0c1.2-1.5,2.6-2.5,4.2-3.2c1.6-0.7,3.5-1,5.9-1.1l0,0c1.8,0,3.1,0.2,4.4,0.8
		c1.3,0.5,2.5,1.3,3.8,2.5l0,0c0.7,0.6,1.4,1.8,2,3c0.5,1.2,0.9,2.4,0.9,3.3v0h0c-0.2,0-0.4,0-0.6,0c-0.2,0-0.4,0-0.6,0h0l0,0
		c-0.4-2.4-1.5-4.4-3.1-5.8c-1.7-1.5-3.8-2.3-6.3-2.5c-2.3,0.1-4.3,0.4-5.8,1c-1.6,0.6-2.8,1.6-3.8,2.9c-1,1.3-1.8,2.9-2.3,4.7
		c-0.5,1.8-0.7,3.8-0.6,6.2c0.1,1.8,0.5,3.4,1.2,4.9c0.7,1.6,1.7,3.1,2.9,4.2c2.6,1.9,5.4,2.9,8.1,2.8c2.6-0.1,5.3-1.3,7.7-3.6
		c1.1-1.5,1.8-2.5,2.1-3.6C102.2,106.2,102.2,105,102.2,103z"/>
	<path fill="#FEFEFE" d="M2.3,96.1c9-9,18-18,27-27c2-2,5.6-2,7.8,0.3c9.1,9.1,18.3,18.2,27.4,27.3c2.1,2.2,1.8,4.2-0.3,6.4
		c-9.4,9.1-18.9,18.2-28.3,27.4c-2,1.6-5.2,0.8-7.4-1.3c-9.1-9.1-18.2-18.2-27.2-27.2C-0.9,99.5,0,98.3,2.3,96.1z"/>
	<path fill="#939598" d="M2.2,96.1l27-27c0,0,0.1-0.1,0.1-0.1c1-0.9,2.3-1.4,3.7-1.3c1.4,0,2.8,0.6,3.9,1.6c0,0,0.1,0.1,0.1,0.1
		l27.4,27.3c1,1.1,1.5,2.2,1.4,3.2c-0.1,1.1-0.7,2.1-1.7,3.2c-9.3,9-18.8,18.7-28.3,27.4c-1,0.8-2.2,1-3.5,0.8c-1.4-0.2-2.8-1-4-2.1
		c-5.8-4.8-22.4-21.5-27.2-27.2c-1.1-1.2-1.4-2.2-1.1-3C0.3,98,1.1,97.2,2.2,96.1z M29.3,69.1l-27,27c-1.1,1.1-1.9,1.9-2.1,2.8
		c-0.2,0.9,0.1,1.8,1.1,3l27.2,27.2c1.2,1.1,2.6,1.8,4,2c1.3,0.2,2.5,0,3.5-0.8l28.3-27.4c1.1-1.1,1.7-2.1,1.7-3.2
		c0.1-1-0.4-2.1-1.4-3.2L37,69.4c0,0-0.1-0.1-0.1-0.1c-1.1-1.1-2.5-1.6-3.8-1.6c-1.4,0-2.7,0.4-3.7,1.3C29.4,69,29.3,69.1,29.3,69.1
		z"/>
	<path fill="#939598" d="M14.4,111.2c-0.8-0.9-1.6-1.8-2.5-2.7c-1.1-1.1-2.2-2.2-3.3-3.3c-0.9-0.9-1.7-1.8-2.6-2.7
		c-2-2-2.8-3-0.9-4.9c1.6-1.9,3.1-3.3,4.9-5c2.1-1.9,4.1-3.8,6.2-5.8c4.9-4.9,9.7-9.7,14.6-14.6c1.2-0.9,2.5-1.1,3.6,0.2
		c8.3,8.3,16.7,16.7,25,25c0.3,0.4,0.5,0.8,0.8,1.2c0,0.3,0.1,0.5,0.1,0.8c0,0.5,0,1,0.1,1.5c-0.2,0.3-0.4,0.6-0.6,0.9
		c-8.3,8.3-16.6,16.6-24.9,24.9c-1.4,1.3-2.8,1.9-4.3,0.6c-0.4-0.4-0.9-0.7-1.3-1.1C24.4,121.3,19.4,116.2,14.4,111.2z"/>
	<path fill="#FEFEFE" d="M13.2,112.7c0.5-0.4,1-0.8,1.5-1.1c-0.1-3.8,0-4.4,1.7-6.3c1.6-1.4,1.9-1.7,4-2.7c-1.4-4.8-1.3-7.6,1.1-12
		c3.6-6.9,10.5-12,18.5-6.9c3.5-1.5,8.1-3.3,10.2,1.1c0.1,1.9,0.1,1.8-0.6,3.6c-1.3,2.9-2.5,5.4-5.4,4c-2.8-1.7-0.3-4.8,1.4-6.8
		c0.7-2.2-3.3-0.3-4.3,0.6c0.6,4.5,0.6,8.1-1.7,12.3c-2.4,3.6-4.3,5.8-8.4,7.5c-5.1,1.7-9.8-2-10.1,1.2c0.3,2.2,2,1.6,4.3,1.6
		c2.6,0,5.1,0,7.7-0.1c5.3,0.1,6.9,3.1,5.1,8.7c-2.3,5.4-4.6,7.9-10.5,8.4C24.2,125.6,16,115.5,13.2,112.7z"/>
	<path fill="#939598" d="M28.2,93.8c0.6-2.1,1.2-4.7,2.5-6.5c1.7-2.2,3.4-1.8,3.2,1.1c-0.3,3.4-1,5.8-2.1,9c-1,2.6-1.2,4.6-3.7,4.2
		C26.1,100.7,27.8,95.8,28.2,93.8z"/>
	<path fill="#939598" d="M21.2,117.6h8.2l0.8,0.3l0.4,0.3l0.3,0.4l0.2,0.6v0.7c0,0.1,0,0.1-0.1,0.1l-0.2,0.5c-0.1,0-0.1,0-0.1,0.1
		l-0.5,0.4l-0.1,0.1l-0.9,0.4l-1.3,0.3c-0.1,0,0,0-0.1,0l-1,0.1c-0.1,0-0.1,0-0.2,0l-0.9-0.1c-0.1,0-0.1,0-0.2,0l-0.8-0.2l-0.7-0.3
		l-1-0.6l-1.1-1.4l-0.8-1l-0.2-0.4v-0.1l0.1-0.2L21.2,117.6z"/>
	<path fill="#FEFEFE" d="M152.9,102v11.1c4.5,0,9,0,13.5,0c5.9-0.7,6.6-10.7-0.7-11.1L152.9,102z"/>
	<path fill="#939598" d="M152.9,102v11h13.4c2-0.2,3.4-1.6,4.1-3.2c0.3-0.8,0.5-1.6,0.5-2.5c0-0.9-0.2-1.7-0.6-2.4
		c-0.8-1.5-2.3-2.7-4.7-2.8L152.9,102z M152.8,113.1v-11.1c4.3,0,8.6,0,12.8,0c2.4,0.1,4,1.3,4.8,2.8c0.4,0.8,0.6,1.6,0.6,2.5
		c0,0.9-0.1,1.7-0.5,2.5c-0.7,1.7-2.1,3.1-4.2,3.3C162.9,113.5,156.6,113.1,152.8,113.1L152.8,113.1z"/>
</g>
</svg>
