<?xml version="1.0" encoding="utf-8"?>
<!-- Generator: Adobe Illustrator 18.0.0, SVG Export Plug-In . SVG Version: 6.00 Build 0)  -->
<!DOCTYPE svg PUBLIC "-//W3C//DTD SVG 1.1//EN" "http://www.w3.org/Graphics/SVG/1.1/DTD/svg11.dtd">
<svg version="1.1" id="Layer_1" xmlns="http://www.w3.org/2000/svg" xmlns:xlink="http://www.w3.org/1999/xlink" x="0px" y="0px"
	 viewBox="0 0 200 200" enable-background="new 0 0 200 200" xml:space="preserve">
<g>
	<g>
		<path fill="#E21616" d="M20,102.7c15.1-6.6,19.9-11.4,20-24.9V53.5H20H0v24.4C0,91.3,4.8,96.1,20,102.7L20,102.7z"/>
		<path fill="#FFFFFF" d="M4.4,64.5c0.1-0.1,0.1-0.3,0.1-0.4c0.1,0.1,0.3,0.2,0.4,0c-0.3-0.2-0.4-0.6-0.4-0.9H4.3
			c0,0.3-0.1,0.8-0.4,0.9c0.1,0.1,0.3,0,0.4,0C4.3,64.3,4.3,64.4,4.4,64.5 M3.6,62.6h1.6c0,0,0.1,0,0.1,0.1v0.3c0,0.1,0,0.1-0.1,0.1
			H3.6c0,0-0.1,0-0.1-0.1v-0.3C3.6,62.7,3.6,62.6,3.6,62.6 M5.3,62.3c0-0.1,0.1-0.2,0.1-0.3c-0.1-0.1-0.1-0.3,0-0.4
			c0.1,0,0.1,0.1,0.2,0.1c0.6-1.3,1.1,0.8-0.1,0c0,0.3,0.1,0.4,0.4,0.5c-0.1,0.2,0.1,0.7,0.5,0.4c-0.2,0.1-0.3,0-0.3-0.2
			c0-0.1,0.3-0.2,0.4-0.3c0.5-0.5,0.3-1.3-0.4-1.3c-0.5,0.1-0.9,0.5-1.1,1.3c0,0.1,0,0.2-0.1,0.4h0.3C5.1,62.5,5.2,62.4,5.3,62.3
			 M3.7,62.4c-0.1-0.1-0.1-0.2-0.1-0.3c0-0.1,0-0.3,0-0.4c0,0-0.1,0.1-0.2,0.1c-0.6-1.3-1.1,0.8,0.1,0c0,0.3-0.1,0.4-0.4,0.5
			c0.1,0.2-0.1,0.7-0.4,0.4c0.2,0.1,0.3,0,0.3-0.2c0-0.1-0.3-0.2-0.4-0.3c-0.5-0.5-0.3-1.3,0.4-1.3C3.5,61,3.8,61.4,4,62.3
			c0,0.1,0,0.2,0,0.3H3.8C3.8,62.5,3.7,62.4,3.7,62.4 M4.2,62.6v-0.7c-0.1-0.4-0.7-1.1-0.5-1.5c0.3-0.5,0.4-0.9,0.7-1.4
			c0.3,0.5,0.5,0.9,0.7,1.4c0.1,0.3-0.4,1.1-0.5,1.5v0.7H4.2 M4,63.2c0,0.4,0,0.5-0.3,0.7c-0.3,0.1-0.4,0-0.5-0.1
			c-0.1-0.2,0-0.3,0.2-0.3c-0.3,0.3,0.1,0.3,0.1,0.3c0.1-0.1,0.1-0.3,0.1-0.5L4,63.2 M4.8,63.2c0,0.4,0,0.5,0.3,0.7
			c0.3,0.1,0.4,0,0.5-0.1c0.1-0.2,0-0.3-0.2-0.3c0.3,0.3-0.1,0.3-0.1,0.3c-0.1-0.1-0.1-0.3-0.1-0.5L4.8,63.2"/>
		<path fill="#FFFFFF" d="M34.9,64.5c0.1-0.1,0.1-0.3,0.1-0.4c0.1,0.1,0.3,0.2,0.4,0c-0.3-0.2-0.4-0.6-0.4-0.9h-0.4
			c0,0.3-0.1,0.8-0.4,0.9c0.1,0.1,0.3,0,0.4,0C34.7,64.3,34.7,64.4,34.9,64.5 M34.1,62.6h1.6c0,0,0.1,0,0.1,0.1v0.3
			c0,0.1,0,0.1-0.1,0.1h-1.6c0,0-0.1,0-0.1-0.1v-0.3C34,62.7,34.1,62.6,34.1,62.6 M35.7,62.3c0-0.1,0.1-0.2,0.1-0.3
			c0-0.1,0-0.3,0-0.4c0.1,0,0.1,0.1,0.2,0.1c0.6-1.3,1.1,0.8-0.1,0c0,0.3,0.1,0.4,0.4,0.5c-0.1,0.2,0.1,0.7,0.5,0.4
			c-0.2,0.1-0.3,0-0.3-0.2c0-0.1,0.3-0.2,0.4-0.3c0.5-0.5,0.3-1.3-0.4-1.3c-0.5,0.1-0.9,0.5-1.1,1.3c0,0.1,0,0.2,0,0.4h0.3
			C35.6,62.5,35.7,62.4,35.7,62.3 M34.2,62.4c0-0.1-0.1-0.2-0.1-0.3c0-0.1,0.1-0.3,0-0.4c-0.1,0-0.1,0.1-0.1,0.1
			c-0.7-1.3-1.1,0.8,0.1,0c0,0.3-0.1,0.4-0.4,0.5c0.1,0.2-0.1,0.7-0.5,0.4c0.2,0.1,0.3,0,0.3-0.2c0-0.1-0.3-0.2-0.4-0.3
			c-0.5-0.5-0.3-1.3,0.4-1.3c0.5,0.1,0.9,0.5,1,1.4c0,0.1,0,0.2,0.1,0.3h-0.3C34.2,62.5,34.2,62.4,34.2,62.4 M34.7,62.6v-0.7
			c-0.1-0.4-0.7-1.1-0.5-1.5c0.3-0.5,0.5-0.9,0.7-1.4c0.3,0.5,0.4,0.9,0.7,1.4c0.2,0.3-0.4,1.1-0.5,1.5v0.7H34.7 M34.5,63.2
			c0,0.4,0,0.5-0.3,0.7c-0.3,0.1-0.4,0-0.5-0.1c-0.1-0.2,0-0.3,0.2-0.3c-0.3,0.3,0.1,0.3,0.1,0.3c0.1-0.1,0.1-0.3,0.1-0.5L34.5,63.2
			 M35.3,63.2c0,0.4,0,0.5,0.3,0.7c0.3,0.1,0.4,0,0.5-0.1c0.1-0.2,0-0.3-0.2-0.3c0.3,0.3-0.1,0.3-0.1,0.3c-0.1-0.1-0.1-0.3-0.1-0.5
			L35.3,63.2"/>
		<path fill="#FFFFFF" d="M4.4,85.1c0.1-0.1,0.1-0.3,0.1-0.4c0.1,0.1,0.3,0.2,0.4,0c-0.3-0.2-0.4-0.6-0.4-0.9H4.3
			c0,0.3-0.1,0.8-0.4,0.9c0.1,0.1,0.3,0,0.4,0C4.3,84.9,4.3,85,4.4,85.1 M3.6,83.2h1.6c0,0,0.1,0,0.1,0.1v0.3c0,0.1,0,0.1-0.1,0.1
			H3.6c0,0-0.1,0-0.1-0.1L3.6,83.2C3.6,83.3,3.6,83.2,3.6,83.2 M5.3,82.9c0-0.1,0.1-0.2,0.1-0.3c-0.1-0.1-0.1-0.3,0-0.4
			c0.1,0,0.1,0.1,0.2,0.1c0.6-1.3,1.1,0.8-0.1,0c0,0.3,0.1,0.4,0.4,0.5c-0.1,0.2,0.1,0.7,0.5,0.4c-0.2,0.1-0.3,0-0.3-0.2
			c0-0.1,0.3-0.2,0.4-0.3c0.5-0.5,0.3-1.3-0.4-1.3c-0.5,0.1-0.9,0.5-1.1,1.3c0,0.1,0,0.2-0.1,0.4h0.3C5.1,83.1,5.2,83,5.3,82.9
			 M3.7,83c-0.1-0.1-0.1-0.2-0.1-0.3c0-0.1,0-0.3,0-0.4c0,0-0.1,0.1-0.2,0.1c-0.6-1.3-1.1,0.8,0.1,0c0,0.3-0.1,0.4-0.4,0.5
			c0.1,0.2-0.1,0.7-0.4,0.4C3,83.3,3.1,83.2,3,83c0-0.1-0.3-0.2-0.4-0.3c-0.5-0.5-0.3-1.3,0.4-1.3C3.5,81.6,3.8,82,4,82.9
			c0,0.1,0,0.2,0,0.3H3.8C3.8,83.1,3.7,83.1,3.7,83 M4.2,83.2v-0.7c-0.1-0.4-0.7-1.1-0.5-1.5c0.3-0.5,0.4-0.9,0.7-1.4
			c0.3,0.5,0.5,0.9,0.7,1.4c0.1,0.4-0.4,1.1-0.5,1.5v0.7H4.2 M4,83.8c0,0.4,0,0.6-0.3,0.7c-0.3,0.1-0.4,0-0.5-0.1
			c-0.1-0.2,0-0.3,0.2-0.3c-0.3,0.3,0.1,0.3,0.1,0.3c0.1-0.1,0.1-0.3,0.1-0.5H4 M4.8,83.8c0,0.4,0,0.6,0.3,0.7
			c0.3,0.1,0.4,0,0.5-0.1c0.1-0.2,0-0.3-0.2-0.3c0.3,0.3-0.1,0.3-0.1,0.3c-0.1-0.1-0.1-0.3-0.1-0.5H4.8"/>
		<path fill="#FFFFFF" d="M20,99.6c0.1-0.1,0.1-0.2,0.1-0.3c0.1,0,0.2,0.1,0.3,0c-0.2-0.1-0.3-0.4-0.3-0.7h-0.3
			c0,0.2-0.1,0.5-0.3,0.7c0.1,0.1,0.2,0,0.3,0C19.9,99.5,19.9,99.6,20,99.6 M19.4,98.3h1.1c0,0,0.1,0,0.1,0.1v0.2c0,0,0,0.1-0.1,0.1
			h-1.1c0,0-0.1,0-0.1-0.1L19.4,98.3C19.4,98.4,19.4,98.3,19.4,98.3 M20.5,98.1c0-0.1,0-0.1,0.1-0.2c0-0.1,0-0.2,0-0.3
			c0,0,0.1,0,0.1,0.1c0.4-0.9,0.7,0.5-0.1,0c0,0.2,0,0.3,0.3,0.3c-0.1,0.1,0.1,0.5,0.3,0.3c-0.1,0-0.2,0-0.2-0.1
			c0-0.1,0.2-0.1,0.3-0.2c0.4-0.4,0.2-0.9-0.3-0.9c-0.3,0.1-0.6,0.4-0.7,0.9c0,0.1,0,0.1,0,0.3h0.2C20.5,98.2,20.5,98.2,20.5,98.1
			 M19.5,98.2c0-0.1-0.1-0.1-0.1-0.2c0-0.1,0-0.2,0-0.3c0,0-0.1,0-0.1,0.1c-0.4-0.9-0.7,0.5,0.1,0c0,0.2,0,0.3-0.3,0.3
			c0.1,0.1-0.1,0.5-0.3,0.3c0.1,0,0.2,0,0.2-0.1c0-0.1-0.2-0.1-0.3-0.2c-0.4-0.4-0.2-0.9,0.3-0.9c0.3,0.1,0.6,0.4,0.7,0.9
			c0,0.1,0,0.1,0,0.2h-0.2C19.5,98.2,19.5,98.2,19.5,98.2 M19.8,98.3v-0.4c0-0.3-0.4-0.8-0.3-1c0.2-0.3,0.3-0.6,0.5-0.9
			c0.2,0.3,0.3,0.6,0.5,0.9c0.1,0.3-0.3,0.8-0.3,1v0.5L19.8,98.3 M19.7,98.7c0,0.3,0,0.4-0.2,0.5c-0.2,0.1-0.3,0-0.4-0.1
			c-0.1-0.1,0-0.2,0.1-0.2c-0.2,0.2,0,0.2,0.1,0.2c0.1-0.1,0.1-0.2,0.1-0.4H19.7 M20.2,98.7c0,0.3,0,0.4,0.2,0.5
			c0.2,0.1,0.3,0,0.4-0.1c0.1-0.1,0-0.2-0.1-0.2c0.2,0.2,0,0.2-0.1,0.2c-0.1-0.1-0.1-0.2-0.1-0.4H20.2"/>
		<path fill="#FFFFFF" d="M27.2,80.3L27.2,80.3l1.1-5.3l0.7-7.1c0.1-0.5,0.8-5.5,0.8-5.5h-3.9l-0.8,5.2h-2.5v-5.2h-2.5v-2.3
			c0.7,0.4,1.6-0.4,2.4-1.3c0.8-0.9,1.8,0,2.8,1c0-0.9,0-1.9,0-2.8c-0.9-1.1-2-1.9-2.8-1c-0.9,1.1-2,1.9-2.8,1c0,0.1,0,0.2,0,0.4
			v2.4v2.6h-2.4v5.2h-2.5l-0.8-5.2h-3.9c0,0,0.7,5,0.8,5.5h0l0.7,7l1,5.5h0L11.6,86l-0.8,6.5H29L28.2,86L27.2,80.3z"/>
		<path fill="#E21616" d="M20.5,59.6c0,0-0.1,0-0.1,0v-1.5c0,0,0.1,0,0.1,0c0.8,0,1.5-0.5,2.5-1.6c0.1-0.1,0.2-0.1,0.3-0.1
			c0.2,0,0.7,0.2,1.4,1v1.1c-0.4-0.3-0.9-0.6-1.4-0.6c-0.4,0-0.9,0.2-1.2,0.6C21.1,59.5,20.7,59.6,20.5,59.6z"/>
		<g>
			<g>
				<path d="M12.1,75.4c0.1,0.5,1,4.9,1,4.9h4.2c0.7-0.9,1.6-1.4,2.6-1.4c1.1,0,2,0.5,2.6,1.4h4.2c0,0,0.9-4.3,1-4.9H12.1z"/>
				<path d="M12.1,74.6h7.5v-6.2h-8.1C11.5,68.8,12,74.1,12.1,74.6z"/>
				<path d="M27.7,85.9c-0.1-1.3-0.7-3.9-0.9-5.1h-3.9c0.3,0.6,0.5,1.3,0.5,2.2v2.9H27.7z"/>
				<rect x="17.8" y="62.9" width="4.3" height="4.7"/>
				<path d="M12.1,85.9h4.3v-2.9c0-0.8,0.2-1.5,0.5-2.2H13C12.8,81.9,12.3,84.5,12.1,85.9z"/>
				<path d="M28.5,68.4h-8.1v6.2h7.5C27.9,74.1,28.4,68.8,28.5,68.4z"/>
				<path d="M23.4,86.5v5.1h-7v-5.1H12c-0.1-0.2-0.6,5.3-0.6,5.5h17.1c0-0.3-0.6-5.7-0.6-5.5H23.4z"/>
				<path d="M26.3,62.9c-0.1,0.7-0.7,4.2-0.7,4.7h3c0-0.2,0.6-3.6,0.7-4.7H26.3z"/>
				<path d="M14.4,67.7c-0.1-0.5-0.7-4-0.8-4.7h-3c0.1,1.1,0.7,4.5,0.7,4.7H14.4z"/>
			</g>
			<path d="M16.7,82.9c0,0,0,8.2,0,8.4c0.2,0,6.2,0,6.4,0c0-0.2,0-8.4,0-8.4c0-2.1-1.4-3.8-3.2-3.8C18.2,79.1,16.7,80.8,16.7,82.9z"
				/>
		</g>
		<path fill="#FFFFFF" d="M34.9,85.1C35,85,35,84.9,35,84.7c0.1,0.1,0.3,0.2,0.4,0c-0.3-0.2-0.4-0.6-0.4-0.9h-0.4
			c0,0.3-0.1,0.8-0.4,0.9c0.1,0.1,0.3,0,0.4,0C34.7,84.9,34.7,85,34.9,85.1 M34.1,83.2h1.6c0,0,0.1,0,0.1,0.1v0.3
			c0,0.1,0,0.1-0.1,0.1h-1.6c0,0-0.1,0-0.1-0.1L34.1,83.2C34,83.3,34.1,83.2,34.1,83.2 M35.7,82.9c0-0.1,0.1-0.2,0.1-0.3
			c0-0.1,0-0.3,0-0.4c0.1,0,0.1,0.1,0.2,0.1c0.6-1.3,1.1,0.8-0.1,0c0,0.3,0.1,0.4,0.4,0.5c-0.1,0.2,0.1,0.7,0.5,0.4
			c-0.2,0.1-0.3,0-0.3-0.2c0-0.1,0.3-0.2,0.4-0.3c0.5-0.5,0.3-1.3-0.4-1.3c-0.5,0.1-0.9,0.5-1.1,1.3c0,0.1,0,0.2,0,0.4h0.3
			C35.6,83.1,35.7,83,35.7,82.9 M34.2,83c0-0.1-0.1-0.2-0.1-0.3c0-0.1,0.1-0.3,0-0.4c-0.1,0-0.1,0.1-0.1,0.1c-0.7-1.3-1.1,0.8,0.1,0
			c0,0.3-0.1,0.4-0.4,0.5c0.1,0.2-0.1,0.7-0.5,0.4c0.2,0.1,0.3,0,0.3-0.2c0-0.1-0.3-0.2-0.4-0.3c-0.5-0.5-0.3-1.3,0.4-1.3
			c0.5,0.1,0.9,0.5,1,1.4c0,0.1,0,0.2,0.1,0.3h-0.3C34.2,83.1,34.2,83.1,34.2,83 M34.7,83.2v-0.7c-0.1-0.4-0.7-1.1-0.5-1.5
			c0.3-0.5,0.5-0.9,0.7-1.4c0.3,0.5,0.4,0.9,0.7,1.4c0.2,0.4-0.4,1.1-0.5,1.5v0.7H34.7 M34.5,83.8c0,0.4-0.1,0.6-0.3,0.7
			c-0.3,0.1-0.4,0-0.5-0.1c-0.1-0.2,0-0.3,0.2-0.3c-0.3,0.3,0.1,0.3,0.1,0.3c0.1-0.1,0.1-0.3,0.1-0.5H34.5 M35.3,83.8
			c0,0.4,0,0.6,0.3,0.7c0.3,0.1,0.4,0,0.5-0.1c0.1-0.2,0-0.3-0.2-0.3c0.3,0.3-0.1,0.3-0.1,0.3c-0.1-0.1-0.1-0.3-0.1-0.5H35.3"/>
		<path fill="#FFFFFF" d="M0.8,54.2v23.7c0,13.3,5,17.8,19,24l0.1,0.1l0.1-0.1c14-6.2,19-10.8,19-24V54.2L0.8,54.2L0.8,54.2z
			 M38.4,77.8c0,12.9-4.6,17.2-18.5,23.3c0,0,0.1,0,0.1,0.1h-0.3c0.1,0,0.1,0,0.1-0.1C6.2,95,1.5,90.7,1.5,77.8V54.9h36.9L38.4,77.8
			L38.4,77.8z"/>
	</g>
	<g>
		<g>
			<path fill="#E30613" d="M78.4,69.7l-0.4-6.5h1.4c0,0.9,0,1.8,0,2.6c0,0.8,0,1.5,0,2.1c0.2-0.4,0.3-0.9,0.5-1.3
				c0.3-0.7,0.7-1.8,1.4-3.4h1.4c0,1.5,0,2.6,0,3.2c0,0.6,0,1.1,0,1.6l2-4.7H86l-3.1,6.5h-1.3c0-1.2,0-2.1,0-2.8c0-0.7,0-1.5,0-2.3
				c-0.1,0.4-0.3,0.8-0.4,1.1c-0.1,0.3-0.3,0.8-0.5,1.4c-0.3,0.6-0.6,1.5-1.1,2.6L78.4,69.7L78.4,69.7z"/>
			<path fill="#E30613" d="M87.8,69.7l-0.4-6.5h1.4c0,0.9,0,1.8,0,2.6c0,0.8,0,1.5,0,2.1c0.2-0.4,0.3-0.9,0.5-1.3
				c0.3-0.7,0.7-1.8,1.4-3.4h1.4c0,1.5,0,2.6,0,3.2c0,0.6,0,1.1,0,1.6l2-4.7h1.3l-3.1,6.5H91c0-1.2,0-2.1,0-2.8c0-0.7,0-1.5,0-2.3
				c-0.1,0.4-0.3,0.8-0.4,1.1c-0.1,0.3-0.3,0.8-0.5,1.4c-0.3,0.6-0.6,1.5-1.1,2.6L87.8,69.7L87.8,69.7z"/>
			<path fill="#E30613" d="M97.3,69.7l-0.4-6.5h1.4c0,0.9,0,1.8,0,2.6c0,0.8,0,1.5,0,2.1c0.2-0.4,0.3-0.9,0.5-1.3
				c0.3-0.7,0.7-1.8,1.4-3.4h1.4c0,1.5,0,2.6,0,3.2c0,0.6,0,1.1,0,1.6l2-4.7h1.3l-3.1,6.5h-1.3c0-1.2,0-2.1,0-2.8c0-0.7,0-1.5,0-2.3
				c-0.1,0.4-0.3,0.8-0.4,1.1c-0.1,0.3-0.3,0.8-0.5,1.4c-0.3,0.6-0.6,1.5-1.1,2.6L97.3,69.7L97.3,69.7z"/>
			<path fill="#E30613" d="M107,68.4l-0.3,1.3h-1.3l0.3-1.3H107z"/>
			<path fill="#E30613" d="M110.7,68.3l-0.7,1.3h-1.4l3.6-6.5h1.5l0.9,6.5h-1.4l-0.1-1.3H110.7z M111.3,67.2h1.6l-0.3-2.6
				L111.3,67.2z"/>
			<path fill="#E30613" d="M116.6,69.7l1.3-6.5h3.1c0.6,0,1,0.1,1.3,0.4c0.2,0.2,0.3,0.5,0.3,0.9c0,0.1,0,0.2,0,0.2s0,0.1,0,0.1
				c-0.1,0.4-0.3,0.7-0.5,0.9c-0.1,0.1-0.3,0.3-0.5,0.4c0.3,0.1,0.4,0.3,0.5,0.4c0.1,0.2,0.2,0.4,0.2,0.7c0,0.1,0,0.3,0,0.5
				c-0.1,0.5-0.4,1-0.8,1.3c-0.3,0.2-0.5,0.4-0.7,0.4c-0.3,0.1-0.8,0.1-1.4,0.1H116.6z M118.5,66.8l-0.4,1.8h1.6
				c0.3,0,0.6-0.1,0.8-0.2c0.2-0.1,0.4-0.4,0.4-0.7c0-0.1,0-0.1,0-0.2c0-0.2-0.1-0.4-0.2-0.4c-0.1-0.1-0.4-0.1-0.6-0.1L118.5,66.8
				L118.5,66.8z M119,64.3l-0.3,1.4h1.6c0.3,0,0.5,0,0.7-0.1c0.2-0.1,0.3-0.3,0.4-0.5c0,0,0-0.1,0-0.1c0,0,0-0.1,0-0.1
				c0-0.2-0.1-0.3-0.2-0.4c-0.1-0.1-0.4-0.1-0.6-0.1L119,64.3L119,64.3z"/>
			<path fill="#E30613" d="M125.4,69.7l-0.4-6.5h1.4c0,0.9,0,1.8,0,2.6c0,0.8,0,1.5,0,2.1c0.2-0.4,0.3-0.9,0.5-1.3
				c0.3-0.7,0.7-1.8,1.4-3.4h1.4c0,1.5,0,2.6,0,3.2c0,0.6,0,1.1,0,1.6l2-4.7h1.3l-3.1,6.5h-1.3c0-1.2,0-2.1,0-2.8c0-0.7,0-1.5,0-2.3
				c-0.1,0.4-0.3,0.8-0.4,1.1c-0.1,0.3-0.3,0.8-0.5,1.4c-0.3,0.6-0.6,1.5-1.1,2.6L125.4,69.7L125.4,69.7z"/>
			<path fill="#E30613" d="M139.7,63.2l-0.3,1.2H136l-0.3,1.3h3.1l-0.3,1.2h-3.1l-0.4,1.7h3.5l-0.3,1.2h-4.8l1.3-6.5L139.7,63.2
				L139.7,63.2z"/>
			<path fill="#E30613" d="M145,66.7h-2.5l-0.6,2.9h-1.3l1.3-6.5h1.3l-0.5,2.4h2.5l0.5-2.4h1.3l-1.3,6.5h-1.3L145,66.7z"/>
			<path fill="#E30613" d="M148.2,69.7l1.3-6.5h3.2c0.6,0,1.1,0.1,1.3,0.5c0.2,0.3,0.3,0.6,0.3,0.9c0,0.1,0,0.3,0,0.4
				c-0.1,0.4-0.2,0.7-0.4,0.9c-0.2,0.3-0.5,0.5-0.8,0.6c0.2,0.1,0.3,0.2,0.4,0.3c0.1,0.1,0.1,0.3,0.1,0.5c0,0.2,0,0.4-0.1,0.7
				c-0.1,0.3-0.1,0.5-0.1,0.7c0,0.1,0,0.3,0,0.4c0,0.1,0.1,0.3,0.2,0.3l0,0.2h-1.5c0,0,0-0.1,0-0.3c0-0.1,0-0.3,0-0.4
				c0-0.1,0.1-0.4,0.1-0.6c0-0.1,0-0.2,0.1-0.3c0-0.1,0-0.3,0-0.4c0-0.2-0.1-0.4-0.2-0.4c-0.1-0.1-0.4-0.1-0.7-0.1H150l-0.5,2.6
				L148.2,69.7L148.2,69.7z M150.3,66h1.6c0.4,0,0.6-0.1,0.8-0.2c0.2-0.1,0.3-0.4,0.4-0.7c0-0.1,0-0.1,0-0.2c0-0.2,0-0.3-0.1-0.4
				c-0.1-0.1-0.3-0.2-0.6-0.2h-1.6L150.3,66z"/>
			<path fill="#E30613" d="M157.2,68.4l-0.3,1.3h-1.3l0.3-1.3H157.2z"/>
			<path fill="#E30613" d="M165.6,65.3h-1.3c0-0.3-0.1-0.5-0.2-0.7c-0.2-0.3-0.5-0.4-1-0.4c-0.4,0-0.8,0.1-1.1,0.4
				c-0.4,0.4-0.8,1-0.9,1.8c-0.1,0.3-0.1,0.5-0.1,0.8c0,0.4,0.1,0.8,0.3,1c0.2,0.3,0.5,0.4,0.9,0.4c0.4,0,0.7-0.1,1-0.3
				c0.3-0.2,0.5-0.5,0.7-0.9h1.3c-0.3,0.7-0.7,1.3-1.2,1.7c-0.6,0.4-1.2,0.7-2,0.7c-0.7,0-1.3-0.2-1.7-0.6c-0.4-0.4-0.6-1-0.6-1.8
				c0-0.3,0-0.7,0.1-1.1c0.2-1.1,0.7-2,1.4-2.6c0.7-0.6,1.4-0.9,2.3-0.9c0.8,0,1.4,0.2,1.8,0.7c0.3,0.4,0.5,0.8,0.5,1.3
				c0,0,0,0.1,0,0.1C165.6,65.2,165.6,65.3,165.6,65.3z"/>
			<path fill="#E30613" d="M167.2,66.4c0.2-0.9,0.5-1.7,1.1-2.3c0.4-0.4,0.9-0.8,1.5-1c0.4-0.1,0.8-0.2,1.2-0.2
				c0.6,0,1.1,0.1,1.5,0.4c0.6,0.4,0.9,1.1,0.9,2c0,0.3,0,0.7-0.1,1c-0.2,0.9-0.5,1.7-1.1,2.3c-0.4,0.4-0.9,0.8-1.5,1
				c-0.4,0.1-0.8,0.2-1.2,0.2c-0.6,0-1.1-0.1-1.5-0.4c-0.6-0.4-0.9-1.1-0.9-2C167.1,67.1,167.1,66.8,167.2,66.4z M168.5,66.4
				c-0.1,0.3-0.1,0.5-0.1,0.8c0,0.5,0.1,0.9,0.4,1.2c0.2,0.2,0.5,0.3,0.9,0.3c0.4,0,0.8-0.1,1.2-0.4c0.5-0.4,0.8-1,1-1.8
				c0.1-0.3,0.1-0.5,0.1-0.8c0-0.5-0.1-0.9-0.4-1.2c-0.2-0.2-0.5-0.3-0.9-0.3c-0.4,0-0.8,0.1-1.2,0.4C169,65,168.7,65.6,168.5,66.4z
				"/>
			<path fill="#E30613" d="M182.3,63.2l-1.3,6.5h-1.2l1.1-5.4l-2.3,5.4h-1.3l0-5.4l-1.1,5.4h-1.2l1.3-6.5h1.9l0.1,5.1l2.2-5.1H182.3
				z"/>
			<path fill="#E30613" d="M184.8,68.4l-0.3,1.3h-1.3l0.3-1.3H184.8z"/>
			<path fill="#E30613" d="M193.4,63.2l-0.9,4.2c-0.2,0.8-0.5,1.5-1.1,1.9c-0.5,0.4-1.2,0.6-2,0.6c-0.4,0-0.7,0-1-0.1
				c-0.4-0.1-0.7-0.4-0.9-0.7c-0.1-0.3-0.2-0.5-0.2-0.9c0-0.2,0-0.4,0.1-0.7l0.9-4.3h1.3l-0.9,4.2c0,0.1,0,0.1,0,0.2
				c0,0.1,0,0.1,0,0.2c0,0.3,0.1,0.5,0.3,0.7c0.2,0.1,0.4,0.2,0.7,0.2c0.4,0,0.8-0.1,1-0.3c0.2-0.2,0.4-0.5,0.5-0.9l0.9-4.3
				L193.4,63.2L193.4,63.2z"/>
			<path fill="#E30613" d="M196.1,68.3l-0.7,1.3H194l3.6-6.5h1.5l0.9,6.5h-1.4l-0.1-1.3H196.1z M196.7,67.2h1.6l-0.3-2.6L196.7,67.2
				z"/>
		</g>
	</g>
	<g>
		<polygon points="101.8,104.3 100,83.1 93.5,83.1 95.8,113.6 		"/>
		<polygon points="128.6,83.3 121.5,83.3 116.4,90.2 123.6,90.2 		"/>
		<polygon points="120.5,94.6 113.3,94.6 111.9,96.5 110.8,83.2 105.1,89.9 106.9,113.6 		"/>
		<path d="M151.7,113.6l3.3-10.9h8.1l-3.3,10.9h7.4l6.9-23.3c14.7,0,15.4,0,15.8,0c1.8,0,0.9,4.4-0.9,4.3H176l-5.8,19h6.6l3.6-12
			h3.5c0.8,0,1.5,0.6,2,1.9c0.6,1.4,0.5,3.3-0.2,5.6l-1.2,4.5h6.9l1.2-4.3c1.3-4.2,1.1-7.5-0.4-10.1c2.3-0.8,3.9-3,4.9-6.3
			c0.7-2.5,0.7-4.7,0-6.5c-0.9-2.1-2.7-3.2-5.3-3.2h-23.1l-3.4,11.4h-8.1l3.4-11.4h-7l-7,23.6h-15.6l1.6-5.4h10.7l2.2-6.8h-10.7
			l1.2-4.4h10.7l2-6.9h-17.7l-9.1,30.3L151.7,113.6L151.7,113.6z"/>
		<polygon points="43.3,108.5 53.5,108.5 53.7,113.7 60.8,113.7 58.7,70.2 51.4,70.2 53.2,103 46.8,103 52.1,94.7 44.9,94.7 
			32.7,113.7 39.9,113.7 		"/>
		<path d="M86.5,104.1c0.7-2.2,0.6-4.1-0.2-5.8c1.8-1.8,3-3.8,3.6-6.1c0.7-2.4,0.6-4.5-0.3-6.3c-1.1-1.7-2.9-2.6-5.4-2.7H71.5l-2,7
			h12.7c0.8,0,1,1.1,0.7,2.2c-0.4,1.4-1.1,2.2-2,2.2H68l-5.7,19.1H75C83.1,113.7,85.8,106.5,86.5,104.1z M70.7,107.1l2.2-7.4h5.5
			c0.9,0,2.3,0.8,1.1,3.8c-0.9,2.1-1.9,3.3-4.7,3.5L70.7,107.1L70.7,107.1z"/>
	</g>
	<path d="M149.3,146.5v-8.4h5.6v2.3h-2.5v0.9h2.2v1.9h-2.2v1h2.5v2.3L149.3,146.5L149.3,146.5z M143.7,146.5v-3.1h-1.9v3.1h-3.1
		v-8.4h3.1v3h1.9v-3h3.1v8.4H143.7z M133.2,146.5V142l-2.5,4.4h-2.8v-8.4h3v4.2l0.2,0l2.3-4.2h2.8v8.4H133.2z M123,146.5l-0.3-1.2
		h-2.3l-0.3,1.2h-3.2l2.9-8.4h3.5l2.9,8.4H123z M120.8,143.3h1.4l-0.7-2.7L120.8,143.3z M108.1,146.5v-8.4h4.2
		c1.1,0,1.9,0.3,2.4,0.8c0.5,0.5,0.8,1.2,0.8,2c0,0.8-0.3,1.6-0.8,2.1c-0.5,0.5-1.3,0.8-2.4,0.8h-1.1v2.7L108.1,146.5L108.1,146.5z
		 M111.3,141.8h0.5c0.3,0,0.5-0.1,0.6-0.2c0.1-0.1,0.2-0.4,0.2-0.6c0-0.3-0.1-0.5-0.2-0.6c-0.1-0.1-0.4-0.2-0.7-0.2h-0.5V141.8z
		 M102.8,146.5l-1.7-3.2l-0.2,0v3.2h-3.1v-8.4h3.1v3.4l2-3.4h3.4l-2.7,4l2.8,4.4L102.8,146.5L102.8,146.5z M89.3,146.5l1.1-2.3
		l-3.5-6.1h3.6l1.2,2.8l1-2.8h3.2l-3.5,8.4L89.3,146.5L89.3,146.5z M70.8,146.5v-8.4h4.6c0.8,0,1.5,0.2,1.9,0.6
		c0.4,0.4,0.7,0.9,0.7,1.5c0,0.4-0.1,0.7-0.4,1.1c-0.3,0.3-0.6,0.5-1,0.7l-0.1,0v0.1l0.1,0c0.5,0.1,0.9,0.3,1.3,0.7
		c0.3,0.4,0.5,0.8,0.5,1.4c0,0.7-0.2,1.2-0.7,1.6s-1.1,0.7-2,0.7L70.8,146.5L70.8,146.5z M73.9,144.6h0.5c0.3,0,0.5-0.1,0.6-0.2
		c0.1-0.1,0.3-0.3,0.3-0.6c0-0.3-0.1-0.4-0.3-0.5c-0.1-0.1-0.4-0.2-0.7-0.2h-0.5L73.9,144.6L73.9,144.6z M73.9,141.4h0.5
		c0.2,0,0.4-0.1,0.5-0.2c0.1-0.1,0.2-0.3,0.2-0.5c0-0.2-0.1-0.4-0.2-0.5c-0.1-0.1-0.4-0.2-0.6-0.2h-0.4V141.4z M119.4,133.4v-1.7
		h-4.5v1.7h-2.6v-4c0.5-0.1,1-0.3,1.2-0.8c0.3-0.5,0.4-1.2,0.4-2.1v-3.2h7.1v6.1h1v4H119.4z M116.7,126.9c0,0.6-0.1,1.1-0.2,1.5
		c-0.1,0.4-0.3,0.7-0.5,0.9l-0.2,0.2h2.2v-3.8h-1.2L116.7,126.9L116.7,126.9z M69.3,133.4v-1.7h-4.5v1.7h-2.6v-4
		c0.5-0.1,1-0.3,1.2-0.8c0.3-0.5,0.4-1.2,0.4-2.1v-3.2h7.1v6.1h1v4H69.3z M66.6,126.9c0,0.6-0.1,1.1-0.2,1.5
		c-0.1,0.4-0.3,0.7-0.5,0.9l-0.2,0.2h2.2v-3.8h-1.2L66.6,126.9L66.6,126.9z M56.1,132c-1.3,0-2.5-0.4-3.4-1.2
		c-0.9-0.8-1.3-1.9-1.3-3.2s0.4-2.5,1.3-3.2c0.9-0.8,2-1.2,3.4-1.2c1.3,0,2.5,0.4,3.4,1.2s1.3,1.9,1.3,3.2c0,1.4-0.4,2.5-1.3,3.2
		C58.6,131.6,57.4,132,56.1,132z M56.1,125.6c-0.5,0-0.9,0.2-1.2,0.5c-0.3,0.3-0.5,0.8-0.5,1.4c0,0.6,0.2,1.1,0.5,1.4
		c0.3,0.3,0.8,0.5,1.2,0.5c0.5,0,0.9-0.2,1.2-0.5c0.3-0.3,0.5-0.8,0.5-1.4c0-0.6-0.2-1.1-0.5-1.4C57,125.8,56.6,125.6,56.1,125.6z
		 M188.2,131.7v-8h-1.6v-2.8h5v10.8L188.2,131.7L188.2,131.7z M177.5,131.7v-2h4.7v2H177.5z M172.2,131.7l-3.2-5.8v5.8h-3.5v-10.8
		h3.8l3.2,5.7v-5.7h3.5v10.8H172.2z M156.2,131.7v-4.4l-2.5,4.4h-2.8v-8.4h3v4.2l0.2,0l2.3-4.2h2.8v8.4H156.2z M141.4,131.7v-8.4
		h4.2c1.1,0,1.9,0.3,2.4,0.8c0.5,0.5,0.8,1.2,0.8,2s-0.3,1.6-0.8,2.1c-0.5,0.5-1.3,0.8-2.4,0.8h-1.1v2.7L141.4,131.7L141.4,131.7z
		 M144.5,127h0.5c0.3,0,0.5-0.1,0.6-0.2c0.1-0.1,0.2-0.4,0.2-0.6c0-0.3-0.1-0.5-0.2-0.6c-0.1-0.1-0.4-0.2-0.7-0.2h-0.5L144.5,127
		L144.5,127z M133.5,131.7v-8.4h5.6v2.3h-2.5v0.9h2.2v1.9h-2.2v1h2.5v2.3L133.5,131.7L133.5,131.7z M123.9,131.7v-8.4h4.6
		c0.8,0,1.5,0.2,1.9,0.6c0.4,0.4,0.7,0.9,0.7,1.5c0,0.4-0.1,0.7-0.4,1.1c-0.3,0.3-0.6,0.5-1,0.7l-0.1,0v0.1l0.1,0
		c0.5,0.1,0.9,0.3,1.3,0.7c0.3,0.4,0.5,0.8,0.5,1.4c0,0.7-0.2,1.2-0.7,1.6c-0.4,0.4-1.1,0.7-2,0.7L123.9,131.7L123.9,131.7z
		 M127,129.9h0.5c0.3,0,0.5-0.1,0.6-0.2c0.1-0.1,0.3-0.3,0.3-0.6c0-0.3-0.1-0.4-0.3-0.5c-0.1-0.1-0.4-0.2-0.7-0.2H127L127,129.9
		L127,129.9z M127,126.6h0.5c0.2,0,0.4-0.1,0.5-0.2c0.1-0.1,0.2-0.3,0.2-0.5c0-0.2-0.1-0.4-0.2-0.5c-0.1-0.1-0.4-0.2-0.6-0.2H127
		V126.6z M98,131.7v-8.4h5.6v2.3h-2.5v0.9h2.2v1.9h-2.2v1h2.5v2.3L98,131.7L98,131.7z M92.4,131.7v-8.4h3.1v8.4H92.4z M84.4,131.7
		v-8.4h3.1v3.2h1c1.1,0,1.9,0.3,2.4,0.7c0.5,0.5,0.8,1.1,0.8,1.9c0,0.8-0.3,1.5-0.8,1.9c-0.5,0.5-1.3,0.7-2.4,0.7L84.4,131.7
		L84.4,131.7z M87.5,129.9h0.5c0.3,0,0.5-0.1,0.6-0.2c0.1-0.1,0.2-0.3,0.2-0.6c0-0.2-0.1-0.4-0.2-0.5c-0.1-0.1-0.4-0.2-0.7-0.2h-0.5
		L87.5,129.9L87.5,129.9z M78.8,131.7v-3.1h-1.9v3.1h-3.1v-8.4h3.1v3h1.9v-3h3.1v8.4H78.8z M46.5,131.7l-1.1-2.3l-1.2,2.3h-3.4
		l2.9-4.4l-2.6-4h3.5l0.8,1.8l0.8-1.8h3.4l-2.4,3.9l2.9,4.6L46.5,131.7L46.5,131.7z M31.9,131.7v-8.4h4.6c0.8,0,1.5,0.2,1.9,0.6
		c0.4,0.4,0.7,0.9,0.7,1.5c0,0.4-0.1,0.7-0.4,1.1c-0.3,0.3-0.6,0.5-1,0.7l-0.1,0v0.1l0.1,0c0.5,0.1,0.9,0.3,1.3,0.7
		c0.3,0.4,0.5,0.8,0.5,1.4c0,0.7-0.2,1.2-0.7,1.6s-1.1,0.7-2,0.7L31.9,131.7L31.9,131.7z M35,129.9h0.5c0.3,0,0.5-0.1,0.6-0.2
		c0.1-0.1,0.3-0.3,0.3-0.6c0-0.3-0.1-0.4-0.3-0.5c-0.1-0.1-0.4-0.2-0.7-0.2h-0.5L35,129.9L35,129.9z M35,126.6h0.5
		c0.2,0,0.4-0.1,0.5-0.2c0.1-0.1,0.2-0.3,0.2-0.5c0-0.2-0.1-0.4-0.2-0.5c-0.1-0.1-0.4-0.2-0.6-0.2H35V126.6z M179.7,128.7
		c-0.8,0-1.5-0.3-2-0.8c-0.5-0.5-0.8-1.3-0.8-2.2c0-0.8,0.3-1.6,0.8-2.2c0.5-0.5,1.2-0.8,2.1-0.8c0.9,0,1.6,0.3,2.1,0.8
		c0.5,0.6,0.8,1.3,0.8,2.2c0,0.9-0.3,1.6-0.8,2.2C181.3,128.4,180.6,128.7,179.7,128.7L179.7,128.7z M179.8,124.5
		c-0.3,0-0.5,0.1-0.7,0.4c-0.2,0.2-0.3,0.5-0.3,0.9c0,0.4,0.1,0.7,0.3,0.9c0.2,0.2,0.4,0.3,0.7,0.3s0.5-0.1,0.7-0.3
		c0.2-0.2,0.3-0.5,0.3-0.9c0-0.4-0.1-0.6-0.3-0.9C180.3,124.6,180.1,124.5,179.8,124.5z"/>
</g>
</svg>
