<?xml version="1.0" encoding="utf-8"?>
<!-- Generator: Adobe Illustrator 19.2.1, SVG Export Plug-In . SVG Version: 6.00 Build 0)  -->
<svg version="1.1" id="Layer_1" xmlns="http://www.w3.org/2000/svg" xmlns:xlink="http://www.w3.org/1999/xlink" x="0px" y="0px"
	 viewBox="0 0 200 200" style="enable-background:new 0 0 200 200;" xml:space="preserve">
<style type="text/css">
	.st0{fill:#FFFFFF;}
	.st1{fill:none;}
</style>
<path class="st0" d="M4.9,80.5c0.1-0.1,0.1-0.2,0.1-0.4c0.1,0.1,0.3,0.2,0.4,0.1c-0.3-0.2-0.4-0.6-0.4-1H4.7c0,0.3-0.1,0.8-0.4,1
	c0.1,0.1,0.3,0,0.4-0.1C4.8,80.3,4.8,80.4,4.9,80.5 M4.1,78.6h1.6c0,0,0.1,0,0.1,0.1V79c0,0.1,0,0.1-0.1,0.1H4.1c0,0-0.1,0-0.1-0.1
	L4.1,78.6C4,78.6,4.1,78.6,4.1,78.6 M5.7,78.3c0-0.1,0.1-0.2,0.1-0.3c-0.1-0.1-0.1-0.3,0-0.4c0.1,0,0.1,0.1,0.2,0.1
	c0.6-1.3,1.1,0.8-0.1,0c0,0.3,0.1,0.4,0.4,0.5c-0.1,0.2,0.1,0.8,0.5,0.4c-0.2,0.1-0.3,0-0.3-0.2c0-0.1,0.3-0.2,0.4-0.3
	c0.6-0.5,0.3-1.4-0.4-1.3c-0.5,0.1-0.9,0.5-1,1.4c0,0.1,0,0.2-0.1,0.4h0.3C5.6,78.5,5.7,78.4,5.7,78.3 M4.2,78.4
	C4.1,78.3,4.1,78.2,4,78c0.1-0.1,0.1-0.3,0-0.4c-0.1,0-0.1,0.1-0.2,0.1c-0.6-1.3-1.1,0.8,0.1,0c0,0.3-0.1,0.4-0.4,0.5
	c0.1,0.2-0.1,0.8-0.5,0.4c0.2,0.1,0.3,0,0.3-0.2c0-0.1-0.3-0.2-0.4-0.3c-0.5-0.5-0.3-1.4,0.4-1.3c0.5,0.1,0.9,0.6,1,1.4
	c0,0.1,0,0.2,0.1,0.3H4.2C4.2,78.5,4.2,78.4,4.2,78.4 M4.7,78.5l0-0.7c-0.1-0.4-0.7-1.1-0.5-1.5c0.2-0.5,0.5-0.9,0.7-1.4
	c0.3,0.5,0.5,0.9,0.7,1.4c0.2,0.3-0.4,1.1-0.5,1.5v0.7H4.7 M4.5,79.2c0,0.4-0.1,0.6-0.3,0.7c-0.3,0.1-0.4,0-0.5-0.1
	c-0.1-0.2,0-0.3,0.2-0.3c-0.3,0.3,0.1,0.3,0.1,0.2c0.2-0.1,0.2-0.3,0.2-0.5L4.5,79.2 M5.3,79.2c0,0.4,0.1,0.6,0.3,0.7
	c0.3,0.1,0.4,0,0.5-0.1c0.1-0.2,0-0.3-0.2-0.3c0.3,0.3-0.1,0.3-0.1,0.2c-0.2-0.1-0.2-0.3-0.2-0.5L5.3,79.2"/>
<path class="st0" d="M35.5,80.5c0.1-0.1,0.1-0.2,0.1-0.4c0.1,0.1,0.3,0.2,0.4,0.1c-0.3-0.2-0.4-0.6-0.4-1h-0.4c0,0.3-0.1,0.8-0.4,1
	c0.1,0.1,0.3,0,0.4-0.1C35.3,80.3,35.3,80.4,35.5,80.5 M34.7,78.6h1.6c0.1,0,0.1,0,0.1,0.1V79c0,0.1,0,0.1-0.1,0.1h-1.6
	c-0.1,0-0.1,0-0.1-0.1L34.7,78.6C34.6,78.6,34.6,78.6,34.7,78.6 M36.3,78.3c0-0.1,0.1-0.2,0.1-0.3c-0.1-0.1-0.1-0.3,0-0.4
	c0.1,0,0.1,0.1,0.2,0.1c0.6-1.3,1.1,0.8-0.1,0c0,0.3,0.1,0.4,0.4,0.5c-0.1,0.2,0.1,0.8,0.5,0.4c-0.2,0.1-0.3,0-0.3-0.2
	c0-0.1,0.3-0.2,0.4-0.3c0.6-0.5,0.3-1.4-0.4-1.3c-0.5,0.1-0.9,0.5-1,1.4c0,0.1,0,0.2-0.1,0.4h0.3C36.2,78.5,36.2,78.4,36.3,78.3
	 M34.7,78.4c-0.1-0.1-0.1-0.2-0.2-0.3c0.1-0.1,0.1-0.3,0-0.4c-0.1,0-0.1,0.1-0.2,0.1c-0.6-1.3-1.1,0.8,0.1,0c0,0.3-0.1,0.4-0.4,0.5
	c0.1,0.2-0.1,0.8-0.5,0.4c0.2,0.1,0.3,0,0.3-0.2c0-0.1-0.3-0.2-0.4-0.3c-0.5-0.5-0.3-1.4,0.4-1.3c0.5,0.1,0.9,0.6,1,1.4
	c0,0.1,0,0.2,0.1,0.3h-0.3C34.8,78.5,34.8,78.4,34.7,78.4 M35.3,78.5v-0.7c-0.1-0.4-0.7-1.1-0.5-1.5c0.2-0.5,0.5-0.9,0.7-1.4
	c0.2,0.5,0.5,0.9,0.7,1.4c0.2,0.3-0.4,1.1-0.5,1.5v0.7H35.3 M35.1,79.2c0,0.4-0.1,0.6-0.3,0.7c-0.3,0.1-0.4,0-0.5-0.1
	c-0.1-0.2,0-0.3,0.2-0.3c-0.3,0.3,0.1,0.3,0.1,0.2c0.2-0.1,0.2-0.3,0.2-0.5L35.1,79.2 M35.9,79.2c0,0.4,0.1,0.6,0.3,0.7
	c0.3,0.1,0.4,0,0.5-0.1c0.1-0.2,0-0.3-0.2-0.3c0.3,0.3-0.1,0.3-0.1,0.2c-0.2-0.1-0.2-0.3-0.2-0.5L35.9,79.2"/>
<path class="st0" d="M4.9,101.2c0.1-0.1,0.1-0.2,0.1-0.4c0.1,0.1,0.3,0.2,0.4,0.1c-0.3-0.2-0.4-0.6-0.4-1H4.7c0,0.3-0.1,0.8-0.4,1
	c0.1,0.1,0.3,0,0.4-0.1C4.8,100.9,4.8,101.1,4.9,101.2 M4.1,99.3h1.6c0,0,0.1,0,0.1,0.1v0.3c0,0.1,0,0.1-0.1,0.1H4.1
	c0,0-0.1,0-0.1-0.1L4.1,99.3C4,99.3,4.1,99.3,4.1,99.3 M5.7,99c0-0.1,0.1-0.2,0.1-0.3c-0.1-0.1-0.1-0.3,0-0.4c0.1,0,0.1,0.1,0.2,0.1
	c0.6-1.3,1.1,0.8-0.1,0c0,0.3,0.1,0.4,0.4,0.5c-0.1,0.2,0.1,0.8,0.5,0.4c-0.2,0.1-0.3,0-0.3-0.2c0-0.1,0.3-0.2,0.4-0.3
	c0.6-0.5,0.3-1.4-0.4-1.3c-0.5,0.1-0.9,0.5-1,1.4c0,0.1,0,0.2-0.1,0.4h0.3C5.6,99.1,5.7,99.1,5.7,99 M4.2,99.1
	c-0.1-0.1-0.1-0.2-0.1-0.3c0.1-0.1,0.1-0.3,0-0.4c-0.1,0-0.1,0.1-0.2,0.1c-0.6-1.3-1.1,0.8,0.1,0c0,0.3-0.1,0.4-0.4,0.5
	c0.1,0.2-0.1,0.8-0.5,0.4c0.2,0.1,0.3,0,0.3-0.2c0-0.1-0.3-0.2-0.4-0.3c-0.5-0.5-0.3-1.4,0.4-1.3c0.5,0.1,0.9,0.5,1,1.4
	c0,0.1,0,0.2,0.1,0.3H4.2C4.2,99.2,4.2,99.1,4.2,99.1 M4.7,99.2l0-0.7c-0.1-0.4-0.7-1.2-0.5-1.5c0.2-0.5,0.5-0.9,0.7-1.4
	c0.3,0.5,0.5,0.9,0.7,1.4c0.2,0.3-0.4,1.1-0.5,1.5v0.7H4.7 M4.5,99.9c0,0.4-0.1,0.6-0.3,0.7c-0.3,0.1-0.4,0-0.5-0.1
	c-0.1-0.2,0-0.3,0.2-0.3c-0.3,0.3,0.1,0.3,0.1,0.2c0.2-0.1,0.2-0.3,0.2-0.5H4.5 M5.3,99.9c0,0.4,0.1,0.6,0.3,0.7
	c0.3,0.1,0.4,0,0.5-0.1c0.1-0.2,0-0.3-0.2-0.3c0.3,0.3-0.1,0.3-0.1,0.2c-0.2-0.1-0.2-0.3-0.2-0.5H5.3"/>
<path class="st0" d="M20.5,115.7c0.1-0.1,0.1-0.2,0.1-0.3c0.1,0.1,0.2,0.1,0.3,0c-0.2-0.1-0.3-0.4-0.3-0.7h-0.3
	c0,0.2-0.1,0.5-0.3,0.7c0.1,0.1,0.2,0,0.3,0C20.4,115.6,20.4,115.7,20.5,115.7 M20,114.4h1.1c0,0,0.1,0,0.1,0.1v0.2
	c0,0,0,0.1-0.1,0.1H20c0,0-0.1,0-0.1-0.1L20,114.4C19.9,114.5,19.9,114.4,20,114.4 M21.1,114.2c0-0.1,0.1-0.1,0.1-0.2
	c0-0.1,0-0.2,0-0.3c0,0,0.1,0.1,0.1,0.1c0.4-0.9,0.8,0.5-0.1,0c0,0.2,0.1,0.3,0.3,0.3c-0.1,0.1,0.1,0.5,0.3,0.3
	c-0.1,0-0.2,0-0.2-0.1c0-0.1,0.2-0.1,0.3-0.2c0.4-0.3,0.2-0.9-0.3-0.9c-0.3,0.1-0.6,0.4-0.7,0.9c0,0.1,0,0.2,0,0.2H21
	C21,114.4,21,114.3,21.1,114.2 M20,114.3c0-0.1-0.1-0.1-0.1-0.2c0-0.1,0-0.2,0-0.3c0,0-0.1,0.1-0.1,0.1c-0.4-0.9-0.8,0.5,0.1,0
	c0,0.2-0.1,0.3-0.2,0.3c0.1,0.1-0.1,0.5-0.3,0.3c0.1,0,0.2,0,0.2-0.1c0-0.1-0.2-0.1-0.3-0.2c-0.4-0.3-0.2-0.9,0.3-0.9
	c0.3,0.1,0.6,0.4,0.7,0.9c0,0.1,0,0.1,0,0.2H20C20,114.4,20,114.3,20,114.3 M20.4,114.4v-0.5c0-0.3-0.5-0.8-0.3-1
	c0.2-0.3,0.3-0.6,0.5-1c0.2,0.3,0.3,0.6,0.5,1c0.1,0.2-0.3,0.8-0.3,1v0.5H20.4 M20.2,114.9c0,0.3,0,0.4-0.2,0.5
	c-0.2,0.1-0.3,0-0.3-0.1c-0.1-0.1,0-0.2,0.2-0.2c-0.2,0.2,0,0.2,0.1,0.2c0.1-0.1,0.1-0.2,0.1-0.3L20.2,114.9 M20.8,114.9
	c0,0.3,0.1,0.4,0.2,0.5c0.2,0.1,0.3,0,0.3-0.1c0.1-0.1,0-0.2-0.2-0.2c0.2,0.2,0,0.2-0.1,0.2c-0.1-0.1-0.1-0.2-0.1-0.3L20.8,114.9"/>
<g>
	<path class="st0" d="M27.7,96.4L27.7,96.4l1.1-5.3l0.7-7.1c0.1-0.5,0.8-5.5,0.8-5.5h-3.9l-0.8,5.2h-2.5v-5.2h-2.5v-2.3
		c0.7,0.4,1.7-0.4,2.5-1.3c0.8-0.9,1.8,0,2.8,1c0-0.9,0-1.9,0-2.8c-1-1.1-2-1.9-2.8-1c-1,1.1-2,1.9-2.8,1c0,0.1,0,0.2,0,0.3v2.5v2.6
		h-2.4v5.2h-2.5l-0.8-5.2h-3.9c0,0,0.8,5,0.8,5.5h0l0.7,7l1,5.5h0l-1.1,5.6l-0.8,6.6h18.2l-0.8-6.6L27.7,96.4z M28.3,101.9H24V99
		c0-0.8-0.2-1.5-0.5-2.1h3.9C27.6,97.9,28.2,100.6,28.3,101.9z M23.6,99c0,0,0,8.2,0,8.4c-0.2,0-6.2,0-6.4,0c0-0.2,0-8.4,0-8.4
		c0-2.1,1.4-3.9,3.2-3.8C22.2,95.1,23.6,96.9,23.6,99z M26.8,78.9h3c-0.1,1.1-0.7,4.5-0.7,4.8h-3C26.2,83.1,26.8,79.6,26.8,78.9z
		 M29,84.4c0,0.4-0.5,5.7-0.6,6.3h-7.5v-6.3H29z M18.3,78.9h4.3v4.8h-4.3V78.9z M11.2,78.9h3c0.1,0.7,0.7,4.2,0.8,4.8h-3
		C11.9,83.4,11.3,80,11.2,78.9z M12,84.4h8.1v6.3h-7.6C12.5,90.1,12,84.8,12,84.4z M12.6,91.4h15.6c-0.1,0.6-1,4.9-1,4.9h-4.2
		c-0.6-0.9-1.6-1.4-2.6-1.4c-1,0-2,0.6-2.6,1.4h-4.2C13.6,96.2,12.7,91.9,12.6,91.4z M13.5,96.8h3.9c-0.3,0.6-0.5,1.4-0.5,2.1v2.9
		h-4.3C12.7,100.6,13.3,97.9,13.5,96.8z M11.8,108.1c0-0.3,0.6-5.7,0.6-5.5h4.5v5.1h7v-5.1h4.5c0.1-0.2,0.6,5.3,0.6,5.5H11.8z"/>
	<path class="st1" d="M17.8,96.2c0.6-0.9,1.6-1.4,2.6-1.4c1.1,0,2,0.6,2.6,1.4h4.2c0,0,0.9-4.3,1-4.9H12.6c0.1,0.6,1,4.9,1,4.9H17.8
		z"/>
	<path class="st1" d="M20.2,84.4H12c0,0.4,0.5,5.7,0.6,6.3h7.6V84.4z"/>
	<path class="st1" d="M23.5,96.8c0.3,0.6,0.5,1.4,0.5,2.1v2.9h4.3c-0.1-1.3-0.7-4-0.9-5.1H23.5z"/>
	<rect x="18.3" y="78.9" class="st1" width="4.3" height="4.8"/>
	<path class="st1" d="M16.9,99c0-0.8,0.2-1.5,0.5-2.1h-3.9c-0.3,1.1-0.8,3.7-0.9,5.1h4.3V99z"/>
	<path class="st1" d="M20.9,90.7h7.5c0.1-0.6,0.6-5.8,0.6-6.3h-8.1V90.7z"/>
	<path class="st1" d="M28.4,102.6H24v5.1h-7v-5.1h-4.5c-0.1-0.2-0.6,5.3-0.6,5.5h17.2C29,107.9,28.5,102.4,28.4,102.6z"/>
	<path class="st1" d="M29.8,78.9h-3c-0.1,0.7-0.7,4.2-0.7,4.8h3C29.1,83.4,29.7,80,29.8,78.9z"/>
	<path class="st1" d="M14.2,78.9h-3c0.1,1.1,0.7,4.5,0.7,4.8h3C14.9,83.1,14.3,79.6,14.2,78.9z"/>
	<path class="st1" d="M20.4,95.1c-1.8,0-3.2,1.7-3.2,3.8c0,0,0,8.2,0,8.4c0.2,0,6.2,0,6.4,0c0-0.2,0-8.4,0-8.4
		C23.6,96.9,22.2,95.1,20.4,95.1z"/>
</g>
<path class="st0" d="M35.5,101.2c0.1-0.1,0.1-0.2,0.1-0.4c0.1,0.1,0.3,0.2,0.4,0.1c-0.3-0.2-0.4-0.6-0.4-1h-0.4c0,0.3-0.1,0.8-0.4,1
	c0.1,0.1,0.3,0,0.4-0.1C35.3,100.9,35.3,101.1,35.5,101.2 M34.7,99.3h1.6c0.1,0,0.1,0,0.1,0.1v0.3c0,0.1,0,0.1-0.1,0.1h-1.6
	c-0.1,0-0.1,0-0.1-0.1L34.7,99.3C34.6,99.3,34.6,99.3,34.7,99.3 M36.3,99c0-0.1,0.1-0.2,0.1-0.3c-0.1-0.1-0.1-0.3,0-0.4
	c0.1,0,0.1,0.1,0.2,0.1c0.6-1.3,1.1,0.8-0.1,0c0,0.3,0.1,0.4,0.4,0.5c-0.1,0.2,0.1,0.8,0.5,0.4c-0.2,0.1-0.3,0-0.3-0.2
	c0-0.1,0.3-0.2,0.4-0.3c0.6-0.5,0.3-1.4-0.4-1.3c-0.5,0.1-0.9,0.5-1,1.4c0,0.1,0,0.2-0.1,0.4h0.3C36.2,99.1,36.2,99.1,36.3,99
	 M34.7,99.1c-0.1-0.1-0.1-0.2-0.2-0.3c0.1-0.1,0.1-0.3,0-0.4c-0.1,0-0.1,0.1-0.2,0.1c-0.6-1.3-1.1,0.8,0.1,0c0,0.3-0.1,0.4-0.4,0.5
	c0.1,0.2-0.1,0.8-0.5,0.4c0.2,0.1,0.3,0,0.3-0.2c0-0.1-0.3-0.2-0.4-0.3c-0.6-0.5-0.3-1.4,0.4-1.3c0.5,0.1,0.9,0.5,1,1.4
	c0,0.1,0,0.2,0.1,0.3h-0.3C34.8,99.2,34.8,99.1,34.7,99.1 M35.3,99.2v-0.7c-0.1-0.4-0.7-1.2-0.5-1.5c0.2-0.5,0.5-0.9,0.7-1.4
	c0.2,0.5,0.5,0.9,0.7,1.4c0.2,0.3-0.4,1.1-0.5,1.5v0.7H35.3 M35.1,99.9c0,0.4-0.1,0.6-0.3,0.7c-0.3,0.1-0.4,0-0.5-0.1
	c-0.1-0.2,0-0.3,0.2-0.3c-0.3,0.3,0.1,0.3,0.1,0.2c0.2-0.1,0.2-0.3,0.2-0.5H35.1 M35.9,99.9c0,0.4,0.1,0.6,0.3,0.7
	c0.3,0.1,0.4,0,0.5-0.1c0.1-0.2,0-0.3-0.2-0.3c0.3,0.3-0.1,0.3-0.1,0.2c-0.2-0.1-0.2-0.3-0.2-0.5H35.9"/>
<path class="st0" d="M1.3,70.1v23.7c0,13.3,5,17.9,19.1,24.1l0.1,0.1l0.1-0.1c14.1-6.2,19.1-10.8,19.1-24.1V70.1H1.3z M39,93.9
	c0,13-4.6,17.2-18.5,23.4c0.1,0,0.1,0,0.1,0.1h-0.3c0.1,0,0.1-0.1,0.1-0.1C6.7,111.1,2,106.8,2,93.9v-23h37V93.9z"/>
<polygon class="st0" points="102.7,120.5 100.8,99.2 94.2,99.2 96.5,129.7 "/>
<polygon class="st0" points="129.5,99.3 122.4,99.3 117.3,106.3 124.5,106.3 "/>
<polygon class="st0" points="121.3,110.7 114.1,110.7 112.7,112.6 111.7,99.3 105.9,106 107.7,129.7 "/>
<path class="st0" d="M152.7,129.7l3.3-11h8.1l-3.3,11h7.4l7-23.4c14.7,0,15.4,0,15.8,0c1.8,0,0.9,4.4-0.9,4.3h-12.9l-5.9,19.1h6.6
	l3.6-12h3.5c0.8,0,1.5,0.6,2.1,1.9c0.6,1.4,0.6,3.3-0.2,5.6l-1.2,4.5h6.9l1.3-4.3c1.3-4.2,1.1-7.6-0.3-10.1c2.3-0.9,3.9-3,5-6.3
	c0.8-2.5,0.7-4.7,0-6.5c-0.9-2.1-2.7-3.2-5.3-3.2h-23.2l-3.4,11.4h-8.1l3.4-11.4h-7.1l-7.1,23.7H132l1.6-5.5h10.8l2.1-6.8h-10.7
	l1.2-4.5h10.8l2.1-6.9h-17.7l-9.1,30.5L152.7,129.7L152.7,129.7z"/>
<polygon class="st0" points="43.9,124.6 54.1,124.6 54.4,129.9 61.5,129.9 59.4,86.2 52.1,86.2 53.8,119.1 47.4,119.1 52.8,110.8 
	45.5,110.8 33.3,129.9 40.5,129.9 "/>
<path class="st0" d="M87.2,120.2c0.7-2.2,0.6-4.1-0.2-5.8c1.8-1.8,3-3.8,3.7-6.1c0.7-2.4,0.6-4.5-0.3-6.3c-1.1-1.7-2.9-2.6-5.4-2.7
	H72.2l-2,7h12.7c0.8,0,1,1.1,0.7,2.2c-0.4,1.4-1.1,2.2-2,2.2H68.8L63,129.9h12.7C83.9,129.9,86.5,122.6,87.2,120.2z M71.4,123.3
	l2.2-7.4h5.6c0.9,0,2.3,0.8,1,3.9c-0.9,2.1-1.9,3.3-4.8,3.5H71.4z"/>
</svg>
