<?xml version="1.0" encoding="utf-8"?>
<!-- Generator: Adobe Illustrator 19.2.1, SVG Export Plug-In . SVG Version: 6.00 Build 0)  -->
<svg version="1.1" id="Layer_1" xmlns="http://www.w3.org/2000/svg" xmlns:xlink="http://www.w3.org/1999/xlink" x="0px" y="0px"
	 viewBox="0 0 200 200" style="enable-background:new 0 0 200 200;" xml:space="preserve">
<style type="text/css">
	.st0{fill:#FFFFFF;}
</style>
<g id="Layer_x0020_1">
	<path class="st0" d="M100,50C45.4,50,1.1,72.4,1.1,100c0,27.6,44.3,50,98.9,50s98.9-22.4,98.9-50C198.9,72.4,154.6,50,100,50z
		 M100.8,146.6c-49.8,0-90.2-20.8-90.2-46.5c0-25.7,40.4-46.5,90.2-46.5s90.2,20.8,90.2,46.5C191.1,125.8,150.7,146.6,100.8,146.6z"
		/>
	<path class="st0" d="M72.3,118.2c-1.6-1.4-2.2-2.5-3.4-4.2c-0.8-1.2-1.7-2.4-2.5-3.6c-0.6-0.9-1.2-1.8-1.8-2.7
		c2.3,0.8,11.4-7.6-0.2-11.6c-6.3,0-12.6,0-18.9,0c0.1,0.4,0.1,0.8,0.2,1.3c1.2,0.1,2.5,0.2,3.7,0.3c0,6.8,0,13.6,0,20.3
		c-1.3,0.3-2.7,0.6-4,0.9c0,0.4,0,0.8,0,1.3c4.7,0,9.4,0,14.1,0c0-0.5,0-1,0-1.5c-1.4-0.3-2.8-0.7-4.2-1c0-3,0-6,0-9
		c0.8,0,1.7,0,2.5,0c0.2,0,0.4,0.1,0.5,0.1c0.3,0.2,0.5,0.4,0.8,0.5c2,3.6,4,7.2,6,10.8c3.3,0,6.6,0,9.9,0c0-0.3,0.1-0.6,0.1-0.8
		C74.1,118.6,73.3,118.5,72.3,118.2z M58.1,106.8c-1,0-2,0-2.9,0c0-3.5,0-7.1,0-9.4c0.5,0,1,0,1.5,0
		C64.9,97.7,66.3,105.8,58.1,106.8z"/>
	<polygon class="st0" points="76.3,95.7 90,95.7 90,97.1 85.9,98.2 85.9,117.8 89.9,118.8 89.9,119.8 76.2,119.8 76.2,118.6 
		80.1,117.6 80.1,98.2 78.7,97.3 76.3,97.3 	"/>
	<polygon class="st0" points="93.4,95.8 107.9,95.8 107.9,97.1 103.3,98.4 103.3,107 113.5,98 110.1,97.2 110.1,95.8 122.4,95.8 
		122.4,97.2 120.2,97.6 118.2,98.1 116.9,98.7 108.3,105.4 120.4,117.7 123.2,118.8 123.2,119.9 109.6,119.9 109.6,118.7 
		112.9,117.8 112.8,117.3 103.4,108.1 103.4,117.5 107.5,119.2 107.5,119.9 93.1,119.9 93.1,118.8 97.5,117.1 97.5,98.9 93.4,97 	
		"/>
	<path class="st0" d="M138.7,95.5c-8.5,0-15.4,5.5-15.4,12.4c0,6.8,6.9,12.4,15.4,12.4c8.5,0,15.4-5.5,15.4-12.4
		C154.1,101,147.2,95.5,138.7,95.5z M138.7,118.7c-4.9,0-8.9-4.8-8.9-10.7c0-5.9,4-10.7,8.9-10.7c4.9,0,8.9,4.8,8.9,10.7
		C147.6,113.9,143.6,118.7,138.7,118.7z"/>
	<polygon class="st0" points="56.3,68.6 56.4,64 60.2,69 59.5,69.2 56.9,65.6 56.8,70.1 54.1,66.5 54,70.9 53.2,71.2 53.5,65 	"/>
	<path class="st0" d="M56.2,68.4l0.2-4.5c1.3,1.7,2.7,3.4,4,5.1l-0.9,0.3L57,65.8l-0.1,4.5l-2.7-3.5L54,71l-0.9,0.3l0.3-6.5
		L56.2,68.4z M56.5,64.2l-0.2,4.5l-2.7-3.6l-0.3,5.9l0.6-0.2l0.1-4.5l2.7,3.5l0.1-4.5l2.7,3.7l0.6-0.2L56.5,64.2z"/>
	<path class="st0" d="M60.3,69l0.6-6.6l4.1,5.2l-0.5,0.2L63.3,66L61,66.7l-0.2,2.1L60.3,69z M61.1,66.2l1.9-0.6l-1.6-2.1L61.1,66.2z
		"/>
	<path class="st0" d="M60.3,68.9l0.6-6.8c1.4,1.8,2.9,3.6,4.3,5.4l-0.7,0.2l-1.3-1.7l-2.1,0.6l-0.2,2.1L60.3,68.9L60.3,68.9z
		 M61,62.5l-0.6,6.4l0.4-0.1l0.2-2.1c0.8-0.2,1.5-0.5,2.3-0.7l1.3,1.7l0.4-0.1L61,62.5z M61.2,66.1l1.7-0.5l-1.5-1.9L61.2,66.1z
		 M63,65.7l-2,0.6l0.2-2.9L63,65.7L63,65.7z"/>
	<path class="st0" d="M65.2,61.8l0.5-0.1l1,4.3l2.4-5.3l1.3,5.7l-0.5,0.1l-1-4.3l-2.4,5.3L65.2,61.8z M65.9,60.6l0.3-0.3
		c0.1,0.3,0.4,0.4,0.7,0.3c0,0,0,0,0,0l0,0c0.3-0.1,0.5-0.3,0.5-0.5c0,0,0,0,0,0c0,0,0,0,0,0l0.4,0.1c0,0.3-0.2,0.6-0.5,0.8
		c-0.1,0.1-0.2,0.1-0.2,0.1c-0.1,0-0.1,0-0.2,0.1c-0.1,0-0.3,0-0.5,0C66.3,61,66.1,60.8,65.9,60.6z"/>
	<path class="st0" d="M65.2,61.7l0.6-0.1l1,4.2l2.4-5.3c0.5,2,0.9,4,1.4,6l-0.6,0.1l-1-4.2l-2.4,5.3C66.1,65.7,65.6,63.7,65.2,61.7
		L65.2,61.7z M65.7,61.7l-0.4,0.1l1.2,5.4l2.4-5.3l1,4.5l0.4-0.1l-1.2-5.4l-2.4,5.3L65.7,61.7z M65.9,60.5l0.4-0.3l0,0.1
		c0.1,0.1,0.2,0.2,0.3,0.3c0.1,0,0.2,0.1,0.4,0l0.1,0c0.1,0,0.3-0.1,0.3-0.2c0.1-0.1,0.1-0.2,0.1-0.3l0,0l0,0v0c0,0,0,0,0,0l0-0.1
		l0.6,0.1l0,0.1c0,0.2-0.1,0.3-0.2,0.5c-0.1,0.1-0.2,0.3-0.3,0.3c0,0-0.1,0.1-0.1,0.1c0,0-0.1,0-0.1,0c0,0-0.1,0-0.1,0
		c0,0-0.1,0-0.1,0c-0.1,0-0.2,0-0.2,0c-0.1,0-0.2,0-0.3,0c-0.2,0-0.3-0.1-0.4-0.2C66.1,60.9,66,60.7,65.9,60.5L65.9,60.5L65.9,60.5z
		 M66.3,60.4L66,60.6c0.1,0.1,0.2,0.2,0.3,0.3c0.1,0.1,0.2,0.1,0.4,0.1c0.1,0,0.2,0,0.2,0c0.1,0,0.1,0,0.2,0c0,0,0.1,0,0.1,0
		c0,0,0.1,0,0.1,0c0,0,0.1,0,0.1,0c0,0,0.1,0,0.1-0.1l0,0c0.1-0.1,0.2-0.2,0.3-0.3c0.1-0.1,0.1-0.2,0.1-0.4l-0.3-0.1l0,0
		c0,0.2-0.1,0.3-0.2,0.4c-0.1,0.1-0.2,0.2-0.4,0.2c0,0,0,0-0.1,0c-0.2,0-0.3,0-0.4,0C66.4,60.6,66.3,60.5,66.3,60.4z"/>
	<path class="st0" d="M72.4,66.3l-1-5.9l2.7-0.4l0.1,0.5L72,60.8l0.3,2l0.9-0.1c0.7-0.1,1.2,0,1.7,0.4c0.2,0.2,0.4,0.6,0.5,1.1
		c0.1,0.9-0.2,1.5-0.9,1.8c-0.2,0.1-0.5,0.2-0.9,0.3L72.4,66.3z M72.8,65.7l0.8-0.1c0,0,0.1,0,0.3-0.1c0.1,0,0.3-0.1,0.4-0.1
		c0.5-0.3,0.7-0.7,0.6-1.3c-0.1-0.6-0.4-0.9-0.9-1c-0.1,0-0.3,0-0.4,0c-0.1,0-0.2,0-0.3,0l-0.9,0.1L72.8,65.7z"/>
	<path class="st0" d="M72.3,66.3l-1-6l2.9-0.5l0.1,0.6l-2.2,0.4l0.3,1.8l0.8-0.1c0.3-0.1,0.7-0.1,0.9,0c0.3,0.1,0.5,0.2,0.8,0.4
		c0.1,0.1,0.2,0.3,0.3,0.4c0.1,0.2,0.1,0.4,0.2,0.7c0.1,0.4,0,0.8-0.1,1.2c-0.2,0.3-0.4,0.6-0.8,0.8c-0.1,0.1-0.3,0.1-0.4,0.2
		c-0.2,0-0.3,0.1-0.5,0.1L72.3,66.3L72.3,66.3z M71.5,60.4l0.9,5.8l1.1-0.2c0.2,0,0.4-0.1,0.5-0.1c0.2,0,0.3-0.1,0.4-0.1
		c0.4-0.2,0.6-0.4,0.7-0.7c0.1-0.3,0.2-0.7,0.1-1.1c0-0.2-0.1-0.5-0.2-0.6c-0.1-0.2-0.2-0.3-0.3-0.4c-0.2-0.2-0.4-0.3-0.7-0.3
		c-0.3-0.1-0.6-0.1-0.9,0l-1,0.2c-0.1-0.7-0.2-1.4-0.3-2.1l2.2-0.4L74.1,60L71.5,60.4z M72.9,65.7l0.7-0.1c0,0,0,0,0.1,0l0.2,0
		c0.1,0,0.1,0,0.2-0.1c0.1,0,0.1,0,0.2-0.1c0.2-0.1,0.4-0.3,0.5-0.5c0.1-0.2,0.1-0.5,0.1-0.8c0-0.3-0.1-0.5-0.3-0.7
		c-0.1-0.2-0.3-0.3-0.6-0.3c-0.1,0-0.1,0-0.2,0c-0.1,0-0.1,0-0.2,0c0,0-0.1,0-0.1,0c0,0-0.1,0-0.1,0l-0.8,0.1L72.9,65.7z M73.6,65.7
		l-0.8,0.1c-0.1-0.9-0.3-1.8-0.4-2.7l1-0.2c0,0,0.1,0,0.1,0c0,0,0.1,0,0.1,0c0.1,0,0.1,0,0.2,0c0.1,0,0.1,0,0.2,0
		c0.3,0.1,0.5,0.2,0.6,0.4c0.2,0.2,0.3,0.4,0.3,0.7c0.1,0.3,0,0.6-0.1,0.8c-0.1,0.2-0.3,0.4-0.5,0.6l0,0c-0.1,0-0.1,0.1-0.2,0.1
		c-0.1,0-0.1,0-0.2,0.1l-0.2,0C73.6,65.7,73.6,65.7,73.6,65.7z"/>
	<polygon class="st0" points="78.4,65.5 78.8,63.5 76.2,59.8 76.8,59.7 79,62.9 79.9,59.1 80.4,59.1 78.9,65.4 	"/>
	<path class="st0" d="M78.3,65.5l0.4-1.9l-2.7-3.9l0.7-0.1l2.2,3.2l0.9-3.7l0.7-0.1c-0.5,2.2-1,4.3-1.5,6.5L78.3,65.5L78.3,65.5z
		 M78.9,63.6l-0.4,1.8l0.4-0.1l1.5-6.2l-0.4,0.1L79,63.1l-2.3-3.3l-0.4,0.1L78.9,63.6L78.9,63.6z"/>
	<polygon class="st0" points="84.3,64.8 83.8,59.4 82.3,59.5 82.3,59 85.7,58.7 85.8,59.2 84.3,59.3 84.8,64.8 	"/>
	<path class="st0" d="M84.2,64.9l-0.5-5.4l-1.5,0.1L82.2,59l3.6-0.3l0.1,0.6l-1.5,0.1l0.5,5.5H84.2L84.2,64.9z M83.8,59.3l0.5,5.4
		l0.4,0l-0.5-5.5l1.5-0.1l0-0.3l-3.3,0.3l0,0.3L83.8,59.3L83.8,59.3z"/>
	<polygon class="st0" points="88,64.5 87.6,58.5 88.1,58.5 88.3,60.9 91.5,60.7 91.3,58.2 91.8,58.2 92.3,64.2 91.7,64.2 91.5,61.2 
		88.4,61.4 88.6,64.4 	"/>
	<path class="st0" d="M88,64.5l-0.4-6l0.7-0.1l0.2,2.5l3-0.2l-0.2-2.5l0.7,0c0.2,2,0.3,4.1,0.4,6.1l-0.7,0l-0.2-3.1l-3,0.2l0.2,3.1
		L88,64.5L88,64.5z M87.7,58.6l0.4,5.8l0.4,0l-0.2-3c1.1-0.1,2.2-0.2,3.3-0.2l0.2,3.1l0.4,0l-0.4-5.8l-0.4,0l0.2,2.5L88.3,61
		l-0.2-2.5L87.7,58.6z"/>
	<path class="st0" d="M98.1,63.8l0-0.7c-0.6,0.4-1.2,0.6-1.8,0.6c-0.7,0-1.2-0.3-1.6-0.8c-0.4-0.5-0.6-1.1-0.7-1.8l3.4,0l0-0.5
		l-3.4,0c0-0.7,0.3-1.2,0.7-1.7c0.5-0.4,1-0.6,1.6-0.6l0.1,0c0.6,0,1.1,0.2,1.6,0.7l0-0.6c-0.2-0.1-0.4-0.3-0.7-0.4
		c-0.3-0.1-0.7-0.2-1.1-0.2c-0.9,0-1.6,0.3-2.1,0.8c-0.5,0.6-0.8,1.3-0.8,2.3c0,0.9,0.2,1.7,0.8,2.3c0.5,0.6,1.2,0.9,2.1,0.9
		C96.9,64.3,97.5,64.1,98.1,63.8z"/>
	<path class="st0" d="M98,63.8l0-0.5c-0.3,0.2-0.5,0.3-0.8,0.4c-0.3,0.1-0.6,0.2-0.9,0.2c-0.7,0-1.2-0.3-1.7-0.8
		c-0.2-0.3-0.4-0.5-0.5-0.9c-0.1-0.3-0.2-0.6-0.2-1l0-0.1l3.4,0l0-0.3l-3.4,0v-0.1c0-0.3,0.1-0.7,0.2-0.9c0.1-0.3,0.3-0.5,0.5-0.8
		c0.2-0.2,0.5-0.4,0.8-0.5c0.3-0.1,0.6-0.2,0.9-0.2h0.1c0.3,0,0.6,0.1,0.8,0.2c0.2,0.1,0.5,0.2,0.7,0.4l0-0.5
		c-0.1-0.1-0.2-0.1-0.3-0.2c-0.1-0.1-0.2-0.1-0.4-0.2c-0.2,0-0.3-0.1-0.5-0.1c-0.2,0-0.4,0-0.6,0c-0.4,0-0.8,0.1-1.2,0.2
		s-0.7,0.3-0.9,0.6c-0.3,0.3-0.5,0.6-0.6,1c-0.1,0.4-0.2,0.8-0.2,1.3c0,0.5,0,0.9,0.2,1.2c0.1,0.4,0.3,0.7,0.6,1
		c0.3,0.3,0.6,0.5,0.9,0.7c0.3,0.2,0.7,0.2,1.1,0.2c0.3,0,0.6,0,0.9-0.1C97.5,64,97.7,63.9,98,63.8z M98.1,63.2l0,0.7l0,0
		c-0.3,0.2-0.6,0.3-0.9,0.4c-0.3,0.1-0.6,0.1-0.9,0.1c-0.4,0-0.8-0.1-1.2-0.2c-0.4-0.2-0.7-0.4-0.9-0.7c-0.3-0.3-0.5-0.7-0.6-1
		c-0.1-0.4-0.2-0.8-0.2-1.3c0-0.5,0.1-0.9,0.2-1.3c0.1-0.4,0.3-0.7,0.6-1c0.3-0.3,0.6-0.5,1-0.7c0.4-0.1,0.8-0.2,1.2-0.2
		c0.2,0,0.4,0,0.6,0c0.2,0,0.4,0.1,0.5,0.1c0.1,0,0.3,0.1,0.4,0.2c0.1,0.1,0.2,0.1,0.3,0.2l0,0l0,0.8l-0.1-0.1
		c-0.3-0.2-0.5-0.4-0.8-0.5c-0.3-0.1-0.5-0.2-0.8-0.2h-0.1c-0.3,0-0.6,0-0.9,0.1c-0.3,0.1-0.5,0.3-0.7,0.5c-0.2,0.2-0.4,0.5-0.5,0.7
		c-0.1,0.3-0.2,0.5-0.2,0.8l3.4,0l0,0.6l-3.4,0c0,0.3,0.1,0.6,0.2,0.9c0.1,0.3,0.3,0.6,0.5,0.8c0.4,0.5,1,0.8,1.6,0.8
		c0.3,0,0.6,0,0.9-0.1c0.3-0.1,0.6-0.3,0.9-0.5l0.1-0.1L98.1,63.2z"/>
	<path class="st0" d="M109.3,62.9l0,0.7c-0.3,0.2-0.7,0.4-1.1,0.6c-0.3,0.1-0.5,0.1-0.9,0.1c-0.8,0-1.5-0.3-2-0.9
		c-0.5-0.6-0.8-1.3-0.8-2.2c0-0.9,0.2-1.7,0.8-2.3c0.5-0.6,1.2-0.9,2-0.9c0.7,0,1.4,0.2,2,0.7l0,0.7c-0.6-0.6-1.2-0.9-2-0.9
		c-0.6,0-1.1,0.3-1.6,0.8c-0.4,0.5-0.7,1.1-0.7,1.8v0.1c0,0.7,0.2,1.4,0.6,1.9c0.4,0.5,1,0.8,1.6,0.8
		C108,63.8,108.7,63.5,109.3,62.9z"/>
	<path class="st0" d="M109.3,62.9l0,0.7l0,0c-0.1,0.1-0.3,0.2-0.5,0.3c-0.2,0.1-0.4,0.2-0.6,0.3h0c-0.1,0-0.3,0.1-0.4,0.1
		c-0.1,0-0.3,0-0.5,0c-0.4,0-0.8-0.1-1.1-0.2c-0.3-0.2-0.7-0.4-0.9-0.7c-0.3-0.3-0.5-0.6-0.6-1c-0.1-0.4-0.2-0.8-0.2-1.3
		s0.1-0.9,0.2-1.3c0.1-0.4,0.3-0.7,0.6-1c0.3-0.3,0.6-0.6,0.9-0.7c0.3-0.2,0.7-0.2,1.1-0.2c0.4,0,0.7,0.1,1.1,0.2
		c0.3,0.1,0.7,0.3,1,0.5l0,0l0,0.9l-0.1-0.1c-0.3-0.3-0.6-0.5-0.9-0.7c-0.3-0.1-0.7-0.2-1-0.2c-0.3,0-0.6,0.1-0.8,0.2
		c-0.3,0.1-0.5,0.3-0.7,0.6c-0.2,0.3-0.4,0.5-0.5,0.8c-0.1,0.3-0.2,0.6-0.2,0.9v0.1c0,0.4,0.1,0.7,0.2,1c0.1,0.3,0.3,0.6,0.5,0.8
		c0.2,0.3,0.4,0.5,0.7,0.6c0.3,0.1,0.5,0.2,0.9,0.2c0.4,0,0.7-0.1,1-0.2c0.3-0.1,0.6-0.4,0.9-0.7l0.1-0.1V62.9z M109.2,63.5l0-0.5
		c-0.3,0.2-0.5,0.4-0.8,0.6c-0.3,0.2-0.7,0.2-1.1,0.2c-0.3,0-0.6-0.1-0.9-0.2c-0.3-0.1-0.5-0.4-0.8-0.6c-0.2-0.3-0.4-0.6-0.5-0.9
		s-0.2-0.7-0.2-1V61c0-0.3,0.1-0.7,0.2-1c0.1-0.3,0.3-0.6,0.5-0.9c0.2-0.3,0.5-0.5,0.7-0.6c0.3-0.1,0.6-0.2,0.9-0.2
		c0.4,0,0.7,0.1,1.1,0.2c0.3,0.1,0.6,0.3,0.8,0.6v-0.5c-0.3-0.2-0.6-0.4-0.9-0.5c-0.3-0.1-0.7-0.2-1-0.2c-0.4,0-0.8,0.1-1.1,0.2
		c-0.3,0.1-0.6,0.4-0.9,0.7c-0.3,0.3-0.4,0.6-0.6,1c-0.1,0.4-0.2,0.8-0.2,1.2c0,0.4,0.1,0.8,0.2,1.2c0.1,0.4,0.3,0.7,0.6,1
		c0.3,0.3,0.6,0.5,0.9,0.7c0.3,0.1,0.7,0.2,1.1,0.2c0.2,0,0.3,0,0.4,0c0.1,0,0.3,0,0.4-0.1c0.2-0.1,0.4-0.2,0.6-0.3
		C108.9,63.7,109.1,63.6,109.2,63.5z"/>
	<path class="st0" d="M110.5,64.3l0.5-6l0.5,0l-0.2,2.5l0.9,0.1c0.3,0,0.6,0.1,0.9,0.2c0.6,0.3,0.9,0.8,0.9,1.7
		c-0.1,0.9-0.5,1.4-1.3,1.5c-0.3,0.1-0.6,0.1-0.9,0L110.5,64.3z M111,63.8l0.8,0.1c0,0,0.1,0,0.3,0c0.2,0,0.3,0,0.4,0
		c0.2,0,0.4-0.2,0.6-0.3c0.2-0.2,0.3-0.4,0.3-0.8c0-0.6-0.2-1-0.6-1.2c-0.1-0.1-0.2-0.1-0.4-0.1c-0.1,0-0.2,0-0.3,0l-0.9-0.1
		L111,63.8z"/>
	<path class="st0" d="M110.4,64.3l0.5-6l0.7,0.1l-0.2,2.5l0.8,0.1c0.2,0,0.3,0,0.5,0.1c0.1,0,0.3,0.1,0.4,0.1
		c0.3,0.2,0.6,0.4,0.7,0.7c0.1,0.3,0.2,0.6,0.2,1.1c0,0.4-0.2,0.8-0.4,1.1c-0.2,0.3-0.5,0.4-0.9,0.5c-0.1,0-0.3,0-0.4,0
		c-0.2,0-0.3,0-0.5,0L110.4,64.3L110.4,64.3z M111,58.4l-0.5,5.8l1.1,0.1c0.2,0,0.4,0,0.5,0c0.2,0,0.3,0,0.4,0
		c0.4-0.1,0.7-0.2,0.9-0.5c0.2-0.2,0.3-0.6,0.4-1c0-0.4,0-0.7-0.2-1c-0.1-0.3-0.4-0.5-0.7-0.6c-0.1,0-0.2-0.1-0.4-0.1
		c-0.1,0-0.3-0.1-0.5-0.1l-1-0.1l0.2-2.5L111,58.4z M111.1,63.8l0.7,0.1c0,0,0,0,0.1,0h0.2c0.1,0,0.1,0,0.2,0s0.1,0,0.2,0
		c0.1,0,0.2-0.1,0.3-0.1c0.1,0,0.2-0.1,0.3-0.2c0.1-0.1,0.1-0.2,0.2-0.3c0-0.1,0.1-0.3,0.1-0.5c0-0.3,0-0.5-0.1-0.7
		c-0.1-0.2-0.3-0.3-0.5-0.4c-0.1,0-0.1,0-0.2-0.1c-0.1,0-0.1,0-0.2,0c0,0-0.1,0-0.1,0c0,0-0.1,0-0.1,0l-0.8-0.1L111.1,63.8z
		 M111.8,64l-0.8-0.1c0.1-0.9,0.1-1.8,0.2-2.6l1,0.1c0.1,0,0.1,0,0.2,0c0,0,0.1,0,0.1,0c0.1,0,0.1,0,0.2,0c0.1,0,0.1,0,0.2,0.1
		c0.2,0.1,0.4,0.3,0.5,0.5c0.1,0.2,0.1,0.5,0.1,0.8c0,0.2,0,0.4-0.1,0.5c-0.1,0.1-0.1,0.3-0.2,0.3c-0.1,0.1-0.2,0.2-0.3,0.2
		c-0.1,0.1-0.2,0.1-0.3,0.1l0,0c-0.1,0-0.1,0-0.2,0c-0.1,0-0.1,0-0.2,0h-0.2C111.8,64,111.8,64,111.8,64z"/>
	<path class="st0" d="M114.9,62c0.1-0.9,0.4-1.7,1-2.2c0.6-0.5,1.2-0.8,2-0.7c0.8,0.1,1.4,0.4,1.8,1.1c0.5,0.6,0.7,1.4,0.6,2.3
		c-0.1,0.9-0.4,1.7-1,2.2c-0.6,0.5-1.2,0.8-2,0.7c-0.8-0.1-1.4-0.4-1.8-1.1C115,63.7,114.8,62.9,114.9,62z M115.4,62.1
		c-0.1,0.8,0.1,1.4,0.4,2s0.9,0.9,1.5,0.9c0.6,0.1,1.2-0.2,1.6-0.6c0.4-0.5,0.7-1.1,0.8-1.9c0.1-0.8-0.1-1.4-0.4-2
		c-0.4-0.6-0.9-0.9-1.5-0.9c-0.6-0.1-1.2,0.2-1.6,0.6C115.8,60.7,115.5,61.3,115.4,62.1z"/>
	<path class="st0" d="M114.9,62c0-0.5,0.1-0.9,0.3-1.3c0.2-0.4,0.4-0.7,0.7-1c0.3-0.3,0.6-0.5,0.9-0.6c0.3-0.1,0.7-0.2,1.1-0.1
		c0.4,0,0.8,0.1,1.1,0.3c0.3,0.2,0.6,0.4,0.8,0.8c0.2,0.3,0.4,0.7,0.5,1.1s0.1,0.8,0.1,1.3c0,0.5-0.1,0.9-0.3,1.3
		c-0.2,0.4-0.4,0.7-0.7,1c-0.3,0.3-0.6,0.5-0.9,0.6c-0.3,0.1-0.7,0.2-1.1,0.1c-0.4,0-0.7-0.1-1.1-0.3s-0.6-0.4-0.8-0.8
		c-0.2-0.3-0.4-0.7-0.5-1.1C114.8,62.9,114.8,62.5,114.9,62z M115.3,60.8c-0.2,0.4-0.3,0.8-0.3,1.2c0,0.4,0,0.9,0.1,1.2
		c0.1,0.4,0.3,0.7,0.5,1c0.2,0.3,0.5,0.5,0.8,0.7c0.3,0.2,0.6,0.3,1,0.3c0.4,0,0.7,0,1.1-0.1c0.3-0.1,0.6-0.3,0.9-0.6
		c0.3-0.3,0.5-0.6,0.7-0.9s0.3-0.8,0.3-1.2c0-0.5,0-0.9-0.1-1.3c-0.1-0.4-0.3-0.7-0.5-1c-0.2-0.3-0.5-0.5-0.8-0.7
		c-0.3-0.2-0.6-0.3-1-0.3c-0.4,0-0.7,0-1.1,0.1s-0.6,0.3-0.9,0.6C115.7,60.1,115.4,60.4,115.3,60.8z M115.5,62.1c0,0.4,0,0.7,0.1,1
		c0.1,0.3,0.2,0.6,0.4,0.9c0.2,0.3,0.4,0.5,0.6,0.6c0.2,0.1,0.5,0.2,0.8,0.3c0.3,0,0.6,0,0.9-0.1c0.3-0.1,0.5-0.3,0.7-0.5
		c0.2-0.2,0.4-0.5,0.5-0.8c0.1-0.3,0.2-0.6,0.2-1c0-0.4,0-0.7-0.1-1c-0.1-0.3-0.2-0.6-0.4-0.9c-0.2-0.3-0.4-0.5-0.6-0.6
		c-0.2-0.1-0.5-0.2-0.8-0.3c-0.3,0-0.6,0-0.9,0.1c-0.3,0.1-0.5,0.3-0.7,0.5c-0.2,0.2-0.4,0.5-0.5,0.8
		C115.6,61.4,115.5,61.7,115.5,62.1z M115.4,63.2c-0.1-0.3-0.1-0.7-0.1-1.1c0-0.4,0.1-0.7,0.2-1.1c0.1-0.3,0.3-0.6,0.5-0.8
		c0.2-0.2,0.5-0.4,0.8-0.5c0.3-0.1,0.6-0.1,0.9-0.1c0.3,0,0.6,0.1,0.9,0.3c0.3,0.2,0.5,0.4,0.7,0.7c0.2,0.3,0.3,0.6,0.4,0.9
		c0.1,0.3,0.1,0.7,0.1,1.1c0,0.4-0.1,0.7-0.2,1.1c-0.1,0.3-0.3,0.6-0.5,0.8c-0.2,0.2-0.5,0.4-0.8,0.5c-0.3,0.1-0.6,0.1-0.9,0.1
		c-0.3,0-0.6-0.1-0.9-0.3c-0.3-0.2-0.5-0.4-0.7-0.7C115.6,63.8,115.5,63.5,115.4,63.2z"/>
	<path class="st0" d="M125.8,63.3c0.2-0.9,0.6-1.6,1.2-2.1c0.6-0.5,1.3-0.6,2.1-0.5c0.8,0.1,1.3,0.6,1.7,1.2
		c0.4,0.7,0.5,1.5,0.3,2.4c-0.2,0.9-0.6,1.6-1.2,2.1c-0.6,0.5-1.3,0.6-2.1,0.5c-0.8-0.1-1.3-0.6-1.7-1.2
		C125.8,65,125.6,64.2,125.8,63.3z M126.3,63.4c-0.1,0.8-0.1,1.4,0.2,2c0.3,0.6,0.8,0.9,1.4,1.1c0.6,0.1,1.2,0,1.7-0.5
		c0.5-0.4,0.8-1,1-1.8c0.1-0.8,0.1-1.4-0.2-2c-0.3-0.6-0.8-0.9-1.4-1.1c-0.6-0.1-1.2,0-1.7,0.5C126.8,62.1,126.5,62.6,126.3,63.4z"
		/>
	<path class="st0" d="M125.8,63.3c0.1-0.5,0.2-0.9,0.4-1.2c0.2-0.4,0.5-0.7,0.8-0.9c0.3-0.2,0.6-0.4,1-0.5c0.4-0.1,0.7-0.1,1.1,0
		s0.7,0.2,1,0.4c0.3,0.2,0.5,0.5,0.7,0.8c0.2,0.4,0.3,0.7,0.4,1.1s0,0.8,0,1.3c-0.1,0.5-0.2,0.9-0.4,1.2c-0.2,0.4-0.5,0.7-0.8,0.9
		c-0.3,0.2-0.6,0.4-1,0.5c-0.4,0.1-0.7,0.1-1.1,0c-0.4-0.1-0.7-0.2-1-0.4c-0.3-0.2-0.5-0.5-0.7-0.8c-0.2-0.4-0.3-0.7-0.4-1.1
		C125.7,64.2,125.7,63.7,125.8,63.3z M126.3,62.1c-0.2,0.3-0.3,0.7-0.4,1.2c-0.1,0.4-0.1,0.9,0,1.3c0.1,0.4,0.2,0.7,0.4,1.1
		c0.2,0.3,0.4,0.6,0.7,0.8s0.6,0.3,1,0.4c0.4,0.1,0.7,0.1,1.1,0c0.3-0.1,0.6-0.2,0.9-0.5c0.3-0.2,0.6-0.5,0.7-0.9
		c0.2-0.3,0.3-0.7,0.4-1.2c0.1-0.4,0.1-0.9,0-1.3c-0.1-0.4-0.2-0.8-0.4-1.1c-0.2-0.3-0.4-0.6-0.7-0.8c-0.3-0.2-0.6-0.3-1-0.4
		c-0.4-0.1-0.7-0.1-1.1,0s-0.7,0.2-0.9,0.5C126.8,61.5,126.5,61.8,126.3,62.1z M126.4,63.4c-0.1,0.4-0.1,0.7,0,1
		c0,0.3,0.1,0.6,0.3,0.9c0.2,0.3,0.3,0.5,0.6,0.7c0.2,0.2,0.5,0.3,0.8,0.3c0.3,0.1,0.6,0.1,0.9,0c0.3-0.1,0.5-0.2,0.8-0.4
		c0.2-0.2,0.4-0.5,0.6-0.7c0.2-0.3,0.3-0.6,0.3-1c0.1-0.4,0.1-0.7,0-1c0-0.3-0.1-0.6-0.3-0.9c-0.2-0.3-0.3-0.5-0.6-0.7
		c-0.2-0.2-0.5-0.3-0.8-0.3c-0.3-0.1-0.6-0.1-0.9,0c-0.3,0.1-0.5,0.2-0.8,0.4c-0.2,0.2-0.4,0.4-0.6,0.7S126.5,63,126.4,63.4z
		 M126.2,64.5c0-0.3,0-0.7,0.1-1.1c0.1-0.4,0.2-0.7,0.4-1c0.2-0.3,0.4-0.6,0.6-0.8c0.3-0.2,0.5-0.4,0.8-0.4c0.3-0.1,0.6-0.1,0.9,0
		c0.3,0.1,0.6,0.2,0.8,0.4c0.2,0.2,0.4,0.4,0.6,0.7c0.2,0.3,0.3,0.6,0.3,1c0,0.3,0,0.7,0,1.1c-0.1,0.4-0.2,0.7-0.4,1
		c-0.2,0.3-0.4,0.6-0.6,0.8c-0.3,0.2-0.5,0.4-0.8,0.4c-0.3,0.1-0.6,0.1-0.9,0c-0.3-0.1-0.6-0.2-0.8-0.4c-0.2-0.2-0.4-0.4-0.6-0.7
		C126.4,65.1,126.3,64.8,126.2,64.5z"/>
	<polygon class="st0" points="121.3,65.7 122.4,59.9 125,60.2 124.9,60.6 122.9,60.4 121.9,65.7 	"/>
	<path class="st0" d="M121.3,65.7l1-5.9c0.9,0.1,1.8,0.2,2.8,0.3l-0.1,0.6l-2-0.2l-0.9,5.3L121.3,65.7L121.3,65.7z M122.4,59.9
		l-1,5.7l0.5,0l0.9-5.3l2,0.2l0.1-0.3L122.4,59.9z"/>
	<path class="st0" d="M134.2,62.2l3.3,0.8l-1.7,5.2l0.7,0.2l-0.5,1.6l-0.5-0.1l0.4-1.1l-4.2-1l-0.4,1.1l-0.5-0.1l0.5-1.6l0.1,0
		c0.4,0.1,0.8-0.1,1.2-0.7c0.2-0.3,0.4-0.8,0.6-1.3L134.2,62.2z M134.7,62.8l-0.8,2.5c-0.2,0.5-0.3,0.9-0.5,1.2
		c-0.2,0.4-0.6,0.7-0.9,0.9l2.9,0.7l1.5-4.8L134.7,62.8z"/>
	<path class="st0" d="M134.3,62.2l3.4,0.8l-1.7,5.2l0.7,0.2l-0.6,1.7l-0.7-0.2l0.4-1.1l-4-1l-0.4,1.1l-0.7-0.2l0.6-1.7l0.1,0
		c0.2,0,0.4,0,0.6-0.1s0.4-0.3,0.6-0.5c0.1-0.2,0.2-0.4,0.3-0.6c0.1-0.2,0.2-0.5,0.3-0.7L134.3,62.2L134.3,62.2z M137.5,63.1
		l-3.2-0.8l-0.9,2.9c-0.1,0.3-0.2,0.5-0.3,0.7c-0.1,0.2-0.2,0.4-0.3,0.6c-0.2,0.3-0.4,0.5-0.6,0.6c-0.2,0.1-0.4,0.2-0.7,0.1h0
		l-0.5,1.5l0.4,0.1l0.4-1.1c1.4,0.3,2.9,0.7,4.3,1l-0.4,1.1l0.4,0.1l0.5-1.5l-0.7-0.2L137.5,63.1z M134.7,62.9l-0.8,2.5
		c-0.1,0.3-0.2,0.5-0.3,0.7c-0.1,0.2-0.2,0.4-0.2,0.5c-0.1,0.2-0.3,0.4-0.4,0.6c-0.1,0.1-0.2,0.2-0.4,0.3l2.6,0.6l1.5-4.6
		L134.7,62.9z M133.8,65.3l0.8-2.6c0.8,0.2,1.5,0.4,2.3,0.5c-0.5,1.6-1.1,3.3-1.6,4.9l-3.1-0.7l0.2-0.1c0.2-0.1,0.4-0.2,0.5-0.3
		c0.2-0.1,0.3-0.3,0.4-0.5c0.1-0.1,0.1-0.3,0.2-0.5C133.6,65.8,133.7,65.6,133.8,65.3z"/>
	<path class="st0" d="M137.6,69.1l1.8-5.7l0.6,0.1l-0.7,2.3l3.4,0.8l0.7-2.3l0.6,0.1l-1.8,5.7l-0.6-0.1l0.9-2.9l-3.4-0.8l-0.9,2.9
		L137.6,69.1z M143.7,70.5l1.8-5.7l0.6,0.1l-1.8,5.7L143.7,70.5z"/>
	<path class="st0" d="M137.5,69.1l1.9-5.7l0.7,0.2l-0.7,2.3l3.3,0.8l0.7-2.3l0.7,0.2c-0.6,1.9-1.3,3.9-1.9,5.8l-0.7-0.2l0.9-2.9
		l-3.3-0.8l-0.9,2.9L137.5,69.1L137.5,69.1z M139.4,63.5l-1.8,5.6l0.5,0.1l0.9-2.9c1.2,0.3,2.4,0.6,3.6,0.8l-0.9,2.9l0.4,0.1
		l1.8-5.6l-0.5-0.1l-0.7,2.3c-1.2-0.3-2.4-0.6-3.6-0.8l0.8-2.3L139.4,63.5z M143.6,70.5l1.9-5.7l0.7,0.2c-0.6,1.9-1.2,3.9-1.9,5.8
		L143.6,70.5L143.6,70.5z M145.6,64.9l-1.8,5.6l0.5,0.1L146,65L145.6,64.9z"/>
	<path class="st0" d="M18.3,107.9l-0.6,0.3c-0.3-0.2-0.6-0.4-1-0.8c-0.2-0.2-0.3-0.4-0.5-0.7c-0.3-0.7-0.3-1.4,0-2.2
		c0.3-0.7,0.9-1.2,1.7-1.6c0.8-0.4,1.6-0.4,2.3-0.2c0.7,0.2,1.3,0.7,1.6,1.4c0.3,0.7,0.4,1.3,0.2,2.1l-0.6,0.3
		c0.3-0.7,0.3-1.4,0-2.1c-0.3-0.6-0.7-0.9-1.3-1.1c-0.6-0.2-1.3-0.2-1.8,0.1l-0.1,0.1c-0.6,0.3-1.1,0.7-1.4,1.3
		c-0.3,0.6-0.3,1.2-0.1,1.8C17,107.2,17.6,107.7,18.3,107.9z"/>
	<path class="st0" d="M18.3,108l-0.6,0.3l0,0c-0.2-0.1-0.3-0.2-0.5-0.3c-0.2-0.1-0.3-0.3-0.5-0.5c-0.1-0.1-0.2-0.2-0.3-0.3
		c-0.1-0.1-0.1-0.3-0.2-0.4c-0.2-0.4-0.3-0.7-0.3-1.1c0-0.4,0.1-0.7,0.2-1.1c0.2-0.4,0.4-0.7,0.7-0.9c0.3-0.3,0.6-0.5,1-0.7
		s0.8-0.3,1.2-0.3c0.4,0,0.8,0,1.1,0.1c0.4,0.1,0.7,0.3,1,0.5c0.3,0.2,0.5,0.6,0.7,0.9c0.2,0.3,0.2,0.7,0.3,1c0,0.4,0,0.7-0.1,1.1
		l0,0l-0.8,0.4l0.1-0.2c0.2-0.4,0.2-0.7,0.2-1.1c0-0.3-0.1-0.7-0.2-1c-0.1-0.3-0.3-0.5-0.5-0.7c-0.2-0.2-0.5-0.3-0.8-0.4
		c-0.3-0.1-0.6-0.1-0.9-0.1c-0.3,0-0.6,0.1-0.9,0.2l-0.1,0.1c-0.3,0.1-0.6,0.3-0.8,0.5c-0.2,0.2-0.4,0.5-0.6,0.7
		c-0.1,0.3-0.2,0.6-0.2,0.9c0,0.3,0,0.6,0.2,0.8c0.1,0.3,0.3,0.6,0.6,0.8s0.6,0.4,0.9,0.5l0.2,0.1L18.3,108z M17.7,108.1l0.4-0.2
		c-0.3-0.1-0.6-0.3-0.8-0.5c-0.3-0.2-0.5-0.5-0.6-0.9c-0.1-0.3-0.2-0.6-0.2-0.9c0-0.3,0.1-0.6,0.3-0.9c0.1-0.3,0.3-0.6,0.6-0.8
		s0.5-0.4,0.8-0.6l0.1-0.1c0.3-0.1,0.6-0.2,0.9-0.2c0.3,0,0.6,0,1,0.1c0.3,0.1,0.6,0.2,0.8,0.4c0.2,0.2,0.4,0.4,0.5,0.7
		c0.2,0.3,0.2,0.7,0.2,1.1c0,0.3-0.1,0.6-0.2,1l0.4-0.2c0.1-0.3,0.1-0.7,0.1-1c0-0.3-0.1-0.7-0.3-1c-0.2-0.4-0.4-0.6-0.6-0.9
		c-0.3-0.2-0.6-0.4-0.9-0.5c-0.4-0.1-0.7-0.2-1.1-0.1c-0.4,0-0.8,0.1-1.2,0.3c-0.4,0.2-0.7,0.4-1,0.7c-0.3,0.3-0.5,0.6-0.6,0.9
		c-0.2,0.4-0.2,0.7-0.2,1.1c0,0.4,0.1,0.7,0.2,1.1c0.1,0.1,0.1,0.3,0.2,0.4c0.1,0.1,0.2,0.2,0.2,0.3c0.2,0.2,0.3,0.3,0.5,0.4
		C17.4,108,17.6,108.1,17.7,108.1z"/>
	<polygon class="st0" points="18.5,111.1 20.4,110.9 23,107.3 23.3,107.8 21.1,110.9 24.8,110.5 25,111 18.8,111.6 	"/>
	<path class="st0" d="M18.5,111.1l1.9-0.2l2.7-3.7l0.4,0.6l-2.2,3l3.6-0.4l0.3,0.6c-2.1,0.2-4.3,0.4-6.4,0.6l-0.3-0.6L18.5,111.1z
		 M20.4,111l-1.8,0.2l0.2,0.3l6.1-0.6l-0.2-0.3l-3.8,0.4l2.3-3.1l-0.2-0.4L20.4,111L20.4,111z"/>
	<path class="st0" d="M22.6,117.7l2-1.6l-0.1-0.1c0,0,0,0-0.1-0.1c0,0-0.1-0.1-0.1-0.2c0,0-0.1-0.1-0.2-0.2l-0.3-0.4
		c-0.4-0.4-0.5-0.8-0.5-1.1c0-0.4,0.2-0.7,0.7-1.1l1.4-1.1l0.3,0.4l-1.3,1c-0.4,0.3-0.6,0.6-0.6,0.8c0,0.2,0.1,0.5,0.4,0.8l0.1,0.2
		c0,0,0.1,0.1,0.2,0.3c0.1,0.1,0.2,0.2,0.4,0.4l2.1-1.7l0.3,0.4l-4.5,3.6L22.6,117.7z"/>
	<path class="st0" d="M22.6,117.6l2-1.6l0,0c-0.1,0-0.1-0.1-0.1-0.1l-0.1-0.1l-0.1-0.1c-0.1-0.2-0.3-0.4-0.4-0.5
		c-0.2-0.2-0.3-0.4-0.4-0.6c-0.1-0.2-0.1-0.4-0.1-0.5c0-0.2,0.1-0.4,0.2-0.6c0.1-0.2,0.3-0.4,0.5-0.6l1.4-1.1l0.4,0.5l-1.3,1.1
		c-0.2,0.1-0.3,0.3-0.4,0.4c-0.1,0.1-0.1,0.2-0.1,0.3c0,0.1,0,0.2,0.1,0.3c0.1,0.1,0.2,0.3,0.3,0.5l0.1,0.2l0.1,0.1l0.1,0.2l0.3,0.4
		l2.1-1.7l0.4,0.5c-1.5,1.2-3.1,2.5-4.6,3.7L22.6,117.6L22.6,117.6z M24.7,116.1l-2,1.6L23,118l4.4-3.5l-0.2-0.3l-2.1,1.7
		c-0.2-0.2-0.4-0.4-0.6-0.6c-0.1-0.1-0.1-0.2-0.2-0.3c-0.1-0.2-0.3-0.3-0.3-0.5c-0.1-0.1-0.1-0.3-0.1-0.4c0-0.1,0.1-0.3,0.2-0.4
		c0.1-0.1,0.2-0.3,0.4-0.4l1.2-1l-0.2-0.3l-1.3,1.1c-0.2,0.2-0.4,0.4-0.5,0.5c-0.1,0.2-0.2,0.3-0.2,0.5c0,0.1,0,0.3,0.1,0.5
		c0.1,0.2,0.2,0.4,0.4,0.6l0.3,0.4l0.1,0.1c0.1,0.1,0.1,0.1,0.2,0.2l0,0.1c0,0,0,0,0.1,0.1L24.7,116.1L24.7,116.1z"/>
	<path class="st0" d="M24,118.9l5.8-2.7l-2.3,6l-0.4-0.4l0.8-1.9l-1.6-1.5l-1.8,0.9L24,118.9z M26.7,118.2l1.4,1.3l1-2.4L26.7,118.2
		z"/>
	<path class="st0" d="M24,118.9l6-2.8c-0.8,2.1-1.6,4.1-2.4,6.2l-0.5-0.5l0.8-1.9l-1.6-1.5l-1.8,0.9L24,118.9L24,118.9z M29.7,116.4
		l-5.6,2.6l0.3,0.3l1.8-0.9L28,120l-0.8,1.9l0.3,0.3L29.7,116.4z M26.8,118.2l1.2,1.1l0.8-2.1L26.8,118.2z M28,119.6l-1.4-1.4
		l2.6-1.2L28,119.6L28,119.6z"/>
	<path class="st0" d="M32.3,124.7l-0.4,0.5c-0.4,0-0.8-0.1-1.2-0.2c-0.2-0.1-0.5-0.2-0.7-0.4c-0.6-0.5-1-1.1-1-1.9
		c0-0.8,0.2-1.5,0.7-2.2c0.5-0.7,1.2-1.1,2-1.2c0.8-0.1,1.5,0,2.1,0.5c0.6,0.5,0.9,1,1.1,1.8l-0.4,0.5c-0.1-0.8-0.4-1.4-1-1.9
		c-0.5-0.4-1-0.5-1.7-0.4c-0.7,0.1-1.2,0.4-1.6,0.9l-0.1,0.1c-0.4,0.5-0.7,1.1-0.6,1.8c0,0.7,0.3,1.2,0.8,1.6
		C30.9,124.6,31.5,124.8,32.3,124.7z"/>
	<path class="st0" d="M32.4,124.7l-0.4,0.5h0c-0.2,0-0.4,0-0.6-0.1c-0.2,0-0.4-0.1-0.6-0.2l0,0c-0.1-0.1-0.3-0.1-0.4-0.2
		c-0.1-0.1-0.3-0.2-0.4-0.3c-0.3-0.3-0.6-0.5-0.7-0.9c-0.2-0.3-0.3-0.7-0.3-1.1c0-0.4,0-0.8,0.2-1.1c0.1-0.4,0.3-0.7,0.6-1.1
		c0.3-0.4,0.6-0.6,0.9-0.8c0.3-0.2,0.7-0.4,1.1-0.4c0.4-0.1,0.8-0.1,1.1,0c0.4,0.1,0.7,0.3,1,0.5c0.3,0.2,0.5,0.5,0.7,0.8
		c0.2,0.3,0.3,0.6,0.4,1l0,0l-0.5,0.7l0-0.2c0-0.4-0.1-0.7-0.3-1.1c-0.2-0.3-0.4-0.6-0.7-0.8c-0.2-0.2-0.5-0.3-0.7-0.4
		c-0.3-0.1-0.6-0.1-0.9,0c-0.3,0.1-0.6,0.2-0.9,0.3c-0.3,0.2-0.5,0.4-0.7,0.6l-0.1,0.1c-0.2,0.3-0.4,0.6-0.5,0.8s-0.2,0.6-0.2,0.9
		c0,0.3,0.1,0.6,0.2,0.9c0.1,0.3,0.3,0.5,0.5,0.7c0.3,0.2,0.6,0.4,0.9,0.5c0.3,0.1,0.7,0.1,1.1,0.1l0.2,0L32.4,124.7z M31.9,125.1
		l0.3-0.4c-0.3,0-0.7,0-1-0.1c-0.4-0.1-0.7-0.3-1-0.5c-0.3-0.2-0.4-0.4-0.6-0.7c-0.1-0.3-0.2-0.6-0.2-0.9c0-0.3,0-0.7,0.2-1
		s0.3-0.6,0.5-0.9l0.1-0.1c0.2-0.3,0.4-0.5,0.7-0.6c0.3-0.2,0.6-0.3,0.9-0.3c0.3-0.1,0.6-0.1,0.9,0c0.3,0.1,0.6,0.2,0.8,0.4
		c0.3,0.2,0.5,0.5,0.7,0.8c0.1,0.3,0.2,0.6,0.3,0.9l0.3-0.4c-0.1-0.3-0.2-0.6-0.4-0.9c-0.2-0.3-0.4-0.5-0.7-0.8
		c-0.3-0.2-0.6-0.4-1-0.5c-0.3-0.1-0.7-0.1-1.1,0c-0.4,0.1-0.7,0.2-1,0.4c-0.3,0.2-0.6,0.5-0.9,0.8c-0.3,0.3-0.5,0.7-0.6,1
		c-0.1,0.4-0.2,0.7-0.2,1.1c0,0.4,0.1,0.7,0.3,1c0.2,0.3,0.4,0.6,0.7,0.8c0.1,0.1,0.2,0.2,0.4,0.2c0.1,0.1,0.2,0.1,0.4,0.2
		c0.2,0.1,0.4,0.1,0.6,0.2C31.6,125.1,31.7,125.1,31.9,125.1z"/>
	<path class="st0" d="M32.8,126.1l3-5l0.4,0.3l-1.2,2l2.6,1.6l1.2-2l0.4,0.3l-3,5l-0.4-0.3l1.5-2.5l-2.6-1.6l-1.5,2.5L32.8,126.1z
		 M37.5,128.9l3-5l0.4,0.3l-2.9,5L37.5,128.9z"/>
	<path class="st0" d="M32.7,126.1l3-5l0.6,0.3l-1.2,2l2.5,1.5l1.2-2l0.6,0.3c-1,1.7-2,3.4-3,5.1l-0.6-0.3l1.5-2.5l-2.5-1.5l-1.5,2.5
		L32.7,126.1L32.7,126.1z M35.8,121.3l-2.9,4.9l0.3,0.2l1.5-2.5l2.7,1.6l-1.5,2.5l0.3,0.2l2.9-4.9l-0.3-0.2l-1.2,2l-2.7-1.6l1.2-2
		L35.8,121.3z M37.4,128.9l3-5l0.6,0.3c-1,1.7-2,3.4-3,5.1L37.4,128.9L37.4,128.9z M40.4,124l-2.9,4.9l0.3,0.2l2.9-4.9L40.4,124z"/>
	<polygon class="st0" points="44.1,132.2 46,127.3 44.7,126.7 44.9,126.3 48,127.5 47.9,128 46.5,127.4 44.6,132.4 	"/>
	<path class="st0" d="M44,132.2l1.9-4.9l-1.3-0.5l0.2-0.6l3.3,1.3l-0.2,0.6l-1.3-0.5l-1.9,5L44,132.2L44,132.2z M46.1,127.3
		l-1.9,4.9l0.4,0.1l1.9-5l1.3,0.5l0.1-0.3l-3-1.2l-0.1,0.3L46.1,127.3L46.1,127.3z"/>
	<polygon class="st0" points="47.8,133.6 49.7,128.1 52.4,129.1 52.2,129.5 50,128.7 49.4,130.5 51.5,131.2 51.4,131.7 49.3,130.9 
		48.4,133.3 50.6,134.1 50.4,134.5 	"/>
	<path class="st0" d="M47.7,133.6l2-5.5l2.8,1l-0.2,0.6l-2.2-0.8l-0.6,1.6l2.1,0.8l-0.2,0.6l-2.1-0.7l-0.8,2.3l2.2,0.8l-0.2,0.6
		L47.7,133.6L47.7,133.6z M49.7,128.2l-1.9,5.3l2.6,0.9l0.1-0.3l-2.2-0.8c0.3-0.8,0.6-1.7,0.9-2.5l2.1,0.7l0.1-0.3l-2.1-0.7l0.7-1.9
		l2.2,0.8l0.1-0.3L49.7,128.2z"/>
	<polygon class="st0" points="54.7,133.4 52.7,135.4 52.2,135.2 54.6,132.9 54.1,129.8 54.6,129.9 55,132.6 56.8,130.7 57.4,130.9 
		55.1,133.1 55.7,136.4 55.2,136.2 	"/>
	<path class="st0" d="M54.7,133.5l-1.9,1.9l-0.7-0.2l2.5-2.4l-0.5-3.2l0.7,0.2l0.4,2.5l1.8-1.8l0.7,0.2l-2.3,2.3l0.6,3.4l-0.7-0.2
		L54.7,133.5z M52.7,135.3l2.1-2.1l0.5,2.9l0.4,0.1l-0.6-3.2l2.2-2.2l-0.4-0.1l-1.9,2l-0.4-2.7l-0.4-0.1l0.5,3.1l-2.4,2.3
		L52.7,135.3z"/>
	<polygon class="st0" points="57.4,136.9 58.7,131.3 59.2,131.4 58.7,133.7 61.7,134.4 62.2,132.1 62.7,132.2 61.4,137.8 
		60.9,137.7 61.5,134.8 58.6,134.1 57.9,137 	"/>
	<path class="st0" d="M57.3,136.9l1.4-5.7l0.6,0.2l-0.6,2.3l2.8,0.7l0.6-2.3l0.6,0.1c-0.5,1.9-0.9,3.8-1.4,5.8l-0.6-0.2l0.7-2.9
		l-2.8-0.7l-0.7,2.9L57.3,136.9L57.3,136.9z M58.8,131.3l-1.3,5.5l0.4,0.1l0.7-2.9c1,0.3,2.1,0.5,3.1,0.7l-0.7,2.9l0.4,0.1l1.3-5.5
		l-0.4-0.1l-0.6,2.3l-3.1-0.7l0.6-2.3L58.8,131.3z"/>
	<path class="st0" d="M63.2,135.4c0.2-0.8,0.6-1.4,1.2-1.8c0.6-0.4,1.3-0.5,2-0.3c0.7,0.2,1.3,0.6,1.6,1.2c0.4,0.6,0.4,1.4,0.3,2.2
		c-0.2,0.8-0.6,1.4-1.2,1.8c-0.6,0.4-1.3,0.5-2,0.3c-0.7-0.2-1.3-0.6-1.6-1.2C63.1,136.9,63,136.2,63.2,135.4z M63.6,135.5
		c-0.2,0.7-0.1,1.3,0.2,1.8c0.3,0.6,0.7,0.9,1.3,1.1c0.6,0.2,1.2,0,1.7-0.3c0.5-0.4,0.8-0.9,1-1.5c0.2-0.7,0.1-1.3-0.2-1.8
		c-0.3-0.6-0.7-0.9-1.3-1.1c-0.6-0.1-1.2,0-1.7,0.3C64.1,134.3,63.8,134.8,63.6,135.5z"/>
	<path class="st0" d="M63.1,135.4c0.1-0.4,0.3-0.8,0.5-1.1c0.2-0.3,0.5-0.6,0.8-0.8c0.3-0.2,0.6-0.3,1-0.4c0.3-0.1,0.7,0,1.1,0.1
		c0.4,0.1,0.7,0.2,1,0.5c0.3,0.2,0.5,0.5,0.7,0.8c0.2,0.3,0.3,0.7,0.3,1.1c0,0.4,0,0.8-0.1,1.2c-0.1,0.4-0.3,0.8-0.5,1.1
		c-0.2,0.3-0.5,0.6-0.8,0.8c-0.3,0.2-0.6,0.3-1,0.4c-0.3,0.1-0.7,0-1.1-0.1c-0.4-0.1-0.7-0.2-1-0.5c-0.3-0.2-0.5-0.5-0.7-0.8
		c-0.2-0.3-0.3-0.7-0.4-1.1C63,136.2,63,135.8,63.1,135.4z M63.7,134.3c-0.2,0.3-0.3,0.7-0.4,1.1c-0.1,0.4-0.1,0.8-0.1,1.1
		c0,0.4,0.2,0.7,0.3,1c0.2,0.3,0.4,0.6,0.7,0.8c0.3,0.2,0.6,0.3,0.9,0.4c0.4,0.1,0.7,0.1,1,0.1c0.3-0.1,0.6-0.2,0.9-0.4
		c0.3-0.2,0.5-0.4,0.7-0.7c0.2-0.3,0.3-0.7,0.4-1.1c0.1-0.4,0.1-0.8,0.1-1.1c0-0.4-0.2-0.7-0.3-1c-0.2-0.3-0.4-0.6-0.7-0.8
		c-0.3-0.2-0.6-0.3-0.9-0.4c-0.4-0.1-0.7-0.1-1-0.1c-0.3,0.1-0.6,0.2-0.9,0.4C64.1,133.8,63.9,134,63.7,134.3z M63.7,135.5
		c-0.1,0.3-0.1,0.7-0.1,1c0,0.3,0.1,0.6,0.2,0.8c0.1,0.3,0.3,0.5,0.5,0.7c0.2,0.2,0.5,0.3,0.8,0.4c0.3,0.1,0.6,0.1,0.8,0
		c0.3-0.1,0.5-0.2,0.8-0.3c0.2-0.2,0.4-0.4,0.6-0.6c0.2-0.3,0.3-0.5,0.4-0.9c0.1-0.3,0.1-0.7,0.1-1c0-0.3-0.1-0.6-0.2-0.8
		c-0.1-0.3-0.3-0.5-0.5-0.7c-0.2-0.2-0.5-0.3-0.8-0.4c-0.3-0.1-0.6-0.1-0.8,0c-0.3,0-0.5,0.2-0.8,0.3c-0.2,0.2-0.4,0.4-0.6,0.6
		C63.9,134.9,63.8,135.2,63.7,135.5z M63.5,136.5c0-0.3,0-0.6,0.1-1c0.1-0.3,0.2-0.7,0.4-0.9c0.2-0.3,0.4-0.5,0.6-0.7
		c0.3-0.2,0.5-0.3,0.8-0.4c0.3-0.1,0.6,0,0.9,0c0.3,0.1,0.6,0.2,0.8,0.4c0.2,0.2,0.4,0.4,0.6,0.7c0.1,0.3,0.2,0.6,0.3,0.9
		c0,0.3,0,0.6-0.1,1c-0.1,0.3-0.2,0.7-0.4,0.9c-0.2,0.3-0.4,0.5-0.6,0.7c-0.3,0.2-0.5,0.3-0.8,0.4c-0.3,0.1-0.6,0-0.9,0
		c-0.3-0.1-0.6-0.2-0.8-0.4c-0.2-0.2-0.4-0.4-0.6-0.7C63.6,137.1,63.5,136.8,63.5,136.5z"/>
	<path class="st0" d="M74.3,137.6c0.1-0.8,0.5-1.5,1.1-1.9c0.6-0.4,1.2-0.6,2-0.4c0.7,0.1,1.3,0.5,1.7,1.1c0.4,0.6,0.5,1.4,0.4,2.2
		c-0.1,0.8-0.5,1.5-1.1,1.9c-0.6,0.4-1.2,0.6-2,0.4c-0.7-0.1-1.3-0.5-1.7-1.1C74.3,139.1,74.2,138.4,74.3,137.6z M74.8,137.6
		c-0.1,0.7,0,1.3,0.3,1.8c0.3,0.5,0.8,0.9,1.4,1c0.6,0.1,1.2,0,1.6-0.4c0.5-0.4,0.8-0.9,0.9-1.6c0.1-0.7,0-1.3-0.3-1.8
		c-0.3-0.5-0.8-0.9-1.4-1c-0.6-0.1-1.2,0-1.6,0.4C75.2,136.4,74.9,137,74.8,137.6z"/>
	<path class="st0" d="M74.3,137.5c0.1-0.4,0.2-0.8,0.4-1.1c0.2-0.3,0.4-0.6,0.7-0.8c0.3-0.2,0.6-0.4,1-0.4c0.3-0.1,0.7-0.1,1.1,0
		c0.4,0.1,0.7,0.2,1,0.4c0.3,0.2,0.5,0.4,0.7,0.8c0.2,0.3,0.3,0.7,0.4,1c0.1,0.4,0.1,0.8,0,1.2c-0.1,0.4-0.2,0.8-0.4,1.1
		c-0.2,0.3-0.4,0.6-0.7,0.8c-0.3,0.2-0.6,0.4-1,0.5c-0.3,0.1-0.7,0.1-1.1,0c-0.4-0.1-0.7-0.2-1-0.4c-0.3-0.2-0.5-0.4-0.7-0.8
		c-0.2-0.3-0.3-0.7-0.4-1S74.2,138,74.3,137.5z M74.8,136.5c-0.2,0.3-0.3,0.7-0.4,1.1c-0.1,0.4-0.1,0.8,0,1.1c0.1,0.4,0.2,0.7,0.4,1
		c0.2,0.3,0.4,0.5,0.7,0.7c0.3,0.2,0.6,0.3,1,0.4c0.4,0.1,0.7,0.1,1,0s0.6-0.2,0.9-0.4c0.3-0.2,0.5-0.5,0.7-0.8
		c0.2-0.3,0.3-0.7,0.4-1.1c0.1-0.4,0.1-0.8,0-1.1c-0.1-0.4-0.2-0.7-0.4-1c-0.2-0.3-0.4-0.5-0.7-0.7c-0.3-0.2-0.6-0.3-1-0.4
		c-0.4-0.1-0.7-0.1-1,0c-0.3,0.1-0.6,0.2-0.9,0.4C75.2,135.9,74.9,136.2,74.8,136.5z M74.9,137.7c-0.1,0.3-0.1,0.7,0,1
		c0,0.3,0.1,0.6,0.3,0.8c0.2,0.3,0.3,0.5,0.6,0.6c0.2,0.2,0.5,0.3,0.8,0.3c0.3,0.1,0.6,0,0.8,0c0.3-0.1,0.5-0.2,0.7-0.4
		c0.2-0.2,0.4-0.4,0.6-0.7c0.1-0.3,0.2-0.6,0.3-0.9c0.1-0.3,0.1-0.7,0-1c0-0.3-0.1-0.6-0.3-0.8s-0.3-0.5-0.6-0.6
		c-0.2-0.2-0.5-0.3-0.8-0.3c-0.3-0.1-0.6,0-0.8,0c-0.3,0.1-0.5,0.2-0.7,0.4s-0.4,0.4-0.6,0.7C75,137,74.9,137.3,74.9,137.7z
		 M74.7,138.6c-0.1-0.3,0-0.6,0-1c0.1-0.4,0.2-0.7,0.3-0.9c0.1-0.3,0.3-0.5,0.6-0.7c0.2-0.2,0.5-0.3,0.8-0.4c0.3-0.1,0.6-0.1,0.9,0
		c0.3,0.1,0.6,0.2,0.8,0.3c0.2,0.2,0.4,0.4,0.6,0.7s0.3,0.6,0.3,0.9c0,0.3,0,0.6,0,1c-0.1,0.4-0.2,0.7-0.3,0.9
		c-0.1,0.3-0.3,0.5-0.6,0.7c-0.2,0.2-0.5,0.3-0.8,0.4c-0.3,0.1-0.6,0.1-0.9,0c-0.3-0.1-0.6-0.2-0.8-0.3c-0.2-0.2-0.4-0.4-0.6-0.7
		C74.9,139.2,74.8,138.9,74.7,138.6z"/>
	<path class="st0" d="M70.6,134.2l2.7,0.4l-0.7,5.4l-0.5-0.1l0.7-5l-1.7-0.3l-0.4,2.9c-0.1,0.6-0.2,1.1-0.4,1.4
		c-0.2,0.4-0.6,0.6-1.1,0.5c0,0,0,0-0.1,0c0,0-0.1,0-0.1,0c-0.1,0-0.2,0-0.2-0.1l0.1-0.4l0,0c0,0,0,0,0,0l0,0c0,0,0,0,0,0
		c0,0,0,0,0.1,0c0,0,0,0,0.1,0c0.4,0.1,0.6-0.1,0.8-0.5c0.1-0.2,0.2-0.6,0.3-1.1L70.6,134.2z"/>
	<path class="st0" d="M70.6,134.1l2.7,0.4l-0.7,5.5L72,140l0.7-5l-1.6-0.2l-0.4,2.8c0,0.3-0.1,0.6-0.2,0.8c-0.1,0.2-0.1,0.4-0.2,0.6
		c-0.1,0.2-0.3,0.4-0.5,0.5c-0.2,0.1-0.4,0.1-0.7,0.1c0,0,0,0,0,0l0,0l0,0h0c0,0-0.1,0-0.1,0c0,0-0.1,0-0.1,0l0,0l0.1-0.6l0.1,0l0,0
		l0,0l0,0l0,0h0l0,0l0,0l0,0l0,0c0.2,0,0.3,0,0.4-0.1c0.1-0.1,0.2-0.2,0.3-0.4c0-0.1,0.1-0.2,0.1-0.4c0-0.2,0.1-0.4,0.1-0.6
		L70.6,134.1L70.6,134.1z M73.2,134.7l-2.5-0.4l-0.4,3.3c0,0.2-0.1,0.5-0.1,0.6c0,0.2-0.1,0.3-0.1,0.4c-0.1,0.2-0.2,0.3-0.4,0.4
		c-0.1,0.1-0.3,0.1-0.5,0.1c0,0,0,0,0,0l0,0l0,0l0,0c0,0,0,0,0,0l0,0l0,0l0,0.3c0,0,0,0,0.1,0c0,0,0.1,0,0.1,0c0,0,0.1,0,0.1,0l0,0
		c0.2,0,0.4,0,0.6-0.1c0.2-0.1,0.3-0.2,0.4-0.4c0.1-0.1,0.1-0.3,0.2-0.5c0.1-0.2,0.1-0.5,0.2-0.8l0.4-3l1.9,0.3l-0.7,5l0.3,0
		L73.2,134.7z"/>
	<polygon class="st0" points="80.9,141.3 81.2,135.8 83.3,136 83.3,136.4 81.7,136.3 81.4,141.3 	"/>
	<path class="st0" d="M80.8,141.3l0.3-5.5l2.3,0.2l0,0.6l-1.7-0.1l-0.3,5L80.8,141.3L80.8,141.3z M81.3,135.9l-0.3,5.3l0.3,0l0.3-5
		l1.7,0.1l0-0.3L81.3,135.9z"/>
	<polygon class="st0" points="85.1,141.8 85.3,136.3 85.8,136.3 85.6,141.8 	"/>
	<path class="st0" d="M85,141.7l0.2-5.5l0.6,0c-0.1,1.9-0.1,3.7-0.2,5.6L85,141.7L85,141.7z M85.4,136.4l-0.2,5.3l0.3,0l0.2-5.3
		L85.4,136.4z"/>
	<polygon class="st0" points="87.7,141.9 87.9,136.5 88.4,136.5 88.2,141.9 	"/>
	<path class="st0" d="M87.6,141.9l0.2-5.5l0.6,0c-0.1,1.9-0.1,3.7-0.2,5.6L87.6,141.9L87.6,141.9z M87.9,136.5l-0.2,5.3l0.3,0
		l0.2-5.3L87.9,136.5z"/>
	<path class="st0" d="M93.6,142.2l0.1-5.4l2.5,0.1l0,0.4l-2-0.1l0,1.8l0.8,0c0.6,0,1.1,0.2,1.4,0.6c0.2,0.2,0.3,0.6,0.3,1
		c0,0.8-0.4,1.3-1.1,1.5c-0.2,0.1-0.5,0.1-0.8,0.1L93.6,142.2z M94.1,141.8l0.7,0c0,0,0.1,0,0.3,0c0.1,0,0.2,0,0.4-0.1
		c0.5-0.1,0.7-0.5,0.7-1.1c0-0.5-0.2-0.9-0.6-1.1c-0.1-0.1-0.2-0.1-0.3-0.1c-0.1,0-0.2,0-0.2,0l-0.8,0L94.1,141.8z"/>
	<path class="st0" d="M93.5,142.2l0.1-5.5l2.6,0.1l0,0.6l-2-0.1l0,1.7l0.7,0c0.3,0,0.6,0.1,0.8,0.2c0.2,0.1,0.4,0.3,0.6,0.5
		c0.1,0.1,0.2,0.3,0.2,0.4c0,0.2,0.1,0.4,0.1,0.6c0,0.4-0.1,0.7-0.3,1c-0.2,0.3-0.5,0.4-0.8,0.5c-0.1,0-0.2,0-0.4,0.1s-0.3,0-0.5,0
		L93.5,142.2L93.5,142.2z M93.7,136.9l-0.1,5.3l1,0c0.2,0,0.3,0,0.5,0c0.1,0,0.3,0,0.4-0.1c0.3-0.1,0.6-0.3,0.8-0.5
		c0.2-0.2,0.3-0.5,0.3-0.9c0-0.2,0-0.4-0.1-0.6c0-0.2-0.1-0.3-0.2-0.4c-0.2-0.2-0.3-0.3-0.6-0.4c-0.2-0.1-0.5-0.2-0.8-0.2l-0.9,0
		l0-1.9l2,0.1l0-0.3L93.7,136.9z M94.1,141.8l0.6,0c0,0,0,0,0.1,0l0.2,0c0.1,0,0.1,0,0.2,0c0.1,0,0.1,0,0.2,0
		c0.2-0.1,0.4-0.2,0.5-0.4c0.1-0.2,0.2-0.4,0.2-0.7c0-0.3,0-0.5-0.1-0.6c-0.1-0.2-0.2-0.3-0.4-0.4c-0.1,0-0.1,0-0.2-0.1
		c-0.1,0-0.1,0-0.1,0c0,0-0.1,0-0.1,0c0,0-0.1,0-0.1,0l-0.7,0L94.1,141.8z M94.7,141.9l-0.7,0c0-0.8,0-1.7,0-2.5l0.9,0
		c0,0,0.1,0,0.1,0c0,0,0.1,0,0.1,0c0.1,0,0.1,0,0.2,0c0.1,0,0.1,0,0.2,0.1c0.2,0.1,0.4,0.2,0.5,0.4c0.1,0.2,0.2,0.4,0.2,0.7
		c0,0.3-0.1,0.5-0.2,0.7c-0.1,0.2-0.3,0.3-0.6,0.4l0,0c-0.1,0-0.1,0-0.2,0c-0.1,0-0.1,0-0.2,0L94.7,141.9
		C94.8,141.9,94.8,141.9,94.7,141.9z"/>
	<polygon class="st0" points="98.9,142.4 99.6,140.8 97.8,137 98.4,137 99.8,140.2 101.2,137 101.6,137 99.4,142.4 	"/>
	<path class="st0" d="M98.9,142.4l0.7-1.6l-1.8-3.9l0.7,0l1.4,3.2l1.3-3.1l0.6,0c-0.8,1.8-1.5,3.7-2.3,5.5L98.9,142.4L98.9,142.4z
		 M99.7,140.8l-0.6,1.5l0.3,0l2.2-5.3l-0.3,0l-1.4,3.3l-1.5-3.4l-0.4,0L99.7,140.8L99.7,140.8z"/>
	<path class="st0" d="M104.4,136.9l3.1,0l0.1,5h0.7l0,1.5h-0.5l0-1.1l-3.8,0l0,1.1h-0.5l0-1.5h0.1c0.4,0,0.7-0.3,0.8-0.8
		c0.1-0.4,0.2-0.8,0.1-1.3L104.4,136.9z M105,137.3l0,2.4c0,0.5,0,0.9-0.1,1.2c-0.1,0.4-0.3,0.8-0.5,1l2.6,0l-0.1-4.6L105,137.3z"/>
	<path class="st0" d="M104.4,136.8l3.1,0l0.1,5l0.7,0l0,1.7h-0.6l0-1.1l-3.7,0l0,1.1h-0.6l0-1.7h0.1c0.2,0,0.3-0.1,0.5-0.2
		c0.1-0.1,0.2-0.3,0.3-0.6c0-0.2,0.1-0.4,0.1-0.6c0-0.2,0-0.5,0-0.7L104.4,136.8L104.4,136.8z M107.4,137l-2.9,0l0,2.8
		c0,0.3,0,0.5,0,0.7c0,0.2-0.1,0.4-0.1,0.6c-0.1,0.3-0.2,0.5-0.4,0.7c-0.2,0.2-0.3,0.2-0.6,0.2l0,1.4h0.4l0-1.1c1.3,0,2.6,0,4,0
		l0,1.1h0.4l0-1.4h-0.7L107.4,137z M105,137.4l0,2.3c0,0.3,0,0.5,0,0.7c0,0.2,0,0.4-0.1,0.5c0,0.2-0.1,0.4-0.2,0.6
		c-0.1,0.1-0.1,0.2-0.2,0.3l2.4,0l-0.1-4.4L105,137.4z M104.9,139.8l0-2.5h2.1l0.1,4.7c-1,0-1.9,0-2.9,0l0.1-0.1
		c0.1-0.1,0.2-0.3,0.3-0.4c0.1-0.2,0.2-0.3,0.2-0.6c0-0.1,0-0.3,0.1-0.5C104.9,140.2,104.9,140,104.9,139.8z"/>
	<polygon class="st0" points="109.5,142.3 109.4,136.8 109.9,136.8 110,142.3 	"/>
	<path class="st0" d="M109.5,142.3l-0.1-5.5l0.6,0c0,1.9,0.1,3.7,0.1,5.6L109.5,142.3L109.5,142.3z M109.5,136.9l0.1,5.3l0.3,0
		l-0.1-5.3H109.5z"/>
	<path class="st0" d="M112,136.6l1,0c0.1,0,0.2,0,0.3,0c0.1,0,0.3,0,0.4,0.1c0.6,0.1,0.9,0.5,0.9,1.2c0,0.6-0.2,1-0.7,1.2v0
		c0,0,0.1,0,0.1,0c0,0,0.1,0,0.1,0c0.3,0.1,0.5,0.2,0.7,0.5c0.2,0.2,0.3,0.5,0.3,0.9c0,0.9-0.4,1.4-1.2,1.6c-0.1,0-0.1,0-0.1,0
		l-1.6,0L112,136.6z M112.7,141.6l0.8,0c0.3,0,0.6-0.1,0.8-0.3c0.2-0.2,0.3-0.5,0.3-0.8c0,0,0,0,0,0v0c0-0.4-0.2-0.7-0.4-0.9
		c-0.2-0.2-0.5-0.2-0.9-0.2l-0.8,0L112.7,141.6z M112.6,138.9l0.6,0c0.2,0,0.3,0,0.5-0.1c0.3-0.2,0.5-0.5,0.5-0.9
		c0-0.6-0.4-0.9-1-0.8l-0.6,0L112.6,138.9z"/>
	<path class="st0" d="M112,136.6l1,0c0.1,0,0.1,0,0.2,0c0.1,0,0.1,0,0.1,0c0.1,0,0.1,0,0.2,0c0.1,0,0.1,0,0.2,0
		c0.3,0.1,0.5,0.2,0.7,0.4c0.2,0.2,0.2,0.5,0.3,0.8c0,0.3,0,0.6-0.2,0.8c-0.1,0.2-0.2,0.3-0.4,0.4c0,0,0,0,0,0
		c0.2,0,0.3,0.1,0.4,0.2c0.1,0.1,0.2,0.2,0.3,0.3c0.1,0.1,0.2,0.3,0.2,0.4c0,0.1,0.1,0.3,0.1,0.5c0,0.5-0.1,0.8-0.3,1.1
		c-0.2,0.3-0.5,0.5-1,0.5c0,0-0.1,0-0.1,0c0,0,0,0-0.1,0l-1.6,0C112.1,140.3,112,138.4,112,136.6L112,136.6z M113,136.7l-1,0
		l0.2,5.3l1.5,0c0,0,0,0,0.1,0c0,0,0,0,0.1,0c0.4-0.1,0.7-0.2,0.9-0.5c0.2-0.3,0.3-0.6,0.3-1c0-0.2,0-0.3-0.1-0.5s-0.1-0.3-0.2-0.4
		c-0.1-0.1-0.2-0.2-0.3-0.3c-0.1-0.1-0.2-0.1-0.4-0.2c0,0,0,0,0,0c0,0,0,0,0,0l0,0c0,0,0,0,0,0h-0.1l0-0.1l0,0
		c0.2-0.1,0.4-0.3,0.5-0.4c0.1-0.2,0.2-0.4,0.1-0.7c0-0.3-0.1-0.6-0.2-0.7s-0.3-0.3-0.6-0.4c-0.1,0-0.1,0-0.2,0c-0.1,0-0.1,0-0.2,0
		c0,0-0.1,0-0.1,0S113.1,136.7,113,136.7z M112.8,141.5l0.7,0c0.2,0,0.3,0,0.4-0.1c0.1,0,0.2-0.1,0.3-0.2c0.1-0.1,0.2-0.2,0.2-0.3
		c0.1-0.1,0.1-0.3,0.1-0.5c0,0,0,0,0,0h0v0v0h0l0,0v0c0-0.2,0-0.3-0.1-0.5c-0.1-0.1-0.2-0.2-0.3-0.3c-0.1-0.1-0.2-0.1-0.4-0.2
		c-0.1,0-0.3,0-0.5,0l-0.7,0L112.8,141.5z M113.5,141.7l-0.9,0l-0.1-2.4l0.9,0c0.2,0,0.4,0,0.5,0.1s0.3,0.1,0.4,0.2
		c0.1,0.1,0.2,0.2,0.3,0.4c0.1,0.2,0.1,0.3,0.1,0.5l0,0c0,0.1,0,0,0,0c0,0.2,0,0.4-0.1,0.5c-0.1,0.1-0.2,0.3-0.3,0.4
		c-0.1,0.1-0.2,0.2-0.4,0.2C113.8,141.6,113.7,141.7,113.5,141.7z M114.6,140.5L114.6,140.5L114.6,140.5L114.6,140.5z M112.7,138.9
		l0.6,0c0.1,0,0.2,0,0.2,0c0.1,0,0.1,0,0.2-0.1c0.2-0.1,0.3-0.2,0.3-0.3c0.1-0.1,0.1-0.3,0.1-0.5c0-0.3-0.1-0.5-0.3-0.6
		c-0.2-0.1-0.4-0.2-0.7-0.2l-0.6,0L112.7,138.9z M113.2,139l-0.7,0l-0.1-2l0.7,0c0.4,0,0.6,0.1,0.8,0.2c0.2,0.2,0.3,0.4,0.3,0.7
		c0,0.2,0,0.4-0.1,0.6c-0.1,0.2-0.2,0.3-0.4,0.4c-0.1,0-0.2,0.1-0.3,0.1C113.4,139,113.3,139,113.2,139z"/>
	<polygon class="st0" points="117.2,141.6 116.8,136.2 119.4,136.1 119.4,136.5 117.3,136.6 117.4,138.3 119.5,138.2 119.5,138.7 
		117.5,138.8 117.6,141.2 119.7,141.1 119.8,141.5 	"/>
	<path class="st0" d="M117.1,141.6l-0.4-5.5l2.7-0.1l0,0.6l-2.1,0.1l0.1,1.6l2.1-0.1l0,0.6l-2.1,0.1l0.1,2.3l2.1-0.1l0,0.6
		L117.1,141.6L117.1,141.6z M116.9,136.3l0.4,5.3l2.5-0.1l0-0.3l-2.1,0.1l-0.2-2.5l2.1-0.1l0-0.3l-2.1,0.1l-0.1-1.9l2.1-0.1l0-0.3
		L116.9,136.3z"/>
	<path class="st0" d="M122.5,135.6l2.7-0.2l0.5,5.4l-0.5,0l-0.5-5L123,136l0.3,2.9c0.1,0.6,0,1.1,0,1.4c-0.1,0.5-0.4,0.7-0.9,0.8
		c0,0,0,0-0.1,0c0,0-0.1,0-0.1,0c-0.1,0-0.2,0-0.3,0l0-0.4l0,0c0,0,0,0,0,0l0,0c0,0,0,0,0,0c0,0,0,0,0.1,0c0,0,0,0,0.1,0
		c0.4,0,0.6-0.2,0.7-0.6c0-0.2,0-0.6,0-1.1L122.5,135.6z"/>
	<path class="st0" d="M122.5,135.5l2.8-0.2l0.5,5.6l-0.6,0l-0.5-5l-1.6,0.1l0.3,2.8c0,0.3,0,0.6,0,0.8s0,0.4-0.1,0.6
		c-0.1,0.3-0.2,0.4-0.4,0.6c-0.2,0.1-0.4,0.2-0.6,0.2c0,0,0,0,0,0l0,0h0h0c0,0-0.1,0-0.1,0c0,0-0.1,0-0.1,0l0,0l-0.1-0.6l0.1,0l0,0
		l0,0l0,0h0l0,0h0h0h0c0.2,0,0.3-0.1,0.4-0.2c0.1-0.1,0.2-0.2,0.2-0.4c0-0.1,0-0.3,0-0.4s0-0.4,0-0.6L122.5,135.5L122.5,135.5z
		 M125.2,135.4l-2.6,0.2l0.3,3.3c0,0.3,0,0.5,0,0.7c0,0.2,0,0.3,0,0.5c0,0.2-0.1,0.4-0.2,0.5c-0.1,0.1-0.3,0.2-0.5,0.2c0,0,0,0,0,0
		l0,0h0h0c0,0,0,0,0,0l0,0h0l0,0.3c0,0,0,0,0.1,0c0,0,0.1,0,0.1,0c0,0,0.1,0,0.1,0h0c0.2,0,0.4-0.1,0.6-0.2c0.1-0.1,0.3-0.3,0.3-0.5
		c0-0.2,0.1-0.3,0.1-0.6c0-0.2,0-0.5,0-0.8l-0.3-3l1.9-0.2l0.5,5l0.3,0L125.2,135.4z"/>
	<path class="st0" d="M128.1,140.4l-0.9-5.4l0.5-0.1l0.4,2.2l0.8-0.1c0.3,0,0.6-0.1,0.8,0c0.6,0.1,1,0.5,1.1,1.3
		c0.1,0.8-0.1,1.3-0.8,1.6c-0.2,0.1-0.5,0.2-0.8,0.2L128.1,140.4z M128.5,139.8l0.7-0.1c0,0,0.1,0,0.3-0.1c0.1,0,0.2-0.1,0.3-0.1
		c0.2-0.1,0.3-0.2,0.4-0.4c0.1-0.2,0.1-0.4,0.1-0.8c-0.1-0.5-0.4-0.8-0.8-0.9c-0.1,0-0.2,0-0.3,0c-0.1,0-0.1,0-0.2,0l-0.8,0.1
		L128.5,139.8z"/>
	<path class="st0" d="M128,140.4l-1-5.4l0.6-0.1l0.4,2.3l0.7-0.1c0.2,0,0.3,0,0.4,0c0.1,0,0.3,0,0.4,0c0.3,0.1,0.6,0.2,0.8,0.4
		c0.2,0.2,0.3,0.5,0.4,0.9c0.1,0.4,0,0.7-0.1,1s-0.4,0.5-0.7,0.7c-0.1,0.1-0.2,0.1-0.4,0.1s-0.3,0.1-0.5,0.1L128,140.4L128,140.4z
		 M127.2,135l0.9,5.2l1-0.2c0.2,0,0.3-0.1,0.4-0.1s0.3-0.1,0.4-0.1c0.3-0.1,0.5-0.4,0.6-0.6c0.1-0.3,0.1-0.6,0.1-1
		c-0.1-0.4-0.2-0.6-0.4-0.8c-0.2-0.2-0.4-0.3-0.7-0.4c-0.1,0-0.2,0-0.4,0c-0.1,0-0.3,0-0.4,0l-0.9,0.1l-0.4-2.2L127.2,135z
		 M128.5,139.8l0.6-0.1c0,0,0,0,0.1,0l0.2,0c0.1,0,0.1,0,0.2,0c0.1,0,0.1,0,0.1-0.1c0.1,0,0.1-0.1,0.2-0.2c0.1-0.1,0.1-0.1,0.2-0.2
		c0.1-0.1,0.1-0.2,0.1-0.3c0-0.1,0-0.3,0-0.4c0-0.3-0.1-0.5-0.3-0.6c-0.1-0.1-0.3-0.2-0.5-0.3c-0.1,0-0.1,0-0.2,0c0,0-0.1,0-0.1,0
		c0,0-0.1,0-0.1,0c0,0-0.1,0-0.1,0l-0.7,0.1L128.5,139.8z M129.1,139.8l-0.7,0.1l-0.4-2.4l0.9-0.1c0.1,0,0.1,0,0.1,0
		c0,0,0.1,0,0.1,0c0,0,0.1,0,0.2,0c0.1,0,0.1,0,0.2,0c0.2,0,0.4,0.2,0.6,0.3c0.1,0.2,0.2,0.4,0.3,0.7c0,0.2,0,0.3,0,0.5
		c0,0.1-0.1,0.3-0.1,0.4c-0.1,0.1-0.1,0.2-0.2,0.3c-0.1,0.1-0.2,0.1-0.2,0.2l0,0c0,0-0.1,0.1-0.2,0.1c-0.1,0-0.1,0-0.2,0.1
		L129.1,139.8C129.2,139.8,129.2,139.8,129.1,139.8z"/>
	<polygon class="st0" points="133,139.5 131.8,134.2 132.2,134.1 132.7,136.3 135.5,135.7 135,133.5 135.4,133.4 136.6,138.7 
		136.2,138.8 135.6,136.1 132.8,136.7 133.4,139.4 	"/>
	<path class="st0" d="M132.9,139.5l-1.2-5.4l0.6-0.1l0.5,2.2l2.6-0.6l-0.5-2.2l0.6-0.1c0.4,1.8,0.8,3.6,1.3,5.4l-0.6,0.1l-0.6-2.7
		l-2.6,0.6l0.6,2.7L132.9,139.5L132.9,139.5z M131.8,134.3l1.2,5.2l0.3-0.1l-0.6-2.7c1-0.2,1.9-0.4,2.9-0.6l0.6,2.7l0.3-0.1
		l-1.2-5.2l-0.3,0.1l0.5,2.2c-1,0.2-1.9,0.4-2.9,0.6l-0.5-2.2L131.8,134.3z"/>
	<polygon class="st0" points="137.3,132.9 137.8,132.8 138.8,137 141,131.9 142.3,137.4 141.8,137.5 140.8,133.3 138.6,138.4 	"/>
	<path class="st0" d="M137.3,132.9l0.5-0.1l0.9,4.1l2.2-5.1l1.3,5.8l-0.6,0.1l-0.9-4.1l-2.2,5.1
		C138.1,136.7,137.7,134.8,137.3,132.9L137.3,132.9z M137.7,132.9l-0.3,0.1l1.2,5.3l2.2-5.1l1,4.3l0.3-0.1l-1.2-5.3l-2.2,5.1
		L137.7,132.9z"/>
	<polygon class="st0" points="145,134.1 144.6,136.7 144.1,136.8 144.7,133.7 142.6,131.6 143.1,131.4 144.8,133.3 145.2,130.8 
		145.7,130.7 145.2,133.6 147.4,135.9 146.9,136 	"/>
	<path class="st0" d="M145.1,134.2l-0.4,2.5l-0.7,0.2l0.6-3.1l-2.1-2.2l0.7-0.2l1.6,1.8l0.4-2.3l0.7-0.2l-0.6,3l2.3,2.3l-0.6,0.2
		L145.1,134.2z M144.5,136.6l0.5-2.7l1.9,2l0.4-0.1l-2.1-2.2l0.5-2.9l-0.4,0.1l-0.4,2.5l-1.7-1.9l-0.4,0.1l2,2.1l-0.6,3L144.5,136.6
		z"/>
	<polygon class="st0" points="151.9,134.3 150.6,128.8 154.2,132.7 154.4,127.5 157,132.5 156.6,132.7 154.7,129.1 154.5,133.6 
		151.4,130.3 152.3,134.2 	"/>
	<path class="st0" d="M151.8,134.4l-1.4-5.8l3.7,4l0.2-5.3c0.9,1.8,1.8,3.6,2.7,5.4l-0.5,0.2l-1.7-3.4l-0.2,4.5l-3.1-3.3l0.9,3.7
		L151.8,134.4L151.8,134.4z M150.7,129l1.3,5.2l0.3-0.1l-1-4.1l3.2,3.5l0.2-4.7l1.9,3.8l0.3-0.1l-2.4-4.8l-0.2,5.1L150.7,129z"/>
	<path class="st0" d="M157.8,132.1l-0.3-6l4.3,4.2l-0.4,0.2l-1.3-1.3l-1.9,0.8l0.1,1.9L157.8,132.1z M158.1,129.5l1.6-0.7l-1.7-1.7
		L158.1,129.5z"/>
	<path class="st0" d="M157.7,132.1l-0.3-6.1l4.5,4.4l-0.6,0.3l-1.3-1.4l-1.8,0.8l0.1,1.9L157.7,132.1L157.7,132.1z M157.6,126.3
		l0.3,5.7l0.3-0.1l-0.1-1.9l2-0.8l1.3,1.3l0.3-0.1L157.6,126.3z M158.2,129.5l1.4-0.6l-1.5-1.5L158.2,129.5z M159.7,128.9l-1.7,0.7
		l-0.1-2.7L159.7,128.9L159.7,128.9z"/>
	<polygon class="st0" points="164.5,129.1 162,124.7 160.9,125.4 160.6,125 163.3,123.5 163.6,123.9 162.4,124.5 164.9,128.9 	"/>
	<path class="st0" d="M164.4,129.1l-2.5-4.3l-1.1,0.6l-0.3-0.5c0.9-0.5,1.9-1,2.8-1.6l0.3,0.5l-1.1,0.6l2.5,4.3L164.4,129.1
		L164.4,129.1z M162.1,124.7l2.5,4.3l0.3-0.2l-2.5-4.3l1.1-0.6l-0.1-0.3l-2.6,1.4l0.2,0.3L162.1,124.7L162.1,124.7z"/>
	<polygon class="st0" points="168.2,127 165,122.5 167.2,121.1 167.4,121.4 165.7,122.6 166.7,124.1 168.4,122.9 168.6,123.3 
		166.9,124.4 168.3,126.4 170.1,125.2 170.3,125.5 	"/>
	<path class="st0" d="M168.1,127l-3.2-4.5l2.3-1.5l0.3,0.5l-1.8,1.2l0.9,1.3l1.7-1.2l0.3,0.5l-1.7,1.2l1.3,1.9l1.8-1.2l0.3,0.5
		C169.7,126.1,168.9,126.6,168.1,127L168.1,127z M165.1,122.6l3,4.3l2-1.4l-0.2-0.2l-1.8,1.2l-1.4-2.1l1.7-1.2l-0.2-0.2l-1.7,1.2
		l-1.1-1.5l1.8-1.2l-0.2-0.2L165.1,122.6z"/>
	<path class="st0" d="M172.2,124.2l-3.4-4.2l1.1-0.8c0.2-0.1,0.4-0.2,0.5-0.3c0.6-0.2,1.1,0,1.5,0.5c0.5,0.6,0.5,1.1,0.2,1.6
		c-0.1,0.1-0.2,0.3-0.4,0.4L171,122l1.6,2L172.2,124.2z M169.4,120.1l1.3,1.6l0.7-0.5c0.1-0.1,0.2-0.2,0.3-0.3
		c0.2-0.3,0.2-0.7-0.1-1.1c-0.2-0.2-0.4-0.4-0.6-0.4c-0.3,0-0.5,0-0.7,0.1c0,0-0.1,0.1-0.2,0.1L169.4,120.1z"/>
	<path class="st0" d="M172.2,124.3l-3.5-4.3l1.1-0.9c0.1-0.1,0.2-0.1,0.3-0.2s0.2-0.1,0.3-0.1c0.3-0.1,0.6-0.1,0.9,0
		c0.3,0.1,0.5,0.3,0.8,0.6s0.4,0.6,0.4,0.9c0,0.3,0,0.6-0.2,0.8c-0.1,0.1-0.1,0.2-0.2,0.2c-0.1,0.1-0.2,0.1-0.2,0.2l-0.6,0.5l1.6,2
		L172.2,124.3L172.2,124.3z M168.9,120l3.4,4.1l0.3-0.2l-1.6-2l0.7-0.6c0.1-0.1,0.2-0.1,0.2-0.2c0.1-0.1,0.1-0.1,0.2-0.2
		c0.2-0.2,0.2-0.5,0.2-0.7c0-0.3-0.2-0.5-0.4-0.8c-0.2-0.3-0.5-0.5-0.7-0.5c-0.2-0.1-0.5-0.1-0.8,0c-0.1,0-0.2,0.1-0.2,0.1
		c-0.1,0-0.2,0.1-0.3,0.2L168.9,120z M169.5,120.1l1.2,1.5l0.6-0.5c0.1,0,0.1-0.1,0.2-0.1c0,0,0.1-0.1,0.1-0.1
		c0.1-0.1,0.1-0.3,0.1-0.5c0-0.2-0.1-0.4-0.3-0.5c-0.1-0.1-0.2-0.2-0.3-0.3c-0.1-0.1-0.2-0.1-0.2-0.1l0,0c-0.1,0-0.2,0-0.3,0
		c-0.1,0-0.2,0.1-0.3,0.1c0,0,0,0-0.1,0c0,0-0.1,0-0.1,0.1L169.5,120.1z M170.7,121.7l-1.3-1.6l0.7-0.6c0,0,0.1,0,0.1-0.1
		c0,0,0.1,0,0.1,0c0.1-0.1,0.2-0.1,0.4-0.1s0.3,0,0.4,0c0.1,0,0.2,0.1,0.3,0.1c0.1,0.1,0.2,0.2,0.3,0.3c0.2,0.2,0.3,0.4,0.3,0.6
		c0,0.2,0,0.4-0.1,0.6c0,0.1-0.1,0.1-0.1,0.2c-0.1,0-0.1,0.1-0.2,0.2L170.7,121.7L170.7,121.7z"/>
	<polygon class="st0" points="175.8,121.5 172.1,117.5 172.4,117.2 176.1,121.2 	"/>
	<path class="st0" d="M175.7,121.5l-3.8-4l0.5-0.4l3.8,4.1L175.7,121.5L175.7,121.5z M172.2,117.5l3.6,3.9l0.3-0.2l-3.6-3.9
		L172.2,117.5z"/>
	<path class="st0" d="M177.4,120.1l-2.6-5.4l5.6,2.3l-0.3,0.4l-1.8-0.7l-1.4,1.5l0.8,1.7L177.4,120.1z M176.7,117.6l1.2-1.2
		l-2.2-0.9L176.7,117.6z"/>
	<path class="st0" d="M177.3,120.1l-2.6-5.6l5.8,2.4l-0.4,0.5l-1.8-0.7l-1.4,1.4l0.8,1.7L177.3,120.1L177.3,120.1z M175,114.8
		l2.4,5.2l0.2-0.2l-0.8-1.7c0.5-0.5,1-1,1.5-1.5l1.8,0.7l0.2-0.2L175,114.8z M176.7,117.5l1.1-1.1l-2-0.8L176.7,117.5z M178,116.4
		l-1.3,1.3l-1.1-2.4L178,116.4L178,116.4z"/>
	<path class="st0" d="M177.3,112l1.6-2.2l4.5,3.1l-0.3,0.4l-4.1-2.8l-1,1.4l2.4,1.7c0.5,0.4,0.9,0.7,1.1,1c0.3,0.4,0.3,0.8,0,1.2
		c0,0,0,0,0,0c0,0,0,0,0,0.1c-0.1,0.1-0.1,0.1-0.2,0.2l-0.4-0.2l0,0c0,0,0,0,0,0l0,0c0,0,0,0,0,0c0,0,0,0,0,0c0,0,0,0,0,0
		c0.2-0.3,0.2-0.6-0.1-0.9c-0.1-0.2-0.4-0.4-0.8-0.7L177.3,112z"/>
	<path class="st0" d="M177.2,111.9l1.6-2.3l4.6,3.2l-0.4,0.5l-4.1-2.8l-0.9,1.3l2.4,1.6c0.3,0.2,0.5,0.4,0.7,0.5
		c0.2,0.2,0.3,0.3,0.4,0.5c0.1,0.2,0.2,0.4,0.2,0.6c0,0.2-0.1,0.4-0.2,0.6c0,0,0,0,0,0l0,0c0,0,0,0,0,0c0,0-0.1,0.1-0.1,0.1
		c0,0-0.1,0.1-0.1,0.1l0,0l-0.5-0.3l0.1-0.1l0,0l0,0l0,0l0,0l0,0l0,0c0,0,0,0,0,0c0,0,0,0,0,0l0,0l0,0l0,0c0.1-0.1,0.1-0.3,0.1-0.4
		c0-0.1-0.1-0.3-0.2-0.4c-0.1-0.1-0.2-0.2-0.3-0.3c-0.1-0.1-0.3-0.2-0.5-0.4L177.2,111.9L177.2,111.9z M178.9,109.9l-1.5,2.1
		l2.7,1.9c0.2,0.1,0.4,0.3,0.5,0.4c0.1,0.1,0.3,0.2,0.3,0.3c0.1,0.2,0.2,0.3,0.2,0.5c0,0.2,0,0.3-0.2,0.5c0,0,0,0,0,0l0,0l0,0
		c0,0,0,0,0,0c0,0,0,0,0,0l0,0l0,0l0.2,0.2c0,0,0,0,0,0c0,0,0.1-0.1,0.1-0.1c0,0,0-0.1,0.1-0.1l0,0c0.1-0.2,0.2-0.4,0.2-0.6
		c0-0.2-0.1-0.4-0.2-0.6c-0.1-0.1-0.2-0.3-0.4-0.4c-0.2-0.2-0.4-0.3-0.7-0.5l-2.5-1.7l1.1-1.5l4.1,2.8l0.2-0.3L178.9,109.9z"/>
	<polygon class="st0" points="184.5,110.4 179.7,107.9 179.9,107.5 184.7,110 	"/>
	<path class="st0" d="M184.5,110.5l-4.9-2.6l0.3-0.5c1.6,0.9,3.3,1.7,4.9,2.6L184.5,110.5L184.5,110.5z M179.8,107.9l4.7,2.5
		l0.2-0.3l-4.7-2.5L179.8,107.9z"/>
	<path class="st0" d="M180.6,105.8l0.4-1c0-0.1,0.1-0.2,0.1-0.3c0-0.1,0.1-0.2,0.2-0.4c0.4-0.5,0.8-0.6,1.4-0.3
		c0.5,0.2,0.8,0.6,0.8,1.1l0,0c0,0,0-0.1,0-0.1c0,0,0-0.1,0.1-0.1c0.2-0.2,0.4-0.4,0.7-0.5c0.3-0.1,0.6,0,0.9,0.1
		c0.8,0.3,1.1,0.9,1,1.7c0,0.1,0,0.1,0,0.1l-0.6,1.4L180.6,105.8z M185.4,107.2l0.3-0.7c0.1-0.3,0.2-0.6,0.1-0.9
		c-0.1-0.3-0.3-0.5-0.6-0.7c0,0,0,0,0,0h0c-0.4-0.1-0.7-0.1-1,0c-0.2,0.1-0.4,0.4-0.6,0.7l-0.3,0.7L185.4,107.2z M182.9,106.2
		l0.2-0.6c0.1-0.2,0.1-0.3,0.1-0.5c0-0.4-0.2-0.6-0.6-0.8c-0.5-0.2-0.9,0-1.2,0.6l-0.2,0.6L182.9,106.2z"/>
	<path class="st0" d="M180.5,105.8l0.4-1c0-0.1,0-0.1,0.1-0.2c0,0,0-0.1,0.1-0.1c0-0.1,0.1-0.1,0.1-0.2c0-0.1,0.1-0.1,0.1-0.2
		c0.2-0.2,0.4-0.4,0.7-0.4c0.3-0.1,0.5,0,0.8,0.1c0.3,0.1,0.5,0.3,0.6,0.5c0.1,0.2,0.2,0.3,0.2,0.5c0,0,0,0,0,0
		c0.1-0.1,0.2-0.2,0.3-0.3c0.1-0.1,0.3-0.1,0.4-0.2c0.1,0,0.3,0,0.5,0c0.2,0,0.3,0.1,0.5,0.1c0.4,0.2,0.7,0.4,0.9,0.7
		c0.2,0.3,0.2,0.7,0.1,1.1c0,0,0,0.1,0,0.1s0,0,0,0.1l-0.6,1.5L180.5,105.8L180.5,105.8z M181,104.9l-0.4,0.9l4.9,1.9l0.6-1.4
		c0,0,0,0,0,0c0,0,0,0,0-0.1c0.1-0.4,0.1-0.7-0.1-1c-0.2-0.3-0.4-0.5-0.8-0.7c-0.2-0.1-0.3-0.1-0.4-0.1c-0.1,0-0.3,0-0.4,0
		c-0.1,0-0.3,0.1-0.4,0.1c-0.1,0.1-0.2,0.2-0.3,0.3c0,0,0,0,0,0c0,0,0,0,0,0l0,0l0,0l0,0.1l-0.1,0v0c0-0.2-0.1-0.5-0.2-0.6
		c-0.1-0.2-0.3-0.3-0.6-0.4c-0.3-0.1-0.5-0.1-0.8-0.1c-0.2,0.1-0.4,0.2-0.6,0.4c0,0.1-0.1,0.1-0.1,0.2c0,0.1-0.1,0.1-0.1,0.2
		c0,0,0,0.1-0.1,0.1C181.1,104.8,181.1,104.8,181,104.9z M185.4,107.1l0.3-0.7c0.1-0.2,0.1-0.3,0.1-0.4c0-0.1,0-0.3,0-0.4
		c0-0.1-0.1-0.3-0.2-0.4c-0.1-0.1-0.2-0.2-0.4-0.3l0,0c0,0,0,0,0,0l0,0c-0.2-0.1-0.3-0.1-0.5-0.1c-0.1,0-0.3,0-0.4,0.1
		c-0.1,0.1-0.2,0.1-0.3,0.3c-0.1,0.1-0.2,0.2-0.2,0.4l-0.3,0.7L185.4,107.1z M185.8,106.5l-0.3,0.8l-2.2-0.9l0.3-0.8
		c0.1-0.2,0.2-0.3,0.3-0.4c0.1-0.1,0.2-0.2,0.3-0.3c0.1-0.1,0.3-0.1,0.5-0.1c0.2,0,0.3,0,0.5,0.1l0,0c0,0,0,0,0,0
		c0.2,0.1,0.3,0.2,0.4,0.3c0.1,0.1,0.2,0.3,0.2,0.4c0,0.1,0,0.3,0,0.4C185.9,106.1,185.9,106.3,185.8,106.5z M182.9,106.1l0.2-0.5
		c0-0.1,0.1-0.2,0.1-0.2c0-0.1,0-0.2,0-0.2c0-0.2-0.1-0.3-0.2-0.4c-0.1-0.1-0.2-0.2-0.4-0.3c-0.3-0.1-0.5-0.1-0.7,0
		c-0.2,0.1-0.3,0.3-0.5,0.6l-0.2,0.5L182.9,106.1z M183.2,105.6l-0.3,0.6c-0.6-0.2-1.3-0.5-1.9-0.7l0.3-0.6c0.1-0.3,0.3-0.5,0.5-0.6
		c0.2-0.1,0.5-0.1,0.8,0c0.2,0.1,0.4,0.2,0.5,0.3c0.1,0.1,0.2,0.3,0.2,0.5c0,0.1,0,0.2,0,0.3C183.3,105.5,183.3,105.6,183.2,105.6z"
		/>
	<path class="st0" d="M80,70.1c3.1,1.7,6.2,3.3,8.9,5.5c-0.9-0.2-1.9-0.3-2.8-0.5c-2.8-0.4-5.5-0.8-8.3-0.1c1.5,0.1,2.7,0.2,4.1,0.4
		c0.8,0.2,1.7,0.3,2.5,0.5c4.7,1.1,8.9,2.1,13.2,4.4c-0.3,0.9-0.7,1.8-1,2.7c-0.2,0.8-0.4,1.5-0.6,2.3c-0.1,0.5-0.3,1.1-0.4,1.6
		c-0.5,1.6-0.9,3-1.1,4.7c0.2,0,0.3,0,0.5,0.1c0.2-1.5,0.5,0,0.5,0.5c0.1,0,0.3,0,0.4,0c0.4-1.7,0.7-1.5,1.1,0c0.1,0,0.2,0,0.3-0.1
		c0.2-1.8,0.5-2.2,1.1-0.3c0.1,0,0.2-0.1,0.3-0.1c0-1.9,0.1-2.1,1.2-0.5c0.1,0,0.2,0,0.2-0.1c-0.1-1.4-0.2-1.9,0.8-0.5
		c0.1-0.1,0.2-0.2,0.3-0.2c-0.1-2.3-0.3-2.8-1.4-4.8c1.1-0.4,1.9-0.8,2.9-1.4c0,0.1,0,0.3,0.1,0.4c0.2,0.2,0.3,0.1,0.6,0.2
		c0-0.1,0-0.2,0.1-0.3c0.1,0,0.2,0,0.4,0c0-0.1,0-0.2,0-0.3c0.1,0,0.2,0,0.3,0c0-0.1-0.1-0.3-0.1-0.4c-0.1,0-0.5-0.1-0.6-0.1
		c1.2-1.8,1.5-3.7,1.9-5.9c0.3-2.8-0.1-3.9,1.7-6.4c1.6-1.7,4.4-2.1,6.6-2.7c-2.7-0.1-4.1,0.6-6.6,1.2c-3.9-0.4-6.9-0.9-7.1,4.1
		c-0.3,1.1-1,0.4-1.8,0c-0.8-0.4-1.7-0.8-2.5-1.2C91.9,71,84.2,68,80,70.1z"/>
</g>
</svg>
