<?xml version="1.0" encoding="utf-8"?>
<!-- Generator: Adobe Illustrator 18.0.0, SVG Export Plug-In . SVG Version: 6.00 Build 0)  -->
<!DOCTYPE svg PUBLIC "-//W3C//DTD SVG 1.1//EN" "http://www.w3.org/Graphics/SVG/1.1/DTD/svg11.dtd">
<svg version="1.1" id="Layer_1" xmlns="http://www.w3.org/2000/svg" xmlns:xlink="http://www.w3.org/1999/xlink" x="0px" y="0px"
	 viewBox="0 0 200 200" enable-background="new 0 0 200 200" xml:space="preserve">
<g id="Layer_x0020_1">
	<path fill="#E31E24" d="M100,49.8c55.2,0,99.9,22.6,99.9,50.5c0,27.9-44.7,50.5-99.9,50.5S0.1,128.2,0.1,100.3
		C0.1,72.4,44.8,49.8,100,49.8z"/>
	<path fill="#FFFFFF" d="M100,49.8c27.6,0,52.6,5.7,70.7,14.8c18.1,9.1,29.3,21.8,29.3,35.7c0,14-11.2,26.6-29.3,35.7
		c-18.1,9.1-43.1,14.8-70.7,14.8c-27.6,0-52.6-5.7-70.7-14.8C11.2,126.9,0,114.3,0,100.3c0-14,11.2-26.6,29.3-35.7
		C47.4,55.4,72.4,49.8,100,49.8z M170.6,64.6c-18.1-9.1-43.1-14.8-70.6-14.8c-27.6,0-52.6,5.6-70.6,14.8
		C11.3,73.8,0.1,86.4,0.1,100.3c0,13.9,11.2,26.5,29.2,35.6c18.1,9.1,43.1,14.8,70.6,14.8c27.6,0,52.6-5.6,70.6-14.8
		c18.1-9.1,29.2-21.7,29.2-35.6C199.9,86.4,188.7,73.8,170.6,64.6z"/>
	<path fill="#FFFFFF" d="M100.8,53.4c50.3,0,91.2,21,91.2,47c0,26-40.8,47-91.2,47s-91.2-21-91.2-47C9.7,74.4,50.5,53.4,100.8,53.4z
		"/>
	<path fill="#FFFFFF" d="M100.8,53.3c25.2,0,48,5.3,64.5,13.8c16.5,8.5,26.7,20.3,26.7,33.3c0,13-10.2,24.8-26.7,33.3
		c-16.5,8.5-39.3,13.8-64.5,13.8c-25.2,0-48-5.3-64.5-13.8c-16.5-8.5-26.7-20.3-26.7-33.3c0-13,10.2-24.8,26.7-33.3
		C52.9,58.6,75.7,53.3,100.8,53.3z M165.3,67.2c-16.5-8.5-39.3-13.8-64.4-13.8s-47.9,5.3-64.4,13.8C19.9,75.7,9.7,87.4,9.7,100.4
		c0,13,10.2,24.7,26.7,33.2c16.5,8.5,39.3,13.8,64.4,13.8s47.9-5.3,64.4-13.8c16.5-8.5,26.7-20.2,26.7-33.2
		C191.9,87.4,181.8,75.7,165.3,67.2z"/>
	<path fill="#E31E24" d="M44.8,96.4c6.4,0,12.7,0,19.1,0c11.7,4,2.5,12.4,0.2,11.7c0.6,0.9,1.2,1.8,1.9,2.7c0.8,1.2,1.7,2.4,2.5,3.6
		c1.2,1.7,1.8,2.8,3.5,4.2c1.1,0.3,1.8,0.5,2.8,1c0,0.3-0.1,0.6-0.1,0.8c-3.3,0-6.7,0-10,0c-2-3.6-4.1-7.3-6.1-10.9
		c-0.3-0.2-0.5-0.3-0.8-0.5c-0.2,0-0.4-0.1-0.6-0.1c-0.8,0-1.7,0-2.5,0c0,3,0,6.1,0,9.1c1.4,0.3,2.8,0.7,4.2,1c0,0.5,0,1,0,1.6
		c-4.7,0-9.5,0-14.2,0c0-0.4,0-0.8,0-1.3c1.3-0.3,2.7-0.6,4.1-0.9c0-6.8,0-13.7,0-20.5c-1.3-0.1-2.5-0.2-3.8-0.3
		C45,97.3,44.9,96.8,44.8,96.4z"/>
	<path fill="#E31E24" d="M44.8,96.4H64l0,0c3.9,1.4,5.5,3.2,5.8,5.1c0.1,0.8,0,1.6-0.3,2.3c-0.3,0.7-0.7,1.4-1.2,2
		c-1.3,1.6-3.1,2.6-4,2.4l1.8,2.6l2.5,3.6c0.2,0.3,0.4,0.5,0.5,0.8c0.9,1.3,1.6,2.3,2.9,3.4c0.2,0,0.3,0.1,0.5,0.1
		c0.8,0.2,1.5,0.4,2.3,0.9l0,0l-0.1,0.9H64.7l-6.1-10.9l-0.8-0.5l-0.5-0.1h-2.5v9l4.2,1v1.7H44.7l0-1.4l4.1-0.9V98L45,97.7
		L44.8,96.4L44.8,96.4z M63.9,96.5h-19l0.2,1.2l3.8,0.3v20.6l-4.1,0.9l0,1.2h14.1v-1.5l-4.2-1v-9.2h2.6l0.6,0.1
		c0.3,0.2,0.5,0.4,0.8,0.5l6.1,10.9h9.9l0.1-0.8c-0.8-0.4-1.4-0.6-2.2-0.9c-0.2,0-0.3-0.1-0.5-0.1h0l0,0c-1.4-1.2-2-2.1-2.9-3.5
		c-0.2-0.2-0.3-0.5-0.5-0.8l-2.5-3.6l-2-2.8l0.2,0c0.9,0.3,2.7-0.7,4.1-2.4c0.5-0.6,0.9-1.3,1.2-2c0.3-0.7,0.4-1.5,0.3-2.2
		C69.4,99.6,67.8,97.8,63.9,96.5z"/>
	<path fill="#FFFFFF" d="M54.7,107.2c1,0,2,0,3,0c8.3-1,6.9-9.2-1.5-9.5c-0.5,0-1,0-1.5,0C54.7,100,54.7,103.7,54.7,107.2z"/>
	<path fill="#E31E24" d="M54.7,107.1h2.9c2.7-0.3,4.3-1.4,5.1-2.7c0.3-0.6,0.5-1.3,0.4-2c-0.1-0.7-0.3-1.3-0.7-2
		c-1.1-1.5-3.2-2.7-6.3-2.7h-1.4c0.1,1.8,0,4.2,0,6.9C54.8,105.4,54.7,106.2,54.7,107.1z M57.6,107.2h-3v-0.1c0-0.8,0-1.7,0-2.6
		c0-2.6,0-5.1,0-6.9l0-0.1c0.3,0,1.3,0,1.5,0c3.1,0.1,5.3,1.3,6.4,2.8c0.4,0.6,0.7,1.3,0.8,2c0.1,0.7-0.1,1.4-0.5,2
		C62,105.8,60.4,106.9,57.6,107.2L57.6,107.2z"/>
	<polygon fill="#E31E24" points="76.1,96 89.9,96 89.9,97.4 85.8,98.5 85.8,118.2 89.8,119.3 89.8,120.3 76,120.3 76,119.1 
		79.9,118.1 79.9,98.5 78.5,97.6 76.1,97.6 	"/>
	<path fill="#E31E24" d="M76.1,95.9H90v1.5l-4.1,1.1v19.7l4,1.1v1.1H75.9l0-1.3l3.9-1.1V98.5l-1.4-0.8H76L76.1,95.9L76.1,95.9z
		 M89.9,96H76.2v1.5h2.3c0.5,0.3,1,0.6,1.5,0.9v19.7l-3.9,1.1l0,1.1h13.7v-0.9l-4-1.1V98.5l4.1-1.1V96z"/>
	<polygon fill="#E31E24" points="93.4,96 108,96 108,97.4 103.3,98.6 103.3,107.4 113.6,98.3 110.2,97.5 110.2,96 122.6,96 
		122.6,97.4 120.5,97.8 118.3,98.4 117.1,99 108.4,105.8 120.6,118.2 123.4,119.3 123.4,120.4 109.7,120.4 109.7,119.2 113,118.3 
		113,117.8 103.5,108.5 103.5,118 107.5,119.7 107.5,120.4 93,120.4 93,119.3 97.5,117.6 97.5,99.1 93.4,97.3 	"/>
	<path fill="#E31E24" d="M93.4,96h14.7v1.4l-4.7,1.3v8.6l10.2-9l-3.4-0.8V96h12.6l0,1.5l-2.2,0.4l-2.1,0.6l-1.3,0.6l-8.6,6.7
		l12.1,12.4l2.9,1.1v1.2h-13.8v-1.3l3.3-0.9l0-0.4l-9.4-9.2v9.3l4.1,1.7v0.8H93v-1.2l4.5-1.7V99.2l-4.1-1.9L93.4,96L93.4,96z
		 M107.9,96.1H93.4l0,1.2l4.1,1.9v18.5l-4.5,1.7v1h14.4v-0.6l-4.1-1.7v-9.7c3.2,3.1,6.4,6.3,9.6,9.4l0,0.5l-3.3,0.9v1.1h13.6v-1
		l-2.8-1.1c-4.1-4.2-8.1-8.3-12.2-12.5c2.9-2.3,5.8-4.5,8.7-6.8c2-1,3.3-1.2,5.5-1.6l0-1.3h-12.3v1.4l3.5,0.8
		c-3.5,3.1-7,6.2-10.5,9.3v-8.9l4.7-1.3V96.1z"/>
	<path fill="#E31E24" d="M139.1,95.7c8.6,0,15.5,5.6,15.5,12.5c0,6.9-6.9,12.5-15.5,12.5c-8.6,0-15.5-5.6-15.5-12.5
		C123.6,101.3,130.5,95.7,139.1,95.7z"/>
	<path fill="#E31E24" d="M139.1,95.7c4.3,0,8.2,1.4,11,3.7c2.8,2.3,4.6,5.4,4.6,8.9c0,3.5-1.7,6.6-4.6,8.9c-2.8,2.3-6.7,3.7-11,3.7
		c-4.3,0-8.2-1.4-11-3.7c-2.8-2.3-4.6-5.4-4.6-8.9c0-3.5,1.7-6.6,4.6-8.9C130.9,97.1,134.8,95.7,139.1,95.7z M150.1,99.4
		c-2.8-2.3-6.7-3.7-10.9-3.7c-4.3,0-8.1,1.4-10.9,3.7c-2.8,2.3-4.5,5.4-4.5,8.8c0,3.4,1.7,6.6,4.5,8.8c2.8,2.3,6.7,3.7,10.9,3.7
		c4.3,0,8.1-1.4,10.9-3.7c2.8-2.3,4.5-5.4,4.5-8.8C154.6,104.8,152.9,101.7,150.1,99.4z"/>
	<path fill="#FFFFFF" d="M139.1,97.5c5,0,9,4.8,9,10.8c0,6-4,10.8-9,10.8c-5,0-9-4.8-9-10.8C130.1,102.3,134.1,97.5,139.1,97.5z"/>
	<path fill="#E31E24" d="M139.1,97.4c2.5,0,4.8,1.2,6.4,3.2c1.6,2,2.6,4.7,2.6,7.7c0,3-1,5.7-2.6,7.7c-1.6,2-3.9,3.2-6.4,3.2
		c-2.5,0-4.8-1.2-6.4-3.2c-1.6-2-2.6-4.7-2.6-7.7c0-3,1-5.7,2.6-7.7C134.3,98.7,136.6,97.4,139.1,97.4z M145.4,100.7
		c-1.6-1.9-3.9-3.2-6.3-3.2c-2.5,0-4.7,1.2-6.3,3.2c-1.6,1.9-2.6,4.6-2.6,7.6c0,3,1,5.7,2.6,7.6c1.6,1.9,3.9,3.2,6.3,3.2
		c2.5,0,4.7-1.2,6.3-3.2c1.6-1.9,2.6-4.6,2.6-7.6C148,105.4,147,102.7,145.4,100.7z"/>
	<polygon fill="#E31E24" points="55.8,68.5 56,64 59.8,68.9 59.1,69.2 56.4,65.6 56.3,70.1 53.6,66.5 53.5,70.9 52.8,71.2 
		53.1,64.9 	"/>
	<path fill="#E31E24" d="M55.8,68.3l0.2-4.6c1.3,1.7,2.7,3.5,4,5.2l-0.9,0.3l-2.6-3.5l-0.1,4.5l-2.7-3.6L53.6,71l-0.9,0.3l0.3-6.5
		L55.8,68.3z M56,64.2l-0.2,4.6l-2.7-3.6l-0.3,6l0.6-0.2l0.1-4.6l2.7,3.6l0.1-4.5l2.7,3.7l0.6-0.2L56,64.2z"/>
	<path fill="#E31E24" d="M59.9,68.9l0.6-6.7l4.2,5.3l-0.5,0.2L62.9,66l-2.2,0.7l-0.2,2.1L59.9,68.9z M60.7,66.1l1.9-0.6l-1.6-2.1
		L60.7,66.1z"/>
	<path fill="#E31E24" d="M59.9,68.9l0.6-6.9c1.4,1.8,2.9,3.6,4.3,5.5l-0.7,0.2l-1.3-1.7l-2.1,0.6l-0.2,2.1L59.9,68.9L59.9,68.9z
		 M60.6,62.4L60,68.8l0.4-0.1l0.2-2.1c0.8-0.2,1.5-0.5,2.3-0.7l1.3,1.7l0.4-0.1L60.6,62.4z M60.8,66l1.7-0.5L61,63.6L60.8,66z
		 M62.6,65.6l-2,0.6l0.2-2.9L62.6,65.6L62.6,65.6z"/>
	<path fill="#E31E24" d="M64.9,61.7l0.5-0.1l1,4.4l2.4-5.4l1.3,5.8l-0.5,0.1l-1-4.4l-2.4,5.4L64.9,61.7z M65.6,60.4l0.3-0.3
		c0.1,0.3,0.4,0.4,0.7,0.3c0,0,0,0,0,0l0,0c0.3-0.1,0.5-0.3,0.5-0.6c0,0,0,0,0,0c0,0,0,0,0,0l0.4,0.1c0,0.3-0.2,0.6-0.5,0.8
		c-0.1,0.1-0.2,0.1-0.2,0.1c-0.1,0-0.1,0-0.2,0.1c-0.1,0-0.3,0-0.5,0C66,60.9,65.8,60.7,65.6,60.4z"/>
	<path fill="#E31E24" d="M64.9,61.6l0.6-0.1l1,4.2l2.4-5.4c0.5,2,0.9,4,1.4,6l-0.6,0.1l-1-4.2l-2.4,5.4
		C65.7,65.6,65.2,63.6,64.9,61.6L64.9,61.6z M65.3,61.6L65,61.7l1.3,5.5l2.4-5.4l1,4.5l0.4-0.1l-1.3-5.5l-2.4,5.4L65.3,61.6z
		 M65.5,60.4l0.4-0.3l0,0.1c0.1,0.1,0.2,0.2,0.3,0.3c0.1,0,0.2,0.1,0.4,0l0.1,0c0.1,0,0.3-0.1,0.3-0.2c0.1-0.1,0.1-0.2,0.1-0.3l0,0
		l0,0v0c0,0,0,0,0,0l0-0.1l0.6,0.1l0,0.1c0,0.2-0.1,0.3-0.2,0.5c-0.1,0.1-0.2,0.3-0.3,0.3c0,0-0.1,0.1-0.1,0.1c0,0-0.1,0-0.1,0
		c0,0-0.1,0-0.1,0c0,0-0.1,0-0.1,0c-0.1,0-0.2,0-0.2,0c-0.1,0-0.2,0-0.3,0c-0.2,0-0.3-0.1-0.4-0.2C65.7,60.8,65.6,60.6,65.5,60.4
		L65.5,60.4L65.5,60.4z M65.9,60.3l-0.2,0.2c0.1,0.1,0.2,0.2,0.3,0.3c0.1,0.1,0.2,0.1,0.4,0.1c0.1,0,0.2,0,0.2,0c0.1,0,0.1,0,0.2,0
		c0,0,0.1,0,0.1,0c0,0,0.1,0,0.1,0c0,0,0.1,0,0.1,0c0,0,0.1,0,0.1-0.1l0,0c0.1-0.1,0.2-0.2,0.3-0.3c0.1-0.1,0.1-0.2,0.1-0.4L67.3,60
		l0,0c0,0.2-0.1,0.3-0.2,0.4c-0.1,0.1-0.2,0.2-0.4,0.2c0,0,0,0-0.1,0c-0.2,0-0.3,0-0.4,0C66.1,60.5,66,60.4,65.9,60.3z"/>
	<path fill="#E31E24" d="M72.1,66.3l-1-6l2.8-0.5l0.1,0.5l-2.2,0.4l0.3,2l0.9-0.1c0.7-0.1,1.2,0,1.7,0.4c0.2,0.2,0.4,0.6,0.5,1.1
		c0.1,0.9-0.2,1.5-0.9,1.9c-0.2,0.1-0.5,0.2-0.9,0.3L72.1,66.3z M72.5,65.7l0.8-0.1c0,0,0.1,0,0.3-0.1c0.1,0,0.3-0.1,0.4-0.1
		c0.5-0.3,0.7-0.7,0.6-1.3c-0.1-0.6-0.4-0.9-0.9-1.1c-0.1,0-0.3,0-0.4,0c-0.1,0-0.2,0-0.3,0l-0.9,0.1L72.5,65.7z"/>
	<path fill="#E31E24" d="M72,66.3l-1-6l2.9-0.5l0.1,0.6l-2.2,0.4l0.3,1.8l0.8-0.1c0.3-0.1,0.7-0.1,1,0c0.3,0.1,0.5,0.2,0.8,0.4
		c0.1,0.1,0.2,0.3,0.3,0.4c0.1,0.2,0.1,0.4,0.2,0.7c0.1,0.5,0,0.8-0.1,1.2c-0.2,0.3-0.4,0.6-0.8,0.8C74.1,65.9,74,66,73.8,66
		c-0.2,0-0.3,0.1-0.5,0.1L72,66.3L72,66.3z M71.2,60.3l1,5.8l1.1-0.2c0.2,0,0.4-0.1,0.5-0.1c0.2,0,0.3-0.1,0.4-0.1
		c0.4-0.2,0.6-0.4,0.8-0.7c0.1-0.3,0.2-0.7,0.1-1.1c0-0.2-0.1-0.5-0.2-0.6c-0.1-0.2-0.2-0.3-0.3-0.4c-0.2-0.2-0.4-0.3-0.7-0.3
		c-0.3-0.1-0.6-0.1-0.9,0l-1,0.2c-0.1-0.7-0.2-1.4-0.3-2.1l2.2-0.4l-0.1-0.3L71.2,60.3z M72.6,65.6l0.7-0.1c0,0,0,0,0.1,0l0.2,0
		c0.1,0,0.1,0,0.2-0.1c0.1,0,0.1,0,0.2-0.1c0.2-0.1,0.4-0.3,0.5-0.5c0.1-0.2,0.1-0.5,0.1-0.8c0-0.3-0.1-0.5-0.3-0.7
		c-0.1-0.2-0.3-0.3-0.6-0.3c-0.1,0-0.1,0-0.2,0c-0.1,0-0.1,0-0.2,0c0,0-0.1,0-0.1,0c0,0-0.1,0-0.1,0l-0.8,0.1L72.6,65.6z M73.3,65.6
		l-0.8,0.1c-0.1-0.9-0.3-1.8-0.4-2.7l1-0.2c0,0,0.1,0,0.1,0c0,0,0.1,0,0.1,0c0.1,0,0.1,0,0.2,0c0.1,0,0.1,0,0.2,0
		c0.3,0.1,0.5,0.2,0.6,0.4c0.2,0.2,0.3,0.4,0.3,0.7c0.1,0.3,0,0.6-0.1,0.8c-0.1,0.2-0.3,0.4-0.6,0.6l0,0c-0.1,0-0.1,0.1-0.2,0.1
		c-0.1,0-0.1,0-0.2,0.1l-0.2,0C73.4,65.6,73.3,65.6,73.3,65.6z"/>
	<polygon fill="#E31E24" points="78.1,65.4 78.6,63.5 75.9,59.6 76.5,59.5 78.8,62.8 79.7,59 80.2,58.9 78.7,65.3 	"/>
	<path fill="#E31E24" d="M78.1,65.4l0.5-1.9l-2.7-3.9l0.8-0.1l2.2,3.2l0.9-3.7l0.7-0.1c-0.5,2.2-1,4.4-1.6,6.5L78.1,65.4L78.1,65.4z
		 M78.7,63.5l-0.4,1.8l0.4-0.1l1.5-6.2l-0.4,0.1L78.8,63l-2.3-3.4L76,59.7L78.7,63.5L78.7,63.5z"/>
	<polygon fill="#E31E24" points="84.1,64.8 83.6,59.2 82.1,59.4 82.1,58.9 85.6,58.6 85.6,59 84.1,59.2 84.7,64.7 	"/>
	<path fill="#E31E24" d="M84.1,64.8l-0.5-5.5l-1.5,0.1L82,58.8l3.6-0.3l0.1,0.6l-1.5,0.1l0.5,5.5H84.1L84.1,64.8z M83.7,59.2
		l0.5,5.5l0.4,0l-0.5-5.5l1.5-0.1l0-0.3L82.2,59l0,0.3L83.7,59.2L83.7,59.2z"/>
	<polygon fill="#E31E24" points="87.9,64.4 87.5,58.4 88,58.3 88.2,60.8 91.4,60.6 91.2,58.1 91.7,58 92.2,64.1 91.6,64.1 91.4,61 
		88.2,61.3 88.5,64.4 	"/>
	<path fill="#E31E24" d="M87.8,64.4l-0.4-6.1l0.7-0.1l0.2,2.5l3.1-0.2L91.1,58l0.7,0c0.2,2.1,0.3,4.1,0.5,6.2l-0.7,0l-0.2-3.1
		l-3.1,0.2l0.2,3.1L87.8,64.4L87.8,64.4z M87.5,58.4l0.4,5.9l0.4,0l-0.2-3.1c1.1-0.1,2.2-0.2,3.3-0.2l0.2,3.1l0.4,0l-0.4-5.9l-0.4,0
		l0.2,2.5l-3.3,0.2L88,58.4L87.5,58.4z"/>
	<path fill="#E31E24" d="M98,63.7l0-0.7c-0.6,0.4-1.2,0.6-1.8,0.6c-0.7,0-1.2-0.3-1.7-0.8c-0.4-0.5-0.7-1.1-0.7-1.8l3.5,0l0-0.5
		l-3.4,0c0-0.7,0.3-1.2,0.7-1.7c0.5-0.4,1-0.6,1.6-0.6l0.1,0c0.6,0,1.1,0.2,1.6,0.7l0-0.6c-0.2-0.1-0.4-0.3-0.7-0.4
		c-0.3-0.1-0.7-0.2-1.1-0.2c-0.9,0-1.6,0.3-2.2,0.9c-0.5,0.6-0.8,1.3-0.8,2.3c0,0.9,0.2,1.7,0.8,2.3c0.5,0.6,1.2,0.9,2.1,0.9
		C96.9,64.2,97.5,64,98,63.7z"/>
	<path fill="#E31E24" d="M98,63.7l0-0.5c-0.3,0.2-0.5,0.3-0.8,0.4c-0.3,0.1-0.6,0.2-0.9,0.2c-0.7,0-1.3-0.3-1.7-0.8
		c-0.2-0.3-0.4-0.5-0.5-0.9c-0.1-0.3-0.2-0.6-0.2-1l0-0.1l3.5,0l0-0.3l-3.4,0v-0.1c0-0.3,0.1-0.7,0.2-1c0.1-0.3,0.3-0.5,0.5-0.8
		c0.2-0.2,0.5-0.4,0.8-0.5c0.3-0.1,0.6-0.2,0.9-0.2h0.1c0.3,0,0.6,0.1,0.9,0.2c0.2,0.1,0.5,0.2,0.7,0.4l0-0.5
		c-0.1-0.1-0.2-0.1-0.3-0.2c-0.1-0.1-0.2-0.1-0.4-0.2c-0.2,0-0.3-0.1-0.5-0.1c-0.2,0-0.4,0-0.6,0c-0.4,0-0.8,0.1-1.2,0.2
		c-0.3,0.1-0.7,0.3-0.9,0.6c-0.3,0.3-0.5,0.6-0.6,1c-0.1,0.4-0.2,0.8-0.2,1.3c0,0.5,0,0.9,0.2,1.3c0.1,0.4,0.3,0.7,0.6,1
		c0.3,0.3,0.6,0.5,0.9,0.7c0.3,0.2,0.7,0.2,1.2,0.2c0.3,0,0.6,0,0.9-0.1C97.4,63.9,97.7,63.8,98,63.7z M98.1,63.1l0,0.7l0,0
		c-0.3,0.2-0.6,0.3-0.9,0.4c-0.3,0.1-0.6,0.1-0.9,0.1c-0.4,0-0.8-0.1-1.2-0.2c-0.4-0.2-0.7-0.4-1-0.7c-0.3-0.3-0.5-0.7-0.6-1.1
		c-0.1-0.4-0.2-0.8-0.2-1.3c0-0.5,0.1-0.9,0.2-1.3c0.1-0.4,0.3-0.7,0.6-1c0.3-0.3,0.6-0.5,1-0.7c0.4-0.1,0.8-0.2,1.2-0.2
		c0.2,0,0.4,0,0.6,0c0.2,0,0.4,0.1,0.5,0.1c0.1,0,0.3,0.1,0.4,0.2c0.1,0.1,0.2,0.1,0.3,0.2l0,0l0,0.8L98.1,59
		c-0.3-0.2-0.5-0.4-0.8-0.5c-0.3-0.1-0.5-0.2-0.8-0.2h-0.1c-0.3,0-0.6,0-0.9,0.1c-0.3,0.1-0.5,0.3-0.7,0.5c-0.2,0.2-0.4,0.5-0.5,0.7
		c-0.1,0.3-0.2,0.5-0.2,0.8l3.4,0l0,0.6l-3.5,0c0,0.3,0.1,0.6,0.2,0.9c0.1,0.3,0.3,0.6,0.5,0.8c0.4,0.5,1,0.8,1.6,0.8
		c0.3,0,0.6,0,0.9-0.1c0.3-0.1,0.6-0.3,0.9-0.5l0.1-0.1L98.1,63.1z"/>
	<path fill="#E31E24" d="M109.3,62.8l0,0.7c-0.3,0.2-0.7,0.4-1.1,0.6c-0.3,0.1-0.5,0.1-0.9,0.1c-0.8,0-1.5-0.3-2-0.9
		c-0.5-0.6-0.8-1.4-0.8-2.3c0-0.9,0.2-1.7,0.8-2.3c0.5-0.6,1.2-0.9,2-0.9c0.7,0,1.4,0.2,2,0.7l0,0.7c-0.6-0.6-1.2-0.9-2-0.9
		c-0.6,0-1.2,0.3-1.6,0.8c-0.5,0.5-0.7,1.1-0.7,1.8V61c0,0.7,0.2,1.4,0.6,1.9c0.4,0.5,1,0.8,1.6,0.8
		C108.1,63.7,108.8,63.4,109.3,62.8z"/>
	<path fill="#E31E24" d="M109.4,62.8l0,0.7l0,0c-0.1,0.1-0.3,0.2-0.5,0.3c-0.2,0.1-0.4,0.2-0.6,0.3h0c-0.1,0-0.3,0.1-0.4,0.1
		c-0.1,0-0.3,0-0.5,0c-0.4,0-0.8-0.1-1.2-0.2c-0.3-0.2-0.7-0.4-0.9-0.7c-0.3-0.3-0.5-0.7-0.6-1c-0.1-0.4-0.2-0.8-0.2-1.3
		c0-0.5,0.1-0.9,0.2-1.3c0.1-0.4,0.3-0.7,0.6-1c0.3-0.3,0.6-0.6,0.9-0.7c0.3-0.2,0.7-0.2,1.2-0.2c0.4,0,0.7,0.1,1.1,0.2
		c0.3,0.1,0.7,0.3,1,0.6l0,0l0,0.9l-0.1-0.1c-0.3-0.3-0.6-0.5-0.9-0.7c-0.3-0.1-0.7-0.2-1-0.2c-0.3,0-0.6,0.1-0.8,0.2
		c-0.3,0.1-0.5,0.3-0.7,0.6c-0.2,0.3-0.4,0.5-0.5,0.8c-0.1,0.3-0.2,0.6-0.2,0.9V61c0,0.4,0.1,0.7,0.2,1s0.3,0.6,0.5,0.8
		c0.2,0.3,0.5,0.5,0.7,0.6c0.3,0.1,0.6,0.2,0.9,0.2c0.4,0,0.7-0.1,1-0.2c0.3-0.1,0.6-0.4,0.9-0.7l0.1-0.1V62.8z M109.3,63.4l0-0.5
		c-0.3,0.2-0.5,0.4-0.8,0.6c-0.3,0.2-0.7,0.2-1.1,0.2c-0.3,0-0.6-0.1-0.9-0.2c-0.3-0.1-0.5-0.4-0.8-0.6c-0.2-0.3-0.4-0.6-0.5-0.9
		c-0.1-0.3-0.2-0.7-0.2-1v-0.1c0-0.3,0.1-0.7,0.2-1c0.1-0.3,0.3-0.6,0.5-0.9c0.2-0.3,0.5-0.5,0.7-0.6c0.3-0.1,0.6-0.2,0.9-0.2
		c0.4,0,0.8,0.1,1.1,0.2c0.3,0.1,0.6,0.3,0.8,0.6v-0.5c-0.3-0.2-0.6-0.4-0.9-0.5c-0.3-0.1-0.7-0.2-1-0.2c-0.4,0-0.8,0.1-1.1,0.2
		c-0.3,0.1-0.6,0.4-0.9,0.7c-0.3,0.3-0.4,0.6-0.6,1c-0.1,0.4-0.2,0.8-0.2,1.2c0,0.4,0.1,0.9,0.2,1.2c0.1,0.4,0.3,0.7,0.6,1
		c0.3,0.3,0.6,0.5,0.9,0.7c0.3,0.1,0.7,0.2,1.1,0.2c0.2,0,0.3,0,0.4,0c0.1,0,0.3,0,0.4-0.1c0.2-0.1,0.4-0.2,0.6-0.3
		C109,63.7,109.1,63.6,109.3,63.4z"/>
	<path fill="#E31E24" d="M110.6,64.2l0.5-6l0.5,0l-0.2,2.5l0.9,0.1c0.3,0,0.6,0.1,0.9,0.2c0.6,0.3,0.9,0.9,0.9,1.7
		c-0.1,0.9-0.5,1.4-1.3,1.6c-0.3,0.1-0.6,0.1-1,0L110.6,64.2z M111.1,63.8l0.8,0.1c0,0,0.1,0,0.3,0c0.2,0,0.3,0,0.4,0
		c0.2,0,0.4-0.2,0.6-0.3c0.2-0.2,0.3-0.4,0.3-0.8c0-0.6-0.2-1-0.6-1.2c-0.1-0.1-0.2-0.1-0.4-0.1c-0.1,0-0.2,0-0.3,0l-0.9-0.1
		L111.1,63.8z"/>
	<path fill="#E31E24" d="M110.5,64.2l0.5-6.1l0.7,0.1l-0.2,2.5l0.8,0.1c0.2,0,0.3,0,0.5,0.1c0.1,0,0.3,0.1,0.4,0.1
		c0.3,0.2,0.6,0.4,0.7,0.7s0.2,0.7,0.2,1.1c0,0.5-0.2,0.8-0.4,1.1c-0.2,0.3-0.5,0.5-1,0.5c-0.1,0-0.3,0-0.4,0c-0.2,0-0.3,0-0.5,0
		L110.5,64.2L110.5,64.2z M111.1,58.2l-0.5,5.9l1.1,0.1c0.2,0,0.4,0,0.5,0c0.2,0,0.3,0,0.4,0c0.4-0.1,0.7-0.2,0.9-0.5
		c0.2-0.2,0.3-0.6,0.4-1c0-0.4,0-0.7-0.2-1c-0.1-0.3-0.4-0.5-0.7-0.6c-0.1,0-0.2-0.1-0.4-0.1c-0.1,0-0.3-0.1-0.5-0.1l-1-0.1l0.2-2.5
		L111.1,58.2z M111.2,63.7l0.7,0.1c0,0,0,0,0.1,0h0.2c0.1,0,0.1,0,0.2,0c0.1,0,0.1,0,0.2,0c0.1,0,0.2-0.1,0.3-0.1s0.2-0.1,0.3-0.2
		c0.1-0.1,0.1-0.2,0.2-0.3c0-0.1,0.1-0.3,0.1-0.5c0-0.3,0-0.5-0.1-0.7c-0.1-0.2-0.3-0.3-0.5-0.4c-0.1,0-0.1,0-0.2-0.1
		c-0.1,0-0.1,0-0.2,0c0,0-0.1,0-0.1,0c0,0-0.1,0-0.1,0l-0.8-0.1L111.2,63.7z M111.9,63.9l-0.8-0.1c0.1-0.9,0.1-1.8,0.2-2.7l1,0.1
		c0.1,0,0.1,0,0.2,0c0,0,0.1,0,0.1,0c0.1,0,0.1,0,0.2,0c0.1,0,0.1,0,0.2,0.1c0.2,0.1,0.4,0.3,0.5,0.5c0.1,0.2,0.1,0.5,0.1,0.8
		c0,0.2,0,0.4-0.1,0.5c-0.1,0.1-0.1,0.3-0.2,0.3c-0.1,0.1-0.2,0.2-0.3,0.2c-0.1,0.1-0.2,0.1-0.3,0.1l0,0c-0.1,0-0.1,0-0.2,0
		c-0.1,0-0.1,0-0.2,0H112C112,63.9,111.9,63.9,111.9,63.9z"/>
	<path fill="#E31E24" d="M115.1,61.9c0.1-0.9,0.4-1.7,1-2.2c0.6-0.5,1.2-0.8,2-0.7c0.8,0.1,1.4,0.4,1.9,1.1c0.5,0.6,0.7,1.4,0.6,2.4
		c-0.1,0.9-0.4,1.7-1,2.2c-0.6,0.5-1.2,0.8-2,0.7c-0.8-0.1-1.4-0.4-1.9-1.1C115.2,63.6,115,62.9,115.1,61.9z M115.6,62
		c-0.1,0.8,0.1,1.4,0.4,2s0.9,0.9,1.5,0.9c0.6,0.1,1.2-0.2,1.7-0.6c0.5-0.5,0.7-1.1,0.8-1.9c0.1-0.8-0.1-1.4-0.4-2
		c-0.4-0.6-0.9-0.9-1.5-0.9c-0.6-0.1-1.2,0.2-1.7,0.6C115.9,60.6,115.7,61.2,115.6,62z"/>
	<path fill="#E31E24" d="M115,61.9c0-0.5,0.1-0.9,0.3-1.3c0.2-0.4,0.4-0.7,0.7-1c0.3-0.3,0.6-0.5,1-0.6c0.3-0.1,0.7-0.2,1.1-0.1
		c0.4,0,0.8,0.1,1.1,0.3c0.3,0.2,0.6,0.4,0.8,0.8c0.2,0.3,0.4,0.7,0.5,1.1s0.1,0.8,0.1,1.3c0,0.5-0.1,0.9-0.3,1.3
		c-0.2,0.4-0.4,0.7-0.7,1c-0.3,0.3-0.6,0.5-1,0.6c-0.3,0.1-0.7,0.2-1.1,0.1c-0.4,0-0.8-0.1-1.1-0.3c-0.3-0.2-0.6-0.4-0.8-0.8
		c-0.2-0.3-0.4-0.7-0.5-1.1S115,62.4,115,61.9z M115.4,60.7c-0.2,0.4-0.3,0.8-0.3,1.2c0,0.5,0,0.9,0.1,1.3c0.1,0.4,0.3,0.7,0.5,1.1
		c0.2,0.3,0.5,0.6,0.8,0.7c0.3,0.2,0.6,0.3,1,0.3c0.4,0,0.7,0,1.1-0.1c0.3-0.1,0.6-0.3,0.9-0.6c0.3-0.3,0.5-0.6,0.7-0.9
		c0.2-0.4,0.3-0.8,0.3-1.2c0-0.5,0-0.9-0.1-1.3c-0.1-0.4-0.3-0.7-0.5-1.1c-0.2-0.3-0.5-0.6-0.8-0.7c-0.3-0.2-0.6-0.3-1-0.3
		c-0.4,0-0.7,0-1.1,0.1c-0.3,0.1-0.6,0.3-0.9,0.6C115.8,60,115.6,60.3,115.4,60.7z M115.7,62c0,0.4,0,0.7,0.1,1.1
		c0.1,0.3,0.2,0.6,0.4,0.9c0.2,0.3,0.4,0.5,0.6,0.6s0.5,0.2,0.8,0.3c0.3,0,0.6,0,0.9-0.1c0.3-0.1,0.5-0.3,0.7-0.5
		c0.2-0.2,0.4-0.5,0.5-0.8c0.1-0.3,0.2-0.6,0.2-1c0-0.4,0-0.7-0.1-1.1c-0.1-0.3-0.2-0.6-0.4-0.9s-0.4-0.5-0.6-0.6
		c-0.2-0.1-0.5-0.2-0.8-0.3c-0.3,0-0.6,0-0.9,0.1c-0.3,0.1-0.5,0.3-0.7,0.5s-0.4,0.5-0.5,0.8C115.8,61.3,115.7,61.6,115.7,62z
		 M115.6,63.1c-0.1-0.3-0.1-0.7-0.1-1.1c0-0.4,0.1-0.7,0.2-1.1c0.1-0.3,0.3-0.6,0.6-0.8c0.2-0.2,0.5-0.4,0.8-0.5
		c0.3-0.1,0.6-0.1,0.9-0.1c0.3,0,0.6,0.1,0.9,0.3c0.3,0.2,0.5,0.4,0.7,0.7c0.2,0.3,0.3,0.6,0.4,0.9c0.1,0.3,0.1,0.7,0.1,1.1
		c0,0.4-0.1,0.7-0.2,1.1c-0.1,0.3-0.3,0.6-0.5,0.8c-0.2,0.2-0.5,0.4-0.8,0.5c-0.3,0.1-0.6,0.1-0.9,0.1c-0.3,0-0.6-0.1-0.9-0.3
		c-0.3-0.2-0.5-0.4-0.7-0.7C115.8,63.7,115.7,63.4,115.6,63.1z"/>
	<path fill="#E31E24" d="M126.1,63.2c0.2-0.9,0.6-1.6,1.2-2.1c0.6-0.5,1.3-0.6,2.1-0.5c0.8,0.1,1.3,0.6,1.7,1.3
		c0.4,0.7,0.5,1.5,0.3,2.4c-0.2,0.9-0.6,1.6-1.2,2.1c-0.6,0.5-1.3,0.6-2.1,0.5c-0.8-0.1-1.3-0.6-1.7-1.3
		C126,64.9,125.9,64.1,126.1,63.2z M126.6,63.3c-0.1,0.8-0.1,1.4,0.2,2c0.3,0.6,0.8,1,1.4,1.1c0.6,0.1,1.2,0,1.7-0.5
		c0.5-0.4,0.8-1,1-1.8c0.1-0.8,0.1-1.4-0.2-2c-0.3-0.6-0.8-1-1.4-1.1c-0.6-0.1-1.2,0-1.7,0.5C127.1,62,126.7,62.6,126.6,63.3z"/>
	<path fill="#E31E24" d="M126,63.2c0.1-0.5,0.2-0.9,0.4-1.2c0.2-0.4,0.5-0.7,0.8-0.9s0.7-0.4,1-0.5c0.4-0.1,0.7-0.1,1.1,0
		c0.4,0.1,0.7,0.2,1,0.4c0.3,0.2,0.6,0.5,0.8,0.8c0.2,0.4,0.3,0.7,0.4,1.1c0.1,0.4,0,0.9,0,1.3c-0.1,0.5-0.2,0.9-0.4,1.2
		c-0.2,0.4-0.5,0.7-0.8,0.9c-0.3,0.2-0.6,0.4-1,0.5s-0.7,0.1-1.1,0c-0.4-0.1-0.7-0.2-1-0.4c-0.3-0.2-0.5-0.5-0.8-0.8
		c-0.2-0.4-0.3-0.7-0.4-1.2C125.9,64.1,125.9,63.7,126,63.2z M126.6,62c-0.2,0.3-0.3,0.7-0.4,1.2c-0.1,0.4-0.1,0.9,0,1.3
		c0.1,0.4,0.2,0.8,0.4,1.1c0.2,0.3,0.4,0.6,0.7,0.8c0.3,0.2,0.6,0.3,1,0.4c0.4,0.1,0.7,0.1,1.1,0c0.3-0.1,0.7-0.2,1-0.5
		c0.3-0.2,0.6-0.5,0.8-0.9c0.2-0.3,0.3-0.7,0.4-1.2c0.1-0.5,0.1-0.9,0-1.3c-0.1-0.4-0.2-0.8-0.4-1.1c-0.2-0.3-0.4-0.6-0.7-0.8
		c-0.3-0.2-0.6-0.3-1-0.4c-0.4-0.1-0.7-0.1-1.1,0c-0.3,0.1-0.7,0.2-1,0.5C127,61.4,126.8,61.7,126.6,62z M126.7,63.3
		c-0.1,0.4-0.1,0.7,0,1.1c0,0.3,0.1,0.6,0.3,0.9c0.2,0.3,0.3,0.5,0.6,0.7c0.2,0.2,0.5,0.3,0.8,0.3c0.3,0.1,0.6,0.1,0.9,0
		c0.3-0.1,0.5-0.2,0.8-0.4c0.2-0.2,0.4-0.5,0.6-0.7c0.2-0.3,0.3-0.6,0.3-1c0.1-0.4,0.1-0.7,0-1.1c0-0.3-0.1-0.6-0.3-0.9
		c-0.2-0.3-0.3-0.5-0.6-0.7c-0.2-0.2-0.5-0.3-0.8-0.3c-0.3-0.1-0.6-0.1-0.9,0c-0.3,0.1-0.5,0.2-0.8,0.4c-0.2,0.2-0.4,0.5-0.6,0.7
		C126.8,62.6,126.7,63,126.7,63.3z M126.5,64.4c0-0.3,0-0.7,0.1-1.1c0.1-0.4,0.2-0.7,0.4-1c0.2-0.3,0.4-0.6,0.6-0.8
		c0.3-0.2,0.5-0.4,0.8-0.5c0.3-0.1,0.6-0.1,0.9,0c0.3,0.1,0.6,0.2,0.9,0.4c0.2,0.2,0.4,0.4,0.6,0.7c0.2,0.3,0.3,0.6,0.3,1
		s0,0.7,0,1.1c-0.1,0.4-0.2,0.7-0.4,1c-0.2,0.3-0.4,0.6-0.6,0.8c-0.3,0.2-0.5,0.4-0.8,0.5c-0.3,0.1-0.6,0.1-0.9,0
		c-0.3-0.1-0.6-0.2-0.9-0.4c-0.2-0.2-0.4-0.4-0.6-0.7C126.6,65.1,126.5,64.7,126.5,64.4z"/>
	<polygon fill="#E31E24" points="121.6,65.6 122.6,59.8 125.2,60 125.2,60.5 123.1,60.3 122.2,65.7 	"/>
	<path fill="#E31E24" d="M121.5,65.6l1-5.9c0.9,0.1,1.9,0.2,2.8,0.3l-0.1,0.6l-2.1-0.2l-0.9,5.4L121.5,65.6L121.5,65.6z M122.6,59.8
		l-1,5.7l0.5,0l0.9-5.4l2.1,0.2l0.1-0.3L122.6,59.8z"/>
	<path fill="#E31E24" d="M134.6,62.1l3.4,0.8l-1.7,5.3l0.7,0.2l-0.5,1.6l-0.5-0.1l0.4-1.1l-4.2-1l-0.4,1.1l-0.5-0.1l0.5-1.6l0.1,0
		c0.4,0.1,0.9-0.1,1.2-0.7c0.2-0.3,0.4-0.8,0.6-1.3L134.6,62.1z M135,62.7l-0.8,2.5c-0.2,0.5-0.3,0.9-0.5,1.2
		c-0.2,0.4-0.6,0.7-1,0.9l2.9,0.7l1.6-4.8L135,62.7z"/>
	<path fill="#E31E24" d="M134.6,62.1l3.5,0.8l-1.7,5.3l0.7,0.2l-0.6,1.7l-0.7-0.2l0.4-1.1l-4.1-1l-0.4,1.1l-0.7-0.2l0.6-1.7l0.1,0
		c0.2,0,0.4,0,0.6-0.1c0.2-0.1,0.4-0.3,0.6-0.6c0.1-0.2,0.2-0.4,0.3-0.6c0.1-0.2,0.2-0.5,0.3-0.7L134.6,62.1L134.6,62.1z M137.9,63
		l-3.2-0.8l-1,2.9c-0.1,0.3-0.2,0.5-0.3,0.8c-0.1,0.2-0.2,0.4-0.3,0.6c-0.2,0.3-0.4,0.5-0.6,0.6c-0.2,0.1-0.5,0.2-0.7,0.1h0
		l-0.5,1.5l0.4,0.1l0.4-1.2c1.4,0.3,2.9,0.7,4.3,1l-0.4,1.1l0.4,0.1l0.5-1.5l-0.7-0.2L137.9,63z M135.1,62.8l-0.8,2.5
		c-0.1,0.3-0.2,0.5-0.3,0.7c-0.1,0.2-0.2,0.4-0.2,0.5c-0.1,0.2-0.3,0.4-0.4,0.6c-0.1,0.1-0.2,0.2-0.4,0.3l2.7,0.6l1.5-4.7
		L135.1,62.8z M134.1,65.3l0.8-2.6c0.8,0.2,1.5,0.4,2.3,0.5c-0.5,1.6-1.1,3.3-1.6,5l-3.2-0.7l0.2-0.1c0.2-0.1,0.4-0.2,0.5-0.3
		c0.2-0.1,0.3-0.3,0.4-0.5c0.1-0.1,0.1-0.3,0.2-0.5C134,65.8,134.1,65.5,134.1,65.3z"/>
	<path fill="#E31E24" d="M137.9,69.1l1.9-5.7l0.6,0.1l-0.8,2.4l3.5,0.8l0.8-2.4l0.6,0.1l-1.9,5.7L142,70l0.9-2.9l-3.5-0.8l-0.9,2.9
		L137.9,69.1z M144.1,70.5l1.9-5.7l0.6,0.1l-1.9,5.7L144.1,70.5z"/>
	<path fill="#E31E24" d="M137.9,69l1.9-5.8l0.7,0.2l-0.8,2.4l3.3,0.8l0.8-2.4l0.7,0.2c-0.6,2-1.3,3.9-1.9,5.9l-0.7-0.2l0.9-2.9
		l-3.3-0.8l-0.9,2.9L137.9,69L137.9,69z M139.8,63.4L138,69l0.5,0.1l0.9-2.9c1.2,0.3,2.4,0.6,3.6,0.9l-0.9,2.9l0.5,0.1l1.8-5.6
		l-0.5-0.1l-0.8,2.4c-1.2-0.3-2.4-0.6-3.6-0.9l0.8-2.4L139.8,63.4z M144.1,70.5l1.9-5.8l0.7,0.2c-0.6,2-1.3,3.9-1.9,5.9L144.1,70.5
		L144.1,70.5z M146,64.9l-1.8,5.6l0.5,0.1l1.8-5.6L146,64.9z"/>
	<path fill="#E31E24" d="M17.5,108.3l-0.6,0.3c-0.3-0.2-0.7-0.4-1-0.8c-0.2-0.2-0.3-0.4-0.5-0.7c-0.3-0.7-0.3-1.5,0-2.2
		c0.3-0.7,0.9-1.3,1.7-1.6c0.8-0.4,1.6-0.4,2.3-0.2c0.8,0.2,1.3,0.7,1.6,1.5c0.3,0.7,0.4,1.4,0.2,2.1l-0.6,0.3
		c0.3-0.8,0.3-1.5,0-2.1c-0.3-0.6-0.7-0.9-1.3-1.1c-0.7-0.2-1.3-0.2-1.9,0.1l-0.1,0.1c-0.6,0.3-1.1,0.7-1.4,1.3
		c-0.3,0.6-0.3,1.2-0.1,1.8C16.2,107.6,16.7,108,17.5,108.3z"/>
	<path fill="#E31E24" d="M17.5,108.4l-0.6,0.3l0,0c-0.2-0.1-0.3-0.2-0.5-0.3c-0.2-0.1-0.3-0.3-0.5-0.5c-0.1-0.1-0.2-0.2-0.3-0.3
		c-0.1-0.1-0.1-0.3-0.2-0.4c-0.2-0.4-0.3-0.8-0.3-1.1c0-0.4,0.1-0.7,0.2-1.1c0.2-0.4,0.4-0.7,0.7-1c0.3-0.3,0.6-0.5,1-0.7
		c0.4-0.2,0.8-0.3,1.2-0.3c0.4,0,0.8,0,1.2,0.1c0.4,0.1,0.7,0.3,1,0.6c0.3,0.2,0.5,0.6,0.7,0.9c0.2,0.3,0.2,0.7,0.3,1
		c0,0.4,0,0.7-0.1,1.1l0,0l-0.8,0.4l0.1-0.2c0.2-0.4,0.2-0.7,0.2-1.1c0-0.3-0.1-0.7-0.2-1c-0.1-0.3-0.3-0.5-0.5-0.7
		c-0.2-0.2-0.5-0.3-0.8-0.4c-0.3-0.1-0.6-0.1-0.9-0.1c-0.3,0-0.6,0.1-0.9,0.2l-0.1,0.1c-0.3,0.1-0.6,0.3-0.8,0.5
		c-0.2,0.2-0.4,0.5-0.6,0.8c-0.1,0.3-0.2,0.6-0.2,0.9c0,0.3,0,0.6,0.2,0.9c0.1,0.3,0.3,0.6,0.6,0.8c0.3,0.2,0.6,0.4,0.9,0.6l0.2,0.1
		L17.5,108.4z M16.9,108.5l0.4-0.2c-0.3-0.1-0.6-0.3-0.8-0.5c-0.3-0.2-0.5-0.5-0.6-0.9c-0.1-0.3-0.2-0.6-0.2-0.9
		c0-0.3,0.1-0.6,0.3-0.9c0.1-0.3,0.3-0.6,0.6-0.8c0.2-0.2,0.5-0.4,0.9-0.6l0.1-0.1c0.3-0.1,0.6-0.2,0.9-0.2c0.3,0,0.6,0,1,0.1
		c0.3,0.1,0.6,0.2,0.8,0.4c0.2,0.2,0.4,0.4,0.5,0.7c0.2,0.3,0.2,0.7,0.2,1.1c0,0.3-0.1,0.6-0.2,1l0.4-0.2c0.1-0.3,0.1-0.7,0.1-1
		c0-0.3-0.1-0.7-0.3-1c-0.2-0.4-0.4-0.7-0.6-0.9c-0.3-0.2-0.6-0.4-1-0.5c-0.4-0.1-0.7-0.2-1.1-0.1c-0.4,0-0.8,0.1-1.2,0.3
		c-0.4,0.2-0.7,0.4-1,0.7c-0.3,0.3-0.5,0.6-0.6,0.9c-0.2,0.4-0.2,0.7-0.2,1.1c0,0.4,0.1,0.7,0.2,1.1c0.1,0.1,0.1,0.3,0.2,0.4
		s0.2,0.2,0.2,0.3c0.2,0.2,0.3,0.3,0.5,0.4C16.6,108.3,16.7,108.4,16.9,108.5z"/>
	<polygon fill="#E31E24" points="17.7,111.5 19.6,111.3 22.2,107.7 22.5,108.2 20.2,111.3 24,110.9 24.2,111.4 17.9,112 	"/>
	<path fill="#E31E24" d="M17.7,111.5l1.9-0.2l2.7-3.7l0.4,0.7l-2.2,3l3.6-0.4l0.3,0.6c-2.2,0.2-4.3,0.4-6.5,0.7l-0.3-0.6L17.7,111.5
		z M19.6,111.4l-1.8,0.2l0.2,0.3l6.2-0.6L24,111l-3.9,0.4l2.3-3.2l-0.2-0.4L19.6,111.4L19.6,111.4z"/>
	<path fill="#E31E24" d="M21.8,118.2l2.1-1.6l-0.1-0.1c0,0,0,0-0.1-0.1c0,0-0.1-0.1-0.1-0.2c0,0-0.1-0.1-0.2-0.2l-0.3-0.4
		c-0.4-0.4-0.5-0.8-0.5-1.1c0-0.4,0.2-0.7,0.7-1.1l1.4-1.1l0.3,0.4l-1.3,1c-0.4,0.3-0.6,0.6-0.6,0.8c0,0.2,0.1,0.5,0.4,0.9l0.1,0.2
		c0,0,0.1,0.1,0.2,0.3c0.1,0.1,0.2,0.2,0.4,0.4l2.2-1.7l0.3,0.4l-4.6,3.6L21.8,118.2z"/>
	<path fill="#E31E24" d="M21.8,118.1l2-1.6l0,0c-0.1,0-0.1-0.1-0.1-0.1l-0.1-0.1l-0.1-0.1c-0.1-0.2-0.3-0.4-0.4-0.5
		c-0.2-0.2-0.3-0.4-0.4-0.6c-0.1-0.2-0.1-0.4-0.1-0.5c0-0.2,0.1-0.4,0.2-0.6c0.1-0.2,0.3-0.4,0.5-0.6l1.4-1.1l0.4,0.5l-1.4,1.1
		c-0.2,0.1-0.3,0.3-0.4,0.4c-0.1,0.1-0.1,0.2-0.1,0.3c0,0.1,0,0.2,0.1,0.3c0.1,0.1,0.2,0.3,0.3,0.5l0.1,0.2l0.1,0.1l0.1,0.2l0.3,0.4
		l2.2-1.7l0.4,0.5c-1.6,1.2-3.1,2.5-4.7,3.7L21.8,118.1L21.8,118.1z M23.9,116.6l-2,1.6l0.2,0.3l4.5-3.5l-0.2-0.3l-2.2,1.7
		c-0.2-0.2-0.4-0.4-0.6-0.6c-0.1-0.1-0.1-0.2-0.2-0.3c-0.1-0.2-0.3-0.3-0.3-0.5c-0.1-0.1-0.1-0.3-0.1-0.4c0-0.1,0.1-0.3,0.2-0.4
		c0.1-0.1,0.2-0.3,0.4-0.4l1.2-1l-0.2-0.3l-1.3,1.1c-0.2,0.2-0.4,0.4-0.5,0.5c-0.1,0.2-0.2,0.3-0.2,0.5c0,0.1,0,0.3,0.1,0.5
		c0.1,0.2,0.2,0.4,0.4,0.6l0.3,0.4l0.1,0.1c0.1,0.1,0.1,0.1,0.2,0.2l0,0.1c0,0,0,0,0.1,0.1L23.9,116.6L23.9,116.6z"/>
	<path fill="#E31E24" d="M23.3,119.4l5.9-2.7l-2.4,6l-0.4-0.4l0.8-1.9l-1.6-1.5l-1.8,0.9L23.3,119.4z M25.9,118.7l1.4,1.3l1-2.4
		L25.9,118.7z"/>
	<path fill="#E31E24" d="M23.2,119.4l6-2.8c-0.8,2.1-1.6,4.2-2.5,6.3l-0.5-0.5l0.8-1.9l-1.6-1.5l-1.8,0.9L23.2,119.4L23.2,119.4z
		 M29,116.8l-5.6,2.6l0.3,0.3l1.8-0.9l1.7,1.6l-0.8,1.9l0.3,0.3L29,116.8z M26.1,118.7l1.2,1.2l0.9-2.1L26.1,118.7z M27.3,120.1
		l-1.4-1.4l2.6-1.2L27.3,120.1L27.3,120.1z"/>
	<path fill="#E31E24" d="M31.6,125.2l-0.4,0.5c-0.4,0-0.8-0.1-1.2-0.2c-0.2-0.1-0.5-0.2-0.7-0.4c-0.6-0.5-1-1.1-1-1.9
		c0-0.8,0.2-1.5,0.8-2.2c0.5-0.7,1.2-1.1,2-1.2c0.8-0.1,1.5,0,2.1,0.5c0.6,0.5,0.9,1,1.1,1.8l-0.4,0.5c-0.1-0.8-0.4-1.5-1-1.9
		c-0.5-0.4-1-0.5-1.7-0.4c-0.7,0.1-1.2,0.4-1.6,0.9l-0.1,0.1c-0.4,0.6-0.7,1.2-0.7,1.8c0,0.7,0.3,1.2,0.8,1.6
		C30.2,125.1,30.8,125.3,31.6,125.2z"/>
	<path fill="#E31E24" d="M31.7,125.3l-0.4,0.5h0c-0.2,0-0.4,0-0.6-0.1c-0.2,0-0.4-0.1-0.6-0.2l0,0c-0.1-0.1-0.3-0.1-0.4-0.2
		c-0.1-0.1-0.3-0.2-0.4-0.3c-0.3-0.3-0.6-0.5-0.7-0.9c-0.2-0.3-0.3-0.7-0.3-1.1c0-0.4,0-0.8,0.2-1.2s0.3-0.7,0.6-1.1
		c0.3-0.4,0.6-0.6,0.9-0.8c0.3-0.2,0.7-0.4,1.1-0.4c0.4-0.1,0.8-0.1,1.1,0c0.4,0.1,0.7,0.3,1,0.5c0.3,0.2,0.5,0.5,0.7,0.8
		c0.2,0.3,0.3,0.6,0.4,1l0,0l-0.5,0.7l0-0.2c0-0.4-0.1-0.8-0.3-1.1c-0.2-0.3-0.4-0.6-0.7-0.8c-0.2-0.2-0.5-0.3-0.8-0.4
		c-0.3-0.1-0.6-0.1-0.9,0c-0.3,0.1-0.6,0.2-0.9,0.3c-0.3,0.2-0.5,0.4-0.7,0.6l-0.1,0.1c-0.2,0.3-0.4,0.6-0.5,0.9s-0.2,0.6-0.2,0.9
		c0,0.3,0.1,0.6,0.2,0.9c0.1,0.3,0.3,0.5,0.5,0.7c0.3,0.2,0.6,0.4,0.9,0.5c0.3,0.1,0.7,0.1,1.1,0.1l0.2,0L31.7,125.3z M31.2,125.7
		l0.3-0.4c-0.3,0-0.7,0-1-0.1c-0.4-0.1-0.7-0.3-1-0.5c-0.3-0.2-0.5-0.5-0.6-0.7c-0.1-0.3-0.2-0.6-0.2-0.9c0-0.3,0-0.7,0.2-1
		c0.1-0.3,0.3-0.6,0.5-0.9l0.1-0.1c0.2-0.3,0.4-0.5,0.7-0.6c0.3-0.2,0.6-0.3,0.9-0.3c0.3-0.1,0.6-0.1,0.9,0c0.3,0.1,0.6,0.2,0.8,0.4
		c0.3,0.2,0.5,0.5,0.7,0.8c0.1,0.3,0.2,0.6,0.3,0.9l0.3-0.4c-0.1-0.3-0.2-0.6-0.4-0.9c-0.2-0.3-0.4-0.5-0.7-0.8
		c-0.3-0.2-0.6-0.4-1-0.5s-0.7-0.1-1.1,0c-0.4,0.1-0.7,0.2-1,0.4c-0.3,0.2-0.6,0.5-0.9,0.8c-0.3,0.3-0.5,0.7-0.6,1
		c-0.1,0.4-0.2,0.7-0.2,1.1c0,0.4,0.1,0.7,0.3,1c0.2,0.3,0.4,0.6,0.7,0.8c0.1,0.1,0.2,0.2,0.4,0.2c0.1,0.1,0.2,0.1,0.4,0.2
		c0.2,0.1,0.4,0.1,0.6,0.2C30.9,125.7,31,125.7,31.2,125.7z"/>
	<path fill="#E31E24" d="M32.1,126.7l3-5l0.5,0.3l-1.2,2.1l2.6,1.6l1.2-2.1l0.5,0.3l-3,5l-0.4-0.3l1.5-2.6l-2.6-1.6l-1.5,2.6
		L32.1,126.7z M36.8,129.5l3-5l0.5,0.3l-3,5L36.8,129.5z"/>
	<path fill="#E31E24" d="M32,126.7l3-5.1l0.6,0.3l-1.2,2.1l2.5,1.5l1.2-2.1l0.6,0.3c-1,1.7-2,3.4-3,5.1l-0.6-0.3l1.5-2.6l-2.5-1.5
		l-1.5,2.6L32,126.7L32,126.7z M35.1,121.8l-2.9,4.9l0.3,0.2l1.5-2.6l2.8,1.6l-1.5,2.6l0.3,0.2l2.9-4.9l-0.3-0.2l-1.2,2.1l-2.8-1.6
		l1.2-2.1L35.1,121.8z M36.8,129.5l3-5.1l0.6,0.3c-1,1.7-2,3.4-3.1,5.1L36.8,129.5L36.8,129.5z M39.8,124.6l-2.9,4.9l0.3,0.2
		l2.9-4.9L39.8,124.6z"/>
	<polygon fill="#E31E24" points="43.5,132.8 45.5,127.8 44.2,127.3 44.3,126.9 47.5,128.1 47.3,128.5 46,128 44,133 	"/>
	<path fill="#E31E24" d="M43.5,132.8l1.9-4.9l-1.3-0.5l0.2-0.6l3.3,1.3l-0.2,0.6l-1.3-0.5l-2,5L43.5,132.8L43.5,132.8z M45.6,127.9
		l-1.9,4.9l0.4,0.1l2-5l1.3,0.5l0.1-0.3l-3-1.2l-0.1,0.3L45.6,127.9L45.6,127.9z"/>
	<polygon fill="#E31E24" points="47.2,134.2 49.2,128.7 51.9,129.7 51.7,130.1 49.5,129.3 48.9,131.1 51,131.9 50.9,132.3 
		48.7,131.5 47.9,134 50.1,134.7 49.9,135.2 	"/>
	<path fill="#E31E24" d="M47.2,134.2l2-5.6l2.8,1l-0.2,0.6l-2.2-0.8L49,131l2.1,0.8l-0.2,0.6l-2.1-0.8l-0.8,2.3l2.2,0.8l-0.2,0.6
		L47.2,134.2L47.2,134.2z M49.2,128.8l-1.9,5.4l2.6,0.9l0.1-0.3l-2.2-0.8c0.3-0.9,0.6-1.7,0.9-2.6l2.1,0.8l0.1-0.3l-2.1-0.8l0.7-1.9
		l2.2,0.8l0.1-0.3L49.2,128.8z"/>
	<polygon fill="#E31E24" points="54.2,134 52.2,136.1 51.7,135.9 54.1,133.5 53.6,130.4 54.2,130.5 54.5,133.2 56.4,131.3 57,131.5 
		54.6,133.7 55.2,137 54.7,136.9 	"/>
	<path fill="#E31E24" d="M54.2,134.2l-2,2l-0.7-0.2l2.5-2.4l-0.5-3.3l0.7,0.2l0.4,2.5l1.8-1.8l0.7,0.2l-2.4,2.3l0.6,3.4l-0.7-0.2
		L54.2,134.2z M52.2,136l2.1-2.1l0.5,2.9l0.4,0.1l-0.6-3.3l2.3-2.2l-0.4-0.1l-1.9,2l-0.4-2.7l-0.4-0.1l0.5,3.1l-2.4,2.3L52.2,136z"
		/>
	<polygon fill="#E31E24" points="56.9,137.6 58.3,131.9 58.8,132 58.3,134.3 61.3,135 61.8,132.7 62.3,132.8 61,138.5 60.5,138.4 
		61.1,135.5 58.2,134.8 57.5,137.7 	"/>
	<path fill="#E31E24" d="M56.9,137.5l1.4-5.7l0.6,0.2l-0.6,2.3l2.9,0.7l0.6-2.3l0.6,0.1c-0.5,1.9-0.9,3.9-1.4,5.8l-0.6-0.2l0.7-2.9
		l-2.9-0.7l-0.7,2.9L56.9,137.5L56.9,137.5z M58.4,132l-1.3,5.6l0.4,0.1l0.7-2.9c1,0.3,2.1,0.5,3.1,0.8l-0.7,2.9l0.4,0.1l1.3-5.5
		l-0.4-0.1l-0.6,2.3l-3.1-0.8l0.6-2.3L58.4,132z"/>
	<path fill="#E31E24" d="M62.8,136c0.2-0.8,0.6-1.5,1.2-1.9c0.6-0.4,1.3-0.5,2-0.3c0.7,0.2,1.3,0.6,1.7,1.2c0.4,0.7,0.5,1.4,0.3,2.2
		c-0.2,0.8-0.6,1.4-1.2,1.9c-0.6,0.4-1.3,0.5-2,0.3c-0.7-0.2-1.3-0.6-1.7-1.2C62.7,137.6,62.6,136.9,62.8,136z M63.3,136.1
		c-0.2,0.7-0.1,1.3,0.2,1.9c0.3,0.6,0.7,0.9,1.3,1.1c0.6,0.2,1.2,0,1.7-0.3c0.5-0.4,0.8-0.9,1-1.6c0.2-0.7,0.1-1.3-0.2-1.9
		c-0.3-0.6-0.7-0.9-1.3-1.1c-0.6-0.1-1.2,0-1.7,0.3C63.8,134.9,63.4,135.5,63.3,136.1z"/>
	<path fill="#E31E24" d="M62.7,136c0.1-0.4,0.3-0.8,0.5-1.1c0.2-0.3,0.5-0.6,0.8-0.8c0.3-0.2,0.6-0.3,1-0.4c0.3-0.1,0.7,0,1.1,0.1
		c0.4,0.1,0.7,0.2,1,0.5c0.3,0.2,0.5,0.5,0.7,0.8c0.2,0.3,0.3,0.7,0.3,1.1c0,0.4,0,0.8-0.1,1.2c-0.1,0.4-0.3,0.8-0.5,1.1
		c-0.2,0.3-0.5,0.6-0.8,0.8c-0.3,0.2-0.6,0.3-1,0.4c-0.3,0.1-0.7,0-1.1-0.1c-0.4-0.1-0.7-0.2-1-0.5s-0.5-0.5-0.7-0.8
		c-0.2-0.3-0.3-0.7-0.4-1.1C62.6,136.8,62.6,136.4,62.7,136z M63.3,135c-0.2,0.3-0.3,0.7-0.4,1.1c-0.1,0.4-0.1,0.8-0.1,1.1
		c0,0.4,0.2,0.7,0.3,1s0.4,0.6,0.7,0.8c0.3,0.2,0.6,0.3,0.9,0.4c0.4,0.1,0.7,0.1,1,0.1c0.3-0.1,0.6-0.2,0.9-0.4
		c0.3-0.2,0.5-0.4,0.7-0.8c0.2-0.3,0.3-0.7,0.4-1.1c0.1-0.4,0.1-0.8,0.1-1.2c0-0.4-0.2-0.7-0.3-1c-0.2-0.3-0.4-0.6-0.7-0.8
		s-0.6-0.3-0.9-0.4s-0.7-0.1-1-0.1c-0.3,0.1-0.6,0.2-0.9,0.4C63.7,134.4,63.5,134.7,63.3,135z M63.3,136.2c-0.1,0.3-0.1,0.7-0.1,1
		c0,0.3,0.1,0.6,0.2,0.9c0.1,0.3,0.3,0.5,0.5,0.7c0.2,0.2,0.5,0.3,0.8,0.4c0.3,0.1,0.6,0.1,0.8,0c0.3-0.1,0.5-0.2,0.8-0.3
		c0.2-0.2,0.4-0.4,0.6-0.6c0.2-0.3,0.3-0.5,0.4-0.9c0.1-0.3,0.1-0.7,0.1-1c0-0.3-0.1-0.6-0.2-0.8c-0.1-0.3-0.3-0.5-0.5-0.7
		c-0.2-0.2-0.5-0.3-0.8-0.4c-0.3-0.1-0.6-0.1-0.8,0c-0.3,0-0.5,0.2-0.8,0.3c-0.2,0.2-0.4,0.4-0.6,0.6
		C63.5,135.5,63.4,135.8,63.3,136.2z M63.1,137.1c0-0.3,0-0.7,0.1-1c0.1-0.3,0.2-0.7,0.4-0.9c0.2-0.3,0.4-0.5,0.6-0.7
		c0.3-0.2,0.5-0.3,0.8-0.4c0.3-0.1,0.6,0,0.9,0c0.3,0.1,0.6,0.2,0.8,0.4c0.2,0.2,0.4,0.4,0.6,0.7c0.1,0.3,0.2,0.6,0.3,0.9
		c0,0.3,0,0.6-0.1,1c-0.1,0.3-0.2,0.7-0.4,0.9c-0.2,0.3-0.4,0.5-0.6,0.7c-0.3,0.2-0.5,0.3-0.8,0.4c-0.3,0.1-0.6,0-0.9,0
		c-0.3-0.1-0.6-0.2-0.8-0.4c-0.2-0.2-0.4-0.4-0.6-0.7C63.3,137.8,63.2,137.5,63.1,137.1z"/>
	<path fill="#E31E24" d="M74.1,138.2c0.1-0.8,0.5-1.5,1.1-1.9c0.6-0.4,1.3-0.6,2-0.5c0.8,0.1,1.3,0.5,1.7,1.1
		c0.4,0.6,0.5,1.4,0.4,2.2c-0.1,0.8-0.5,1.5-1.1,1.9c-0.6,0.4-1.2,0.6-2,0.5c-0.7-0.1-1.3-0.5-1.7-1.1
		C74.1,139.8,73.9,139.1,74.1,138.2z M74.6,138.3c-0.1,0.7,0,1.3,0.3,1.8c0.3,0.5,0.8,0.9,1.4,1c0.6,0.1,1.2,0,1.6-0.4
		c0.5-0.4,0.8-0.9,0.9-1.6c0.1-0.7,0-1.3-0.3-1.8c-0.3-0.5-0.8-0.9-1.4-1c-0.6-0.1-1.2,0-1.6,0.4C75,137.1,74.7,137.6,74.6,138.3z"
		/>
	<path fill="#E31E24" d="M74,138.2c0.1-0.4,0.2-0.8,0.4-1.1c0.2-0.3,0.4-0.6,0.7-0.8c0.3-0.2,0.6-0.4,1-0.5c0.3-0.1,0.7-0.1,1.1,0
		c0.4,0.1,0.7,0.2,1,0.4c0.3,0.2,0.5,0.5,0.8,0.8c0.2,0.3,0.3,0.7,0.4,1c0.1,0.4,0.1,0.8,0,1.2c-0.1,0.4-0.2,0.8-0.4,1.1
		c-0.2,0.3-0.4,0.6-0.7,0.8c-0.3,0.2-0.6,0.4-1,0.5c-0.3,0.1-0.7,0.1-1.1,0c-0.4-0.1-0.7-0.2-1-0.4c-0.3-0.2-0.5-0.5-0.8-0.8
		c-0.2-0.3-0.3-0.7-0.4-1C73.9,139,73.9,138.6,74,138.2z M74.5,137.1c-0.2,0.3-0.3,0.7-0.4,1.1c-0.1,0.4-0.1,0.8,0,1.2
		c0.1,0.4,0.2,0.7,0.4,1c0.2,0.3,0.4,0.5,0.7,0.7c0.3,0.2,0.6,0.3,1,0.4c0.4,0.1,0.7,0.1,1,0c0.3-0.1,0.6-0.2,0.9-0.4
		c0.3-0.2,0.5-0.5,0.7-0.8c0.2-0.3,0.3-0.7,0.4-1.1c0.1-0.4,0.1-0.8,0-1.2s-0.2-0.7-0.4-1c-0.2-0.3-0.4-0.5-0.7-0.7
		c-0.3-0.2-0.6-0.3-1-0.4c-0.4-0.1-0.7-0.1-1,0c-0.3,0.1-0.6,0.2-0.9,0.4C74.9,136.6,74.7,136.8,74.5,137.1z M74.6,138.3
		c-0.1,0.3-0.1,0.7,0,1c0,0.3,0.1,0.6,0.3,0.8c0.2,0.3,0.3,0.5,0.6,0.6c0.2,0.2,0.5,0.3,0.8,0.3c0.3,0.1,0.6,0,0.8,0
		c0.3-0.1,0.5-0.2,0.7-0.4c0.2-0.2,0.4-0.4,0.6-0.7s0.2-0.6,0.3-0.9c0.1-0.3,0.1-0.7,0-1c0-0.3-0.1-0.6-0.3-0.8
		c-0.2-0.3-0.3-0.5-0.6-0.6c-0.2-0.2-0.5-0.3-0.8-0.3c-0.3-0.1-0.6,0-0.8,0s-0.5,0.2-0.7,0.4s-0.4,0.4-0.6,0.7
		C74.8,137.7,74.7,138,74.6,138.3z M74.5,139.3c-0.1-0.3,0-0.7,0-1c0.1-0.4,0.2-0.7,0.3-0.9c0.1-0.3,0.3-0.5,0.6-0.7
		c0.2-0.2,0.5-0.3,0.8-0.4c0.3-0.1,0.6-0.1,0.9,0c0.3,0.1,0.6,0.2,0.8,0.3c0.2,0.2,0.4,0.4,0.6,0.7c0.2,0.3,0.3,0.6,0.3,0.9
		c0,0.3,0,0.6,0,1c-0.1,0.4-0.2,0.7-0.3,0.9c-0.1,0.3-0.3,0.5-0.6,0.7c-0.2,0.2-0.5,0.3-0.8,0.4c-0.3,0.1-0.6,0.1-0.9,0
		c-0.3-0.1-0.6-0.2-0.8-0.3c-0.2-0.2-0.4-0.4-0.6-0.7C74.6,139.9,74.5,139.6,74.5,139.3z"/>
	<path fill="#E31E24" d="M70.3,134.8l2.7,0.4l-0.7,5.4l-0.5-0.1l0.7-5l-1.8-0.3l-0.4,2.9c-0.1,0.6-0.2,1.1-0.4,1.4
		c-0.2,0.4-0.6,0.6-1.1,0.5c0,0,0,0-0.1,0c0,0-0.1,0-0.1,0c-0.1,0-0.2,0-0.2-0.1l0.1-0.4l0,0c0,0,0,0,0,0l0,0c0,0,0,0,0,0
		c0,0,0,0,0.1,0c0,0,0,0,0.1,0c0.4,0.1,0.6-0.1,0.8-0.5c0.1-0.2,0.2-0.6,0.3-1.1L70.3,134.8z"/>
	<path fill="#E31E24" d="M70.3,134.8l2.8,0.4l-0.8,5.6l-0.6-0.1l0.7-5l-1.6-0.2l-0.4,2.9c0,0.3-0.1,0.6-0.2,0.8
		c-0.1,0.2-0.1,0.4-0.2,0.6c-0.1,0.2-0.3,0.4-0.5,0.5c-0.2,0.1-0.4,0.1-0.7,0.1c0,0,0,0,0,0l0,0l0,0h0c0,0-0.1,0-0.1,0
		c0,0-0.1,0-0.1,0l0,0l0.1-0.6l0.1,0l0,0l0,0l0,0l0,0h0l0,0l0,0l0,0l0,0c0.2,0,0.3,0,0.4-0.1c0.1-0.1,0.2-0.2,0.3-0.4
		c0-0.1,0.1-0.2,0.1-0.4c0-0.2,0.1-0.4,0.1-0.6L70.3,134.8L70.3,134.8z M72.9,135.3l-2.6-0.4l-0.4,3.3c0,0.2-0.1,0.5-0.1,0.6
		c0,0.2-0.1,0.3-0.1,0.4c-0.1,0.2-0.2,0.3-0.4,0.4c-0.1,0.1-0.3,0.1-0.5,0.1c0,0,0,0,0,0l0,0l0,0l0,0c0,0,0,0,0,0l0,0l0,0l0,0.3
		c0,0,0,0,0.1,0c0,0,0.1,0,0.1,0c0,0,0.1,0,0.1,0l0,0c0.2,0,0.4,0,0.6-0.1s0.3-0.2,0.4-0.4c0.1-0.1,0.1-0.3,0.2-0.5s0.1-0.5,0.2-0.8
		l0.4-3l1.9,0.3l-0.7,5l0.3,0L72.9,135.3z"/>
	<polygon fill="#E31E24" points="80.7,142 81,136.5 83.2,136.6 83.1,137.1 81.5,137 81.2,142 	"/>
	<path fill="#E31E24" d="M80.6,142l0.3-5.6l2.3,0.2l0,0.6l-1.7-0.1l-0.3,5.1L80.6,142L80.6,142z M81.1,136.6l-0.3,5.4l0.3,0l0.3-5.1
		l1.7,0.1l0-0.3L81.1,136.6z"/>
	<polygon fill="#E31E24" points="85,142.5 85.2,137 85.6,137 85.4,142.5 	"/>
	<path fill="#E31E24" d="M84.9,142.5l0.2-5.6l0.6,0c-0.1,1.9-0.1,3.8-0.2,5.6L84.9,142.5L84.9,142.5z M85.2,137l-0.2,5.4l0.3,0
		l0.2-5.4L85.2,137z"/>
	<polygon fill="#E31E24" points="87.6,142.6 87.8,137.1 88.2,137.1 88,142.6 	"/>
	<path fill="#E31E24" d="M87.5,142.6l0.2-5.6l0.6,0c-0.1,1.9-0.1,3.8-0.2,5.6L87.5,142.6L87.5,142.6z M87.8,137.2l-0.2,5.4l0.3,0
		l0.2-5.4L87.8,137.2z"/>
	<path fill="#E31E24" d="M93.5,143l0.1-5.5l2.5,0.1l0,0.4l-2-0.1l0,1.8l0.8,0c0.6,0,1.1,0.2,1.4,0.6c0.2,0.2,0.3,0.6,0.3,1
		c0,0.8-0.4,1.3-1.1,1.5c-0.2,0.1-0.5,0.1-0.8,0.1L93.5,143z M94,142.5l0.7,0c0,0,0.1,0,0.3,0c0.1,0,0.2,0,0.4-0.1
		c0.5-0.1,0.7-0.5,0.7-1.1c0-0.5-0.2-0.9-0.6-1.1c-0.1-0.1-0.2-0.1-0.3-0.1c-0.1,0-0.2,0-0.2,0l-0.8,0L94,142.5z"/>
	<path fill="#E31E24" d="M93.5,143l0.1-5.6l2.6,0.1l0,0.6l-2-0.1l0,1.7l0.7,0c0.3,0,0.6,0.1,0.8,0.2c0.2,0.1,0.4,0.3,0.6,0.5
		c0.1,0.1,0.2,0.3,0.2,0.5c0,0.2,0.1,0.4,0.1,0.6c0,0.4-0.1,0.8-0.3,1c-0.2,0.3-0.5,0.4-0.8,0.5c-0.1,0-0.2,0-0.4,0.1
		c-0.1,0-0.3,0-0.5,0L93.5,143L93.5,143z M93.7,137.5l-0.1,5.4l1,0c0.2,0,0.3,0,0.5,0c0.1,0,0.3,0,0.4-0.1c0.3-0.1,0.6-0.3,0.8-0.5
		s0.3-0.6,0.3-0.9c0-0.2,0-0.4-0.1-0.6c0-0.2-0.1-0.3-0.2-0.4c-0.2-0.2-0.3-0.3-0.6-0.4c-0.2-0.1-0.5-0.2-0.8-0.2l-0.9,0l0-2l2,0.1
		l0-0.3L93.7,137.5z M94.1,142.5l0.6,0c0,0,0,0,0.1,0l0.2,0c0.1,0,0.1,0,0.2,0s0.1,0,0.2,0c0.2-0.1,0.4-0.2,0.5-0.4
		c0.1-0.2,0.2-0.4,0.2-0.7c0-0.3,0-0.5-0.1-0.7c-0.1-0.2-0.2-0.3-0.4-0.4c-0.1,0-0.1,0-0.2-0.1c-0.1,0-0.1,0-0.1,0c0,0-0.1,0-0.1,0
		s-0.1,0-0.1,0l-0.7,0L94.1,142.5z M94.7,142.6l-0.7,0c0-0.8,0-1.7,0-2.5l0.9,0c0,0,0.1,0,0.1,0c0,0,0.1,0,0.1,0c0.1,0,0.1,0,0.2,0
		c0.1,0,0.1,0,0.2,0.1c0.2,0.1,0.4,0.2,0.5,0.4c0.1,0.2,0.2,0.4,0.2,0.7c0,0.3-0.1,0.5-0.2,0.7c-0.1,0.2-0.3,0.3-0.6,0.4l0,0
		c-0.1,0-0.1,0-0.2,0c-0.1,0-0.1,0-0.2,0L94.7,142.6C94.7,142.6,94.7,142.6,94.7,142.6z"/>
	<polygon fill="#E31E24" points="98.9,143.1 99.6,141.5 97.8,137.6 98.3,137.6 99.8,140.9 101.2,137.7 101.7,137.7 99.4,143.1 	"/>
	<path fill="#E31E24" d="M98.8,143.1l0.7-1.6l-1.8-3.9l0.7,0l1.4,3.2l1.3-3.1l0.6,0c-0.8,1.9-1.5,3.7-2.3,5.6L98.8,143.1L98.8,143.1
		z M99.7,141.5l-0.6,1.6l0.3,0l2.2-5.3l-0.3,0l-1.4,3.4l-1.5-3.4l-0.4,0L99.7,141.5L99.7,141.5z"/>
	<path fill="#E31E24" d="M104.5,137.6l3.1,0l0.1,5.1h0.7l0,1.5h-0.5l0-1.1l-3.9,0l0,1.1h-0.5l0-1.5h0.1c0.4,0,0.7-0.3,0.9-0.9
		c0.1-0.4,0.2-0.8,0.1-1.3L104.5,137.6z M105,138l0,2.4c0,0.5,0,0.9-0.1,1.2c-0.1,0.4-0.3,0.8-0.6,1l2.7,0L107,138L105,138z"/>
	<path fill="#E31E24" d="M104.5,137.5l3.2,0l0.1,5.1l0.7,0l0,1.7h-0.6l0-1.1l-3.7,0l0,1.1h-0.6l0-1.7h0.1c0.2,0,0.3-0.1,0.5-0.2
		c0.1-0.1,0.2-0.3,0.3-0.6c0-0.2,0.1-0.4,0.1-0.6c0-0.2,0-0.5,0-0.7L104.5,137.5L104.5,137.5z M107.5,137.6l-3,0l0,2.8
		c0,0.3,0,0.5,0,0.7c0,0.2-0.1,0.4-0.1,0.6c-0.1,0.3-0.2,0.5-0.4,0.7c-0.2,0.2-0.3,0.2-0.6,0.2l0,1.4h0.4l0-1.1c1.3,0,2.7,0,4,0
		l0,1.1h0.4l0-1.4h-0.7L107.5,137.6z M105.1,138.1l0,2.4c0,0.3,0,0.5,0,0.7c0,0.2,0,0.4-0.1,0.5c0,0.2-0.1,0.4-0.2,0.6
		c-0.1,0.1-0.1,0.2-0.2,0.3l2.4,0l-0.1-4.5L105.1,138.1z M105,140.5l0-2.5h2.1l0.1,4.8c-1,0-1.9,0-2.9,0l0.1-0.1
		c0.1-0.1,0.2-0.3,0.3-0.4c0.1-0.2,0.2-0.3,0.2-0.6c0-0.1,0-0.3,0.1-0.5C105,140.9,105,140.7,105,140.5z"/>
	<polygon fill="#E31E24" points="109.6,143 109.5,137.5 110,137.5 110.1,143 	"/>
	<path fill="#E31E24" d="M109.6,143l-0.1-5.6l0.6,0c0,1.9,0.1,3.8,0.1,5.6L109.6,143L109.6,143z M109.6,137.6l0.1,5.4l0.3,0
		l-0.1-5.4H109.6z"/>
	<path fill="#E31E24" d="M112.1,137.3l1,0c0.1,0,0.2,0,0.3,0c0.1,0,0.3,0,0.4,0.1c0.6,0.1,0.9,0.5,0.9,1.2c0,0.6-0.2,1-0.7,1.2v0
		c0,0,0.1,0,0.1,0c0,0,0.1,0,0.1,0c0.3,0.1,0.5,0.2,0.7,0.5c0.2,0.2,0.3,0.5,0.3,0.9c0,0.9-0.4,1.4-1.2,1.6c-0.1,0-0.1,0-0.1,0
		l-1.6,0L112.1,137.3z M112.8,142.3l0.8,0c0.3,0,0.6-0.1,0.8-0.3c0.2-0.2,0.3-0.5,0.3-0.8c0,0,0,0,0,0v0c0-0.4-0.2-0.7-0.4-0.9
		c-0.2-0.2-0.5-0.2-0.9-0.2l-0.8,0L112.8,142.3z M112.7,139.6l0.6,0c0.2,0,0.3,0,0.5-0.1c0.3-0.2,0.5-0.5,0.5-0.9
		c0-0.6-0.4-0.9-1-0.9l-0.6,0L112.7,139.6z"/>
	<path fill="#E31E24" d="M112.1,137.2l1,0c0.1,0,0.1,0,0.2,0c0.1,0,0.1,0,0.1,0c0.1,0,0.1,0,0.2,0c0.1,0,0.1,0,0.2,0
		c0.3,0.1,0.5,0.2,0.7,0.4c0.2,0.2,0.2,0.5,0.3,0.8c0,0.3,0,0.6-0.2,0.8c-0.1,0.2-0.2,0.3-0.4,0.4c0,0,0,0,0,0
		c0.2,0,0.3,0.1,0.4,0.2c0.1,0.1,0.2,0.2,0.3,0.3c0.1,0.1,0.2,0.3,0.2,0.4c0,0.1,0.1,0.3,0.1,0.5c0,0.5-0.1,0.8-0.3,1.1
		c-0.2,0.3-0.5,0.5-1,0.5c0,0-0.1,0-0.1,0c0,0,0,0-0.1,0l-1.6,0C112.2,141,112.1,139.1,112.1,137.2L112.1,137.2z M113.2,137.3l-1,0
		l0.2,5.4l1.5,0c0,0,0,0,0.1,0c0,0,0,0,0.1,0c0.4-0.1,0.7-0.2,0.9-0.5c0.2-0.3,0.3-0.6,0.3-1c0-0.2,0-0.3-0.1-0.5
		c0-0.1-0.1-0.3-0.2-0.4s-0.2-0.2-0.3-0.3c-0.1-0.1-0.2-0.1-0.4-0.2c0,0,0,0,0,0c0,0,0,0,0,0l0,0c0,0,0,0,0,0H114l0-0.1l0,0
		c0.2-0.1,0.4-0.3,0.5-0.4c0.1-0.2,0.2-0.4,0.1-0.7c0-0.3-0.1-0.6-0.2-0.7s-0.3-0.3-0.6-0.4c-0.1,0-0.1,0-0.2,0c-0.1,0-0.1,0-0.2,0
		c0,0-0.1,0-0.1,0S113.2,137.3,113.2,137.3z M112.9,142.3l0.7,0c0.2,0,0.3,0,0.4-0.1c0.1,0,0.2-0.1,0.3-0.2c0.1-0.1,0.2-0.2,0.2-0.3
		c0.1-0.1,0.1-0.3,0.1-0.5c0,0,0,0,0,0h0v0v0h0l0,0v0c0-0.2,0-0.3-0.1-0.5c-0.1-0.1-0.2-0.2-0.3-0.3c-0.1-0.1-0.2-0.1-0.4-0.2
		c-0.1,0-0.3,0-0.5,0l-0.7,0L112.9,142.3z M113.6,142.4l-0.9,0l-0.1-2.4l0.9,0c0.2,0,0.4,0,0.5,0.1c0.2,0,0.3,0.1,0.4,0.2
		c0.1,0.1,0.2,0.2,0.3,0.4c0.1,0.2,0.1,0.3,0.1,0.5l0,0c0,0.1,0,0,0,0c0,0.2,0,0.4-0.1,0.5c-0.1,0.1-0.2,0.3-0.3,0.4
		c-0.1,0.1-0.2,0.2-0.4,0.2C114,142.3,113.8,142.4,113.6,142.4z M114.7,141.2L114.7,141.2L114.7,141.2L114.7,141.2z M112.8,139.6
		l0.6,0c0.1,0,0.2,0,0.2,0c0.1,0,0.1,0,0.2-0.1c0.2-0.1,0.3-0.2,0.3-0.3c0.1-0.1,0.1-0.3,0.1-0.5c0-0.3-0.1-0.5-0.3-0.6
		c-0.2-0.1-0.4-0.2-0.7-0.2l-0.6,0L112.8,139.6z M113.3,139.7l-0.7,0l-0.1-2l0.7,0c0.4,0,0.6,0.1,0.8,0.2c0.2,0.2,0.3,0.4,0.3,0.7
		c0,0.2,0,0.4-0.1,0.6c-0.1,0.2-0.2,0.3-0.4,0.4c-0.1,0-0.2,0.1-0.3,0.1C113.5,139.7,113.4,139.7,113.3,139.7z"/>
	<polygon fill="#E31E24" points="117.3,142.4 117,136.9 119.6,136.7 119.6,137.2 117.5,137.3 117.6,139 119.7,138.9 119.7,139.4 
		117.6,139.5 117.8,141.9 119.9,141.8 120,142.2 	"/>
	<path fill="#E31E24" d="M117.3,142.4l-0.4-5.6l2.8-0.1l0,0.6l-2.1,0.1l0.1,1.6l2.1-0.1l0,0.6l-2.1,0.1l0.1,2.3l2.1-0.1l0,0.6
		L117.3,142.4L117.3,142.4z M117.1,136.9l0.4,5.4l2.5-0.1l0-0.3l-2.1,0.1l-0.2-2.5l2.1-0.1l0-0.3l-2.1,0.1l-0.1-1.9l2.1-0.1l0-0.3
		L117.1,136.9z"/>
	<path fill="#E31E24" d="M122.7,136.2l2.7-0.2l0.5,5.5l-0.5,0l-0.5-5l-1.8,0.1l0.3,2.9c0.1,0.6,0,1.1,0,1.4
		c-0.1,0.5-0.4,0.7-0.9,0.8c0,0,0,0-0.1,0c0,0-0.1,0-0.1,0c-0.1,0-0.2,0-0.3,0l0-0.4l0,0c0,0,0,0,0,0l0,0c0,0,0,0,0,0c0,0,0,0,0.1,0
		c0,0,0,0,0.1,0c0.4,0,0.6-0.2,0.7-0.6c0-0.2,0-0.6,0-1.1L122.7,136.2z"/>
	<path fill="#E31E24" d="M122.7,136.2l2.8-0.2l0.5,5.6l-0.6,0l-0.5-5l-1.6,0.1l0.3,2.9c0,0.3,0,0.6,0,0.9c0,0.2,0,0.5-0.1,0.6
		c-0.1,0.3-0.2,0.4-0.4,0.6s-0.4,0.2-0.6,0.2c0,0,0,0,0,0l0,0h0h0c0,0-0.1,0-0.1,0c0,0-0.1,0-0.1,0l0,0l-0.1-0.6l0.1,0l0,0l0,0l0,0
		h0l0,0h0h0h0c0.2,0,0.3-0.1,0.4-0.2c0.1-0.1,0.2-0.2,0.2-0.4c0-0.1,0-0.3,0-0.4s0-0.4,0-0.6L122.7,136.2L122.7,136.2z M125.4,136.1
		l-2.6,0.2l0.3,3.3c0,0.3,0,0.5,0,0.7c0,0.2,0,0.3,0,0.5c0,0.2-0.1,0.4-0.2,0.5c-0.1,0.1-0.3,0.2-0.5,0.2c0,0,0,0,0,0l0,0h0h0
		c0,0,0,0,0,0l0,0h0l0,0.3c0,0,0,0,0.1,0c0,0,0.1,0,0.1,0c0,0,0.1,0,0.1,0h0c0.2,0,0.4-0.1,0.6-0.2c0.1-0.1,0.3-0.3,0.3-0.5
		c0-0.2,0.1-0.3,0.1-0.6c0-0.2,0-0.5,0-0.8l-0.3-3l1.9-0.2l0.5,5l0.3,0L125.4,136.1z"/>
	<path fill="#E31E24" d="M128.3,141.1l-1-5.4l0.5-0.1l0.4,2.3l0.8-0.1c0.3,0,0.6-0.1,0.8,0c0.6,0.1,1,0.6,1.1,1.3
		c0.1,0.8-0.1,1.3-0.8,1.7c-0.2,0.1-0.5,0.2-0.8,0.2L128.3,141.1z M128.7,140.5l0.7-0.1c0,0,0.1,0,0.3-0.1c0.1,0,0.2-0.1,0.3-0.1
		c0.2-0.1,0.3-0.2,0.4-0.4c0.1-0.2,0.1-0.4,0.1-0.8c-0.1-0.5-0.4-0.8-0.8-0.9c-0.1,0-0.2,0-0.3,0c-0.1,0-0.1,0-0.2,0l-0.8,0.1
		L128.7,140.5z"/>
	<path fill="#E31E24" d="M128.3,141.1l-1-5.5l0.6-0.1l0.4,2.3l0.7-0.1c0.2,0,0.3,0,0.4,0c0.1,0,0.3,0,0.4,0c0.3,0.1,0.6,0.2,0.8,0.4
		c0.2,0.2,0.3,0.5,0.4,0.9c0.1,0.4,0,0.8-0.1,1c-0.1,0.3-0.4,0.5-0.7,0.7c-0.1,0.1-0.2,0.1-0.4,0.1c-0.1,0-0.3,0.1-0.5,0.1
		L128.3,141.1L128.3,141.1z M127.5,135.7l0.9,5.3l1-0.2c0.2,0,0.3-0.1,0.4-0.1s0.3-0.1,0.4-0.1c0.3-0.1,0.5-0.4,0.6-0.6
		c0.1-0.3,0.1-0.6,0.1-1c-0.1-0.4-0.2-0.6-0.4-0.8c-0.2-0.2-0.4-0.3-0.7-0.4c-0.1,0-0.2,0-0.4,0c-0.1,0-0.3,0-0.4,0l-0.9,0.1
		l-0.4-2.3L127.5,135.7z M128.8,140.5l0.6-0.1c0,0,0,0,0.1,0l0.2,0c0.1,0,0.1,0,0.2,0c0.1,0,0.1,0,0.1-0.1c0.1,0,0.1-0.1,0.2-0.2
		c0.1-0.1,0.1-0.1,0.2-0.2c0.1-0.1,0.1-0.2,0.1-0.3c0-0.1,0-0.3,0-0.4c0-0.3-0.1-0.5-0.3-0.6c-0.1-0.1-0.3-0.2-0.5-0.3
		c-0.1,0-0.1,0-0.2,0c0,0-0.1,0-0.1,0c0,0-0.1,0-0.1,0s-0.1,0-0.1,0l-0.7,0.1L128.8,140.5z M129.4,140.5l-0.7,0.1l-0.4-2.4l0.9-0.1
		c0.1,0,0.1,0,0.1,0c0,0,0.1,0,0.1,0c0,0,0.1,0,0.2,0s0.1,0,0.2,0c0.2,0,0.4,0.2,0.6,0.3c0.1,0.2,0.2,0.4,0.3,0.7c0,0.2,0,0.3,0,0.5
		c0,0.1-0.1,0.3-0.1,0.4s-0.1,0.2-0.2,0.3c-0.1,0.1-0.2,0.1-0.2,0.2l0,0c0,0-0.1,0.1-0.2,0.1c-0.1,0-0.1,0-0.2,0.1L129.4,140.5
		C129.5,140.5,129.5,140.5,129.4,140.5z"/>
	<polygon fill="#E31E24" points="133.3,140.2 132.1,134.9 132.5,134.7 133.1,137 135.8,136.4 135.3,134.2 135.8,134.1 137,139.4 
		136.5,139.5 135.9,136.8 133.2,137.4 133.8,140.1 	"/>
	<path fill="#E31E24" d="M133.2,140.2l-1.2-5.4l0.6-0.1l0.5,2.2l2.6-0.6l-0.5-2.2l0.6-0.1c0.4,1.8,0.8,3.7,1.3,5.5l-0.6,0.1
		l-0.6-2.7l-2.6,0.6l0.6,2.7L133.2,140.2L133.2,140.2z M132.2,134.9l1.2,5.2l0.3-0.1l-0.6-2.7c1-0.2,1.9-0.4,2.9-0.6l0.6,2.7
		l0.3-0.1l-1.2-5.2l-0.3,0.1l0.5,2.2c-1,0.2-1.9,0.4-2.9,0.6l-0.5-2.2L132.2,134.9z"/>
	<polygon fill="#E31E24" points="137.7,133.5 138.2,133.4 139.1,137.7 141.4,132.5 142.7,138.1 142.2,138.2 141.2,134 139,139.1 	
		"/>
	<path fill="#E31E24" d="M137.7,133.5l0.5-0.1l0.9,4.1l2.3-5.2l1.3,5.8l-0.6,0.1l-0.9-4.1l-2.3,5.2
		C138.5,137.4,138.1,135.4,137.7,133.5L137.7,133.5z M138.1,133.5l-0.3,0.1l1.2,5.3l2.3-5.2l1,4.4l0.3-0.1l-1.2-5.3l-2.3,5.2
		L138.1,133.5z"/>
	<polygon fill="#E31E24" points="145.5,134.7 145,137.3 144.5,137.5 145.1,134.4 143.1,132.2 143.6,132 145.2,133.9 145.6,131.4 
		146.2,131.3 145.6,134.3 147.8,136.5 147.3,136.7 	"/>
	<path fill="#E31E24" d="M145.5,134.9l-0.4,2.5l-0.7,0.2l0.6-3.2l-2.1-2.3l0.7-0.2l1.6,1.8l0.4-2.4l0.7-0.2l-0.6,3l2.3,2.3l-0.7,0.2
		L145.5,134.9z M145,137.3l0.5-2.7l1.9,2l0.4-0.1l-2.2-2.2l0.5-2.9l-0.4,0.1l-0.4,2.5l-1.7-1.9l-0.4,0.1l2,2.2l-0.6,3L145,137.3z"/>
	<polygon fill="#E31E24" points="152.4,135 151.1,129.4 154.7,133.3 155,128 157.6,133.2 157.2,133.3 155.3,129.7 155.1,134.3 
		151.9,130.9 152.9,134.8 	"/>
	<path fill="#E31E24" d="M152.4,135l-1.4-5.8l3.7,4l0.2-5.4c0.9,1.8,1.8,3.6,2.8,5.4l-0.5,0.2l-1.8-3.5l-0.2,4.5l-3.1-3.3l0.9,3.8
		L152.4,135L152.4,135z M151.2,129.6l1.3,5.3l0.3-0.1l-1-4.2l3.3,3.5l0.2-4.7l1.9,3.8l0.3-0.1l-2.5-4.8l-0.2,5.2L151.2,129.6z"/>
	<path fill="#E31E24" d="M158.4,132.7l-0.3-6l4.3,4.3l-0.5,0.2l-1.4-1.4l-1.9,0.8l0.1,1.9L158.4,132.7z M158.7,130.1l1.6-0.7
		l-1.7-1.7L158.7,130.1z"/>
	<path fill="#E31E24" d="M158.3,132.7l-0.3-6.2l4.5,4.5l-0.6,0.3l-1.4-1.4l-1.8,0.8l0.1,1.9L158.3,132.7L158.3,132.7z M158.2,126.8
		l0.3,5.8l0.3-0.1l-0.1-1.9l2-0.9l1.4,1.4l0.3-0.1L158.2,126.8z M158.7,130l1.4-0.6l-1.5-1.5L158.7,130z M160.3,129.5l-1.7,0.7
		l-0.1-2.7L160.3,129.5L160.3,129.5z"/>
	<polygon fill="#E31E24" points="165.1,129.7 162.6,125.3 161.5,125.9 161.3,125.6 164,124 164.2,124.4 163.1,125.1 165.6,129.5 	
		"/>
	<path fill="#E31E24" d="M165.1,129.7l-2.5-4.3l-1.2,0.6l-0.3-0.5c0.9-0.5,1.9-1.1,2.8-1.6l0.3,0.5l-1.2,0.6l2.5,4.4L165.1,129.7
		L165.1,129.7z M162.7,125.3l2.5,4.3l0.3-0.2L163,125l1.1-0.6l-0.1-0.3l-2.6,1.4l0.2,0.3L162.7,125.3L162.7,125.3z"/>
	<polygon fill="#E31E24" points="168.9,127.6 165.7,123.1 167.9,121.6 168.1,121.9 166.4,123.2 167.4,124.6 169.1,123.4 
		169.3,123.8 167.6,125 169,126.9 170.8,125.7 171,126.1 	"/>
	<path fill="#E31E24" d="M168.8,127.6l-3.2-4.6l2.3-1.6l0.3,0.5l-1.8,1.2l0.9,1.3l1.7-1.2l0.3,0.5l-1.7,1.2l1.3,1.9l1.8-1.2l0.3,0.5
		C170.4,126.6,169.6,127.1,168.8,127.6L168.8,127.6z M165.8,123.1l3.1,4.4l2.1-1.4l-0.2-0.2L169,127l-1.5-2.1l1.7-1.2l-0.2-0.2
		l-1.7,1.2l-1.1-1.6l1.8-1.2l-0.2-0.2L165.8,123.1z"/>
	<path fill="#E31E24" d="M173,124.8l-3.5-4.3l1.1-0.9c0.2-0.1,0.4-0.2,0.5-0.3c0.6-0.2,1.1,0,1.5,0.5c0.5,0.6,0.5,1.1,0.2,1.6
		c-0.1,0.1-0.2,0.3-0.4,0.4l-0.7,0.6l1.6,2L173,124.8z M170.1,120.6l1.3,1.6l0.7-0.5c0.1-0.1,0.2-0.2,0.3-0.3
		c0.2-0.3,0.2-0.7-0.1-1.1c-0.2-0.2-0.4-0.4-0.6-0.4c-0.3,0-0.5,0-0.7,0.1c0,0-0.1,0.1-0.2,0.1L170.1,120.6z"/>
	<path fill="#E31E24" d="M172.9,124.8l-3.5-4.3l1.1-0.9c0.1-0.1,0.2-0.1,0.3-0.2s0.2-0.1,0.3-0.1c0.3-0.1,0.6-0.1,0.9,0
		c0.3,0.1,0.5,0.3,0.8,0.6c0.2,0.3,0.4,0.6,0.4,0.9c0,0.3,0,0.6-0.2,0.8c-0.1,0.1-0.1,0.2-0.2,0.2s-0.2,0.1-0.2,0.2l-0.6,0.5l1.6,2
		L172.9,124.8L172.9,124.8z M169.6,120.5l3.4,4.2l0.3-0.2l-1.6-2l0.7-0.6c0.1-0.1,0.2-0.1,0.2-0.2c0.1-0.1,0.1-0.1,0.2-0.2
		c0.2-0.2,0.2-0.5,0.2-0.7c0-0.3-0.2-0.5-0.4-0.8c-0.2-0.3-0.5-0.5-0.7-0.5c-0.2-0.1-0.5-0.1-0.8,0c-0.1,0-0.2,0.1-0.2,0.1
		c-0.1,0-0.2,0.1-0.3,0.2L169.6,120.5z M170.2,120.6l1.2,1.5l0.6-0.5c0.1,0,0.1-0.1,0.2-0.1c0,0,0.1-0.1,0.1-0.1
		c0.1-0.1,0.1-0.3,0.1-0.5c0-0.2-0.1-0.4-0.3-0.5c-0.1-0.1-0.2-0.2-0.3-0.3c-0.1-0.1-0.2-0.1-0.2-0.1l0,0c-0.1,0-0.2,0-0.3,0
		s-0.2,0.1-0.3,0.1c0,0,0,0-0.1,0c0,0-0.1,0-0.1,0.1L170.2,120.6z M171.4,122.2l-1.3-1.6l0.7-0.6c0,0,0.1,0,0.1-0.1c0,0,0.1,0,0.1,0
		c0.1-0.1,0.2-0.1,0.4-0.1s0.3,0,0.4,0c0.1,0,0.2,0.1,0.3,0.1c0.1,0.1,0.2,0.2,0.3,0.3c0.2,0.2,0.3,0.4,0.3,0.6c0,0.2,0,0.4-0.1,0.6
		c0,0.1-0.1,0.1-0.1,0.2c-0.1,0-0.1,0.1-0.2,0.2L171.4,122.2L171.4,122.2z"/>
	<polygon fill="#E31E24" points="176.6,122 172.8,118 173.2,117.6 176.9,121.7 	"/>
	<path fill="#E31E24" d="M176.5,122l-3.8-4.1l0.5-0.4l3.8,4.1L176.5,122L176.5,122z M172.9,118l3.7,3.9l0.3-0.2l-3.7-3.9L172.9,118z
		"/>
	<path fill="#E31E24" d="M178.2,120.6l-2.6-5.5l5.6,2.3l-0.3,0.4l-1.8-0.7l-1.4,1.5l0.8,1.7L178.2,120.6z M177.5,118.1l1.2-1.2
		l-2.2-0.9L177.5,118.1z"/>
	<path fill="#E31E24" d="M178.1,120.6l-2.6-5.6l5.9,2.4l-0.4,0.5l-1.8-0.7l-1.4,1.4l0.8,1.7L178.1,120.6L178.1,120.6z M175.7,115.3
		l2.5,5.2l0.2-0.2l-0.8-1.7c0.5-0.5,1-1,1.5-1.5l1.8,0.7l0.2-0.2L175.7,115.3z M177.5,118l1.1-1.1l-2-0.8L177.5,118z M178.7,116.9
		l-1.3,1.3l-1.2-2.4L178.7,116.9L178.7,116.9z"/>
	<path fill="#E31E24" d="M178.1,112.4l1.6-2.2l4.5,3.1l-0.3,0.4l-4.2-2.9l-1,1.4l2.4,1.7c0.5,0.4,0.9,0.7,1.1,1
		c0.3,0.4,0.3,0.8,0,1.2c0,0,0,0,0,0c0,0,0,0,0,0.1c-0.1,0.1-0.1,0.1-0.2,0.2l-0.4-0.2l0,0c0,0,0,0,0,0l0,0c0,0,0,0,0,0c0,0,0,0,0,0
		c0,0,0,0,0,0c0.2-0.3,0.2-0.6-0.1-0.9c-0.1-0.2-0.4-0.4-0.8-0.7L178.1,112.4z"/>
	<path fill="#E31E24" d="M178,112.4l1.6-2.3l4.6,3.2l-0.4,0.5l-4.2-2.9l-1,1.3l2.4,1.6c0.3,0.2,0.5,0.4,0.7,0.5
		c0.2,0.2,0.3,0.3,0.4,0.5c0.1,0.2,0.2,0.4,0.2,0.7s-0.1,0.4-0.2,0.6c0,0,0,0,0,0l0,0c0,0,0,0,0,0c0,0-0.1,0.1-0.1,0.1
		c0,0-0.1,0.1-0.1,0.1l0,0l-0.5-0.3l0.1-0.1l0,0l0,0l0,0l0,0l0,0l0,0c0,0,0,0,0,0c0,0,0,0,0,0l0,0l0,0l0,0c0.1-0.1,0.1-0.3,0.1-0.4
		c0-0.1-0.1-0.3-0.2-0.4c-0.1-0.1-0.2-0.2-0.3-0.3c-0.1-0.1-0.3-0.2-0.5-0.4L178,112.4L178,112.4z M179.7,110.3l-1.5,2.1l2.8,1.9
		c0.2,0.1,0.4,0.3,0.5,0.4c0.1,0.1,0.3,0.2,0.3,0.3c0.1,0.2,0.2,0.3,0.2,0.5c0,0.2,0,0.3-0.2,0.5c0,0,0,0,0,0l0,0l0,0c0,0,0,0,0,0
		c0,0,0,0,0,0l0,0l0,0l0.2,0.2c0,0,0,0,0,0c0,0,0.1-0.1,0.1-0.1c0,0,0-0.1,0.1-0.1l0,0c0.1-0.2,0.2-0.4,0.2-0.6
		c0-0.2-0.1-0.4-0.2-0.6c-0.1-0.1-0.2-0.3-0.4-0.4c-0.2-0.2-0.4-0.3-0.7-0.5l-2.5-1.7l1.1-1.6l4.2,2.9l0.2-0.3L179.7,110.3z"/>
	<polygon fill="#E31E24" points="185.4,110.8 180.5,108.3 180.7,107.9 185.6,110.4 	"/>
	<path fill="#E31E24" d="M185.3,110.9l-4.9-2.6l0.3-0.5c1.7,0.9,3.3,1.7,5,2.6L185.3,110.9L185.3,110.9z M180.6,108.3l4.7,2.5
		l0.2-0.3l-4.8-2.5L180.6,108.3z"/>
	<path fill="#E31E24" d="M181.4,106.1l0.4-1c0-0.1,0.1-0.2,0.1-0.3c0-0.1,0.1-0.2,0.2-0.4c0.4-0.5,0.8-0.6,1.4-0.3
		c0.5,0.2,0.8,0.6,0.8,1.1l0,0c0,0,0-0.1,0-0.1c0,0,0-0.1,0.1-0.1c0.2-0.2,0.4-0.4,0.7-0.5c0.3-0.1,0.6,0,0.9,0.1
		c0.8,0.3,1.2,0.9,1,1.8c0,0.1,0,0.1,0,0.1l-0.6,1.5L181.4,106.1z M186.3,107.5l0.3-0.8c0.1-0.3,0.2-0.6,0.1-0.9
		c-0.1-0.3-0.3-0.5-0.6-0.7c0,0,0,0,0,0h0c-0.4-0.1-0.7-0.1-1,0c-0.2,0.1-0.4,0.4-0.6,0.7l-0.3,0.7L186.3,107.5z M183.8,106.6
		l0.2-0.6c0.1-0.2,0.1-0.3,0.1-0.5c0-0.4-0.2-0.6-0.7-0.8c-0.6-0.2-1,0-1.2,0.6l-0.2,0.6L183.8,106.6z"/>
	<path fill="#E31E24" d="M181.3,106.1l0.4-1c0-0.1,0-0.1,0.1-0.2c0,0,0-0.1,0.1-0.1c0-0.1,0.1-0.1,0.1-0.2c0-0.1,0.1-0.1,0.1-0.2
		c0.2-0.2,0.4-0.4,0.7-0.5c0.3-0.1,0.5,0,0.9,0.1c0.3,0.1,0.5,0.3,0.6,0.5c0.1,0.2,0.2,0.3,0.2,0.5c0,0,0,0,0,0
		c0.1-0.1,0.2-0.2,0.3-0.3c0.1-0.1,0.3-0.1,0.4-0.2c0.1,0,0.3,0,0.5,0c0.2,0,0.3,0.1,0.5,0.1c0.4,0.2,0.7,0.4,0.9,0.7
		c0.2,0.3,0.2,0.7,0.1,1.1c0,0,0,0.1,0,0.1s0,0,0,0.1l-0.6,1.5L181.3,106.1L181.3,106.1z M181.9,105.2l-0.4,0.9l5,2l0.6-1.4
		c0,0,0,0,0,0c0,0,0,0,0-0.1c0.1-0.4,0.1-0.7-0.1-1c-0.2-0.3-0.4-0.5-0.8-0.7c-0.2-0.1-0.3-0.1-0.5-0.1c-0.1,0-0.3,0-0.4,0
		c-0.1,0-0.3,0.1-0.4,0.1c-0.1,0.1-0.2,0.2-0.3,0.3c0,0,0,0,0,0c0,0,0,0,0,0l0,0l0,0l0,0.1l-0.1,0v0c0-0.2-0.1-0.5-0.2-0.6
		c-0.1-0.2-0.3-0.3-0.6-0.4c-0.3-0.1-0.5-0.1-0.8-0.1c-0.2,0.1-0.4,0.2-0.6,0.4c0,0.1-0.1,0.1-0.1,0.2c0,0.1-0.1,0.1-0.1,0.2
		c0,0,0,0.1-0.1,0.1C181.9,105.1,181.9,105.2,181.9,105.2z M186.3,107.5l0.3-0.7c0.1-0.2,0.1-0.3,0.1-0.4c0-0.1,0-0.3,0-0.4
		c0-0.1-0.1-0.3-0.2-0.4c-0.1-0.1-0.2-0.2-0.4-0.3l0,0c0,0,0,0,0,0l0,0c-0.2-0.1-0.3-0.1-0.5-0.1c-0.1,0-0.3,0-0.4,0.1
		c-0.1,0.1-0.2,0.1-0.3,0.3c-0.1,0.1-0.2,0.2-0.2,0.4l-0.3,0.7L186.3,107.5z M186.7,106.8l-0.3,0.8l-2.2-0.9l0.3-0.8
		c0.1-0.2,0.2-0.3,0.3-0.4c0.1-0.1,0.2-0.2,0.3-0.3c0.1-0.1,0.3-0.1,0.5-0.1c0.2,0,0.3,0,0.5,0.1l0,0c0,0,0,0,0,0
		c0.2,0.1,0.3,0.2,0.4,0.3c0.1,0.1,0.2,0.3,0.2,0.4c0,0.1,0,0.3,0,0.4C186.8,106.5,186.7,106.6,186.7,106.8z M183.7,106.5l0.2-0.5
		c0-0.1,0.1-0.2,0.1-0.2c0-0.1,0-0.2,0-0.2c0-0.2-0.1-0.3-0.2-0.4c-0.1-0.1-0.2-0.2-0.4-0.3c-0.3-0.1-0.5-0.1-0.7,0
		c-0.2,0.1-0.3,0.3-0.5,0.6l-0.2,0.5L183.7,106.5z M184.1,106l-0.3,0.6c-0.6-0.2-1.3-0.5-1.9-0.7l0.3-0.7c0.1-0.3,0.3-0.5,0.5-0.7
		c0.2-0.1,0.5-0.1,0.8,0c0.2,0.1,0.4,0.2,0.5,0.3c0.1,0.1,0.2,0.3,0.2,0.5c0,0.1,0,0.2,0,0.3C184.1,105.8,184.1,105.9,184.1,106z"/>
	<path fill="#E31E24" d="M79.8,70.1c3.1,1.7,6.2,3.3,9,5.5c-0.9-0.2-1.9-0.3-2.8-0.5c-2.9-0.4-5.5-0.9-8.4-0.1
		c1.5,0.1,2.7,0.2,4.2,0.5c0.9,0.2,1.7,0.3,2.6,0.5c4.7,1.1,9,2.1,13.4,4.5c-0.3,0.9-0.7,1.8-1,2.7c-0.2,0.8-0.4,1.6-0.6,2.3
		c-0.1,0.5-0.3,1.1-0.4,1.6c-0.5,1.6-0.9,3-1.1,4.8c0.2,0,0.3,0,0.5,0.1c0.2-1.5,0.5,0,0.5,0.5c0.1,0,0.3,0,0.4,0
		c0.4-1.8,0.7-1.5,1.1,0c0.1,0,0.2,0,0.3-0.1c0.2-1.8,0.5-2.3,1.1-0.3c0.1,0,0.2-0.1,0.3-0.1c0-1.9,0.1-2.1,1.3-0.5
		c0.1,0,0.2,0,0.2-0.1c-0.1-1.4-0.2-1.9,0.9-0.5c0.1-0.1,0.2-0.2,0.3-0.2c-0.1-2.3-0.3-2.8-1.4-4.9c1.1-0.4,2-0.8,2.9-1.4
		c0,0.1,0,0.3,0.1,0.4c0.2,0.2,0.3,0.1,0.6,0.2c0-0.1,0-0.2,0.1-0.3c0.1,0,0.2,0,0.4,0c0-0.1,0-0.2,0-0.3c0.1,0,0.2,0,0.3,0
		c0-0.1-0.1-0.3-0.1-0.4c-0.1,0-0.5-0.1-0.6-0.1c1.2-1.8,1.6-3.8,1.9-5.9c0.3-2.8-0.1-3.9,1.7-6.4c1.7-1.7,4.4-2.2,6.7-2.7
		c-2.7-0.1-4.1,0.6-6.6,1.2c-4-0.4-6.9-1-7.1,4.2c-0.3,1.1-1.1,0.4-1.8,0c-0.8-0.4-1.7-0.8-2.5-1.2C91.8,71,84,68,79.8,70.1z"/>
	<path fill="#E31E24" d="M79.9,70.1c0.4,0.2,0.7,0.4,1.1,0.6c2.7,1.5,5.4,2.9,7.8,4.9l0.2,0.1l-3-0.5l-0.3,0
		c-2.6-0.4-5.1-0.7-7.7-0.2c0.6,0,1.2,0.1,1.7,0.1c0.7,0.1,1.4,0.2,2.1,0.3c0.8,0.2,1.8,0.4,2.6,0.5c2.4,0.6,4.6,1.1,6.8,1.8
		c2.2,0.7,4.4,1.5,6.5,2.7l0,0l-1,2.7c-0.3,1.3-0.6,2.6-1,3.9c-0.2,0.8-0.5,1.6-0.7,2.3c-0.2,0.8-0.3,1.5-0.4,2.4l0.4,0
		c0-0.3,0.1-0.5,0.1-0.6c0.1-0.1,0.1-0.1,0.2,0c0,0,0.1,0.1,0.1,0.2c0.1,0.3,0.2,0.7,0.2,1h0.3c0.2-0.9,0.4-1.3,0.6-1.2
		c0.2,0,0.4,0.5,0.6,1.2l0.2,0c0.1-0.9,0.2-1.5,0.4-1.6c0.2-0.1,0.5,0.3,0.8,1.3l0.3-0.1c0-1,0-1.5,0.2-1.6c0.2-0.1,0.5,0.3,1.1,1.1
		l0.1,0l0-0.1c0-0.7-0.1-1.1,0.1-1.2c0.1-0.1,0.4,0.1,0.9,0.8l0.2-0.2c-0.1-1.1-0.1-1.8-0.3-2.5c-0.2-0.7-0.5-1.3-1.1-2.3l0-0.1
		l0.1,0c0.6-0.2,1-0.4,1.5-0.6c0.5-0.2,0.9-0.5,1.4-0.8l0.1,0l0.1,0.5c0.1,0.1,0.2,0.1,0.3,0.1c0,0,0.1,0,0.1,0l0.1-0.3l0.4,0l0-0.3
		l0.3,0l-0.1-0.3c-0.1,0-0.3,0-0.4-0.1l-0.1,0l-0.1,0l0-0.1c0.6-0.9,1-1.9,1.3-2.8c0.3-1,0.5-2,0.6-3.1c0-0.5,0.1-1,0.1-1.5
		c0.1-1.8,0.2-3,1.6-5l0,0c1.4-1.5,3.7-2,5.7-2.5c0.2,0,0.4-0.1,0.6-0.1c-1.7,0-3,0.3-4.4,0.7c-0.6,0.2-1.2,0.3-1.8,0.5h0l-0.5-0.1
		c-0.8-0.1-1.5-0.2-2.2-0.2c-2.5-0.1-4.2,0.6-4.3,4.4v0l0,0c-0.2,0.6-0.4,0.7-0.8,0.6c-0.2-0.1-0.4-0.2-0.7-0.3
		c-0.1-0.1-0.3-0.2-0.4-0.2l-2.5-1.2c-2.4-1.2-6.1-2.7-9.6-3.3C83.9,69.3,81.6,69.3,79.9,70.1z M80.9,70.8c-0.4-0.2-0.8-0.4-1.1-0.6
		l-0.1,0l0.1,0c1.8-0.9,4.1-0.9,6.6-0.4c3.5,0.6,7.2,2.1,9.6,3.3l2.5,1.2c0.1,0.1,0.3,0.1,0.4,0.2c0.2,0.1,0.5,0.2,0.7,0.3
		c0.3,0.1,0.5,0,0.7-0.5c0.1-3.9,1.9-4.5,4.4-4.5c0.7,0,1.4,0.1,2.2,0.2l0.5,0c0.7-0.2,1.3-0.3,1.8-0.5c1.6-0.4,2.9-0.8,4.8-0.7
		l0.4,0l-0.4,0.1c-0.3,0.1-0.6,0.2-1,0.2c-2,0.5-4.3,1-5.7,2.5c-1.4,2-1.5,3.1-1.6,4.9c0,0.4-0.1,0.9-0.1,1.5v0
		c-0.2,1.1-0.3,2.1-0.6,3.1c-0.3,1-0.7,1.9-1.2,2.8h0c0.2,0,0.4,0,0.5,0.1l0,0l0.1,0.5l-0.3,0l0,0.3l-0.4,0l-0.1,0.4l-0.1,0
		c-0.1,0-0.1,0-0.2,0c-0.2,0-0.2,0-0.4-0.2l0,0l-0.1-0.4c-0.5,0.3-0.9,0.6-1.3,0.8c-0.5,0.2-0.9,0.4-1.5,0.6c0.5,1,0.8,1.6,1,2.3
		c0.2,0.7,0.3,1.4,0.3,2.5l0,0l-0.3,0.3l0,0c-0.5-0.6-0.7-0.9-0.8-0.8c-0.1,0.1-0.1,0.5,0,1.1l0,0.2l-0.3,0.1l0,0
		c-0.6-0.8-0.9-1.1-1-1.1C99,90.6,99,91.1,99,92v0l-0.4,0.1l0,0c-0.3-1-0.5-1.3-0.7-1.3c-0.2,0.1-0.3,0.6-0.4,1.5l0,0l-0.4,0.1l0,0
		c-0.2-0.8-0.4-1.2-0.5-1.2c-0.1,0-0.3,0.3-0.5,1.2l0,0h-0.5l0,0c0-0.3-0.1-0.8-0.2-1c0-0.1,0-0.1-0.1-0.1c0,0,0,0,0,0
		c0,0.1-0.1,0.3-0.1,0.6l0,0.1l-0.6-0.1l0-0.1c0.1-0.9,0.2-1.6,0.4-2.4c0.2-0.8,0.4-1.5,0.7-2.3l0.4-1.6c0.5-2.2,0.8-2.9,1.6-5
		c-2.2-1.2-4.3-2-6.5-2.7c-2.2-0.7-4.4-1.2-6.8-1.8l-2.6-0.5c-0.7-0.1-1.4-0.2-2.1-0.3c-0.7-0.1-1.4-0.1-2.1-0.2l-0.3,0l0.3-0.1
		c2.8-0.7,5.3-0.3,8.1,0.1c1,0.1,2,0.3,2.9,0.5C86.2,73.7,83.5,72.2,80.9,70.8z"/>
</g>
</svg>
