<?xml version="1.0" encoding="utf-8"?>
<!-- Generator: Adobe Illustrator 19.2.1, SVG Export Plug-In . SVG Version: 6.00 Build 0)  -->
<svg version="1.1" id="Layer_1" xmlns="http://www.w3.org/2000/svg" xmlns:xlink="http://www.w3.org/1999/xlink" x="0px" y="0px"
	 viewBox="0 0 200 200" style="enable-background:new 0 0 200 200;" xml:space="preserve">
<style type="text/css">
	.st0{fill:#FFFFFF;}
</style>
<g id="Layer_x0020_1_1_">
	<path class="st0" d="M24.9,79.8c-10.3,0-18.6,8.4-18.6,18.8c0,10.4,8.3,18.8,18.6,18.8c10.3,0,18.6-8.4,18.6-18.8
		C43.5,88.2,35.2,79.8,24.9,79.8z M24.9,114.2c-8.5,0-15.5-7-15.5-15.6C9.4,90,16.3,83,24.9,83c8.6,0,15.5,7,15.5,15.6
		C40.4,107.2,33.4,114.2,24.9,114.2z"/>
	<path class="st0" d="M42,88.9C42,88.9,42,88.9,42,88.9c1.6,2.9,2.5,6.2,2.5,9.7c0,11-8.8,19.8-19.7,19.8c-4.1,0-7.9-1.3-11.1-3.4
		c0,0,0,0,0,0L0.8,127.1h51.2l5.3-51.8L42,88.9z"/>
	<polygon class="st0" points="56,124.9 61.4,72.9 70.3,73 67.4,100.7 68.2,100.7 73.2,83.3 82.1,83.3 76.1,101.3 78.1,124.8 
		68.9,124.8 67.6,103.9 67.1,103.9 65.1,124.9 	"/>
	<path class="st0" d="M101.2,85c-2.6-2.9-4.6-2.7-8.5-2.7c-2.8,0.2-4.1,0.4-6.4,2.1c-2.7,2.6-3.1,4.3-3.9,8c-0.3,3-0.8,6.9-1.3,10.9
		c-0.7,6-1.4,12.2-1,16.3c1.1,4,3,4.9,7,6.1c0,0,0,0,0.1,0c4.7,0,6.3,0.2,10.4-2.8c2.7-3.6,2.8-6.5,3.3-10.9
		c0.6-6.1,1.2-12.1,1.8-18.2c0-1,0.1-2.1,0.1-3.1C102.8,88.5,102.6,86.9,101.2,85z M91.9,117.2c-0.2,1.3-0.8,1.9-2,2
		c-1.1-0.2-1.5-1-1.5-2.1c0.3-2.6,2.6-26.3,2.7-26.5c0.4-1.6,1.2-2.2,2.8-1.6c0.7,0.4,0.8,1.6,0.8,2.4
		C93.7,100.1,92.8,108.6,91.9,117.2z"/>
	<path class="st0" d="M103,124.4c1.3-13.8,2.6-27.6,3.9-41.4c2.9,0,5.8,0.1,8.7,0.1c-0.1,1-0.2,2.1-0.3,3.1c2-2.1,2.8-2.9,5.4-3.9
		c2.2-0.3,3.9-0.2,5.7,1.9c0.9,1.3,0.6,2.6,0.6,5c-0.2,2.4-0.4,4.8-0.7,7.1c-0.3,3-0.6,6-0.9,8.9c-2.9,0-5.7,0-8.6,0
		c0.3-2.2,0.5-4.4,0.8-6.6c0.2-1.6,0.3-3.2,0.5-4.9c0.1-1.8,0.4-3.8-1.5-4c-1.8-0.1-2,2.1-2.2,3.8c-0.9,10.3-1.9,20.6-2.8,30.9
		C108.8,124.4,105.9,124.4,103,124.4z"/>
	<path class="st0" d="M175,124.4c1.3-13.8,2.6-27.6,3.9-41.4c2.9,0,5.8,0.1,8.7,0.1c-0.1,1-0.2,2.1-0.3,3.1c2-2.1,2.8-2.9,5.4-3.9
		c2.2-0.3,3.9-0.2,5.7,1.9c0.9,1.3,0.6,2.6,0.6,5c-0.2,2.4-0.4,4.8-0.7,7.1c-0.3,3-0.6,6-0.9,8.9c-2.9,0-5.7,0-8.6,0
		c0.3-2.2,0.5-4.4,0.8-6.6c0.2-1.6,0.3-3.2,0.5-4.9c0.1-1.8,0.4-3.8-1.5-4c-1.8-0.1-2,2.1-2.2,3.8c-0.9,10.3-1.9,20.6-2.8,30.9
		C180.7,124.4,177.9,124.4,175,124.4z"/>
	<path class="st0" d="M127.5,124.4c1.3-13.8,2.6-27.6,3.9-41.4c2.9,0,5.8,0.1,8.7,0.1c-0.1,1-0.2,2.1-0.3,3.1c2-2.1,2.8-2.9,5.4-3.9
		c2.2-0.3,3.9-0.2,5.7,1.9c0.9,1.3,0.6,2.6,0.6,5c-0.2,2.4-0.4,4.8-0.7,7.1c-0.3,3-2.7,25.2-3,28.2c-2.9,0-5.7,0-8.6,0
		c0.3-2.2,2.6-23.7,2.8-25.9c0.2-1.6,0.3-3.2,0.5-4.9c0.1-1.8,0.4-3.8-1.5-4c-1.8-0.1-2,2.1-2.2,3.8c-0.9,10.3-1.9,20.6-2.8,30.9
		C133.3,124.4,130.4,124.4,127.5,124.4z"/>
	<path class="st0" d="M161.5,104.8c4,0,8.1,0,12.1,0c0.5-4.6,0.9-9.3,1.4-13.9c0.1-4.2-1.4-6.7-4.2-7.9c-3.5-1.4-8.5-1-11.3,0
		c-3.4,2-3.8,3.5-5.1,7.3c-0.4,3.7-0.8,7.4-1.2,11c-0.5,5.6-2.4,15.3-0.6,20.4c1,2.1,3.6,3.4,5.9,3.7c1.3,0.1,2.5,0.1,3.7,0.1
		c4.5-0.5,7.5-1.9,9.4-6.1c0.7-2.4,0.9-3.8,1.2-6.2c0.1-1.6,0.2-3.2,0.3-4.9c-2.9,0-5.8,0-8.7,0c-0.2,2.6-0.4,5.2-0.6,7.8
		c-0.2,2.1-1.2,3.1-2.8,2.4c-0.5-0.3-0.7-0.8-0.7-1.8C160.7,112.9,161.1,108.8,161.5,104.8z M162.5,98.9c0.2-2.8,0.5-5.5,0.7-8.3
		c0.5-1.3,0.9-1.9,1.4-2.1c0.8-0.4,1.8,0.3,1.9,1.6c-0.2,3-0.4,6.1-0.6,9.1c-1.2,0-2.3,0-3.5,0C162.5,99.1,162.5,99,162.5,98.9z"/>
</g>
</svg>
