<?xml version="1.0" encoding="utf-8"?>
<!-- Generator: Adobe Illustrator 18.0.0, SVG Export Plug-In . SVG Version: 6.00 Build 0)  -->
<!DOCTYPE svg PUBLIC "-//W3C//DTD SVG 1.1//EN" "http://www.w3.org/Graphics/SVG/1.1/DTD/svg11.dtd">
<svg version="1.1" id="Layer_1" xmlns="http://www.w3.org/2000/svg" xmlns:xlink="http://www.w3.org/1999/xlink" x="0px" y="0px"
	 viewBox="0 0 200 200" enable-background="new 0 0 200 200" xml:space="preserve">
<g id="Layer_x0020_1">
	<polygon fill="#FF1A01" points="0.1,126.2 51.7,126.2 57,74 40.9,88.3 	"/>
	<path fill="#E31E24" d="M0.2,126.1h51.4l5.3-52l-16,14.2L0.2,126.1z M51.7,126.2H0c19-17.6,37.7-35.1,57-52.3
		C55.3,91.3,53.5,108.8,51.7,126.2L51.7,126.2z"/>
	<path fill="#FFFFFF" d="M24.4,79.3c10.9,0,19.8,9,19.8,20c0,11-8.9,20-19.8,20c-10.9,0-19.8-9-19.8-20
		C4.6,88.3,13.5,79.3,24.4,79.3z"/>
	<path fill="#FFFEFF" d="M24.4,79.3c5.5,0,10.4,2.2,14,5.9c3.6,3.6,5.8,8.6,5.8,14.2c0,5.5-2.2,10.5-5.8,14.2
		c-3.6,3.6-8.6,5.9-14,5.9c-5.5,0-10.4-2.2-14-5.9c-3.6-3.6-5.8-8.6-5.8-14.2c0-5.5,2.2-10.5,5.8-14.2C14,81.5,18.9,79.3,24.4,79.3z
		 M38.4,85.2c-3.6-3.6-8.5-5.8-14-5.8c-5.5,0-10.4,2.2-14,5.8c-3.6,3.6-5.8,8.6-5.8,14.1c0,5.5,2.2,10.5,5.8,14.1
		c3.6,3.6,8.5,5.8,14,5.8c5.5,0,10.4-2.2,14-5.8c3.6-3.6,5.8-8.6,5.8-14.1C44.2,93.8,42,88.8,38.4,85.2z"/>
	<path fill="#FFE013" d="M24.4,82.7c9.1,0,16.5,7.4,16.5,16.6c0,9.2-7.4,16.6-16.5,16.6c-9.1,0-16.5-7.4-16.5-16.6
		C8,90.1,15.3,82.7,24.4,82.7z"/>
	<path fill="#FFE013" d="M24.4,82.6c4.6,0,8.7,1.9,11.7,4.9c3,3,4.8,7.2,4.8,11.8c0,4.6-1.8,8.8-4.8,11.8c-3,3-7.1,4.9-11.7,4.9
		c-4.6,0-8.7-1.9-11.7-4.9c-3-3-4.8-7.2-4.8-11.8c0-4.6,1.8-8.8,4.8-11.8C15.7,84.5,19.9,82.6,24.4,82.6z M36,87.6
		c-3-3-7.1-4.9-11.6-4.9c-4.5,0-8.6,1.9-11.6,4.9c-3,3-4.8,7.1-4.8,11.7c0,4.6,1.8,8.7,4.8,11.7c3,3,7.1,4.9,11.6,4.9
		c4.5,0,8.6-1.9,11.6-4.9c3-3,4.8-7.1,4.8-11.7C40.8,94.7,39,90.6,36,87.6z"/>
	<polygon fill="#090D0E" points="55.8,125.8 61.2,73.4 70.1,73.5 67.2,101.5 68,101.5 73.1,83.9 82.1,83.9 76,102 78,125.7 
		68.7,125.7 67.4,104.6 67,104.7 64.9,125.8 	"/>
	<path fill="#2B2A29" d="M55.7,125.8l5.4-52.4c3,0,6,0,9,0l-2.9,28H68l5-17.6h9.1L76,102l2,23.8h-9.4l-1.3-21.1l-0.4,0l-2,21.1
		C61.9,125.8,58.8,125.8,55.7,125.8L55.7,125.8z M61.3,73.5l-5.4,52.2l9.1,0l2-21.1l0.6-0.1l1.3,21.1h9.2l-2-23.7L82,83.9h-8.9
		l-5,17.6h-0.9l2.9-28L61.3,73.5z"/>
	<path fill="#2B2A29" d="M82.5,93.1c0.7-3.7,1.2-5.4,3.9-8c2.3-1.7,3.6-1.9,6.4-2.1c3.9,0,5.9-0.2,8.6,2.7c1.4,1.9,1.5,3.5,1.6,5.7
		c0,1-0.1,2.1-0.1,3.1c-0.6,6.1-1.2,12.2-1.8,18.4c-0.4,4.4-0.6,7.3-3.3,11c-4.1,3-5.7,2.8-10.5,2.8c0,0,0,0-0.1,0
		c-3.9-1.2-5.9-2.1-7-6.1c-0.4-4.1,0.3-10.4,1-16.4C81.6,100,82.2,96.1,82.5,93.1z"/>
	<path fill="#2B2A29" d="M82.4,93.1c0.4-1.9,0.7-3.2,1.2-4.4c0.5-1.2,1.3-2.3,2.7-3.6l0,0c1.2-0.9,2.1-1.3,3-1.6
		c1-0.3,2-0.4,3.4-0.5h0.6c3.5,0,5.4,0,8,2.7l0,0c0.7,0.9,1.1,1.8,1.3,2.8c0.2,0.9,0.3,1.9,0.3,3c0,6.8-1.3,14.7-1.9,21.5l-0.1,0.8
		c-0.4,4-0.7,6.8-3.2,10.2l0,0l0,0c-3.9,2.9-5.5,2.8-9.7,2.8c-0.3,0-0.5,0-0.8,0h-0.1l0,0c-2-0.6-3.5-1.1-4.6-2
		c-1.1-0.9-1.9-2.1-2.5-4.2l0,0c-0.2-2-0.1-4.7,0.1-7.5c0.2-2.8,0.5-5.9,0.9-8.9c0.2-1.4,0.4-2.8,0.5-4.2
		C81.9,97.3,82.2,95,82.4,93.1L82.4,93.1z M83.7,88.7c-0.5,1.2-0.8,2.6-1.2,4.4c-0.2,1.9-0.5,4.3-0.8,6.8c-0.2,1.3-0.4,2.7-0.5,4.2
		c-0.4,3-0.7,6.1-0.9,8.9c-0.2,2.8-0.3,5.4-0.1,7.5c0.5,2,1.3,3.2,2.4,4.1s2.6,1.4,4.5,2h0.1l0.8,0c4.1,0,5.8,0,9.6-2.8
		c2.6-3.4,2.8-6.1,3.2-10.1l0.1-0.8l1.8-18.3l0.1-3.1c0-1.1-0.1-2-0.3-2.9c-0.2-0.9-0.6-1.8-1.3-2.7C98.8,83,96.9,83,93.4,83l-0.6,0
		c-1.4,0.1-2.4,0.2-3.4,0.5c-1,0.3-1.9,0.8-3,1.6C85,86.4,84.2,87.4,83.7,88.7z"/>
	<path fill="#FFFFFF" d="M88.3,118c0.3-2.7,2.6-26.5,2.7-26.7c0.4-1.6,1.2-2.2,2.8-1.6c0.7,0.4,0.8,1.6,0.8,2.5
		c-0.9,8.6-1.8,17.3-2.7,25.9c-0.2,1.3-0.8,1.9-2.1,2C88.7,119.9,88.3,119,88.3,118z"/>
	<path fill="#2B2A29" d="M88.2,118c0-0.5,0.2-1.6,0.3-3.2c0.7-7.1,2.3-22.9,2.4-23.5h0c0.2-0.8,0.5-1.4,1-1.7c0.5-0.3,1.1-0.3,1.9,0
		h0c0.4,0.2,0.6,0.6,0.7,1.1c0.1,0.5,0.1,1,0.2,1.4c0.2,5.3-2,19.8-2.7,25.9c-0.1,0.7-0.3,1.1-0.7,1.5c-0.3,0.3-0.8,0.5-1.4,0.6h0h0
		c-0.5-0.1-0.9-0.3-1.2-0.7C88.4,119.1,88.2,118.6,88.2,118L88.2,118z M88.7,114.8c-0.2,1.6-0.3,2.7-0.3,3.2c0,0.5,0.1,1,0.4,1.4
		c0.2,0.3,0.6,0.5,1.1,0.6c0.6-0.1,1.1-0.2,1.4-0.5c0.3-0.3,0.5-0.8,0.6-1.4l2.7-25.9c0-0.4-0.1-0.9-0.2-1.4c-0.1-0.5-0.3-0.9-0.6-1
		c-0.8-0.3-1.4-0.3-1.8,0c-0.4,0.3-0.7,0.8-0.9,1.6l0,0l0,0C91,91.5,89.4,107.6,88.7,114.8z"/>
	<path fill="#2B2A29" d="M103.1,125.3c1.3-13.9,2.6-27.8,3.9-41.8c2.9,0,5.8,0.1,8.7,0.1c-0.1,1-0.2,2.1-0.3,3.1
		c2-2.1,2.8-2.9,5.5-3.9c2.2-0.3,4-0.2,5.8,2c0.9,1.3,0.6,2.7,0.6,5c-0.2,2.4-0.4,4.8-0.7,7.2c-0.3,3-0.6,6-1,9c-2.9,0-5.8,0-8.7,0
		c0.3-2.2,0.5-4.4,0.8-6.7c0.2-1.6,0.3-3.3,0.5-4.9c0.1-1.8,0.4-3.8-1.5-4.1c-1.8-0.1-2,2.1-2.3,3.8c-0.9,10.4-1.9,20.7-2.8,31.1
		C108.9,125.3,106,125.3,103.1,125.3z"/>
	<path fill="#2B2A29" d="M103.1,125.3l3.9-41.8c2.9,0,5.9,0.1,8.8,0.1l-0.3,3.1c0.9-1,1.6-1.7,2.4-2.3c0.8-0.6,1.7-1,3-1.6l0,0
		c1.1-0.2,2.1-0.2,3,0c1,0.3,1.9,0.8,2.8,1.9v0c0.8,1.1,0.7,2.1,0.7,3.7c0,0.4,0,0.9,0,1.3c-0.2,5.1-1.1,11.2-1.6,16.2H117l0.8-6.7
		l0.5-4.9c0-0.2,0-0.4,0-0.7c0.1-1.6,0.2-3.1-1.5-3.3c-1.6,0-1.9,1.7-2.1,3.3c0,0.1,0,0.3-0.1,0.4l-2.8,31.2
		C108.9,125.4,106,125.4,103.1,125.3L103.1,125.3z M107.1,83.6l-3.9,41.7h8.6l2.8-31.1c0-0.1,0-0.3,0.1-0.4c0.2-1.6,0.5-3.5,2.2-3.4
		h0c1.8,0.2,1.7,1.8,1.6,3.4c0,0.2,0,0.4,0,0.7c-0.2,3.6-0.9,7.9-1.3,11.5h8.6l0.9-9l0.7-7.2c0-0.5,0-0.9,0-1.3
		c0.1-1.5,0.1-2.6-0.6-3.6c-0.9-1.1-1.8-1.7-2.7-1.9c-0.9-0.3-1.9-0.2-3,0c-1.3,0.5-2.2,1-3,1.5c-0.8,0.6-1.5,1.3-2.5,2.4l-0.1,0.1
		l0.3-3.2L107.1,83.6z"/>
	<path fill="#2B2A29" d="M175.7,125.3c1.3-13.9,2.6-27.8,3.9-41.8c2.9,0,5.8,0.1,8.7,0.1c-0.1,1-0.2,2.1-0.3,3.1
		c2-2.1,2.8-2.9,5.5-3.9c2.2-0.3,4-0.2,5.8,2c0.9,1.3,0.6,2.7,0.6,5c-0.2,2.4-0.4,4.8-0.7,7.2c-0.3,3-0.6,6-1,9c-2.9,0-5.8,0-8.7,0
		c0.3-2.2,0.5-4.4,0.8-6.7c0.2-1.6,0.3-3.3,0.5-4.9c0.1-1.8,0.4-3.8-1.5-4.1c-1.8-0.1-2,2.1-2.3,3.8c-0.9,10.4-1.9,20.7-2.8,31.1
		C181.4,125.3,178.5,125.3,175.7,125.3z"/>
	<path fill="#2B2A29" d="M175.6,125.3l3.9-41.8c2.9,0,5.9,0.1,8.8,0.1l-0.3,3.1c0.9-1,1.6-1.7,2.4-2.3c0.8-0.6,1.7-1,3-1.6l0,0
		c1.1-0.2,2.1-0.2,3,0c1,0.3,1.9,0.8,2.8,1.9l0,0c0.8,1.1,0.7,2.1,0.7,3.7c0,0.4,0,0.9,0,1.3c-0.2,5.1-1.1,11.2-1.6,16.2h-8.8
		l0.8-6.7l0.5-4.9c0-0.2,0-0.4,0-0.7c0.1-1.6,0.2-3.1-1.5-3.3c-1.6,0-1.9,1.7-2.1,3.3c0,0.1,0,0.3-0.1,0.4l-2.8,31.2
		C181.4,125.4,178.5,125.4,175.6,125.3L175.6,125.3z M179.6,83.6l-3.9,41.7h8.6l2.8-31.1c0-0.1,0-0.3,0.1-0.4
		c0.2-1.6,0.5-3.5,2.2-3.4h0c1.8,0.2,1.7,1.8,1.6,3.4c0,0.2,0,0.4,0,0.7c-0.2,3.6-0.9,7.9-1.3,11.5h8.6l1-9l0.7-7.2
		c0-0.5,0-0.9,0-1.3c0.1-1.5,0.1-2.6-0.6-3.6c-0.9-1.1-1.8-1.7-2.7-1.9c-0.9-0.3-1.9-0.2-3,0c-1.3,0.5-2.2,1-3,1.5
		c-0.8,0.6-1.5,1.3-2.5,2.4l-0.1,0.1l0.3-3.2L179.6,83.6z"/>
	<path fill="#2B2A29" d="M127.8,125.3c1.3-13.9,2.6-27.8,3.9-41.8c2.9,0,5.8,0.1,8.7,0.1c-0.1,1-0.2,2.1-0.3,3.1
		c2-2.1,2.8-2.9,5.5-3.9c2.2-0.3,4-0.2,5.8,2c0.9,1.3,0.6,2.7,0.6,5c-0.2,2.4-0.4,4.8-0.7,7.2c-0.3,3-2.7,25.4-3,28.4
		c-2.9,0-5.8,0-8.7,0c0.3-2.2,2.6-23.8,2.9-26.1c0.2-1.6,0.3-3.3,0.5-4.9c0.1-1.8,0.4-3.8-1.5-4.1c-1.8-0.1-2,2.1-2.3,3.8
		c-0.9,10.4-1.9,20.7-2.8,31.1C133.6,125.3,130.7,125.3,127.8,125.3z"/>
	<path fill="#2B2A29" d="M127.8,125.3l3.9-41.8c2.9,0,5.9,0.1,8.8,0.1l-0.3,3.1c0.9-1,1.6-1.7,2.4-2.3c0.8-0.6,1.7-1,3-1.6l0,0
		c1.1-0.2,2.1-0.2,3,0c1,0.3,1.9,0.8,2.8,1.9l0,0c0.8,1.1,0.7,2.1,0.7,3.7c0,0.4,0,0.9,0,1.3c-0.5,11.5-2.5,24.2-3.7,35.6h-8.8
		l0-0.1c0.1-1.1,0.8-7.1,1.4-13c0.6-6,1.3-11.9,1.4-13l0.5-4.9c0-0.2,0-0.4,0-0.7c0.1-1.6,0.2-3.1-1.5-3.3c-1.6,0-1.9,1.7-2.1,3.3
		c0,0.1,0,0.3-0.1,0.4l-2.8,31.2C133.6,125.4,130.7,125.4,127.8,125.3L127.8,125.3z M131.8,83.6l-3.9,41.7h8.6l2.8-31.1
		c0-0.1,0-0.3,0.1-0.4c0.2-1.6,0.5-3.5,2.2-3.4h0c1.8,0.2,1.7,1.8,1.6,3.4c0,0.2,0,0.4,0,0.7c-0.1,1.5-0.5,3.5-0.5,4.9
		c-0.1,1.1-0.8,7.1-1.4,13c-0.6,5.9-1.3,11.8-1.4,13h8.6l3-28.4l0.7-7.2c0-0.5,0-0.9,0-1.3c0.1-1.5,0.1-2.6-0.6-3.6
		c-0.9-1.1-1.8-1.7-2.7-1.9c-0.9-0.3-1.9-0.2-3,0c-1.3,0.5-2.2,1-3,1.5c-0.8,0.6-1.5,1.3-2.5,2.4l-0.1,0.1l0.3-3.2L131.8,83.6z"/>
	<path fill="#2B2A29" d="M153.7,102.1c0.4-3.7,0.8-7.4,1.2-11.1c1.3-3.9,1.8-5.4,5.1-7.4c2.8-1,7.8-1.4,11.4,0
		c2.8,1.2,4.3,3.8,4.2,8c-0.5,4.7-0.9,9.3-1.4,14c-4.1,0-8.1,0-12.2,0c-0.4,4.1-0.7,8.1-1.1,12.2c0,1,0.2,1.5,0.7,1.8
		c1.6,0.7,2.7-0.3,2.8-2.4c0.2-2.6,0.4-5.3,0.6-7.9c2.9,0,5.8,0,8.7,0c-0.1,1.6-0.2,3.3-0.3,4.9c-0.3,2.5-0.5,3.9-1.2,6.3
		c-1.9,4.2-5,5.7-9.5,6.1c-1.3,0-2.5,0-3.8-0.1c-2.4-0.4-4.9-1.6-6-3.8C151.2,117.5,153.2,107.8,153.7,102.1z"/>
	<path fill="#2B2A29" d="M153.6,102.1l1.2-11.1l0.1-0.4c1.2-3.6,1.7-5.1,5-7l0,0c1.5-0.5,3.7-0.9,5.9-0.9c1.9,0,3.8,0.2,5.5,0.9h0
		c1.4,0.6,2.5,1.6,3.2,3c0.7,1.3,1,3,1,5.1c-0.2,4.5-0.9,9.5-1.4,14.1h-12.2l-1.1,12.2c0,0.5,0,0.9,0.1,1.1c0.1,0.3,0.3,0.5,0.5,0.6
		c0.3,0.1,0.5,0.2,0.8,0.2c0.4,0,0.7-0.1,1-0.2c0.3-0.2,0.5-0.5,0.7-0.9c0.2-0.4,0.3-0.9,0.4-1.5l0.6-7.9h8.8
		c-0.1,1.6-0.2,3.3-0.3,5c-0.1,1.2-0.3,2.2-0.4,3.2c-0.2,1-0.4,1.9-0.7,3.1l0,0c-1,2.1-2.2,3.6-3.8,4.5c-1.6,0.9-3.5,1.4-5.7,1.6h0
		c-0.4,0-0.8,0-1.3,0c-0.8,0-1.7,0-2.5-0.1h0c-1.3-0.2-2.6-0.7-3.7-1.4c-1-0.6-1.8-1.4-2.3-2.4v0c-1.4-3.9-0.6-10.6,0.1-16
		C153.3,105,153.5,103.4,153.6,102.1L153.6,102.1z M154.9,91l-1.2,11.1c-0.1,1.3-0.3,2.9-0.5,4.6c-0.7,5.4-1.5,12-0.1,16
		c0.5,1,1.3,1.8,2.3,2.4c1.1,0.7,2.4,1.2,3.7,1.4c0.9,0.1,1.7,0.1,2.5,0.1c0.4,0,0.8,0,1.3,0c2.2-0.2,4.1-0.7,5.7-1.6
		c1.6-0.9,2.8-2.3,3.7-4.5c0.3-1.2,0.6-2.1,0.7-3.1c0.2-1,0.3-1.9,0.4-3.2l0.3-4.9h-8.6l-0.6,7.8c-0.1,0.6-0.2,1.2-0.4,1.6
		c-0.2,0.4-0.4,0.7-0.7,0.9c-0.3,0.2-0.6,0.3-1,0.3c-0.3,0-0.5-0.1-0.8-0.2l0,0c-0.3-0.2-0.5-0.4-0.6-0.7c-0.1-0.3-0.2-0.7-0.1-1.2
		c0-3.5,0.8-8.6,1.1-12.2h12.2l1.4-14c0-2-0.3-3.7-1-5c-0.7-1.4-1.8-2.3-3.2-2.9c-1.6-0.6-3.6-0.9-5.4-0.9c-2.2,0-4.4,0.4-5.9,0.9
		c-3.2,1.9-3.8,3.4-5,7L154.9,91z"/>
	<path fill="#FFFFFF" d="M163,99.6c0.2-2.8,0.5-5.6,0.7-8.3c0.5-1.3,0.9-1.9,1.4-2.1c0.8-0.4,1.8,0.3,2,1.6
		c-0.2,3.1-0.4,6.1-0.6,9.2c-1.2,0-2.3,0-3.5,0C163,99.8,163,99.7,163,99.6z"/>
	<path fill="#FEFEFE" d="M163,99.6l0.7-8.3l0,0c0.2-0.7,0.5-1.1,0.7-1.5c0.2-0.3,0.5-0.5,0.7-0.7c0.1-0.1,0.3-0.1,0.4-0.1
		c0.3,0,0.5,0,0.8,0.2c0.2,0.1,0.4,0.4,0.6,0.6c0.1,0.3,0.2,0.6,0.3,0.9c0.2,1.7-0.5,7.2-0.6,9.2H163C163,99.8,163,99.7,163,99.6z
		 M163.8,91.3l-0.7,8.3v0.2h3.4l0.6-9.1c0-0.3-0.1-0.6-0.3-0.9c-0.1-0.3-0.3-0.5-0.6-0.6c-0.2-0.1-0.5-0.2-0.7-0.2
		c-0.1,0-0.3,0.1-0.4,0.1h0c-0.2,0.1-0.4,0.3-0.7,0.6C164.3,90.1,164,90.6,163.8,91.3z"/>
</g>
</svg>
