<?xml version="1.0" encoding="utf-8"?>
<!-- Generator: Adobe Illustrator 19.2.1, SVG Export Plug-In . SVG Version: 6.00 Build 0)  -->
<svg version="1.1" id="Layer_1" xmlns="http://www.w3.org/2000/svg" xmlns:xlink="http://www.w3.org/1999/xlink" x="0px" y="0px"
	 viewBox="0 0 200 200" style="enable-background:new 0 0 200 200;" xml:space="preserve">
<style type="text/css">
	.st0{fill:#FFFFFF;}
</style>
<g id="Layer_x0020_1_2_">
	<path class="st0" d="M66.7,75.6c9.8,0,20.1,0,29.8,0c0-0.7,0-1.5,0-2.2c-0.5-1.9-0.8-2.2-3.7-2.2C88,71,86.2,72,89.7,68.5
		c8.2-7.2,14-10.6,24.8-13.7c15.8-3.3,30.7-2.9,45.1,5.5c3.3,2.5,6,4.7,9,7.5c4.4,4.4,2.8,3.3-2.9,3.4c-1.8,0-2.6,0.2-3.2,1.1
		c-0.4,1.4-0.4,1.7-0.4,3.2c12.2,0,24.4,0,36.5,0c0-0.7,0-1.5,0-2.2c0-1-1.1-2.3-2.7-2.3c-2.6,0-5.2,0-7.8,0
		c-15.1-15.1-24.7-23.6-47.3-26.3c-11.8-0.2-19-0.1-30.5,4.2C99.2,54,94.6,58.5,85.6,65.7c-1.5,1.2-1.3,0.8-3.2,0.1
		c-1.6-0.4-2.2,1-2.9,1.6c-2.8,2.8-5.1,3.7-9.4,3.7c-1.9,0-2.5,0.1-3.1,1.2C66.6,73.9,66.7,73.9,66.7,75.6z"/>
	<path class="st0" d="M19.5,78.5c-1.9,0.1-4.8,2.7-1.1,3.4C20.3,82.1,23.3,78.6,19.5,78.5z"/>
	<path class="st0" d="M17.5,87.1c-1.2,2,1,3.3,2.6,2.1c0.3-0.2,0.6-0.5,0.9-1c0.2-0.4,0.3-0.8,0.3-1.1C21.3,85.3,19,84.7,17.5,87.1z
		"/>
	<path class="st0" d="M21.8,97.9c-1.6,0.4-3.2,1.4-2.9,3.2c0.6,1.4,5.2,0.9,5.2-0.3C24.5,99.6,24,97.4,21.8,97.9z"/>
	<path class="st0" d="M12.5,99.8c-2.6-1.3-8.7,0.8-5.1,3.4C10.5,104.5,17.1,102.8,12.5,99.8z"/>
	<path class="st0" d="M10.1,107.7c0.7,1.8,5.4,1.6,4.6-1.5C13.8,104,9.2,105.1,10.1,107.7z"/>
	<path class="st0" d="M10.2,110.4c-2.1-2.4-10.3,0.5-8.8,4.5C2.5,117.4,11.7,115,10.2,110.4z"/>
	<path class="st0" d="M46.7,81.4c4,0,8,0,12,0c5.9-0.6,6.5-9.1,0.9-9.3c-13,0-23.1,0-36,0c0,2.7,0.4,3,2.5,4.3
		c1.5,0.4,3.1,1,3.3,2.4c0,2.3-0.9,2.1-2.9,2.1c-2.4-0.1-5.5-0.6-5.8,2.1c-0.1,3,2.6,1.8,4.9,1.5c1.7-0.2,2.4,1.5,0.3,2
		c-0.6,0-1.1,0.8-0.2,1.1c0.9,0.1,2.1,0.3,2.1,1.4c-0.5,2.2-0.6,3.5-3.3,3.6c-2.2,0-4.6-0.8-6.2-0.3c-2.4,0.9-5.6,3.7-5.3,6.5
		c0.1,0.9,1.5,1.8,4.3,0.2c1.4-2.1,0.6-2.7,2.7-3.4c2.5-0.4,2.8-0.3,5.2,0.6c1.8,1.1,3.7,3.3,3.5,5.6c-0.3,3.5-3.5,2.5-5.9,1.8
		c-1.8-0.9-4.3,0.1-5.4,1.6c-1.1,1.8,0.7,3.3,2.3,2.4c0.9-0.6,1.6-0.6,2.4,0.1c0.9,1.3-0.7,3.2-2,4.6c-2.2,1.6-3,2-5.7,1.9
		c-5.4-0.6-6.8,2.9-4,3.4c11.8,0,23.6,0,35.4,0c8.7-0.6,12.4-6.5,14.7-14.2c1.4-7.4,0.4-14.7-8.1-16.4c-2.6,0-5.3,0-7.9,0
		C44.4,84.9,44.2,81.4,46.7,81.4z M40.3,106.2c-1,0-1.3,0-1-0.8c1.2-3.2,2.6-6.7,3.5-9.9C48.3,94.3,50.2,105.9,40.3,106.2z"/>
	<path class="st0" d="M84.5,81.1c-3,0-4.4,0.3-5.8,2.7c-1.1-1.1-1.2-1.4-2.9-1.4c-1.9,0-3.8,0-5.7,0c-1.2,0-2.2-0.1-2.7,0.6
		c-3.5,14.3-7.1,28.7-10.6,43c-0.3,1-0.5,1.4,0.5,1.4c3,0,6,0,9,0c0.9,0,1.2,0.1,1.4-0.6c0.9-4,1.7-8,2.6-12c1.2,0.2,0.9,0,1.8,0.9
		c5.8,5.8,9.5,1.3,12-1.2c4.7-6,5.9-12,6.5-19.6C90.7,89.3,91.2,82.9,84.5,81.1z M78.3,104.6c-1.7,2.4-5.8,2.5-5.6,0.2
		c1-3.7,2-7.4,3-11.1c0.3-0.6,0.6-0.9,1.3-1c2.5,0,2.8,1.5,3.3,3.5C80.7,99.5,79.8,101.8,78.3,104.6z"/>
	<path class="st0" d="M122.8,81.3c-2.5,0-5.1-0.1-7.7-0.1c-1.6,0-2.1,2.3-3.5,4.3c-4.3-5.1-8.2-4.5-12.5-0.2c-3,3-4.9,5.7-6.2,10.8
		c-1.4,5-2.2,14.8,0.3,19c2.6,4.5,7.5,3.1,11.4,0.1c0.4,1.4,1.2,2.1,2.7,2.1c2.4,0,4.8,0,7.2,0c3.1-11.5,6.2-23,9.3-34.5
		C124.1,81.6,124,81.3,122.8,81.3z M107.6,103.8c-0.4,1.5-4.1,3.7-5,0.4c-0.5-3.2,0.5-9.2,3.6-11c1.4-0.8,2.9,0.2,2.9,1.8
		C109.1,98.5,108.6,100.8,107.6,103.8z"/>
	<path class="st0" d="M146.7,88.8c-2.8-0.8-3.6-0.8-6.6-0.8c-3.6,0-4.2-1.2-3.4-4.2c0.7-1.8,1.2-3,2.1-4.7c1-1.7,3.7-2.6,4.5,0.3
		c0,1.2-1.4,1.3-3.1,3c-2.8,2.8,0,4.6,3.5,2.5c3.6-2.9,8.4-5.8,5.9-11.9c-2.2-4.3-8.8-6.1-12.5-4c-4.5,2.8-7.8,6.3-9.3,12
		c-2.6,11.8-5.2,23.7-7.8,35.5c-0.2,0.6,0.4,1,1.4,1c5.8,0,11.8,0.1,17.6-0.1c7.6-1.7,12.6-8.3,12.6-16
		C151.3,97.1,151,91.3,146.7,88.8z M134.1,106.9c-0.6,0-1.2-0.6-0.8-2c0.7-3.2,1.5-6.2,2.4-9.4c0.3-1.3,1.1-1.6,2.7-1.5
		C143.3,95.4,141.1,107.4,134.1,106.9z"/>
	<path class="st0" d="M173.2,81.4c-7.7-1.7-15.8,5.1-18.1,15.1c-2.3,10,2,19.5,9.7,21.1c7.7,1.7,15.8-5.1,18.1-15.1
		C185.2,92.5,180.9,83.1,173.2,81.4z M171.7,101.3c-1,3.4-3.2,5.5-4.8,4.6c-1.6-0.9-2.1-4.4-1-7.8c1-3.4,3.2-5.5,4.8-4.6
		C172.3,94.4,172.7,97.9,171.7,101.3z"/>
	<path class="st0" d="M121.9,62.6c2.7-0.5,3.2,0.6,5.2,2.2c2.1,1.1,2.4,1.4,4.7,0.7c3.4-1.9,3.5-3.8,7.1-1.9c2,1.1,3.3-1.5,0.2-3.8
		c-1.6-1-5.2-1-6.6,0c-1.8,1.3-1.4,2.1-3.2,0.8c-1.6-1.1-2.7-1.9-4.2-2.2c-2.6-0.2-3.8,0.6-5,1.5C117.2,62.4,119,63.6,121.9,62.6z"
		/>
	<path class="st0" d="M100.8,121.1l0,1.4c0,1.8-0.6,2.1-6,2.1c-2.3,0-2.9-0.1-1.5,2.3c17.1,18,35.4,23.6,59.9,17
		c10.5-3.2,15.8-6.5,23.7-14c1.5-5.4-8.8-4.6-11.6-5c-1.4-0.4-1.8-0.8-1.8-2.7v-1c10.9,0,21.8,0,32.8,0c2.5,0,1.2,3.8-0.9,3.8
		c-3.4,0-6.8,0.6-9.9,2.2c-1,1.1-2,2.1-2.9,3.2c-5.2,6.2-12.9,12-19.6,16.4c-21.2,12.3-45.5,11.4-67.8-2.9c-6.2-5-9.3-7.8-14.6-13.8
		c-2.2-2.3-3.7-3.8-6.3-5.7c-1.1-1.1-3.4-0.9-3.4-1.6l0.1-1.7H100.8z"/>
</g>
</svg>
