<?xml version="1.0" encoding="utf-8"?>
<!-- Generator: Adobe Illustrator 18.0.0, SVG Export Plug-In . SVG Version: 6.00 Build 0)  -->
<!DOCTYPE svg PUBLIC "-//W3C//DTD SVG 1.1//EN" "http://www.w3.org/Graphics/SVG/1.1/DTD/svg11.dtd">
<svg version="1.1" id="Layer_1" xmlns="http://www.w3.org/2000/svg" xmlns:xlink="http://www.w3.org/1999/xlink" x="0px" y="0px"
	 viewBox="0 0 200 200" enable-background="new 0 0 200 200" xml:space="preserve">
<g id="Layer_x0020_1">
	
		<linearGradient id="SVGID_1_" gradientUnits="userSpaceOnUse" x1="3644.4927" y1="-3921.6599" x2="3829.7451" y2="-2622.1106" gradientTransform="matrix(2.834646e-002 0 0 -2.834646e-002 0.9717 6.6976)">
		<stop  offset="0" style="stop-color:#B61F24"/>
		<stop  offset="0.251" style="stop-color:#B61F24"/>
		<stop  offset="0.3608" style="stop-color:#D24B40"/>
		<stop  offset="1" style="stop-color:#D24B40"/>
	</linearGradient>
	<path fill="url(#SVGID_1_)" d="M99.1,85.1c-3.1,3.1-4.9,5.8-6.3,10.9c-1.4,5.1-2.2,15,0.3,19.3c2.7,4.6,7.6,3.1,11.6,0.1
		c0.4,1.5,1.3,2.1,2.8,2.1c2.4,0,4.8,0,7.3,0c3.1-11.7,6.2-23.3,9.4-35c0.3-1.1,0.2-1.5-1-1.5c-2.6,0-5.2-0.1-7.8-0.1
		c-1.6,0-2.1,2.3-3.5,4.4C107.4,80.2,103.5,80.7,99.1,85.1z"/>
	
		<linearGradient id="SVGID_2_" gradientUnits="userSpaceOnUse" x1="2730.4871" y1="-1146.972" x2="6153.4365" y2="-3291.8499" gradientTransform="matrix(2.834646e-002 0 0 -2.834646e-002 0.9717 6.6976)">
		<stop  offset="0" style="stop-color:#B61F24"/>
		<stop  offset="0.3098" style="stop-color:#B61F24"/>
		<stop  offset="0.3804" style="stop-color:#D24B40"/>
		<stop  offset="0.6706" style="stop-color:#D24B40"/>
		<stop  offset="0.7686" style="stop-color:#B61F24"/>
		<stop  offset="1" style="stop-color:#B61F24"/>
	</linearGradient>
	<path fill="url(#SVGID_2_)" d="M66.3,75.3c9.9,0,20.3,0,30.2,0c0-0.7,0-1.5,0-2.2c-0.5-2-0.8-2.2-3.7-2.2c-5-0.3-6.7,0.8-3.2-2.8
		c8.3-7.3,14.2-10.7,25.1-13.9c16-3.4,31.1-2.9,45.7,5.5c3.4,2.6,6,4.7,9.1,7.6c4.5,4.5,2.8,3.3-2.9,3.5c-1.9,0-2.7,0.2-3.2,1.1
		c-0.4,1.4-0.4,1.7-0.4,3.2c12.3,0,24.7,0,37,0c0-0.7,0-1.5,0-2.2c0-1-1.1-2.4-2.8-2.4c-2.6,0-5.3,0-7.9,0
		c-15.3-15.3-25-23.9-47.9-26.6c-11.9-0.2-19.3-0.1-30.9,4.3c-11.3,5.1-16,9.7-25.1,17c-1.5,1.2-1.3,0.8-3.2,0.1
		c-1.7-0.4-2.3,1-2.9,1.7c-2.9,2.9-5.1,3.7-9.6,3.7c-1.9,0-2.5,0.1-3.2,1.2C66.2,73.5,66.3,73.6,66.3,75.3z"/>
	<path fill="#D24B40" d="M18.5,78.3c-1.9,0.1-4.9,2.8-1.2,3.4C19.3,81.8,22.4,78.3,18.5,78.3z"/>
	<path fill="#C1302F" d="M16.5,86.9c-1.2,2.1,1,3.3,2.6,2.1c0.3-0.2,0.6-0.6,0.9-1c0.2-0.4,0.3-0.8,0.3-1.2
		C20.3,85.1,17.9,84.5,16.5,86.9z"/>
	<path fill="#B61F24" d="M20.8,97.9c-1.7,0.4-3.2,1.4-2.9,3.3c0.6,1.4,5.2,0.9,5.3-0.3C23.6,99.6,23.1,97.4,20.8,97.9z"/>
	<path fill="#B61F24" d="M11.4,99.8c-2.6-1.3-8.8,0.8-5.1,3.5C9.4,104.6,16.1,102.8,11.4,99.8z"/>
	<path fill="#B61F24" d="M9,107.8c0.7,1.9,5.5,1.6,4.6-1.5C12.7,104.1,8,105.2,9,107.8z"/>
	<path fill="#B61F24" d="M9.1,110.5c-2.2-2.4-10.4,0.5-8.9,4.6C1.3,117.6,10.6,115.2,9.1,110.5z"/>
	
		<linearGradient id="SVGID_3_" gradientUnits="userSpaceOnUse" x1="1119.6865" y1="-3912.8369" x2="1326.1755" y2="-2300.1179" gradientTransform="matrix(2.834646e-002 0 0 -2.834646e-002 0.9717 6.6976)">
		<stop  offset="0" style="stop-color:#B61F24"/>
		<stop  offset="0.5804" style="stop-color:#B61F24"/>
		<stop  offset="0.651" style="stop-color:#D24B40"/>
		<stop  offset="1" style="stop-color:#D24B40"/>
	</linearGradient>
	<path fill="url(#SVGID_3_)" d="M11.6,98.7c-0.3-2.9,2.9-5.6,5.3-6.6c1.6-0.4,4.1,0.3,6.3,0.3c2.8-0.1,2.9-1.3,3.4-3.6
		c0-1.2-1.2-1.4-2.1-1.5c-0.9-0.3-0.4-1.1,0.2-1.1c2.2-0.5,1.4-2.2-0.3-2c-2.4,0.3-5.1,1.5-5-1.5c0.3-2.6,3.4-2.2,5.9-2.1
		c2.1,0,3,0.1,3-2.2c-0.2-1.4-1.8-2-3.3-2.4c-2.1-1.3-2.5-1.6-2.5-4.4c13.1,0,23.4,0,36.5,0c5.7,0.2,5.1,8.8-0.9,9.4
		c-4,0-8.1,0-12.1,0c-2.5,0-2.3,3.5-2.5,5.6c2.7,0,5.4,0,8,0c8.6,1.7,9.5,9,8.2,16.6c-2.3,7.8-6.1,13.7-14.9,14.3
		c-11.9,0-23.9,0-35.8,0c-2.8-0.5-1.5-4.1,4-3.5c2.7,0.1,3.5-0.3,5.8-1.9c1.3-1.5,3-3.4,2-4.6c-0.8-0.6-1.5-0.7-2.4-0.1
		c-1.7,0.9-3.5-0.6-2.4-2.4c1.1-1.5,3.7-2.6,5.5-1.7c2.4,0.8,5.6,1.7,5.9-1.8c0.2-2.3-1.7-4.5-3.5-5.6c-2.4-0.9-2.7-1.1-5.3-0.6
		c-2.1,0.8-1.4,1.3-2.8,3.5C13.1,100.5,11.7,99.6,11.6,98.7z"/>
	<path fill="#FEFEFE" d="M38.5,105.5c-0.2,0.9,0.1,0.8,1,0.8c10.1-0.3,8.1-12.1,2.5-10.9C41.1,98.7,39.7,102.2,38.5,105.5z"/>
	
		<linearGradient id="SVGID_4_" gradientUnits="userSpaceOnUse" x1="2404.8101" y1="-4243.4209" x2="2822.4668" y2="-2671.3601" gradientTransform="matrix(2.834646e-002 0 0 -2.834646e-002 0.9717 6.6976)">
		<stop  offset="0" style="stop-color:#B61F24"/>
		<stop  offset="0.6118" style="stop-color:#B61F24"/>
		<stop  offset="0.6706" style="stop-color:#D24B40"/>
		<stop  offset="1" style="stop-color:#D24B40"/>
	</linearGradient>
	<path fill="url(#SVGID_4_)" d="M65.9,127.6c-3,0-6,0-9.1,0c-1,0-0.8-0.4-0.5-1.4c3.6-14.5,7.2-29,10.7-43.6
		c0.4-0.7,1.5-0.6,2.7-0.6c1.9,0,3.8,0,5.8,0c1.7,0,1.8,0.3,2.9,1.5c1.4-2.4,2.8-2.7,5.9-2.7c6.8,1.8,6.3,8.3,6.1,14
		c-0.6,7.7-1.8,13.7-6.6,19.8c-2.5,2.5-6.3,7-12.1,1.2c-0.9-0.9-0.6-0.7-1.8-0.9c-0.9,4-1.8,8.1-2.6,12.1
		C67.1,127.8,66.8,127.6,65.9,127.6z"/>
	<path fill="#FEFEFE" d="M75.4,93.6c-1,3.7-2,7.5-3,11.2c-0.2,2.3,3.9,2.2,5.7-0.2c1.5-2.8,2.4-5.1,2-8.4c-0.5-2.1-0.8-3.5-3.4-3.6
		C76,92.8,75.6,93.1,75.4,93.6z"/>
	<path fill="#FEFEFE" d="M106.3,93.2c-3.1,1.8-4.1,7.9-3.6,11.1c0.9,3.3,4.6,1.1,5.1-0.4c1-3.1,1.5-5.4,1.5-8.8
		C109.2,93.4,107.7,92.3,106.3,93.2z"/>
	
		<linearGradient id="SVGID_5_" gradientUnits="userSpaceOnUse" x1="5048.7246" y1="-3836.7344" x2="4384.8882" y2="-2290.2278" gradientTransform="matrix(2.834646e-002 0 0 -2.834646e-002 0.9717 6.6976)">
		<stop  offset="0" style="stop-color:#B61F24"/>
		<stop  offset="0.2784" style="stop-color:#B61F24"/>
		<stop  offset="0.3882" style="stop-color:#D24B40"/>
		<stop  offset="1" style="stop-color:#D24B40"/>
	</linearGradient>
	<path fill="url(#SVGID_5_)" d="M120.3,116.9c2.6-12,5.3-24,7.9-35.9c1.6-5.8,4.8-9.4,9.4-12.2c3.8-2.2,10.4-0.4,12.7,4
		c2.6,6.1-2.3,9.2-6,12c-3.5,2-6.4,0.2-3.5-2.6c1.7-1.7,3.1-1.9,3.1-3c-0.8-3-3.6-2.1-4.6-0.3c-1,1.7-1.5,2.9-2.1,4.8
		c-0.8,3.1-0.1,4.3,3.5,4.3c3,0,3.8-0.1,6.6,0.8c4.3,2.5,4.6,8.4,4.9,12.9c0,7.8-5.1,14.4-12.7,16.2c-5.9,0.2-11.9,0.1-17.8,0.1
		C120.7,117.8,120.2,117.5,120.3,116.9z"/>
	<path fill="#FEFEFE" d="M134.5,107c-0.6,0-1.2-0.6-0.8-2c0.7-3.2,1.5-6.3,2.4-9.5c0.3-1.3,1.2-1.6,2.7-1.5
		C143.8,95.4,141.6,107.5,134.5,107z"/>
	<path fill="#B61F24" d="M174.1,81.2c7.8,1.7,12.2,11.3,9.8,21.4c-2.4,10.1-10.6,17-18.3,15.3c-7.8-1.7-12.2-11.3-9.8-21.4
		C158.2,86.3,166.4,79.5,174.1,81.2z"/>
	<path fill="#FEFEFE" d="M171.6,93.4c1.6,0.9,2.1,4.5,1,7.9c-1.1,3.5-3.2,5.5-4.8,4.6c-1.6-0.9-2.1-4.5-1-7.9S169.9,92.5,171.6,93.4
		z"/>
	<path fill="#DA4C41" d="M122.2,62.1c2.7-0.5,3.2,0.6,5.3,2.2c2.1,1.1,2.4,1.4,4.7,0.8c3.4-1.9,3.5-3.9,7.2-1.9
		c2,1.1,3.4-1.5,0.2-3.8c-1.6-1.1-5.3-1-6.7,0c-1.8,1.3-1.4,2.1-3.2,0.8c-1.6-1.1-2.8-2-4.3-2.2c-2.6-0.2-3.9,0.6-5,1.5
		C117.4,62,119.2,63.2,122.2,62.1z"/>
	<path fill="#B61F24" d="M100.8,121.4l0,1.4c0,1.8-0.6,2.2-6.1,2.2c-2.4,0-2.9-0.1-1.5,2.3c17.3,18.3,35.8,23.8,60.6,17.2
		c10.7-3.2,16-6.5,24-14.2c1.5-5.5-8.9-4.7-11.7-5.1c-1.4-0.4-1.8-0.8-1.8-2.7v-1c11.1,0,22.1,0,33.2,0c2.5,0,1.2,3.9-0.9,3.9
		c-3.5,0-6.9,0.6-10,2.2c-1,1.1-2,2.2-3,3.3c-5.3,6.3-13.1,12.2-19.9,16.6c-21.5,12.4-46.1,11.6-68.6-3c-6.3-5-9.4-7.9-14.8-14
		c-2.3-2.3-3.7-3.9-6.4-5.8c-1.1-1.1-3.4-0.9-3.4-1.6l0.1-1.7H100.8z"/>
</g>
</svg>
