<?xml version="1.0" encoding="utf-8"?>
<!-- Generator: Adobe Illustrator 19.2.1, SVG Export Plug-In . SVG Version: 6.00 Build 0)  -->
<svg version="1.1" id="Layer_1" xmlns="http://www.w3.org/2000/svg" xmlns:xlink="http://www.w3.org/1999/xlink" x="0px" y="0px"
	 viewBox="0 0 200 200" style="enable-background:new 0 0 200 200;" xml:space="preserve">
<style type="text/css">
	.st0{fill:#FFFFFF;}
</style>
<g id="Layer_x0020_1">
	<path class="st0" d="M33,92.5v-8.7H5.1v8.6H1.2v4.3h4v16.1h14.9v3.5h4.7v-3.5H33V96.5h2.1v-4H33z M20.5,108.8H8.7V96.7l11.8,0
		V108.8z M28.9,108.8h-4.7V96.7l4.7,0V108.8z M28.9,87.7v4.2H8.6v-4.8l20.4-0.1V87.7z"/>
	<path class="st0" d="M57.3,83.7c-4.7,0-9.4,0-14.2,0c-1.4,0-2,1.3-2,2.1c0,4.2,0,8.4,0,12.6c0,1.7,1.2,2.2,2.9,2.2
		c4.2,0,8.4,0,12.6,0c1.7,0,2.7-0.7,2.7-2.7c0-3.9,0-7.8,0-11.8C59.3,85,58.9,83.7,57.3,83.7z M55.2,96.5H45.1v-8.7l10.1-0.1V96.5z"
		/>
	<path class="st0" d="M75,83.7H60.9v16.8h4v-6c3.4,0,6.8,0,10.2,0c1.3,0,2.1-0.6,2.1-2c0-2.3,0-4.5,0-6.8
		C77.2,84.9,76.5,83.7,75,83.7z M72.3,90.4c-2.5,0-4.9,0-7.4,0v-3.3h7.3c0.7,0,0.8,0.5,0.8,1c0,0.3,0,1.1,0,1.4
		C73,90,72.8,90.4,72.3,90.4z"/>
	<polygon class="st0" points="79.9,83.8 79.9,100.5 95.4,100.5 95.4,96.7 83.8,96.7 83.8,93.8 90.6,93.8 90.6,89.9 84,89.9 84,87.1 
		95.4,87.1 95.4,83.8 	"/>
	<polygon class="st0" points="111,83.7 115.1,83.7 115.1,100.6 111.7,100.6 101.5,90.4 101.5,100.7 97.6,100.7 97.6,83.8 101,83.8 
		111,93.8 	"/>
	<polygon class="st0" points="122.6,83.8 122.6,87.7 128.8,87.7 128.8,100.6 133.4,100.6 133.4,87.7 139.5,87.7 139.5,83.8 	"/>
	<polygon class="st0" points="141.6,83.8 141.6,100.6 157.2,100.6 157.2,96.5 145.7,96.5 145.7,93.6 152.6,93.6 152.6,89.9 
		145.7,89.9 145.7,87.2 157.3,87.2 157.3,83.8 	"/>
	<path class="st0" d="M161.4,85.8c0,4.2,0,8.4,0,12.5c0.9,0.7,1.9,1.5,2.8,2.2c3.9,0,7.8,0,11.6,0c0.6-0.7,1.1-1.4,1.7-2.1
		c0-1.5,0-3.1,0-4.6c-0.4-0.2-0.8-0.5-1.2-0.7c-0.9,0-1.9,0-2.8,0c0,1.1,0,2.3,0,3.4c-2.8,0-5.5,0-8.2,0c0-3,0-5.9,0-8.9
		c2.7,0,5.5,0,8.2,0c0,0.9,0,1.9,0.1,2.8c1.3,0,2.6,0,3.9,0c0-1.6,0-3.1,0-4.7c0-0.9-0.6-2.1-2-2.1c-4.1,0-7.9,0-11.9,0
		C162.2,83.8,161.4,84.4,161.4,85.8z"/>
	<polygon class="st0" points="180.5,83.8 180.5,100.6 185,100.6 185,94.5 192.7,100.7 198.8,100.7 187.7,91.6 197.4,83.7 192,83.7 
		185.1,89 185.1,83.7 	"/>
</g>
</svg>
