<?xml version="1.0" encoding="utf-8"?>
<!-- Generator: Adobe Illustrator 18.0.0, SVG Export Plug-In . SVG Version: 6.00 Build 0)  -->
<!DOCTYPE svg PUBLIC "-//W3C//DTD SVG 1.1//EN" "http://www.w3.org/Graphics/SVG/1.1/DTD/svg11.dtd">
<svg version="1.1" id="Layer_1" xmlns="http://www.w3.org/2000/svg" xmlns:xlink="http://www.w3.org/1999/xlink" x="0px" y="0px"
	 viewBox="0 0 200 200" enable-background="new 0 0 200 200" xml:space="preserve">
<g id="Layer_x0020_1">
	
		<linearGradient id="SVGID_1_" gradientUnits="userSpaceOnUse" x1="721.0095" y1="-4929.0205" x2="721.0095" y2="-3462.428" gradientTransform="matrix(2.246442e-002 0 0 -2.246442e-002 0.9775 5.5208)">
		<stop  offset="0" style="stop-color:#0072A9"/>
		<stop  offset="0.3098" style="stop-color:#008CD4"/>
		<stop  offset="0.4784" style="stop-color:#0072A9"/>
		<stop  offset="0.5686" style="stop-color:#00A6FF"/>
		<stop  offset="1" style="stop-color:#00A6FF"/>
	</linearGradient>
	<polygon fill="url(#SVGID_1_)" points="4,83.3 4,92 0,92 0,96.3 4,96.3 4,112.7 19.1,112.7 19.1,116.2 23.9,116.2 23.9,112.7 
		32.3,112.7 32.3,96.2 34.3,96.2 34.3,92.1 32.2,92.1 32.2,83.3 	"/>
	<polygon fill="#FEF200" points="7.5,86.7 7.5,91.6 28.1,91.6 28.1,87.3 28.1,86.7 	"/>
	<polygon fill="#FEF200" points="23.3,96.4 23.3,108.6 28,108.6 28,96.3 	"/>
	<polygon fill="#FEF200" points="7.7,96.3 7.7,108.6 19.6,108.6 19.6,96.3 	"/>
	
		<linearGradient id="SVGID_2_" gradientUnits="userSpaceOnUse" x1="-0.6566" y1="199.8175" x2="-0.6566" y2="200.0223" gradientTransform="matrix(89.8802 0 0 -83.7474 108.672 16834.6074)">
		<stop  offset="0" style="stop-color:#0072A9"/>
		<stop  offset="0.1294" style="stop-color:#0072A9"/>
		<stop  offset="0.3882" style="stop-color:#029EFF"/>
		<stop  offset="1" style="stop-color:#029EFF"/>
	</linearGradient>
	<path fill="url(#SVGID_2_)" d="M42.5,83.3c-1.4,0-2,1.3-2,2.1c0,4.3,0,8.5,0,12.7c0,1.7,1.2,2.3,2.9,2.3c4.3,0,8.5,0,12.8,0
		c1.7,0,2.7-0.7,2.7-2.7c0-4,0-7.9,0-11.9c0-1.3-0.4-2.6-2-2.6C52.1,83.3,47.3,83.3,42.5,83.3z"/>
	<polygon fill="#FFFFFF" points="44.5,87.4 44.5,96.2 54.7,96.2 54.7,87.4 	"/>
	
		<linearGradient id="SVGID_3_" gradientUnits="userSpaceOnUse" x1="-1.8242" y1="199.8075" x2="-1.8242" y2="200.0122" gradientTransform="matrix(80.5125 0 0 -83.006 215.5352 16685.4668)">
		<stop  offset="0" style="stop-color:#0072A9"/>
		<stop  offset="0.1294" style="stop-color:#0072A9"/>
		<stop  offset="0.3882" style="stop-color:#029EFF"/>
		<stop  offset="1" style="stop-color:#029EFF"/>
	</linearGradient>
	<path fill="url(#SVGID_3_)" d="M60.4,83.2v17h4v-6c3.4,0,6.9,0,10.3,0c1.4,0,2.2-0.6,2.2-2c0-2.3,0-4.6,0-6.9
		c0-0.9-0.7-2.1-2.2-2.1H60.4z"/>
	<path fill="#FFFFFF" d="M64.5,86.7v3.3c2.5,0,5,0,7.5,0c0.5,0,0.7-0.4,0.7-0.9c0-0.3,0-1.1,0-1.4c0-0.4-0.1-1-0.8-1H64.5z"/>
	
		<linearGradient id="SVGID_4_" gradientUnits="userSpaceOnUse" x1="-2.9424" y1="199.8068" x2="-2.9424" y2="200.0116" gradientTransform="matrix(76.7385 0 0 -82.714 313.3229 16627.0586)">
		<stop  offset="0" style="stop-color:#0072A9"/>
		<stop  offset="0.1294" style="stop-color:#0072A9"/>
		<stop  offset="0.3882" style="stop-color:#029EFF"/>
		<stop  offset="1" style="stop-color:#029EFF"/>
	</linearGradient>
	<polygon fill="url(#SVGID_4_)" points="79.7,83.3 79.7,100.2 95.4,100.2 95.4,96.4 83.6,96.4 83.6,93.4 90.5,93.4 90.5,89.5 
		83.8,89.5 83.8,86.7 95.4,86.7 95.4,83.3 	"/>
	
		<linearGradient id="SVGID_5_" gradientUnits="userSpaceOnUse" x1="-3.2762" y1="199.8209" x2="-3.2762" y2="200.0257" gradientTransform="matrix(86.7351 0 0 -84.2416 390.578 16933.6992)">
		<stop  offset="0" style="stop-color:#0072A9"/>
		<stop  offset="0.1294" style="stop-color:#0072A9"/>
		<stop  offset="0.3882" style="stop-color:#029EFF"/>
		<stop  offset="1" style="stop-color:#029EFF"/>
	</linearGradient>
	<polygon fill="url(#SVGID_5_)" points="111.2,83.2 115.3,83.2 115.3,100.4 111.9,100.4 101.5,90 101.5,100.5 97.5,100.5 97.5,83.3 
		101,83.3 111.1,93.4 	"/>
	
		<linearGradient id="SVGID_6_" gradientUnits="userSpaceOnUse" x1="5805.7568" y1="-4221.3208" x2="5805.7568" y2="-3462.428" gradientTransform="matrix(2.246442e-002 0 0 -2.246442e-002 0.9775 5.5208)">
		<stop  offset="0" style="stop-color:#0072A9"/>
		<stop  offset="0.1294" style="stop-color:#0072A9"/>
		<stop  offset="0.3882" style="stop-color:#029EFF"/>
		<stop  offset="1" style="stop-color:#029EFF"/>
	</linearGradient>
	<polygon fill="url(#SVGID_6_)" points="122.9,83.3 122.9,87.3 129.1,87.3 129.1,100.4 133.8,100.4 133.8,87.3 139.9,87.3 
		139.9,83.3 	"/>
	
		<linearGradient id="SVGID_7_" gradientUnits="userSpaceOnUse" x1="-6.008" y1="199.8098" x2="-6.008" y2="200.0146" gradientTransform="matrix(77.7494 0 0 -83.006 617.1766 16685.7148)">
		<stop  offset="0" style="stop-color:#0072A9"/>
		<stop  offset="0.1294" style="stop-color:#0072A9"/>
		<stop  offset="0.3882" style="stop-color:#029EFF"/>
		<stop  offset="1" style="stop-color:#029EFF"/>
	</linearGradient>
	<polygon fill="url(#SVGID_7_)" points="142.1,83.3 142.1,100.3 157.9,100.3 157.9,96.2 146.2,96.2 146.2,93.3 153.2,93.3 
		153.2,89.5 146.2,89.5 146.2,86.7 158,86.7 158,83.3 	"/>
	
		<linearGradient id="SVGID_8_" gradientUnits="userSpaceOnUse" x1="7538.8628" y1="-4220.9116" x2="7538.8628" y2="-3462.0183" gradientTransform="matrix(2.246442e-002 0 0 -2.246442e-002 0.9775 5.5208)">
		<stop  offset="0" style="stop-color:#0072A9"/>
		<stop  offset="0.1294" style="stop-color:#0072A9"/>
		<stop  offset="0.3882" style="stop-color:#029EFF"/>
		<stop  offset="1" style="stop-color:#029EFF"/>
	</linearGradient>
	<path fill="url(#SVGID_8_)" d="M162.2,85.4c0,4.2,0,8.5,0,12.7c0.9,0.8,1.9,1.5,2.8,2.3c3.9,0,7.8,0,11.8,0
		c0.6-0.7,1.2-1.4,1.7-2.1c0-1.6,0-3.1,0-4.7c-0.4-0.2-0.8-0.5-1.2-0.7c-0.9,0-1.9,0-2.8,0c0,1.2,0,2.3,0,3.5c-2.8,0-5.6,0-8.3,0
		c0-3,0-6,0-9c2.8,0,5.5,0,8.3,0c0,0.9,0,1.9,0.1,2.8c1.3,0,2.7,0,4,0c0-1.7,0-3.1,0-4.8c0-0.9-0.6-2.1-2-2.1c-4.1,0-8,0-12.1,0
		C162.9,83.3,162.2,83.9,162.2,85.4z"/>
	
		<linearGradient id="SVGID_9_" gradientUnits="userSpaceOnUse" x1="-6.6713" y1="199.8168" x2="-6.6713" y2="200.0215" gradientTransform="matrix(90.7563 0 0 -83.9945 796.1732 16883.8945)">
		<stop  offset="0" style="stop-color:#0072A9"/>
		<stop  offset="0.1294" style="stop-color:#0072A9"/>
		<stop  offset="0.3882" style="stop-color:#029EFF"/>
		<stop  offset="1" style="stop-color:#029EFF"/>
	</linearGradient>
	<polygon fill="url(#SVGID_9_)" points="181.4,83.3 181.4,100.3 186,100.3 186,94.2 193.8,100.4 200,100.4 188.7,91.2 198.6,83.2 
		193.1,83.2 186.1,88.6 186.1,83.2 	"/>
</g>
</svg>
