<?xml version="1.0" encoding="utf-8"?>
<!-- Generator: Adobe Illustrator 19.2.1, SVG Export Plug-In . SVG Version: 6.00 Build 0)  -->
<svg version="1.1" id="Layer_1" xmlns="http://www.w3.org/2000/svg" xmlns:xlink="http://www.w3.org/1999/xlink" x="0px" y="0px"
	 viewBox="0 0 200 200" style="enable-background:new 0 0 200 200;" xml:space="preserve">
<style type="text/css">
	.st0{fill:#FFFFFF;}
</style>
<g id="Layer_x0020_1">
	<path class="st0" d="M10.3,59.9c60.2,0,120.4,0,180.6,0c-4,1.6-7,2.7-9.6,6.4c-53.8,0-108.5,0-162.3,0
		C16.1,63.5,14.3,61.6,10.3,59.9z"/>
	<path class="st0" d="M8.8,69.7c0.5,0,1.1,0,1.6,0c0,1.9-0.4,3.2-2.7,2.8c-0.8-0.2-1.7-1-2.1-1.9c-0.4-1.4-0.3-2.3,0.1-3
		c0.3-0.7,0.9-1.2,1.9-1.6c1.4-0.4,3.3,0,4.5,1.2c1.2,1.3,1.6,1.7,1.7,3.8c-0.1,3.4-2.8,5-5.3,5.1c-4.5,0-6.9-3.3-6.9-7.2
		c0.1-2.4,0.9-3.6,1.9-4.5c0.9-0.9,2.3-1.7,4.6-1.9c5.4,0.1,6.4,2.2,9.6,6.2h68.6v2H16.3c-0.8,0-1.3-1.2-1.9-2.6
		c-0.6-1.1-1.3-2.1-2.2-2.7c-1.5-0.9-2.9-1.1-4.4-0.9c-1.5,0.3-2.1,0.7-2.7,1.3c-0.5,0.5-1,1-1.2,2.2c-0.2,1.6-0.1,2.7,0.3,3.6
		c0.4,0.9,1.2,1.7,2.6,2.4c2.6,0.9,5.3,0.1,5.8-2.9c0.3-2.4-2.2-5.2-5-3.7c-1.3,0.9-1.3,2.9,0.1,3.7C8.5,71.4,8.8,71.2,8.8,69.7z"/>
	<polygon class="st0" points="14.9,73.3 14.9,72.1 184.8,72.1 184.8,73.3 	"/>
	<g>
		<path class="st0" d="M58.8,112.3L58.8,112.3C59,112.3,58.9,112.3,58.8,112.3z"/>
		<path class="st0" d="M53.1,103.6v-5.8c0-1.1-0.6-3-2.7-3.5c2.1-0.2,3.6-1,3.6-2.4c0-3.7,0-7.4,0-11.1c0-2.1-1.5-4-4.2-4.1
			c-4.2,0-8.3,0-12.5,0v8.5h2.4v18.3v0.5h-3.3v8l0,0.3h9.1v-8.3h-3.5v-8.3h6.2c1.4,0.1,2,0.4,2,1.6c0,5,0,9.9,0,14.9h8.3
			c0,0,0,0,0,0v-8.6H53.1z M49.5,93.5c-2.4,0-4.8,0-7.3,0v-8.2v-0.2h8.3c0.8,0,1.1,0.5,1.1,1.2c0,1.8,0,3.5,0,5.3
			C51.6,92.7,51,93.4,49.5,93.5z"/>
	</g>
	<path class="st0" d="M61.2,76.7v8.4h3.5v19H61v8.2h17.8c0-4.3,0-8.7,0-13h-2.6c0,1.9,0.4,4.9-1.9,4.9H67v-8.4c2,0,3.9,0,5.9,0
		c0-0.8,0-1.6,0-2.4h-6.2v-8.3c2.6,0,5.1,0,7.7,0c1.7,0,1.9,0.6,1.9,2.1v2.6c0.8,0,1.7,0,2.5,0V76.7L61.2,76.7z"/>
	<polygon class="st0" points="83.4,76.7 83.4,85.2 85.8,85.2 85.8,104 83.5,104 83.5,112.4 91.7,112.4 91.7,104.1 88.5,104.1 
		88.5,83.5 98.1,112.7 106.6,83.9 106.6,104.1 103.5,104.1 103.5,112.2 113,112.2 113,104.1 109.4,104.1 109.4,85.2 113,85.2 
		113,76.7 104.7,76.7 104.7,81.5 98.2,103 98.2,102.8 90.8,81.7 90.8,76.7 	"/>
	<polygon class="st0" points="116.6,76.7 126,76.7 126,85.2 122.4,85.2 122.4,104.1 125.9,104.1 125.9,112.4 116.5,112.4 116.5,104 
		120.1,104 120.2,103.5 120.2,85.2 116.6,85.2 	"/>
	<path class="st0" d="M129.6,76.7v8.4c0.8,0,1.4,0,2.3,0c0,7.5,0,15.8,0,23.3c0,2.7,1.3,4.1,3.8,4.1c2.2,0,5.2,0,7.4,0
		c3-0.1,3.9-1.2,3.9-3.8V85.2c1.1,0,1.5,0,2.7,0v-8.4h-8.3v8.4l2.4,0c0,5.6,0,11.3,0,16.9c0,1.3-0.3,2.1-1.8,2.1c-1.7,0-3.7,0-5.4,0
		c-1.2,0-1.7-0.7-1.7-1.9v-17h3v-8.4H129.6z"/>
	<polygon class="st0" points="53.9,119.4 53.9,139.5 56.1,139.5 66.9,139.5 66.9,138.1 55.1,138.1 55.1,129.7 66.9,129.7 
		66.9,128.5 55.2,128.5 55.2,120.6 66.9,120.6 66.9,119.4 	"/>
	<path class="st0" d="M104,124.6c-6.7-9.8-16.7,2-10.1,11.2c3.5,3.5,9.1,2.1,10.2-3.2c0.6,0,1.6,0,2.2,0c-2,11.3-18.2,10.2-16.4-5.9
		c1.3-8.4,12-11.3,16-2.6C105.4,124.2,104.5,124.5,104,124.6z"/>
	<path class="st0" d="M136.9,118.9c-5.1,0-9.2,4.6-9.2,10.3c0,5.7,4.1,10.3,9.2,10.3c5.1,0,9.2-4.6,9.2-10.3
		C146.1,123.5,141.9,118.9,136.9,118.9z M136.9,137.4c-4.1,0-7.4-3.7-7.4-8.2c0-4.5,3.3-8.2,7.4-8.2c4.1,0,7.4,3.7,7.4,8.2
		C144.2,133.7,140.9,137.4,136.9,137.4z"/>
	<path class="st0" d="M178.9,130.4c8-2.1,5.8-11.1-0.1-11.1c-3.6,0-6.7,0-10.3,0v20.2h2.1v-8.2h5.6c1.7,2.6,3.7,5.6,5.4,8.2
		c1.1,0,2.2,0,3.3,0L178.9,130.4z M170.5,127.9v-6.5l7.2,0c4.3,0,4.1,6.5,0,6.5C174.9,127.9,173.4,127.9,170.5,127.9z"/>
	<path class="st0" d="M29.1,76.7c-4.3,0-8.7,0-13,0v8.2l0.1,0.2h3.2V104h-3.3v8.4l9.5,0.1V104h-3.5v-8.1h7.5
		c1.9-0.1,3.1-0.5,3.3-2.3c0-4.2,0-8.3,0-12.5C32.7,78.5,31.9,76.9,29.1,76.7z M31.3,91.6c-0.1,1.1-0.6,1.9-2.1,1.8
		c-2.4,0-4.8,0-7.3,0v-8.2v-0.2h8.3c0.9,0.1,1,0.3,1.1,1.2C31.3,88.1,31.3,89.9,31.3,91.6z"/>
	<polygon class="st0" points="152.8,76.7 152.8,85.2 155.3,85.2 155.3,104 153,104 153,112.4 161.2,112.4 161.2,104.1 158,104.1 
		158,83.5 167.5,112.7 176.1,83.9 176.1,104.1 173,104.1 173,112.2 182.5,112.2 182.5,104.1 178.9,104.1 178.9,85.2 182.4,85.2 
		182.4,76.7 174.2,76.7 174.2,81.5 167.7,103 167.7,102.8 160.3,81.7 160.3,76.7 	"/>
	<path class="st0" d="M196.4,64.3c-0.9-0.9-2.3-1.7-4.6-1.9c-5.4,0.1-6.5,2.2-9.7,6.2H86.4v0H17.8c-0.4-0.4-0.7-0.9-1-1.3
		c-2.5-3.2-3.8-4.9-8.6-4.9l0,0c-1.1,0.1-2.1,0.4-2.8,0.7c-0.8,0.3-1.3,0.8-1.8,1.2c-0.5,0.5-0.9,1-1.3,1.7
		c-0.3,0.7-0.6,1.6-0.6,2.8v0c0,2.1,0.7,4,1.9,5.3c1.2,1.2,2.8,2,5,2h0c1.4,0,2.8-0.5,3.8-1.5c0.9-0.8,1.5-2,1.5-3.6v0
		c-0.1-1-0.2-1.7-0.5-2.2c-0.3-0.5-0.6-0.9-1.3-1.6l0,0c-0.6-0.6-1.3-1-2.1-1.2c-0.8-0.2-1.7-0.2-2.4,0h0c-0.5,0.2-0.9,0.4-1.2,0.7
		c-0.3,0.3-0.5,0.6-0.7,0.9c-0.2,0.4-0.3,0.8-0.4,1.3c0,0.5,0,1.1,0.2,1.8l0,0c0.2,0.5,0.5,0.9,0.9,1.2c0.4,0.3,0.8,0.6,1.2,0.7
		c1.1,0.2,1.8,0,2.2-0.5c0.4-0.5,0.5-1.3,0.5-2.3v0H8.8h0v0c0,0.7-0.1,1.1-0.3,1.3c-0.2,0.2-0.4,0.2-0.8,0c-0.3-0.2-0.5-0.4-0.7-0.6
		c-0.2-0.3-0.4-0.7-0.4-1.1c0-0.4,0.1-0.8,0.3-1.2c0.2-0.3,0.4-0.6,0.7-0.8c0.6-0.4,1.3-0.5,1.9-0.4c0.5,0.1,1,0.3,1.5,0.6
		c0.4,0.3,0.8,0.7,1.1,1.2c0.4,0.7,0.6,1.5,0.5,2.3c0,0.3-0.1,0.5-0.2,0.7c-0.3,1-1,1.7-1.8,2c-0.8,0.4-1.8,0.5-2.8,0.3
		c-0.4-0.1-0.7-0.1-1.1-0.3c-0.7-0.4-1.2-0.7-1.6-1.1c-0.4-0.4-0.7-0.8-0.9-1.3c-0.2-0.5-0.3-1-0.4-1.6c-0.1-0.6,0-1.3,0.1-2.1
		c0.1-0.6,0.3-1,0.5-1.3c0.2-0.3,0.5-0.6,0.7-0.8c0.3-0.3,0.6-0.5,1-0.7c0.4-0.2,0.9-0.4,1.7-0.5c0.8-0.1,1.5-0.1,2.2,0
		c0.7,0.1,1.5,0.4,2.2,0.8c0.5,0.3,0.9,0.7,1.3,1.2c0.4,0.5,0.7,1,1,1.6l0,0.1c0.6,1.4,1.1,2.5,1.9,2.5h70.2v0h97.2
		c0.8,0,1.3-1.2,1.9-2.6c0.6-1.1,1.3-2.1,2.3-2.7c1.5-0.9,2.9-1.1,4.5-0.9c1.5,0.3,2.1,0.7,2.7,1.3c0.5,0.5,1,1,1.2,2.2
		c0.2,1.6,0.1,2.7-0.3,3.6c-0.4,0.9-1.2,1.7-2.6,2.4c-2.7,0.9-5.4,0.1-5.9-2.9c-0.3-2.4,2.3-5.2,5-3.7c1.3,0.9,1.3,2.9-0.1,3.7
		c-0.8,0.3-1.1,0.1-1.1-1.3c-0.5,0-1.1,0-1.6,0c0,1.9,0.4,3.2,2.7,2.8c0.8-0.2,1.7-1,2.1-1.9c0.4-1.4,0.3-2.3-0.1-3
		c-0.4-0.7-0.9-1.2-1.9-1.6c-1.4-0.4-3.3,0-4.5,1.2c-1.3,1.3-1.6,1.7-1.7,3.8c0.1,3.4,2.8,5,5.3,5.1c4.6,0,6.9-3.3,7-7.2
		C198.1,66.4,197.4,65.2,196.4,64.3z M86.4,70.6H16.3c-0.8,0-1.2-1.1-1.8-2.5l0-0.1c-0.3-0.6-0.6-1.1-1-1.6
		c-0.4-0.5-0.8-0.9-1.3-1.2c-0.7-0.5-1.5-0.7-2.2-0.9c-0.7-0.1-1.5-0.1-2.3,0h0C6.9,64.6,6.4,64.8,6,65c-0.4,0.2-0.7,0.4-1,0.7
		c-0.2,0.2-0.5,0.5-0.7,0.8c-0.2,0.3-0.4,0.8-0.5,1.4v0c-0.1,0.8-0.1,1.5-0.1,2.1c0.1,0.6,0.2,1.1,0.4,1.6C4.3,72,4.6,72.4,5,72.8
		c0.4,0.4,1,0.8,1.7,1.1l0,0c0.4,0.1,0.7,0.2,1.1,0.3c1,0.2,2,0.1,2.8-0.3c0.8-0.4,1.5-1.1,1.8-2.1c0.1-0.2,0.1-0.5,0.2-0.8v0
		c0.1-0.8-0.1-1.6-0.5-2.3c-0.3-0.5-0.6-0.9-1.1-1.2C10.5,67.2,10,67,9.5,67c-0.6-0.1-1.2,0.1-1.9,0.4l0,0c-0.3,0.2-0.5,0.5-0.7,0.8
		c-0.2,0.4-0.3,0.8-0.3,1.2c0,0.4,0.1,0.8,0.4,1.1c0.2,0.2,0.4,0.5,0.7,0.6l0,0c0.4,0.1,0.7,0.2,0.9,0c0.2-0.2,0.3-0.6,0.3-1.3h1.6
		c0,0.9-0.1,1.7-0.5,2.2c-0.4,0.5-1,0.7-2.1,0.5c-0.4-0.1-0.8-0.3-1.2-0.7c-0.4-0.3-0.7-0.8-0.9-1.2c-0.2-0.7-0.3-1.3-0.2-1.7
		c0-0.5,0.2-0.9,0.4-1.2C6,67.3,6.2,67,6.5,66.7c0.3-0.3,0.7-0.5,1.2-0.7c0.7-0.2,1.6-0.2,2.4,0c0.8,0.2,1.5,0.6,2.1,1.1
		c0.6,0.7,1,1.1,1.3,1.6c0.3,0.5,0.4,1.1,0.5,2.2c-0.1,1.6-0.6,2.7-1.5,3.6c-1,1-2.4,1.5-3.7,1.5c-2.2,0-3.8-0.7-5-1.9
		c-1.3-1.3-1.9-3.2-1.9-5.3c0.1-1.2,0.3-2.1,0.6-2.8c0.3-0.7,0.8-1.2,1.2-1.7c0.5-0.4,1-0.9,1.8-1.2c0.7-0.3,1.7-0.6,2.8-0.7
		c4.8,0,6.1,1.8,8.6,4.9c0.3,0.4,0.6,0.8,1,1.3l0,0h68.6V70.6z"/>
	<path class="st0" d="M25.1,119.3c-3.3,0-6.8,0-10.1,0c0,6.3,0,12.7,0,19c3.5,0,7,0,10.5,0C34.2,138.3,35.7,119.3,25.1,119.3z
		 M25.4,136.4c-2.8,0-5.9,0-8.7,0l0-15.2l8.7,0C32.8,121.2,31.8,136.4,25.4,136.4z"/>
</g>
</svg>
