<?xml version="1.0" encoding="utf-8"?>
<!-- Generator: Adobe Illustrator 18.0.0, SVG Export Plug-In . SVG Version: 6.00 Build 0)  -->
<!DOCTYPE svg PUBLIC "-//W3C//DTD SVG 1.1//EN" "http://www.w3.org/Graphics/SVG/1.1/DTD/svg11.dtd">
<svg version="1.1" id="Layer_1" xmlns="http://www.w3.org/2000/svg" xmlns:xlink="http://www.w3.org/1999/xlink" x="0px" y="0px"
	 viewBox="0 0 200 200" enable-background="new 0 0 200 200" xml:space="preserve">
<g id="Layer_x0020_1">
	
		<linearGradient id="SVGID_1_" gradientUnits="userSpaceOnUse" x1="721.0095" y1="-4929.0205" x2="721.0095" y2="-3462.428" gradientTransform="matrix(2.246442e-002 0 0 -2.246442e-002 0.9775 5.5208)">
		<stop  offset="0" style="stop-color:#0072A9"/>
		<stop  offset="0.3098" style="stop-color:#008CD4"/>
		<stop  offset="0.4784" style="stop-color:#0072A9"/>
		<stop  offset="0.5686" style="stop-color:#00A6FF"/>
		<stop  offset="1" style="stop-color:#00A6FF"/>
	</linearGradient>
	<polygon fill="url(#SVGID_1_)" points="4,83.3 4,92 0,92 0,96.3 4,96.3 4,112.7 19.1,112.7 19.1,116.2 23.9,116.2 23.9,112.7 
		32.3,112.7 32.3,96.2 34.3,96.2 34.3,92.1 32.2,92.1 32.2,83.3 	"/>
	<polygon fill="#FEF200" points="7.5,86.7 7.5,91.6 28.1,91.6 28.1,87.3 28.1,86.7 	"/>
	<polygon fill="#FEF200" points="23.3,96.4 23.3,108.6 28,108.6 28,96.3 	"/>
	<polygon fill="#FEF200" points="7.7,96.3 7.7,108.6 19.6,108.6 19.6,96.3 	"/>
	
		<linearGradient id="SVGID_2_" gradientUnits="userSpaceOnUse" x1="-0.6566" y1="199.8175" x2="-0.6566" y2="200.0223" gradientTransform="matrix(89.8802 0 0 -83.7474 108.672 16834.6074)">
		<stop  offset="0" style="stop-color:#0072A9"/>
		<stop  offset="0.1294" style="stop-color:#0072A9"/>
		<stop  offset="0.3882" style="stop-color:#029EFF"/>
		<stop  offset="1" style="stop-color:#029EFF"/>
	</linearGradient>
	<path fill="url(#SVGID_2_)" d="M42.5,83.3c-1.4,0-2,1.3-2,2.1c0,4.3,0,8.5,0,12.7c0,1.7,1.2,2.3,2.9,2.3c4.3,0,8.5,0,12.8,0
		c1.7,0,2.7-0.7,2.7-2.7c0-4,0-7.9,0-11.9c0-1.3-0.4-2.6-2-2.6C52.1,83.3,47.3,83.3,42.5,83.3z"/>
	<polygon fill="#FFFFFF" points="44.5,87.4 44.5,96.2 54.7,96.2 54.7,87.4 	"/>
	
		<linearGradient id="SVGID_3_" gradientUnits="userSpaceOnUse" x1="-1.8242" y1="199.8075" x2="-1.8242" y2="200.0122" gradientTransform="matrix(80.5125 0 0 -83.006 215.5352 16685.4668)">
		<stop  offset="0" style="stop-color:#0072A9"/>
		<stop  offset="0.1294" style="stop-color:#0072A9"/>
		<stop  offset="0.3882" style="stop-color:#029EFF"/>
		<stop  offset="1" style="stop-color:#029EFF"/>
	</linearGradient>
	<path fill="url(#SVGID_3_)" d="M60.4,83.2v17h4v-6c3.4,0,6.9,0,10.3,0c1.4,0,2.2-0.6,2.2-2c0-2.3,0-4.6,0-6.9
		c0-0.9-0.7-2.1-2.2-2.1H60.4z"/>
	<path fill="#FFFFFF" d="M64.5,86.7v3.3c2.5,0,5,0,7.5,0c0.5,0,0.7-0.4,0.7-0.9c0-0.3,0-1.1,0-1.4c0-0.4-0.1-1-0.8-1H64.5z"/>
	
		<linearGradient id="SVGID_4_" gradientUnits="userSpaceOnUse" x1="-2.9424" y1="199.8068" x2="-2.9424" y2="200.0116" gradientTransform="matrix(76.7385 0 0 -82.714 313.3229 16627.0586)">
		<stop  offset="0" style="stop-color:#0072A9"/>
		<stop  offset="0.1294" style="stop-color:#0072A9"/>
		<stop  offset="0.3882" style="stop-color:#029EFF"/>
		<stop  offset="1" style="stop-color:#029EFF"/>
	</linearGradient>
	<polygon fill="url(#SVGID_4_)" points="79.7,83.3 79.7,100.2 95.4,100.2 95.4,96.4 83.6,96.4 83.6,93.4 90.5,93.4 90.5,89.5 
		83.8,89.5 83.8,86.7 95.4,86.7 95.4,83.3 	"/>
	
		<linearGradient id="SVGID_5_" gradientUnits="userSpaceOnUse" x1="-3.2762" y1="199.8209" x2="-3.2762" y2="200.0257" gradientTransform="matrix(86.7351 0 0 -84.2416 390.578 16933.6992)">
		<stop  offset="0" style="stop-color:#0072A9"/>
		<stop  offset="0.1294" style="stop-color:#0072A9"/>
		<stop  offset="0.3882" style="stop-color:#029EFF"/>
		<stop  offset="1" style="stop-color:#029EFF"/>
	</linearGradient>
	<polygon fill="url(#SVGID_5_)" points="111.2,83.2 115.3,83.2 115.3,100.4 111.9,100.4 101.5,90 101.5,100.5 97.5,100.5 97.5,83.3 
		101,83.3 111.1,93.4 	"/>
	
		<linearGradient id="SVGID_6_" gradientUnits="userSpaceOnUse" x1="5805.7568" y1="-4221.3208" x2="5805.7568" y2="-3462.428" gradientTransform="matrix(2.246442e-002 0 0 -2.246442e-002 0.9775 5.5208)">
		<stop  offset="0" style="stop-color:#0072A9"/>
		<stop  offset="0.1294" style="stop-color:#0072A9"/>
		<stop  offset="0.3882" style="stop-color:#029EFF"/>
		<stop  offset="1" style="stop-color:#029EFF"/>
	</linearGradient>
	<polygon fill="url(#SVGID_6_)" points="122.9,83.3 122.9,87.3 129.1,87.3 129.1,100.4 133.8,100.4 133.8,87.3 139.9,87.3 
		139.9,83.3 	"/>
	
		<linearGradient id="SVGID_7_" gradientUnits="userSpaceOnUse" x1="-6.008" y1="199.8098" x2="-6.008" y2="200.0146" gradientTransform="matrix(77.7494 0 0 -83.006 617.1766 16685.7148)">
		<stop  offset="0" style="stop-color:#0072A9"/>
		<stop  offset="0.1294" style="stop-color:#0072A9"/>
		<stop  offset="0.3882" style="stop-color:#029EFF"/>
		<stop  offset="1" style="stop-color:#029EFF"/>
	</linearGradient>
	<polygon fill="url(#SVGID_7_)" points="142.1,83.3 142.1,100.3 157.9,100.3 157.9,96.2 146.2,96.2 146.2,93.3 153.2,93.3 
		153.2,89.5 146.2,89.5 146.2,86.7 158,86.7 158,83.3 	"/>
	
		<linearGradient id="SVGID_8_" gradientUnits="userSpaceOnUse" x1="7538.8628" y1="-4220.9116" x2="7538.8628" y2="-3462.0183" gradientTransform="matrix(2.246442e-002 0 0 -2.246442e-002 0.9775 5.5208)">
		<stop  offset="0" style="stop-color:#0072A9"/>
		<stop  offset="0.1294" style="stop-color:#0072A9"/>
		<stop  offset="0.3882" style="stop-color:#029EFF"/>
		<stop  offset="1" style="stop-color:#029EFF"/>
	</linearGradient>
	<path fill="url(#SVGID_8_)" d="M162.2,85.4c0,4.2,0,8.5,0,12.7c0.9,0.8,1.9,1.5,2.8,2.3c3.9,0,7.8,0,11.8,0
		c0.6-0.7,1.2-1.4,1.7-2.1c0-1.6,0-3.1,0-4.7c-0.4-0.2-0.8-0.5-1.2-0.7c-0.9,0-1.9,0-2.8,0c0,1.2,0,2.3,0,3.5c-2.8,0-5.6,0-8.3,0
		c0-3,0-6,0-9c2.8,0,5.5,0,8.3,0c0,0.9,0,1.9,0.1,2.8c1.3,0,2.7,0,4,0c0-1.7,0-3.1,0-4.8c0-0.9-0.6-2.1-2-2.1c-4.1,0-8,0-12.1,0
		C162.9,83.3,162.2,83.9,162.2,85.4z"/>
	
		<linearGradient id="SVGID_9_" gradientUnits="userSpaceOnUse" x1="-6.6713" y1="199.8168" x2="-6.6713" y2="200.0215" gradientTransform="matrix(90.7563 0 0 -83.9945 796.1732 16883.8945)">
		<stop  offset="0" style="stop-color:#0072A9"/>
		<stop  offset="0.1294" style="stop-color:#0072A9"/>
		<stop  offset="0.3882" style="stop-color:#029EFF"/>
		<stop  offset="1" style="stop-color:#029EFF"/>
	</linearGradient>
	<polygon fill="url(#SVGID_9_)" points="181.4,83.3 181.4,100.3 186,100.3 186,94.2 193.8,100.4 200,100.4 188.7,91.2 198.6,83.2 
		193.1,83.2 186.1,88.6 186.1,83.2 	"/>
</g>
<g id="Layer_x0020_1_1_">
	<path fill="#03070A" d="M0.2,75.6c0-0.2,0.1-0.4,0.1-0.6c-0.4-7.8,3.7-17.2,12.1-18c58.6,0,117.2,0,175.8,0c7.7,0.5,12,7,11.8,13.4
		c0,21,0,42.1,0,63.1c0,6-5.9,12.1-13.2,11.9c-58,0-116.1,0-174.1,0C5.5,145.2,0,139,0,132.1C0.1,113.1,0.2,94,0.3,75
		C0.3,75.2,0.3,75.4,0.2,75.6z"/>
	<path fill="#2B2A29" d="M0.2,75.6l0.1-0.6C0.1,70.7,1.2,66,3.6,62.5c2-3,5-5.2,8.8-5.6c38-3.7,136.3-2.5,175.8,0
		c3.6,0.2,6.5,1.8,8.5,4.1c2.2,2.5,3.4,5.9,3.2,9.3v63.1c0,0.1,0,0.3,0,0.4c-0.1,2.9-1.6,5.7-3.8,7.9c-2.3,2.2-5.4,3.6-8.9,3.6
		c-0.2,0-0.4,0-0.6,0H12.6c-3.5-0.1-6.7-1.7-8.9-4c-2.3-2.4-3.7-5.7-3.7-9.2l0.3-56.9L0.2,75.6L0.2,75.6z M0.4,75
		c0.8,18.3-0.2,38.7-0.3,57.2c0,3.5,1.4,6.8,3.7,9.2c2.3,2.4,5.4,3.9,8.9,4h174.1c0.2,0,0.4,0,0.6,0c3.4,0,6.6-1.5,8.8-3.6
		c2.3-2.1,3.7-5,3.8-7.8c0-0.1,0-0.3,0-0.4V70.4c0.1-3.4-1-6.8-3.2-9.3c-2-2.3-4.9-3.9-8.5-4.1H12.4c-3.8,0.4-6.7,2.5-8.8,5.5
		c-2.3,3.5-3.4,8-3.3,12.2l0-0.1L0.4,75z"/>
	<path fill="#FFFFFF" d="M13.7,64.5c57.6,0,115.2,0,172.8,0c-3.8,1.5-6.7,2.5-9.2,6.1c-51.5,0-103.8,0-155.3,0
		C19.3,67.9,17.6,66.1,13.7,64.5z"/>
	<path fill="#2B2A29" d="M13.7,64.4h173l-0.1,0c-0.2,0.1-0.4,0.2-0.6,0.2c-3.5,1.4-6.2,2.5-8.5,5.8l0,0H22.1l-0.5-0.4
		C19.1,67.7,17.3,66,13.7,64.4h-0.1H13.7z M186.4,64.5H13.8c3.6,1.5,5.3,3.2,7.8,5.6l0.4,0.4h155.3c2.3-3.4,5-4.4,8.6-5.8
		L186.4,64.5z"/>
	<path fill="#FFFFFF" d="M12.3,73.9c0.5,0,1,0,1.5,0c0,1.8-0.4,3.1-2.5,2.6c-0.8-0.2-1.7-1-2-1.8c-0.4-1.3-0.2-2.2,0.1-2.9
		c0.3-0.6,0.8-1.2,1.9-1.5c1.3-0.4,3.1,0,4.3,1.1c1.2,1.3,1.5,1.6,1.7,3.6c-0.1,3.3-2.7,4.8-5,4.9c-4.3,0-6.6-3.1-6.6-6.9
		c0.1-2.3,0.9-3.4,1.8-4.4c0.9-0.9,2.2-1.6,4.4-1.8c5.2,0.1,6.1,2.1,9.2,5.9h65.6v2H19.4c-0.8,0-1.2-1.1-1.8-2.5
		c-0.6-1.1-1.2-2-2.1-2.6c-1.4-0.9-2.8-1-4.3-0.8c-1.4,0.3-2,0.7-2.6,1.2c-0.5,0.4-0.9,1-1.1,2.1c-0.2,1.5-0.1,2.6,0.3,3.5
		c0.4,0.9,1.1,1.6,2.5,2.3c2.5,0.9,5.1,0.1,5.6-2.7c0.3-2.3-2.1-5-4.7-3.5c-1.2,0.9-1.2,2.8,0.1,3.5C12,75.4,12.3,75.2,12.3,73.9z"
		/>
	<path fill="#FFFFFF" d="M12.3,73.8h1.6v0c0,0.9-0.1,1.7-0.5,2.2c-0.4,0.5-1,0.7-2.1,0.5c-0.4-0.1-0.8-0.3-1.2-0.6
		c-0.4-0.3-0.7-0.8-0.9-1.2l0,0C9.1,74,9,73.5,9,73c0-0.5,0.2-0.9,0.3-1.2c0.2-0.3,0.4-0.6,0.7-0.9c0.3-0.3,0.7-0.5,1.2-0.7h0
		c0.7-0.2,1.5-0.2,2.3,0c0.7,0.2,1.4,0.6,2,1.1l0,0c0.6,0.6,1,1,1.2,1.5c0.2,0.5,0.4,1.1,0.4,2.1v0c-0.1,1.5-0.6,2.6-1.4,3.4
		c-1,0.9-2.3,1.4-3.6,1.4h0c-2.1,0-3.7-0.7-4.8-1.9C6.1,76.8,5.5,75,5.5,73v0c0.1-1.2,0.3-2,0.6-2.7c0.3-0.7,0.7-1.2,1.2-1.7
		c0.4-0.4,1-0.8,1.7-1.2c0.7-0.3,1.6-0.6,2.7-0.7l0,0c4.6,0,5.9,1.7,8.2,4.7c0.3,0.4,0.6,0.8,0.9,1.2h65.6v2H19.4
		c-0.8,0-1.2-1.1-1.8-2.4l0-0.1c-0.3-0.5-0.6-1-0.9-1.5c-0.3-0.4-0.7-0.8-1.2-1.1c-0.7-0.4-1.4-0.7-2.1-0.8c-0.7-0.1-1.4-0.1-2.1,0
		c-0.7,0.2-1.2,0.3-1.6,0.5c-0.4,0.2-0.7,0.4-1,0.7c-0.2,0.2-0.5,0.5-0.7,0.8c-0.2,0.3-0.4,0.7-0.5,1.3c-0.1,0.8-0.1,1.4-0.1,2
		c0.1,0.6,0.2,1.1,0.4,1.5C8,76,8.3,76.4,8.7,76.8c0.4,0.4,0.9,0.7,1.6,1.1c0.3,0.1,0.7,0.2,1,0.3c1,0.2,1.9,0.1,2.7-0.3
		c0.8-0.4,1.4-1,1.7-2c0.1-0.2,0.1-0.5,0.2-0.7c0.1-0.7-0.1-1.5-0.5-2.2c-0.3-0.5-0.6-0.9-1-1.2c-0.4-0.3-0.9-0.5-1.4-0.6
		c-0.6-0.1-1.2,0.1-1.8,0.4c-0.3,0.2-0.5,0.5-0.7,0.7c-0.2,0.3-0.3,0.7-0.3,1.1c0,0.4,0.1,0.7,0.4,1.1c0.2,0.2,0.4,0.4,0.7,0.6
		c0.4,0.1,0.6,0.2,0.8,0C12.2,74.9,12.3,74.5,12.3,73.8L12.3,73.8L12.3,73.8z M13.8,73.9h-1.5c0,0.7-0.1,1.1-0.3,1.3
		c-0.2,0.2-0.4,0.2-0.8,0l0,0c-0.3-0.2-0.5-0.4-0.7-0.6c-0.2-0.3-0.3-0.7-0.4-1.1c0-0.4,0.1-0.8,0.3-1.1c0.2-0.3,0.4-0.5,0.7-0.8
		l0,0c0.6-0.4,1.3-0.5,1.8-0.4c0.5,0.1,1,0.3,1.4,0.6c0.4,0.3,0.8,0.7,1,1.2c0.4,0.7,0.6,1.4,0.5,2.2v0c0,0.3-0.1,0.5-0.2,0.7
		c-0.3,1-0.9,1.6-1.7,2c-0.8,0.4-1.7,0.5-2.7,0.3c-0.3-0.1-0.7-0.1-1-0.3l0,0c-0.7-0.4-1.2-0.7-1.6-1.1C8.3,76.4,8,76,7.8,75.6
		c-0.2-0.4-0.3-0.9-0.4-1.5c-0.1-0.6,0-1.2,0.1-2v0c0.1-0.6,0.3-1,0.5-1.3c0.2-0.3,0.4-0.6,0.7-0.8c0.3-0.3,0.6-0.5,1-0.7
		c0.4-0.2,0.9-0.4,1.6-0.5h0c0.7-0.1,1.5-0.1,2.2,0c0.7,0.1,1.4,0.4,2.1,0.8c0.5,0.3,0.9,0.7,1.2,1.1c0.3,0.4,0.6,1,0.9,1.5l0,0.1
		c0.6,1.3,1,2.4,1.7,2.4h67.1v-1.9H20.9l0,0c-0.3-0.4-0.7-0.8-1-1.2c-2.3-3-3.6-4.7-8.2-4.7c-1.1,0.1-2,0.3-2.7,0.7
		c-0.7,0.3-1.3,0.7-1.7,1.1c-0.5,0.5-0.9,1-1.2,1.6C5.8,71,5.6,71.8,5.6,73c0,2,0.6,3.8,1.8,5c1.1,1.2,2.7,1.9,4.8,1.9
		c1.3,0,2.6-0.5,3.6-1.4c0.8-0.8,1.4-1.9,1.4-3.4c-0.1-1-0.2-1.6-0.4-2.1c-0.2-0.5-0.6-0.9-1.2-1.5c-0.6-0.5-1.3-0.9-2-1.1
		c-0.8-0.2-1.6-0.2-2.3,0c-0.5,0.2-0.9,0.4-1.2,0.6c-0.3,0.3-0.5,0.6-0.7,0.9c-0.2,0.4-0.3,0.7-0.3,1.2c0,0.5,0,1,0.2,1.7
		c0.2,0.4,0.5,0.8,0.8,1.2c0.4,0.3,0.8,0.6,1.1,0.6c1.1,0.2,1.7,0,2.1-0.5C13.7,75.5,13.8,74.8,13.8,73.9z"/>
	<polygon fill="#FFFFFF" points="18.1,77.3 18.1,76.1 180.7,76.1 180.7,77.3 	"/>
	<path fill="#FFFFFF" d="M18.1,77.3v-1.2h162.6v1.2C126.5,77.3,72.3,77.3,18.1,77.3L18.1,77.3z M18.2,76.1v1.1l162.5,0v-1.1H18.2z"
		/>
	<path fill="#FFFFFF" d="M19.3,114.7v-8h3.1V88.6h-3.1l-0.1-0.2v-7.9c4.1,0,8.3,0,12.4,0c2.7,0.2,3.4,1.7,3.5,4.3c0,4,0,7.9,0,11.9
		c-0.1,1.7-1.3,2.1-3.1,2.2H25v7.8h3.4v8.1L19.3,114.7z"/>
	<path fill="#FFFFFF" d="M19.3,114.7v-8.1h3.1v-18h-3.1l-0.1-0.2v-7.9c3.9,0,8.6-0.2,12.5,0c1.3,0.1,2.2,0.5,2.8,1.2
		c0.5,0.7,0.8,1.8,0.8,3.1c0.3,2.6,0.2,9.2,0,11.9c-0.1,0.8-0.4,1.4-0.9,1.7c-0.5,0.3-1.3,0.5-2.2,0.5H25v7.7h3.4v8.1
		C25.3,114.8,22.3,114.8,19.3,114.7L19.3,114.7z M19.3,106.7v8l9,0.1v-8.1h-3.4v-7.8h7.2c0.9,0,1.7-0.2,2.2-0.5
		c0.5-0.3,0.8-0.8,0.9-1.7V84.8c-0.1-1.3-0.3-2.3-0.8-3c-0.5-0.7-1.4-1.1-2.7-1.2H19.3v7.8l0,0.2h3.1v18.1H19.3z"/>
	<path fill="#FFFFFF" d="M38.8,114.3v-7.7H42v-0.5V88.6h-2.3v-8.1c4,0,8,0,11.9,0c2.6,0,4,1.9,4,3.9c0,3.5,0,7.1,0,10.6
		c0,1.4-1.5,2.1-3.5,2.3c1.9,0.5,2.5,2.3,2.5,3.4v5.6h5.4v8.3c0.2,0,0,0,0,0h-8c0-4.8,0-9.5,0-14.3c0-1.2-0.6-1.5-1.9-1.6h-6v8h3.4
		v7.9h-8.8L38.8,114.3z"/>
	<path fill="#FFFFFF" d="M38.8,114.3v-7.7H42v-18h-2.3v-8.2h12c1.2,0,2.2,0.4,2.9,1.1c0.8,0.7,1.2,1.8,1.2,2.8V95
		c0,0.7-0.3,1.2-0.9,1.6c-0.6,0.4-1.5,0.7-2.4,0.8c0.8,0.2,1.3,0.7,1.7,1.2c0.5,0.7,0.7,1.6,0.7,2.2v5.6h5.4v8.3c0,0,0.1,0,0.1,0
		c0,0,0,0,0,0c0,0,0,0,0,0c0,0,0,0-0.1,0h0v0h0h-8v-14.3c0-0.6-0.2-1-0.5-1.2c-0.3-0.2-0.8-0.3-1.4-0.3l-5.9,0v7.9h3.4v8h-8.8V114.3
		z M38.8,106.7v7.7v0.3h8.7v-7.9h-3.4c0-2.7,0-5.4,0-8c1.7,0,4.5-0.2,6,0c0.7,0,1.1,0.1,1.5,0.4c0.3,0.2,0.5,0.6,0.5,1.2v14.2h8h0
		v-8.2h-5.4v-5.6c0-0.6-0.2-1.4-0.7-2.2c-0.4-0.5-1-1-1.8-1.2l-0.1,0l0.1,0c1-0.1,1.9-0.4,2.5-0.8c0.6-0.4,0.9-0.9,0.9-1.5V84.4
		c0-1-0.4-2-1.2-2.8c-0.7-0.6-1.6-1.1-2.8-1.1H39.7v8.1H42v18.1H38.8z"/>
	<path fill="#03070A" d="M44.2,88.8v7.8c2.3,0,4.6,0,7,0c1.4-0.1,2-0.8,2-1.8c0-1.7,0-3.4,0-5.1c0-0.7-0.2-1.1-1-1.1h-7.9V88.8z"/>
	<path fill="#FFFFFF" d="M44.3,88.8v7.8h6.9c0.7-0.1,1.2-0.2,1.5-0.5c0.3-0.3,0.5-0.7,0.5-1.2v-5.1c0-0.3,0-0.6-0.2-0.8
		c-0.2-0.2-0.4-0.3-0.8-0.3h-7.9V88.8z M44.2,96.6v-8c2.2,0,6-0.2,8,0c0.4,0,0.7,0.1,0.8,0.3c0.2,0.2,0.2,0.5,0.2,0.8v5.1
		c0,0.5-0.2,0.9-0.5,1.2c-0.3,0.3-0.8,0.5-1.6,0.6C49,96.7,46.4,96.6,44.2,96.6L44.2,96.6z"/>
	<path fill="#FFFFFF" d="M62.4,80.5v8.1h3.4v18.1h-3.5v7.8h17c0-4.1,0-8.3,0-12.4h-2.5c0,1.8,0.4,4.7-1.8,4.7h-7v-8
		c1.9,0,3.8,0,5.6,0c0-0.8,0-1.5,0-2.3h-5.9v-7.9c2.4,0,4.9,0,7.3,0c1.6,0,1.8,0.5,1.8,2v2.5c0.8,0,1.6,0,2.3,0V80.5L62.4,80.5z"/>
	<path fill="#FFFFFF" d="M62.4,80.5v8l3.4,0v18.2h-3.5v7.8h17v-12.4h-2.5c0,0.2,0,0.5,0,0.8c0,0.3,0,0.6,0,0.9c0,1.5-0.2,3-1.8,3h-7
		v-8.1h5.6v-2.2h-5.9v-8H75c0.8,0,1.3,0.1,1.5,0.5c0.3,0.3,0.3,0.8,0.3,1.6V93c0.4,0,0.8,0,1.1,0c0.4,0,0.8,0,1.1,0V80.6L62.4,80.5z
		 M62.4,88.6v-8.1c5.6,0,11.2,0,16.9,0v12.6h0c-0.4,0-0.8,0-1.2,0c-0.4,0-0.8,0-1.2,0h0v-2.5c0-0.7,0-1.2-0.3-1.5
		c-0.2-0.3-0.7-0.4-1.5-0.4h-7.3v7.9h5.9v2.3H68v8h7c1.6,0,1.8-1.5,1.8-3c0-0.3,0-0.6,0-0.9c0-0.3,0-0.5,0-0.8v0h2.6v12.5H62.2v-7.9
		h3.5V88.6L62.4,88.6L62.4,88.6z"/>
	<polygon fill="#FFFFFF" points="83.6,80.5 83.6,88.6 86,88.6 86,106.7 83.8,106.7 83.8,114.7 91.6,114.7 91.6,106.8 88.6,106.8 
		88.6,87.1 97.7,114.9 105.9,87.4 105.9,106.8 102.9,106.8 102.9,114.5 112,114.5 112,106.8 108.6,106.8 108.6,88.6 111.9,88.6 
		111.9,80.5 104,80.5 104,85.1 97.8,105.7 97.8,105.5 90.8,85.3 90.8,80.5 	"/>
	<path fill="#FFFFFF" d="M83.7,80.6v8H86v18.1h-2.2v7.9h7.8v-7.9h-3V86.9l9.1,28l8.2-27.6v19.5h-3v7.7h9.1v-7.7h-3.5V88.6h3.4v-8
		h-7.9v4.6c-2.1,6.9-4.2,13.8-6.3,20.7v-0.4l-7.1-20.2v-4.7L83.7,80.6z M83.6,88.6v-8.1c2.4,0,4.8,0,7.2,0v4.8l7.1,20.2v0.1
		l6.2-20.4v-4.6h8c0,2.7,0,5.4,0,8.1h-3.4v18.1h3.5c0,2.6,0,5.2,0,7.8h-9.2v-7.8h3V87.6L97.7,115l-9.1-27.8v19.5h3c0,2.7,0,5.3,0,8
		h-7.9v-8h2.2v-18L83.6,88.6L83.6,88.6z"/>
	<polygon fill="#FFFFFF" points="115.5,80.5 124.4,80.5 124.4,88.6 121,88.6 121,106.8 124.4,106.8 124.4,114.7 115.3,114.7 
		115.3,106.7 118.8,106.7 118.9,106.2 118.9,88.6 115.5,88.6 	"/>
	<path fill="#FFFFFF" d="M115.5,80.5h9v8.1H121v18.1h3.4v8h-9.1v-8h3.5l0.1-0.5V88.6h-3.4C115.5,85.9,115.5,83.2,115.5,80.5
		L115.5,80.5z M124.4,80.5h-8.9l0,8h3.4c0,5.1,0.6,13.5-0.1,18.1h-3.5v7.9h9v-7.9H121V88.6h3.5V80.5z"/>
	<path fill="#FFFFFF" d="M127.8,80.5v8.1c0.7,0,1.3,0,2.2,0c0,7.2,0,15.1,0,22.3c0,2.6,1.3,3.9,3.6,3.9c2.1,0,5,0,7.1,0
		c2.9-0.1,3.7-1.2,3.7-3.6V88.6c1.1,0,1.4,0,2.5,0v-8.1h-7.9v8.1l2.3,0c0,5.3,0,10.8,0,16.2c0,1.3-0.3,2-1.7,2c-1.6,0-3.5,0-5.2,0
		c-1.1,0-1.6-0.6-1.6-1.9V88.6h2.9v-8.1H127.8z"/>
	<path fill="#FFFFFF" d="M127.9,80.5v8c0.2,0,0.4,0,0.5,0c0.5,0,1,0,1.6,0l0,0c0,7.4,0,14.9,0,22.3c0,1.3,0.3,2.2,0.9,2.9
		c0.6,0.7,1.5,1,2.6,1h7.1c1.4-0.1,2.4-0.4,2.9-0.9c0.6-0.6,0.8-1.4,0.8-2.6V88.6h2.5v-8h-7.9v8l2.3,0v16.2c0,0.6-0.1,1.1-0.3,1.5
		c-0.3,0.3-0.7,0.5-1.4,0.5h-5.2c-0.6,0-1-0.2-1.3-0.5c-0.3-0.3-0.4-0.8-0.4-1.4V88.6h2.9v-8H127.9z M127.8,88.6v-8.1h8v8.1h-2.9
		v16.3c0,0.6,0.1,1.1,0.4,1.4c0.3,0.3,0.7,0.5,1.2,0.5h5.2c0.7,0,1.1-0.2,1.4-0.5c0.3-0.3,0.3-0.8,0.3-1.4V88.6l-2.3,0v-8.1h8v8.1
		h-2.5v22.6c0,1.2-0.2,2.1-0.8,2.7c-0.6,0.6-1.5,0.9-3,1c-1.9,0.2-5,0-7.1,0c-1.2,0-2.1-0.3-2.7-1c-0.6-0.7-0.9-1.6-0.9-2.9l0-22.3
		c-0.6,0-1.1,0-1.6,0C128.2,88.6,128,88.6,127.8,88.6L127.8,88.6L127.8,88.6z"/>
	<path fill="#FFFFFF" d="M18.3,121.2c0,6.1,0,12.1,0,18.2c3.3,0,6.7,0,10,0c8.3,0,9.8-18.2-0.4-18.2
		C24.7,121.2,21.4,121.2,18.3,121.2z"/>
	<path fill="#FFFFFF" d="M18.3,121.3l0,18.1h10c3.1,0,5.2-2.5,6.2-5.6c0.4-1.2,0.6-2.5,0.6-3.7c0-1.3-0.2-2.5-0.5-3.7
		c-0.9-2.9-3-5.1-6.6-5.1c-2.3,0-4.6,0-6.9,0C20,121.3,19.1,121.3,18.3,121.3z M18.2,130l0-8.8h0c1,0,1.9,0,2.7,0c2.3,0,4.6,0,6.9,0
		c3.6,0,5.7,2.2,6.6,5.1c0.4,1.2,0.5,2.4,0.5,3.7c0,1.3-0.2,2.6-0.6,3.7c-1,3.2-3.1,5.7-6.2,5.7h-10L18.2,130z"/>
	<polygon fill="#FFFFFF" points="55.4,121.4 55.4,140.6 57.6,140.6 67.9,140.6 67.9,139.3 56.6,139.3 56.6,131.3 67.9,131.3 
		67.9,130.1 56.7,130.1 56.7,122.6 67.9,122.6 67.9,121.4 	"/>
	<path fill="#FFFFFF" d="M55.4,121.4v19.2h12.4v-1.2H56.6v-8.1h11.3v-1.2H56.6v-7.5h11.2v-1.2H55.4z M55.4,140.6v-19.2h12.5v1.2
		H56.7v7.4h11.2v1.2H56.6v8h11.3v1.3L55.4,140.6L55.4,140.6z"/>
	<path fill="#FFFFFF" d="M103.4,126.4c-6.4-9.3-15.9,1.9-9.7,10.7c3.4,3.4,8.7,2,9.7-3.1c0.6,0,1.5,0,2.1,0
		c-1.9,10.8-17.4,9.7-15.7-5.6c1.3-8.1,11.5-10.8,15.3-2.5C104.7,126,103.9,126.2,103.4,126.4z"/>
	<path fill="#FFFFFF" d="M103.4,126.4c-1.9-2.8-4.2-3.8-6.1-3.4c-0.9,0.1-1.8,0.6-2.6,1.2c-0.8,0.6-1.4,1.5-1.9,2.4
		c-1.5,2.8-1.6,6.9,1,10.5c0.9,0.9,2,1.5,3.1,1.7c0.9,0.2,1.8,0.1,2.6-0.1c0.8-0.2,1.6-0.7,2.3-1.4c0.8-0.8,1.4-1.9,1.7-3.4l0,0h0
		c0.3,0,0.7,0,1,0c0.4,0,0.8,0,1,0h0l0,0c-0.7,3.7-2.9,6-5.4,6.8c-1.1,0.4-2.3,0.5-3.5,0.3c-1.2-0.2-2.3-0.7-3.3-1.4
		c-2.5-1.9-4.2-5.6-3.5-11.3l0,0c0.4-2.4,1.5-4.3,3-5.6c1.2-1,2.5-1.6,4-1.9c1.4-0.2,2.9-0.1,4.3,0.6c1.6,0.8,3.1,2.2,4.1,4.4l0,0
		l0,0c-0.2,0.1-0.6,0.2-0.9,0.3C104,126.2,103.7,126.3,103.4,126.4L103.4,126.4L103.4,126.4z M97.2,122.9c2-0.3,4.2,0.6,6.2,3.5
		c0.2-0.1,0.6-0.2,0.9-0.2c0.3-0.1,0.6-0.2,0.9-0.2c-1-2.2-2.5-3.6-4-4.3c-1.4-0.6-2.8-0.8-4.3-0.6c-1.4,0.2-2.8,0.9-3.9,1.9
		c-1.5,1.3-2.6,3.2-3,5.5c-0.6,5.6,1,9.4,3.5,11.3c1,0.8,2.1,1.2,3.3,1.4c1.2,0.2,2.3,0.1,3.4-0.3c2.6-0.8,4.8-3.1,5.4-6.8
		c-0.3,0-0.7,0-1,0c-0.4,0-0.8,0-1,0c-0.3,1.4-0.9,2.6-1.7,3.4c-0.7,0.7-1.4,1.1-2.3,1.4c-0.8,0.2-1.7,0.3-2.6,0.1
		c-1.1-0.2-2.2-0.8-3.1-1.7l0,0c-2.6-3.7-2.5-7.7-1-10.6c0.5-1,1.2-1.8,1.9-2.4C95.4,123.5,96.3,123,97.2,122.9z"/>
	<path fill="#FFFFFF" d="M134.8,120.9c4.9,0,8.8,4.4,8.8,9.8c0,5.4-3.9,9.8-8.8,9.8s-8.8-4.4-8.8-9.8
		C126,125.3,130,120.9,134.8,120.9z"/>
	<path fill="#FFFFFF" d="M134.8,120.9c2.4,0,4.6,1.1,6.2,2.9c1.6,1.8,2.6,4.2,2.6,7c0,2.7-1,5.2-2.6,7c-1.6,1.8-3.8,2.9-6.2,2.9
		c-2.4,0-4.6-1.1-6.2-2.9s-2.6-4.2-2.6-7c0-2.7,1-5.2,2.6-7C130.2,122,132.4,120.9,134.8,120.9z M141,123.8
		c-1.6-1.8-3.8-2.9-6.2-2.9s-4.6,1.1-6.2,2.9c-1.6,1.8-2.6,4.2-2.6,6.9c0,2.7,1,5.2,2.6,6.9c1.6,1.8,3.8,2.9,6.2,2.9
		s4.6-1.1,6.2-2.9c1.6-1.8,2.6-4.2,2.6-6.9C143.6,128.1,142.6,125.6,141,123.8z"/>
	<path fill="#03070A" d="M134.8,122.9c3.9,0,7.1,3.5,7.1,7.9c0,4.3-3.2,7.9-7.1,7.9c-3.9,0-7.1-3.5-7.1-7.9
		C127.8,126.4,130.9,122.9,134.8,122.9z"/>
	<path fill="#FFFFFF" d="M134.8,122.9c2,0,3.7,0.9,5,2.3c1.3,1.4,2.1,3.4,2.1,5.6c0,2.2-0.8,4.2-2.1,5.6c-1.3,1.4-3.1,2.3-5,2.3
		s-3.7-0.9-5-2.3c-1.3-1.4-2.1-3.4-2.1-5.6c0-2.2,0.8-4.2,2.1-5.6C131.1,123.7,132.9,122.9,134.8,122.9z M139.8,125.2
		c-1.3-1.4-3-2.3-5-2.3s-3.7,0.9-5,2.3c-1.3,1.4-2.1,3.4-2.1,5.6s0.8,4.1,2.1,5.6c1.3,1.4,3,2.3,5,2.3s3.7-0.9,5-2.3
		c1.3-1.4,2.1-3.4,2.1-5.6S141.1,126.6,139.8,125.2z"/>
	<path fill="#FFFFFF" d="M165.1,121.3c3.4,0,6.4,0,9.8,0c5.6,0,7.7,8.6,0.1,10.6l5.9,8.7c-1.1,0-2.1,0-3.2,0
		c-1.7-2.5-3.5-5.4-5.2-7.9h-5.4v7.9h-2V121.3z"/>
	<path fill="#FFFFFF" d="M165.1,121.3h9.8c1.8,0,3.3,0.9,4.2,2.2c0.5,0.7,0.8,1.5,0.9,2.3c0.1,0.8,0,1.7-0.3,2.5
		c-0.6,1.6-2.1,2.9-4.6,3.6l5.9,8.7h-3.2l0,0c-0.8-1.2-1.7-2.6-2.6-3.9c-0.9-1.3-1.7-2.7-2.6-3.9h-5.3v7.9h-2.1L165.1,121.3
		L165.1,121.3z M174.9,121.3h-9.8v19.3h2v-7.9h5.4l0,0c0.8,1.2,1.7,2.6,2.6,3.9c0.9,1.3,1.7,2.7,2.6,3.9h3.1l-5.8-8.7l0,0
		c2.5-0.7,4-2.1,4.6-3.6c0.3-0.8,0.4-1.7,0.3-2.5c-0.1-0.8-0.4-1.6-0.9-2.3C178.2,122.2,176.7,121.3,174.9,121.3z"/>
	<path fill="#03070A" d="M167,123.2v6.2c2.8,0,4.2,0,7,0c3.9,0,4.1-6.2,0-6.2L167,123.2z"/>
	<path fill="#FFFFFF" d="M167.1,123.3v6.2h6.9c1.4,0,2.3-0.8,2.7-1.9c0.2-0.4,0.2-0.8,0.2-1.3c0-0.4-0.1-0.9-0.2-1.3
		c-0.4-1-1.3-1.8-2.8-1.8L167.1,123.3z M167,129.5v-6.3l6.9,0c1.5,0,2.4,0.8,2.8,1.8c0.2,0.4,0.2,0.8,0.2,1.3c0,0.4-0.1,0.9-0.2,1.3
		c-0.4,1.1-1.3,1.9-2.8,1.9L167,129.5L167,129.5z"/>
	<path fill="#03070A" d="M24.8,88.8v7.8c2.3,0,4.6,0,7,0c1.4,0,1.9-0.7,2-1.8c0-1.7,0-3.4,0-5.1c0-0.8-0.2-1.1-1-1.1h-7.9V88.8z"/>
	<path fill="#FFFFFF" d="M24.8,88.8v7.8h6.9c0.7,0,1.2-0.2,1.5-0.5c0.3-0.3,0.5-0.7,0.5-1.3v-5.1c0-0.4-0.1-0.7-0.2-0.8
		c-0.1-0.2-0.4-0.2-0.8-0.3h-7.9V88.8z M24.8,96.6v-8c2.5,0,5.5-0.1,8,0c0.4,0,0.7,0.1,0.8,0.3c0.1,0.2,0.2,0.4,0.2,0.9
		c0.1,0.9,0.1,4.1,0,5.1c0,0.5-0.2,1-0.5,1.3c-0.3,0.3-0.8,0.5-1.5,0.5L24.8,96.6L24.8,96.6z"/>
	<polygon fill="#FFFFFF" points="150.1,80.5 150.1,88.6 152.4,88.6 152.4,106.7 150.2,106.7 150.2,114.7 158.1,114.7 158.1,106.8 
		155,106.8 155,87.1 164.2,114.9 172.3,87.4 172.3,106.8 169.4,106.8 169.4,114.5 178.5,114.5 178.5,106.8 175,106.8 175,88.6 
		178.4,88.6 178.4,80.5 170.5,80.5 170.5,85.1 164.3,105.7 164.3,105.5 157.2,85.3 157.2,80.5 	"/>
	<path fill="#FFFFFF" d="M150.1,80.6v8h2.3c0,6,0,12.1,0,18.1h-2.2v7.9h7.8v-7.9h-3V86.9l9.1,28l8.2-27.6v19.5h-3v7.7h9.1v-7.7H175
		V88.6h3.4v-8h-7.9v4.6c-2.1,6.9-4.2,13.8-6.3,20.7v-0.4l-7.1-20.2l0-4.7H150.1z M150.1,88.6v-8.1c2.4,0,4.8,0,7.2,0l0,4.8l7.1,20.2
		v0.1l6.2-20.4v-4.6h8v8.1H175v18.1h3.5v7.8h-9.2v-7.8h3V87.6l-8.2,27.5l-9.1-27.8v19.5h3v8h-7.9v-8h2.2v-18L150.1,88.6L150.1,88.6z
		"/>
	<path fill="#FFFFFF" d="M186.8,73.9c-0.5,0-1,0-1.5,0c0,1.8,0.4,3.1,2.6,2.6c0.8-0.2,1.7-1,2-1.8c0.4-1.3,0.2-2.2-0.1-2.9
		c-0.3-0.6-0.9-1.2-1.9-1.5c-1.3-0.4-3.1,0-4.3,1.1c-1.2,1.3-1.5,1.6-1.7,3.6c0.1,3.3,2.7,4.8,5.1,4.9c4.4,0,6.6-3.1,6.7-6.9
		c-0.1-2.3-0.9-3.4-1.8-4.4c-0.9-0.9-2.2-1.6-4.4-1.8c-5.2,0.1-6.2,2.1-9.2,5.9H86.5v2h93.1c0.8,0,1.2-1.1,1.8-2.5
		c0.6-1.1,1.2-2,2.2-2.6c1.4-0.9,2.8-1,4.3-0.8c1.4,0.3,2,0.7,2.6,1.2c0.5,0.4,0.9,1,1.1,2.1c0.2,1.5,0.1,2.6-0.3,3.5
		c-0.4,0.9-1.1,1.6-2.5,2.3c-2.5,0.9-5.1,0.1-5.6-2.7c-0.3-2.3,2.2-5,4.8-3.5c1.3,0.9,1.3,2.8-0.1,3.5
		C187.1,75.4,186.8,75.2,186.8,73.9z"/>
	<path fill="#FFFFFF" d="M186.8,73.9h-1.5c0,0.9,0.1,1.6,0.5,2.1c0.4,0.5,1,0.7,2.1,0.5c0.4-0.1,0.8-0.3,1.2-0.6
		c0.4-0.3,0.7-0.7,0.8-1.2c0.2-0.7,0.2-1.2,0.2-1.7c0-0.5-0.2-0.8-0.3-1.2c-0.2-0.3-0.4-0.6-0.7-0.9c-0.3-0.3-0.7-0.5-1.2-0.6
		c-0.7-0.2-1.5-0.2-2.3,0c-0.7,0.2-1.4,0.5-2,1.1c-0.6,0.6-1,1-1.2,1.5c-0.2,0.5-0.4,1.1-0.4,2.1c0.1,1.5,0.6,2.6,1.4,3.4
		c1,0.9,2.3,1.4,3.6,1.4c2.1,0,3.7-0.7,4.8-1.9c1.2-1.3,1.8-3.1,1.9-5c-0.1-1.2-0.3-2-0.6-2.7c-0.3-0.7-0.7-1.2-1.2-1.6
		c-0.4-0.4-1-0.8-1.7-1.1c-0.7-0.3-1.6-0.6-2.7-0.7c-4.6,0-5.9,1.7-8.3,4.7c-0.3,0.4-0.6,0.8-1,1.2l0,0H86.6v1.9h93
		c0.7,0,1.2-1.1,1.8-2.4l0-0.1c0.3-0.5,0.6-1.1,0.9-1.5c0.4-0.4,0.8-0.8,1.2-1.1c0.7-0.4,1.4-0.7,2.1-0.8c0.7-0.1,1.4-0.1,2.2,0h0
		c0.7,0.2,1.2,0.3,1.6,0.5c0.4,0.2,0.7,0.4,1,0.7c0.2,0.2,0.5,0.5,0.7,0.8c0.2,0.3,0.4,0.7,0.5,1.3v0c0.1,0.8,0.1,1.4,0.1,2
		c-0.1,0.6-0.2,1.1-0.4,1.5c-0.2,0.5-0.5,0.9-0.9,1.2c-0.4,0.4-0.9,0.7-1.6,1.1l0,0c-0.3,0.1-0.7,0.2-1,0.3c-1,0.2-1.9,0.1-2.7-0.3
		c-0.8-0.4-1.4-1-1.7-2c-0.1-0.2-0.1-0.5-0.2-0.7v0c-0.1-0.7,0.1-1.5,0.5-2.2c0.3-0.5,0.6-0.9,1-1.2c0.4-0.3,0.9-0.5,1.4-0.6
		c0.6-0.1,1.2,0,1.8,0.4l0,0c0.3,0.2,0.5,0.5,0.7,0.8c0.2,0.4,0.3,0.7,0.3,1.1c0,0.4-0.1,0.8-0.4,1.1c-0.2,0.2-0.4,0.4-0.7,0.6l0,0
		c-0.4,0.1-0.6,0.2-0.8,0C186.9,75,186.8,74.6,186.8,73.9z M185.3,73.8h1.6v0c0,0.7,0.1,1.1,0.2,1.2c0.2,0.2,0.4,0.2,0.8,0
		c0.3-0.2,0.5-0.4,0.7-0.6c0.2-0.3,0.3-0.7,0.4-1.1c0-0.4-0.1-0.8-0.3-1.1c-0.2-0.3-0.4-0.5-0.7-0.7c-0.6-0.4-1.2-0.5-1.8-0.4
		c-0.5,0.1-1,0.3-1.4,0.6c-0.4,0.3-0.8,0.7-1,1.2c-0.4,0.7-0.6,1.4-0.5,2.2c0,0.3,0.1,0.5,0.2,0.7c0.3,1,0.9,1.6,1.7,2
		c0.8,0.4,1.7,0.5,2.7,0.3c0.3-0.1,0.7-0.1,1-0.3c0.7-0.4,1.2-0.7,1.6-1.1c0.4-0.4,0.7-0.8,0.9-1.2c0.2-0.4,0.3-0.9,0.4-1.5
		c0.1-0.6,0-1.2-0.1-2c-0.1-0.6-0.3-1-0.5-1.3c-0.2-0.3-0.4-0.6-0.7-0.8c-0.3-0.3-0.6-0.5-1-0.7c-0.4-0.2-0.9-0.4-1.6-0.5
		c-0.7-0.1-1.4-0.1-2.2,0c-0.7,0.1-1.4,0.4-2.1,0.8c-0.5,0.3-0.9,0.7-1.2,1.1c-0.3,0.4-0.6,1-0.9,1.5l0,0.1c-0.6,1.3-1,2.4-1.8,2.4
		H86.5v-2h91.6c0.3-0.4,0.7-0.8,1-1.2c2.4-3,3.7-4.7,8.3-4.7l0,0c1.1,0.1,2,0.3,2.7,0.7c0.7,0.3,1.3,0.7,1.7,1.2
		c0.5,0.5,0.9,1,1.2,1.7c0.3,0.7,0.5,1.5,0.6,2.7v0c0,2-0.6,3.8-1.9,5.1c-1.1,1.2-2.7,1.9-4.8,1.9h0c-1.3,0-2.7-0.5-3.6-1.4
		c-0.8-0.8-1.4-1.9-1.5-3.4v0c0.1-1,0.2-1.6,0.4-2.1c0.2-0.5,0.6-0.9,1.2-1.5l0,0c0.6-0.6,1.3-0.9,2-1.1c0.8-0.2,1.6-0.2,2.3,0h0
		c0.5,0.2,0.9,0.4,1.2,0.7c0.3,0.3,0.5,0.6,0.7,0.9c0.2,0.4,0.3,0.7,0.3,1.2c0,0.5,0,1-0.2,1.7l0,0c-0.2,0.4-0.5,0.9-0.9,1.2
		c-0.4,0.3-0.8,0.6-1.2,0.6c-1.1,0.2-1.7,0-2.1-0.5C185.3,75.5,185.2,74.8,185.3,73.8L185.3,73.8L185.3,73.8z"/>
	<path fill="#03070A" d="M19.8,123.1l0,14.6c2.7,0,5.6,0,8.3,0c6.1,0,7.1-14.6,0-14.6L19.8,123.1z"/>
	<path fill="#FFFFFF" d="M19.9,123.1l0,14.5h8.3c2.3,0,3.8-2,4.5-4.6c0.3-1,0.4-2,0.4-3c0-1-0.1-2-0.4-3c-0.6-2.3-2.1-4-4.6-4
		L19.9,123.1z M19.8,137.7l0-14.6l8.3,0c2.5,0,4,1.8,4.6,4c0.3,0.9,0.4,1.9,0.4,3c0,1-0.1,2.1-0.4,3c-0.7,2.6-2.3,4.6-4.6,4.6
		L19.8,137.7L19.8,137.7z"/>
</g>
</svg>
