<?xml version="1.0" encoding="utf-8"?>
<!-- Generator: Adobe Illustrator 19.2.1, SVG Export Plug-In . SVG Version: 6.00 Build 0)  -->
<svg version="1.1" id="Layer_1" xmlns="http://www.w3.org/2000/svg" xmlns:xlink="http://www.w3.org/1999/xlink" x="0px" y="0px"
	 viewBox="0 0 200 200" style="enable-background:new 0 0 200 200;" xml:space="preserve">
<style type="text/css">
	.st0{fill:#FFFFFF;}
	.st1{fill:#FEFEFE;}
</style>
<g id="Layer_x0020_1">
	<path class="st0" d="M25.9,74.6c0,4.6,0,9.3,0,13.9c-4.6,0-9.1,0-13.7,0c-5.4,0.5-8.8,6-10.6,13c-1.2,7.3-0.6,9.7,1.9,16.6
		c1.6,3.4,4.4,6.8,8.3,6.9c5.7,0,11.3,0,17,0c4.5,0,7.2-0.4,8-3.7c0-15.5,0-31,0-46.6C33.2,74.7,29.6,74.7,25.9,74.6z M25.8,117.5
		c-2.9,0-5.8,0-8.8,0c-4.9-1-5.1-6.9-5.1-12.6c0.4-4.8,1.6-8.4,5.5-8.8c2.8,0,5.6,0,8.4,0C25.8,103.2,25.8,110.4,25.8,117.5z"/>
	<polygon class="st0" points="41.1,101.9 52.8,101.9 52.8,107.7 41.1,107.7 	"/>
	<path class="st0" d="M82.8,98.3c1.1-2.3,2.3-4.5,3.4-6.8c-4.7-4.2-8.8-3.8-14.6-3.6c-9.1,1.6-15.2,8.5-15.5,19.1
		c0.1,11.7,8.8,19.4,16.9,19.5c4.7,0.1,9.4-1.6,14.3-5.9c-1.6-1.9-3.1-3.7-4.7-5.6c-3.7,3.7-7.4,4.4-11.8,1.9
		c-6-4.1-6.6-10.5-3.6-16.3C70.4,95.5,76.2,94,82.8,98.3z"/>
	<polygon class="st0" points="89.5,102 101,102 101,107.7 89.4,107.7 	"/>
	<path class="st0" d="M108.5,125c0-9.6,0-19.2,0-28.8c-1.9,0-3.8,0-5.8,0c0-1.9,0-3.6,0-5.5c1.3,0,5,0,6.3,0
		c0.3-7-0.8-11.8,4.9-15.2c5.2-2.7,9.9-2.3,15.9,1.5c-0.9,1.9-1.9,3.9-2.8,5.8c-0.9-0.4-2-0.9-3-1c-6.8-1-6,3.6-6,8.9
		c3.2,0,6.4,0,9.7,0c0,1.8,0,3.6,0,5.4c-3.2,0-6.4,0-9.7,0c0,9.7,0,19.3,0,29C115,125.1,111.8,125,108.5,125z"/>
	<path class="st0" d="M140,73.5c3.1,0,5.6,2.4,5.6,5.5c0,3-2.5,5.5-5.6,5.5s-5.6-2.4-5.6-5.5C134.4,75.9,136.9,73.5,140,73.5z"/>
	<polygon class="st0" points="135.4,88.4 145.1,88.4 145.1,125.1 135.5,125.1 	"/>
	<polygon class="st0" points="152.5,88.7 164.6,105.9 151.4,124.9 162.7,124.9 169.5,114.2 175.9,125 187.6,125 174.9,105.9 
		187.2,88.6 176,88.6 170,98 163,88.5 	"/>
	<path class="st0" d="M194.6,89.4c-2.4,0-4.4,2-4.4,4.4c0,2.4,2,4.4,4.4,4.4c2.4,0,4.4-2,4.4-4.4C199.1,91.4,197.1,89.4,194.6,89.4z
		 M194.6,97.6c-2.1,0-3.8-1.7-3.8-3.8c0-2.1,1.7-3.8,3.8-3.8c2.1,0,3.8,1.7,3.8,3.8C198.4,95.9,196.7,97.6,194.6,97.6z"/>
	<path class="st1" d="M192.9,96.2v-5h2.2c0.4,0,0.8,0,1,0.1c0.2,0.1,0.4,0.2,0.6,0.5c0.1,0.2,0.2,0.5,0.2,0.7c0,0.4-0.1,0.7-0.3,0.9
		c-0.2,0.2-0.6,0.4-1.1,0.5c0.2,0.1,0.3,0.2,0.4,0.2c0.2,0.2,0.4,0.4,0.5,0.7l0.9,1.4h-0.8l-0.7-1c-0.2-0.3-0.4-0.5-0.5-0.7
		c-0.1-0.2-0.2-0.3-0.3-0.3c-0.1-0.1-0.2-0.1-0.3-0.1c-0.1,0-0.2,0-0.4,0h-0.8v2.2H192.9z M193.6,93.5h1.4c0.3,0,0.5,0,0.7-0.1
		c0.2-0.1,0.3-0.2,0.4-0.3c0.1-0.1,0.1-0.3,0.1-0.4c0-0.2-0.1-0.4-0.3-0.6c-0.2-0.2-0.4-0.2-0.8-0.2h-1.6V93.5z"/>
</g>
</svg>
