<?xml version="1.0" encoding="utf-8"?>
<!-- Generator: Adobe Illustrator 18.0.0, SVG Export Plug-In . SVG Version: 6.00 Build 0)  -->
<!DOCTYPE svg PUBLIC "-//W3C//DTD SVG 1.1//EN" "http://www.w3.org/Graphics/SVG/1.1/DTD/svg11.dtd">
<svg version="1.1" id="Layer_1" xmlns="http://www.w3.org/2000/svg" xmlns:xlink="http://www.w3.org/1999/xlink" x="0px" y="0px"
	 viewBox="0 0 200 200" enable-background="new 0 0 200 200" xml:space="preserve">
<g id="Layer_x0020_1">
	<path fill="#E30613" d="M0,68.3c54.2,0,108.4,0,162.5,0c-7.5,13.6-28.7,57.3-41.1,63.5c-40.5,0-81,0-121.4,0C0,110.6,0,89.4,0,68.3
		z"/>
	<path fill="#E30613" d="M0,68.2h162.6l0,0c-1.2,2.2-2.8,5.2-4.7,8.8c-9.5,18.1-26,49.5-36.4,54.7l0,0H0L0,68.2L0,68.2z M162.5,68.3
		H0.1v63.4h121.4c10.4-5.2,26.9-36.6,36.4-54.7C159.7,73.5,161.3,70.5,162.5,68.3z"/>
	
		<linearGradient id="SVGID_1_" gradientUnits="userSpaceOnUse" x1="11634.6484" y1="-5755.7295" x2="14399.0205" y2="-10640.499" gradientTransform="matrix(1.201374e-002 0 0 -1.201374e-002 0.9901 3.4148)">
		<stop  offset="0" style="stop-color:#FFFFFF"/>
		<stop  offset="0.3176" style="stop-color:#E3E3E3"/>
		<stop  offset="0.3804" style="stop-color:#FFFFFF"/>
		<stop  offset="0.5804" style="stop-color:#C7C6C6"/>
		<stop  offset="1" style="stop-color:#C7C6C6"/>
	</linearGradient>
	<path fill="url(#SVGID_1_)" d="M162.6,68.3c12.2,6.3,24.2,11.9,37.4,15.7c-18,11.5-64.2,44.6-78.5,47.8c1-0.5,2.1-1.2,2.9-2
		c4-3.6,6.9-7.4,9.6-11.2c3.5-4.9,6.6-10.1,10.3-16.4c2.7-4.8,5.4-9.7,8-14.5C155.8,81.2,159,74.7,162.6,68.3z"/>
	<path fill="#FFFFFF" d="M31,82.2c0,2.8,0,5.8,0,7.8c-3,0-5.4,0-8.1,0c-3.2,1-5.3,3.8-6.3,8c-0.7,4.4-0.4,5.8,1.1,9.9
		c0.9,2,2.6,4.1,4.9,4.1c3.4,0,6.7,0,10.1,0c2.7,0,4.2,0,5.2-2c0-9.3,0-18.5,0-27.8C35,82.2,33,82.2,31,82.2z M31,108
		c-1.7,0-3.5,0-5.2,0c-2.9-1-3-4.3-3.1-7.7c0.2-2.9,0.9-5.3,3.3-5.3c1.7,0,3.4,0,5,0C31,99,31,103,31,108z"/>
	<path fill="#FFFFFF" d="M37.6,82.3V110v0c-0.3,1-0.8,1.5-1.6,1.9c-0.8,0.3-1.9,0.4-3.2,0.4H22.7c-1.1,0-2-0.5-2.8-1.1
		c-0.9-0.8-1.7-1.9-2.2-3l0,0c-0.7-2-1.2-3.4-1.4-4.8c-0.2-1.4-0.1-2.9,0.3-5v0c0.5-2.2,1.4-4.2,2.5-5.6c1-1.3,2.3-2.1,3.8-2.2H31
		v-8.3C33.2,82.2,35.4,82.2,37.6,82.3L37.6,82.3z M37.5,110V82.3l-6.5-0.1v8.3h-8.2c-1.5,0.1-2.8,0.9-3.8,2.2
		c-1.1,1.4-2,3.4-2.5,5.6c-0.3,2.2-0.4,3.6-0.3,5s0.6,2.8,1.4,4.8c0.5,1.1,1.3,2.2,2.2,3c0.8,0.6,1.7,1.1,2.7,1.1h10.1
		c1.3,0,2.4-0.1,3.2-0.4C36.8,111.5,37.3,111,37.5,110z M31,95c0,4.3,0,8.5,0,12.8c-1,0-4.5,0.1-5.2,0c-1.5-0.3-2.2-1.3-2.6-2.7
		c-0.4-1.4-0.4-3.1-0.5-4.8v0c0.1-1.4,0.3-2.7,0.8-3.6c0.5-0.9,1.3-1.5,2.5-1.6C27.4,94.8,29.6,95,31,95L31,95z M31,101.4l0-6.3h-5
		c-1.2,0.1-1.9,0.7-2.4,1.6c-0.5,0.9-0.7,2.2-0.8,3.6c0,1.7,0.1,3.4,0.5,4.8c0.4,1.4,1.2,2.4,2.6,2.7H31L31,101.4z"/>
	<polygon fill="#FFFFFF" points="40.1,98.4 47.1,98.4 47.1,101.9 40.1,101.9 	"/>
	<path fill="#FFFFFF" d="M40.1,98.4h7v3.5h-7L40.1,98.4L40.1,98.4z M47,98.5h-6.9v3.4H47V98.5z"/>
	<path fill="#FFFFFF" d="M65,96.3c0.7-1.3,1.4-2.7,2-4c-2.8-2.5-5.2-2.3-8.7-2.2c-5.4,1-9.1,5.1-9.3,11.4c0.1,7,5.3,11.5,10.1,11.6
		c2.8,0.1,5.6-1,8.6-3.5c-0.9-1.1-1.9-2.2-2.8-3.3c-2.2,2.2-4.4,2.6-7,1.1c-3.6-2.4-3.9-6.3-2.1-9.7C57.6,94.6,61,93.7,65,96.3z"/>
	<path fill="#FFFFFF" d="M65,96.3l2-4c-2.7-2.4-5-2.3-8.2-2.2c-0.2,0-0.3,0-0.5,0c-2.8,0.5-5.1,1.8-6.7,3.8
		c-1.6,1.9-2.5,4.5-2.6,7.6c0,3.3,1.2,6,2.9,8c1.9,2.2,4.6,3.5,7.1,3.6c1.4,0,2.8-0.2,4.2-0.8c1.4-0.6,2.8-1.4,4.3-2.7l-2.8-3.3
		c-1.1,1.1-2.2,1.7-3.4,1.9c-1.2,0.2-2.4-0.1-3.7-0.8l0,0c-1.7-1.2-2.7-2.7-3-4.3c-0.4-1.8,0-3.7,0.9-5.5l0,0c0-0.1,0.1-0.1,0.1-0.2
		c0.9-1.4,2.2-2.4,3.7-2.6c1.5-0.3,3.3,0.1,5.2,1.2C64.8,96.1,64.9,96.2,65,96.3z M66,94.2L65,96.3l0,0c-0.1-0.1-0.2-0.1-0.3-0.2
		c-1.9-1.1-3.6-1.5-5.1-1.2c-1.5,0.3-2.8,1.2-3.7,2.6c0,0.1-0.1,0.1-0.1,0.2c-0.9,1.8-1.3,3.7-0.9,5.4c0.4,1.6,1.3,3.1,3,4.2
		c1.3,0.7,2.5,1,3.7,0.8c1.2-0.2,2.3-0.9,3.4-1.9l0,0c0.9,1.1,1.9,2.3,2.8,3.4l0,0c-1.5,1.3-2.9,2.2-4.3,2.7
		c-1.4,0.6-2.8,0.8-4.2,0.8c-2.5,0-5.2-1.3-7.1-3.6c-1.7-2-2.9-4.8-2.9-8.1l0,0c0.1-3.1,1-5.7,2.6-7.6c1.6-2,3.9-3.3,6.7-3.8l0,0
		c0.2,0,0.3,0,0.5,0c3.2-0.1,5.5-0.2,8.2,2.2l0,0L66,94.2z"/>
	<polygon fill="#FFFFFF" points="68.9,98.5 75.8,98.5 75.8,101.9 68.9,101.9 	"/>
	<path fill="#FFFFFF" d="M68.9,98.5h6.9v3.4h-6.9C68.9,100.8,68.9,99.6,68.9,98.5L68.9,98.5z M75.8,98.5H69l0,3.3h6.8V98.5z"/>
	<path fill="#FFFFFF" d="M80.3,112.2c0-5.7,0-11.4,0-17.2c-1.1,0-2.3,0-3.4,0c0-1.1,0-2.2,0-3.3c0.8,0,3,0,3.8,0
		c0.2-4.2-0.5-7,2.9-9c3.1-1.6,5.9-1.4,9.5,0.9c-0.6,1.1-1.1,2.3-1.7,3.4c-0.5-0.3-1.2-0.6-1.8-0.6c-4.1-0.6-3.5,2.2-3.5,5.3
		c1.9,0,3.8,0,5.8,0c0,1.1,0,2.2,0,3.2c-1.9,0-3.8,0-5.8,0c0,5.8,0,11.5,0,17.3C84.1,112.2,82.2,112.2,80.3,112.2z"/>
	<path fill="#FFFFFF" d="M80.3,112.2V95.1h-3.4v-3.3h0c0.3,0,1.1,0,1.9,0c0.7,0,1.4,0,1.9,0c0-0.7,0-1.4,0.1-2c0-3.1,0.1-5.4,2.9-7
		l0,0c1.5-0.8,3-1.2,4.6-1c1.5,0.1,3.1,0.8,4.9,1.9l0,0c-0.6,1.2-1.1,2.3-1.7,3.5l-0.1,0c-0.5-0.2-1.1-0.5-1.7-0.6l0,0
		c-2.5-0.4-3.3,0.6-3.5,2.1c-0.1,0.7-0.1,1.4-0.1,2.3c0,0.3,0,0.6,0,0.9h5.8V95h-5.8v17.3C84.1,112.3,82.2,112.3,80.3,112.2
		L80.3,112.2z M80.3,95.1v17.1l5.7,0.1V95h5.8v-3.2H86v0c0-0.3,0-0.6,0-0.9c0-0.8,0-1.6,0.1-2.3c0.2-1.5,1-2.5,3.5-2.1
		c0.6,0.1,1.2,0.3,1.7,0.6l0.1,0l1.6-3.4c-1.8-1.1-3.4-1.8-4.9-1.9c-1.5-0.1-3,0.2-4.5,1c-2.8,1.6-2.8,3.9-2.9,7c0,0.6,0,1.3-0.1,2
		l0,0h0c-0.3,0-1.1,0-1.9,0c-0.7,0-1.4,0-1.9,0V95L80.3,95.1L80.3,95.1z"/>
	<path fill="#FFFFFF" d="M99.1,81.5c1.8,0,3.3,1.5,3.3,3.3c0,1.8-1.5,3.3-3.3,3.3c-1.8,0-3.3-1.5-3.3-3.3
		C95.7,83,97.2,81.5,99.1,81.5z"/>
	<path fill="#FFFFFF" d="M99.1,81.5c0.9,0,1.8,0.4,2.4,1c0.6,0.6,1,1.4,1,2.3c0,0.9-0.4,1.7-1,2.3c-0.6,0.6-1.4,1-2.4,1
		c-0.9,0-1.8-0.4-2.4-1c-0.6-0.6-1-1.4-1-2.3c0-0.9,0.4-1.7,1-2.3C97.3,81.8,98.1,81.5,99.1,81.5z M101.4,82.5
		c-0.6-0.6-1.4-0.9-2.3-0.9c-0.9,0-1.7,0.4-2.3,0.9c-0.6,0.6-1,1.4-1,2.3c0,0.9,0.4,1.7,1,2.3c0.6,0.6,1.4,0.9,2.3,0.9
		c0.9,0,1.7-0.4,2.3-0.9c0.6-0.6,1-1.4,1-2.3C102.4,83.9,102,83.1,101.4,82.5z"/>
	<polygon fill="#FFFFFF" points="96.3,90.4 102.1,90.4 102.1,112.3 96.4,112.3 	"/>
	<path fill="#FFFFFF" d="M96.3,90.3h5.8v21.9h-5.8C96.3,105,96.3,97.7,96.3,90.3L96.3,90.3z M102.1,90.4h-5.7l0.1,21.8h5.6V90.4z"/>
	<polygon fill="#FFFFFF" points="106.5,90.6 113.7,100.8 105.8,112.2 112.6,112.2 116.7,105.8 120.4,112.2 127.4,112.2 119.8,100.8 
		127.2,90.5 120.5,90.5 116.9,96.1 112.8,90.5 	"/>
	<path fill="#FEFEFE" d="M106.5,90.6l7.2,10.2l-7.8,11.3h6.7l4.1-6.4l3.8,6.5h6.9l-7.6-11.4l7.3-10.2h-6.6l-3.6,5.6l-4.2-5.7
		L106.5,90.6z M113.7,100.8l-7.2-10.2c2.1,0,4.2-0.1,6.4-0.1l4.1,5.6l3.6-5.6h6.7l-7.4,10.3l7.6,11.4h-7.1l-3.8-6.4l-4.1,6.4
		c-2.3,0-4.5,0-6.8,0L113.7,100.8z"/>
	<path fill="#E30613" d="M131.6,91c-1.5,0-2.6,1.2-2.6,2.6c0,1.4,1.2,2.6,2.6,2.6c1.5,0,2.6-1.2,2.6-2.6
		C134.2,92.2,133.1,91,131.6,91z M131.6,91.4c-1.2,0-2.3,1-2.3,2.2c0,1.2,1,2.2,2.3,2.2c1.2,0,2.3-1,2.3-2.2
		C133.9,92.4,132.9,91.4,131.6,91.4z"/>
	<path fill="#FFFFFF" d="M131.6,91c-0.7,0-1.4,0.3-1.9,0.8c-0.5,0.5-0.8,1.1-0.8,1.8c0,0.7,0.3,1.4,0.8,1.8c0.5,0.5,1.1,0.8,1.9,0.8
		c0.7,0,1.4-0.3,1.9-0.8c0.5-0.5,0.8-1.1,0.8-1.8c0-0.7-0.3-1.4-0.8-1.8C133,91.3,132.3,91,131.6,91z M129.7,91.8
		c0.5-0.5,1.1-0.8,1.9-0.8s1.4,0.3,1.9,0.8c0.5,0.5,0.8,1.1,0.8,1.9c0,0.7-0.3,1.4-0.8,1.9c-0.5,0.5-1.1,0.8-1.9,0.8
		s-1.4-0.3-1.9-0.8c-0.5-0.5-0.8-1.1-0.8-1.9C129,92.9,129.3,92.2,129.7,91.8z M131.6,91.4c-0.6,0-1.2,0.2-1.6,0.7
		c-0.4,0.4-0.7,1-0.7,1.6c0,0.6,0.3,1.2,0.7,1.6c0.4,0.4,1,0.7,1.6,0.7c0.6,0,1.2-0.2,1.6-0.7c0.4-0.4,0.7-1,0.7-1.6
		c0-0.6-0.3-1.2-0.7-1.6C132.8,91.7,132.2,91.4,131.6,91.4z M130,92c0.4-0.4,1-0.7,1.6-0.7c0.6,0,1.2,0.3,1.6,0.7
		c0.4,0.4,0.7,1,0.7,1.6s-0.3,1.2-0.7,1.6c-0.4,0.4-1,0.7-1.6,0.7c-0.6,0-1.2-0.3-1.6-0.7c-0.4-0.4-0.7-1-0.7-1.6S129.6,92.4,130,92
		z"/>
	<path fill="#FEFEFE" d="M130.6,95.1v-3h1.3c0.3,0,0.5,0,0.6,0.1c0.1,0.1,0.2,0.1,0.3,0.3s0.1,0.3,0.1,0.4c0,0.2-0.1,0.4-0.2,0.5
		c-0.1,0.1-0.3,0.2-0.6,0.3c0.1,0,0.2,0.1,0.2,0.1c0.1,0.1,0.2,0.2,0.3,0.4l0.5,0.8h-0.5l-0.4-0.6c-0.1-0.2-0.2-0.3-0.3-0.4
		c-0.1-0.1-0.1-0.2-0.2-0.2c-0.1,0-0.1-0.1-0.2-0.1c0,0-0.1,0-0.2,0H131v1.3H130.6z M131,93.4h0.8c0.2,0,0.3,0,0.4-0.1
		c0.1,0,0.2-0.1,0.2-0.2c0.1-0.1,0.1-0.2,0.1-0.3c0-0.1-0.1-0.3-0.2-0.3c-0.1-0.1-0.3-0.1-0.5-0.1H131V93.4z"/>
</g>
</svg>
