<?xml version="1.0" encoding="utf-8"?>
<!-- Generator: Adobe Illustrator 18.0.0, SVG Export Plug-In . SVG Version: 6.00 Build 0)  -->
<!DOCTYPE svg PUBLIC "-//W3C//DTD SVG 1.1//EN" "http://www.w3.org/Graphics/SVG/1.1/DTD/svg11.dtd">
<svg version="1.1" id="Layer_1" xmlns="http://www.w3.org/2000/svg" xmlns:xlink="http://www.w3.org/1999/xlink" x="0px" y="0px"
	 viewBox="0 0 200 200" enable-background="new 0 0 200 200" xml:space="preserve">
<g id="Layer_x0020_1">
	
		<linearGradient id="SVGID_1_" gradientUnits="userSpaceOnUse" x1="1797.8195" y1="-9840.2236" x2="4467.9971" y2="-4004.011" gradientTransform="matrix(1.357400e-002 0 0 -1.357400e-002 0.9864 3.7307)">
		<stop  offset="0" style="stop-color:#9DD222"/>
		<stop  offset="0.2431" style="stop-color:#9DD222"/>
		<stop  offset="0.3098" style="stop-color:#9DD222"/>
		<stop  offset="0.5686" style="stop-color:#FEFEFE"/>
		<stop  offset="0.5804" style="stop-color:#9DD222"/>
		<stop  offset="1" style="stop-color:#9DD323"/>
	</linearGradient>
	<path fill="url(#SVGID_1_)" d="M24.1,119.7c1.5-16.4,3-32.3,4.5-48.6c-0.6,0-1.3,0-1.9,0c1-11.9,3.6-16.7,16.9-15.9
		c10.1,1.2,20.2,2.3,30.3,3.5c5.9,1.9,10.4,4.9,13.1,10.6c1.5,3.6,2.4,7.2,2.5,11.1c0,2,0,3.9,0,5.9c-0.1,4.2-0.3,7.6-0.9,11.8
		c-2.3,12.2-6.5,18.2-16.7,24.9c-2.2,1.3-4.7,2.2-7,3.2c-2.8,0-5.7,0-8.5,0c-2.2,0.2-2.5,1.5-2.4,4.8c-0.7,0.3-1.4,0.6-2.1,0.9
		c-1,0.4-2,0.9-3,1.3c-1.9,0.8-3.7,1.6-5.6,2.4c-2.3,1-4.5,2-6.8,2.9c-1.4,0.6-2.8,1.2-4.2,1.8c-5.2,1.8-13.3,3.5-13.8-2.9
		c0.6-5.9,1.2-11.8,1.9-17.7C13.9,109.2,7.5,98.6,1,88c0.6,0,1.2,0,1.7,0C9.9,98.6,17,109.1,24.1,119.7
		C24.1,119.7,24.1,119.5,24.1,119.7z"/>
	<path fill="#9CC428" d="M24.1,119.6l4.5-48.5l-1.9,0l0,0c0.5-6,1.4-10.2,3.9-12.7c2.5-2.6,6.4-3.6,13.1-3.2
		c5.2,0.4,26.8,2.3,30.3,3.5c3,1,5.6,2.2,7.8,3.9c2.2,1.7,4,3.9,5.4,6.7h0c0.8,1.8,1.4,3.6,1.8,5.4c0.4,1.8,0.7,3.7,0.7,5.7
		c0,2,0,3.9,0,5.9c-0.1,2.1-0.1,4-0.3,5.9C89.1,94,89,95.9,88.7,98v0c-1.2,6.1-2.8,10.7-5.4,14.5c-2.6,3.9-6.2,7-11.3,10.4l0,0
		c-1.5,0.9-3.2,1.6-4.9,2.3c-0.7,0.3-1.4,0.6-2.1,0.9l0,0h-8.5c-1.1,0.1-1.7,0.5-2,1.2c-0.3,0.8-0.4,1.9-0.3,3.5l0,0l-2.1,0.9
		c-2.9,1.3-5.7,2.5-8.6,3.8l-6.8,2.9l-4.2,1.8c-2,0.7-4.5,1.4-6.8,1.6c-1.5,0.1-3,0-4.2-0.4c-1.2-0.5-2.1-1.3-2.6-2.6
		c-0.2-0.4-0.3-0.9-0.3-1.5c-0.2-2.6,1.5-14.1,1.9-17.6L1,87.9l1.8,0L24.1,119.6z M28.6,71l-4.5,48.7L2.7,88.1l-1.6,0l19.3,31.7
		l-1.9,17.7c0,0.5,0.1,1,0.3,1.5c0.5,1.3,1.4,2.1,2.5,2.6c1.2,0.5,2.6,0.5,4.2,0.4c2.3-0.2,4.8-0.9,6.8-1.6l4.2-1.8l6.8-2.9L49,133
		l3-1.3l2-0.9c-0.1-1.6,0-2.8,0.3-3.6c0.3-0.8,1-1.1,2.1-1.2c2.4-0.2,6,0,8.5,0c0.7-0.3,1.4-0.6,2.1-0.9c1.7-0.7,3.4-1.4,4.9-2.3
		c5.1-3.3,8.7-6.5,11.3-10.3s4.2-8.4,5.4-14.5c0.3-2.1,0.5-4,0.6-5.9c0.1-1.9,0.2-3.8,0.3-5.9l0-5.9c-0.1-1.9-0.3-3.8-0.7-5.7
		c-0.4-1.8-1-3.6-1.8-5.4c-1.3-2.9-3.1-5-5.3-6.7c-2.2-1.7-4.8-2.9-7.8-3.9l-30.3-3.5c-6.6-0.4-10.6,0.6-13,3.2
		c-2.4,2.6-3.3,6.7-3.8,12.7L28.6,71L28.6,71z"/>
	<path fill="#2B2A29" d="M26.7,71.1c-7.5-1.9-15.5-3.8-23-5.7c0.2-1.6,0.3-2.9,0.7-4.5c0.7-1.9,2.5-2.8,4.7-3.1
		c9.1-0.9,18.1-1.4,27.2-2.4C27.6,56.9,27.2,65.6,26.7,71.1z"/>
	<path fill="#2B2A29" d="M26.7,71.1c-3.7-0.9-7.6-1.9-11.5-2.8c-3.9-1-7.8-1.9-11.5-2.8l0,0l0,0c0-0.2,0-0.4,0.1-0.6
		c0.1-1.4,0.3-2.6,0.7-3.9v0c0.3-0.9,0.9-1.6,1.7-2.1c0.8-0.6,1.9-0.9,3-1h0c4.6-0.5,9.1-0.8,13.6-1.2c4.5-0.4,9-0.7,13.6-1.2l0,0.1
		c-8.3,1.3-9,9.3-9.5,14.7C26.8,70.5,26.7,70.8,26.7,71.1L26.7,71.1L26.7,71.1z M15.2,68.2c3.9,0.9,7.7,1.9,11.4,2.8
		c0-0.3,0.1-0.5,0.1-0.8c0.5-5.3,1.2-12.9,8.8-14.6c-4.3,0.4-8.5,0.8-12.8,1.1c-4.5,0.4-9,0.7-13.6,1.2c-1.1,0.1-2.2,0.5-3,1
		c-0.8,0.5-1.3,1.2-1.6,2.1c-0.4,1.4-0.5,2.5-0.7,3.9l-0.1,0.5C7.5,66.3,11.3,67.2,15.2,68.2z"/>
	<polygon fill="#394835" points="4.7,65.7 2.8,88 24.1,119.7 28.6,71 26.7,71.1 	"/>
	<path fill="#394835" d="M4.8,65.7L2.8,88l21.3,31.6l4.5-48.5l-1.9,0L4.8,65.7z M2.7,88l2-22.4l22,5.4l2,0
		c-1.5,16.3-3,32.5-4.5,48.8C17,109.2,9.9,98.6,2.7,88L2.7,88z"/>
	<polygon fill="#394835" points="1,88 0.9,88.3 0,95.7 18.5,137.4 20.4,119.7 	"/>
	<path fill="#394835" d="M1,88.1l-0.1,0.3l-0.8,7.4l18.4,41.5l1.9-17.5L1,88.1z M0.8,88.3L1,87.9c6.5,10.6,12.9,21.2,19.4,31.8
		c-0.6,5.9-1.3,11.9-1.9,17.8C12.4,123.6,6.2,109.7,0,95.7C0.3,93.3,0.6,90.8,0.8,88.3L0.8,88.3z"/>
	
		<linearGradient id="SVGID_2_" gradientUnits="userSpaceOnUse" x1="3564.8506" y1="-8471.8477" x2="4974.1704" y2="-4740.3262" gradientTransform="matrix(1.357400e-002 0 0 -1.357400e-002 0.9864 3.7307)">
		<stop  offset="0" style="stop-color:#5D9B38"/>
		<stop  offset="0.4157" style="stop-color:#3D5C2C"/>
		<stop  offset="0.5294" style="stop-color:#1C1D1F"/>
		<stop  offset="1" style="stop-color:#1C1D1F"/>
	</linearGradient>
	<path fill="url(#SVGID_2_)" d="M45.3,69.5c0.6-3.4,2.6-3.3,5.9-3.4c2.3,0.1,4.6,0.2,7,0.3c2.5,0.1,5,0.2,7.4,0.3
		c9.5,0.7,14.5,5,15,14c-0.1,4.2-0.2,8.5-0.3,12.7c-1,12.4-6.2,17.6-17.1,22.2c-6.3,2.1-12.6,4.1-18.9,6.2c-2,0.3-3.3,0.3-3.4-1.7
		L45.3,69.5z"/>
	<path fill="#9DD323" d="M104.1,99.4c0,1.4-0.1,2.9,0.1,4.1c0.6,3.3,1.9,4.5,5,4.5c5.9,0,11.8,0,17.7,0c0,1.7,0,3.5,0,5.2
		c-7.1,0-14.2,0-21.2,0c-4.5-0.3-8.2-4.7-8.8-10.2c-3.3-30.8,29.3-30.2,30.8-7.9c-0.1,2.5-0.8,4.1-3.2,4.2
		C117.7,99.4,111,99.4,104.1,99.4z"/>
	<path fill="#9DD323" d="M104.2,99.4c0,0.3,0,0.6,0,0.9c0,1.1,0,2.2,0.1,3.2c0.3,1.6,0.8,2.7,1.5,3.5c0.8,0.7,1.8,1,3.4,1.1H127v5.3
		c-6.6,0-14.9,0.5-21.3,0c-2.3-0.1-4.3-1.3-5.9-3.1c-1.6-1.8-2.7-4.4-2.9-7.1c-1.2-11.2,2.3-18.2,7.3-21.6c2-1.4,4.3-2.1,6.6-2.3
		c2.3-0.2,4.6,0.1,6.8,1c5.3,2.1,9.6,7.2,10.1,15.1v0c-0.1,1.3-0.3,2.3-0.8,3c-0.5,0.7-1.3,1.2-2.5,1.2H104.2z M104.1,100.3
		c0-0.3,0-0.6,0-0.9v0h20.4c1.2-0.1,1.9-0.5,2.4-1.2c0.5-0.7,0.7-1.7,0.7-3c-0.5-7.8-4.8-12.9-10.1-15c-2.2-0.9-4.5-1.2-6.8-1
		c-2.3,0.2-4.5,1-6.5,2.3c-5,3.4-8.5,10.4-7.3,21.5c0.3,2.8,1.3,5.3,2.9,7.1c1.5,1.8,3.6,2.9,5.8,3.1h21.2v-5.1h-17.7
		c-1.5,0-2.6-0.4-3.4-1.1c-0.8-0.7-1.3-1.9-1.6-3.5v0C104.1,102.5,104.1,101.4,104.1,100.3z"/>
	<path fill="#FFFFFF" d="M103.9,93.9c5.5,0,11,0,16.6,0C120.4,82.5,104.1,82.7,103.9,93.9z"/>
	<path fill="#9DD323" d="M103.9,93.8h16.5c0-3.9-2-6.5-4.6-7.6c-1.1-0.5-2.2-0.7-3.4-0.7s-2.3,0.2-3.4,0.7
		C106.2,87.3,104,89.8,103.9,93.8z M120.4,93.9h-16.6l0,0c0.1-4,2.3-6.7,5.1-7.8c1.1-0.5,2.3-0.7,3.5-0.7c1.2,0,2.4,0.3,3.4,0.7
		C118.4,87.3,120.5,89.9,120.4,93.9L120.4,93.9L120.4,93.9z"/>
	<polygon fill="#9DD323" points="132.3,80.8 132.3,113.5 139.7,113.5 139.8,112.9 139.8,80.6 	"/>
	<path fill="#9DD323" d="M132.3,80.9v32.6h7.4l0.1-0.6V80.7L132.3,80.9z M132.3,113.5V80.8c2.5-0.1,5.1-0.1,7.6-0.2
		c0,8.3,1.1,25.7-0.1,33L132.3,113.5L132.3,113.5z"/>
	<path fill="#9DD323" d="M153.6,80.9c-1.1,1.2-2.2,2.4-3.3,3.7c-1.5,1.7-3,3.4-4.5,5.1c-1.1,1.2-2.2,2.3-3.2,3.5
		c-2.1,2.2-2.4,4.2-0.1,6.8c4.1,4.5,8.2,8.9,12.3,13.4c2.8,0,5.5,0,8.3,0c-4.8-5-9.5-10.1-14.3-15.1c-1.2-1.3-1.1-1.9-0.1-3.1
		c4.3-4.7,8.6-9.4,12.8-14C158.9,81,156.3,80.9,153.6,80.9z"/>
	<path fill="#9AD61F" d="M153.7,80.9l-3.2,3.6c-2.6,2.9-5.1,5.7-7.8,8.6c-1,1.1-1.6,2.2-1.7,3.2c-0.1,1.1,0.4,2.2,1.6,3.5l12.3,13.4
		h8.1l-14.2-15c-0.6-0.6-0.9-1.1-0.9-1.6c0-0.5,0.3-0.9,0.9-1.5l12.8-14L153.7,80.9z M150.4,84.5l3.3-3.7c2.7,0.1,5.4,0.1,8,0.2
		c-2.3,2.5-11.7,12.1-12.9,14.1c-0.5,0.6-0.8,1-0.8,1.5c0,0.5,0.3,0.9,0.9,1.6c4.3,3.8,10.2,10.7,14.3,15.2h-8.4
		c-3.6-3.9-9.4-9.5-12.3-13.4c-1.2-1.3-1.7-2.5-1.6-3.6c0.1-1.1,0.7-2.2,1.7-3.3c1.1-1.2,2.2-2.3,3.2-3.5L150.4,84.5z"/>
	<path fill="#9DD323" d="M163.8,91.9c0.7-3,0.8-4.2,2.4-6.5c3.4-4.6,8.8-4.8,11-4.8c2.4,0,4.8,0,7.2,0c4.1,0.2,7.3,1,9.6,3.6
		c2.4,2.8,3.7,5.2,3.8,8.6c0,2.5,0,5,0,7.4c-0.1,3.1-1,5.1-2.2,7.5c-3,4.5-5.2,5.6-11.2,6c-2.3,0-4.6,0-7,0c-3.5-0.1-6.2-0.6-9.3-3
		c-3.6-3.3-4.2-5.1-4.6-10.1C163.5,97.6,163.5,94.9,163.8,91.9z"/>
	<path fill="#9DD323" d="M163.7,91.9c0.1-0.5,0.2-0.9,0.3-1.2c0.5-2.1,0.7-3.3,2.1-5.3v0c3.4-4.5,8.7-4.8,11-4.9l0.1,0
		c1.2,0,2.4,0,3.6,0s2.4,0,3.6,0h0c2,0.1,3.9,0.4,5.5,0.9c1.6,0.5,3,1.4,4.2,2.7l0,0c1.2,1.4,2.1,2.7,2.7,4.1c0.6,1.4,1,2.8,1,4.5
		c0,0.2,0,7.2,0,7.4c0,1.6-0.3,2.8-0.7,4c-0.4,1.2-0.9,2.3-1.5,3.5l0,0c-1.5,2.3-2.8,3.7-4.5,4.5c-1.7,0.9-3.7,1.2-6.7,1.4
		c-1.5,0.1-5.6,0.1-7,0c-1.8-0.1-3.3-0.2-4.8-0.7c-1.5-0.4-3-1.1-4.5-2.3l0,0c-1.8-1.6-2.9-2.9-3.5-4.4c-0.7-1.5-0.9-3.2-1.1-5.7v0
		c0-1.5,0-2.9,0.1-4.3C163.5,94.8,163.6,93.4,163.7,91.9L163.7,91.9z M164.1,90.7c-0.1,0.4-0.2,0.8-0.3,1.2
		c-0.1,1.5-0.2,2.9-0.2,4.3c0,1.4-0.1,2.8-0.1,4.3c0.2,2.5,0.4,4.2,1.1,5.7c0.6,1.5,1.7,2.8,3.5,4.4c1.6,1.2,3,1.9,4.5,2.3
		c1.5,0.4,3,0.6,4.8,0.7h7c3-0.2,5-0.5,6.7-1.4c1.7-0.9,3-2.3,4.4-4.5c0.6-1.2,1.1-2.3,1.5-3.5c0.4-1.2,0.6-2.4,0.7-4v-7.4
		c0-1.7-0.4-3.1-1-4.5c-0.6-1.4-1.6-2.7-2.7-4.1c-1.2-1.3-2.6-2.2-4.2-2.7c-1.6-0.5-3.4-0.8-5.4-0.9c-1.2,0-2.4,0-3.6,0
		c-1.2,0-2.4,0-3.6,0l-0.1,0c-2.3,0.1-7.5,0.3-10.9,4.8C164.8,87.4,164.5,88.6,164.1,90.7z"/>
	
		<linearGradient id="SVGID_3_" gradientUnits="userSpaceOnUse" x1="4592.73" y1="-10516.0938" x2="4592.73" y2="-9011.4424" gradientTransform="matrix(1.357400e-002 0 0 -1.357400e-002 0.9864 3.7307)">
		<stop  offset="0" style="stop-color:#2B2A29"/>
		<stop  offset="0.4431" style="stop-color:#252325"/>
		<stop  offset="0.451" style="stop-color:#2B2A29"/>
		<stop  offset="0.502" style="stop-color:#FEFEFE"/>
		<stop  offset="0.749" style="stop-color:#222120"/>
		<stop  offset="1" style="stop-color:#1F1B20"/>
	</linearGradient>
	<path fill="url(#SVGID_3_)" d="M53.9,146.4c1.5,0,3,0,4.5,0c0-5.4,0-10.9,0-16.3c0-0.3,0.3-0.6,0.6-0.6c2.9,0,5.8,0,8.7,0
		c0.3,0,0.6,0.2,0.6,0.5c0,5.5,0,11,0,16.6c1.4,0,2.9,0,4.3,0c0-6.1,0-12.2,0-18.4c0-1.1-0.5-2-1.6-2.1c-4.9,0-9.8,0-14.7,0
		c-1.6,0.2-2.7,0.7-2.4,4.8C54,136.7,54,140.5,53.9,146.4z"/>
	<path fill="#2B2A29" d="M54,146.3h4.5V130l0,0c0-0.2,0.1-0.3,0.2-0.4c0.1-0.1,0.3-0.2,0.4-0.2c2.8-0.1,5.9,0,8.7,0c0,0,0,0,0.1,0
		c0.1,0,0.3,0.1,0.4,0.2c0.1,0.1,0.2,0.2,0.2,0.3v0v16.5h4.3v-18.3c0-0.6-0.1-1.1-0.4-1.5c-0.2-0.3-0.6-0.5-1.1-0.5H56.4
		c-0.8,0.1-1.5,0.3-1.9,0.9c-0.4,0.6-0.6,1.8-0.5,3.8v0c0,2.9,0,5.4,0,7.8C54,141,54,143.4,54,146.3z M58.5,146.4h-4.6v0
		c0-2.9,0-5.3,0-7.8c0-2.4,0-4.9,0-7.8c-0.2-2.1,0-3.2,0.5-3.9c0.4-0.7,1.1-0.8,1.9-0.9c2.5-0.3,12.1-0.2,14.7,0
		c0.5,0,0.9,0.2,1.2,0.6c0.3,0.4,0.4,0.9,0.4,1.5c0.6,4.3,0,13.6,0,18.4c-1.5,0-2.9,0-4.4,0c0-5.4-0.2-11.3,0-16.6
		c0-0.1-0.1-0.2-0.2-0.3c-0.1-0.1-0.2-0.1-0.4-0.1c0,0,0,0,0,0H59h0c-0.1,0-0.2,0.1-0.4,0.2c-0.1,0.1-0.2,0.2-0.2,0.3
		C58.8,135.1,58.5,141.2,58.5,146.4L58.5,146.4z"/>
	
		<linearGradient id="SVGID_4_" gradientUnits="userSpaceOnUse" x1="6213.6309" y1="-10986.2305" x2="6213.6309" y2="-9003.7783" gradientTransform="matrix(1.357400e-002 0 0 -1.357400e-002 0.9864 3.7307)">
		<stop  offset="0" style="stop-color:#2B2A29"/>
		<stop  offset="0.5608" style="stop-color:#252325"/>
		<stop  offset="0.5686" style="stop-color:#2B2A29"/>
		<stop  offset="0.6196" style="stop-color:#FEFEFE"/>
		<stop  offset="0.7882" style="stop-color:#222120"/>
		<stop  offset="1" style="stop-color:#1F1B20"/>
	</linearGradient>
	<path fill="url(#SVGID_4_)" d="M75.9,152.9c0-8.2,0-16.5,0-24.7c0-1.6,1.4-2.2,3.5-2.2c3,0,6,0,9,0c3.4,0.2,5.5,3.1,6.1,6
		c0.5,3.3,0.5,5.5,0,8.7c-0.5,3-3.8,5.9-7.3,5.9c-2.3,0-4.6,0-6.9,0v6.3H75.9z"/>
	<path fill="#2B2A29" d="M75.8,152.9c0-4.2,0-8.3,0-12.3c0-4.2,0-8.4,0-12.3v0c0-0.8,0.4-1.4,1-1.8c0.6-0.4,1.5-0.5,2.5-0.5h9
		c1.6,0.1,2.9,0.8,3.9,1.8c1.2,1.1,1.9,2.7,2.2,4.2v0c0.2,1.6,0.4,3,0.4,4.4c0,1.4-0.1,2.7-0.4,4.3l0,0c-0.3,1.5-1.3,3.1-2.7,4.2
		c-1.3,1.1-3,1.8-4.7,1.8h-6.9v6.3L75.8,152.9L75.8,152.9z M75.9,140.5c0,4.2,0,8.4,0,12.3h4.3v-6.3h6.9c1.7,0,3.3-0.7,4.6-1.8
		c1.4-1.1,2.4-2.6,2.6-4.1c0.3-1.6,0.4-2.9,0.4-4.3c0-1.4-0.1-2.7-0.4-4.4c-0.3-1.5-1.1-3.1-2.2-4.2c-1-1-2.3-1.7-3.8-1.8h-9
		c-1,0-1.9,0.1-2.5,0.5c-0.6,0.3-0.9,0.9-1,1.7C75.9,132.4,75.9,136.5,75.9,140.5z"/>
	<path fill="#FFFFFF" d="M80.3,142.8c0-4.2,0-8.4,0-12.6c0-0.5,0.3-0.6,1-0.6c1.9,0,3.8,0,5.7,0c2,0.1,3,1.4,3,3.4
		c0,2.3,0,4.5,0,6.8c-0.2,2.5-2.3,3.2-5.2,3.2c-1.5,0-3,0-4.5,0C80.3,143,80.3,142.9,80.3,142.8z"/>
	<path fill="#2B2A29" d="M80.3,142.8v-12.6c0-0.3,0.1-0.4,0.3-0.5c0.2-0.1,0.4-0.1,0.7-0.1H87c1,0,1.7,0.4,2.2,1
		c0.5,0.6,0.8,1.5,0.8,2.5v6.8c-0.1,1.2-0.7,2-1.6,2.5c-0.9,0.5-2.2,0.7-3.6,0.7c-0.9,0.1-3.4,0-4.5,0V142.8z M80.4,130.2V143h4.4
		c1.4,0,2.7-0.2,3.6-0.7c0.9-0.5,1.5-1.3,1.6-2.5V133c0-1-0.3-1.8-0.8-2.4c-0.5-0.6-1.2-0.9-2.2-0.9h-5.7c-0.3,0-0.6,0-0.7,0.1
		C80.5,129.8,80.4,129.9,80.4,130.2z"/>
	<path fill="#FFFFFF" d="M170.5,93.7c0.4-1.9,0.5-2.8,1.4-4.3c2-3,5.3-3.1,6.6-3.2c1.4,0,2.9,0,4.3,0c2.5,0.1,4.4,0.6,5.8,2.4
		c1.4,1.8,2.2,3.4,2.3,5.6c0,1.6,0,3.3,0,4.9c0,2-0.6,3.3-1.3,5c-1.8,3-3.1,3.7-6.7,3.9c-1.4,0-2.8,0-4.2,0c-2.1-0.1-3.7-0.4-5.6-2
		c-2.2-2.2-2.6-3.4-2.8-6.6C170.3,97.5,170.3,95.7,170.5,93.7z"/>
	<path fill="#9DD323" d="M170.4,93.7c0.1-0.3,0.1-0.6,0.2-0.8c0.3-1.4,0.4-2.2,1.3-3.5l0,0c2-3,5.2-3.1,6.6-3.2l0,0
		c0.7,0,1.4,0,2.2,0c0.7,0,1.4,0,2.2,0l0,0c1.2,0.1,2.3,0.2,3.3,0.6c1,0.4,1.8,0.9,2.5,1.8l0,0c0.7,0.9,1.3,1.8,1.7,2.7
		c0.4,0.9,0.6,1.9,0.6,3c0,0.1,0,4.8,0,4.9c0,1-0.2,1.9-0.4,2.6c-0.2,0.8-0.5,1.5-0.9,2.3l0,0c-0.9,1.5-1.7,2.4-2.7,3
		c-1,0.6-2.3,0.8-4.1,0.9c-1,0.1-3.3,0.1-4.2,0c-1.1,0-2-0.2-2.9-0.4c-0.9-0.3-1.8-0.8-2.7-1.5l0,0c-1.1-1.1-1.7-1.9-2.1-2.9
		s-0.5-2.1-0.6-3.7v0c0-1,0-1.9,0-2.9C170.3,95.6,170.3,94.7,170.4,93.7L170.4,93.7z M170.7,92.9c-0.1,0.3-0.1,0.5-0.2,0.8
		c-0.1,1-0.1,1.9-0.1,2.8c0,0.9,0,1.9,0,2.9c0.1,1.6,0.2,2.7,0.6,3.7c0.4,1,1,1.8,2.1,2.9c0.9,0.8,1.8,1.2,2.7,1.5
		c0.9,0.3,1.8,0.4,2.9,0.4h4.2c1.8-0.1,3-0.4,4-0.9c1-0.6,1.8-1.5,2.7-3c0.4-0.8,0.7-1.5,0.9-2.3s0.4-1.6,0.4-2.6v-4.9
		c0-1.1-0.2-2-0.6-2.9c-0.4-0.9-0.9-1.8-1.6-2.7c-0.7-0.9-1.5-1.4-2.5-1.8c-1-0.4-2.1-0.5-3.3-0.6c-0.7,0-1.4,0-2.2,0
		c-0.7,0-1.4,0-2.2,0l0,0c-1.4,0.1-4.5,0.2-6.5,3.2C171.1,90.8,170.9,91.5,170.7,92.9z"/>
	
		<linearGradient id="SVGID_5_" gradientUnits="userSpaceOnUse" x1="7854.4438" y1="-10539.4863" x2="7854.4438" y2="-8980.7354" gradientTransform="matrix(1.357400e-002 0 0 -1.357400e-002 0.9864 3.7307)">
		<stop  offset="0" style="stop-color:#2B2A29"/>
		<stop  offset="0.4431" style="stop-color:#252325"/>
		<stop  offset="0.451" style="stop-color:#2B2A29"/>
		<stop  offset="0.502" style="stop-color:#FEFEFE"/>
		<stop  offset="0.749" style="stop-color:#222120"/>
		<stop  offset="1" style="stop-color:#1F1B20"/>
	</linearGradient>
	<path fill="url(#SVGID_5_)" d="M97.2,132.9c0.4-1.9,0.5-2.7,1.5-4.2c2.1-2.9,5.4-3,6.8-3.1c1.5,0,3,0,4.5,0c2.5,0.1,4.5,0.6,6,2.3
		c1.5,1.8,2.3,3.3,2.3,5.5c0,1.6,0,3.2,0,4.7c0,2-0.6,3.2-1.3,4.8c-1.8,2.9-3.2,3.6-6.9,3.8c-1.4,0-2.9,0-4.3,0
		c-2.2-0.1-3.8-0.4-5.8-1.9c-2.2-2.1-2.6-3.3-2.8-6.4C97,136.5,97,134.8,97.2,132.9z"/>
	<path fill="#2B2A29" d="M97.1,132.9c0.1-0.3,0.1-0.5,0.2-0.8c0.3-1.4,0.5-2.1,1.3-3.4v0c2.1-2.9,5.4-3,6.8-3.1l0,0
		c0.7,0,1.5,0,2.2,0c0.7,0,1.5,0,2.2,0h0c1.3,0.1,2.4,0.2,3.4,0.6c1,0.4,1.9,0.9,2.6,1.7v0c0.7,0.9,1.3,1.7,1.7,2.6
		c0.4,0.9,0.6,1.8,0.6,2.9c0,0.1,0,4.6,0,4.7c0,1-0.2,1.8-0.4,2.6c-0.2,0.8-0.6,1.5-0.9,2.3l0,0c-0.9,1.5-1.7,2.3-2.8,2.9
		s-2.3,0.8-4.2,0.9c-0.9,0.1-3.4,0.1-4.3,0c-1.1,0-2.1-0.1-3-0.4c-0.9-0.3-1.8-0.7-2.8-1.5l0,0c-1.1-1.1-1.8-1.9-2.2-2.8
		c-0.4-1-0.6-2-0.7-3.6v0c0-1,0-1.9,0-2.8C97,134.8,97,133.8,97.1,132.9L97.1,132.9z M97.4,132.1c-0.1,0.2-0.1,0.5-0.2,0.8
		c-0.1,1-0.1,1.9-0.1,2.8c0,0.9,0,1.8,0,2.8c0.1,1.6,0.3,2.7,0.7,3.6c0.4,0.9,1.1,1.8,2.2,2.8c1,0.7,1.9,1.2,2.8,1.5
		c0.9,0.3,1.9,0.4,3,0.4h4.3c1.9-0.1,3.1-0.3,4.2-0.9c1-0.6,1.8-1.4,2.7-2.9c0.4-0.8,0.7-1.5,0.9-2.2c0.2-0.8,0.4-1.6,0.4-2.5v-4.7
		c0-1.1-0.2-2-0.6-2.9c-0.4-0.9-1-1.7-1.7-2.6c-0.7-0.8-1.6-1.4-2.6-1.7c-1-0.3-2.1-0.5-3.4-0.6c-0.7,0-1.5,0-2.2,0
		c-0.7,0-1.5,0-2.2,0l0,0c-1.4,0.1-4.7,0.2-6.8,3.1C97.8,130,97.7,130.8,97.4,132.1z"/>
	<path fill="#FFFFFF" d="M101.3,134.1c0.3-1.2,0.3-1.8,0.9-2.7c1.3-1.9,3.3-2,4.1-2c0.9,0,1.8,0,2.7,0c1.5,0.1,2.7,0.4,3.6,1.5
		c0.9,1.2,1.4,2.2,1.4,3.6c0,1,0,2.1,0,3.1c0,1.3-0.4,2.1-0.8,3.2c-1.1,1.9-1.9,2.3-4.2,2.5c-0.9,0-1.7,0-2.6,0
		c-1.3-0.1-2.3-0.3-3.5-1.3c-1.3-1.4-1.6-2.1-1.7-4.2C101.2,136.5,101.2,135.3,101.3,134.1z"/>
	<path fill="#2B2A29" d="M101.3,134.1c0-0.2,0.1-0.4,0.1-0.5c0.2-0.9,0.3-1.4,0.8-2.2l0,0c1.3-1.9,3.3-2,4.1-2.1h0
		c0.4,0,0.9,0,1.3,0c0.4,0,0.9,0,1.3,0l0,0c0.8,0,1.4,0.1,2.1,0.4c0.6,0.2,1.1,0.6,1.6,1.2v0c0.4,0.6,0.8,1.1,1,1.7
		c0.2,0.6,0.4,1.2,0.4,1.9c0,0,0,3.1,0,3.1c0,0.7-0.1,1.2-0.3,1.7c-0.1,0.5-0.3,1-0.6,1.5l0,0c-0.6,1-1,1.5-1.7,1.9
		c-0.6,0.4-1.4,0.5-2.5,0.6c-0.6,0-2,0.1-2.6,0c-0.7,0-1.2-0.1-1.8-0.3c-0.6-0.2-1.1-0.5-1.7-1l0,0c-0.7-0.7-1.1-1.2-1.3-1.9
		c-0.2-0.6-0.3-1.3-0.4-2.4v0c0-0.6,0-1.2,0-1.8C101.2,135.3,101.2,134.7,101.3,134.1L101.3,134.1z M101.5,133.6
		c0,0.2-0.1,0.3-0.1,0.5c0,0.6-0.1,1.2-0.1,1.8c0,0.6,0,1.2,0,1.8c0.1,1,0.2,1.7,0.4,2.4c0.2,0.6,0.6,1.2,1.3,1.8
		c0.6,0.5,1.1,0.8,1.7,1c0.6,0.2,1.1,0.2,1.8,0.3h2.6c1.1-0.1,1.9-0.2,2.5-0.6c0.6-0.4,1.1-0.9,1.6-1.9c0.2-0.5,0.4-1,0.6-1.5
		s0.2-1,0.2-1.7v-3.1c0-0.7-0.1-1.3-0.4-1.9c-0.2-0.6-0.6-1.1-1-1.7c-0.4-0.5-1-0.9-1.5-1.1c-0.6-0.2-1.3-0.3-2-0.4
		c-0.4,0-0.9,0-1.3,0c-0.4,0-0.9,0-1.3,0l0,0c-0.8,0-2.8,0.1-4.1,2C101.7,132.2,101.6,132.7,101.5,133.6z"/>
	
		<linearGradient id="SVGID_6_" gradientUnits="userSpaceOnUse" x1="9862.4375" y1="-10987.1709" x2="9862.4375" y2="-8525.0391" gradientTransform="matrix(1.357400e-002 0 0 -1.357400e-002 0.9864 3.7307)">
		<stop  offset="0" style="stop-color:#2B2A29"/>
		<stop  offset="0.4431" style="stop-color:#252325"/>
		<stop  offset="0.451" style="stop-color:#2B2A29"/>
		<stop  offset="0.502" style="stop-color:#FEFEFE"/>
		<stop  offset="0.749" style="stop-color:#222120"/>
		<stop  offset="1" style="stop-color:#1F1B20"/>
	</linearGradient>
	<path fill="url(#SVGID_6_)" d="M120.5,137c0-1.1,0-2.2,0.1-3.3c0.1-4.1,2.5-7.7,7.2-7.7c1.7,0,3.3,0,5,0c0-2.2,0-4.4,0-6.6
		c1.5,0,2.9,0,4.4,0c0,2.2,0,4.5,0,6.7c1.6,0,3.2,0,4.8,0c5.6,0,7.2,3.8,7.3,8.3c0,1.7,0,3.4,0,5.2c-0.1,3.3-2.6,6.5-6,6.6
		c-2,0-4.1,0-6.1,0c0,2.2,0,4.4,0,6.7c-1.4,0-2.9,0-4.3,0c0-2.2,0-4.5,0-6.7c-1.6,0-3.3,0-4.9,0C122.1,145.9,120.8,142.6,120.5,137z
		"/>
	<path fill="#2B2A29" d="M120.5,137l0.1-3.3c0.1-2.2,0.8-4.2,2.1-5.6c1.2-1.3,2.9-2.1,5.1-2.1h5v-6.6h4.5v6.7h4.8
		c2.8,0,4.6,1,5.7,2.5c1.1,1.5,1.5,3.6,1.6,5.9c0.1,0.3,0.1,4.8,0,5.2c-0.1,1.7-0.8,3.4-1.9,4.7c-1.1,1.2-2.5,1.9-4.2,2h-6.1v6.7
		h-4.4v-6.7h-4.9c-2.9-0.1-4.7-1-5.7-2.6C121,142.1,120.6,139.8,120.5,137L120.5,137z M120.6,133.7l-0.1,3.2c0.1,2.8,0.5,5,1.6,6.6
		c1.1,1.6,2.8,2.4,5.7,2.6h4.9v6.7h4.3v-6.7h6.2c1.6,0,3.1-0.8,4.1-2c1.1-1.2,1.8-2.9,1.9-4.6l0-5.2c-0.1-2.3-0.5-4.3-1.6-5.8
		c-1.1-1.5-2.9-2.4-5.6-2.4h-4.8v-6.7h-4.3v6.6h-5c-2.2,0-3.9,0.8-5.1,2.1C121.4,129.6,120.7,131.6,120.6,133.7z"/>
	<path fill="#FFFFFF" d="M132.6,129.4c0,4.5,0,9.1,0,13.6c-1.3,0-2.5,0-3.8,0c-3.8-0.2-4-3.2-4-6.9c0.1-3.5,0.7-6.6,4.5-6.7
		C130.5,129.4,131.5,129.4,132.6,129.4z"/>
	<path fill="#2B2A29" d="M132.7,129.4v13.7c-1.1,0-2.8,0.1-3.9,0c-1.9-0.1-2.9-0.9-3.5-2.1c-0.5-1.2-0.6-2.9-0.6-4.8l0,0
		c0-1.8,0.2-3.4,0.9-4.6c0.6-1.2,1.8-2,3.7-2.1L132.7,129.4L132.7,129.4z M132.6,143v-13.5l-3.2,0.1c-1.9,0-3,0.8-3.6,2
		c-0.6,1.2-0.8,2.8-0.9,4.6c0,1.9,0,3.6,0.6,4.8c0.5,1.2,1.5,2,3.4,2.1H132.6z"/>
	<polygon fill="#2B2A29" points="151.8,119.4 151.8,123 156.4,123 156.4,119.2 	"/>
	<path fill="#2B2A29" d="M151.8,119.4v3.5h4.6v-3.7L151.8,119.4z M151.8,123v-3.6c1.6-0.1,3.1-0.1,4.7-0.2v3.8L151.8,123L151.8,123z
		"/>
	
		<linearGradient id="SVGID_7_" gradientUnits="userSpaceOnUse" x1="11286.3584" y1="-10502.7842" x2="11286.3584" y2="-9011.4424" gradientTransform="matrix(1.357400e-002 0 0 -1.357400e-002 0.9864 3.7307)">
		<stop  offset="0" style="stop-color:#2B2A29"/>
		<stop  offset="0.4431" style="stop-color:#252325"/>
		<stop  offset="0.451" style="stop-color:#2B2A29"/>
		<stop  offset="0.502" style="stop-color:#FEFEFE"/>
		<stop  offset="0.749" style="stop-color:#222120"/>
		<stop  offset="1" style="stop-color:#1F1B20"/>
	</linearGradient>
	<polygon fill="url(#SVGID_7_)" points="151.9,126.1 151.9,146.3 156.4,146.3 156.4,126.1 	"/>
	<path fill="#2B2A29" d="M152,126.1v20.2h4.4v-20.2H152z M151.9,146.3V126c1.5,0,3.1,0,4.6,0v20.3L151.9,146.3L151.9,146.3z"/>
	
		<linearGradient id="SVGID_8_" gradientUnits="userSpaceOnUse" x1="12363.4229" y1="-10510.4473" x2="12363.4229" y2="-8988.2451" gradientTransform="matrix(1.357400e-002 0 0 -1.357400e-002 0.9864 3.7307)">
		<stop  offset="0" style="stop-color:#2B2A29"/>
		<stop  offset="0.4431" style="stop-color:#252325"/>
		<stop  offset="0.451" style="stop-color:#2B2A29"/>
		<stop  offset="0.502" style="stop-color:#FEFEFE"/>
		<stop  offset="0.749" style="stop-color:#222120"/>
		<stop  offset="1" style="stop-color:#1F1B20"/>
	</linearGradient>
	<path fill="url(#SVGID_8_)" d="M157.7,146.3c0-0.1,0.1-0.1,0.1-0.2c2.8-6.3,5.5-12.5,8.3-18.8c1.1-2.1,4.3-2.1,5.6,0.2
		c0.3,0.6,0.5,1.1,0.8,1.7c0.3,0.7,0.7,1.5,1,2.2c1.1,2.5,2.2,4.9,3.3,7.4c0.8,1.9,1.6,3.7,2.4,5.6c0.3,0.7,0.6,1.4,0.9,2
		c-1.5,0-3,0-4.5,0c0,0,0-0.1,0-0.1c-0.8-2-1.6-3.9-2.4-5.9c-0.4-0.9-0.7-1.8-1.1-2.8c-0.6-1.6-1.2-3.1-1.8-4.7
		c-0.4-0.9-0.7-1.8-1.1-2.7c-0.2,0-0.3,0-0.5,0c-2.2,5.4-4.3,10.7-6.5,16.1C160.6,146.4,159.1,146.4,157.7,146.3z"/>
	<path fill="#2B2A29" d="M157.6,146.3c2.3-6.1,5.7-13,8.4-19c0.3-0.5,0.7-1,1.2-1.2c0.4-0.2,1-0.4,1.5-0.4c0.5,0,1.1,0.1,1.5,0.4
		c0.6,0.3,1.1,0.8,1.4,1.4c0.6,1.3,1.2,2.6,1.8,3.9c2.2,5,4.5,10,6.6,15.1h-4.6v-0.2l-2.4-5.8c-1-2.5-2-5-2.9-7.5l-1.1-2.7h-0.5
		l-6.5,16.1C160.6,146.4,159.1,146.4,157.6,146.3L157.6,146.3z M157.8,146.2l-0.1,0.2l4.3,0l6.5-16.1h0.6c1,2.5,2,4.9,2.9,7.4
		l1.1,2.8l2.4,5.9v0.1h4.4l-0.8-2l-2.4-5.6l-3.3-7.4l-1-2.2l-0.8-1.7c-0.3-0.6-0.9-1.1-1.4-1.4c-0.5-0.2-1-0.4-1.5-0.3
		c-0.5,0-1,0.1-1.4,0.4c-0.5,0.3-0.9,0.7-1.1,1.2L157.8,146.2z"/>
	
		<linearGradient id="SVGID_9_" gradientUnits="userSpaceOnUse" x1="13966.8721" y1="-10510.4814" x2="13966.8721" y2="-9009.6953" gradientTransform="matrix(1.357400e-002 0 0 -1.357400e-002 0.9864 3.7307)">
		<stop  offset="0" style="stop-color:#2B2A29"/>
		<stop  offset="0.4431" style="stop-color:#252325"/>
		<stop  offset="0.451" style="stop-color:#2B2A29"/>
		<stop  offset="0.502" style="stop-color:#FEFEFE"/>
		<stop  offset="0.749" style="stop-color:#222120"/>
		<stop  offset="1" style="stop-color:#1F1B20"/>
	</linearGradient>
	<path fill="url(#SVGID_9_)" d="M181.2,126c1.5,0,3,0,4.5,0c0,2.6,0,5.1,0,7.7c3.3,0,6.7,0,10,0c2.8,0.1,4.2,1.8,4.2,4.2
		c0,1.6,0,3.3,0,5c0,2-1.3,3.6-3.7,3.6c-4.3,0-8.6,0-12.9,0c-1.1,0-2.2-1.3-2.2-2.7C181.2,137.8,181.2,131.9,181.2,126z"/>
	<path fill="#2B2A29" d="M181.2,126h4.5v7.7h10c1.4,0,2.4,0.5,3.1,1.1c0.8,0.7,1.1,1.8,1.2,3c0,0.2,0,4.9,0,5c0,1.1-0.4,2-1.1,2.6
		c-0.6,0.6-1.5,1-2.7,1h-12.9c-0.6,0-1.1-0.4-1.6-0.9c-0.4-0.5-0.7-1.2-0.7-1.8L181.2,126L181.2,126z M185.6,126.1h-4.4l0,17.7
		c0,0.7,0.2,1.3,0.6,1.8c0.4,0.5,1,0.8,1.5,0.9h12.9c1.1,0,2-0.3,2.6-0.9c0.7-0.6,1-1.6,1-2.6v-5c0-1.2-0.4-2.3-1.2-3
		c-0.7-0.7-1.7-1.1-3-1.1h-10.1V126.1z"/>
	<path fill="#FFFFFF" d="M185.7,137.2c0,1.7,0,3.3,0,5c0,0.7,0.2,0.9,0.9,0.9c2.5,0,5,0,7.5,0c0.9,0,1.3-0.7,1.3-1.6c0-1,0-2,0-3
		c-0.1-1-0.7-1.2-1.9-1.3C190.9,137.2,188.3,137.2,185.7,137.2z"/>
	<path fill="#2B2A29" d="M185.7,137.2v4.9c0,0.3,0.1,0.5,0.2,0.7c0.1,0.1,0.3,0.2,0.7,0.2h7.5c0.4,0,0.7-0.2,1-0.4
		c0.2-0.3,0.3-0.7,0.3-1.1v-3c-0.1-0.5-0.2-0.8-0.5-1c-0.3-0.2-0.7-0.2-1.3-0.3H185.7z M185.7,142.1v-5c2.6,0,5.2,0,7.9,0
		c0.6,0,1,0.1,1.3,0.3c0.3,0.2,0.5,0.5,0.6,1c0.1,0.7,0,2.2,0,3c0,0.5-0.1,0.9-0.4,1.2c-0.2,0.3-0.6,0.4-1,0.4c-0.5,0-7.3,0-7.5,0
		c-0.3,0-0.6-0.1-0.7-0.2C185.7,142.7,185.7,142.5,185.7,142.1L185.7,142.1z"/>
	<path fill="#FFFFFF" d="M137.2,129.4c0,4.5,0,9.1,0,13.6c1.3,0,2.5,0,3.8,0c3.8-0.2,4-3.2,4-6.9c-0.1-3.5-0.7-6.6-4.5-6.7
		C139.4,129.4,138.3,129.4,137.2,129.4z"/>
	<path fill="#2B2A29" d="M137.2,129.4V143h3.8c1.9-0.1,2.9-0.9,3.4-2.1c0.5-1.2,0.6-2.9,0.6-4.8c0-1.8-0.2-3.4-0.9-4.6
		c-0.6-1.2-1.7-2-3.6-2L137.2,129.4z M137.2,143v-13.7l3.3,0.1c1.9,0,3.1,0.8,3.7,2.1c0.6,1.2,0.8,2.9,0.9,4.6l0,0
		c0,1.9,0,3.6-0.6,4.8c-0.5,1.3-1.5,2.1-3.5,2.1C139.9,143.1,138.3,143,137.2,143L137.2,143z"/>
</g>
</svg>
