<?xml version="1.0" encoding="utf-8"?>
<!-- Generator: Adobe Illustrator 19.2.1, SVG Export Plug-In . SVG Version: 6.00 Build 0)  -->
<svg version="1.1" id="Layer_1" xmlns="http://www.w3.org/2000/svg" xmlns:xlink="http://www.w3.org/1999/xlink" x="0px" y="0px"
	 viewBox="0 0 200 200" style="enable-background:new 0 0 200 200;" xml:space="preserve">
<style type="text/css">
	.st0{fill:#FFFFFF;}
</style>
<g id="Layer_x0020_1">
	<path class="st0" d="M0.8,62.6c-0.1-3.3,3.5-6.4,6.4-6.6c3.6,0,7.2,0,10.7,0c3.4-0.1,6.6,3.2,6.8,7c0,7.5,0,15.1,0,22.6
		c-3,0-6.1,0-9.1,0c0-6.9,0-13.9,0-20.8c-1.7,0-3.5,0-5.2,0c0,23.7,0,47.4,0,71.2c1.8,0,3.5,0,5.3,0c0-15.4,0-30.7,0-46.1
		c3.1,0,6.1,0,9.2,0c0,15.8,0,31.5,0,47.3c0,2.7-2.3,5.7-4.7,6.2c-0.6,0-1.1,0.1-1.7,0.1c-3.8,0-7.7,0-11.5,0
		c-2.4,0-6.4-2.9-6.4-5.3C0.7,113.1,0.8,87.9,0.8,62.6z"/>
	<g>
		<path class="st0" d="M48.1,67.8c-3.8,0-7.7,0-11.5,0c-3.6,0.1-7.1,2.8-7.3,7.2c0,5.3,0,10.6,0,15.9c3.5,0,7,0,10.5,0
			c0-4.8,0-9.7,0-14.5c1.3,0,2.6,0,3.9,0c0,5.4,0,10.9,0,16.3c-1.2,1.5-2.7,2.7-4.2,4c-1.1,1-2.1,1.9-3.2,2.9
			c-3.6,3.1-6.8,4.8-6.9,8.7c0,9.7,0,19.4,0,29.1c0,3.7,2.7,6.2,6.1,6.5c6.3,0,12.5,0,18.8,0c0-23,0-46,0-69.1
			C54.1,71.2,50.5,67.7,48.1,67.8z M44,136h-4l-0.1-25.6l4.1-4.1V136z"/>
	</g>
	<path class="st0" d="M58.6,143.9c3.2,0,6.4,0,9.7,0c0-22.5,0-44.9,0-67.4c1.6,0,3.2,0,4.8,0c0,4.9,0,9.8,0,14.7
		c3.4,0,5.8,0,9.4-0.1c0.1-5.6,0.1-11.1,0.2-16.7c-0.2-3.3-2.5-6.1-5.2-6.1c-4.4,0-8.8,0-13.2,0c-2.6,0-5.6,3.8-5.6,7.3
		C58.6,98.4,58.6,121.2,58.6,143.9z"/>
	<path class="st0" d="M101.4,56.4c0,4,0,7.9,0,11.9c-3.2,0-6.3,0-9.5,0c-3.2,0.1-5.1,2.4-5,5.7c0,3.1,0,6.1,0,9.2
		c0.1,18.2,0.1,36.4,0.2,54.6c-0.3,3.5,3.6,6.1,6.3,6.1c5.9,0,11.9,0,17.8,0c0-29.2,0-58.3,0-87.5C108,56.4,104.7,56.4,101.4,56.4z
		 M101.4,135.6h-4.8l-0.1-58.8h4.9V135.6z"/>
	<polygon class="st0" points="115.9,56.4 126.4,56.4 126.4,64.3 115.8,64.3 	"/>
	<polygon class="st0" points="115.9,68.1 126.5,68.1 126.5,144 115.8,144 	"/>
	<path class="st0" d="M131.1,67.9c5.9,0,11.8,0,17.7,0c2.6,0.2,6.4,3.3,6.5,7.2c0,23,0,46,0,69c-3.2,0-6.4,0-9.6,0
		c0-22.2,0-44.4,0-66.6c-1.8,0-3.6,0-5.5,0c0,22.2,0,44.4,0,66.6c-3.1,0-6.3,0-9.4,0C130.9,118.7,130.9,93.3,131.1,67.9z"/>
	<polygon class="st0" points="189.1,56.7 189.1,143.8 199.4,143.8 199.4,56.7 	"/>
	<path class="st0" d="M178.6,67.8c-3.8,0-7.7,0-11.5,0c-3.6,0.1-7.1,2.8-7.3,7.2c0,5.3,0,10.6,0,15.9c3.5,0,7,0,10.5,0
		c0-4.8,0-9.7,0-14.5c1.3,0,2.6,0,3.9,0c0,5.4,0,10.9,0,16.3c-1.2,1.5-2.7,2.7-4.2,4c-1.1,1-2.1,1.9-3.2,2.9
		c-3.6,3.1-6.8,4.8-6.9,8.7c0,9.7,0,19.4,0,29.1c0,3.7,2.7,6.2,6.1,6.5c6.3,0,12.5,0,18.8,0c0-23,0-46,0-69.1
		C184.7,71.2,181.1,67.7,178.6,67.8z M174.4,136h-4l-0.1-25.6l4.1-4.1V136z"/>
</g>
</svg>
