<?xml version="1.0" encoding="utf-8"?>
<!-- Generator: Adobe Illustrator 18.0.0, SVG Export Plug-In . SVG Version: 6.00 Build 0)  -->
<!DOCTYPE svg PUBLIC "-//W3C//DTD SVG 1.1//EN" "http://www.w3.org/Graphics/SVG/1.1/DTD/svg11.dtd">
<svg version="1.1" id="Layer_1" xmlns="http://www.w3.org/2000/svg" xmlns:xlink="http://www.w3.org/1999/xlink" x="0px" y="0px"
	 viewBox="0 0 200 200" enable-background="new 0 0 200 200" xml:space="preserve">
<g>
	<path fill="#A7AAAB" d="M79.7,195.7c-2.6,0.9-3.9,2.7-7.2,2.9c-1.6-7.9-3.5-15.2-6.2-22.4c-1.9-5-3.9-9.3-6-12.9
		c-6.8-11.8-13.8-18-20-23.8c-3.8-3.5-8.6-6.5-10.4-11.4c-3.8-11,9.9-6.1,14-2.4c11.3,10.2,23.7,12.8,35.9,12.9
		c12.2,0.1,23.8-3.1,32-6.6c7.6-3.2,14-8.1,19.7-14c13.8-14.3,23.5-43.7,12.8-70.7c-7.5-17.7-21.2-29.1-31.1-34.3
		C90.6,1.3,68.2,7.4,53,16.6C41,23.9,28,40,26,62.1c-1.4,15,1.5,27.7,11.8,40.5c8.2,9.9,18.8,15.9,29.1,18.6
		c9.5,2.5,19.3,2.3,29.5-1.3c12.7-4.5,13.3-10,13.3-14.1c0-4.1-1.8-10.1-13.3-10.5c-10.7-0.6-21.9,2-32.4,1.2
		c-10.7-1-14.4-7.2-15.1-10.9c-0.7-3.8,1.4-9.1,9.9-11.6c8.5-2.5,14.3-4.1,14.5-6c0.3-2.8-6.7-3.8-12.4-8.5c-3.5-3-4.2-6.2-4-9.3
		c0.6-7.6,5-7.1,8.5-13.3c3-6.1,1.2-16.2,6.7-19.5c4.5-2.6,9.5,0,15.6-0.6c5.1-0.6,5-5.5,9.7-6c2.4-0.3,5,0.2,8.1,1.5
		c4.1,1.7,8.2,4.7,12.1,9.7c20.9,29,27,63.7,3.4,91.2c-16.2,18.9-66.7,32.9-96.2-16.3C6.7,62.2,25.2,26.2,49.4,10.8
		C77-6.7,122.6-6,148,36.3c13.5,26.4,7.4,58.5-6.3,77.5C119.9,143.9,73,154.6,43,130.5c-11.6-9.2-10.7-3.6-1.7,4
		c11.9,10.8,21.8,21.1,28.3,32.1C75.1,176,78.3,185.8,79.7,195.7L79.7,195.7z M90.1,24.2c-7.4-3.6-11.8-3.3-13.7-1.5
		c-2.2,2.1-1.8,6.2,3.1,12.5c3.8,4.8,2.9,10.2-4.3,11c-7.9,0.9-11.3,1.1-11.5,5.2c-0.2,4.2,4.5,6.1,12.7,10.1
		c8.1,3.5,7.4,11.4-1.1,13.9c-11.4,3.2-15.1,5.8-14.7,8.5c0.3,2.2,5.7,6.6,15.4,6.5c8.3-0.1,15.9-1,24-0.6c6.2,0.3,9.5,2.2,15.8,2.2
		c1.8,0,3.2-0.6,4.3,0.3c3.8,3.1,0.3,8.2-5,10.8c-2.4,1.6-1.7,5.4-1.4,9.2c20.9-18.7,21.7-57.2-6.8-91c-4.1-4.8-6.2-4.1-7.7,2.1
		C98.3,27.4,92.8,25.5,90.1,24.2z"/>
	<path fill="#A7AAAB" d="M91.3,158.5c7-2.6,7.5,0.7,3,3.9c-8.9,6-12.5,8.6-11.1,13.4c1.1,4,8.6,4.1,15.7,0.7
		c-2.2-4.4-1.9-9.2-0.8-12.9c1.2-4.1,4-7,8.4-7.6c7.4-0.7,7.7,7.5,6.9,11.6c-0.6,3-2.3,6.9-6.3,9.3c3.7,6.2,7.7,12.3,11,18.6
		c-1.5,2.5-4,3.8-7.2,4.4c-3.2-6.6-6.4-13.1-9.6-19.7c-10.3,6.1-21.3,3.5-23.8-1.9C75.2,173.5,80,163,91.3,158.5L91.3,158.5z
		 M105,171.7c4-4.2,5.7-10.3,2.5-11.7C102.7,158.2,100.6,167.9,105,171.7z"/>
	<path fill="#A7AAAB" d="M130.8,154.4c-0.1,4.6-3.2,8.2-7.9,9.3c-6.6,1.5-10.5-3.2-10-9.1C113.8,142.3,131.1,142.9,130.8,154.4
		L130.8,154.4z M126.7,154.1c0.1-5.4-8-5.7-8.5,0.1c-0.2,2.8,1.6,5,4.7,4.3C125.2,157.9,126.7,156.2,126.7,154.1z"/>
	<path fill="#A7AAAB" d="M126.2,142c0.7-1.2,2.2-1.7,3.5-1.8c2.6,4.9,4.7,9.5,7.6,13.5c-1.1,1.3-1.8,1.8-3.2,2.4
		C131.6,151.3,128.8,146.8,126.2,142z"/>
	<path fill="#A7AAAB" d="M142.2,133.7c3.8-0.6,5.4,1.9,0.4,3.8c-1.5,0.6-3.4,1.2-4.2,2.5c-3,4.7,3.7,10.8,8.6,0.6
		c1.6-3.4,1.3-6.4,1-10.8c-0.2-2.2,2.1-3.5,3.5-2.7c2.2,1.4,3.7,2.3,6,3.7c1.2,0.7,1.7,0.7,1.6-0.8c-0.3-3-0.6-4.9-0.9-8
		c-0.3-2,1.8-2.5,3.2-1.1c0.7,0.7,1.4,2.1,1.7,3.9c2.8,17.2,15.2,32.5,13.1,38.7c-1.8,5.1-9.1,5.1-11,0.7c-1.5-3.6-0.5-5.8,0.2-8.4
		c2.9-11.5,5.2-20.1,5.7-30.3c0.1-2.4-0.1-1.7-0.6-3.6c-0.3-1.2-0.9-3.2,0.6-2.8c1.8,0.5,2.9,0.6,2.8-1.1c-0.3-2.9-4.2-3.2-5.2-0.1
		c-3.1,8.6,9,12.7,10.6,0.9c0.9-8.9,4-4.6,3,0.3c-3.3,18.3-20.5,13.4-17-0.8c1.4-4.9,4.4-6.7,7.7-6.6c2.5,0.1,6.2,2.1,3.9,6.4
		c-4,6.4-2,7.7-2.7,11.8c-1.7,8.9-4,17-5.2,26.8c-0.2,2.7,0.2,4.8,1.5,4.8c1.2,0,1.7-1.1,0.9-3.9c-2.1-6.7-4.6-12.6-7.3-19.1
		c-0.2-0.5-1.1-4.1-2-4.4c-0.8-0.3-0.8,0.4-0.9,1.7c-0.1,1-0.7,1.1-1.5,1.1c-0.7,0-1.5-0.3-2.2-0.6c-1.5-0.6-3-2.1-4.8-2.7
		c0.2,7-2.7,11.3-5.2,13.5c-3.3,2.8-9.5,4.3-12.6-0.2c-2.2-3.2-0.7-7.5,1-9.6C137.2,135.8,139.2,134.2,142.2,133.7z"/>
	<path fill="#A7AAAB" d="M168.7,142.2c-0.8,1.5-1.1,3.2-1.2,5.2c0.5,2.3,1.1,4,2,5.2c0.9-1.7,1.5-3.7,1.1-6.1
		C170.2,144.9,169.7,143.4,168.7,142.2z"/>
	<path fill="#A7AAAB" d="M171.1,125.7c1.2-0.4,2.2-0.2,3.2,0.3c0.2,1.8,0.1,3.4-0.3,4.9c-1.1,0.3-2.2,0.3-3.4,0
		C170.5,129.1,170.5,127.4,171.1,125.7z"/>
</g>
</svg>
