<?xml version="1.0" encoding="utf-8"?>
<!-- Generator: Adobe Illustrator 19.2.1, SVG Export Plug-In . SVG Version: 6.00 Build 0)  -->
<svg version="1.1" id="Layer_1" xmlns="http://www.w3.org/2000/svg" xmlns:xlink="http://www.w3.org/1999/xlink" x="0px" y="0px"
	 viewBox="0 0 5385.8 992.1" style="enable-background:new 0 0 5385.8 992.1;" xml:space="preserve">
<style type="text/css">
	.st0{fill:#BCBEC0;}
	.st1{fill:#FFF01F;}
</style>
<g>
	<g>
		<path class="st0" d="M2295.2,538.9V408.6h0.3c27.3,0,49.7-10.8,67.1-31.9c17.7-21.4,26.7-55.1,26.7-102.4c0-43.7-9-76.2-26.7-97.6
			c-17.7-21.1-39.5-31.9-65.6-31.9c-0.6,0-1.2,0-1.8,0V11.7c98.6,0,172.9,29.5,223.5,87.9c40.5,47,60.8,105.4,60.8,174.3
			c0,77.7-25.2,141.2-75.5,190.9C2453.7,513.9,2384.2,538.6,2295.2,538.9L2295.2,538.9z M3040.1,330.6L3040.1,330.6l180.1,20.8
			c-9.9,38.2-26.1,71.7-48.8,99.7c-22.8,27.7-51.5,49.4-86.9,65c-35.1,15.3-80,23.2-134.2,23.2c-52.7,0-96.5-4.8-131.2-14.8
			c-35.1-10.2-65-26.2-90.2-48.2c-25.2-22.6-44.9-48.5-59-78.9c-14.4-29.8-21.6-69.9-21.6-119.5c0-52.1,8.7-95.5,26.1-129.8
			c12.9-25.3,30.3-48.2,52.1-68.4c22.2-19.9,44.6-34.9,68-44.9c37.1-15.3,84.5-23.2,142-23.2c80.9,0,142.3,14.8,184.9,44.3
			c42.2,29.2,72.2,72.6,89.3,129.2L3032,209.2c-5.4-21.4-15.6-37.6-30.3-48.5c-15-11.1-34.8-16.6-59.6-16.6
			c-31.5,0-56.6,11.7-76.1,34.6c-19.5,22.9-29.1,57.5-29.1,104.2c0,41.6,9.6,72.9,28.8,94.5c19.2,21.7,43.7,32.2,73.7,32.2
			c24.9,0,45.5-6.3,62.6-19.3C3018.8,377.5,3031.7,357.4,3040.1,330.6L3040.1,330.6z M3829,527.5L3829,527.5h-177.4v-81.6
			c-26.4,33.4-52.7,57.5-79.7,71.7c-27,14.1-59.9,21.4-99.2,21.4c-52.1,0-92.9-16-122.8-47.9c-29.4-31.3-44.3-80.7-44.3-146.6V23.2
			h190.5v277.6c0,31.6,5.7,54.2,17.4,67.4c11.4,13.2,27.6,19.9,48.2,19.9c22.8,0,41.3-9,55.7-26.5c14.4-18.1,21.6-49.7,21.6-95.8
			V23.2h190V527.5L3829,527.5z M3910.2,388.1L3910.2,388.1l188.5-18.1c7.8,22.9,18.6,39.1,32.7,48.8c13.8,9.9,32.4,14.8,55.7,14.8
			c25.5,0,45.2-5.4,59.3-16.6c10.8-8.1,16.2-18.4,16.2-30.7c0-14.2-7.2-24.7-21.3-32.5c-10.5-5.1-37.5-11.7-81.5-19.9
			c-65.9-11.7-111.8-22.6-137.5-32.5c-25.5-10.2-47-27.1-64.7-50.6c-17.4-23.8-26.4-50.9-26.4-81.3c0-33.4,9.6-62,28.5-86.1
			c19.2-24.1,45.2-42.2,78.2-53.9c33.3-11.7,77.9-17.8,133.9-17.8c59,0,102.5,4.5,130.6,13.6c28.2,9.3,51.5,23.8,70.4,43.1
			c18.6,19.3,34.2,45.5,46.7,78.3l-179.8,18.1c-4.8-16.3-12.3-28-23.4-35.5c-15-10.2-33-15.4-53.9-15.4c-21.6,0-37.2,3.9-46.8,11.7
			c-9.9,7.8-14.7,17.2-14.7,28.3c0,12.3,6,21.7,18.6,28c12.3,6.3,39.2,12,80.9,17.2c63.2,7.2,110,17.5,140.8,30.4
			c30.9,12.9,54.2,31.3,70.4,55.4c16.5,24.1,24.6,50.6,24.6,79.5c0,29.2-8.7,57.5-25.8,85.2c-17.4,27.4-44.7,49.1-81.5,65.3
			c-37.2,16.3-87.8,24.4-151.9,24.4c-90.2,0-154.6-13-192.9-39.4C3945.8,473.9,3921.3,436.6,3910.2,388.1L3910.2,388.1z
			 M1328.4,330.6L1328.4,330.6l180.1,20.8c-9.9,38.2-26.1,71.7-48.8,99.7c-22.8,27.7-51.5,49.4-86.9,65
			c-35.1,15.3-80,23.2-134.5,23.2c-52.4,0-96.2-4.8-130.9-14.8c-35.1-10.2-65-26.2-90.2-48.2c-25.2-22.6-44.9-48.5-59-78.9
			c-14.4-29.8-21.6-69.9-21.6-119.5c0-52.1,8.7-95.5,26.1-129.8c12.9-25.3,30-48.2,52.1-68.4c22.2-19.9,44.6-34.9,68-44.9
			c36.9-15.3,84.5-23.2,142-23.2c80.9,0,142.3,14.8,184.9,44.3c42.2,29.2,72.2,72.6,89.3,129.2l-178.6,24.1
			c-5.4-21.4-15.6-37.6-30.6-48.5c-14.7-11.1-34.5-16.6-59.3-16.6c-31.5,0-56.9,11.7-76.1,34.6c-19.5,22.9-29.1,57.5-29.1,104.2
			c0,41.6,9.6,72.9,28.8,94.5c19.2,21.7,43.7,32.2,73.7,32.2c24.9,0,45.5-6.3,62.6-19.3C1307.1,377.5,1320,357.4,1328.4,330.6
			L1328.4,330.6z M2295.2,11.7h-1.2c-86.6,0-155.2,25-206.4,75c-50.9,49.7-76.4,113.2-76.4,190c0,82.8,30.3,149.6,90.5,200.5
			c49.1,40.9,113.3,61.7,193,61.7h0.6V408.6c-27,0-49.1-10.8-67.1-32.5c-18-21.4-26.7-54.5-26.7-99.7c0-44.3,9-77.4,27-99.1
			c17.7-21.4,39.9-32.2,66.8-32.5V11.7L2295.2,11.7L2295.2,11.7z M1597.4,23.2L1597.4,23.2h177.7v82.5
			c17.1-35.5,34.8-60.2,52.7-73.8c18.3-13.6,40.7-20.2,67.4-20.2c27.9,0,58.4,8.7,91.7,26.5l-58.7,137.9
			c-22.2-9.6-39.8-14.2-53-14.2c-24.9,0-44,10.5-57.8,31c-19.5,29.8-29.4,84.9-29.4,165.6v168.9h-190.6V23.2z"/>
	</g>
	<path class="st1" d="M3236.4,868.5v-33.6h4.8c15.2,0,27.4-1.3,35.6-4.8c8.7-3.1,15.2-8.3,20-15.3c4.3-6.6,6.5-14.4,6.5-22.3
		c0-12.2-4.3-21.8-13-29.7c-8.7-7.9-22.1-11.8-40.8-11.8h-13v-27.9h11.3c22.6,0,40,2.6,51.3,7c11.7,4.4,21.3,12.7,28.2,24
		c7,11.8,10.4,24.4,10.4,38.4c0,17.9-5.6,32.7-17.4,45c-11.3,12.7-29.6,20.1-53.5,23.6c8.7,4.4,15.2,8.3,20,12.7
		c9.6,9.2,19.1,20.1,27.8,33.6l43.9,69h-42.1l-33.5-52.8c-9.6-15.3-17.8-26.6-23.9-34.9c-6.5-7.9-12.2-13.5-16.9-16.6
		C3239.9,870.7,3238.1,869.8,3236.4,868.5L3236.4,868.5z M3395.8,976.3L3395.8,976.3V723.1h33.5v253.2H3395.8L3395.8,976.3z
		 M3487.5,976.3L3487.5,976.3V723.1h34.3l132.5,198.7V723.1h32.1v253.2h-34.3l-132.5-198.6v198.6H3487.5L3487.5,976.3z
		 M3860.7,876.8L3860.7,876.8v-29.3l106.9-0.4V941c-16.5,13.1-33,23.1-50.8,29.7c-17.4,6.5-35.2,10-53.4,10
		c-24.8,0-47.4-5.7-67.8-16.2c-20-10.5-35.6-26.2-45.6-46.3c-10.4-20.1-15.6-42.3-15.6-67.2s5.2-47.6,15.2-69
		c10.4-21.4,25.2-37.1,44.3-47.6c19.5-10.5,41.7-15.3,66.9-15.3c18.2,0,34.8,2.6,49.5,8.7c14.8,5.7,26.1,14,34.3,24.9
		c8.7,10.5,14.8,24,19.5,41l-30.4,8.3c-3.9-12.7-8.2-22.7-13.9-30.1c-5.6-7.4-13.9-13.5-24.3-17.9c-10.4-4.4-22.2-6.6-34.8-6.6
		c-15.2,0-28.2,2.6-39.5,7c-11.3,4.8-20,10.9-26.9,18.3c-6.9,7.9-12.2,16.2-16.1,25.3c-6.1,15.3-9.6,32.3-9.6,50.6
		c0,22.7,3.9,41.5,11.7,56.8c7.8,15.3,19.1,26.2,33.9,33.6c14.8,7.4,30.4,11.4,46.9,11.4c14.8,0,28.7-3.1,42.6-8.7
		c13.9-5.2,24.3-11.3,31.3-17.9v-47.2H3860.7L3860.7,876.8z M4005.4,895.1L4005.4,895.1l31.7-3.1c1.3,12.7,4.8,23.1,10.4,31.4
		c5.2,7.9,13.9,14.4,25.2,19.7c11.7,4.8,24.3,7.4,38.7,7.4c13,0,24.3-2.2,33.9-5.7c10-3.9,16.9-9.2,21.7-15.7
		c4.8-6.5,7.4-14,7.4-21.8c0-7.9-2.2-14.8-6.9-20.5c-4.8-6.1-12.2-10.9-22.6-14.8c-6.9-2.6-21.7-7-45.2-12.7
		c-23-5.2-39.5-10.5-48.7-15.7c-12.2-6.1-20.9-14-26.9-23.6c-6.1-9.2-8.7-19.7-8.7-31.4c0-12.7,3.5-24.4,10.9-35.8
		c7-10.9,17.8-19.7,31.3-25.3c13.9-5.7,29.6-8.3,46.5-8.3c18.7,0,35.2,2.6,49.5,8.7c14.3,6.1,25.2,14.8,33,26.6
		c7.8,11.8,11.7,25.3,12.2,40.2l-31.7,2.2c-1.7-15.7-7.8-27.9-17.8-36.2c-9.5-8.3-24.3-12.2-43.9-12.2c-20,0-34.7,3.9-43.9,11.3
		c-9.6,7.4-13.9,16.2-13.9,26.6c0,9.2,3,16.6,9.6,22.3c6.5,6.1,23.5,12.2,50.4,18.3c27.4,6.1,46,11.4,56.1,16.2
		c14.8,6.5,25.6,15.3,32.6,25.8c7,10.5,10.4,22.3,10.4,35.8c0,13.5-3.9,26.2-11.7,38c-7.4,12.2-18.7,21.4-33,27.9
		c-14.3,6.5-30.4,10-48.7,10c-22.6,0-42.1-3.5-57.3-10c-15.6-7-27.4-17-36.5-30.1C4010.6,927,4005.8,911.7,4005.4,895.1
		L4005.4,895.1z M3236.4,723.1H3136v253.2h33.4V864.1h38.7c8.7,0,14.8,0,18.7,0.9c3,0.9,6.5,2.2,9.6,3.5v-33.6h-66.9V751h66.9V723.1
		L3236.4,723.1L3236.4,723.1z M2501.3,980.7L2501.3,980.7v-28.8c25.2,0,45.6-8.7,62.1-26.6c16.1-17.5,24.3-42.8,24.3-75.5
		c0-20.5-3.5-38.4-10.4-53.7c-7-15.3-17.4-27.1-30.4-35.8c-13.5-8.3-28.7-12.7-45.2-12.7h-0.4v-28.8h0.4c23,0,44.3,5.7,63,16.6
		c18.7,11.4,32.6,27.1,42.6,46.7c10,20.1,14.8,42.8,14.8,68.1c0,25.8-5.2,48.5-15.7,69c-10.4,20.1-24.8,35.4-43.9,45.8
		C2543.9,975.5,2523.5,980.7,2501.3,980.7L2501.3,980.7z M2737.2,976.3L2737.2,976.3l-97.7-253.2h36.1l65.6,183.8
		c5.2,14.9,9.6,28.8,13.5,41.5c3.9-13.5,8.2-27.5,13.5-41.5l68.2-183.8h33.9l-98.6,253.2H2737.2L2737.2,976.3z M2901,976.3
		L2901,976.3V723.1h182.5v30.1h-149v77.3h139.5v29.7h-139.5v86h154.7v30.1H2901L2901,976.3z M2501.3,718.7
		c-35.6,0-64.3,12.2-86.9,35.8c-22.6,23.6-33.9,56.3-33.9,98.7c0,21.8,4.8,43.2,14.8,62.9c9.6,20.1,23.5,35.8,42.6,47.2
		c18.7,11.8,39.5,17.5,63.4,17.5v-28.8c-24.8,0-45.2-8.7-61.7-26.2c-16.5-17.4-24.3-41.5-24.3-72c0-38,8.3-65.5,25.2-81.7
		c16.9-16.2,37.4-24.4,60.8-24.4V718.7L2501.3,718.7L2501.3,718.7z M1596.8,899.5L1596.8,899.5v-27.1h42.6l-26.1-70.3
		c-7.4-18.8-12.6-34.5-16.5-47.2v-31.9h17.4l103.4,253.2h-38.2l-29.5-76.8H1596.8L1596.8,899.5z M1742.8,976.3L1742.8,976.3V723.1
		h33.5v223.1h124.2v30.1H1742.8L1742.8,976.3z M1938.7,976.3L1938.7,976.3V723.1h33.5v223.1h124.2v30.1H1938.7L1938.7,976.3z
		 M2316.2,887.7L2316.2,887.7l33.4,8.3c-6.9,27.5-19.5,48.5-37.8,62.9c-18.3,14.4-40.4,21.8-66.9,21.8c-26.9,0-49.1-5.7-66-16.6
		c-17.4-11.3-30-27.5-39.1-48.5c-8.7-21-13.5-43.7-13.5-67.7c0-26.6,5.2-49.3,15.2-69c10-19.6,24.3-34.5,43-44.5
		c18.3-10.5,38.7-15.3,61.3-15.3c25.2,0,46.5,6.1,63.4,19.2c17.4,12.7,29.1,31,36.1,54.1l-33,7.8c-5.6-18.3-14.3-31.9-25.2-40.2
		c-11.3-8.3-25.2-12.7-42.1-12.7c-19.5,0-35.6,4.8-48.7,14c-13,9.6-22.2,21.8-27.4,37.6c-5.2,15.7-7.8,31.9-7.8,48.5
		c0,21.8,3,40.6,9.1,56.3c6.5,16.2,16.1,28.4,29.1,36.2c13.5,7.8,27.8,11.8,43,11.8c18.7,0,34.8-5.2,47.4-16.2
		C2302.8,924.8,2311.9,908.7,2316.2,887.7L2316.2,887.7z M1486,723.1L1486,723.1h4.8L1486,741V723.1L1486,723.1z M1596.8,723.1
		L1596.8,723.1h-18.7L1486,963.7v12.7h30.4l27.8-76.8h52.6v-27.1h-43l27.8-74.2c6.1-16.2,10.4-32.3,13.9-48.5
		c0.4,1.7,0.9,3.5,1.3,5.2V723.1L1596.8,723.1z M1233.2,976.3h34.3l53.4-193c2.2-7.9,4.8-17.9,7.4-29.7c0.9,3.9,3.5,13.5,7.8,29.7
		l53.4,193h32.1L1486,741v-17.9h-28.7l-39.5,162.8c-5.2,20.5-9.6,38.9-12.6,55c-4.3-27.9-10.9-58.1-19.5-89.5l-36.5-128.4h-40
		L1261,894.2c-1.3,3.9-4.8,19.6-11.3,46.7c-3-17.5-6.5-34.5-10.9-51.9l-38.2-165.9h-34.3L1233.2,976.3L1233.2,976.3L1233.2,976.3z
		 M1486,963.7v12.7h-4.8L1486,963.7L1486,963.7z"/>
</g>
<g>
</g>
<g>
</g>
<g>
</g>
<g>
</g>
<g>
</g>
<g>
</g>
</svg>
