<?xml version="1.0" encoding="utf-8"?>
<!-- Generator: Adobe Illustrator 19.2.1, SVG Export Plug-In . SVG Version: 6.00 Build 0)  -->
<svg version="1.1" id="Layer_1" xmlns="http://www.w3.org/2000/svg" xmlns:xlink="http://www.w3.org/1999/xlink" x="0px" y="0px"
	 viewBox="0 0 200 200" style="enable-background:new 0 0 200 200;" xml:space="preserve">
<style type="text/css">
	.st0{fill:#FFFFFF;}
</style>
<path class="st0" d="M196.2,93.2c0,0.1-0.1,0.2-0.3,0.2h-0.4v2.1c0,0.2-0.1,0.3-0.3,0.3c-0.2,0-0.3-0.1-0.3-0.3v-2.1h-0.4
	c-0.2,0-0.3-0.1-0.3-0.2c0-0.1,0.1-0.2,0.3-0.2h1.3C196.1,93,196.2,93.1,196.2,93.2L196.2,93.2z M199.3,95.6l-0.3-2.2
	c0-0.1-0.1-0.2-0.1-0.3c-0.1-0.1-0.2-0.1-0.3-0.1c-0.2,0-0.3,0.1-0.3,0.3l-0.5,1.8h0l-0.5-1.8c0-0.2-0.2-0.3-0.3-0.3
	c-0.1,0-0.2,0-0.3,0.1c-0.1,0.1-0.1,0.1-0.1,0.3l-0.3,1.9l0,0.3c0,0,0,0.1,0,0.1c0,0.2,0.1,0.3,0.2,0.3c0.1,0,0.2,0,0.2-0.1
	c0,0,0-0.1,0.1-0.2l0.3-1.9l0,0l0.5,1.8c0,0.2,0.2,0.3,0.3,0.3s0.3-0.1,0.3-0.3l0.5-1.8l0,0l0.3,1.9c0,0.1,0,0.2,0.1,0.2
	c0,0,0.1,0.1,0.2,0.1c0.1,0,0.1,0,0.2,0C199.3,95.7,199.3,95.7,199.3,95.6z"/>
<path class="st0" d="M22.2,82.2c2.8,0.7,6.4,3,5,6.3c-1.3,3.2-2.7,0.2-4.3,2.3c-1.6,2.1,0.2,5.5,3.5,5.4s5.9-1.9,6.3-5.2
	c0.3-3.4-2.2-7.3-6.2-8.5C25.5,82.1,23.5,81.9,22.2,82.2L22.2,82.2z M25.4,85.7c-8.9,1.6-15.6,13.4-13.7,21.9c1.5,6.6,7,8.4,12.6,5
	C9.1,126.3-5,111.1,3.1,95.2C7.1,87.3,16.9,81.8,25.4,85.7L25.4,85.7z M28.3,108c-2.9,4.7-4.7-1.9-1.9-5.1c-2.3,1.3-2.9,7.8-0.2,7.8
	c2,0,5-7.9,6.1-9.9c0.2-0.4,0.7-0.9,1.1-1.4c0.3-0.3,1.6-0.9,1.6,0.3s-2,7.2-2.2,9c-0.2,1.5,0.6,1.8,2,1.9c1.9,0.1,4.1-1.8,5-3.3
	c-0.8,0.6-1.1,0.8-1.7,0.9c-0.6,0.1-0.9-0.3-1-0.9c-0.2-2.8,3-8.2,1.5-9.6c-1.5-1.4-3.1-0.9-3.8-0.5C32.2,98.7,30,105.3,28.3,108
	L28.3,108z M109.1,101.5c0.4-0.8,0.8-1.3,1.4-2c0.3-0.3,1.6-0.9,1.6,0.3c0,1.3-2,7.2-2.2,9c-0.2,1.5,0.6,1.8,2,1.9
	c1.9,0.1,4.1-1.8,5-3.3c-0.8,0.6-1.1,0.8-1.7,0.9c-0.6,0.1-0.9-0.3-1-0.9c-0.2-2.8,3-8.2,1.5-9.6c-1.5-1.4-3.1-0.9-3.8-0.5
	c-1.1,0.6-2.1,2.2-3.1,4.1c-3.5-0.5-5.4,0.3-6.7,3.6c-0.9,2.4-0.6,5.7,1.3,5.7c1.5,0,3.6-4.5,5-7.6c0.9,0.1,1.4,0.3,1.5,0.9
	c0.1,0.5-0.4,1.7-0.8,2.3c0.7-0.4,2.6-3.4,1.9-4.1C110.6,101.9,109.6,101.6,109.1,101.5L109.1,101.5z M107.8,103.1
	c-0.9,1.9-1.9,3.7-2.4,5c-1,2.2-3.6-1.9-1.9-4.2C104.1,103,106.3,102.9,107.8,103.1L107.8,103.1z M42.4,102c-1.1,2.8-1.2,5.4-0.2,7
	c1.6,2.6,6.3,2.3,9.4-1.5c0.7-0.9,2-2.9,2.6-4.9c0.9-2.7,0.9-5.3-1.6-4.8c-1.9,0.3-3.8,2.6-4.4,4.2c-0.1,0.3,0.5-0.8,0.8-1.2
	c2.1-3.4,4.6-1.4,3.9,1.7c-0.4,1.8-1.5,3.8-2.2,4.7c-1.4,1.7-4.1,3.7-5.4,1.8c-1.9-2.8,2-11,5.6-11.6C46.4,95.4,43.7,98.6,42.4,102
	L42.4,102z M68.1,102c-1.1,2.8-1.2,5.4-0.2,7c1.6,2.6,6.3,2.3,9.4-1.5c0.7-0.9,2-2.9,2.6-4.9c0.9-2.7,0.9-5.3-1.6-4.8
	c-1.9,0.3-3.8,2.6-4.4,4.2c-0.1,0.3,0.5-0.8,0.8-1.2c2.1-3.4,4.6-1.4,3.9,1.7c-0.4,1.8-1.5,3.8-2.2,4.7c-1.4,1.7-4.1,3.7-5.4,1.8
	c-1.9-2.8,2-11,5.6-11.6C72.2,95.4,69.5,98.6,68.1,102L68.1,102z M66.3,95.8c-0.6-0.5-4.2,0.8-4.7,1c-1.1,0.3-2.7,1-3.6,1.2
	c-1,0.2-2.2,0.1-2.2-1.2c0-1.2,1.3-2.2,2.2-2.8c-0.5,0.5-0.6,0.6-0.6,0.9c-0.2,0.5,0.2,0.8,0.7,0.7c2.2-0.4,7.5-4.7,9.6-2.4
	c1.1,1.2-0.5,3.7-1.5,4.6C66.6,96.8,66.9,96.3,66.3,95.8L66.3,95.8z M58.1,97.9l-0.4,0.1c-0.5,1.6-1.9,7.3-2.3,9.3
	c-0.3,1.6,0.3,3.2,2.2,3.4c5,0.4,8.8-5.6,7.6-9.9c-0.6-2-4.9-1.7-5.8-0.3l-0.3,2.8c1-1.1,4.9-1.3,4,1.4c-0.8,2.4-6.7,3.9-6.7,0.5
	C56.4,103.6,57.8,99.2,58.1,97.9L58.1,97.9z M94.7,95.4c-0.4,1.4-1.3,4.5-2.6,7.4c2.6-1.3,6.1-5.2,7.9-6c3-1.3,2.2,2.6,1.1,3.7
	c1-3.8-4.4,0-7,2.5c-0.1,0.3,1.2,2,1.8,2.8c0.9,1.1,2.1,2,3.1,1.6c0.5-0.2,1.1-0.2,1.6-0.6c-3.7,7.2-5.4,3.5-8.9-2.1
	c-0.6,2.5-0.9,5.1-1.6,6.7c-1.1,0.2-2.5,0.2-3.2,0c0.3-1.9,0.9-3.9,1.4-5.4c-1,1.1-3.3,2.8-5.4,3.9c-0.9,0.5-1.6,0.8-2.3,0.8
	c-0.6,0-1.2,0-1-0.9s1.1-3.2,1.9-3.8c-0.6,5.8,6.5-0.7,6.8-1.3c-1-1.8-3.9-7.8-4.9-5.4c-0.5-1.7,1.7-4.1,3.3-3.2
	c0.7,0.4,2.1,2.8,2.8,4.6c0.5-1.9,1.1-4.1,1.8-5.1C92.3,95.2,94,95.1,94.7,95.4L94.7,95.4z M125,103.5c-1,2.1-2.2,4.4-2.7,5.4
	c-0.4,0.9-1.1,2-2.2,1.8c-3.9-0.7-3.5-7.4,0.6-8.5c0.9-0.2,2.5-0.4,4.2-0.5c0.2-1.2,0.1-2.8-0.8-3.6c-0.2-0.2-2.3-1-1.2-1.3
	c0.5-0.1,1.8-0.2,2.5-0.1c1.9,0.2,2.1,0.8,1.4,2.6c-0.2,0.4-0.5,1.5-0.8,2.3c1,0,2-0.1,2.9-0.1c0.5-1.5,1.2-3.4,1.4-4.2
	c2.2-0.4,2.3-0.3,3.3,0c-0.3,0.9-1,2.7-1.5,4.2c0.2,0,0.3,0,0.4,0c3.6,0,1.1,4.6-0.4,5.8c0.5-1,2.6-4-0.2-4c-0.2,0-0.4,0-0.6,0
	c-0.7,2.1-1.5,4.1-1.7,5.1c-0.9,3.7,3.7,0.8,4.8-0.3c-1.3,1.7-4.1,3.1-6.2,2.3c-1.6-0.6-1.8-1.5-1.3-3.1c0.2-0.9,0.7-2.4,1.3-4
	C127.1,103.4,126,103.5,125,103.5L125,103.5z M124.3,103.6c-0.7,1.7-1.8,3.5-2.3,4.6c-0.9,2.1-5.1-3.2-1.3-4.2
	C121.5,103.7,122.8,103.6,124.3,103.6L124.3,103.6z M143.6,105.8c1.1-0.6,3.6-2.1,4.4-3.3c5-7.8-8.3-9.2-11.4,1.9
	c-0.8,3.1,0.5,6.3,4,6.3c2.7,0,5.1-1.7,6.5-3.8c-1.4,1.4-5.3,3.9-6.9,1.7c-2.2-3.1,6.9-17.9,6.7-8.2
	C146.7,102.1,144.8,104.7,143.6,105.8L143.6,105.8z M148.3,110.7c0.8-3.1,3.3-10.8,4.5-13.5c1.2-0.5,3.6-0.5,3.7,0.1
	c-0.4,1.3-1,2.5-1.8,4.3c1.9-1.4,4.4-4.7,7.5-4.7c2.2,0,1.3,2.9,0.2,4.8c0.1-1.6-0.1-2.6-1.5-2.7c-1.4-0.1-3.6,2.1-4.6,3.2
	c0.4,1.2,2.4,5.4,3.6,5.8c0.8,0.2,1.4,0.6,3.1-0.6c-0.5,1.2-2.5,3.4-3.8,3.4c-2.3-0.1-4.4-4.7-5.1-6.6c-0.7,1.9-1.4,4.2-2.2,6.6
	C150.7,110.7,149.9,110.7,148.3,110.7L148.3,110.7z M178.5,106.9c-0.9,1-3,3.7-2.5,0.9c0.3-1.5,2.4-6.7,3.3-10.6
	c-0.3-0.6-2.4-0.4-3.4,0c-0.5,2.1-1.9,5.9-2.6,8.2c-1.7,1.7-4.6,3.9-5,3.5c-1-0.9,3.7-7.7,2.7-10.7c-0.9-3-4.4-0.9-6,2.1
	c0.3-0.3,3-3.8,3.6-2.6c0.8,1.7-6.1,12.8-3.4,13c1.7,0.1,7-3.2,8-4.8c-0.3,0.8-1,2.8-0.8,3.7c0.2,0.9,0.5,1,1.2,1.2
	C175.2,111,178.1,108.2,178.5,106.9L178.5,106.9z M191.2,106.9c-1.5,1.8-5.9,4.1-8.3,3.8c-2.1-0.3-2.4-1.6-1.9-3.1
	c0.5-1.6,4.1-2.9,3.8-3.7c-0.2-0.6-5,1.3-4.2-2.2c0.9-4.1,10.1-6.7,13-5.7c1.6,0.6,1.6,2.7,0.4,3.7c-1.4,1.1-2.9,1.9-5.9,2.2
	c2.9-0.9,6.6-5.8,3.8-5.8c-2,0-7.2,4.7-7.1,6.3c0.1,1.8,2.1,0.6,3.1,1.1c2.1,1.2-4.3,4.7-4.7,5.7
	C181.9,112.4,190.6,107.9,191.2,106.9z"/>
<g>
	<rect x="26.9" y="111.9" class="st0" width="162" height="1.5"/>
	<path class="st0" d="M188.9,113.5H26.9v-1.6h162.1V113.5z M26.9,113.4h161.9v-1.5H26.9V113.4z"/>
</g>
</svg>
