<?xml version="1.0" encoding="utf-8"?>
<!-- Generator: Adobe Illustrator 19.2.1, SVG Export Plug-In . SVG Version: 6.00 Build 0)  -->
<svg version="1.1" id="Ñëîé_2" xmlns="http://www.w3.org/2000/svg" xmlns:xlink="http://www.w3.org/1999/xlink" x="0px" y="0px"
	 viewBox="0 0 992 567" style="enable-background:new 0 0 992 567;" xml:space="preserve">
<style type="text/css">
	.st0{fill-rule:evenodd;clip-rule:evenodd;fill:#E50046;}
	.st1{fill-rule:evenodd;clip-rule:evenodd;fill:#E50046;stroke:#E50046;stroke-width:0.2154;stroke-miterlimit:22.9256;}
</style>
<g>
	<path class="st0" d="M912.1,111.6c0,0.6-0.4,1-1.3,1h-1.7v8.9c0,0.9-0.4,1.3-1.1,1.3c-0.7,0-1.1-0.4-1.1-1.3v-8.9h-1.7
		c-0.9,0-1.3-0.3-1.3-1c0-0.6,0.4-1,1.3-1h5.4C911.6,110.6,912.1,111,912.1,111.6L912.1,111.6z M925.2,121.7l-1.4-9.7
		c-0.1-0.4-0.3-0.8-0.6-1.1c-0.3-0.3-0.7-0.4-1.1-0.4c-0.8,0-1.3,0.4-1.5,1.2l-2.1,7.8l-0.1,0l-2.1-7.8c-0.2-0.8-0.7-1.2-1.5-1.2
		c-0.4,0-0.8,0.1-1.1,0.4c-0.3,0.3-0.5,0.6-0.6,1.1l-1.2,8l-0.2,1.3c0,0.2,0,0.4,0,0.4c0,0.7,0.3,1.1,0.9,1.1c0.4,0,0.7-0.1,0.8-0.3
		c0.1-0.2,0.2-0.5,0.3-0.9l1.1-8.1h0l2.2,7.9c0.2,0.8,0.7,1.3,1.3,1.3s1.1-0.4,1.3-1.3l2.2-7.9h0l1.1,8.1c0.1,0.4,0.1,0.7,0.3,0.9
		c0.2,0.2,0.4,0.4,0.8,0.4c0.3,0,0.5-0.1,0.7-0.2C925.2,122.3,925.3,122,925.2,121.7z"/>
	<path class="st0" d="M160.9,63.8c12.2,3,27.5,13.1,21.7,27.1c-5.8,14-11.7,0.8-18.5,9.8c-6.8,9,0.7,23.7,15.3,23.5
		c14.6-0.2,25.6-8,27.2-22.6c1.5-14.6-9.7-31.4-26.8-36.8C175.1,63.3,166.3,62.6,160.9,63.8L160.9,63.8z M174.5,79
		c-38.4,6.9-67.3,57.8-59.1,94.5c6.3,28.5,30.1,36.4,54.3,21.8c-65.3,59.2-126.2-6.6-91.3-75.1C95.7,86.1,137.9,62.2,174.5,79
		L174.5,79z M187.3,175.4c-12.4,20.5-20.2-8.1-8-21.9c-10,5.5-12.6,33.5-0.8,33.5c8.5,0,21.8-34.3,26.3-42.6c1-1.9,3-4,4.7-6
		c1.2-1.4,6.8-4,6.9,1.5c0.1,5.5-8.6,31.2-9.7,38.9c-0.9,6.4,2.4,7.9,8.8,8.1c8.3,0.3,17.5-7.9,21.6-14.3c-3.3,2.7-4.8,3.6-7.5,3.9
		c-2.6,0.3-4.1-1.1-4.4-4c-0.9-12.1,13-35.6,6.3-41.6c-6.6-6-13.5-3.9-16.6-2.1C204.1,135.3,194.4,163.6,187.3,175.4L187.3,175.4z
		 M535.8,147.2c1.6-3.5,3.6-5.8,6.1-8.7c1.2-1.4,6.8-4,6.9,1.5c0.1,5.5-8.6,31.2-9.7,38.9c-0.9,6.4,2.4,7.9,8.8,8.1
		c8.3,0.3,17.5-7.9,21.6-14.3c-3.3,2.7-4.8,3.6-7.5,3.9c-2.6,0.3-4.1-1.1-4.4-4c-0.9-12.1,13-35.6,6.3-41.6
		c-6.6-6-13.5-3.9-16.6-2.1c-4.7,2.8-9.2,9.7-13.3,17.7c-15.3-2.2-23.5,1.4-28.8,15.7c-3.8,10.2-2.7,24.6,5.7,24.6
		c6.3,0,15.4-19.5,21.4-32.6c3.9,0.6,6.2,1.5,6.6,4c0.4,2-1.6,7.2-3.4,10.1c3.1-1.6,11.1-14.5,8.3-17.8
		C542.4,148.9,538.2,147.7,535.8,147.2L535.8,147.2z M530.2,154c-3.8,8-8,16.1-10.4,21.4c-4.2,9.3-15.5-8-8.1-18.1
		C514.4,153.5,524,153.1,530.2,154L530.2,154z M247.9,149.4c-4.9,12.2-5.1,23.2-0.8,30.1c6.8,11.1,27.4,10.1,40.5-6.3
		c3-3.8,8.5-12.6,11.4-21.2c3.9-11.5,3.8-22.7-6.8-20.7c-8,1.4-16.3,11.2-19,18.2c-0.5,1.4,2.3-3.3,3.4-5
		c9.1-14.6,19.8-6.2,16.9,7.2c-1.6,7.7-6.4,16.6-9.5,20.4c-6.1,7.4-17.9,15.9-23.4,7.6c-8-11.9,8.7-47.5,24.2-50
		C265.5,120.9,253.8,134.9,247.9,149.4L247.9,149.4z M359.1,149.4c-4.9,12.2-5.1,23.2-0.8,30.1c6.8,11.1,27.4,10.1,40.5-6.3
		c3-3.8,8.5-12.6,11.4-21.2c3.9-11.5,3.8-22.7-6.8-20.7c-8,1.4-16.3,11.2-19,18.2c-0.5,1.4,2.3-3.3,3.4-5
		c9.1-14.6,19.8-6.2,16.9,7.2c-1.6,7.7-6.4,16.6-9.5,20.4c-6.1,7.4-17.9,15.9-23.4,7.6c-8-11.9,8.7-47.5,24.2-50
		C376.6,120.9,365,134.9,359.1,149.4L359.1,149.4z M351.3,122.7c-2.4-2.1-18,3.6-20.3,4.3c-4.9,1.4-11.6,4.5-15.4,5.3
		c-4.5,1-9.5,0.4-9.6-5.3c-0.1-5.3,5.7-9.3,9.6-11.9c-2,2.2-2.4,2.6-2.8,3.7c-0.8,2.1,1,3.4,3,3c9.5-1.9,32.3-20.5,41.5-10.5
		c4.6,5-2,16-6.5,19.8C352.5,127,353.7,124.8,351.3,122.7L351.3,122.7z M315.6,131.9l-1.7,0.5c-2,6.9-8.4,31.6-9.8,40.1
		c-1.2,7.1,1.2,13.9,9.5,14.5c21.7,1.8,38.1-24.3,32.6-42.9c-2.6-8.7-21.3-7.3-25-1.5l-1.4,12.3c4.3-4.7,21.1-5.4,17.4,6.1
		c-3.3,10.2-29,17-28.9,2.3C308.3,156.2,314.6,137.4,315.6,131.9L315.6,131.9z M473.7,120.8c-1.6,6.2-5.6,19.3-11.1,31.9
		c11.3-5.6,26.4-22.3,34-25.7c13-5.8,9.7,11.1,4.6,15.9c4.2-16.3-18.9-0.1-30.1,10.6c-0.3,1.4,5.1,8.7,7.8,11.9
		c4,4.9,9.1,8.5,13.4,7.1c2.2-0.7,4.8-0.7,7-2.7c-16,30.9-23.3,15.2-38.3-8.9c-2.4,10.7-3.9,21.9-6.8,29c-4.7,1-10.7,0.8-13.8-0.2
		c1.3-8.3,4-16.8,6.1-23.1c-4.3,4.8-14.1,12.2-23.1,16.7c-4,2-7.1,3.6-9.9,3.5c-2.7-0.1-5.2,0.1-4.4-3.9c0.8-4,4.7-13.7,8.4-16.4
		c-2.7,25.1,27.9-2.9,29.2-5.4c-4.2-7.8-16.9-33.7-21.1-23.2c-2-7.5,7.3-17.7,14.3-13.7c3.2,1.9,9.1,11.9,12.1,20
		c2-8.4,4.8-17.5,7.6-21.9C463.6,120.2,470.7,119.8,473.7,120.8L473.7,120.8z M604.6,155.9c-4.4,9.1-9.4,19.1-11.7,23.5
		c-1.9,3.7-4.6,8.5-9.6,7.6c-17-2.9-14.9-32.1,2.6-36.6c4-1,10.7-1.7,18.1-2.1c1-5.3,0.3-12-3.6-15.5c-0.8-0.7-9.9-4.5-5.3-5.4
		c2.2-0.5,7.7-0.7,10.7-0.4c8.1,1,9.1,3.5,6,11.2c-0.8,1.9-2,6.6-3.5,9.8c4.2-0.2,8.5-0.3,12.6-0.4c2.3-6.6,5-14.5,6.2-18.2
		c9.5-1.6,10.1-1.3,14.4,0c-1.3,3.7-4.2,11.5-6.6,18.1c0.7,0,1.4,0,1.9,0c15.7,0.1,4.6,20-1.6,25.1c2.1-4.2,11.1-17.3-0.7-17.3
		c-0.7,0-1.6,0-2.5,0c-3.2,8.9-6.3,17.6-7.4,22.1c-3.9,16.1,15.9,3.4,20.9-1.4c-5.6,7.4-17.7,13.2-26.9,9.8
		c-6.9-2.5-7.6-6.6-5.8-13.4c1-3.7,3.1-10.2,5.4-17.1C613.9,155.6,609.1,155.7,604.6,155.9L604.6,155.9z M601.7,156.1
		c-3,7.4-7.6,14.9-9.8,20c-3.9,8.9-21.9-13.7-5.7-18.2C589.3,156.9,595,156.4,601.7,156.1L601.7,156.1z M684.9,165.7
		c4.7-2.5,15.4-9,18.9-14.4c21.4-33.8-36-39.9-49.2,8.3c-3.6,13.2,2.2,27.3,17.1,27.4c11.6,0.1,21.9-7.3,28-16.6
		c-6,5.9-22.9,17-29.8,7.3c-9.5-13.2,29.9-77.2,28.9-35.6C698.5,149.7,689.9,160.9,684.9,165.7L684.9,165.7z M705.4,187
		c3.6-13.3,14.4-46.6,19.4-58.2c5.3-2.3,15.5-2.3,16,0.3c-1.8,5.4-4.3,10.8-7.8,18.5c8-6.1,19.1-20.2,32.4-20.5
		c9.6-0.2,5.8,12.5,0.8,20.7c0.5-7.1-0.5-11.2-6.6-11.6c-6.1-0.5-15.4,8.9-20,14c1.8,5.3,10.2,23.3,15.7,24.9c3.3,1,6,2.4,13.2-2.6
		c-2,5-11,14.8-16.6,14.6c-10-0.4-19.2-20.3-21.9-28.5c-3,8.3-6.2,18.3-9.5,28.5C715.7,187,712.1,187,705.4,187L705.4,187z
		 M835.8,170.4c-3.9,4.2-12.9,15.8-11,4c1.1-6.4,10.2-28.8,14.3-45.8c-1.4-2.6-10.5-1.6-14.6,0c-2,8.9-8.1,25.3-11.4,35.5
		c-7.4,7.3-19.9,16.8-21.5,15.3c-4.3-3.9,15.9-33.1,11.7-46c-4.1-12.9-18.9-3.9-26,8.9c1.3-1.5,13.1-16.4,15.4-11.4
		c3.5,7.3-26.2,55.3-14.7,56.1c7.4,0.5,30.1-14,34.5-20.9c-1.1,3.4-4.3,12.1-3.6,16c0.7,3.9,2.3,4.5,5,5
		C821.2,188.2,833.7,176.3,835.8,170.4L835.8,170.4z M890.6,170.7c-6.4,7.9-25.6,17.8-35.8,16.3c-9-1.3-10.5-6.7-8.2-13.5
		c2.3-6.7,17.9-12.4,16.5-16c-1-2.8-21.6,5.6-18.3-9.3c3.9-17.6,43.4-29.1,56.3-24.7c7,2.4,6.9,11.5,1.6,15.9
		c-5.9,4.9-12.7,8.1-25.6,9.6c12.5-3.9,28.4-25.1,16.5-25c-8.8,0-31,20.4-30.6,27.1c0.4,7.6,8.9,2.5,13.3,4.8
		c9.2,5-18.7,20.1-20.4,24.5C850.4,194.4,887.7,175,890.6,170.7z"/>
	<rect x="181.1" y="192.1" class="st1" width="699.3" height="6.6"/>
</g>
</svg>
