<?xml version="1.0" encoding="utf-8"?>
<!-- Generator: Adobe Illustrator 18.0.0, SVG Export Plug-In . SVG Version: 6.00 Build 0)  -->
<!DOCTYPE svg PUBLIC "-//W3C//DTD SVG 1.1//EN" "http://www.w3.org/Graphics/SVG/1.1/DTD/svg11.dtd">
<svg version="1.1" id="Layer_1" xmlns="http://www.w3.org/2000/svg" xmlns:xlink="http://www.w3.org/1999/xlink" x="0px" y="0px"
	 viewBox="0 0 200 200" enable-background="new 0 0 200 200" xml:space="preserve">
<g id="Layer_x0020_1">
	<path fill="#929292" d="M20.4,119.4V72.7h19.2c3.9,0,7,0.5,9.4,1.4c2.3,0.9,4.2,2.4,5.5,4.4c1.3,2,2,4,2,6.2c0,2-0.6,3.9-1.8,5.6
		c-1.2,1.8-3,3.2-5.4,4.3c3.1,0.8,5.5,2.2,7.1,4.2c1.7,2,2.5,4.3,2.5,7.1c0,2.2-0.5,4.2-1.5,6.1c-1,1.9-2.3,3.3-3.7,4.3
		c-1.5,1-3.4,1.8-5.6,2.3c-2.3,0.5-5,0.8-8.2,0.8H20.4z M27.2,92.4h11c3,0,5.1-0.2,6.4-0.5c1.7-0.5,3-1.2,3.9-2.3
		c0.9-1.1,1.3-2.4,1.3-4.1c0-1.6-0.4-2.9-1.2-4.1s-2-2-3.5-2.4c-1.5-0.4-4.1-0.6-7.8-0.6H27.2V92.4z M27.2,113.9h12.7
		c2.2,0,3.7-0.1,4.6-0.2c1.5-0.2,2.8-0.7,3.9-1.3s1.9-1.5,2.6-2.6c0.7-1.1,1-2.5,1-3.9c0-1.8-0.5-3.3-1.5-4.6
		c-1-1.3-2.3-2.2-4.1-2.7c-1.7-0.5-4.2-0.8-7.5-0.8H27.2V113.9z M92.7,108.5l6.5,0.8c-1,3.4-2.9,6.1-5.7,8
		c-2.8,1.9-6.3,2.9-10.6,2.9c-5.4,0-9.7-1.5-12.8-4.6c-3.2-3-4.7-7.3-4.7-12.8c0-5.7,1.6-10.1,4.8-13.2c3.2-3.1,7.3-4.7,12.4-4.7
		c4.9,0,9,1.5,12.1,4.6c3.1,3.1,4.7,7.4,4.7,13c0,0.3,0,0.8,0,1.5H71.8c0.2,3.7,1.4,6.6,3.4,8.5c2.1,2,4.6,3,7.7,3
		c2.3,0,4.2-0.6,5.9-1.7C90.5,112.7,91.8,110.9,92.7,108.5z M72.2,99.3h20.6c-0.3-2.8-1.1-5-2.4-6.4c-2-2.2-4.6-3.3-7.7-3.3
		c-2.9,0-5.3,0.9-7.3,2.6C73.5,94,72.4,96.3,72.2,99.3z M107.1,119.4V85.6h5.6v5.2c1.4-2.4,2.8-4,4-4.8c1.2-0.8,2.6-1.1,4-1.1
		c2.1,0,4.3,0.6,6.5,1.8l-2.2,5.3c-1.5-0.8-3-1.2-4.6-1.2c-1.4,0-2.6,0.4-3.7,1.1c-1.1,0.8-1.9,1.8-2.3,3.1c-0.7,2-1,4.3-1,6.7v17.7
		H107.1z M156.1,108.5l6.5,0.8c-1,3.4-2.9,6.1-5.7,8c-2.8,1.9-6.3,2.9-10.6,2.9c-5.4,0-9.7-1.5-12.8-4.6c-3.2-3-4.7-7.3-4.7-12.8
		c0-5.7,1.6-10.1,4.8-13.2c3.2-3.1,7.3-4.7,12.4-4.7c4.9,0,9,1.5,12.1,4.6c3.1,3.1,4.7,7.4,4.7,13c0,0.3,0,0.8,0,1.5h-27.6
		c0.2,3.7,1.4,6.6,3.4,8.5c2.1,2,4.6,3,7.7,3c2.3,0,4.2-0.6,5.9-1.7C153.9,112.7,155.2,110.9,156.1,108.5z M135.6,99.3h20.6
		c-0.3-2.8-1.1-5-2.4-6.4c-2-2.2-4.6-3.3-7.7-3.3c-2.9,0-5.3,0.9-7.3,2.6C136.9,94,135.8,96.3,135.6,99.3z M167.2,119.4v-4.7
		L190.7,90c-2.7,0.1-5,0.2-7,0.2h-15v-4.6h30.2v3.8l-20.1,21.4l-3.8,4c2.8-0.2,5.5-0.3,7.9-0.3H200v5H167.2z"/>
	<path fill="#929292" d="M20.4,119.4V72.7h19.2c2,0,3.7,0.1,5.3,0.3c1.6,0.2,2.9,0.6,4.1,1.1c1.2,0.5,2.2,1.1,3.2,1.8
		c0.9,0.7,1.7,1.6,2.4,2.6c0.7,1,1.2,2,1.5,3c0.3,1,0.5,2.1,0.5,3.2c0,1-0.2,2-0.4,2.9c-0.3,0.9-0.7,1.9-1.3,2.7
		c-0.6,0.9-1.3,1.7-2.2,2.4c-0.9,0.7-1.9,1.3-3,1.8c1.5,0.4,2.8,1,4,1.7c1.2,0.7,2.2,1.6,3,2.6c0.8,1,1.5,2.1,1.9,3.3
		c0.4,1.2,0.6,2.5,0.6,3.8c0,1.1-0.1,2.2-0.4,3.2c-0.3,1-0.6,2-1.1,2.9c-0.5,0.9-1.1,1.8-1.7,2.5c-0.6,0.7-1.3,1.4-2.1,1.9
		c-0.7,0.5-1.6,1-2.5,1.3c-0.9,0.4-2,0.7-3.1,1c-1.1,0.3-2.4,0.5-3.7,0.6c-1.4,0.1-2.9,0.2-4.5,0.2L20.4,119.4L20.4,119.4z
		 M20.5,72.8v46.6h19.4c1.6,0,3.1-0.1,4.5-0.2c1.4-0.1,2.6-0.3,3.7-0.6c1.1-0.3,2.1-0.6,3.1-1c0.9-0.4,1.8-0.8,2.5-1.3
		c0.7-0.5,1.4-1.1,2-1.8c0.6-0.7,1.2-1.6,1.7-2.5c0.5-0.9,0.9-1.9,1.1-2.9c0.3-1,0.4-2.1,0.4-3.2c0-1.4-0.2-2.6-0.6-3.8
		c-0.4-1.2-1-2.3-1.9-3.2c-0.8-1-1.8-1.8-3-2.5c-1.2-0.7-2.5-1.3-4.1-1.7l-0.1,0l0.1-0.1c1.2-0.5,2.2-1.2,3.1-1.9
		c0.9-0.7,1.6-1.5,2.2-2.4c0.6-0.9,1-1.8,1.3-2.7c0.3-0.9,0.4-1.9,0.4-2.9c0-1.1-0.2-2.1-0.5-3.1c-0.3-1-0.8-2-1.5-3
		c-0.7-1-1.5-1.8-2.4-2.6c-0.9-0.7-2-1.3-3.1-1.8c-1.2-0.5-2.5-0.8-4.1-1.1c-1.6-0.2-3.3-0.3-5.3-0.3H20.5z M27.2,92.3h11
		c1.5,0,2.8,0,3.8-0.1c1.1-0.1,1.9-0.2,2.6-0.4c0.9-0.2,1.6-0.5,2.3-0.9s1.2-0.8,1.6-1.4c0.4-0.5,0.8-1.1,1-1.8
		c0.2-0.7,0.3-1.4,0.3-2.2c0-0.8-0.1-1.5-0.3-2.2c-0.2-0.7-0.5-1.3-0.9-1.9c-0.4-0.6-0.9-1.1-1.5-1.5c-0.6-0.4-1.2-0.7-2-0.9
		c-0.8-0.2-1.8-0.4-3.1-0.5c-1.3-0.1-2.8-0.2-4.7-0.2H27.2V92.3z M38.2,92.4H27.1V78.2h10.3c1.8,0,3.4,0,4.7,0.2
		c1.3,0.1,2.3,0.3,3.1,0.5c0.8,0.2,1.4,0.5,2,0.9c0.6,0.4,1.1,0.9,1.5,1.5c0.4,0.6,0.7,1.2,0.9,1.9c0.2,0.7,0.3,1.4,0.3,2.2
		c0,0.8-0.1,1.6-0.3,2.3c-0.2,0.7-0.6,1.3-1,1.8c-0.4,0.6-1,1-1.6,1.4c-0.6,0.4-1.4,0.7-2.3,0.9c-0.7,0.2-1.5,0.3-2.6,0.4
		C41,92.4,39.7,92.4,38.2,92.4z M27.2,113.9h12.7c1.1,0,2,0,2.8-0.1c0.8,0,1.4-0.1,1.8-0.2c0.8-0.1,1.5-0.3,2.1-0.5
		c0.6-0.2,1.2-0.5,1.7-0.8c0.5-0.3,1-0.7,1.4-1.1c0.4-0.4,0.8-0.9,1.1-1.5c0.3-0.6,0.6-1.2,0.8-1.8c0.2-0.7,0.3-1.4,0.3-2.1
		c0-0.9-0.1-1.7-0.4-2.4c-0.2-0.8-0.6-1.4-1.1-2.1c-0.5-0.6-1.1-1.2-1.7-1.6c-0.7-0.5-1.4-0.8-2.3-1.1c-0.9-0.3-1.9-0.5-3.1-0.6
		c-1.2-0.1-2.7-0.2-4.3-0.2H27.2V113.9z M39.9,114H27.1V97.8H39c1.6,0,3.1,0.1,4.3,0.2c1.2,0.1,2.3,0.3,3.2,0.6
		c0.9,0.3,1.6,0.6,2.3,1.1c0.7,0.5,1.3,1,1.8,1.7c0.5,0.7,0.9,1.4,1.1,2.1c0.2,0.8,0.4,1.6,0.4,2.5c0,0.7-0.1,1.4-0.3,2.1
		c-0.2,0.7-0.4,1.3-0.8,1.9c-0.3,0.6-0.7,1.1-1.2,1.5c-0.4,0.4-0.9,0.8-1.4,1.1c-0.5,0.3-1.1,0.6-1.8,0.8c-0.7,0.2-1.4,0.4-2.2,0.5
		c-0.4,0.1-1.1,0.1-1.8,0.2C41.9,114,41,114,39.9,114z M92.7,108.4l6.5,0.8l0,0.1c-0.5,1.7-1.2,3.3-2.2,4.6
		c-0.9,1.3-2.1,2.5-3.5,3.4c-1.4,1-3,1.7-4.7,2.2c-1.8,0.5-3.7,0.7-5.9,0.7c-2.7,0-5.1-0.4-7.3-1.1c-2.1-0.8-4-1.9-5.6-3.4
		c-1.6-1.5-2.8-3.4-3.6-5.5s-1.2-4.6-1.2-7.3c0-2.8,0.4-5.4,1.2-7.6c0.8-2.2,2-4.1,3.6-5.7c1.6-1.6,3.4-2.8,5.5-3.5
		c2.1-0.8,4.4-1.2,7-1.2c2.5,0,4.7,0.4,6.7,1.1c2,0.8,3.8,1.9,5.4,3.5c1.6,1.5,2.7,3.4,3.5,5.6c0.8,2.2,1.2,4.6,1.2,7.4
		c0,0.2,0,0.4,0,0.6c0,0.3,0,0.6,0,0.9v0H71.9c0.1,1.8,0.5,3.4,1,4.8c0.6,1.4,1.4,2.6,2.4,3.6c1,1,2.2,1.7,3.5,2.2
		c1.3,0.5,2.7,0.7,4.2,0.7c1.1,0,2.2-0.1,3.2-0.4c1-0.3,1.9-0.7,2.7-1.2c0.8-0.6,1.5-1.3,2.2-2.1C91.6,110.7,92.2,109.7,92.7,108.4
		L92.7,108.4L92.7,108.4z M99.1,109.3l-6.4-0.8c-0.5,1.2-1,2.2-1.7,3.1c-0.6,0.9-1.4,1.6-2.2,2.2c-0.8,0.6-1.7,1-2.7,1.3
		c-1,0.3-2.1,0.4-3.2,0.4c-1.5,0-3-0.2-4.3-0.7c-1.3-0.5-2.5-1.2-3.5-2.2c-1-1-1.8-2.2-2.4-3.6c-0.6-1.4-0.9-3.1-1-4.9v-0.1h27.6
		c0-0.3,0-0.6,0-0.8c0-0.3,0-0.5,0-0.6c0-2.8-0.4-5.3-1.2-7.4c-0.8-2.2-2-4-3.5-5.5c-1.6-1.5-3.3-2.7-5.4-3.4
		c-2-0.8-4.2-1.1-6.7-1.1c-2.5,0-4.8,0.4-6.9,1.2c-2.1,0.8-3.9,2-5.5,3.5c-1.6,1.6-2.8,3.4-3.6,5.6c-0.8,2.2-1.2,4.7-1.2,7.6
		c0,2.7,0.4,5.2,1.2,7.3c0.8,2.1,2,3.9,3.5,5.4c1.6,1.5,3.4,2.7,5.6,3.4c2.1,0.8,4.5,1.1,7.2,1.1c2.1,0,4.1-0.2,5.8-0.7
		s3.3-1.2,4.7-2.1c1.4-0.9,2.5-2.1,3.5-3.4C97.9,112.5,98.6,111,99.1,109.3z M72.2,99.2h20.5c-0.1-1.4-0.4-2.6-0.8-3.7
		c-0.4-1.1-0.9-2-1.6-2.7c-1-1.1-2.1-1.9-3.4-2.5c-1.3-0.5-2.7-0.8-4.3-0.8c-1.4,0-2.8,0.2-4,0.7c-1.2,0.4-2.3,1.1-3.3,2
		s-1.7,1.9-2.3,3.1C72.7,96.5,72.3,97.8,72.2,99.2z M92.8,99.3H72.1v-0.1c0.1-1.5,0.4-2.8,1-4c0.6-1.2,1.3-2.2,2.3-3.1
		c1-0.9,2.1-1.6,3.3-2c1.2-0.4,2.5-0.7,4-0.7c1.6,0,3,0.3,4.3,0.8c1.3,0.6,2.5,1.4,3.4,2.5c0.7,0.7,1.2,1.6,1.6,2.7
		S92.7,97.8,92.8,99.3L92.8,99.3L92.8,99.3z M107,119.4V85.5h5.7v5.1c0.7-1.1,1.4-2.1,2-2.8c0.7-0.8,1.3-1.4,1.9-1.8
		s1.3-0.7,1.9-0.9c0.7-0.2,1.4-0.3,2.1-0.3c1.1,0,2.1,0.2,3.2,0.5c1.1,0.3,2.2,0.8,3.3,1.4l0,0c-0.8,1.8-1.5,3.6-2.3,5.4l0,0
		c-0.8-0.4-1.5-0.7-2.3-0.9c-0.8-0.2-1.5-0.3-2.3-0.3c-0.7,0-1.3,0.1-1.9,0.3c-0.6,0.2-1.2,0.5-1.7,0.8c-0.5,0.4-1,0.8-1.4,1.3
		c-0.4,0.5-0.7,1.1-0.9,1.8c-0.4,1-0.6,2.1-0.8,3.2c-0.2,1.1-0.3,2.3-0.3,3.5v17.7L107,119.4L107,119.4z M107.1,85.6v33.7h6.2v-17.6
		c0-1.2,0.1-2.4,0.3-3.5c0.2-1.1,0.4-2.2,0.8-3.2c0.2-0.7,0.6-1.3,0.9-1.8c0.4-0.5,0.9-1,1.4-1.4c0.6-0.4,1.1-0.7,1.7-0.8
		c0.6-0.2,1.3-0.3,2-0.3c0.8,0,1.5,0.1,2.3,0.3c0.7,0.2,1.5,0.5,2.2,0.9l2.2-5.2c-1.1-0.6-2.1-1-3.2-1.3c-1.1-0.3-2.1-0.5-3.2-0.5
		c-0.7,0-1.4,0.1-2.1,0.3c-0.7,0.2-1.3,0.5-1.9,0.9c-0.6,0.4-1.2,1-1.9,1.7c-0.7,0.8-1.4,1.8-2.1,3l-0.1,0.2v-5.3H107.1z
		 M156.1,108.4l6.5,0.8l0,0.1c-0.5,1.7-1.2,3.3-2.2,4.6c-0.9,1.3-2.1,2.5-3.5,3.4c-1.4,1-3,1.7-4.7,2.2c-1.8,0.5-3.7,0.7-5.9,0.7
		c-2.7,0-5.1-0.4-7.3-1.1c-2.1-0.8-4-1.9-5.6-3.4c-1.6-1.5-2.8-3.4-3.6-5.5c-0.8-2.1-1.2-4.6-1.2-7.3c0-2.8,0.4-5.4,1.2-7.6
		c0.8-2.2,2-4.1,3.6-5.7c1.6-1.6,3.4-2.8,5.5-3.5c2.1-0.8,4.4-1.2,7-1.2c2.5,0,4.7,0.4,6.7,1.1c2,0.8,3.8,1.9,5.4,3.5
		c1.6,1.5,2.7,3.4,3.5,5.6c0.8,2.2,1.2,4.6,1.2,7.4c0,0.3,0,0.8,0,1.5v0h-27.6c0.1,1.8,0.5,3.4,1,4.8c0.6,1.4,1.4,2.6,2.4,3.6
		c1,1,2.2,1.7,3.5,2.2c1.3,0.5,2.7,0.7,4.2,0.7c1.1,0,2.2-0.1,3.2-0.4c1-0.3,1.9-0.7,2.7-1.2c0.8-0.6,1.5-1.3,2.2-2.1
		C155,110.7,155.6,109.7,156.1,108.4L156.1,108.4L156.1,108.4z M162.5,109.3l-6.4-0.8c-0.5,1.2-1,2.2-1.7,3.1
		c-0.6,0.9-1.4,1.6-2.2,2.2c-0.8,0.6-1.7,1-2.7,1.3c-1,0.3-2.1,0.4-3.2,0.4c-1.5,0-3-0.2-4.3-0.7c-1.3-0.5-2.5-1.2-3.5-2.2
		c-1-1-1.8-2.2-2.4-3.6c-0.6-1.4-0.9-3.1-1-4.9v-0.1h27.6c0-0.6,0-1.1,0-1.5c0-2.8-0.4-5.3-1.2-7.4c-0.8-2.2-2-4-3.5-5.5
		c-1.6-1.5-3.3-2.7-5.4-3.4c-2-0.8-4.2-1.1-6.7-1.1c-2.5,0-4.8,0.4-6.9,1.2s-3.9,2-5.5,3.5c-1.6,1.6-2.8,3.4-3.6,5.6
		c-0.8,2.2-1.2,4.7-1.2,7.6c0,2.7,0.4,5.2,1.2,7.3c0.8,2.1,2,3.9,3.5,5.4c1.6,1.5,3.4,2.7,5.6,3.4c2.1,0.8,4.5,1.1,7.2,1.1
		c2.1,0,4.1-0.2,5.8-0.7c1.8-0.5,3.3-1.2,4.7-2.1c1.4-0.9,2.5-2.1,3.5-3.4C161.3,112.5,162,111,162.5,109.3z M135.6,99.2h20.5
		c-0.1-1.4-0.4-2.6-0.8-3.7c-0.4-1.1-0.9-2-1.6-2.7c-1-1.1-2.1-1.9-3.4-2.5c-1.3-0.5-2.7-0.8-4.3-0.8c-1.4,0-2.8,0.2-4,0.7
		c-1.2,0.4-2.3,1.1-3.3,2s-1.7,1.9-2.3,3.1C136.1,96.5,135.7,97.8,135.6,99.2z M156.2,99.3h-20.7v-0.1c0.1-1.5,0.4-2.8,1-4
		c0.6-1.2,1.3-2.2,2.3-3.1c1-0.9,2.1-1.6,3.3-2c1.2-0.4,2.5-0.7,4-0.7c1.6,0,3,0.3,4.3,0.8c1.3,0.6,2.5,1.4,3.4,2.5
		c0.7,0.7,1.2,1.6,1.6,2.7S156.1,97.8,156.2,99.3L156.2,99.3L156.2,99.3z M167.2,119.4v-4.7l23.4-24.6c-1.3,0.1-2.5,0.1-3.6,0.1
		c-1.2,0-2.3,0-3.3,0h-15v-4.7h30.3v3.8l-20.1,21.5l-3.7,3.9c1.4-0.1,2.7-0.2,4-0.2c1.3,0,2.6-0.1,3.8-0.1H200v5.1L167.2,119.4
		L167.2,119.4z M167.3,114.8v4.6h32.6v-4.9h-17.1c-1.2,0-2.5,0-3.8,0.1c-1.3,0.1-2.7,0.1-4.1,0.3l-0.1,0l3.9-4.1l20.1-21.4v-3.7
		h-30.1v4.5h14.9c1,0,2.1,0,3.3,0c1.2,0,2.4-0.1,3.8-0.1h0.1L167.3,114.8z"/>
	<path fill="#DDA548" d="M48.6,70.2C15.7,51-10.9,93.5,16.9,116.7c-2,4.8-4,9.6-6,14.5c13.6,0,27.1,0,40.7,0
		c-1.1-2.6-2.2-5.3-3.3-7.9c1.4-0.8,2.7-1.6,4.1-2.3c2.1,5,4.3,10.1,6.4,15.1c-18.4,0-36.7,0-55.1,0c2.8-6,5.6-12,8.3-18
		C-19.3,88.9,17,44,51.6,66.7C50.6,67.9,49.6,69.1,48.6,70.2z"/>
	<path fill="#DBA449" d="M48.5,70.3c-10.8-6.3-21-5.9-28.7-1.8c-3.8,2-7,5-9.4,8.5C8,80.6,6.4,84.7,5.7,89
		c-1.4,9.3,1.7,19.6,11.3,27.7l0.1,0l-5.9,14.4h40.4l-3.3-7.9c1.4-0.8,2.8-1.6,4.2-2.4c2.2,5.1,4.3,10.2,6.5,15.4H3.5l8.4-18.1
		C1.4,108.2-1.5,96.6,0.7,86.3c1.1-4.9,3.3-9.5,6.3-13.4c3.1-3.9,7-7.1,11.5-9.3c9.4-4.6,21.3-4.6,33,3.1l0.1,0.1
		C50.7,67.9,49.6,69.1,48.5,70.3L48.5,70.3z M19.7,68.4c7.8-4.2,17.9-4.6,28.8,1.7l2.9-3.3c-11.6-7.6-23.4-7.6-32.8-3.1
		c-4.5,2.2-8.4,5.4-11.5,9.3c-3.1,3.9-5.3,8.5-6.3,13.4c-2.2,10.2,0.7,21.8,11.2,31.7l0,0L3.8,136h54.8l-6.3-14.9l-3.9,2.2l3.3,8
		h-41l6-14.5C7.2,108.7,4.1,98.3,5.5,89c0.7-4.4,2.3-8.5,4.8-12C12.7,73.4,15.9,70.4,19.7,68.4z"/>
	<path fill="#DDA548" d="M67.7,137.4v-9h4.1c0.8,0,1.5,0.1,2,0.3c0.5,0.2,0.9,0.5,1.2,0.8c0.3,0.4,0.4,0.8,0.4,1.2
		c0,0.4-0.1,0.7-0.4,1.1c-0.3,0.3-0.6,0.6-1.1,0.8c0.7,0.2,1.2,0.4,1.5,0.8c0.4,0.4,0.5,0.8,0.5,1.4c0,0.4-0.1,0.8-0.3,1.2
		c-0.2,0.4-0.5,0.6-0.8,0.8c-0.3,0.2-0.7,0.3-1.2,0.4s-1.1,0.2-1.8,0.2H67.7z M69.2,132.2h2.4c0.6,0,1.1,0,1.4-0.1
		c0.4-0.1,0.6-0.2,0.8-0.5c0.2-0.2,0.3-0.5,0.3-0.8c0-0.3-0.1-0.6-0.3-0.8c-0.2-0.2-0.4-0.4-0.8-0.5c-0.3-0.1-0.9-0.1-1.7-0.1h-2.2
		V132.2z M69.2,136.4h2.8c0.5,0,0.8,0,1,0c0.3,0,0.6-0.1,0.8-0.3c0.2-0.1,0.4-0.3,0.6-0.5c0.1-0.2,0.2-0.5,0.2-0.8
		c0-0.3-0.1-0.6-0.3-0.9s-0.5-0.4-0.9-0.5c-0.4-0.1-0.9-0.2-1.6-0.2h-2.6V136.4z M76.2,137.4l4.3-4.7l-3.7-4.3h1.7l2,2.3
		c0.4,0.5,0.7,0.8,0.9,1.1c0.2-0.3,0.5-0.6,0.9-1l2.2-2.4h1.6l-3.8,4.3l4.1,4.7h-1.8l-2.8-3.2c-0.2-0.2-0.3-0.4-0.5-0.6
		c-0.3,0.3-0.4,0.5-0.5,0.6l-2.8,3.1H76.2z M86.7,133c0-1.5,0.5-2.7,1.5-3.5c1-0.8,2.3-1.3,3.8-1.3c1,0,1.9,0.2,2.8,0.6
		c0.8,0.4,1.4,0.9,1.9,1.7c0.4,0.7,0.6,1.5,0.6,2.4s-0.2,1.7-0.7,2.4c-0.5,0.7-1.1,1.3-1.9,1.6c-0.8,0.4-1.7,0.6-2.7,0.6
		c-1,0-2-0.2-2.8-0.6c-0.8-0.4-1.4-1-1.9-1.7C86.9,134.6,86.7,133.8,86.7,133z M88.2,133.1c0,1.1,0.4,1.9,1.1,2.5
		c0.7,0.6,1.6,0.9,2.7,0.9c1.1,0,2-0.3,2.7-0.9c0.7-0.6,1.1-1.5,1.1-2.7c0-0.7-0.2-1.4-0.5-1.9c-0.3-0.5-0.7-1-1.3-1.3
		c-0.6-0.3-1.2-0.5-2-0.5c-1,0-1.9,0.3-2.7,0.9S88.2,131.7,88.2,133.1z M99.8,128.4h6.7v7.9h1v3.2h-1.3v-2.1h-7.3v2.1h-1.3v-3.2h0.8
		c0.9-1.1,1.3-3.3,1.3-6.6V128.4z M105,129.5h-3.9v0.5c0,0.8-0.1,1.8-0.3,3.1c-0.2,1.3-0.5,2.4-1,3.3h5.1V129.5z M109.3,137.4v-9
		h1.5v3.7h5.7v-3.7h1.5v9h-1.5v-4.2h-5.7v4.2H109.3z M120.4,128.4h1.5v3.8h2.6c1.7,0,2.9,0.3,3.4,0.8c0.5,0.5,0.8,1.1,0.8,1.8
		c0,0.7-0.3,1.3-0.9,1.8c-0.6,0.5-1.7,0.8-3.2,0.8h-4.2V128.4z M121.9,136.4h2.7c0.9,0,1.6-0.1,2-0.4c0.4-0.3,0.6-0.6,0.6-1.2
		c0-0.4-0.1-0.7-0.4-0.9c-0.3-0.3-0.6-0.4-1-0.5c-0.4-0.1-1.1-0.1-2-0.1h-2V136.4z M130,128.4h1.5v9H130V128.4z M134,137.4v-9h8v1.1
		h-6.5v2.8h6.1v1.1h-6.1v3.1h6.8v1.1H134z M149.5,128.4h6.7v7.9h1v3.2h-1.3v-2.1h-7.3v2.1h-1.3v-3.2h0.8c0.9-1.1,1.3-3.3,1.3-6.6
		V128.4z M154.8,129.5h-3.8v0.5c0,0.8-0.1,1.8-0.3,3.1c-0.2,1.3-0.5,2.4-1,3.3h5.1V129.5z M158.9,137.4v-9h4.1c0.8,0,1.5,0.1,2,0.3
		c0.5,0.2,0.9,0.5,1.2,0.8c0.3,0.4,0.4,0.8,0.4,1.2c0,0.4-0.1,0.7-0.4,1.1s-0.6,0.6-1.2,0.8c0.7,0.2,1.2,0.4,1.5,0.8
		c0.4,0.4,0.5,0.8,0.5,1.4c0,0.4-0.1,0.8-0.3,1.2c-0.2,0.4-0.5,0.6-0.8,0.8c-0.3,0.2-0.7,0.3-1.2,0.4c-0.5,0.1-1.1,0.2-1.8,0.2
		H158.9z M160.4,132.2h2.4c0.6,0,1.1,0,1.4-0.1c0.4-0.1,0.7-0.2,0.8-0.5c0.2-0.2,0.3-0.5,0.3-0.8c0-0.3-0.1-0.6-0.3-0.8
		c-0.2-0.2-0.4-0.4-0.8-0.5c-0.3-0.1-0.9-0.1-1.7-0.1h-2.2V132.2z M160.4,136.4h2.7c0.5,0,0.8,0,1,0c0.3,0,0.6-0.1,0.8-0.3
		c0.2-0.1,0.4-0.3,0.6-0.5c0.2-0.2,0.2-0.5,0.2-0.8c0-0.3-0.1-0.6-0.3-0.9s-0.5-0.4-0.9-0.5c-0.4-0.1-0.9-0.2-1.6-0.2h-2.5V136.4z
		 M169.3,137.4v-9h8v1.1h-6.5v2.8h6.1v1.1h-6.1v3.1h6.8v1.1H169.3z M179.5,137.4v-9h4.2c0.7,0,1.3,0,1.7,0.1c0.5,0.1,1,0.2,1.4,0.4
		c0.4,0.2,0.7,0.5,0.9,0.9c0.2,0.4,0.3,0.8,0.3,1.2c0,0.8-0.3,1.4-0.9,1.9c-0.6,0.5-1.7,0.8-3.2,0.8H181v3.7H179.5z M181,132.7h2.8
		c0.9,0,1.6-0.1,2-0.4c0.4-0.3,0.6-0.7,0.6-1.2c0-0.4-0.1-0.7-0.3-1c-0.2-0.3-0.5-0.4-0.9-0.5c-0.2-0.1-0.7-0.1-1.4-0.1H181V132.7z
		 M189.8,128.4h1.3v7.1l5.9-7.1h1.4v9h-1.3v-7.1l-5.9,7.1h-1.5V128.4z"/>
	<path fill="#DDA548" d="M67.7,137.4v-9h4.2c0.4,0,0.8,0,1.1,0.1c0.3,0,0.6,0.1,0.9,0.2c0.3,0.1,0.5,0.2,0.7,0.3
		c0.2,0.1,0.4,0.3,0.5,0.5s0.3,0.4,0.3,0.6c0.1,0.2,0.1,0.4,0.1,0.6c0,0.2,0,0.4-0.1,0.6c-0.1,0.2-0.2,0.4-0.3,0.5
		c-0.1,0.2-0.3,0.3-0.5,0.5c-0.2,0.1-0.3,0.2-0.6,0.3c0.3,0.1,0.5,0.2,0.8,0.3c0.3,0.1,0.5,0.3,0.7,0.5c0.2,0.2,0.3,0.4,0.4,0.6
		c0.1,0.2,0.1,0.5,0.1,0.8c0,0.2,0,0.4-0.1,0.6c-0.1,0.2-0.1,0.4-0.3,0.6c-0.1,0.2-0.2,0.3-0.4,0.5c-0.1,0.1-0.3,0.3-0.5,0.4
		c-0.2,0.1-0.3,0.2-0.6,0.3c-0.2,0.1-0.4,0.1-0.7,0.2s-0.5,0.1-0.8,0.1c-0.3,0-0.6,0-1,0L67.7,137.4L67.7,137.4z M67.8,128.5v8.9
		h4.2c0.3,0,0.7,0,1,0c0.3,0,0.6-0.1,0.8-0.1s0.5-0.1,0.7-0.2s0.4-0.2,0.5-0.3c0.2-0.1,0.3-0.2,0.4-0.3c0.1-0.1,0.3-0.3,0.4-0.5
		c0.1-0.2,0.2-0.4,0.2-0.6c0-0.2,0.1-0.4,0.1-0.6c0-0.3,0-0.5-0.1-0.7c-0.1-0.2-0.2-0.4-0.4-0.6c-0.2-0.2-0.4-0.3-0.6-0.5
		s-0.5-0.2-0.9-0.3l-0.2,0l0.1-0.1c0.3-0.1,0.5-0.2,0.7-0.4c0.2-0.1,0.3-0.3,0.5-0.4c0.1-0.2,0.2-0.3,0.3-0.5
		c0.1-0.2,0.1-0.4,0.1-0.5c0-0.2,0-0.4-0.1-0.6c-0.1-0.2-0.2-0.4-0.3-0.6c-0.1-0.2-0.3-0.3-0.5-0.5c-0.2-0.1-0.4-0.3-0.7-0.3
		s-0.6-0.2-0.9-0.2c-0.3,0-0.7-0.1-1.1-0.1H67.8z M69.2,132.2h2.3c0.3,0,0.6,0,0.8,0s0.4,0,0.6-0.1c0.2,0,0.3-0.1,0.5-0.2
		c0.1-0.1,0.2-0.2,0.3-0.3c0.1-0.1,0.2-0.2,0.2-0.3c0-0.1,0.1-0.3,0.1-0.4c0-0.1,0-0.3-0.1-0.4c0-0.1-0.1-0.3-0.2-0.4
		c-0.1-0.1-0.2-0.2-0.3-0.3c-0.1-0.1-0.3-0.1-0.4-0.2c-0.2,0-0.4-0.1-0.7-0.1c-0.3,0-0.6,0-1,0h-2.2V132.2z M71.5,132.3h-2.4v-2.8
		h2.3c0.4,0,0.7,0,1,0c0.3,0,0.5,0,0.7,0.1c0.2,0,0.3,0.1,0.4,0.2c0.1,0.1,0.2,0.2,0.3,0.3c0.1,0.1,0.2,0.2,0.2,0.4
		c0,0.1,0.1,0.3,0.1,0.4c0,0.2,0,0.3-0.1,0.4c0,0.1-0.1,0.3-0.2,0.4c-0.1,0.1-0.2,0.2-0.4,0.3c-0.1,0.1-0.3,0.1-0.5,0.2
		c-0.1,0-0.3,0.1-0.6,0.1S71.9,132.3,71.5,132.3z M69.2,136.3h2.7c0.2,0,0.4,0,0.6,0c0.2,0,0.3,0,0.4,0c0.2,0,0.3-0.1,0.5-0.1
		c0.1,0,0.3-0.1,0.4-0.1s0.2-0.1,0.3-0.2c0.1-0.1,0.2-0.2,0.2-0.3c0.1-0.1,0.1-0.2,0.2-0.3c0-0.1,0.1-0.3,0.1-0.4
		c0-0.2,0-0.3-0.1-0.5c-0.1-0.1-0.1-0.3-0.2-0.4c-0.1-0.1-0.2-0.2-0.4-0.3c-0.1-0.1-0.3-0.1-0.5-0.2c-0.2-0.1-0.4-0.1-0.7-0.1
		c-0.3,0-0.6,0-0.9,0h-2.5V136.3z M71.9,136.4h-2.8v-3.2h2.6c0.3,0,0.7,0,0.9,0c0.3,0,0.5,0.1,0.7,0.1c0.2,0,0.4,0.1,0.5,0.2
		c0.2,0.1,0.3,0.2,0.4,0.3c0.1,0.1,0.2,0.3,0.3,0.4c0.1,0.2,0.1,0.3,0.1,0.5c0,0.1,0,0.3-0.1,0.4c0,0.1-0.1,0.3-0.2,0.4
		c-0.1,0.1-0.2,0.2-0.3,0.3c-0.1,0.1-0.2,0.2-0.3,0.2s-0.3,0.1-0.4,0.2c-0.1,0-0.3,0.1-0.5,0.1c-0.1,0-0.2,0-0.4,0
		C72.3,136.4,72.1,136.4,71.9,136.4z M76.2,137.4l4.2-4.6l-3.8-4.4h1.9l2,2.3c0.2,0.2,0.4,0.5,0.5,0.6c0.1,0.2,0.2,0.3,0.3,0.4
		c0.1-0.1,0.2-0.3,0.4-0.4c0.1-0.2,0.3-0.3,0.5-0.5l2.2-2.4h1.7l-3.9,4.3l4.2,4.8h-1.9l-2.8-3.2c-0.1-0.1-0.2-0.2-0.2-0.3
		c-0.1-0.1-0.1-0.1-0.2-0.2l-0.3,0.3c-0.1,0.1-0.2,0.2-0.2,0.3l-2.8,3.1L76.2,137.4L76.2,137.4z M80.5,132.8l-4.2,4.6H78l2.8-3.1
		c0.1-0.1,0.1-0.1,0.2-0.2l0.4-0.4l0,0c0.1,0.1,0.1,0.2,0.2,0.3c0.1,0.1,0.2,0.2,0.2,0.3l2.8,3.2h1.7l-4.1-4.7l3.8-4.2h-1.5
		l-2.2,2.4c-0.2,0.2-0.3,0.3-0.5,0.5c-0.1,0.2-0.3,0.3-0.4,0.5l0,0l0,0c-0.1-0.1-0.2-0.3-0.3-0.5s-0.3-0.4-0.5-0.6l-2-2.3h-1.6
		L80.5,132.8L80.5,132.8z M86.6,133c0-0.7,0.1-1.4,0.4-2c0.3-0.6,0.6-1.1,1.1-1.5c0.5-0.4,1.1-0.7,1.7-1c0.6-0.2,1.4-0.3,2.1-0.3
		c0.5,0,1,0,1.5,0.1c0.5,0.1,0.9,0.3,1.3,0.5c0.4,0.2,0.8,0.4,1.1,0.7c0.3,0.3,0.6,0.6,0.8,1c0.2,0.4,0.4,0.7,0.5,1.1
		c0.1,0.4,0.2,0.8,0.2,1.3s-0.1,0.9-0.2,1.3c-0.1,0.4-0.3,0.8-0.5,1.2c-0.2,0.4-0.5,0.7-0.8,1c-0.3,0.3-0.7,0.5-1.1,0.7
		c-0.4,0.2-0.9,0.3-1.3,0.4c-0.5,0.1-0.9,0.1-1.4,0.1c-0.5,0-1,0-1.5-0.2c-0.5-0.1-0.9-0.3-1.3-0.5c-0.4-0.2-0.8-0.4-1.1-0.7
		c-0.3-0.3-0.6-0.6-0.8-1c-0.2-0.4-0.4-0.7-0.5-1.1S86.6,133.5,86.6,133z M87.1,131.1c-0.3,0.6-0.4,1.2-0.4,2c0,0.4,0,0.8,0.2,1.1
		c0.1,0.4,0.3,0.7,0.5,1.1c0.2,0.3,0.5,0.7,0.8,0.9c0.3,0.3,0.7,0.5,1.1,0.7c0.4,0.2,0.8,0.4,1.3,0.5c0.5,0.1,1,0.2,1.5,0.2
		c0.5,0,0.9,0,1.4-0.1c0.4-0.1,0.9-0.2,1.3-0.4c0.4-0.2,0.8-0.4,1.1-0.7c0.3-0.3,0.6-0.6,0.8-0.9c0.2-0.4,0.4-0.7,0.5-1.1
		c0.1-0.4,0.2-0.8,0.2-1.3c0-0.5,0-0.9-0.2-1.3c-0.1-0.4-0.3-0.8-0.5-1.1c-0.2-0.4-0.5-0.7-0.8-0.9c-0.3-0.3-0.7-0.5-1.1-0.7
		c-0.4-0.2-0.8-0.3-1.3-0.4c-0.5-0.1-0.9-0.1-1.4-0.1c-0.8,0-1.5,0.1-2.1,0.3c-0.6,0.2-1.2,0.5-1.7,0.9
		C87.7,130,87.3,130.5,87.1,131.1z M88.2,133.1c0,1.1,0.3,1.9,1.1,2.5c0.4,0.3,0.8,0.5,1.2,0.7c0.4,0.2,0.9,0.2,1.5,0.2
		c1.1,0,2-0.3,2.7-0.9c0.3-0.3,0.6-0.7,0.8-1.1c0.2-0.4,0.3-0.9,0.3-1.5c0-0.4,0-0.7-0.1-1c-0.1-0.3-0.2-0.6-0.3-0.9
		c-0.2-0.3-0.3-0.5-0.6-0.7c-0.2-0.2-0.5-0.4-0.8-0.5c-0.3-0.1-0.6-0.3-0.9-0.3c-0.3-0.1-0.7-0.1-1-0.1c-0.5,0-1,0.1-1.4,0.2
		c-0.4,0.1-0.8,0.4-1.2,0.6s-0.6,0.7-0.8,1.1C88.3,131.8,88.2,132.4,88.2,133.1z M89.2,135.7c-0.7-0.6-1.1-1.5-1.1-2.6
		c0-0.7,0.1-1.3,0.3-1.8c0.2-0.5,0.5-0.9,0.9-1.2c0.4-0.3,0.8-0.5,1.2-0.7c0.4-0.1,0.9-0.2,1.5-0.2c0.4,0,0.7,0,1,0.1
		c0.3,0.1,0.6,0.2,0.9,0.3c0.3,0.1,0.6,0.3,0.8,0.5c0.2,0.2,0.4,0.5,0.6,0.7c0.2,0.3,0.3,0.6,0.3,0.9c0.1,0.3,0.1,0.7,0.1,1
		c0,0.6-0.1,1.1-0.3,1.6c-0.2,0.5-0.4,0.8-0.8,1.2c-0.7,0.6-1.6,1-2.7,1c-0.5,0-1-0.1-1.5-0.2C90,136.2,89.6,136,89.2,135.7z
		 M99.8,128.4h6.8v7.9h1v3.3h-1.4v-2.1h-7.2v2.1h-1.4v-3.3h0.9c0.4-0.5,0.8-1.4,1-2.4c0.2-1.1,0.3-2.5,0.3-4.1L99.8,128.4
		L99.8,128.4z M106.4,128.5h-6.6v1.3c0,1.7-0.1,3.1-0.3,4.2c-0.2,1.1-0.6,1.9-1,2.5l0,0h-0.8v3.1h1.2v-2.1h7.4v2.1h1.2v-3.1h-1
		V128.5z M105,129.5h-3.8v0.4c0,0.8-0.1,1.8-0.3,3.2c-0.1,0.7-0.2,1.3-0.4,1.8c-0.2,0.5-0.3,1-0.6,1.4h5V129.5z M101.2,129.4h3.9v7
		h-5.2l0-0.1c0.2-0.4,0.5-0.9,0.6-1.5c0.2-0.5,0.3-1.1,0.4-1.8c0.2-1.3,0.3-2.4,0.3-3.1L101.2,129.4L101.2,129.4z M109.2,137.4v-9
		h1.6v3.7h5.6v-3.7h1.6v9.1h-1.6v-4.2h-5.6v4.2L109.2,137.4L109.2,137.4z M109.3,128.5v8.9h1.4v-4.2h5.8v4.2h1.4v-8.9h-1.4v3.7h-5.8
		v-3.7H109.3z M120.4,128.4h1.5v3.8h2.6c0.9,0,1.6,0.1,2.2,0.2c0.6,0.1,1,0.3,1.3,0.6c0.3,0.3,0.5,0.6,0.6,0.8
		c0.1,0.3,0.2,0.6,0.2,1c0,0.4-0.1,0.7-0.2,1c-0.1,0.3-0.4,0.6-0.7,0.9c-0.3,0.3-0.7,0.5-1.3,0.6c-0.5,0.1-1.2,0.2-2,0.2h-4.2
		L120.4,128.4L120.4,128.4z M121.8,128.5h-1.4v8.9h4.1c0.8,0,1.4-0.1,2-0.2c0.5-0.1,0.9-0.3,1.2-0.6c0.3-0.3,0.5-0.5,0.6-0.8
		c0.1-0.3,0.2-0.6,0.2-1c0-0.3-0.1-0.6-0.2-0.9c-0.1-0.3-0.3-0.6-0.6-0.8c-0.3-0.3-0.7-0.4-1.2-0.6c-0.6-0.1-1.3-0.2-2.1-0.2h-2.7
		V128.5z M121.9,136.4h2.6c0.5,0,0.8,0,1.2-0.1c0.3-0.1,0.6-0.2,0.8-0.3c0.2-0.1,0.3-0.3,0.4-0.5c0.1-0.2,0.2-0.4,0.2-0.7
		c0-0.2,0-0.3-0.1-0.5c-0.1-0.2-0.1-0.3-0.3-0.4c-0.1-0.1-0.3-0.2-0.4-0.3c-0.2-0.1-0.3-0.1-0.5-0.2c-0.2,0-0.5-0.1-0.8-0.1
		c-0.3,0-0.7,0-1.2,0h-1.9V136.4z M124.5,136.5h-2.7v-3.2h2c0.5,0,0.8,0,1.2,0c0.3,0,0.6,0,0.8,0.1c0.2,0,0.4,0.1,0.6,0.2
		c0.2,0.1,0.3,0.2,0.4,0.3c0.1,0.1,0.2,0.3,0.3,0.4c0.1,0.2,0.1,0.3,0.1,0.5c0,0.3-0.1,0.5-0.2,0.7c-0.1,0.2-0.3,0.4-0.5,0.5
		c-0.2,0.1-0.5,0.2-0.8,0.3C125.4,136.4,125,136.5,124.5,136.5z M130,128.4h1.5v9.1H130L130,128.4L130,128.4z M131.4,128.5h-1.4v8.9
		h1.4V128.5z M133.9,137.4v-9h8.1v1.2h-6.5v2.7h6.1v1.1h-6.1v3h6.8v1.2L133.9,137.4L133.9,137.4z M134,128.5v8.9h8.1v-1h-6.8v-3.2
		h6.1v-1h-6.1v-2.9h6.5v-1H134z M149.5,128.4h6.8v7.9h1v3.3h-1.4v-2.1h-7.2v2.1h-1.4v-3.3h0.9c0.4-0.5,0.8-1.4,1-2.4
		c0.2-1.1,0.3-2.5,0.3-4.1L149.5,128.4L149.5,128.4z M156.2,128.5h-6.6v1.3c0,1.7-0.1,3.1-0.3,4.2c-0.2,1.1-0.6,1.9-1,2.5l0,0h-0.8
		v3.1h1.2v-2.1h7.4v2.1h1.2v-3.1h-1V128.5z M154.7,129.5H151v0.4c0,0.4,0,0.8-0.1,1.4c0,0.5-0.1,1.1-0.2,1.8
		c-0.1,0.7-0.2,1.3-0.4,1.8c-0.2,0.5-0.3,1-0.6,1.4h5V129.5z M150.9,129.4h3.9v7h-5.2l0-0.1c0.2-0.4,0.5-0.9,0.6-1.5
		s0.3-1.1,0.4-1.8c0.1-0.7,0.2-1.3,0.2-1.8c0-0.5,0.1-1,0.1-1.4L150.9,129.4L150.9,129.4z M158.8,137.4v-9h4.2c0.4,0,0.8,0,1.1,0.1
		c0.3,0,0.6,0.1,0.9,0.2c0.3,0.1,0.5,0.2,0.7,0.3c0.2,0.1,0.4,0.3,0.5,0.5c0.1,0.2,0.3,0.4,0.3,0.6c0.1,0.2,0.1,0.4,0.1,0.6
		c0,0.2,0,0.4-0.1,0.6c-0.1,0.2-0.2,0.4-0.3,0.5c-0.1,0.2-0.3,0.3-0.5,0.5c-0.2,0.1-0.3,0.2-0.6,0.3c0.3,0.1,0.5,0.2,0.8,0.3
		c0.3,0.1,0.5,0.3,0.7,0.5c0.2,0.2,0.3,0.4,0.4,0.6c0.1,0.2,0.1,0.5,0.1,0.8c0,0.2,0,0.4-0.1,0.6c-0.1,0.2-0.1,0.4-0.3,0.6
		c-0.1,0.2-0.2,0.3-0.4,0.5c-0.1,0.1-0.3,0.3-0.5,0.4c-0.2,0.1-0.3,0.2-0.6,0.3c-0.2,0.1-0.4,0.1-0.7,0.2c-0.3,0-0.5,0.1-0.8,0.1
		c-0.3,0-0.6,0-1,0L158.8,137.4L158.8,137.4z M158.9,128.5v8.9h4.2c0.3,0,0.7,0,1,0c0.3,0,0.6-0.1,0.8-0.1c0.2,0,0.5-0.1,0.7-0.2
		c0.2-0.1,0.4-0.2,0.5-0.3c0.2-0.1,0.3-0.2,0.4-0.3c0.1-0.1,0.3-0.3,0.4-0.5c0.1-0.2,0.2-0.4,0.2-0.6c0.1-0.2,0.1-0.4,0.1-0.6
		c0-0.3,0-0.5-0.1-0.7c-0.1-0.2-0.2-0.4-0.4-0.6c-0.2-0.2-0.4-0.3-0.6-0.5s-0.6-0.2-0.9-0.3l-0.1,0l0.1-0.1c0.3-0.1,0.5-0.2,0.7-0.4
		c0.2-0.1,0.3-0.3,0.5-0.4c0.1-0.2,0.2-0.3,0.3-0.5c0.1-0.2,0.1-0.4,0.1-0.5c0-0.2,0-0.4-0.1-0.6c-0.1-0.2-0.2-0.4-0.3-0.6
		c-0.1-0.2-0.3-0.3-0.5-0.5c-0.2-0.1-0.4-0.3-0.7-0.3c-0.3-0.1-0.5-0.2-0.9-0.2c-0.3,0-0.7-0.1-1.1-0.1H158.9z M160.4,132.2h2.3
		c0.3,0,0.6,0,0.8,0s0.4,0,0.6-0.1c0.2,0,0.3-0.1,0.5-0.2c0.1-0.1,0.3-0.2,0.3-0.3c0.1-0.1,0.2-0.2,0.2-0.3c0-0.1,0.1-0.3,0.1-0.4
		c0-0.1,0-0.3-0.1-0.4c0-0.1-0.1-0.3-0.2-0.4c-0.1-0.1-0.2-0.2-0.3-0.3c-0.1-0.1-0.3-0.1-0.4-0.2c-0.2,0-0.4-0.1-0.7-0.1
		c-0.3,0-0.6,0-1,0h-2.2V132.2z M162.7,132.3h-2.4v-2.8h2.3c0.4,0,0.7,0,1,0c0.3,0,0.5,0,0.7,0.1c0.2,0,0.3,0.1,0.4,0.2
		c0.1,0.1,0.2,0.2,0.3,0.3c0.1,0.1,0.2,0.2,0.2,0.4c0,0.1,0.1,0.3,0.1,0.4c0,0.2,0,0.3-0.1,0.4c-0.1,0.1-0.1,0.3-0.2,0.4
		c-0.1,0.1-0.2,0.2-0.4,0.3c-0.1,0.1-0.3,0.1-0.5,0.2c-0.1,0-0.3,0.1-0.6,0.1C163.3,132.3,163.1,132.3,162.7,132.3z M160.4,136.3
		h2.7c0.2,0,0.4,0,0.6,0c0.2,0,0.3,0,0.4,0c0.2,0,0.3-0.1,0.5-0.1c0.1,0,0.3-0.1,0.4-0.1c0.1-0.1,0.2-0.1,0.3-0.2
		c0.1-0.1,0.2-0.2,0.2-0.3c0.1-0.1,0.1-0.2,0.2-0.3c0-0.1,0-0.3,0-0.4c0-0.2,0-0.3-0.1-0.5c0-0.1-0.1-0.3-0.2-0.4
		c-0.1-0.1-0.2-0.2-0.4-0.3c-0.1-0.1-0.3-0.1-0.5-0.2c-0.2-0.1-0.4-0.1-0.7-0.1c-0.3,0-0.6,0-0.9,0h-2.5V136.3z M163.1,136.4h-2.8
		v-3.2h2.6c0.4,0,0.7,0,0.9,0c0.3,0,0.5,0.1,0.7,0.1c0.2,0,0.4,0.1,0.5,0.2c0.1,0.1,0.3,0.2,0.4,0.3c0.1,0.1,0.2,0.3,0.3,0.4
		c0,0.2,0.1,0.3,0.1,0.5c0,0.1,0,0.3-0.1,0.4c0,0.1-0.1,0.3-0.2,0.4c-0.1,0.1-0.2,0.2-0.3,0.3c-0.1,0.1-0.2,0.2-0.3,0.2
		c-0.1,0.1-0.2,0.1-0.4,0.2c-0.1,0-0.3,0.1-0.5,0.1c-0.1,0-0.2,0-0.4,0C163.5,136.4,163.3,136.4,163.1,136.4z M169.2,137.4v-9h8.1
		v1.2h-6.5v2.7h6.1v1.1h-6.1v3h6.8v1.2L169.2,137.4L169.2,137.4z M169.3,128.5v8.9h8.1v-1h-6.8v-3.2h6.1v-1h-6.1v-2.9h6.5v-1H169.3z
		 M179.5,137.4v-9h4.2c0.4,0,0.7,0,1,0c0.3,0,0.5,0,0.7,0.1c0.3,0,0.5,0.1,0.8,0.2c0.2,0.1,0.4,0.2,0.6,0.3c0.2,0.1,0.4,0.2,0.5,0.4
		c0.1,0.1,0.3,0.3,0.4,0.5c0.1,0.2,0.2,0.4,0.3,0.6c0.1,0.2,0.1,0.4,0.1,0.7c0,0.4-0.1,0.8-0.2,1.1c-0.1,0.3-0.4,0.6-0.7,0.9
		c-0.3,0.3-0.7,0.5-1.3,0.6c-0.5,0.1-1.2,0.2-2,0.2H181v3.7L179.5,137.4L179.5,137.4z M179.6,128.5v8.9h1.4v-3.7h2.9
		c0.8,0,1.4-0.1,2-0.2c0.5-0.1,0.9-0.3,1.2-0.6s0.5-0.6,0.7-0.9c0.2-0.3,0.2-0.7,0.2-1c0-0.2,0-0.4-0.1-0.6
		c-0.1-0.2-0.1-0.4-0.3-0.6c-0.1-0.2-0.2-0.3-0.4-0.5c-0.1-0.1-0.3-0.3-0.5-0.4c-0.2-0.1-0.4-0.2-0.6-0.3c-0.2-0.1-0.5-0.1-0.7-0.2
		c-0.2,0-0.4,0-0.7-0.1c-0.3,0-0.6,0-1,0H179.6z M181,132.7h2.8c0.5,0,0.9,0,1.2-0.1c0.3-0.1,0.6-0.2,0.8-0.3
		c0.2-0.1,0.3-0.3,0.4-0.5c0.1-0.2,0.1-0.4,0.1-0.7c0-0.2,0-0.4-0.1-0.5c-0.1-0.2-0.1-0.3-0.3-0.4c-0.1-0.1-0.2-0.2-0.4-0.3
		c-0.1-0.1-0.3-0.2-0.5-0.2c-0.1,0-0.3,0-0.5-0.1c-0.2,0-0.5,0-0.8,0H181V132.7z M183.8,132.8h-2.9v-3.3h2.9c0.3,0,0.6,0,0.8,0
		c0.2,0,0.4,0,0.5,0.1c0.2,0,0.4,0.1,0.5,0.2c0.2,0.1,0.3,0.2,0.4,0.3c0.1,0.1,0.2,0.3,0.3,0.5c0.1,0.2,0.1,0.3,0.1,0.5
		c0,0.3-0.1,0.5-0.2,0.7c-0.1,0.2-0.3,0.4-0.5,0.5s-0.5,0.3-0.8,0.3C184.7,132.7,184.3,132.8,183.8,132.8z M189.8,128.4h1.4v7l5.8-7
		h1.5v9.1h-1.4v-7l-5.8,7h-1.5L189.8,128.4L189.8,128.4z M191.1,128.5h-1.2v8.9h1.4l5.9-7.2v7.2h1.2v-8.9H197l-5.9,7.2V128.5z"/>
</g>
</svg>
