<?xml version="1.0" encoding="utf-8"?>
<!-- Generator: Adobe Illustrator 19.2.1, SVG Export Plug-In . SVG Version: 6.00 Build 0)  -->
<svg version="1.1" id="Layer_1" xmlns="http://www.w3.org/2000/svg" xmlns:xlink="http://www.w3.org/1999/xlink" x="0px" y="0px"
	 viewBox="0 0 200 200" style="enable-background:new 0 0 200 200;" xml:space="preserve">
<style type="text/css">
	.st0{fill:#FFFFFF;}
</style>
<g id="Layer_x0020_1">
	<path class="st0" d="M20.9,119.3V73h19c3.9,0,7,0.5,9.3,1.4c2.3,0.9,4.2,2.4,5.5,4.3c1.3,1.9,2,4,2,6.1c0,2-0.6,3.8-1.8,5.6
		c-1.2,1.7-2.9,3.2-5.3,4.2c3.1,0.8,5.4,2.2,7.1,4.2c1.6,2,2.5,4.3,2.5,7c0,2.2-0.5,4.2-1.5,6.1c-1,1.9-2.2,3.3-3.7,4.3
		c-1.5,1-3.3,1.8-5.5,2.3c-2.2,0.5-5,0.8-8.2,0.8H20.9z M27.6,92.4h11c3,0,5.1-0.2,6.4-0.5c1.7-0.5,3-1.2,3.9-2.3
		c0.9-1.1,1.3-2.4,1.3-4.1c0-1.5-0.4-2.9-1.2-4.1c-0.8-1.2-2-2-3.5-2.4s-4.1-0.6-7.7-0.6H27.6V92.4z M27.6,113.8h12.6
		c2.2,0,3.7-0.1,4.6-0.2c1.5-0.2,2.8-0.7,3.9-1.3c1-0.6,1.9-1.5,2.6-2.6c0.7-1.1,1-2.4,1-3.9c0-1.7-0.5-3.2-1.5-4.5
		c-1-1.3-2.3-2.2-4-2.7c-1.7-0.5-4.2-0.8-7.4-0.8H27.6V113.8z M92.7,108.4l6.4,0.8c-1,3.4-2.9,6.1-5.6,8C90.7,119,87.3,120,83,120
		c-5.4,0-9.6-1.5-12.7-4.5c-3.1-3-4.7-7.2-4.7-12.7c0-5.6,1.6-10,4.8-13.1c3.2-3.1,7.3-4.7,12.3-4.7c4.9,0,8.9,1.5,12,4.6
		c3.1,3,4.7,7.3,4.7,12.9c0,0.3,0,0.8,0,1.5H71.9c0.2,3.7,1.4,6.5,3.4,8.5c2,2,4.6,2.9,7.7,2.9c2.3,0,4.2-0.5,5.8-1.6
		C90.4,112.6,91.7,110.8,92.7,108.4z M72.3,99.3h20.4c-0.3-2.8-1.1-4.9-2.3-6.4c-2-2.2-4.5-3.3-7.7-3.3c-2.9,0-5.3,0.9-7.2,2.6
		C73.6,94,72.5,96.3,72.3,99.3z M106.9,119.3V85.7h5.6v5.1c1.4-2.4,2.7-4,4-4.7c1.2-0.8,2.5-1.1,4-1.1c2.1,0,4.2,0.6,6.4,1.8
		l-2.2,5.3c-1.5-0.8-3-1.2-4.5-1.2c-1.4,0-2.6,0.4-3.6,1.1c-1.1,0.7-1.8,1.8-2.3,3.1c-0.7,2-1,4.2-1,6.6v17.5H106.9z M155.6,108.4
		l6.4,0.8c-1,3.4-2.9,6.1-5.6,8c-2.7,1.9-6.2,2.8-10.5,2.8c-5.4,0-9.6-1.5-12.7-4.5c-3.1-3-4.7-7.2-4.7-12.7c0-5.6,1.6-10,4.8-13.1
		c3.2-3.1,7.3-4.7,12.3-4.7c4.9,0,8.9,1.5,12,4.6c3.1,3,4.7,7.3,4.7,12.9c0,0.3,0,0.8,0,1.5h-27.3c0.2,3.7,1.4,6.5,3.4,8.5
		c2,2,4.6,2.9,7.7,2.9c2.3,0,4.2-0.5,5.8-1.6S154.6,110.8,155.6,108.4z M135.2,99.3h20.4c-0.3-2.8-1.1-4.9-2.3-6.4
		c-2-2.2-4.5-3.3-7.7-3.3c-2.9,0-5.3,0.9-7.2,2.6C136.5,94,135.4,96.3,135.2,99.3z M166.6,119.3v-4.6l23.3-24.5
		c-2.6,0.1-5,0.2-7,0.2H168v-4.6h29.9v3.7L178,110.7l-3.8,4c2.8-0.2,5.4-0.3,7.9-0.3h17v4.9H166.6z"/>
	<path class="st0" d="M20.9,119.3V72.9h19.1c1.9,0,3.7,0.1,5.2,0.3c1.6,0.2,2.9,0.6,4.1,1.1c1.2,0.5,2.2,1.1,3.1,1.8
		c0.9,0.7,1.7,1.6,2.4,2.5c0.7,1,1.2,2,1.5,3c0.3,1,0.5,2.1,0.5,3.1c0,1-0.2,2-0.4,2.9c-0.3,0.9-0.7,1.8-1.3,2.7
		c-0.6,0.9-1.3,1.7-2.2,2.4c-0.9,0.7-1.9,1.3-3,1.8c1.5,0.4,2.8,1,4,1.6c1.2,0.7,2.2,1.6,3,2.5c0.8,1,1.4,2.1,1.9,3.2
		c0.4,1.2,0.6,2.4,0.6,3.8c0,1.1-0.1,2.1-0.4,3.2c-0.3,1-0.6,2-1.1,2.9c-0.5,0.9-1.1,1.8-1.7,2.5s-1.3,1.3-2,1.8
		c-0.7,0.5-1.6,0.9-2.5,1.3c-0.9,0.4-1.9,0.7-3.1,1c-1.1,0.3-2.4,0.5-3.7,0.6c-1.4,0.1-2.9,0.2-4.5,0.2L20.9,119.3L20.9,119.3z
		 M21,73v46.2h19.3c1.6,0,3.1-0.1,4.5-0.2c1.4-0.1,2.6-0.3,3.7-0.6c1.1-0.3,2.1-0.6,3-1c0.9-0.4,1.8-0.8,2.5-1.3
		c0.7-0.5,1.4-1.1,2-1.8c0.6-0.7,1.2-1.5,1.7-2.5c0.5-0.9,0.9-1.9,1.1-2.9c0.2-1,0.4-2.1,0.4-3.1c0-1.3-0.2-2.6-0.6-3.8
		c-0.4-1.2-1-2.2-1.8-3.2c-0.8-1-1.8-1.8-3-2.5c-1.2-0.7-2.5-1.3-4.1-1.7l-0.1,0l0.1-0.1c1.2-0.5,2.2-1.2,3.1-1.9
		c0.9-0.7,1.6-1.5,2.2-2.4c0.6-0.9,1-1.8,1.3-2.7c0.3-0.9,0.4-1.9,0.4-2.9c0-1.1-0.2-2.1-0.5-3.1c-0.3-1-0.8-2-1.5-3
		c-0.7-1-1.4-1.8-2.4-2.5c-0.9-0.7-1.9-1.3-3.1-1.8c-1.2-0.5-2.5-0.8-4.1-1.1c-1.5-0.2-3.3-0.3-5.2-0.3H21z M27.7,92.4h10.9
		c1.5,0,2.7,0,3.8-0.1c1.1-0.1,1.9-0.2,2.6-0.4c0.9-0.2,1.6-0.5,2.2-0.9c0.6-0.4,1.2-0.8,1.6-1.4c0.4-0.5,0.7-1.1,1-1.8
		c0.2-0.7,0.3-1.4,0.3-2.2c0-0.8-0.1-1.5-0.3-2.2c-0.2-0.7-0.5-1.3-0.9-1.9c-0.4-0.6-0.9-1.1-1.4-1.5c-0.6-0.4-1.2-0.7-2-0.9
		c-0.7-0.2-1.8-0.4-3-0.5c-1.3-0.1-2.8-0.2-4.6-0.2H27.7V92.4z M38.6,92.5h-11V78.3h10.2c1.8,0,3.4,0,4.7,0.2
		c1.3,0.1,2.3,0.3,3.1,0.5c0.8,0.2,1.4,0.5,2,0.9c0.6,0.4,1.1,0.9,1.5,1.5c0.4,0.6,0.7,1.2,0.9,1.9c0.2,0.7,0.3,1.4,0.3,2.2
		c0,0.8-0.1,1.6-0.3,2.3c-0.2,0.7-0.5,1.3-1,1.8c-0.4,0.5-1,1-1.6,1.4c-0.6,0.4-1.4,0.7-2.3,0.9c-0.7,0.2-1.5,0.3-2.6,0.4
		C41.4,92.4,40.1,92.5,38.6,92.5z M27.7,113.8h12.6c1.1,0,2,0,2.8-0.1c0.8,0,1.4-0.1,1.8-0.2c0.8-0.1,1.5-0.3,2.1-0.5
		c0.6-0.2,1.2-0.5,1.7-0.8c0.5-0.3,1-0.7,1.4-1.1c0.4-0.4,0.8-0.9,1.1-1.5c0.3-0.6,0.6-1.2,0.7-1.8c0.2-0.7,0.2-1.3,0.2-2.1
		c0-0.9-0.1-1.7-0.4-2.4s-0.6-1.4-1.1-2.1c-0.5-0.6-1.1-1.2-1.7-1.6c-0.7-0.5-1.4-0.8-2.3-1.1c-0.9-0.3-1.9-0.5-3.1-0.6
		c-1.2-0.1-2.7-0.2-4.3-0.2H27.7V113.8z M40.3,113.9H27.6V97.8h11.8c1.6,0,3,0.1,4.3,0.2c1.2,0.1,2.3,0.3,3.1,0.6
		c0.9,0.3,1.6,0.6,2.3,1.1c0.7,0.5,1.3,1,1.7,1.6c0.5,0.7,0.9,1.4,1.1,2.1c0.2,0.8,0.4,1.6,0.4,2.4c0,0.7-0.1,1.4-0.2,2.1
		c-0.2,0.7-0.4,1.3-0.8,1.8c-0.3,0.6-0.7,1.1-1.1,1.5c-0.4,0.4-0.9,0.8-1.4,1.1c-0.5,0.3-1.1,0.6-1.8,0.8c-0.7,0.2-1.4,0.4-2.1,0.5
		c-0.4,0.1-1,0.1-1.8,0.2C42.3,113.9,41.3,113.9,40.3,113.9z M92.7,108.3l6.5,0.8l0,0.1c-0.5,1.7-1.2,3.2-2.2,4.6
		c-0.9,1.3-2.1,2.5-3.5,3.4c-1.4,0.9-2.9,1.7-4.7,2.1c-1.8,0.5-3.7,0.7-5.8,0.7c-2.7,0-5.1-0.4-7.2-1.1c-2.1-0.8-4-1.9-5.6-3.4
		c-1.6-1.5-2.7-3.3-3.5-5.4c-0.8-2.1-1.2-4.5-1.2-7.3c0-2.8,0.4-5.3,1.2-7.5c0.8-2.2,2-4.1,3.6-5.6c1.6-1.6,3.4-2.7,5.5-3.5
		c2.1-0.8,4.4-1.2,6.9-1.2c2.5,0,4.7,0.4,6.7,1.1c2,0.8,3.8,1.9,5.3,3.4c1.6,1.5,2.7,3.4,3.5,5.5c0.8,2.1,1.2,4.6,1.2,7.4
		c0,0.2,0,0.4,0,0.6c0,0.2,0,0.5,0,0.9v0H72c0.1,1.8,0.5,3.4,1,4.8c0.6,1.4,1.4,2.6,2.4,3.6c1,1,2.2,1.7,3.4,2.2
		c1.3,0.5,2.7,0.7,4.2,0.7c1.1,0,2.2-0.1,3.2-0.4c1-0.3,1.8-0.7,2.6-1.2c0.8-0.5,1.5-1.3,2.2-2.1C91.6,110.6,92.1,109.6,92.7,108.3
		L92.7,108.3L92.7,108.3z M99,109.2l-6.3-0.8c-0.5,1.2-1,2.2-1.7,3.1c-0.6,0.9-1.4,1.6-2.2,2.1c-0.8,0.6-1.7,1-2.7,1.2
		c-1,0.3-2,0.4-3.2,0.4c-1.5,0-2.9-0.2-4.2-0.7c-1.3-0.5-2.4-1.2-3.5-2.2c-1-1-1.8-2.2-2.4-3.6c-0.6-1.4-0.9-3-1-4.9v-0.1h27.3
		c0-0.3,0-0.6,0-0.8c0-0.2,0-0.5,0-0.6c0-2.8-0.4-5.2-1.2-7.3c-0.8-2.1-1.9-4-3.5-5.5c-1.5-1.5-3.3-2.7-5.3-3.4
		c-2-0.8-4.2-1.1-6.6-1.1c-2.5,0-4.8,0.4-6.9,1.2c-2.1,0.8-3.9,1.9-5.5,3.5c-1.6,1.5-2.8,3.4-3.5,5.6c-0.8,2.2-1.2,4.7-1.2,7.5
		c0,2.7,0.4,5.1,1.2,7.2c0.8,2.1,2,3.9,3.5,5.4c1.6,1.5,3.4,2.6,5.5,3.4c2.1,0.8,4.5,1.1,7.2,1.1c2.1,0,4.1-0.2,5.8-0.7
		c1.7-0.5,3.3-1.2,4.7-2.1s2.5-2.1,3.4-3.4C97.8,112.4,98.5,110.9,99,109.2z M72.3,99.2h20.3c-0.1-1.4-0.4-2.6-0.8-3.6
		c-0.4-1.1-0.9-1.9-1.6-2.6c-1-1.1-2.1-1.9-3.4-2.5c-1.3-0.5-2.7-0.8-4.3-0.8c-1.4,0-2.7,0.2-3.9,0.7c-1.2,0.4-2.3,1.1-3.2,2
		c-1,0.9-1.7,1.9-2.3,3C72.8,96.5,72.4,97.8,72.3,99.2z M92.7,99.3H72.2v-0.1c0.1-1.5,0.4-2.8,1-4c0.5-1.2,1.3-2.2,2.3-3.1
		c1-0.9,2.1-1.5,3.3-2c1.2-0.4,2.5-0.7,4-0.7c1.6,0,3,0.3,4.3,0.8c1.3,0.6,2.4,1.4,3.4,2.5c0.7,0.7,1.2,1.6,1.6,2.7
		C92.4,96.6,92.6,97.9,92.7,99.3L92.7,99.3L92.7,99.3z M106.8,119.3V85.6h5.7v5c0.7-1.1,1.3-2.1,2-2.8c0.7-0.8,1.3-1.4,1.9-1.8
		c0.6-0.4,1.3-0.7,1.9-0.9c0.7-0.2,1.4-0.3,2.1-0.3c1.1,0,2.1,0.2,3.2,0.5c1.1,0.3,2.1,0.8,3.2,1.4l0,0c-0.7,1.8-1.5,3.6-2.3,5.3
		l0,0c-0.7-0.4-1.5-0.7-2.3-0.9c-0.7-0.2-1.5-0.3-2.3-0.3c-0.7,0-1.3,0.1-1.9,0.3c-0.6,0.2-1.2,0.5-1.7,0.8c-0.5,0.4-1,0.8-1.4,1.3
		c-0.4,0.5-0.7,1.1-0.9,1.8c-0.4,1-0.6,2.1-0.8,3.2c-0.2,1.1-0.3,2.3-0.3,3.4v17.6L106.8,119.3L106.8,119.3z M106.9,85.7v33.5h6.1
		v-17.5c0-1.2,0.1-2.4,0.3-3.5s0.4-2.2,0.8-3.2c0.2-0.7,0.5-1.3,0.9-1.8c0.4-0.5,0.9-1,1.4-1.3c0.5-0.4,1.1-0.7,1.7-0.8
		c0.6-0.2,1.3-0.3,1.9-0.3c0.8,0,1.5,0.1,2.3,0.3c0.7,0.2,1.5,0.5,2.2,0.9l2.2-5.2c-1.1-0.6-2.1-1-3.2-1.3c-1.1-0.3-2.1-0.5-3.2-0.5
		c-0.7,0-1.4,0.1-2.1,0.3c-0.7,0.2-1.3,0.5-1.9,0.9c-0.6,0.4-1.2,0.9-1.9,1.7c-0.7,0.8-1.3,1.8-2.1,3l-0.1,0.2v-5.3H106.9z
		 M155.6,108.3l6.5,0.8l0,0.1c-0.5,1.7-1.2,3.2-2.2,4.6c-0.9,1.3-2.1,2.5-3.5,3.4c-1.4,0.9-2.9,1.7-4.7,2.1
		c-1.8,0.5-3.7,0.7-5.8,0.7c-2.7,0-5.1-0.4-7.2-1.1c-2.1-0.8-4-1.9-5.6-3.4c-1.6-1.5-2.7-3.3-3.5-5.4c-0.8-2.1-1.2-4.5-1.2-7.3
		c0-2.8,0.4-5.3,1.2-7.5c0.8-2.2,2-4.1,3.6-5.6c1.6-1.6,3.4-2.7,5.5-3.5c2.1-0.8,4.4-1.2,6.9-1.2c2.5,0,4.7,0.4,6.7,1.1
		c2,0.8,3.8,1.9,5.3,3.4c1.6,1.5,2.7,3.4,3.5,5.5c0.8,2.1,1.2,4.6,1.2,7.4c0,0.3,0,0.8,0,1.5v0h-27.3c0.1,1.8,0.5,3.4,1,4.8
		c0.6,1.4,1.4,2.6,2.4,3.6c1,1,2.2,1.7,3.4,2.2c1.3,0.5,2.7,0.7,4.2,0.7c1.1,0,2.2-0.1,3.2-0.4c1-0.3,1.8-0.7,2.6-1.2
		c0.8-0.5,1.5-1.3,2.2-2.1C154.5,110.6,155,109.6,155.6,108.3L155.6,108.3L155.6,108.3z M161.9,109.2l-6.3-0.8
		c-0.5,1.2-1,2.2-1.7,3.1c-0.6,0.9-1.4,1.6-2.2,2.1c-0.8,0.6-1.7,1-2.7,1.2c-1,0.3-2,0.4-3.2,0.4c-1.5,0-2.9-0.2-4.2-0.7
		c-1.3-0.5-2.4-1.2-3.5-2.2c-1-1-1.8-2.2-2.4-3.6c-0.6-1.4-0.9-3-1-4.9v-0.1h27.3c0-0.6,0-1.1,0-1.5c0-2.8-0.4-5.2-1.2-7.3
		c-0.8-2.1-1.9-4-3.5-5.5c-1.5-1.5-3.3-2.7-5.3-3.4c-2-0.8-4.2-1.1-6.6-1.1c-2.5,0-4.8,0.4-6.9,1.2c-2.1,0.8-3.9,1.9-5.5,3.5
		c-1.6,1.5-2.8,3.4-3.5,5.6c-0.8,2.2-1.2,4.7-1.2,7.5c0,2.7,0.4,5.1,1.2,7.2c0.8,2.1,2,3.9,3.5,5.4c1.6,1.5,3.4,2.6,5.5,3.4
		c2.1,0.8,4.5,1.1,7.2,1.1c2.1,0,4.1-0.2,5.8-0.7c1.7-0.5,3.3-1.2,4.7-2.1s2.5-2.1,3.4-3.4C160.7,112.4,161.4,110.9,161.9,109.2z
		 M135.2,99.2h20.3c-0.1-1.4-0.4-2.6-0.8-3.6c-0.4-1.1-0.9-1.9-1.5-2.6c-1-1.1-2.1-1.9-3.4-2.5c-1.3-0.5-2.7-0.8-4.3-0.8
		c-1.4,0-2.7,0.2-3.9,0.7c-1.2,0.4-2.3,1.1-3.2,2c-1,0.9-1.7,1.9-2.3,3C135.7,96.5,135.3,97.8,135.2,99.2z M155.6,99.3h-20.5v-0.1
		c0.1-1.5,0.4-2.8,1-4c0.5-1.2,1.3-2.2,2.3-3.1c1-0.9,2.1-1.5,3.3-2c1.2-0.4,2.5-0.7,4-0.7c1.6,0,3,0.3,4.3,0.8
		c1.3,0.6,2.4,1.4,3.4,2.5c0.7,0.7,1.2,1.6,1.6,2.7C155.3,96.6,155.5,97.9,155.6,99.3L155.6,99.3L155.6,99.3z M166.5,119.3v-4.7
		l23.2-24.5c-1.3,0.1-2.5,0.1-3.6,0.1c-1.2,0-2.2,0-3.2,0h-14.9v-4.7h30v3.8L178,110.7l-3.7,3.9c1.4-0.1,2.7-0.2,3.9-0.2
		c1.3,0,2.6-0.1,3.8-0.1h17v5L166.5,119.3L166.5,119.3z M166.6,114.6v4.6H199v-4.8h-16.9c-1.2,0-2.5,0-3.8,0.1
		c-1.3,0.1-2.7,0.1-4.1,0.2l-0.1,0l3.9-4l19.9-21.3v-3.7H168v4.5h14.8c1,0,2.1,0,3.2,0c1.2,0,2.4-0.1,3.7-0.1h0.1L166.6,114.6z"/>
	<path class="st0" d="M48.9,70.5c-32.7-19.1-59,23.1-31.4,46.1c-2,4.8-3.9,9.6-5.9,14.4c13.5,0,26.9,0,40.4,0
		c-1.1-2.6-2.2-5.2-3.3-7.9c1.3-0.8,2.7-1.6,4-2.3c2.1,5,4.3,10,6.4,15c-18.2,0-36.4,0-54.7,0c2.8-5.9,5.5-11.9,8.3-17.8
		c-31-29,4.9-73.5,39.2-51C50.9,68.2,49.9,69.3,48.9,70.5z"/>
	<path class="st0" d="M48.8,70.6c-10.7-6.3-20.8-5.9-28.5-1.8c-3.8,2-6.9,5-9.3,8.5c-2.4,3.5-4,7.6-4.7,11.9
		c-1.4,9.2,1.6,19.5,11.2,27.4l0.1,0l-5.9,14.3h40.1l-3.3-7.8c1.4-0.8,2.8-1.6,4.2-2.4c2.2,5.1,4.3,10.2,6.5,15.2h-55l8.3-17.9
		C2,108.2-0.8,96.6,1.4,86.4c1-4.9,3.2-9.4,6.3-13.3c3-3.9,7-7.1,11.4-9.3c9.4-4.5,21.2-4.6,32.8,3.1L52,67
		C50.9,68.2,49.9,69.4,48.8,70.6L48.8,70.6z M20.3,68.6c7.7-4.2,17.8-4.5,28.6,1.7l2.8-3.3c-11.5-7.5-23.2-7.5-32.5-3
		c-4.5,2.2-8.4,5.3-11.4,9.2s-5.2,8.4-6.2,13.3c-2.2,10.1,0.7,21.7,11.1,31.4l0,0l-8.2,17.8h54.4l-6.3-14.8l-3.9,2.2l3.3,7.9H11.4
		l5.9-14.4c-9.5-8-12.6-18.3-11.2-27.6c0.7-4.3,2.3-8.4,4.7-11.9C13.3,73.6,16.5,70.7,20.3,68.6z"/>
	<path class="st0" d="M67.8,137.1v-8.9H72c0.8,0,1.5,0.1,2,0.3c0.5,0.2,0.9,0.5,1.2,0.8c0.3,0.4,0.4,0.8,0.4,1.2
		c0,0.4-0.1,0.7-0.4,1.1c-0.2,0.3-0.6,0.6-1.1,0.8c0.7,0.2,1.2,0.4,1.5,0.8c0.4,0.4,0.5,0.8,0.5,1.4c0,0.4-0.1,0.8-0.3,1.2
		c-0.2,0.4-0.5,0.6-0.8,0.8s-0.7,0.3-1.2,0.4s-1.1,0.2-1.8,0.2H67.8z M69.3,132h2.4c0.6,0,1.1,0,1.4-0.1c0.4-0.1,0.6-0.2,0.8-0.5
		c0.2-0.2,0.3-0.5,0.3-0.8c0-0.3-0.1-0.6-0.3-0.8c-0.2-0.2-0.4-0.4-0.7-0.5c-0.3-0.1-0.9-0.1-1.7-0.1h-2.2V132z M69.3,136.1H72
		c0.5,0,0.8,0,1,0c0.3,0,0.6-0.1,0.8-0.2c0.2-0.1,0.4-0.3,0.6-0.5c0.1-0.2,0.2-0.5,0.2-0.7c0-0.3-0.1-0.6-0.3-0.9
		c-0.2-0.2-0.5-0.4-0.9-0.5c-0.4-0.1-0.9-0.2-1.6-0.2h-2.5V136.1z M76.3,137.1l4.2-4.6l-3.7-4.3h1.7l2,2.3c0.4,0.5,0.7,0.8,0.9,1.1
		c0.2-0.3,0.5-0.6,0.9-1l2.2-2.4h1.6l-3.8,4.2l4.1,4.7h-1.8l-2.8-3.2c-0.2-0.2-0.3-0.4-0.5-0.5c-0.2,0.3-0.4,0.5-0.5,0.6l-2.8,3.1
		H76.3z M86.7,132.8c0-1.5,0.5-2.6,1.5-3.5c1-0.8,2.2-1.3,3.8-1.3c1,0,1.9,0.2,2.7,0.6c0.8,0.4,1.4,0.9,1.9,1.6
		c0.4,0.7,0.6,1.5,0.6,2.4c0,0.9-0.2,1.7-0.7,2.4c-0.5,0.7-1.1,1.3-1.9,1.6c-0.8,0.4-1.7,0.5-2.7,0.5c-1,0-2-0.2-2.8-0.6
		c-0.8-0.4-1.4-1-1.8-1.7C86.9,134.3,86.7,133.6,86.7,132.8z M88.2,132.8c0,1.1,0.4,1.9,1.1,2.5c0.7,0.6,1.6,0.9,2.7,0.9
		c1.1,0,2-0.3,2.7-0.9c0.7-0.6,1.1-1.5,1.1-2.7c0-0.7-0.2-1.4-0.5-1.9c-0.3-0.5-0.7-1-1.3-1.3c-0.6-0.3-1.2-0.5-1.9-0.5
		c-1,0-1.9,0.3-2.6,0.9C88.5,130.5,88.2,131.5,88.2,132.8z M99.7,128.2h6.7v7.9h1v3.1H106v-2.1h-7.2v2.1h-1.3v-3.1h0.8
		c0.9-1.1,1.3-3.3,1.3-6.6V128.2z M104.9,129.3H101v0.5c0,0.8-0.1,1.8-0.2,3.1c-0.2,1.3-0.5,2.4-1,3.2h5.1V129.3z M109.1,137.1v-8.9
		h1.5v3.7h5.7v-3.7h1.4v8.9h-1.4v-4.2h-5.7v4.2H109.1z M120.1,128.2h1.4v3.8h2.6c1.7,0,2.8,0.3,3.4,0.8s0.8,1.1,0.8,1.8
		c0,0.7-0.3,1.3-0.9,1.8c-0.6,0.5-1.6,0.8-3.2,0.8h-4.2V128.2z M121.6,136.1h2.6c0.9,0,1.6-0.1,2-0.4c0.4-0.2,0.6-0.6,0.6-1.2
		c0-0.4-0.1-0.7-0.4-0.9c-0.2-0.3-0.6-0.4-1-0.5c-0.4-0.1-1-0.1-2-0.1h-1.9V136.1z M129.7,128.2h1.5v8.9h-1.5V128.2z M133.6,137.1
		v-8.9h7.9v1.1h-6.5v2.7h6v1h-6v3h6.7v1.1H133.6z M149,128.2h6.7v7.9h1v3.1h-1.3v-2.1h-7.2v2.1h-1.3v-3.1h0.8
		c0.9-1.1,1.3-3.3,1.3-6.6V128.2z M154.2,129.3h-3.8v0.5c0,0.8-0.1,1.8-0.3,3.1c-0.2,1.3-0.5,2.4-1,3.2h5.1V129.3z M158.3,137.1
		v-8.9h4.1c0.8,0,1.5,0.1,2,0.3c0.5,0.2,0.9,0.5,1.2,0.8c0.3,0.4,0.4,0.8,0.4,1.2c0,0.4-0.1,0.7-0.4,1.1c-0.2,0.3-0.6,0.6-1.1,0.8
		c0.7,0.2,1.2,0.4,1.5,0.8c0.4,0.4,0.5,0.8,0.5,1.4c0,0.4-0.1,0.8-0.3,1.2c-0.2,0.4-0.5,0.6-0.8,0.8c-0.3,0.2-0.7,0.3-1.2,0.4
		c-0.5,0.1-1.1,0.2-1.8,0.2H158.3z M159.8,132h2.4c0.6,0,1.1,0,1.4-0.1c0.4-0.1,0.7-0.2,0.8-0.5c0.2-0.2,0.3-0.5,0.3-0.8
		c0-0.3-0.1-0.6-0.3-0.8c-0.2-0.2-0.4-0.4-0.7-0.5c-0.3-0.1-0.9-0.1-1.7-0.1h-2.2V132z M159.8,136.1h2.7c0.5,0,0.8,0,1,0
		c0.3,0,0.6-0.1,0.8-0.2c0.2-0.1,0.4-0.3,0.5-0.5c0.2-0.2,0.2-0.5,0.2-0.7c0-0.3-0.1-0.6-0.3-0.9c-0.2-0.2-0.5-0.4-0.9-0.5
		c-0.4-0.1-0.9-0.2-1.6-0.2h-2.5V136.1z M168.6,137.1v-8.9h7.9v1.1H170v2.7h6v1h-6v3h6.7v1.1H168.6z M178.8,137.1v-8.9h4.1
		c0.7,0,1.3,0,1.7,0.1c0.5,0.1,1,0.2,1.4,0.4c0.4,0.2,0.7,0.5,0.9,0.9c0.2,0.4,0.3,0.8,0.3,1.2c0,0.8-0.3,1.4-0.9,1.9
		c-0.6,0.5-1.7,0.8-3.2,0.8h-2.8v3.6H178.8z M180.2,132.4h2.8c0.9,0,1.6-0.1,2-0.4c0.4-0.3,0.6-0.7,0.6-1.2c0-0.4-0.1-0.7-0.3-1
		c-0.2-0.3-0.5-0.4-0.9-0.5c-0.2-0.1-0.7-0.1-1.4-0.1h-2.8V132.4z M189,128.2h1.3v7.1l5.8-7.1h1.4v8.9h-1.3v-7.1l-5.8,7.1H189V128.2
		z"/>
	<path class="st0" d="M67.8,137.1v-9H72c0.4,0,0.8,0,1.1,0.1c0.3,0,0.6,0.1,0.9,0.2c0.3,0.1,0.5,0.2,0.7,0.3
		c0.2,0.1,0.4,0.3,0.5,0.5s0.3,0.4,0.3,0.6c0.1,0.2,0.1,0.4,0.1,0.6c0,0.2,0,0.4-0.1,0.6c-0.1,0.2-0.2,0.4-0.3,0.5
		c-0.1,0.2-0.3,0.3-0.5,0.5c-0.2,0.1-0.3,0.2-0.6,0.3c0.3,0.1,0.5,0.2,0.8,0.3c0.3,0.1,0.5,0.3,0.7,0.5c0.2,0.2,0.3,0.4,0.4,0.6
		c0.1,0.2,0.1,0.5,0.1,0.7c0,0.2,0,0.4-0.1,0.6s-0.1,0.4-0.2,0.6c-0.1,0.2-0.2,0.3-0.4,0.5c-0.1,0.1-0.3,0.3-0.5,0.4
		c-0.2,0.1-0.3,0.2-0.5,0.3c-0.2,0.1-0.4,0.1-0.7,0.2c-0.2,0-0.5,0.1-0.8,0.1c-0.3,0-0.6,0-1,0L67.8,137.1L67.8,137.1z M67.9,128.3
		v8.8H72c0.3,0,0.7,0,1,0c0.3,0,0.6-0.1,0.8-0.1c0.2,0,0.5-0.1,0.7-0.2c0.2-0.1,0.4-0.2,0.5-0.2c0.2-0.1,0.3-0.2,0.4-0.3
		c0.1-0.1,0.2-0.3,0.4-0.5c0.1-0.2,0.2-0.4,0.2-0.6c0-0.2,0.1-0.4,0.1-0.6c0-0.3,0-0.5-0.1-0.7c-0.1-0.2-0.2-0.4-0.4-0.6
		c-0.2-0.2-0.4-0.3-0.6-0.5c-0.2-0.1-0.5-0.2-0.9-0.3l-0.2,0l0.1-0.1c0.2-0.1,0.5-0.2,0.7-0.4c0.2-0.1,0.3-0.3,0.5-0.4
		c0.1-0.2,0.2-0.3,0.3-0.5c0.1-0.2,0.1-0.4,0.1-0.5c0-0.2,0-0.4-0.1-0.6c-0.1-0.2-0.2-0.4-0.3-0.6c-0.1-0.2-0.3-0.3-0.5-0.5
		c-0.2-0.1-0.4-0.3-0.7-0.3c-0.2-0.1-0.5-0.2-0.9-0.2c-0.3,0-0.7-0.1-1.1-0.1H67.9z M69.3,131.9h2.3c0.3,0,0.6,0,0.8,0
		c0.2,0,0.4,0,0.5-0.1c0.2,0,0.3-0.1,0.5-0.2c0.1-0.1,0.2-0.2,0.3-0.3c0.1-0.1,0.2-0.2,0.2-0.3c0-0.1,0.1-0.3,0.1-0.4
		c0-0.1,0-0.3-0.1-0.4s-0.1-0.2-0.2-0.4c-0.1-0.1-0.2-0.2-0.3-0.3c-0.1-0.1-0.3-0.1-0.4-0.2c-0.2,0-0.4-0.1-0.7-0.1
		c-0.3,0-0.6,0-1,0h-2.1V131.9z M71.7,132h-2.4v-2.8h2.2c0.4,0,0.7,0,1,0c0.3,0,0.5,0,0.7,0.1c0.2,0,0.3,0.1,0.4,0.2
		c0.1,0.1,0.2,0.2,0.3,0.3c0.1,0.1,0.2,0.2,0.2,0.4c0,0.1,0.1,0.3,0.1,0.4c0,0.2,0,0.3-0.1,0.4c0,0.1-0.1,0.3-0.2,0.4
		c-0.1,0.1-0.2,0.2-0.4,0.3c-0.1,0.1-0.3,0.1-0.5,0.2c-0.1,0-0.3,0.1-0.6,0.1C72.3,132,72,132,71.7,132z M69.3,136H72
		c0.2,0,0.4,0,0.6,0c0.2,0,0.3,0,0.4,0c0.2,0,0.3-0.1,0.5-0.1c0.1,0,0.3-0.1,0.4-0.1c0.1-0.1,0.2-0.1,0.3-0.2
		c0.1-0.1,0.2-0.2,0.2-0.3c0.1-0.1,0.1-0.2,0.2-0.3c0-0.1,0.1-0.2,0.1-0.4c0-0.2,0-0.3-0.1-0.5c-0.1-0.1-0.1-0.3-0.2-0.4
		c-0.1-0.1-0.2-0.2-0.4-0.3c-0.1-0.1-0.3-0.1-0.5-0.2c-0.2-0.1-0.4-0.1-0.7-0.1c-0.3,0-0.6,0-0.9,0h-2.5V136z M72,136.1h-2.8V133
		h2.6c0.3,0,0.7,0,0.9,0c0.3,0,0.5,0.1,0.7,0.1c0.2,0,0.4,0.1,0.5,0.2c0.2,0.1,0.3,0.2,0.4,0.3c0.1,0.1,0.2,0.3,0.2,0.4
		c0.1,0.2,0.1,0.3,0.1,0.5c0,0.1,0,0.3-0.1,0.4s-0.1,0.2-0.2,0.4c-0.1,0.1-0.2,0.2-0.2,0.3c-0.1,0.1-0.2,0.2-0.3,0.2
		c-0.1,0.1-0.2,0.1-0.4,0.2c-0.1,0-0.3,0.1-0.5,0.1c-0.1,0-0.2,0-0.4,0C72.5,136.1,72.3,136.1,72,136.1z M76.3,137.1l4.2-4.6
		l-3.8-4.3h1.8l2,2.3c0.2,0.2,0.4,0.5,0.5,0.6c0.1,0.2,0.2,0.3,0.3,0.4c0.1-0.1,0.2-0.3,0.4-0.4c0.1-0.2,0.3-0.3,0.5-0.5l2.2-2.4
		h1.7l-3.8,4.3l4.1,4.7h-1.9l-2.8-3.2c-0.1-0.1-0.2-0.2-0.2-0.3c-0.1-0.1-0.1-0.1-0.2-0.2l-0.3,0.3c-0.1,0.1-0.2,0.2-0.2,0.2
		l-2.8,3.1L76.3,137.1L76.3,137.1z M80.6,132.5l-4.2,4.6H78l2.8-3.1c0.1-0.1,0.1-0.1,0.2-0.2l0.4-0.4l0,0c0.1,0.1,0.1,0.2,0.2,0.3
		c0.1,0.1,0.2,0.2,0.2,0.3l2.7,3.2h1.6l-4-4.6l3.8-4.2h-1.5l-2.2,2.4c-0.2,0.2-0.3,0.3-0.5,0.5c-0.1,0.2-0.3,0.3-0.4,0.5l0,0l0,0
		c-0.1-0.1-0.2-0.3-0.3-0.5c-0.1-0.2-0.3-0.4-0.5-0.6l-2-2.3h-1.6L80.6,132.5L80.6,132.5z M86.6,132.8c0-0.7,0.1-1.4,0.4-2
		c0.2-0.6,0.6-1.1,1.1-1.5c0.5-0.4,1.1-0.7,1.7-0.9s1.3-0.3,2.1-0.3c0.5,0,1,0,1.4,0.1c0.5,0.1,0.9,0.2,1.3,0.5
		c0.4,0.2,0.8,0.4,1.1,0.7c0.3,0.3,0.6,0.6,0.8,0.9s0.4,0.7,0.5,1.1c0.1,0.4,0.2,0.8,0.2,1.3c0,0.5-0.1,0.9-0.2,1.3
		c-0.1,0.4-0.3,0.8-0.5,1.1c-0.2,0.4-0.5,0.7-0.8,1c-0.3,0.3-0.7,0.5-1.1,0.7c-0.4,0.2-0.9,0.3-1.3,0.4c-0.5,0.1-0.9,0.1-1.4,0.1
		c-0.5,0-1,0-1.5-0.2c-0.5-0.1-0.9-0.3-1.3-0.5c-0.4-0.2-0.8-0.4-1.1-0.7c-0.3-0.3-0.6-0.6-0.8-0.9c-0.2-0.4-0.4-0.7-0.5-1.1
		C86.7,133.6,86.6,133.2,86.6,132.8z M87.1,130.8c-0.2,0.6-0.4,1.2-0.4,2c0,0.4,0,0.8,0.2,1.1c0.1,0.4,0.3,0.7,0.5,1.1
		c0.2,0.3,0.5,0.7,0.8,0.9c0.3,0.3,0.7,0.5,1.1,0.7c0.4,0.2,0.8,0.4,1.3,0.5c0.5,0.1,0.9,0.2,1.5,0.2c0.5,0,0.9,0,1.4-0.1
		c0.4-0.1,0.9-0.2,1.3-0.4c0.4-0.2,0.8-0.4,1.1-0.7c0.3-0.3,0.6-0.6,0.8-0.9s0.4-0.7,0.5-1.1c0.1-0.4,0.2-0.8,0.2-1.3
		c0-0.5,0-0.9-0.2-1.3s-0.3-0.8-0.5-1.1c-0.2-0.4-0.5-0.7-0.8-0.9c-0.3-0.3-0.7-0.5-1.1-0.7c-0.4-0.2-0.8-0.3-1.3-0.4
		c-0.5-0.1-0.9-0.1-1.4-0.1c-0.8,0-1.5,0.1-2.1,0.3c-0.6,0.2-1.2,0.5-1.7,0.9C87.7,129.8,87.3,130.3,87.1,130.8z M88.2,132.8
		c0,1.1,0.3,1.9,1,2.5c0.4,0.3,0.7,0.5,1.2,0.7c0.4,0.2,0.9,0.2,1.4,0.2c1.1,0,2-0.3,2.7-0.9c0.3-0.3,0.6-0.7,0.8-1.1
		c0.2-0.4,0.3-0.9,0.3-1.5c0-0.4,0-0.7-0.1-1c-0.1-0.3-0.2-0.6-0.3-0.9c-0.2-0.3-0.3-0.5-0.5-0.7c-0.2-0.2-0.5-0.4-0.8-0.5
		c-0.3-0.1-0.6-0.2-0.9-0.3c-0.3-0.1-0.7-0.1-1-0.1c-0.5,0-1,0.1-1.4,0.2c-0.4,0.1-0.8,0.4-1.2,0.6c-0.4,0.3-0.6,0.7-0.8,1.1
		C88.3,131.6,88.2,132.1,88.2,132.8z M89.2,135.4c-0.7-0.6-1.1-1.5-1.1-2.6c0-0.7,0.1-1.3,0.3-1.7c0.2-0.5,0.5-0.9,0.9-1.2
		c0.4-0.3,0.8-0.5,1.2-0.7c0.4-0.1,0.9-0.2,1.4-0.2c0.4,0,0.7,0,1,0.1c0.3,0.1,0.6,0.2,0.9,0.3c0.3,0.1,0.5,0.3,0.8,0.5
		c0.2,0.2,0.4,0.5,0.6,0.7c0.2,0.3,0.3,0.6,0.3,0.9c0.1,0.3,0.1,0.7,0.1,1c0,0.6-0.1,1.1-0.3,1.5c-0.2,0.5-0.4,0.8-0.8,1.1
		c-0.7,0.6-1.6,0.9-2.7,0.9c-0.5,0-1-0.1-1.5-0.2C90,135.9,89.6,135.7,89.2,135.4z M99.7,128.2h6.7v7.9h1v3.2H106v-2.1h-7.1v2.1
		h-1.4V136h0.9c0.4-0.5,0.8-1.3,1-2.4c0.2-1.1,0.3-2.5,0.3-4.1L99.7,128.2L99.7,128.2z M106.3,128.3h-6.6v1.3c0,1.7-0.1,3-0.3,4.1
		c-0.2,1.1-0.6,1.9-1,2.5l0,0h-0.8v3h1.2v-2.1h7.3v2.1h1.2v-3h-1V128.3z M104.8,129.3h-3.7v0.4c0,0.8-0.1,1.8-0.2,3.1
		c-0.1,0.7-0.2,1.3-0.4,1.8c-0.2,0.5-0.3,1-0.6,1.4h4.9V129.3z M101,129.2h3.9v6.9h-5.2l0-0.1c0.2-0.4,0.5-0.9,0.6-1.4
		c0.2-0.5,0.3-1.1,0.4-1.8c0.2-1.3,0.2-2.3,0.2-3.1L101,129.2L101,129.2z M109,137.1v-9h1.6v3.7h5.6v-3.7h1.5v9h-1.5V133h-5.6v4.2
		L109,137.1L109,137.1z M109.1,128.3v8.8h1.4v-4.2h5.7v4.2h1.4v-8.8h-1.4v3.7h-5.7v-3.7H109.1z M120.1,128.2h1.5v3.8h2.6
		c0.9,0,1.6,0.1,2.1,0.2c0.6,0.1,1,0.3,1.3,0.6c0.3,0.3,0.5,0.5,0.6,0.8c0.1,0.3,0.2,0.6,0.2,0.9c0,0.4-0.1,0.7-0.2,1
		c-0.1,0.3-0.4,0.6-0.7,0.9c-0.3,0.3-0.7,0.5-1.3,0.6c-0.5,0.1-1.2,0.2-2,0.2h-4.2L120.1,128.2L120.1,128.2z M121.5,128.3h-1.4v8.8
		h4.1c0.8,0,1.4-0.1,2-0.2c0.5-0.1,0.9-0.3,1.2-0.6c0.3-0.3,0.5-0.5,0.6-0.8c0.1-0.3,0.2-0.6,0.2-0.9c0-0.3-0.1-0.6-0.2-0.9
		c-0.1-0.3-0.3-0.6-0.6-0.8c-0.3-0.2-0.7-0.4-1.2-0.6c-0.6-0.1-1.3-0.2-2.1-0.2h-2.7V128.3z M121.6,136.1h2.6c0.5,0,0.8,0,1.2-0.1
		c0.3-0.1,0.6-0.2,0.8-0.3s0.3-0.3,0.4-0.5c0.1-0.2,0.2-0.4,0.2-0.7c0-0.2,0-0.3-0.1-0.5c-0.1-0.2-0.1-0.3-0.3-0.4
		c-0.1-0.1-0.3-0.2-0.4-0.3c-0.2-0.1-0.3-0.1-0.5-0.2c-0.2,0-0.5-0.1-0.8-0.1c-0.3,0-0.7,0-1.2,0h-1.9V136.1z M124.2,136.2h-2.7V133
		h2c0.5,0,0.8,0,1.2,0c0.3,0,0.6,0,0.8,0.1c0.2,0,0.4,0.1,0.6,0.2c0.2,0.1,0.3,0.2,0.4,0.3c0.1,0.1,0.2,0.3,0.3,0.4
		c0.1,0.2,0.1,0.3,0.1,0.5c0,0.3-0.1,0.5-0.2,0.7c-0.1,0.2-0.3,0.4-0.5,0.5c-0.2,0.1-0.5,0.2-0.8,0.3
		C125.1,136.1,124.7,136.2,124.2,136.2z M129.7,128.2h1.5v9h-1.6L129.7,128.2L129.7,128.2z M131.1,128.3h-1.4v8.8h1.4V128.3z
		 M133.6,137.1v-9h8v1.1h-6.5v2.6h6v1.1h-6v2.9h6.7v1.1L133.6,137.1L133.6,137.1z M133.7,128.3v8.8h8.1v-1H135V133h6V132h-6v-2.8
		h6.5v-1H133.7z M149,128.2h6.7v7.9h1v3.2h-1.4v-2.1h-7.1v2.1h-1.4V136h0.9c0.4-0.5,0.8-1.3,1-2.4c0.2-1.1,0.3-2.5,0.3-4.1
		L149,128.2L149,128.2z M155.6,128.3h-6.6v1.3c0,1.7-0.1,3-0.3,4.1c-0.2,1.1-0.6,1.9-1,2.5l0,0h-0.8v3h1.2v-2.1h7.3v2.1h1.2v-3h-1
		V128.3z M154.2,129.3h-3.7v0.4c0,0.4,0,0.8-0.1,1.4c0,0.5-0.1,1.1-0.2,1.8c-0.1,0.7-0.2,1.3-0.4,1.8c-0.2,0.5-0.3,1-0.6,1.4h4.9
		V129.3z M150.4,129.2h3.9v6.9h-5.2l0-0.1c0.2-0.4,0.5-0.9,0.6-1.4c0.2-0.5,0.3-1.1,0.4-1.8c0.1-0.7,0.2-1.2,0.2-1.8
		c0-0.5,0.1-1,0.1-1.4L150.4,129.2L150.4,129.2z M158.3,137.1v-9h4.2c0.4,0,0.8,0,1.1,0.1c0.3,0,0.6,0.1,0.9,0.2
		c0.2,0.1,0.5,0.2,0.7,0.3c0.2,0.1,0.4,0.3,0.5,0.5c0.1,0.2,0.2,0.4,0.3,0.6s0.1,0.4,0.1,0.6c0,0.2,0,0.4-0.1,0.6
		c-0.1,0.2-0.2,0.4-0.3,0.5c-0.1,0.2-0.3,0.3-0.5,0.5c-0.2,0.1-0.3,0.2-0.5,0.3c0.3,0.1,0.5,0.2,0.7,0.3c0.3,0.1,0.5,0.3,0.7,0.5
		s0.3,0.4,0.4,0.6s0.1,0.5,0.1,0.7c0,0.2,0,0.4-0.1,0.6c-0.1,0.2-0.1,0.4-0.2,0.6c-0.1,0.2-0.2,0.3-0.4,0.5
		c-0.1,0.1-0.3,0.3-0.5,0.4c-0.2,0.1-0.3,0.2-0.5,0.3c-0.2,0.1-0.4,0.1-0.7,0.2c-0.2,0-0.5,0.1-0.8,0.1c-0.3,0-0.6,0-1,0
		L158.3,137.1L158.3,137.1z M158.4,128.3v8.8h4.1c0.3,0,0.7,0,1,0c0.3,0,0.6-0.1,0.8-0.1c0.2,0,0.5-0.1,0.7-0.2
		c0.2-0.1,0.4-0.2,0.5-0.2c0.2-0.1,0.3-0.2,0.4-0.3c0.1-0.1,0.2-0.3,0.4-0.5c0.1-0.2,0.2-0.4,0.2-0.6c0.1-0.2,0.1-0.4,0.1-0.6
		c0-0.3,0-0.5-0.1-0.7c-0.1-0.2-0.2-0.4-0.4-0.6c-0.2-0.2-0.4-0.3-0.6-0.5c-0.2-0.1-0.5-0.2-0.9-0.3l-0.1,0l0.1-0.1
		c0.3-0.1,0.5-0.2,0.7-0.4c0.2-0.1,0.3-0.3,0.5-0.4c0.1-0.2,0.2-0.3,0.3-0.5c0.1-0.2,0.1-0.4,0.1-0.5c0-0.2,0-0.4-0.1-0.6
		c-0.1-0.2-0.2-0.4-0.3-0.6c-0.1-0.2-0.3-0.3-0.5-0.5c-0.2-0.1-0.4-0.3-0.7-0.3c-0.2-0.1-0.5-0.2-0.9-0.2c-0.3,0-0.7-0.1-1.1-0.1
		H158.4z M159.8,131.9h2.3c0.3,0,0.6,0,0.8,0c0.2,0,0.4,0,0.5-0.1c0.2,0,0.3-0.1,0.5-0.2c0.1-0.1,0.2-0.2,0.3-0.3
		c0.1-0.1,0.2-0.2,0.2-0.3c0-0.1,0.1-0.3,0.1-0.4c0-0.1,0-0.3-0.1-0.4c0-0.1-0.1-0.2-0.2-0.4s-0.2-0.2-0.3-0.3
		c-0.1-0.1-0.3-0.1-0.4-0.2c-0.2,0-0.4-0.1-0.7-0.1s-0.6,0-1,0h-2.1V131.9z M162.1,132h-2.4v-2.8h2.2c0.4,0,0.7,0,1,0
		c0.3,0,0.5,0,0.7,0.1c0.2,0,0.3,0.1,0.4,0.2c0.1,0.1,0.2,0.2,0.3,0.3c0.1,0.1,0.2,0.2,0.2,0.4c0,0.1,0.1,0.3,0.1,0.4
		c0,0.2,0,0.3-0.1,0.4c-0.1,0.1-0.1,0.3-0.2,0.4c-0.1,0.1-0.2,0.2-0.4,0.3c-0.1,0.1-0.3,0.1-0.5,0.2c-0.1,0-0.3,0.1-0.6,0.1
		C162.7,132,162.4,132,162.1,132z M159.8,136h2.7c0.2,0,0.4,0,0.6,0c0.2,0,0.3,0,0.4,0c0.2,0,0.3-0.1,0.5-0.1c0.1,0,0.3-0.1,0.4-0.1
		c0.1-0.1,0.2-0.1,0.3-0.2c0.1-0.1,0.2-0.2,0.2-0.3c0.1-0.1,0.1-0.2,0.2-0.3c0-0.1,0-0.2,0-0.4c0-0.2,0-0.3-0.1-0.5
		c0-0.1-0.1-0.3-0.2-0.4c-0.1-0.1-0.2-0.2-0.4-0.3c-0.1-0.1-0.3-0.1-0.5-0.2c-0.2-0.1-0.4-0.1-0.7-0.1c-0.3,0-0.6,0-0.9,0h-2.5V136z
		 M162.5,136.1h-2.8V133h2.6c0.4,0,0.7,0,0.9,0c0.3,0,0.5,0.1,0.7,0.1c0.2,0,0.4,0.1,0.5,0.2c0.1,0.1,0.3,0.2,0.4,0.3
		c0.1,0.1,0.2,0.3,0.2,0.4c0,0.2,0.1,0.3,0.1,0.5c0,0.1,0,0.3-0.1,0.4c0,0.1-0.1,0.2-0.2,0.4c-0.1,0.1-0.2,0.2-0.3,0.3
		s-0.2,0.2-0.3,0.2c-0.1,0.1-0.2,0.1-0.4,0.2c-0.1,0-0.3,0.1-0.5,0.1c-0.1,0-0.2,0-0.4,0C162.9,136.1,162.7,136.1,162.5,136.1z
		 M168.5,137.1v-9h8v1.1h-6.5v2.6h6v1.1h-6v2.9h6.7v1.1L168.5,137.1L168.5,137.1z M168.6,128.3v8.8h8.1v-1H170V133h6V132h-6v-2.8
		h6.5v-1H168.6z M178.7,137.1v-9h4.2c0.4,0,0.7,0,1,0c0.3,0,0.5,0,0.7,0.1c0.3,0,0.5,0.1,0.7,0.2c0.2,0.1,0.4,0.2,0.6,0.3
		c0.2,0.1,0.4,0.2,0.5,0.4c0.1,0.1,0.3,0.3,0.4,0.5c0.1,0.2,0.2,0.4,0.2,0.6c0.1,0.2,0.1,0.4,0.1,0.7c0,0.4-0.1,0.7-0.2,1.1
		c-0.1,0.3-0.4,0.6-0.7,0.9c-0.3,0.3-0.7,0.5-1.3,0.6c-0.5,0.1-1.2,0.2-2,0.2h-2.8v3.6L178.7,137.1L178.7,137.1z M178.8,128.3v8.8
		h1.4v-3.6h2.9c0.8,0,1.4-0.1,2-0.2c0.5-0.1,0.9-0.3,1.2-0.6s0.5-0.5,0.7-0.9c0.2-0.3,0.2-0.7,0.2-1c0-0.2,0-0.4-0.1-0.6
		c-0.1-0.2-0.1-0.4-0.2-0.6c-0.1-0.2-0.2-0.3-0.4-0.5c-0.1-0.1-0.3-0.3-0.5-0.4c-0.2-0.1-0.4-0.2-0.6-0.3c-0.2-0.1-0.5-0.1-0.7-0.2
		c-0.2,0-0.4,0-0.7-0.1c-0.3,0-0.6,0-0.9,0H178.8z M180.3,132.4h2.8c0.5,0,0.9,0,1.2-0.1c0.3-0.1,0.6-0.2,0.8-0.3
		c0.2-0.1,0.3-0.3,0.4-0.5c0.1-0.2,0.1-0.4,0.1-0.7c0-0.2,0-0.4-0.1-0.5c-0.1-0.2-0.1-0.3-0.2-0.4c-0.1-0.1-0.2-0.2-0.4-0.3
		c-0.1-0.1-0.3-0.2-0.5-0.2c-0.1,0-0.3,0-0.5-0.1c-0.2,0-0.5,0-0.8,0h-2.7V132.4z M183,132.5h-2.9v-3.3h2.8c0.3,0,0.6,0,0.8,0
		c0.2,0,0.4,0,0.5,0.1c0.2,0,0.4,0.1,0.5,0.2c0.2,0.1,0.3,0.2,0.4,0.3c0.1,0.1,0.2,0.3,0.3,0.5c0.1,0.2,0.1,0.3,0.1,0.5
		c0,0.3-0.1,0.5-0.2,0.7c-0.1,0.2-0.3,0.4-0.5,0.5c-0.2,0.1-0.5,0.3-0.8,0.3C183.9,132.5,183.5,132.5,183,132.5z M189,128.2h1.4v7
		l5.8-7h1.5v9h-1.4v-7l-5.7,7h-1.5L189,128.2L189,128.2z M190.2,128.3H189v8.8h1.4l5.9-7.1v7.1h1.2v-8.8h-1.4l-5.9,7.2V128.3z"/>
</g>
</svg>
