<?xml version="1.0" encoding="utf-8"?>
<!-- Generator: Adobe Illustrator 18.0.0, SVG Export Plug-In . SVG Version: 6.00 Build 0)  -->
<!DOCTYPE svg PUBLIC "-//W3C//DTD SVG 1.1//EN" "http://www.w3.org/Graphics/SVG/1.1/DTD/svg11.dtd">
<svg version="1.1" id="Layer_1" xmlns="http://www.w3.org/2000/svg" xmlns:xlink="http://www.w3.org/1999/xlink" x="0px" y="0px"
	 viewBox="0 0 200 200" enable-background="new 0 0 200 200" xml:space="preserve">
<g id="Layer_x0020_1">
	
		<linearGradient id="SVGID_1_" gradientUnits="userSpaceOnUse" x1="1901.9487" y1="-5848.2427" x2="5816.0894" y2="-433.9254" gradientTransform="matrix(2.558021e-002 0 0 -2.558021e-002 0.9744 6.1455)">
		<stop  offset="0" style="stop-color:#393285"/>
		<stop  offset="0.4078" style="stop-color:#9B98C1"/>
		<stop  offset="0.502" style="stop-color:#007DC2;stop-opacity:0.4784"/>
		<stop  offset="0.9216" style="stop-color:#FEFEFE"/>
		<stop  offset="1" style="stop-color:#FEFEFE"/>
	</linearGradient>
	<polygon fill="url(#SVGID_1_)" points="14,71.6 84.4,1.2 113.5,1.2 185.5,73.2 185.5,101.2 114.9,171.8 85.2,171.8 14.5,101.1 	"/>
	<path fill="#2B2A29" d="M14,71.6L84.4,1.2h29.2c24,24,48,48,72,72v28.1c-23.5,23.6-47.1,47.1-70.6,70.6H85.2l-70.8-70.8
		C14.3,91.3,14.1,81.4,14,71.6L14,71.6z M84.4,1.3L14.1,71.7l0.5,29.4l70.7,70.7h29.6l70.6-70.6v-28L113.5,1.3H84.4z"/>
	<polygon fill="#3B3285" points="87.6,8.1 112.7,8.1 179.6,74.9 179.6,98.9 111.9,166.5 89.1,166.5 21.6,99 21.6,75.3 	"/>
	<path fill="#2B2A29" d="M87.6,8h25.1c22.3,22.3,44.6,44.6,66.9,66.9v24c-22.5,22.6-45.1,45.1-67.7,67.7H89.1
		C66.6,144,44,121.6,21.6,99.1V75.3C43.6,52.8,65.6,30.4,87.6,8L87.6,8z M112.7,8.1H87.6L21.7,75.3V99l67.5,67.5h22.7l67.6-67.6V75
		L112.7,8.1z"/>
	<polygon fill="#FEFEFE" points="25.6,76.7 90.4,11.8 110.3,11.8 175.1,76.6 175.1,97.3 111,161.4 89.8,161.4 25.6,97.3 	"/>
	<path fill="#2B2A29" d="M25.5,76.6l64.9-64.9h19.9c21.6,21.6,43.2,43.2,64.8,64.8v20.8L111,161.5H89.8
		C68.4,140.1,47,118.6,25.5,97.3C25.5,90.4,25.5,83.5,25.5,76.6L25.5,76.6z M90.5,11.9L25.6,76.7l0.1,20.5l64.1,64.1h21.1L175,97.3
		V76.6l-64.8-64.8H90.5z"/>
	
		<radialGradient id="SVGID_2_" cx="3840.1001" cy="-2989.3743" r="903.6871" gradientTransform="matrix(2.558021e-002 0 0 -2.531522e-002 0.9744 9.9804)" gradientUnits="userSpaceOnUse">
		<stop  offset="0" style="stop-color:#20BAED"/>
		<stop  offset="0.749" style="stop-color:#FEFEFE"/>
		<stop  offset="0.749" style="stop-color:#8FDCF6"/>
		<stop  offset="1" style="stop-color:#FEFEFE"/>
	</radialGradient>
	<polygon fill="url(#SVGID_2_)" points="75.8,43.9 100.1,19.6 128.4,47.9 165.9,85.5 99.7,151.7 32.5,84.4 	"/>
	<path fill="#FEFEFE" d="M86.3,69.2c-3.8,5.9-5.7,10.8-8.9,16.5c-2.1,0.9-4.3,1.8-6.4,2.7c-12.4,5.5-27.3,13.1-24.5,29
		c2.7,2.9,5.4,5.9,8.2,8.8c12.6-0.2,19.3-1.1,29.6-9.6c3.4-3.6,6.1-6.7,8.9-10.8c0.1,1.3,0.1,2.6,0.2,3.9c0.4,5.1,0.4,6.8,3.7,11.1
		c8.4,6.8,20.6,5.6,30.5,3.2c15-6.8,23.4-12,26.3-29.6c-1.1-10.6-3.6-13.5-13.2-18.9c-2.4,1.8-4.9,3.7-7.3,5.5
		c4.8,4.8,5.6,5.1,5.9,12c-2.1,9.2-10.9,23-21.8,21.4c-2.9-6.9,7.6-28.8,10.9-35.9c5.7-2.4,11-4.8,16.5-7.5
		c9.5-8.4,10-18.7-4.2-21.5c-18.4,1.4-25,8.5-34.6,24.4c1.8-9,2.7-12.1,11.1-17.1c-2.2-2-4.4-3.9-6.7-5.9c-4.3,0.9-6.3,1-10.7,1
		C72.7,45.4,52.5,41,40.8,72c0.6,0.8,1.2,1.7,1.9,2.5c3.4,0.9,5.2,1,8.7,0.7c4.1-7.9,6.3-7,14.6-7C72.8,68.5,79.5,68.9,86.3,69.2z"
		/>
	<path fill="#FEFEFE" d="M86.3,69.3c-2.2,3.5-3.8,6.6-5.4,9.8c-1.1,2.2-2.2,4.4-3.5,6.7l0,0l-6.4,2.7c-6.2,2.7-13,6-17.9,10.6
		c-4.9,4.6-7.9,10.4-6.5,18.3l8.1,8.8c6.3-0.1,11.1-0.4,15.6-1.7c4.5-1.3,8.8-3.6,13.9-7.9c1.7-1.8,3.2-3.5,4.7-5.2
		c1.5-1.7,2.8-3.5,4.2-5.6l0.1-0.2l0.2,4.1l0.1,0.9c0.4,4.4,0.5,6.2,3.6,10.1c4.2,3.4,9.3,4.8,14.6,5c5.3,0.3,10.9-0.7,15.8-1.9
		c7.5-3.4,13.4-6.4,17.7-10.7c4.3-4.3,7.1-10,8.6-18.8c-0.6-5.3-1.5-8.6-3.4-11.3s-4.9-4.8-9.7-7.5l-7.2,5.5c0.4,0.4,0.7,0.7,1,1
		c3.9,3.9,4.6,4.6,4.8,11.1v0v0c-1.2,5.2-4.5,11.9-9.1,16.4c-3.6,3.5-7.9,5.7-12.7,5l0,0l0,0c-2.8-6.6,6.8-27.1,10.5-35l0.4-0.9l0,0
		c2.8-1.2,5.6-2.4,8.3-3.6c2.7-1.2,5.4-2.5,8.2-3.8c3.7-3.2,6-6.8,6.6-10c0.3-1.3,0.2-2.5,0-3.7c-0.3-1.2-0.9-2.3-1.7-3.3
		c-1.7-2-4.7-3.5-9-4.4c-9.2,0.7-15.4,2.8-20.5,6.8c-5.1,3.9-9.2,9.7-13.9,17.6l-0.2,0.3l0.1-0.4c0.9-4.5,1.6-7.5,3.1-10.1
		c1.5-2.5,3.8-4.5,8-7l-6.6-5.8c-2.2,0.5-3.7,0.7-5.3,0.8c-1.6,0.1-3.2,0.1-5.4,0.1h0l0,0C86.3,48.8,74.4,46,64.5,48
		c-9.9,1.9-17.8,8.6-23.6,24l1.8,2.5c1.7,0.4,2.9,0.7,4.2,0.8c1.3,0.1,2.6,0,4.4-0.1c3.6-7.1,5.9-7.1,12.3-7c0.7,0,1.5,0,2.4,0
		C72.7,68.6,79.7,68.8,86.3,69.3L86.3,69.3z M80.8,79c1.6-3.1,3.2-6.3,5.3-9.7l-20.1-1c-0.8,0-1.6,0-2.4,0c-6.4-0.1-8.6-0.1-12.2,7
		l0,0h0c-1.8,0.2-3.1,0.2-4.4,0.1c-1.3-0.1-2.6-0.3-4.3-0.8l0,0c-0.6-0.9-1.3-1.7-1.9-2.6l0,0c5.8-15.5,13.8-22.2,23.7-24.1
		c9.9-1.9,21.8,0.8,35.4,4.2c2.2,0,3.8,0,5.4-0.1c1.6-0.1,3.2-0.4,5.3-0.8l0,0c2.3,2,4.5,4,6.8,5.9l-0.1,0c-4.2,2.5-6.5,4.5-8,7
		c-1.5,2.5-2.2,5.4-3,9.7c4.7-7.8,8.7-13.4,13.8-17.3c5.2-3.9,11.4-6.1,20.6-6.8l0,0l0,0c4.4,0.8,7.3,2.4,9.1,4.4
		c0.9,1,1.5,2.1,1.8,3.3c0.3,1.2,0.3,2.5,0.1,3.8c-0.6,3.3-3,6.9-6.7,10.1l0,0h0c-2.8,1.3-5.5,2.6-8.2,3.8c-2.7,1.2-5.4,2.4-8.3,3.6
		l-0.4,0.9c-3.7,7.8-13.2,28.2-10.5,34.9c4.7,0.7,9-1.5,12.6-5c4.6-4.5,7.9-11.2,9.1-16.4c-0.2-6.4-1-7.1-4.8-11
		c-0.3-0.3-0.7-0.7-1-1l-0.1-0.1c2.5-1.9,4.9-3.7,7.4-5.6l0,0c4.8,2.7,7.8,4.8,9.8,7.6c2,2.7,2.9,6.1,3.4,11.4v0l0,0
		c-1.4,8.8-4.3,14.5-8.6,18.9c-4.4,4.3-10.2,7.3-17.7,10.7l0,0c-4.9,1.2-10.5,2.1-15.8,1.9c-5.4-0.2-10.5-1.7-14.7-5.1l0,0l0,0
		c-3.2-4-3.3-5.8-3.7-10.2c-0.1-1.5-0.2-3-0.2-4.6c-1.4,2-2.7,3.8-4.1,5.5c-1.5,1.7-3,3.4-4.7,5.2l0,0c-5.2,4.2-9.4,6.6-14,7.9
		c-4.5,1.3-9.4,1.6-15.7,1.7h0c-2.7-3-5.5-5.9-8.2-8.9l0,0c-1.4-8,1.6-13.9,6.6-18.5c4.9-4.6,11.8-7.9,17.9-10.6l6.4-2.7
		C78.6,83.4,79.7,81.2,80.8,79z"/>
	<path fill="#3B3285" d="M46,72.4c1.1-2.2,3-6.6,4.2-8.1c12.2-14.1,22.9-13.6,39.7-10.4c7,2.1,11.7,3.6,18.9,2.1
		c3.8-0.7,3,1.2,1.1,3.1c-2.6,3.8-3.8,5.9-5.7,10.1c-1.4,3.5-2.9,8.4-3.4,12.2c2.1-0.6,4.1-1.2,6.2-1.7c7.2-9.3,10.3-14.7,20-21.8
		c3.3-2.7,11-5.4,16.2-5.4c5.3-0.2,7.8,4.6,6.5,8.4c-3.2,8.3-14.5,12-23.5,15.9c-4.4,7.1-7.8,18.6-10.2,26.9c-0.8,3-1.2,5.3-1.6,8.4
		c-0.2,15,16.4,1.9,21.4-3.2c5.8-7.5,12.4-19,3.1-26.7c0.6-0.6,1.1-1.2,1.7-1.8c3.4,1.6,4.5,2.4,6.6,5.4c5.6,8.8,2.6,17.6-4.6,24.6
		c-10.4,9.2-16.9,12.9-31,12.9c-12.8-1.3-16.5-7.1-13.3-19.1c2.5-7.1,5.6-14.1,8-21.1c-2.4,0.9-4.8,1.8-7.2,2.7
		C97.1,92,95.1,97.1,92,103c-6.6,10.2-14.3,16.4-23,19c-14.7,3.9-25.5-6.8-13.5-18.7c6.3-6,15.9-9.9,24.8-14.4
		c6.9-14.1,8.2-16.7,20.2-26.5C88,65.7,81,66.9,68.1,65.1c-7.4-0.6-14.6-0.7-18.3,6.7c-0.2,0.2-0.4,0.5-0.5,0.7
		C48.1,72.4,47,72.4,46,72.4z"/>
	<path fill="#2B2A29" d="M45.9,72.4c0.2-0.4,0.4-0.9,0.6-1.3c1.1-2.3,2.6-5.5,3.6-6.8l0,0c6.1-7.1,11.9-10.5,18.2-11.7
		c6.3-1.2,13.2-0.3,21.6,1.3h0c7,2.1,11.7,3.6,18.9,2.1h0c1-0.2,1.7-0.2,2.1,0c0.3,0.1,0.5,0.3,0.6,0.5c0.1,0.2,0.1,0.5-0.1,0.8
		c-0.2,0.6-0.8,1.3-1.5,2c-1.3,1.9-2.2,3.4-3.1,4.9c-0.9,1.5-1.6,3.1-2.6,5.2c-0.7,1.9-1.6,4.3-2.2,6.6c-0.5,1.9-1,3.8-1.2,5.4
		l6.1-1.7c1.2-1.6,2.4-3.1,3.4-4.5c5.1-6.7,8.6-11.4,16.6-17.3c1.7-1.4,4.5-2.7,7.5-3.8c3-1,6.2-1.7,8.8-1.7c0.9,0,1.8,0.1,2.5,0.3
		c1.4,0.4,2.5,1.3,3.2,2.4c0.7,1.1,1.1,2.3,1.2,3.6c0,0.7-0.1,1.5-0.3,2.2v0c-2.8,7.3-11.7,11-19.9,14.4c-1.2,0.5-2.4,1-3.6,1.5
		c-4.4,7.1-7.7,18.5-10.2,26.8l0,0.1c-0.4,1.5-0.7,2.8-1,4.2c-0.3,1.3-0.5,2.7-0.7,4.2c0,2.1,0.3,3.7,0.8,4.8c0.7,1.4,2,2.1,3.4,2.1
		c1.5,0.1,3.2-0.5,5.1-1.3c4.6-2.2,9.6-6.4,12-8.8c2.9-3.8,6-8.5,7.2-13.3c1.2-4.8,0.6-9.5-4.1-13.3l-0.1,0l1.7-1.9l0,0
		c1.7,0.8,2.8,1.4,3.8,2.2c1,0.8,1.8,1.7,2.8,3.3l0,0c2.7,4.2,3.4,8.4,2.6,12.4c-0.8,4.4-3.5,8.6-7.3,12.3v0
		c-5.2,4.6-9.4,7.8-14.1,9.9c-4.7,2.1-9.8,3-16.9,3h0c-6.4-0.6-10.6-2.4-12.7-5.6c-2.1-3.1-2.2-7.6-0.6-13.6v0
		c1.2-3.3,2.5-6.6,3.8-9.9c1.5-3.7,2.9-7.3,4.2-11l-7.1,2.7c-1,3.2-2.1,6-3.2,8.8c-1.2,2.8-2.4,5.6-4,8.5l0,0
		c-3.3,5.1-6.8,9.1-10.6,12.3c-3.9,3.2-8,5.4-12.4,6.8l0,0c-5,1.3-9.5,1-12.9-0.5c-1.9-0.9-3.5-2.2-4.5-3.7c-1-1.6-1.5-3.4-1.3-5.4
		c0.3-2.8,1.9-5.9,5.1-9.1l0,0c4.9-4.7,11.9-8.1,18.9-11.5c2-1,4-1.9,5.9-2.9c3.4-7,5.5-11.2,8.2-14.8c2.7-3.6,5.9-6.7,11.8-11.5
		c-6.1,1.6-10.9,2.7-15.7,3.2c-4.9,0.5-9.9,0.3-16.4-0.6c-3.7-0.3-7.3-0.5-10.5,0.3c-3.2,0.8-5.9,2.6-7.8,6.3
		c-0.1,0.1-0.4,0.6-0.6,0.7C48.1,72.5,47,72.5,45.9,72.4L45.9,72.4z M46.6,71.1c-0.2,0.5-0.4,0.9-0.6,1.3h3.1l0.5-0.7
		c1.9-3.7,4.6-5.5,7.8-6.3s6.9-0.7,10.6-0.4l0,0c6.5,0.9,11.4,1.1,16.3,0.6c4.9-0.5,9.8-1.6,16-3.3l0.3-0.1l-0.2,0.2
		c-6,4.9-9.3,8.1-12,11.7c-2.7,3.6-4.7,7.8-8.2,14.8l0,0l0,0c-2,1-3.9,2-5.9,2.9c-7,3.4-13.9,6.8-18.8,11.5c-3.2,3.2-4.8,6.3-5,9
		c-0.2,2,0.3,3.8,1.3,5.3c1,1.5,2.5,2.8,4.4,3.7c3.3,1.5,7.9,1.9,12.8,0.5c4.4-1.3,8.5-3.5,12.3-6.7c3.8-3.1,7.4-7.2,10.6-12.3
		c1.5-3,2.8-5.7,4-8.5c1.1-2.8,2.2-5.7,3.2-8.9l0,0c2.5-0.9,4.9-1.9,7.4-2.8l0,0.1c-1.3,3.7-2.7,7.4-4.2,11.1
		c-1.3,3.3-2.6,6.6-3.8,9.9c-1.6,6-1.5,10.4,0.6,13.5c2.1,3.1,6.2,4.9,12.6,5.5c7,0,12.2-0.9,16.8-3c4.7-2.1,8.9-5.3,14.1-9.9
		c3.8-3.7,6.4-7.8,7.2-12.2c0.7-4,0-8.1-2.6-12.3c-1-1.5-1.8-2.5-2.8-3.2c-0.9-0.8-2.1-1.3-3.7-2.1l-1.6,1.7c4.6,3.8,5.3,8.6,4,13.4
		c-1.2,4.8-4.3,9.5-7.2,13.3l0,0c-2.4,2.4-7.4,6.7-12,8.9c-1.8,0.9-3.6,1.4-5.1,1.3c-1.5-0.1-2.8-0.7-3.5-2.2
		c-0.6-1.1-0.9-2.7-0.9-4.9v0c0.2-1.6,0.4-2.9,0.7-4.2c0.3-1.3,0.6-2.6,1-4.2l0-0.1c2.4-8.3,5.8-19.8,10.2-26.9l0,0l0,0
		c1.2-0.5,2.4-1,3.6-1.5c8.1-3.4,17.1-7.1,19.8-14.3c0.2-0.7,0.3-1.4,0.3-2.1c0-1.2-0.4-2.5-1.2-3.5c-0.7-1-1.8-1.9-3.1-2.3
		c-0.7-0.2-1.6-0.4-2.5-0.3h0c-2.6,0-5.8,0.7-8.7,1.7c-3,1-5.8,2.4-7.4,3.7l0,0c-8,5.9-11.5,10.5-16.6,17.3
		c-1.1,1.4-2.2,2.9-3.4,4.5l0,0c-2.1,0.6-4.2,1.2-6.3,1.8l0-0.1c0.2-1.7,0.7-3.6,1.2-5.5c0.7-2.3,1.5-4.7,2.2-6.6l0,0
		c0.9-2.1,1.7-3.7,2.6-5.2c0.9-1.5,1.8-3,3.1-4.9l0,0c0.7-0.7,1.2-1.4,1.4-2c0.1-0.3,0.1-0.5,0.1-0.7c-0.1-0.2-0.2-0.3-0.5-0.4
		c-0.4-0.1-1.1-0.1-2.1,0c-7.2,1.5-11.9,0.1-18.9-2.1l0,0c-8.4-1.6-15.2-2.6-21.5-1.3c-6.3,1.2-12,4.6-18.1,11.7
		C49.2,65.6,47.7,68.8,46.6,71.1z"/>
	<path fill="#FEFEFE" d="M129.1,71.2c3.6-5.3,6.4-9.9,11.5-14.1c4.2-2.8,7.4-1.8,4.4,2.9C142.7,63.4,133.3,71.1,129.1,71.2z"/>
	<path fill="#2B2A29" d="M129,71.2c0.5-0.7,0.9-1.4,1.4-2.1c3-4.5,5.7-8.4,10.1-12v0c1.6-1,3-1.6,4.1-1.6c0.5,0,0.9,0.1,1.1,0.4
		c0.3,0.2,0.5,0.6,0.5,1c0,0.7-0.3,1.8-1.2,3.2v0c-1.3,1.9-4.8,5.1-8.3,7.6C133.9,69.7,131,71.2,129,71.2l-0.1,0.1L129,71.2z
		 M130.5,69.2c-0.4,0.6-0.9,1.3-1.3,2c1.9-0.1,4.7-1.6,7.4-3.6c3.6-2.5,7-5.7,8.3-7.5c0.8-1.3,1.2-2.4,1.1-3.1
		c0-0.4-0.2-0.7-0.4-0.9c-0.3-0.2-0.6-0.3-1.1-0.3c-1,0-2.4,0.5-4,1.5C136.2,60.8,133.5,64.7,130.5,69.2z"/>
	<path fill="#FEFEFE" d="M56.5,117.4c-2-5.1,5.9-11.1,9.4-13.8c4-3.1,7.5-5.6,11.6-8.4c0.4-0.2,0.8-0.5,1.2-0.7
		c-3,7.5-7.8,18.8-12.1,21.5C64.4,117.5,58.3,121.4,56.5,117.4z"/>
	<path fill="#2B2A29" d="M56.5,117.5c-2-5,5.6-11,9.2-13.7l0.2-0.1c2-1.5,3.9-2.9,5.8-4.3c1.9-1.4,3.8-2.7,5.9-4.1
		c0.5-0.3,0.9-0.6,1.4-0.8l-0.1,0.2c-1.5,3.8-3.4,8.5-5.6,12.6c-2.1,4.1-4.4,7.6-6.6,9l0,0c-0.9,0.6-2.3,1.5-3.8,2.2
		C60.3,119.4,57.6,120,56.5,117.5L56.5,117.5z M65.7,103.8c-3.6,2.8-11.1,8.7-9.1,13.6c1.1,2.4,3.7,1.9,6.2,0.8
		c1.5-0.7,2.9-1.6,3.8-2.2l0,0c2.1-1.3,4.4-4.8,6.5-8.9c2.1-4,4-8.7,5.5-12.4l-1.1,0.6c-2.1,1.4-4,2.7-5.9,4.1s-3.8,2.8-5.8,4.3
		L65.7,103.8z"/>
	<path fill="#393285" d="M0.1,178.5c3.5,0,7,0,10.5,0c0,1.7,0,3.4,0,5.1c0.8,0,1.7,0,2.5,0c0-1.7,0-3.4,0-5c5.9,0,11.8,0,17.7,0
		c0,1.6,0,3.1,0,4.7c2.8,0,5.6,0,8.5,0c0-1.6,0-3.1,0-4.7c8.6,0,17.3,0,25.9,0c2.4,0,3.5,1.5,3.7,3.6c0.2,4,0.2,8,0.2,12
		c-0.1,2.7-1.2,4.2-3.8,4.2c-17.4,0-34.8,0-52.2,0c0-2,0-3.9,0-5.9c-0.9,0-1.7,0-2.6,0c0,1.9,0,3.8,0,5.8c-3.5,0-6.9,0-10.4,0
		C0.1,191.7,0.1,185.1,0.1,178.5z"/>
	<path fill="#393285" d="M0.1,178.4h10.6v5.1h2.4v-5h17.9v4.7h8.3v-4.7c3.9,0,23.8-0.5,26,0c1.2,0,2,0.4,2.6,1
		c0.7,0.6,1,1.6,1.1,2.7l0,0c0.2,3.3,0.2,6.7,0.2,10c0,0.6,0,1.3,0,2l0,0c-0.1,1.4-0.3,2.4-1,3.2s-1.6,1.1-2.9,1.1H13v-5.9h-2.5v5.8
		c-3.5,0-7,0-10.5,0C0,191.7,0.1,185.1,0.1,178.4L0.1,178.4z M10.6,178.5H0.2l-0.1,19.7h10.3v-5.8h2.7v5.9h52.1
		c1.3,0,2.2-0.4,2.8-1.1c0.6-0.7,0.9-1.7,0.9-3.1c0-0.6,0-1.3,0-2c0-3.3,0-6.6-0.2-10c-0.1-1.1-0.4-2-1.1-2.6
		c-0.6-0.6-1.4-0.9-2.5-0.9H39.4v4.7h-8.6v-4.7H13.2v5h-2.6V178.5z"/>
	<polygon fill="#FEFEFE" points="4.2,182.3 6.9,182.3 6.9,186.9 16.8,186.9 16.8,182.2 19.8,182.2 19.8,194.3 16.4,194.3 
		16.4,189.1 7.1,189.1 7.1,194.7 4,194.7 	"/>
	<path fill="#FEFEFE" d="M4.2,182.2H7v4.5h9.8v-4.6h3.1v12.2h-3.5v-5.1H7.1v5.6H4C4,190.6,4.1,186.4,4.2,182.2L4.2,182.2z
		 M6.8,182.4H4.3l-0.2,12.3H7v-5.6h9.5v5.1h3.3v-11.9h-2.9v4.6h-10V182.4z"/>
	<path fill="#FEFEFE" d="M24.6,182.1c0,4.1,0,8.1,0,12.2c4.7,0,9.3,0,14,0c0.8-0.1,0.9-1.1,0.9-2.4c0-1,0-2.1,0-3.1
		c-0.1-1-0.1-1.9-1.9-1.9c-3.4,0-6.8,0-10.2,0c0-1.6,0-3.2,0-4.8C26.4,182.1,25.5,182.1,24.6,182.1z"/>
	<path fill="#FEFEFE" d="M24.7,182.2v12.1h13.9c0.4,0,0.6-0.3,0.7-0.7c0.1-0.4,0.2-1,0.1-1.6v-3.1l0-0.1c-0.1-0.9-0.2-1.7-1.9-1.7
		H27.2v-4.8H24.7z M24.6,194.3v-12.3h2.8v4.8l10.2,0c1.8,0.1,1.9,0.9,2,1.9c0.1,1,0,2.2,0,3.2c0,0.6,0,1.2-0.1,1.6
		c-0.1,0.5-0.4,0.7-0.8,0.8C34.4,194.7,28.9,194.4,24.6,194.3L24.6,194.3z"/>
	<path fill="#FEFEFE" d="M43.4,182.1c0,4,0,8.1,0,12.1c0.7,0,1.4,0,2,0c0-1.8,0-3.5,0-5.3c1.1,0,2.2,0,3.3,0c0,1.2,0,2.4,0,3.6
		c0,0.9,0,1.8,0.9,1.9c4.6,0,9.2,0,13.8,0c1.5,0,2-0.8,1.9-1.9c0-2.8,0-5.7,0-8.5c-0.1-1.4-0.6-2-3.3-1.9c-4,0-7.9,0-11.9,0
		c-1.1,0.1-1.6,1-1.6,2.4c0,0.8,0,1.6,0,2.4c-1.1,0-2.2,0-3.3,0c0-1.6,0-3.1,0-4.7C44.7,182.1,44,182.1,43.4,182.1z"/>
	<path fill="#FEFEFE" d="M43.5,182.2v12h1.9v-5.3h3.5c0,0.6,0.1,3.3,0,3.6c0,0.4,0,0.9,0.1,1.2c0.1,0.3,0.3,0.5,0.7,0.6h13.8
		c0.1,0,0.1,0,0.2,0c0.6,0,1.1-0.2,1.3-0.5c0.3-0.3,0.4-0.7,0.4-1.2c0,0,0-0.1,0-0.1V184c0-0.7-0.2-1.2-0.7-1.5
		c-0.5-0.3-1.3-0.4-2.6-0.4H50.2c-0.5,0-0.9,0.3-1.2,0.7c-0.3,0.4-0.4,1-0.4,1.7v2.4h-3.4v-4.7H43.5z M43.3,194.3v-12.2h2.1v4.7h3.1
		v-2.3c0-0.7,0.1-1.3,0.4-1.8c0.3-0.4,0.7-0.7,1.3-0.7h11.9c1.4,0,2.2,0.1,2.7,0.4c0.5,0.3,0.7,0.9,0.7,1.6v8.5c0,0,0,0.1,0,0.1
		c0,0.5-0.1,0.9-0.4,1.2c-0.3,0.3-0.7,0.5-1.4,0.5c-0.1,0-0.1,0-0.2,0c-3.6,0-10.7,0.4-13.8,0c-0.5-0.1-0.7-0.3-0.8-0.7
		c-0.1-0.3-0.1-0.8-0.1-1.3l0-3.5h-3.2v5.3L43.3,194.3L43.3,194.3z"/>
	<polygon fill="#393285" points="51.7,184.3 51.7,192.7 62.7,192.7 62.7,184.2 62.2,184.2 	"/>
	<path fill="#FEFEFE" d="M51.8,184.4v8.3h10.9v-8.3h-0.4L51.8,184.4z M51.6,192.7v-8.4l10.6-0.1h0.6v8.6L51.6,192.7L51.6,192.7z"/>
	<path fill="#393285" d="M81.2,178.5c4.5,0,9,0,13.5,0c0.8,0.1,1.2,0.8,1.8,1.3c0-0.4,0-0.8,0-1.2c12.6,0,25.3,0,37.9,0
		c0,0.3,0,0.5,0,0.8c0.4,0,0.8,0,1.1,0c0-0.3,0-0.6,0-0.9c6,0,12,0,18.1,0c1,0.2,1.5,0.7,1.9,1.2c0.3,0,0.6,0,0.9,0
		c0-0.4,0-0.8,0-1.2c3.3,0,6.6,0,9.8,0c0,1.4,0,2.9,0,4.3c2-1.5,4.1-3,6.1-4.5c2.5,0,4.9,0,7.4,0c0,0.4,0,0.9,0,1.3
		c0.7-0.6,1.5-1.2,2.4-1.3c4.6,0,9.3,0,13.9,0c2.7,0,3.6,1.2,3.7,3.2c0,4.3,0,8.6,0,12.8c-0.1,3.3-1.8,4-5,4.1c-4.2,0-8.3,0-12.5,0
		c-1.1-0.2-1.8-0.7-2.6-1.1c0,0.4,0,0.8,0,1.1c-3.5,0-7,0-10.6,0c0-1.4,0-2.8,0-4.2c-1.9,1.4-3.9,2.9-5.9,4.3c-2.4,0-4.8,0-7.2,0
		c0-0.4-0.1-0.8-0.1-1.1c-0.8,0.6-1.9,1-3.3,1.1c-5.8,0-11.5,0-17.3,0c0-1.8,0-3.6,0-5.4c-3,0-6,0-9,0c0,1.8,0,3.7,0,5.5
		c-9.7,0-19.3,0-29,0c0-0.4,0-0.8,0-1.2c-0.8,0.6-1.5,1.2-3,1.5c-4.5,0-8.9,0-13.4,0c-2.6-0.1-4.4-2-4.4-4.6c0-3.8,0-7.6,0-11.5
		C76.6,179.5,78.2,178.7,81.2,178.5z"/>
	<path fill="#393285" d="M81.2,178.4h13.5c0.6,0,1,0.4,1.4,0.9c0.1,0.1,0.2,0.2,0.4,0.4v-1.1h38v0.8h1v-0.9c3.8,0,15.2-0.5,18.1,0
		c0.5,0.1,0.9,0.3,1.2,0.5c0.3,0.2,0.6,0.5,0.8,0.7h0.8v-1.2h10v4.2l6-4.4h7.5v1.2c0.3-0.3,0.6-0.5,1-0.8c0.4-0.2,0.9-0.4,1.4-0.5
		c1.3-0.1,13.3-0.1,13.9,0c1.3,0,2.3,0.3,2.9,0.9c0.6,0.5,0.9,1.3,0.9,2.4c0.1,1.5,0.2,11.8,0,12.9c0,1.7-0.5,2.7-1.3,3.3
		c-0.9,0.6-2.1,0.8-3.7,0.8c-2.4,0-10.8,0.3-12.5,0c-0.8-0.2-1.4-0.5-2-0.8c-0.2-0.1-0.3-0.2-0.5-0.3v1.1h-10.7v-4.2l-5.8,4.2h-7.2
		l-0.1-1.1c-0.4,0.3-0.9,0.5-1.5,0.7c-0.5,0.2-1.1,0.3-1.8,0.3c-5.3,0.4-12,0-17.4,0V193h-8.9v5.5H97.3v-1.2
		c-0.4,0.3-0.7,0.5-1.1,0.8c-0.5,0.3-1,0.5-1.8,0.6c-0.4,0.1-13.1,0.1-13.4,0c-1.3,0-2.4-0.5-3.2-1.4c-0.8-0.8-1.2-2-1.3-3.3v-11.5
		c0-1.6,0.4-2.6,1.2-3.2C78.5,178.8,79.7,178.6,81.2,178.4L81.2,178.4z M94.7,178.5H81.2c-1.5,0.1-2.6,0.4-3.4,1
		c-0.8,0.6-1.2,1.5-1.2,3.1v11.5c0,1.3,0.4,2.4,1.2,3.3c0.8,0.8,1.8,1.3,3.1,1.3h13.4c0.7-0.1,1.3-0.3,1.7-0.6
		c0.5-0.3,0.9-0.6,1.2-0.9l0.1-0.1v1.3h28.9v-5.5h9.1v5.4h17.3c0.7,0,1.3-0.2,1.8-0.3c0.6-0.2,1.1-0.4,1.5-0.7l0.1-0.1l0.1,1.2h7.1
		l5.9-4.4v4.3h10.4v-1.2l0.1,0.1c0.2,0.1,0.4,0.2,0.6,0.3c0.6,0.3,1.2,0.7,2,0.8h12.5c1.6,0,2.8-0.2,3.6-0.8
		c0.8-0.6,1.3-1.6,1.3-3.2v-12.8c-0.1-1-0.3-1.8-0.9-2.3c-0.6-0.5-1.5-0.8-2.8-0.8h-13.9c-0.5,0-0.9,0.2-1.3,0.4
		c-0.4,0.2-0.8,0.5-1.1,0.8l-0.1,0.1v-1.4h-7.3l-6.2,4.5v-4.4h-9.7v1.2h-1l0,0c-0.2-0.3-0.4-0.5-0.7-0.7c-0.3-0.2-0.7-0.4-1.2-0.5
		h-18v0.9h-1.3v-0.8H96.5v1.3l-0.1-0.1c-0.2-0.1-0.3-0.3-0.5-0.5C95.6,179,95.2,178.6,94.7,178.5z"/>
	<path fill="#FEFEFE" d="M82.3,182.1c3.6,0,7.3,0,10.9,0c1.3,0,1.7,0.3,1.8,1.4c0,0.8,0,1.6,0,2.4c-0.8,0-1.7,0-2.5,0
		c0-0.4-0.1-0.8-0.1-1.2c-0.1-0.1-0.3-0.3-0.4-0.4c-3,0-5.9,0-8.9,0c0,2.8,0,5.6,0,8.3c2.9,0,5.8,0,8.7,0c0.1-0.1,0.2-0.3,0.4-0.4
		c0-0.5,0-1,0-1.5c0.9,0,1.8,0,2.6,0c0,0.8,0,1.6,0,2.4c-0.1,0.9-0.5,1.6-1.9,1.7c-3.7,0-7.4,0-11.1,0c-1.1,0-1.5-0.7-1.5-1.7
		c0-3.1,0-6.2,0-9.3C80.3,182.7,81.1,182.2,82.3,182.1z"/>
	<path fill="#FEFEFE" d="M82.3,182.1h10.9c0.7,0,1.1,0.1,1.4,0.3c0.3,0.2,0.4,0.6,0.4,1.1c0.1,0.7,0,1.7,0,2.4h-2.6l-0.1-1.2
		l-0.4-0.4h-8.8v8.2h8.6l0.3-0.4v-1.5h2.8c0,0.8,0,1.7,0,2.5c0,0.5-0.2,0.9-0.5,1.2c-0.3,0.3-0.8,0.5-1.5,0.6
		c-2.2,0.1-9.1,0.3-11.1,0c-0.6,0-1-0.2-1.2-0.5c-0.2-0.3-0.3-0.7-0.4-1.2c-0.1-0.5-0.1-8.7,0-9.3c0-0.6,0.2-1.1,0.6-1.4
		C81.2,182.2,81.7,182.1,82.3,182.1L82.3,182.1z M93.2,182.2H82.3c-0.6,0-1.1,0.2-1.4,0.4c-0.3,0.3-0.5,0.7-0.5,1.3v9.3
		c0,0.5,0.1,0.9,0.3,1.2c0.2,0.3,0.6,0.4,1.1,0.4h11.1c0.7-0.1,1.1-0.3,1.4-0.6c0.3-0.3,0.4-0.7,0.4-1.1v-2.4h-2.5v1.4l-0.4,0.5H83
		v-8.5h8.9l0.5,0.5l0.1,1.1h2.4v-2.3c-0.1-0.5-0.2-0.8-0.4-1C94.2,182.3,93.8,182.2,93.2,182.2z"/>
	<polygon fill="#FEFEFE" points="100.9,182.1 114.4,182.1 114.4,183.8 103.5,183.8 103.5,187.5 109.7,187.5 109.7,189 103.5,189 
		103.5,192.7 114.4,192.7 114.4,194.8 114.3,194.8 100.8,194.8 	"/>
	<path fill="#FEFEFE" d="M100.9,182h13.6v1.8h-10.9v3.5h6.2v1.7h-6.3v3.5h10.9v2.2h-13.7C100.8,190.6,100.8,186.3,100.9,182
		L100.9,182z M114.3,182.2h-13.4l0,12.6h13.5v-2h-10.9v-3.8h6.3v-1.4h-6.2v-3.8h10.9V182.2z"/>
	<path fill="#FEFEFE" d="M119.7,182.2c0,4.2,0,8.5,0,12.7c0.2,0,0.4,0,0.5,0c0.7,0,1.4,0,2.1,0c0-1.8,0-3.5,0-5.3c3.5,0,7,0,10.5,0
		c2.2-0.4,3.2-5.1,1.3-6.8c-0.7-0.6-0.8-0.7-1.8-0.8c-4.2,0-8.4,0-12.6,0C119.7,182,119.7,182.1,119.7,182.2z"/>
	<path fill="#FEFEFE" d="M119.7,182.2v12.6h2.5v-5.3h10.6c0.4-0.1,0.8-0.4,1.2-0.7c0.4-0.5,0.7-1.2,0.9-1.9c0.2-0.7,0.2-1.5,0.1-2.3
		c-0.1-0.7-0.4-1.3-0.9-1.7l-0.1-0.1c-0.6-0.5-0.7-0.6-1.6-0.7h-12.6V182.2z M119.6,194.9v-12.9c3.6,0,9.4-0.4,12.7,0
		c1,0.1,1.1,0.2,1.7,0.7l0.1,0.1c0.5,0.4,0.8,1.1,1,1.8c0.1,0.7,0.1,1.6-0.1,2.3c-0.2,0.8-0.5,1.5-0.9,2c-0.4,0.4-0.8,0.7-1.3,0.8
		c-1.5,0.3-8.4,0-10.5,0v5.3L119.6,194.9L119.6,194.9z"/>
	<path fill="#FEFEFE" d="M139.2,182.1c0,4.2,0,8.5,0,12.7c4.4,0,8.9,0,13.3,0c1.6,0,3.1-4.5,0.1-6.3c2.2-0.9,2.6-6.3-1.3-6.7
		c-4,0-8,0-12.1,0C139.2,181.9,139.2,182,139.2,182.1z"/>
	<path fill="#FEFEFE" d="M139.2,182.1v12.6h13.3c0.3,0,0.6-0.2,0.9-0.5c0.3-0.4,0.6-0.9,0.7-1.6c0.1-0.6,0.2-1.3,0-2
		c-0.2-0.8-0.7-1.6-1.6-2.1l-0.1-0.1l0.1,0c0.7-0.3,1.1-0.9,1.4-1.8c0.2-0.6,0.3-1.3,0.2-1.9c-0.1-0.6-0.3-1.3-0.7-1.8
		c-0.5-0.6-1.2-1-2.2-1.1h-12V182.1z M139.1,194.8v-13.1c3.9,0,8.3-0.2,12.1,0c1.1,0.1,1.8,0.5,2.3,1.2c0.4,0.5,0.6,1.2,0.7,1.8
		c0.1,0.7,0,1.3-0.2,2c-0.3,0.8-0.7,1.5-1.4,1.8c0.9,0.5,1.4,1.3,1.6,2.2c0.2,0.7,0.1,1.4,0,2.1c-0.1,0.6-0.4,1.2-0.8,1.6
		c-0.3,0.3-0.7,0.6-1,0.6L139.1,194.8L139.1,194.8z"/>
	<polygon fill="#FEFEFE" points="159.9,182.2 159.9,194.4 163.1,194.4 172.7,186.1 172.7,194.3 175.5,194.3 175.5,182.1 
		173.3,182.1 162.9,190.5 162.9,182.2 	"/>
	<path fill="#FEFEFE" d="M159.9,182.3v12.1h3.1l9.7-8.4v8.3h2.7v-12.1h-2.1l-10.5,8.6v-8.4L159.9,182.3z M159.8,194.4v-12.3l3.2,0
		v8.3l10.3-8.4h2.3c0,4.1,0,8.2,0,12.4h-3v-8.1l-9.5,8.2L159.8,194.4L159.8,194.4z"/>
	<path fill="#393285" d="M122.1,187.4c0-1.2,0-2.4,0-3.7c2.9,0,5.8,0,8.7,0c1.4,0.1,1.5,3.6-0.1,3.7
		C127.8,187.4,125,187.4,122.1,187.4z"/>
	<path fill="#FEFEFE" d="M122.1,187.4v-3.7c2.6,0,6.2-0.2,8.7,0c0.5,0,0.8,0.5,1,1c0.1,0.3,0.1,0.6,0.1,0.9c0,0.3-0.1,0.6-0.1,0.9
		c-0.2,0.5-0.6,0.9-1.1,1C128.1,187.7,124.8,187.5,122.1,187.4L122.1,187.4z M122.2,183.8v3.5h8.5c0.5,0,0.8-0.4,1-0.9
		c0.1-0.3,0.1-0.6,0.1-0.8c0-0.3,0-0.6-0.1-0.9c-0.2-0.5-0.5-0.9-0.9-0.9H122.2z"/>
	<path fill="#FEFEFE" d="M183.7,182.1c3.6,0,7.3,0,10.9,0c1.3,0,1.7,0.3,1.7,1.4c0,0.8,0,1.6,0,2.4c-0.8,0-1.7,0-2.5,0
		c0-0.4-0.1-0.8-0.1-1.2c-0.1-0.1-0.3-0.3-0.4-0.4c-3,0-5.9,0-8.9,0c0,2.8,0,5.6,0,8.3c2.9,0,5.8,0,8.7,0c0.1-0.1,0.2-0.3,0.4-0.4
		c0-0.5,0-1,0-1.5c0.9,0,1.8,0,2.6,0c0,0.8,0,1.6,0,2.4c-0.1,0.9-0.5,1.6-1.9,1.7c-3.7,0-7.4,0-11.1,0c-1-0.1-1.5-0.7-1.5-1.7
		c0-3.1,0-6.2,0-9.3C181.7,182.7,182.5,182.2,183.7,182.1z"/>
	<path fill="#FEFEFE" d="M183.7,182.1h10.9c0.7,0,1.1,0.1,1.4,0.3c0.3,0.2,0.4,0.6,0.4,1.1c0,0.8,0,1.6,0,2.4h-2.6l-0.1-1.2
		l-0.4-0.4h-8.8v8.2h8.6l0.3-0.4v-1.5h2.8c0,0.8,0.1,1.7,0,2.5c0,0.5-0.2,0.9-0.5,1.2c-0.3,0.3-0.8,0.5-1.5,0.6
		c-2.6,0.1-8.6,0.2-11.1,0c-0.5,0-0.9-0.2-1.2-0.5c-0.3-0.3-0.4-0.7-0.4-1.2v-9.3c0-0.6,0.2-1.1,0.6-1.4
		C182.5,182.2,183.1,182.1,183.7,182.1L183.7,182.1z M194.6,182.2h-10.9c-0.6,0-1.1,0.2-1.4,0.4c-0.3,0.3-0.5,0.7-0.5,1.3v9.3
		c0,0.5,0.1,0.9,0.3,1.1c0.2,0.3,0.6,0.4,1.1,0.5h11.1c0.7-0.1,1.1-0.3,1.4-0.6c0.3-0.3,0.4-0.7,0.4-1.1v-2.4h-2.5v1.4l-0.4,0.5
		h-8.8v-8.5h9l0.5,0.5l0.1,1.1h2.4v-2.3c0-0.5-0.1-0.8-0.4-1C195.6,182.3,195.2,182.2,194.6,182.2z"/>
	<path fill="#393285" d="M142,187.4c0-1.2,0-2.4,0-3.7c2.8,0,5.5,0,8.3,0c1.4,0.1,1.4,3.6-0.1,3.7
		C147.5,187.4,144.8,187.4,142,187.4z"/>
	<path fill="#FEFEFE" d="M142,187.4v-3.7c2.5,0,6-0.2,8.3,0c0.5,0,0.8,0.5,1,1c0.1,0.3,0.1,0.6,0.1,0.9c0,0.3-0.1,0.6-0.1,0.9
		c-0.2,0.5-0.5,0.9-1.1,1C147.7,187.6,144.6,187.5,142,187.4L142,187.4z M142.1,183.8v3.5h8.1c0.5,0,0.8-0.4,1-0.9
		c0.1-0.3,0.1-0.6,0.1-0.9c0-0.3,0-0.6-0.1-0.9c-0.1-0.5-0.4-0.9-0.9-0.9H142.1z"/>
	<path fill="#393285" d="M142,192.7c0-1.2,0-2.4,0-3.7c2.8,0,5.5,0,8.3,0c1.4,0.1,1.4,3.6-0.1,3.7
		C147.4,192.7,144.7,192.7,142,192.7z"/>
	<path fill="#FEFEFE" d="M141.9,192.7v-3.7c2.5,0,6-0.2,8.3,0c0.5,0,0.8,0.5,1,1c0.1,0.3,0.1,0.6,0.1,0.9c0,0.3-0.1,0.6-0.1,0.9
		c-0.2,0.5-0.5,0.9-1.1,1C147.6,192.9,144.5,192.7,141.9,192.7L141.9,192.7z M142.1,189.1v3.5h8.1c0.5,0,0.8-0.4,1-0.9
		c0.1-0.3,0.1-0.6,0.1-0.9c0-0.3,0-0.6-0.1-0.9c-0.1-0.5-0.4-0.9-0.9-0.9H142.1z"/>
	<path fill="#393285" d="M27.3,189c0,1.2,0,2.5,0,3.7c2.6,0,5.3,0,7.9,0c1.3,0,1.4-0.3,1.4-0.9c0-0.6,0-1.3,0-1.9
		c-0.1-0.8-0.6-0.9-1.6-0.9C32.4,189,29.9,189,27.3,189z"/>
	<path fill="#FEFEFE" d="M27.4,189v3.6h7.8c0.6,0,1-0.1,1.2-0.2c0.2-0.1,0.2-0.3,0.2-0.6v-1.9c0-0.3-0.2-0.6-0.4-0.7
		c-0.3-0.1-0.6-0.2-1.1-0.2L27.4,189z M27.2,192.7v-3.8l7.8,0c0.5,0,0.9,0,1.2,0.2c0.3,0.1,0.4,0.4,0.5,0.8c0,0.1,0,1.9,0,1.9
		c0,0.3,0,0.6-0.3,0.7c-0.2,0.2-0.6,0.2-1.2,0.3C33.5,193,29.2,192.7,27.2,192.7L27.2,192.7z"/>
</g>
</svg>
