<?xml version="1.0" encoding="utf-8"?>
<!-- Generator: Adobe Illustrator 19.2.1, SVG Export Plug-In . SVG Version: 6.00 Build 0)  -->
<svg version="1.1" id="Layer_1" xmlns="http://www.w3.org/2000/svg" xmlns:xlink="http://www.w3.org/1999/xlink" x="0px" y="0px"
	 viewBox="0 0 200 200" style="enable-background:new 0 0 200 200;" xml:space="preserve">
<style type="text/css">
	.st0{fill:#FFFFFF;}
	.st1{fill:#FEFEFE;}
</style>
<g id="Layer_x0020_1">
	<path class="st0" d="M88.4,14.3h23.1c20.4,20.4,40.9,40.9,61.3,61.3v22c-20.7,20.7-41.4,41.4-62.1,62.1H89.8
		c-20.6-20.7-41.3-41.2-61.9-61.9V76C48.1,55.4,68.3,34.9,88.4,14.3L88.4,14.3z M111.5,14.5h-23L28,76.1v21.7l61.8,61.8h20.8l62-62
		V75.7L111.5,14.5z"/>
	<path class="st0" d="M111.5,14.4h-23L28,76v21.8l61.9,61.9h20.9l62-62V75.7L111.5,14.4z M168.7,96.2L109.9,155H90.5L31.6,96.2
		l-0.1-18.9l59.5-59.5h18.2l59.4,59.4V96.2z"/>
	<path class="st0" d="M31.5,77.3L91,17.8h18.2c19.8,19.8,39.6,39.6,59.4,59.4v19.1l-58.8,58.8H90.4c-19.6-19.7-39.2-39.3-58.9-58.9
		C31.6,89.9,31.5,83.6,31.5,77.3L31.5,77.3z M91.1,17.9L31.6,77.3l0.1,18.8L90.5,155h19.4l58.7-58.7v-19l-59.4-59.4H91.1z"/>
	<path class="st0" d="M50.2,73.4c0.2-0.4,0.4-0.8,0.6-1.2c1-2.1,2.4-5,3.3-6.2l0,0c5.6-6.5,10.9-9.6,16.7-10.8
		c5.8-1.1,12.1-0.3,19.8,1.2h0c6.4,1.9,10.7,3.3,17.3,1.9h0c0.9-0.2,1.6-0.2,2,0c0.3,0.1,0.4,0.2,0.5,0.4c0.1,0.2,0,0.4,0,0.7
		c-0.2,0.5-0.7,1.2-1.3,1.8c-1.2,1.7-2,3.1-2.8,4.5c-0.8,1.4-1.5,2.8-2.3,4.8c-0.7,1.8-1.4,3.9-2,6.1c-0.5,1.7-0.9,3.4-1.1,5
		l5.6-1.6c1.1-1.5,2.2-2.8,3.1-4.1c4.7-6.2,7.9-10.5,15.2-15.9c1.5-1.3,4.1-2.5,6.9-3.4c2.7-0.9,5.7-1.5,8-1.6
		c0.9,0,1.6,0.1,2.3,0.3c1.3,0.4,2.2,1.2,2.9,2.2c0.7,1,1.1,2.1,1.1,3.3c0,0.7-0.1,1.4-0.3,2v0c-2.5,6.7-10.8,10.1-18.2,13.2
		c-1.1,0.5-2.2,0.9-3.3,1.4c-4,6.5-7.1,17-9.3,24.6l0,0.1c-0.4,1.4-0.6,2.6-0.9,3.8c-0.2,1.2-0.4,2.4-0.6,3.9c0,2,0.3,3.4,0.8,4.4
		c0.7,1.3,1.8,1.9,3.1,1.9c1.4,0,3-0.4,4.6-1.2c4.2-2,8.8-5.9,11-8.1c2.6-3.5,5.5-7.8,6.6-12.2c1.1-4.4,0.5-8.7-3.7-12.2l0,0
		l1.6-1.8l0,0c1.6,0.8,2.6,1.3,3.5,2c0.9,0.7,1.6,1.6,2.6,3l0,0c2.4,3.9,3.1,7.7,2.4,11.4c-0.8,4.1-3.2,7.9-6.7,11.3v0
		c-4.8,4.2-8.6,7.2-12.9,9.1c-4.3,1.9-9,2.7-15.5,2.7h0c-5.9-0.6-9.7-2.2-11.6-5.1s-2-7-0.6-12.5v0c1.1-3,2.3-6.1,3.5-9.1
		c1.3-3.4,2.7-6.7,3.8-10.1l-6.5,2.4c-1,2.9-1.9,5.5-3,8.1c-1.1,2.6-2.2,5.1-3.6,7.8l0,0c-3,4.6-6.3,8.4-9.8,11.3
		c-3.6,2.9-7.4,5-11.4,6.2l0,0c-4.6,1.2-8.7,0.9-11.8-0.5c-1.8-0.8-3.2-2-4.1-3.4c-0.9-1.4-1.4-3.1-1.2-5c0.3-2.5,1.7-5.4,4.7-8.3
		l0,0c4.5-4.3,10.9-7.4,17.3-10.5c1.8-0.9,3.6-1.8,5.4-2.7c3.1-6.4,5-10.3,7.5-13.6c2.4-3.3,5.4-6.1,10.8-10.6
		c-5.6,1.5-10,2.5-14.4,2.9c-4.5,0.4-9.1,0.3-15-0.5c-3.4-0.3-6.7-0.4-9.6,0.3c-2.9,0.8-5.4,2.4-7.1,5.8c-0.1,0.1-0.4,0.5-0.5,0.7
		C52.3,73.5,51.2,73.5,50.2,73.4L50.2,73.4z M50.9,72.2c-0.2,0.4-0.4,0.8-0.5,1.1h2.9l0.5-0.6c1.7-3.4,4.2-5.1,7.2-5.8
		c2.9-0.8,6.3-0.6,9.7-0.3l0,0c5.9,0.8,10.5,1,15,0.5c4.5-0.4,8.9-1.5,14.6-3l0.3-0.1l-0.2,0.2c-5.5,4.5-8.5,7.4-11,10.7
		c-2.5,3.3-4.4,7.1-7.5,13.6l0,0l0,0c-1.8,0.9-3.6,1.8-5.4,2.7c-6.4,3.1-12.8,6.2-17.3,10.5c-2.9,2.9-4.4,5.7-4.6,8.3
		c-0.2,1.8,0.2,3.5,1.2,4.9c0.9,1.4,2.3,2.6,4.1,3.4c3.1,1.4,7.2,1.7,11.7,0.5c4-1.2,7.8-3.2,11.3-6.2c3.5-2.9,6.7-6.6,9.7-11.2
		c1.4-2.7,2.6-5.2,3.6-7.8c1.1-2.6,2-5.2,3-8.1l0,0c2.3-0.9,4.5-1.7,6.8-2.5l0,0.1c-1.2,3.4-2.5,6.8-3.9,10.2c-1.2,3-2.4,6-3.5,9.1
		c-1.5,5.5-1.4,9.5,0.5,12.4c1.9,2.8,5.7,4.5,11.5,5.1c6.5,0,11.2-0.8,15.4-2.7c4.3-1.9,8.2-4.8,12.9-9.1c3.5-3.4,5.9-7.2,6.6-11.2
		c0.7-3.6,0-7.5-2.4-11.3c-1-1.4-1.7-2.3-2.6-3c-0.9-0.7-1.9-1.2-3.4-2l-1.5,1.6c4.2,3.5,4.8,7.9,3.7,12.3c-1.1,4.4-4,8.8-6.6,12.2
		l0,0c-2.2,2.2-6.8,6.1-11,8.1c-1.7,0.8-3.3,1.3-4.7,1.2c-1.4,0-2.5-0.6-3.2-2c-0.5-1-0.8-2.5-0.8-4.5v0c0.2-1.4,0.4-2.7,0.6-3.9
		c0.2-1.2,0.5-2.4,0.9-3.8l0-0.1c2.2-7.6,5.3-18.1,9.3-24.6l0,0l0,0c1.1-0.5,2.2-0.9,3.3-1.4c7.5-3.1,15.7-6.5,18.2-13.1
		c0.2-0.6,0.3-1.3,0.3-2c0-1.1-0.4-2.3-1.1-3.2c-0.7-0.9-1.6-1.7-2.9-2.1c-0.7-0.2-1.4-0.3-2.3-0.3h0c-2.4,0-5.3,0.6-8,1.6
		c-2.8,0.9-5.3,2.2-6.8,3.4l0,0c-7.3,5.4-10.5,9.7-15.2,15.8c-1,1.3-2,2.7-3.1,4.1l0,0c-1.9,0.5-3.8,1.1-5.8,1.6l0-0.1
		c0.2-1.5,0.6-3.3,1.1-5.1c0.6-2.2,1.3-4.3,2-6.1l0,0c0.9-1.9,1.6-3.4,2.3-4.8c0.8-1.4,1.6-2.7,2.8-4.5l0,0c0.6-0.6,1.1-1.3,1.3-1.8
		c0.1-0.2,0.1-0.4,0-0.6c-0.1-0.2-0.2-0.3-0.4-0.4c-0.4-0.1-1-0.1-1.9,0c-6.6,1.4-10.9,0-17.3-1.9l0,0c-7.7-1.5-14-2.3-19.7-1.2
		c-5.8,1.1-11,4.3-16.6,10.7C53.3,67.2,51.9,70.1,50.9,72.2z"/>
	<path class="st0" d="M126.5,72.3c0.4-0.7,0.9-1.3,1.3-1.9c2.8-4.1,5.2-7.7,9.3-11v0c1.5-1,2.8-1.4,3.7-1.4c0.4,0,0.8,0.1,1.1,0.3
		c0.3,0.2,0.4,0.5,0.4,0.9c0,0.7-0.3,1.7-1.1,2.9v0c-1.2,1.7-4.4,4.7-7.7,6.9C130.9,70.9,128.2,72.3,126.5,72.3L126.5,72.3
		L126.5,72.3z M127.8,70.5c-0.4,0.6-0.8,1.2-1.2,1.8c1.7-0.1,4.3-1.5,6.8-3.3c3.3-2.3,6.4-5.2,7.6-6.9c0.8-1.2,1.1-2.2,1-2.8
		c0-0.4-0.2-0.7-0.4-0.9c-0.2-0.2-0.6-0.3-1-0.3c-0.9,0-2.2,0.5-3.7,1.4C133,62.8,130.6,66.4,127.8,70.5z"/>
	<path class="st0" d="M143.2,85.5c-1.9-2.8-2.9-3.5-6-5c-0.5,0.6-1,1.1-1.5,1.7c8.5,7,2.4,17.5-2.9,24.4
		c-4.6,4.6-19.9,16.7-19.6,2.9c0.4-2.9,0.8-4.9,1.5-7.7c2.2-7.6,5.3-18.2,9.4-24.7c8.2-3.5,18.6-6.9,21.5-14.5
		c1.1-3.4-1.2-7.8-6-7.7c-4.8,0.1-11.8,2.5-14.9,5c-8.8,6.5-11.7,11.4-18.3,20c-1.9,0.5-3.8,1.1-5.7,1.6c0.4-3.4,1.9-7.9,3.1-11.1
		c1.7-3.9,2.8-5.7,5.2-9.2c1.7-1.7,2.4-3.4-1-2.8c-6.6,1.4-10.9,0-17.3-1.9c-15.4-3-25.2-3.4-36.4,9.5c-1.1,1.5-2.9,5.4-3.9,7.5
		c1,0,2,0,3,0c0.2-0.2,0.3-0.4,0.5-0.6c3.4-6.7,10.1-6.7,16.8-6.1c11.8,1.7,18.2,0.6,29.6-2.5C89.2,73.3,88,75.7,81.7,88.6
		c-8.1,4.2-16.9,7.7-22.7,13.2c-10.9,10.8-1,20.7,12.4,17.1c8-2.4,15.1-8.1,21.1-17.4c2.8-5.4,4.7-10.1,6.6-15.9
		c2.2-0.8,4.4-1.7,6.6-2.5c-2.2,6.4-5,12.8-7.3,19.3c-2.9,11,0.4,16.3,12.2,17.5c12.9,0,18.9-3.3,28.4-11.8
		C145.6,101.6,148.3,93.6,143.2,85.5z M137.1,59.4c3.9-2.6,6.8-1.6,4.1,2.7c-2.1,3.1-10.7,10.1-14.6,10.2
		C129.8,67.4,132.3,63.2,137.1,59.4z M69.2,113.4c-2.1,1.3-7.6,4.9-9.2,1.3c-1.9-4.7,5.4-10.2,8.6-12.7c3.6-2.8,6.9-5.1,10.7-7.7
		c0.4-0.2,0.7-0.4,1.1-0.7C77.6,100.6,73.2,110.9,69.2,113.4z"/>
	<path class="st0" d="M59.9,114.7c-1.8-4.6,5.1-10,8.4-12.6l0.2-0.1c1.8-1.4,3.5-2.7,5.3-3.9c1.7-1.2,3.5-2.5,5.4-3.7
		c0.4-0.3,0.8-0.5,1.3-0.8l-0.1,0.2c-1.4,3.5-3.2,7.8-5.1,11.5c-1.9,3.8-4,7-6,8.2l0,0c-0.8,0.5-2.1,1.4-3.5,2
		C63.5,116.5,61,117,59.9,114.7L59.9,114.7z M68.4,102.2c-3.3,2.5-10.2,7.9-8.4,12.5c1,2.2,3.4,1.7,5.6,0.7c1.4-0.6,2.7-1.5,3.5-2
		l0,0c2-1.2,4-4.4,6-8.2c1.9-3.7,3.7-7.9,5-11.4l-1,0.6c-1.9,1.3-3.6,2.5-5.4,3.7s-3.5,2.5-5.3,3.9L68.4,102.2z"/>
	<polygon class="st1" points="12,174.2 14.5,174.2 14.5,178.3 23.6,178.3 23.6,174.1 26.3,174.1 26.3,185.1 23.2,185.1 23.2,180.4 
		14.6,180.4 14.6,185.6 11.9,185.6 	"/>
	<path class="st1" d="M68.1,183.5c0-2.6,0-5.2,0-7.8c-0.1-1.3-0.6-1.8-3.1-1.8c-3.6,0-7.3,0-10.9,0c-1,0.1-1.5,0.9-1.5,2.2
		c0,0.7,0,1.4,0,2.2c-1,0-2,0-3,0c0-1.4,0-2.9,0-4.3c-0.6,0-1.2,0-1.8,0c0,3.7,0,7.4,0,11.1c0.6,0,1.2,0,1.9,0c0-1.6,0-3.2,0-4.8
		c1,0,2,0,3.1,0c0,1.1,0,2.2,0,3.3c0,0.8,0,1.6,0.8,1.7c4.2,0,8.4,0,12.7,0C67.7,185.3,68.2,184.5,68.1,183.5z M65.6,183.7H55.5V176
		l9.6-0.1h0.4V183.7z"/>
	<path class="st1" d="M83.6,174c3.3,0,6.7,0,10,0c1.2,0,1.5,0.3,1.6,1.3c0,0.7,0,1.4,0,2.2c-0.8,0-1.5,0-2.3,0
		c0-0.4-0.1-0.7-0.1-1.1c-0.1-0.1-0.3-0.3-0.4-0.4c-2.7,0-5.4,0-8.1,0c0,2.5,0,5.1,0,7.6c2.7,0,5.3,0,8,0c0.1-0.1,0.2-0.3,0.3-0.4
		c0-0.4,0-0.9,0-1.3c0.8,0,1.6,0,2.4,0c0,0.7,0,1.5,0,2.2c0,0.8-0.5,1.5-1.7,1.6c-3.4,0-6.8,0-10.2,0c-1,0-1.4-0.6-1.4-1.5
		c0-2.8,0-5.7,0-8.5C81.8,174.5,82.5,174,83.6,174z"/>
	<polygon class="st1" points="100.6,174 113,174 113,175.5 103.1,175.5 103.1,178.9 108.8,178.9 108.8,180.3 103,180.3 103,183.7 
		113,183.7 113,185.6 113,185.6 100.6,185.6 	"/>
	<polygon class="st1" points="154.7,174.1 154.7,185.3 157.7,185.3 166.5,177.7 166.5,185.1 169.1,185.1 169.1,173.9 167,173.9 
		157.5,181.7 157.5,174 	"/>
	<path class="st1" d="M131.1,174.6c-0.7-0.5-0.7-0.6-1.6-0.7c-3.9,0-7.7,0-11.6,0c0,0.1,0,0.1,0,0.2c0,3.9,0,7.7,0,11.6
		c0.2,0,0.3,0,0.5,0c0.6,0,1.3,0,1.9,0c0-1.6,0-3.3,0-4.9c3.2,0,6.4,0,9.7,0C131.9,180.4,132.9,176.1,131.1,174.6z M128,178.8
		c-2.6,0-5.2,0-7.8,0c0-1.1,0-2.2,0-3.4c2.6,0,5.3,0,7.9,0C129.4,175.6,129.5,178.8,128,178.8z"/>
	<path class="st1" d="M176.6,174c3.3,0,6.7,0,10,0c1.2,0,1.5,0.3,1.6,1.3c0,0.7,0,1.4,0,2.2c-0.8,0-1.5,0-2.3,0c0-0.4,0-0.7-0.1-1.1
		c-0.1-0.1-0.3-0.3-0.4-0.4c-2.7,0-5.4,0-8.1,0c0,2.5,0,5.1,0,7.6c2.7,0,5.3,0,8,0c0.1-0.1,0.2-0.3,0.3-0.4c0-0.4,0-0.9,0-1.3
		c0.8,0,1.6,0,2.4,0c0,0.7,0,1.5,0,2.2c-0.1,0.8-0.5,1.5-1.7,1.6c-3.4,0-6.8,0-10.2,0c-1-0.1-1.4-0.6-1.4-1.5c0-2.8,0-5.7,0-8.5
		C174.8,174.5,175.4,174,176.6,174z"/>
	<path class="st1" d="M148,179.8c2-0.8,2.4-5.8-1.2-6.1c-3.7,0-7.4,0-11.1,0c0,0.1,0,0.2,0,0.3c0,3.9,0,7.8,0,11.6
		c4.1,0,8.2,0,12.2,0C149.5,185.6,150.8,181.5,148,179.8z M145.8,183.7c-2.5,0-5,0-7.5,0c0-1.1,0-2.2,0-3.4c2.5,0,5.1,0,7.6,0
		C147.2,180.4,147.2,183.6,145.8,183.7z M145.8,178.8c-2.5,0-5,0-7.5,0c0-1.1,0-2.2,0-3.4c2.5,0,5,0,7.6,0
		C147.2,175.6,147.3,178.8,145.8,178.8z"/>
	<path class="st1" d="M44.4,183c0-0.9,0-1.9,0-2.8c-0.1-1-0.1-1.7-1.8-1.8c-3.1,0-6.3,0-9.4,0c0-1.5,0-2.9,0-4.4c-0.8,0-1.6,0-2.5,0
		c0,3.7,0,7.5,0,11.2c4.3,0,8.5,0,12.8,0C44.3,185.1,44.4,184.2,44.4,183z M41.7,182.8c0,0.6-0.1,0.8-1.3,0.9c-2.4,0-4.8,0-7.2,0
		c0-1.1,0-2.3,0-3.4c2.4,0,4.7,0,7.1,0c0.9,0,1.4,0.1,1.5,0.8C41.7,181.6,41.7,182.2,41.7,182.8z"/>
</g>
</svg>
