<?xml version="1.0" encoding="utf-8"?>
<!-- Generator: Adobe Illustrator 19.2.1, SVG Export Plug-In . SVG Version: 6.00 Build 0)  -->
<svg version="1.1" id="Layer_1" xmlns="http://www.w3.org/2000/svg" xmlns:xlink="http://www.w3.org/1999/xlink" x="0px" y="0px"
	 viewBox="0 0 200 200" style="enable-background:new 0 0 200 200;" xml:space="preserve">
<style type="text/css">
	.st0{fill:#FFFFFF;}
</style>
<g>
	<g>
		<polygon class="st0" points="123,98.9 92,98.9 92,106.1 102.5,106.1 102.5,142.1 111.3,142.1 111.3,106.1 121.6,106.1 		"/>
		<path class="st0" d="M111.4,142.2h-9v-36H91.9v-7.3H123v0.1l-1.4,7.3h-10.3L111.4,142.2L111.4,142.2z M102.6,142.1h8.6v-36h10.3
			l1.4-7.1H92.1v7.1h10.5V142.1z"/>
	</g>
</g>
<g>
	<g>
		<path class="st0" d="M145.6,111.8c0,1.8-0.6,3.4-1.7,4.3c-1.2,1.1-2.8,1.4-6.5,1.4h-2.9v-11.7h3.1c2.1,0,3.9,0.3,4.9,0.6
			C144.5,107.3,145.6,109.1,145.6,111.8z M157.2,142.1c0,0-7.9-13.7-10.3-16.8c-0.5-0.8-0.9-1.1-1.8-1.8c5.3-0.1,9.6-5.5,9.6-11.9
			c0-7.6-5-12.7-12.6-12.7h-16v43.2h8.4v-18c0.5,0,0.9,0.2,1.4,0.4c1.6,0.7,2.8,2.8,7.1,10.6c1.7,3,2.4,4.2,4,7.1H157.2z"/>
		<path class="st0" d="M157.3,142.2h-10.4l0,0c-1.7-2.9-2.4-4.1-4-7.1c-4.3-7.8-5.6-9.9-7.1-10.6c-0.4-0.2-0.8-0.3-1.3-0.4v18H126
			V98.9H142c7.6,0,12.7,5.1,12.7,12.8c0,6.4-4.2,11.7-9.5,12c0.8,0.6,1.1,1,1.6,1.7c2.4,3.1,10.3,16.7,10.3,16.8L157.3,142.2z
			 M147.1,142.1h10c-0.8-1.4-7.9-13.8-10.3-16.7c-0.5-0.8-0.9-1.1-1.8-1.8l-0.2-0.1h0.2c5.2-0.1,9.5-5.4,9.5-11.9
			c0-7.6-5-12.6-12.5-12.6h-15.9v43.1h8.3v-18h0.1c0.5,0,0.9,0.2,1.4,0.4c1.6,0.7,2.8,2.7,7.1,10.6
			C144.7,138,145.4,139.2,147.1,142.1z M137.4,117.6h-3v-11.9h3.2c2,0,3.9,0.3,4.9,0.6c2.1,0.8,3.1,2.6,3.1,5.4
			c0,1.8-0.6,3.4-1.7,4.4C142.8,117.3,141.1,117.6,137.4,117.6z M134.6,117.5h2.8c3.6,0,5.3-0.3,6.4-1.4c1.1-1,1.6-2.5,1.6-4.3
			c0-2.7-1.1-4.5-3-5.2c-1-0.4-2.8-0.6-4.9-0.6h-3V117.5z"/>
	</g>
</g>
<g>
	<g>
		<path class="st0" d="M179.9,124.7h-8.4c0.9-2.9,1.5-4.9,2.3-8c0.8-3.3,2-8.3,2-8.3s1.3,5.7,1.7,7.6
			C178.4,120.1,179.9,124.7,179.9,124.7z M194.3,142.1l-13.5-43.3h-9.3l-14.1,43.3h9l3-10.3H182l3,10.3H194.3z"/>
		<path class="st0" d="M194.4,142.2h-9.4l-3-10.3h-12.5l-3,10.3h-9.2l0-0.1l14.1-43.4h9.5v0L194.4,142.2z M185.1,142.1h9.1
			l-13.5-43.2h-9.2l-14,43.2h8.9l3-10.3H182L185.1,142.1z M180,124.7h-8.6l0-0.1c0.9-2.8,1.5-4.8,2.3-8c0.8-3.2,2-8.3,2-8.3l0.1-0.3
			l0.1,0.3c0,0,1.3,5.7,1.7,7.6C178.6,120.1,180,124.6,180,124.7L180,124.7z M171.6,124.6h8.2c-0.2-0.7-1.5-4.8-2.3-8.6
			c-0.4-1.7-1.4-6.1-1.6-7.3c-0.3,1.2-1.3,5.3-1.9,8C173,119.8,172.4,121.8,171.6,124.6z"/>
	</g>
</g>
<path class="st0" d="M194.8,100.3c0,0.3-0.1,0.5-0.3,0.7c-0.2,0.2-0.4,0.3-0.9,0.3h-0.5v-1.8h0.5C194.5,99.4,194.8,99.7,194.8,100.3
	z M196.1,104.3l-0.8-1.4c-0.3-0.5-0.7-1.1-0.9-1.1c0.8,0,1.4-0.7,1.4-1.6c0-0.9-0.6-1.6-1.9-1.6h-1.8v5.8h0.9v-2.5
	c0.2,0,0.3,0.1,0.4,0.2c0.3,0.3,0.6,0.7,1,1.4l0.5,0.9L196.1,104.3L196.1,104.3z"/>
<path class="st0" d="M193.8,106.7c-2.9,0-5.2-2.4-5.2-5.2s2.3-5.2,5.2-5.2s5.2,2.4,5.2,5.2C199,104.4,196.7,106.7,193.8,106.7z
	 M193.8,96.4c-2.8,0-5,2.3-5,5.1c0,2.8,2.2,5.1,5,5.1s5-2.3,5-5.1C198.8,98.7,196.6,96.4,193.8,96.4z M193.8,105.9
	c-2.4,0-4.2-1.9-4.2-4.4c0-2.4,1.9-4.4,4.2-4.4c2.4,0,4.2,1.9,4.2,4.4C198,103.9,196.1,105.9,193.8,105.9z M193.8,97.3
	c-2.3,0-4,1.9-4,4.2c0,2.4,1.8,4.3,4,4.3s4.1-1.9,4.1-4.3C197.9,99.1,196.1,97.3,193.8,97.3z M196.2,104.4h-1.3l-0.5-0.9
	c-0.4-0.7-0.6-1.1-1-1.4c-0.1-0.1-0.1-0.1-0.3-0.1v2.5h-1.1v-6h1.9c1.4,0,1.9,0.9,1.9,1.7c0,0.9-0.5,1.6-1.3,1.6
	c0.2,0.2,0.4,0.5,0.8,1.1L196.2,104.4z M195,104.3h1l-0.8-1.3c-0.2-0.3-0.6-1-0.8-1.1l-0.3-0.1h0.3c0.8,0,1.4-0.6,1.4-1.5
	c0-1-0.7-1.6-1.8-1.6h-1.7v5.6h0.8v-2.5h0.1c0.2,0,0.3,0.1,0.4,0.2c0.3,0.3,0.6,0.8,1,1.4L195,104.3z M193.6,101.3H193v-2h0.6
	c0.8,0,1.2,0.3,1.2,1c0,0.3-0.1,0.5-0.3,0.8C194.4,101.2,194.1,101.3,193.6,101.3z M193.2,101.1h0.4c0.5,0,0.7,0,0.9-0.2
	c0.2-0.2,0.3-0.4,0.3-0.6c0-0.5-0.3-0.8-1.1-0.8h-0.5V101.1z"/>
<g>
	<path class="st0" d="M40.2,71.8c0.1-0.4,0.2-0.7,0.4-0.7c0.2,0,0,0.4,0,0.6c0,1.1,0.1,2.4,1.6,2.4c1.7,0,5-2.5,9.6-9.7
		c0.5-0.8,0.9-1.2,1.1-1.1c0.2,0.1,0.1,0.4,0,1.1c-2.6,6.9-7.5,12.2-10.4,12.2c-1.9,0-2.2-1.9-2.3-2.8c-0.9,4.1,0.3,6.8,1.9,6.8
		c2.5,0.1,7.8-3.5,16-16.4c0.6-1.1,1.7-2.6,1.9-2.5c0.2,0.1,0.2,0.9-0.5,2.9c-6.4,16.2-14.4,20-16.8,20c-2.4,0-3.6-2.7-3.7-4.6
		c-0.6,5.5,0.8,8.7,3.4,8.7c3.5,0.3,12.7-4.5,27.3-28.4c1.5-2.5,1.9-3.1,2.2-3c0.3,0.1,0.4,0.8-0.6,3.5c-8,23.2-21.3,34.6-28,34.5
		c-5.7,0-6-8-5.6-12C38.1,79.9,39.4,73.9,40.2,71.8z"/>
</g>
<g>
	<g>
		<path class="st0" d="M33.4,128.5c0-6.4-3.8-10.9-10.9-12.9l-5.2-1.4c-3.6-1-4.8-2.1-4.8-4.3c0-2.9,2.5-5,6-5c3.2,0,6.1,0.9,10,3.3
			l4.1-6.2c-3.8-2.7-9.1-4.3-14.3-4.3C9.3,97.6,3,103.1,3,111c0,2.4,0.6,4.6,1.8,6.6c1.6,2.6,4.2,4.3,8.5,5.5l4.8,1.3
			c3.8,1.1,5.6,2.8,5.6,5.6c0,3.8-2.6,5.9-7.6,5.9c-4.3,0-7.8-1.4-11.8-3.5l-3.2,6.8c4.3,2.5,9.8,3.9,14.7,3.9
			C26.4,143.1,33.4,137.3,33.4,128.5z"/>
	</g>
	<g>
		<path class="st0" d="M33.4,128.5c0-6.4-3.8-10.9-10.9-12.9l-5.2-1.4c-3.6-1-4.8-2.1-4.8-4.3c0-2.9,2.5-5,6-5c3.2,0,6.1,0.9,10,3.3
			l4.1-6.2c-3.8-2.7-9.1-4.3-14.3-4.3C9.3,97.6,3,103.1,3,111c0,2.4,0.6,4.6,1.8,6.6c1.6,2.6,4.2,4.3,8.5,5.5l4.8,1.3
			c3.8,1.1,5.6,2.8,5.6,5.6c0,3.8-2.6,5.9-7.6,5.9c-4.3,0-7.8-1.4-11.8-3.5l-3.2,6.8c4.3,2.5,9.8,3.9,14.7,3.9
			C26.4,143.1,33.4,137.3,33.4,128.5z"/>
	</g>
</g>
<g>
	<g>
		<rect x="39.6" y="98.9" class="st0" width="9" height="43.2"/>
	</g>
	<g>
		<rect x="39.6" y="98.9" class="st0" width="9" height="43.2"/>
	</g>
</g>
<g>
	<g>
		<path class="st0" d="M87.1,142.1V98.9h-8.2l0.2,17.6c0,3,0.4,8.5,0.7,11.9c-0.8-3.1-2.5-7.6-4.7-12.2l-8.2-17.3h-9.6v43.2h8.4
			l-0.3-18.5c0-3.6-0.1-8.7-0.4-12.2c0.8,2.7,3.4,8.8,5.8,14.2l7.3,16.6L87.1,142.1L87.1,142.1z"/>
	</g>
	<g>
		<path class="st0" d="M87.1,142.1V98.9h-8.2l0.2,17.6c0,3,0.4,8.5,0.7,11.9c-0.8-3.1-2.5-7.6-4.7-12.2l-8.2-17.3h-9.6v43.2h8.4
			l-0.3-18.5c0-3.6-0.1-8.7-0.4-12.2c0.8,2.7,3.4,8.8,5.8,14.2l7.3,16.6L87.1,142.1L87.1,142.1z"/>
	</g>
</g>
</svg>
