<?xml version="1.0" encoding="utf-8"?>
<!-- Generator: Adobe Illustrator 18.0.0, SVG Export Plug-In . SVG Version: 6.00 Build 0)  -->
<!DOCTYPE svg PUBLIC "-//W3C//DTD SVG 1.1//EN" "http://www.w3.org/Graphics/SVG/1.1/DTD/svg11.dtd">
<svg version="1.1" id="Layer_1" xmlns="http://www.w3.org/2000/svg" xmlns:xlink="http://www.w3.org/1999/xlink" x="0px" y="0px"
	 viewBox="0 0 200 200" enable-background="new 0 0 200 200" xml:space="preserve">
<g>
	<g>
		<g>
			<path d="M39.6,71.3c0.1-0.4,0.2-0.7,0.4-0.7c0.2,0,0,0.4,0,0.6c0,1.2,0.1,2.5,1.6,2.5c1.7,0,5.1-2.5,9.7-9.8
				c0.6-0.8,0.9-1.2,1.1-1.1c0.2,0.1,0.1,0.4,0,1.1c-2.6,7-7.5,12.4-10.5,12.4c-1.9,0-2.2-1.9-2.3-2.8c-0.9,4.1,0.3,6.9,2,6.9
				c2.5,0.1,7.9-3.5,16.2-16.6c0.6-1.1,1.7-2.6,2-2.5c0.2,0.1,0.2,0.9-0.6,2.9c-6.4,16.4-14.5,20.2-16.9,20.2s-3.6-2.7-3.7-4.6
				c-0.6,5.6,0.8,8.8,3.4,8.8c3.6,0.3,12.8-4.5,27.6-28.7c1.5-2.6,2-3.2,2.2-3.1c0.3,0.1,0.4,0.9-0.6,3.5C63,83.6,49.5,95.2,42.8,95
				c-5.8,0-6.1-8.1-5.6-12.1C37.5,79.5,38.8,73.4,39.6,71.3z"/>
			<path d="M42.8,95.1c0,0-0.1,0-0.1,0c-1.5,0-2.7-0.6-3.7-1.6c-2.7-3.1-2.2-9.3-2-10.6c0.4-3.4,1.7-9.5,2.6-11.6l0,0
				c0-0.1,0.1-0.2,0.1-0.3c0.1-0.3,0.1-0.5,0.4-0.5c0,0,0.1,0,0.1,0.1c0,0.1,0,0.3,0,0.4c0,0.1,0,0.2,0,0.3c0,1.3,0.2,2.4,1.5,2.4
				c0.8,0,3.9-0.7,9.6-9.8c0.6-0.9,0.9-1.2,1.2-1.2c0.2,0.1,0.2,0.5,0,1.2c-2.5,6.7-7.4,12.4-10.5,12.4c-1.7,0-2.2-1.5-2.3-2.5
				c-0.5,2.4-0.3,4.5,0.6,5.7c0.4,0.5,0.8,0.7,1.3,0.7c1.3,0,6.2-0.9,16.1-16.5c0.5-0.9,1.7-2.7,2-2.6c0.3,0.1,0.1,1.3-0.5,3
				c-3.5,8.9-7.4,13.7-10,16.3c-3.2,3.1-5.9,4-6.9,4h0c-2.1,0-3.4-2.2-3.7-4c-0.3,3.2,0.2,5.8,1.3,7c0.6,0.6,1.3,1,2.1,1
				c1.1,0.1,4.1-0.2,9.5-5.2c5.4-4.9,11.4-12.8,18-23.5c1.6-2.8,2-3.2,2.3-3.1c0.1,0,0.1,0.1,0.2,0.2c0.2,0.4,0,1.6-0.7,3.5
				C62.8,84.1,49.4,95.1,42.8,95.1z M39.7,71.4c-0.8,2.1-2.1,8.2-2.5,11.6c-0.1,1.2-0.7,7.4,2,10.4c0.9,1,2.1,1.6,3.5,1.6
				c0,0,0.1,0,0.1,0c6.5,0,19.9-11,28.1-34.7c0.9-2.5,0.8-3.2,0.7-3.3c0,0,0-0.1-0.1-0.1c-0.3-0.1-1,1.1-2.1,3.1
				c-6.6,10.7-12.6,18.6-18,23.5c-5.2,4.8-8.3,5.3-9.6,5.2c-0.9,0-1.6-0.4-2.2-1c-1.2-1.4-1.7-4.2-1.3-7.9h0.2
				c0.1,1.8,1.3,4.5,3.7,4.6h0c2.9,0,10.8-4.9,16.8-20.1c0.9-2.2,0.7-2.8,0.6-2.8c-0.2,0-1.2,1.3-1.8,2.5
				c-9.9,15.7-14.9,16.7-16.2,16.6l0,0c-0.6,0-1-0.3-1.4-0.8c-1-1.2-1.2-3.5-0.6-6.2l0.1-0.4l0.1,0.5c0.2,0.9,0.5,2.6,2.3,2.6
				c2.7,0,7.7-5.1,10.4-12.3c0.1-0.4,0.2-0.9,0-1c-0.1-0.1-0.7,0.7-0.9,1.1c-3.9,6.2-7.5,9.8-9.8,9.8c-1.6,0-1.6-1.5-1.7-2.6
				c0-0.1,0-0.2,0-0.3c0-0.1,0-0.2,0-0.3c0,0,0,0,0,0c-0.1,0-0.1,0.1-0.2,0.3C39.8,71.2,39.7,71.3,39.7,71.4L39.7,71.4z"/>
		</g>
	</g>
	<g>
		<g>
			<path d="M32.8,128.6c0-6.5-3.9-11-11-13l-5.2-1.4c-3.6-1-4.8-2.1-4.8-4.4c0-2.9,2.5-5,6.1-5c3.2,0,6.2,0.9,10.1,3.3l4.1-6.3
				c-3.8-2.8-9.2-4.4-14.5-4.4c-9.2,0-15.5,5.5-15.5,13.5c0,2.4,0.6,4.7,1.8,6.7c1.6,2.6,4.3,4.3,8.6,5.5l4.8,1.3
				c3.9,1.1,5.7,2.8,5.7,5.7c0,3.9-2.6,6-7.6,6c-4.3,0-7.8-1.4-11.9-3.5l-3.2,6.8c4.3,2.5,9.8,4,14.8,4
				C25.7,143.3,32.8,137.4,32.8,128.6z"/>
			<path d="M14.9,143.3c-4.9,0-10.5-1.5-14.8-4l0,0l3.3-7l0.1,0c4.1,2.2,7.5,3.5,11.9,3.5c4.9,0,7.5-2,7.5-5.9
				c0-2.8-1.7-4.5-5.6-5.6l-4.8-1.3c-4.4-1.2-7-2.9-8.6-5.5c-1.2-2-1.8-4.2-1.8-6.7c0-8,6.4-13.6,15.6-13.6c5.3,0,10.7,1.7,14.5,4.4
				l0,0l-4.2,6.4l-0.1,0c-3.9-2.3-6.8-3.3-10.1-3.3c-3.5,0-6,2-6,4.9c0,2.3,1.2,3.3,4.7,4.3l5.2,1.4c7.1,2,11,6.6,11,13.1
				c0,4.3-1.7,8.1-4.9,10.7C24.7,141.9,20.2,143.3,14.9,143.3z M0.2,139.3c4.3,2.4,9.8,3.9,14.7,3.9c10.8,0,17.8-5.8,17.8-14.6
				c0-6.4-3.9-11-10.9-12.9l-5.2-1.4c-3.6-1-4.9-2.1-4.9-4.5c0-3,2.5-5.1,6.1-5.1c3.3,0,6.2,0.9,10.1,3.3l4.1-6.1
				c-3.8-2.7-9.1-4.3-14.4-4.3c-9.1,0-15.5,5.5-15.5,13.4c0,2.4,0.6,4.6,1.8,6.6c1.5,2.6,4.2,4.3,8.5,5.5l4.8,1.3
				c3.9,1.1,5.8,2.9,5.8,5.7c0,4-2.6,6.1-7.7,6.1c-4.3,0-7.8-1.3-11.9-3.5L0.2,139.3z"/>
		</g>
	</g>
	<g>
		<g>
			<rect x="39.1" y="98.7" width="9.1" height="43.6"/>
			<path d="M48.2,142.4H39V98.6h9.3V142.4z M39.1,142.2h9V98.7h-9V142.2z"/>
		</g>
	</g>
	<g>
		<g>
			<path d="M87,142.3V98.7h-8.3l0.2,17.8c0,3,0.4,8.6,0.7,12c-0.9-3.2-2.6-7.7-4.7-12.4l-8.3-17.4h-9.7v43.6h8.4L65,123.7
				c0-3.6-0.1-8.8-0.4-12.4c0.8,2.7,3.4,8.9,5.9,14.3l7.4,16.7L87,142.3L87,142.3z"/>
			<path d="M87.1,142.4h-9.3v0l-7.4-16.7c-1.7-3.8-4.5-10.3-5.7-13.7c0.3,3.2,0.3,7.4,0.4,10.8v0.9l0.3,18.7h-8.6V98.6h9.8v0
				l8.3,17.4c1.8,4,3.5,8.2,4.5,11.6c-0.3-3.3-0.6-8.3-0.6-11.2l-0.2-17.9h8.4L87.1,142.4L87.1,142.4z M77.9,142.2h9V98.7h-8.1
				l0.2,17.7c0.1,3.1,0.4,8.7,0.7,12l-0.2,0c-1-3.5-2.7-8.1-4.7-12.4l-8.3-17.4h-9.6v43.5h8.3l-0.3-19.4c0-3.7-0.1-8.2-0.4-11.5
				l-0.1-0.8l0.2,0.7c0.9,3.1,4.1,10.3,5.8,14.3L77.9,142.2z"/>
		</g>
	</g>
	<g>
		<g>
			<polygon points="123.2,98.7 92,98.7 92,106 102.6,106 102.6,142.3 111.4,142.3 111.4,106 121.8,106 			"/>
			<path d="M111.5,142.4h-9V106H91.9v-7.4h31.4v0.1l-1.4,7.3h-10.4L111.5,142.4L111.5,142.4z M102.7,142.2h8.7v-36.4h10.4l1.4-7.1
				H92v7.1h10.6V142.2z"/>
		</g>
	</g>
	<g>
		<g>
			<path d="M146.1,111.7c0,1.8-0.6,3.4-1.7,4.4c-1.2,1.1-2.8,1.4-6.6,1.4h-2.9v-11.8h3.1c2.1,0,3.9,0.3,4.9,0.6
				C145,107.1,146.1,109,146.1,111.7z M157.8,142.3c0,0-7.9-13.8-10.4-17c-0.6-0.8-0.9-1.1-1.8-1.8c5.4-0.1,9.7-5.5,9.7-12.1
				c0-7.7-5.1-12.8-12.7-12.8h-16.2v43.6h8.5v-18.2c0.6,0,0.9,0.2,1.4,0.4c1.6,0.7,2.9,2.8,7.2,10.7c1.7,3.1,2.4,4.3,4.1,7.2H157.8z
				"/>
			<path d="M157.9,142.4h-10.5l0,0c-1.7-2.9-2.4-4.1-4.1-7.2c-4.3-7.9-5.6-10-7.1-10.7c-0.4-0.2-0.8-0.3-1.3-0.4v18.2h-8.7V98.6
				h16.2c7.7,0,12.8,5.2,12.8,12.9c0,6.5-4.3,11.9-9.6,12.1c0.8,0.6,1.1,1,1.7,1.7c2.5,3.1,10.4,16.8,10.4,17L157.9,142.4z
				 M147.6,142.2h10.1c-0.8-1.4-8-13.9-10.4-16.8c-0.6-0.8-0.9-1.1-1.8-1.8l-0.2-0.1h0.2c5.3-0.1,9.6-5.5,9.6-12
				c0-7.6-5.1-12.7-12.7-12.7h-16.1v43.5h8.4V124h0.1c0.6,0,0.9,0.2,1.4,0.4c1.6,0.7,2.9,2.8,7.2,10.7
				C145.2,138.2,145.9,139.4,147.6,142.2z M137.8,117.6h-3v-12h3.2c2,0,3.9,0.3,4.9,0.6c2.1,0.8,3.2,2.6,3.2,5.4
				c0,1.8-0.6,3.4-1.7,4.4C143.2,117.3,141.5,117.6,137.8,117.6z M135,117.5h2.9c3.7,0,5.3-0.3,6.5-1.4c1.1-1,1.7-2.6,1.7-4.3
				c0-2.7-1.1-4.5-3.1-5.2c-1-0.4-2.9-0.6-4.9-0.6h-3V117.5z"/>
		</g>
	</g>
	<g>
		<g>
			<path d="M180.7,124.7h-8.5c0.9-2.9,1.5-4.9,2.3-8.1c0.8-3.3,2-8.4,2-8.4s1.3,5.7,1.7,7.7C179.2,120.1,180.7,124.7,180.7,124.7z
				 M195.2,142.3l-13.6-43.7h-9.4l-14.2,43.7h9.1l3.1-10.4h12.7l3.1,10.4H195.2z"/>
			<path d="M195.3,142.4h-9.5l-3.1-10.4h-12.6l-3.1,10.4h-9.3l0-0.1L172,98.5h9.6v0L195.3,142.4z M185.9,142.2h9.2l-13.6-43.6h-9.3
				L158,142.2h9l3.1-10.4h12.8L185.9,142.2z M180.8,124.8h-8.7l0-0.1c0.9-2.8,1.5-4.9,2.3-8.1c0.8-3.2,2-8.4,2-8.4l0.1-0.3l0.1,0.3
				c0,0,1.3,5.8,1.7,7.7C179.4,120,180.8,124.6,180.8,124.8L180.8,124.8z M172.3,124.6h8.3c-0.2-0.7-1.5-4.9-2.3-8.7
				c-0.4-1.7-1.4-6.1-1.7-7.4c-0.3,1.2-1.3,5.3-2,8.1C173.8,119.8,173.2,121.8,172.3,124.6z"/>
		</g>
	</g>
	<path d="M195.7,100c0,0.3-0.1,0.5-0.3,0.7c-0.2,0.2-0.4,0.3-0.9,0.3H194v-1.8h0.6C195.4,99.1,195.7,99.4,195.7,100z M197.1,104.2
		l-0.9-1.4c-0.3-0.5-0.7-1.1-0.9-1.2c0.9,0,1.4-0.7,1.4-1.6c0-0.9-0.6-1.7-1.9-1.7h-1.8v5.8h0.9v-2.5c0.2,0,0.3,0.1,0.4,0.2
		c0.3,0.3,0.6,0.7,1,1.4l0.5,0.9L197.1,104.2L197.1,104.2z M198.9,101.3c0,2.4-1.9,4.4-4.2,4.4c-2.3,0-4.1-1.9-4.1-4.4
		s1.8-4.3,4.1-4.3C197.1,96.9,198.9,98.8,198.9,101.3z M199.9,101.3c0-2.9-2.3-5.2-5.2-5.2s-5.2,2.3-5.2,5.2c0,2.9,2.3,5.2,5.2,5.2
		C197.6,106.5,199.9,104.2,199.9,101.3z"/>
	<path d="M194.8,106.5c-2.9,0-5.2-2.4-5.2-5.3s2.3-5.3,5.2-5.3c2.9,0,5.2,2.4,5.2,5.3C200,104.2,197.7,106.5,194.8,106.5z
		 M194.8,96.1c-2.8,0-5.1,2.3-5.1,5.2c0,2.8,2.3,5.1,5.1,5.1s5.1-2.3,5.1-5.1C199.8,98.4,197.6,96.1,194.8,96.1z M194.8,105.7
		c-2.4,0-4.2-2-4.2-4.4s1.9-4.4,4.2-4.4c2.4,0,4.3,2,4.3,4.4C199,103.7,197.1,105.7,194.8,105.7z M194.8,97c-2.3,0-4.1,1.9-4.1,4.3
		s1.8,4.3,4.1,4.3c2.3,0,4.1-1.9,4.1-4.3S197.1,97,194.8,97z M197.2,104.2h-1.3l-0.5-0.9c-0.4-0.7-0.6-1.1-1-1.4
		c-0.1-0.1-0.1-0.1-0.3-0.1v2.5H193v-6h1.9c1.4,0,2,0.9,2,1.7c0,0.9-0.6,1.6-1.3,1.7c0.2,0.2,0.4,0.5,0.8,1.1L197.2,104.2z
		 M195.9,104.1h1l-0.8-1.3c-0.2-0.3-0.6-1-0.9-1.2l-0.3-0.1h0.3c0.8,0,1.4-0.6,1.4-1.5c0-1-0.7-1.6-1.8-1.6h-1.7v5.7h0.8v-2.5h0.1
		c0.2,0,0.3,0.1,0.4,0.2c0.3,0.3,0.6,0.8,1,1.4L195.9,104.1z M194.5,101h-0.6v-2h0.6c0.9,0,1.2,0.3,1.2,1c0,0.3-0.1,0.6-0.3,0.8
		C195.4,101,195.1,101,194.5,101z M194.1,100.9h0.4c0.5,0,0.7,0,0.9-0.2c0.2-0.2,0.3-0.4,0.3-0.6c0-0.6-0.3-0.8-1.1-0.8h-0.5V100.9z
		"/>
	<g>
		<path fill="#F35E42" d="M39.6,71.3c0.1-0.4,0.2-0.7,0.4-0.7c0.2,0,0,0.4,0,0.6c0,1.2,0.1,2.5,1.6,2.5c1.7,0,5.1-2.5,9.7-9.8
			c0.6-0.8,0.9-1.2,1.1-1.1c0.2,0.1,0.1,0.4,0,1.1c-2.6,7-7.5,12.4-10.5,12.4c-1.9,0-2.2-1.9-2.3-2.8c-0.9,4.1,0.3,6.9,2,6.9
			c2.5,0.1,7.9-3.5,16.2-16.6c0.6-1.1,1.7-2.6,2-2.5c0.2,0.1,0.2,0.9-0.6,2.9c-6.4,16.4-14.5,20.2-16.9,20.2s-3.6-2.7-3.7-4.6
			c-0.6,5.6,0.8,8.8,3.4,8.8c3.6,0.3,12.8-4.5,27.6-28.7c1.5-2.6,2-3.2,2.2-3.1c0.3,0.1,0.4,0.9-0.6,3.5C63,83.6,49.5,95.2,42.8,95
			c-5.8,0-6.1-8.1-5.6-12.1C37.5,79.5,38.8,73.4,39.6,71.3z"/>
	</g>
	<g>
		<g>
			<path d="M32.8,128.6c0-6.5-3.9-11-11-13l-5.2-1.4c-3.6-1-4.8-2.1-4.8-4.4c0-2.9,2.5-5,6.1-5c3.2,0,6.2,0.9,10.1,3.3l4.1-6.3
				c-3.8-2.8-9.2-4.4-14.5-4.4c-9.2,0-15.5,5.5-15.5,13.5c0,2.4,0.6,4.7,1.8,6.7c1.6,2.6,4.3,4.3,8.6,5.5l4.8,1.3
				c3.9,1.1,5.7,2.8,5.7,5.7c0,3.9-2.6,6-7.6,6c-4.3,0-7.8-1.4-11.9-3.5l-3.2,6.8c4.3,2.5,9.8,4,14.8,4
				C25.7,143.3,32.8,137.4,32.8,128.6z"/>
		</g>
		<g>
			<path d="M32.8,128.6c0-6.5-3.9-11-11-13l-5.2-1.4c-3.6-1-4.8-2.1-4.8-4.4c0-2.9,2.5-5,6.1-5c3.2,0,6.2,0.9,10.1,3.3l4.1-6.3
				c-3.8-2.8-9.2-4.4-14.5-4.4c-9.2,0-15.5,5.5-15.5,13.5c0,2.4,0.6,4.7,1.8,6.7c1.6,2.6,4.3,4.3,8.6,5.5l4.8,1.3
				c3.9,1.1,5.7,2.8,5.7,5.7c0,3.9-2.6,6-7.6,6c-4.3,0-7.8-1.4-11.9-3.5l-3.2,6.8c4.3,2.5,9.8,4,14.8,4
				C25.7,143.3,32.8,137.4,32.8,128.6z"/>
		</g>
	</g>
	<g>
		<g>
			<rect x="39.1" y="98.7" width="9.1" height="43.6"/>
		</g>
		<g>
			<rect x="39.1" y="98.7" width="9.1" height="43.6"/>
		</g>
	</g>
	<g>
		<g>
			<path d="M87,142.3V98.7h-8.3l0.2,17.8c0,3,0.4,8.6,0.7,12c-0.9-3.2-2.6-7.7-4.7-12.4l-8.3-17.4h-9.7v43.6h8.4L65,123.7
				c0-3.6-0.1-8.8-0.4-12.4c0.8,2.7,3.4,8.9,5.9,14.3l7.4,16.7L87,142.3L87,142.3z"/>
		</g>
		<g>
			<path d="M87,142.3V98.7h-8.3l0.2,17.8c0,3,0.4,8.6,0.7,12c-0.9-3.2-2.6-7.7-4.7-12.4l-8.3-17.4h-9.7v43.6h8.4L65,123.7
				c0-3.6-0.1-8.8-0.4-12.4c0.8,2.7,3.4,8.9,5.9,14.3l7.4,16.7L87,142.3L87,142.3z"/>
		</g>
	</g>
</g>
</svg>
