<?xml version="1.0" encoding="utf-8"?>
<!-- Generator: Adobe Illustrator 19.2.1, SVG Export Plug-In . SVG Version: 6.00 Build 0)  -->
<svg version="1.1" id="Layer_1" xmlns="http://www.w3.org/2000/svg" xmlns:xlink="http://www.w3.org/1999/xlink" x="0px" y="0px"
	 viewBox="0 0 200 200" style="enable-background:new 0 0 200 200;" xml:space="preserve">
<style type="text/css">
	.st0{fill:#FFFFFF;}
</style>
<g id="Layer_x0020_1">
	<polygon class="st0" points="1.1,77 1.1,123 17,123 17,105.3 27.2,123 47.2,123 32,100.2 45.7,77 26.7,77 17.2,96.2 17.2,77 	"/>
	<path class="st0" d="M59.8,89.8c-10.1,0-18.2,7.4-18.2,16.6c0,9.2,8.2,16.6,18.2,16.6S78,115.6,78,106.4
		C78,97.3,69.9,89.8,59.8,89.8z M59.7,110.1c-2.3,0-4.1-1.7-4.1-3.9c0-2.1,1.9-3.9,4.1-3.9c2.3,0,4.1,1.7,4.1,3.9
		C63.8,108.4,61.9,110.1,59.7,110.1z"/>
	<path class="st0" d="M80.3,90.7c0,10.6,0,21.2,0,31.8c5,0,10,0,14.9,0c0-6.2,0-12.9,0-19.1c0.8-2.3,3-2.1,4-0.5c0,6.7,0,13.4,0,20
		c5,0,10,0,14.9,0c0-6.3,0-12.5,0-18.8c0.4-2.3,3-2.6,3.9-0.5c0,6.4,0,12.9,0,19.3c4.9,0,9.8,0,14.7,0c0-8,0-16,0-24
		c-3.3-10.6-12.2-14-20-2.6c-6-8-13-9.3-18.7,0.5c0-2.1,0-4.3,0-6.4C89.5,90.6,84.9,90.6,80.3,90.7z"/>
	<path class="st0" d="M157.4,90.1c0.1,1.4,0.2,2.7,0.3,4.1c-4.7-4-5.3-4.6-11.2-4.3c-9,2-11,8.4-11.2,18.8
		c0.4,9.6,10.4,19.2,21.1,10.4c0.5-0.5,1.1-1,1.6-1.5c0,1.8,0,3.6,0,5.3c4.8,0,9.5,0,14.3,0c0-11,0-21.9,0-32.9
		C167.3,90.1,162.4,90.1,157.4,90.1z M153.8,110.1c-2.3,0-4.1-1.7-4.1-3.9c0-2.1,1.9-3.9,4.1-3.9c2.3,0,4.1,1.7,4.1,3.9
		C158,108.4,156.1,110.1,153.8,110.1z"/>
	<path class="st0" d="M174.5,90.3c0,10.9,0,21.9,0,32.8c5,0,10,0,15,0c0-4.4,0-8.9,0-13.3c0.4-5.8,4.4-7.5,9.6-4.8
		c0-5.1,0-10.2,0-15.3c-5,0.3-7.3,1.7-10.3,5.6c0-1.7,0-3.5,0-5.2C184.1,90.1,179.3,90.2,174.5,90.3z"/>
</g>
</svg>
