<?xml version="1.0" encoding="utf-8"?>
<!-- Generator: Adobe Illustrator 18.0.0, SVG Export Plug-In . SVG Version: 6.00 Build 0)  -->
<!DOCTYPE svg PUBLIC "-//W3C//DTD SVG 1.1//EN" "http://www.w3.org/Graphics/SVG/1.1/DTD/svg11.dtd">
<svg version="1.1" id="Layer_1" xmlns="http://www.w3.org/2000/svg" xmlns:xlink="http://www.w3.org/1999/xlink" x="0px" y="0px"
	 viewBox="0 0 200 200" enable-background="new 0 0 200 200" xml:space="preserve">
<g id="Layer_x0020_1">
	<polygon fill="#EC1B31" points="0,76.7 0,123.3 16,123.3 16,105.4 26.3,123.3 46.6,123.3 31.2,100.2 45,76.7 25.8,76.7 16.2,96.1 
		16.2,76.7 	"/>
	<path fill="#EC1B31" d="M0.1,76.8v46.5h16v-17.9l10.4,17.9h20.1l-15.3-23.1L45,76.8H25.8l-9.7,19.5V76.8H0.1z M0,123.3V76.7h16.2
		V96l9.6-19.3c6.4,0,12.9,0,19.3,0l-13.8,23.5l15.4,23.1H26.3l-10.3-17.8v17.8L0,123.3L0,123.3z"/>
	<path fill="#EC1B31" d="M59.3,89.7c10.2,0,18.4,7.5,18.4,16.8c0,9.3-8.2,16.8-18.4,16.8s-18.4-7.5-18.4-16.8
		C40.9,97.2,49.1,89.7,59.3,89.7z"/>
	<path fill="#EC1B31" d="M59.3,89.7c5.1,0,9.7,1.9,13,4.9c3.3,3,5.4,7.2,5.4,11.9s-2.1,8.8-5.4,11.9c-3.3,3-7.9,4.9-13,4.9
		s-9.7-1.9-13-4.9c-3.3-3-5.4-7.2-5.4-11.9s2.1-8.8,5.4-11.9C49.6,91.6,54.2,89.7,59.3,89.7z M72.3,94.7c-3.3-3-7.9-4.9-13-4.9
		c-5.1,0-9.7,1.9-13,4.9c-3.3,3-5.4,7.2-5.4,11.8c0,4.6,2.1,8.8,5.4,11.8c3.3,3,7.9,4.9,13,4.9c5.1,0,9.7-1.9,13-4.9
		s5.4-7.2,5.4-11.8C77.6,101.9,75.6,97.7,72.3,94.7z"/>
	<path fill="#FFFFFF" d="M59.1,102.4c2.3,0,4.2,1.8,4.2,3.9s-1.9,3.9-4.2,3.9c-2.3,0-4.2-1.8-4.2-3.9S56.8,102.4,59.1,102.4z"/>
	<path fill="#EC1B31" d="M59.1,102.4c1.2,0,2.2,0.4,3,1.2c0.8,0.7,1.2,1.7,1.2,2.8c0,1.1-0.5,2.1-1.2,2.8c-0.8,0.7-1.8,1.2-3,1.2
		s-2.2-0.4-3-1.2c-0.8-0.7-1.2-1.7-1.2-2.8c0-1.1,0.5-2.1,1.2-2.8C56.9,102.8,57.9,102.4,59.1,102.4z M62,103.5
		c-0.7-0.7-1.8-1.1-2.9-1.1c-1.1,0-2.2,0.4-2.9,1.1c-0.7,0.7-1.2,1.7-1.2,2.8s0.5,2,1.2,2.8c0.8,0.7,1.8,1.1,2.9,1.1
		c1.1,0,2.2-0.4,2.9-1.1c0.8-0.7,1.2-1.7,1.2-2.8S62.8,104.3,62,103.5z"/>
	<path fill="#EC1B31" d="M79.9,90.6c0,10.7,0,21.4,0,32.1c5,0,10.1,0,15.1,0c0-6.2,0-13,0-19.2c0.9-2.3,3-2.1,4-0.5
		c0,6.7,0,13.5,0,20.2c5,0,10.1,0,15.1,0c0-6.3,0-12.6,0-19c0.4-2.3,3-2.6,4-0.5c0,6.5,0,13,0,19.5c4.9,0,9.9,0,14.8,0
		c0-8.1,0-16.2,0-24.3c-3.3-10.7-12.4-14.1-20.2-2.6c-6.1-8.1-13.1-9.3-18.9,0.5c0-2.2,0-4.3,0-6.5C89.2,90.5,84.6,90.6,79.9,90.6z"
		/>
	<path fill="#EC1B31" d="M80,90.7v32.1h15v-19.2l0,0c0.3-0.7,0.6-1.1,1-1.4c0.3-0.2,0.6-0.3,0.9-0.3c0.3,0,0.6,0,0.9,0.1
		c0.5,0.2,1,0.6,1.3,1.1l0,0v20.2h15c0-3.9-0.6-16,0-18.9c0.1-0.6,0.4-1.1,0.8-1.5c0.3-0.3,0.7-0.4,1-0.5c0.4,0,0.8,0,1.1,0.2
		c0.4,0.2,0.8,0.6,1.1,1.2l0,0v19.4H133V99c-1.2-3.8-3.1-6.7-5.5-8.3c-1-0.7-2.1-1.1-3.2-1.3c-1.1-0.2-2.3-0.1-3.5,0.3
		c-2.6,0.8-5.3,3-7.9,6.8l0,0l0,0c-1.8-2.3-3.6-4.1-5.5-5.2c-1.5-0.9-3-1.3-4.5-1.3c-1.5,0.1-3,0.6-4.5,1.7c-1.5,1.1-3,2.9-4.4,5.3
		L93.8,97v-6.6L80,90.7z M79.9,122.8V90.6c4.7-0.1,9.3-0.2,14-0.3v6.4c1.4-2.4,2.8-4.1,4.4-5.2c1.5-1.1,3-1.6,4.5-1.7
		c1.5-0.1,3,0.4,4.6,1.3c1.9,1.1,3.7,2.8,5.5,5.2c2.6-3.8,5.3-6,8-6.8c1.2-0.4,2.4-0.5,3.6-0.3c1.1,0.2,2.2,0.6,3.3,1.3
		c2.4,1.6,4.3,4.5,5.5,8.4l0,0v24.3h-14.9v-19.5c-0.3-0.6-0.6-1-1.1-1.2c-0.3-0.2-0.7-0.2-1.1-0.2c-0.4,0-0.7,0.2-1,0.4
		c-0.4,0.3-0.6,0.8-0.8,1.4v19H99.1V103c-0.3-0.5-0.8-0.9-1.3-1.1c-0.3-0.1-0.6-0.1-0.9-0.1c-0.3,0-0.6,0.1-0.8,0.3
		c-0.4,0.3-0.8,0.7-1,1.4v19.3L79.9,122.8L79.9,122.8z"/>
	<path fill="#EC1B31" d="M158.1,94.2c-4.7-4-5.4-4.6-11.3-4.3c-9.1,2.1-11.1,8.5-11.3,19c0.4,9.7,10.5,19.4,21.3,10.5
		c0.5-0.5,1.1-1,1.6-1.5c0,1.8,0,3.6,0,5.4c4.8,0,9.6,0,14.4,0c0-11.1,0-22.1,0-33.2c-5,0-10.1,0-15.1,0
		C157.9,91.4,158,92.8,158.1,94.2z"/>
	<path fill="#EC1B31" d="M158.1,94.2l-0.3-0.2c-4.5-3.8-5.2-4.4-11-4.1c-4.5,1-7.3,3.2-9,6.3c-1.7,3.2-2.2,7.4-2.3,12.6
		c0.2,3.4,1.5,6.8,3.6,9.4c1.2,1.4,2.6,2.6,4.2,3.5c1.6,0.8,3.4,1.3,5.3,1.2c2.6-0.1,5.3-1.2,8.1-3.5l1.7-1.6v5.4h14.4V90.1h-15
		L158.1,94.2L158.1,94.2z M157.9,93.9l0.2,0.2l-0.3-4.1h15.2v33.3h-14.5v-5.4l-1.6,1.5c-2.8,2.3-5.6,3.4-8.2,3.5
		c-1.9,0.1-3.7-0.3-5.3-1.2c-1.6-0.8-3.1-2-4.3-3.5c-2.1-2.6-3.5-6-3.6-9.4v0c0.1-5.2,0.6-9.5,2.3-12.6c1.7-3.2,4.5-5.3,9-6.4l0,0
		C152.6,89.5,153.4,90.1,157.9,93.9z"/>
	<path fill="#FFFFFF" d="M154.2,102.4c2.3,0,4.2,1.8,4.2,3.9s-1.9,3.9-4.2,3.9c-2.3,0-4.2-1.8-4.2-3.9S151.9,102.4,154.2,102.4z"/>
	<path fill="#EC1B31" d="M154.2,102.4c1.2,0,2.2,0.4,3,1.2c0.8,0.7,1.2,1.7,1.2,2.8c0,1.1-0.5,2.1-1.2,2.8c-0.8,0.7-1.8,1.2-3,1.2
		c-1.2,0-2.2-0.4-3-1.2c-0.8-0.7-1.2-1.7-1.2-2.8c0-1.1,0.5-2.1,1.2-2.8C152,102.8,153,102.4,154.2,102.4z M157.1,103.5
		c-0.7-0.7-1.8-1.1-2.9-1.1c-1.1,0-2.2,0.4-2.9,1.1c-0.7,0.7-1.2,1.7-1.2,2.8s0.5,2,1.2,2.8c0.8,0.7,1.8,1.1,2.9,1.1
		c1.1,0,2.2-0.4,2.9-1.1c0.8-0.7,1.2-1.7,1.2-2.8S157.9,104.3,157.1,103.5z"/>
	<path fill="#EC1B31" d="M175.1,90.2c0,11,0,22.1,0,33.1c5.1,0,10.1,0,15.2,0c0-4.5,0-9,0-13.5c0.5-5.9,4.5-7.6,9.7-4.8
		c0-5.1,0-10.3,0-15.4c-5,0.3-7.3,1.7-10.4,5.6c0-1.7,0-3.5,0-5.2C184.8,90.1,179.9,90.1,175.1,90.2z"/>
	<path fill="#EC1B31" d="M175.1,90.2v33h15.1v-13.4c0.1-1.4,0.4-2.6,0.9-3.6c0.5-0.9,1.2-1.6,2-2c0.8-0.4,1.8-0.6,2.8-0.5
		c1.2,0.1,2.5,0.5,4,1.3V89.6c-2.5,0.1-4.3,0.6-5.9,1.5c-1.6,0.9-2.9,2.2-4.4,4.2l-0.1,0.1V90L175.1,90.2z M175.1,123.3V90.1
		c4.9-0.1,9.7-0.1,14.6-0.2v5.2c1.5-1.9,2.8-3.3,4.4-4.1c1.6-0.9,3.4-1.3,5.9-1.5l0,0c0,5.2,0,10.3,0,15.5l0,0
		c-1.4-0.8-2.8-1.2-4-1.3c-1.1-0.1-2,0.1-2.8,0.5c-0.8,0.4-1.5,1.1-2,2c-0.5,0.9-0.8,2.1-0.9,3.5v13.5L175.1,123.3L175.1,123.3z"/>
</g>
</svg>
