<?xml version="1.0" encoding="utf-8"?>
<!-- Generator: Adobe Illustrator 18.0.0, SVG Export Plug-In . SVG Version: 6.00 Build 0)  -->
<!DOCTYPE svg PUBLIC "-//W3C//DTD SVG 1.1//EN" "http://www.w3.org/Graphics/SVG/1.1/DTD/svg11.dtd">
<svg version="1.1" id="Layer_1" xmlns="http://www.w3.org/2000/svg" xmlns:xlink="http://www.w3.org/1999/xlink" x="0px" y="0px"
	 viewBox="0 0 200 200" enable-background="new 0 0 200 200" xml:space="preserve">
<g id="Layer_x0020_1">
	<path fill="#E30301" d="M88.5,6.8c4.9,0,8.9,3.9,8.9,8.8c0,4.9-4,8.8-8.9,8.8c-4.9,0-8.9-4-8.9-8.8C79.6,10.7,83.6,6.8,88.5,6.8z"
		/>
	<path fill="#E30301" d="M88.5,6.7c2.5,0,4.7,1,6.3,2.6c1.6,1.6,2.6,3.8,2.6,6.3c0,2.5-1,4.7-2.6,6.3c-1.6,1.6-3.9,2.6-6.3,2.6
		c-2.5,0-4.7-1-6.4-2.6c-1.6-1.6-2.6-3.8-2.6-6.3c0-2.5,1-4.7,2.6-6.3C83.8,7.7,86,6.7,88.5,6.7z M94.7,9.4
		c-1.6-1.6-3.8-2.6-6.3-2.6c-2.5,0-4.7,1-6.3,2.6c-1.6,1.6-2.6,3.8-2.6,6.2s1,4.6,2.6,6.2c1.6,1.6,3.8,2.6,6.3,2.6
		c2.4,0,4.7-1,6.3-2.6c1.6-1.6,2.6-3.8,2.6-6.2S96.3,11,94.7,9.4z"/>
	<path fill="#E30301" d="M111.2,14.9c4.9,0,8.9,4,8.9,8.8c0,4.9-4,8.8-8.9,8.8c-4.9,0-8.9-4-8.9-8.8
		C102.3,18.9,106.3,14.9,111.2,14.9z"/>
	<path fill="#E30301" d="M111.2,14.9c2.5,0,4.7,1,6.4,2.6s2.6,3.8,2.6,6.3c0,2.5-1,4.7-2.6,6.3c-1.6,1.6-3.9,2.6-6.4,2.6
		c-2.5,0-4.7-1-6.3-2.6c-1.6-1.6-2.6-3.8-2.6-6.3c0-2.5,1-4.7,2.6-6.3C106.5,15.8,108.7,14.9,111.2,14.9z M117.5,17.5
		c-1.6-1.6-3.8-2.6-6.3-2.6c-2.4,0-4.7,1-6.3,2.6c-1.6,1.6-2.6,3.8-2.6,6.2c0,2.4,1,4.6,2.6,6.2c1.6,1.6,3.8,2.6,6.3,2.6
		c2.5,0,4.7-1,6.3-2.6c1.6-1.6,2.6-3.8,2.6-6.2C120.1,21.3,119.1,19.1,117.5,17.5z"/>
	<path fill="#E30301" d="M68.4,49.9c4.9,0,8.9,4,8.9,8.8c0,4.9-4,8.8-8.9,8.8c-4.9,0-8.9-3.9-8.9-8.8C59.5,53.9,63.5,49.9,68.4,49.9
		z"/>
	<path fill="#E30301" d="M68.4,49.9c2.5,0,4.7,1,6.4,2.6s2.6,3.8,2.6,6.3c0,2.5-1,4.7-2.6,6.3s-3.9,2.6-6.4,2.6
		c-2.5,0-4.7-1-6.3-2.6c-1.6-1.6-2.6-3.8-2.6-6.3c0-2.5,1-4.7,2.6-6.3C63.7,50.9,65.9,49.9,68.4,49.9z M74.6,52.6
		C73,51,70.8,50,68.4,50c-2.4,0-4.7,1-6.3,2.6c-1.6,1.6-2.6,3.8-2.6,6.2s1,4.6,2.6,6.2c1.6,1.6,3.8,2.6,6.3,2.6c2.5,0,4.7-1,6.3-2.6
		c1.6-1.6,2.6-3.8,2.6-6.2S76.3,54.1,74.6,52.6z"/>
	<path fill="#E30301" d="M130.9,60.1c4.9,0,8.9,4,8.9,8.8c0,4.9-4,8.8-8.9,8.8c-4.9,0-8.9-3.9-8.9-8.8C122,64.1,126,60.1,130.9,60.1
		z"/>
	<path fill="#E30301" d="M130.9,60.1c2.5,0,4.7,1,6.3,2.6c1.6,1.6,2.6,3.8,2.6,6.3c0,2.5-1,4.7-2.6,6.3c-1.6,1.6-3.9,2.6-6.3,2.6
		s-4.7-1-6.4-2.6c-1.6-1.6-2.6-3.8-2.6-6.3c0-2.5,1-4.7,2.6-6.3C126.2,61,128.5,60.1,130.9,60.1z M137.2,62.7
		c-1.6-1.6-3.8-2.6-6.3-2.6c-2.5,0-4.7,1-6.3,2.6c-1.6,1.6-2.6,3.8-2.6,6.2c0,2.4,1,4.6,2.6,6.2c1.6,1.6,3.8,2.6,6.3,2.6
		c2.4,0,4.7-1,6.3-2.6c1.6-1.6,2.6-3.8,2.6-6.2C139.8,66.5,138.8,64.3,137.2,62.7z"/>
	<path fill="#E30301" d="M37.5,0.1c5.3,0,10.7,0,16,0c2,6.6,6,12.5,10.7,17.6c4.2,3.8,7.5,6.5,12.5,9.3c7.5,3.4,12.1,4.6,20.5,4.8
		c0,40.9,0,81.8,0,122.8c-4.9,0-9.9,0-14.8,0c0-36.5,0-72.9,0-109.4C70.3,43.5,58,33.3,49.9,24.6C43.7,16.3,40.2,10.4,37.5,0.1z"/>
	<path fill="#E30301" d="M37.5,0h16l0,0c1,3.3,2.5,6.4,4.3,9.4c1.8,2.9,4,5.6,6.3,8.2c2.1,1.9,4,3.5,6,5c2,1.5,4.1,2.9,6.6,4.3
		c3.8,1.7,6.8,2.8,9.9,3.6c3.1,0.7,6.4,1.1,10.6,1.2h0.1v122.9H82.4V45.1c-5.3-0.7-10.7-3.1-15.7-6.2c-6.4-4-12.3-9.4-16.8-14.2v0
		c-3.1-4.2-5.5-7.7-7.5-11.5C40.4,9.3,38.8,5.3,37.5,0L37.5,0L37.5,0z M53.4,0.1H37.6c1.4,5.1,2.9,9.2,4.9,13
		c2,3.8,4.4,7.4,7.5,11.5c4.5,4.8,10.4,10.2,16.8,14.2c5,3.2,10.4,5.5,15.7,6.2l0.1,0v109.4h14.7V31.7c-4.2-0.1-7.5-0.4-10.6-1.2
		c-3.1-0.7-6.2-1.9-9.9-3.6h0c-2.5-1.4-4.6-2.8-6.6-4.3c-2-1.5-3.9-3.1-6-5v0c-2.3-2.5-4.5-5.3-6.4-8.2C55.9,6.5,54.4,3.4,53.4,0.1z
		"/>
	<path fill="#E30301" d="M102,39.8c13.6-0.4,21.1-4.1,31.9-12.7c5.5-6.6,8.9-10.9,12.1-19.1c5.2,0,10.4,0,15.6,0
		c-4.4,16.2-12.8,28.8-27,38c-5.8,3.1-10.6,5.5-17.1,7.4c0,33.7,0,67.3,0,101c-4.9,0-9.9,0-14.8,0C102.5,116.2,102.2,78,102,39.8z"
		/>
	<path fill="#E30301" d="M102,39.8c6.8-0.2,12.1-1.2,17-3.3c4.9-2,9.5-5.1,14.8-9.4c2.7-3.3,4.9-6,6.9-8.9s3.6-6.1,5.2-10.2l0,0
		c5.2,0,10.5,0,15.7,0l0,0.1c-2.2,8.1-5.4,15.3-9.8,21.6c-4.4,6.3-10.1,11.8-17.2,16.5l0,0c-2.9,1.5-5.6,2.9-8.3,4.1
		c-2.7,1.2-5.5,2.3-8.7,3.2v101h-14.9C102.4,116.2,102.2,78,102,39.8L102,39.8z M119.1,36.6c-4.9,2-10.2,3.1-17,3.3l0.7,114.4h14.7
		v-101l0,0c3.2-0.9,6-2,8.8-3.2c2.7-1.2,5.4-2.6,8.3-4.1c7.1-4.6,12.7-10.1,17.1-16.4c4.4-6.3,7.6-13.5,9.8-21.5H146
		c-1.6,4.1-3.2,7.2-5.2,10.2c-1.9,2.9-4.1,5.7-6.9,8.9v0h0C128.6,31.5,124,34.5,119.1,36.6z"/>
	<path fill="#ED0000" d="M17.3,41.1c5.4,0,10.8,0,16.2,0c1.2,3.7,2.1,6.1,4.1,9.5c5.5,8.1,9.3,11.1,17.4,16.6
		c7.6,3.6,13.2,5.7,22,5.7c0,27.4,0,54.7,0,82.1c-5.1,0-10.1,0-15.2,0c0-22.9,0-45.7,0-68.6c-5-1-9.6-3.1-14.1-5.5
		C39.4,75.9,33,70.5,27,62.7C22.5,55.7,19.4,49.5,17.3,41.1z"/>
	<path fill="#ED0000" d="M17.3,41h16.2l0,0c0.6,1.8,1.1,3.4,1.7,4.9c0.6,1.5,1.4,2.9,2.4,4.6c2.8,4,5.1,6.8,7.7,9.2
		c2.7,2.4,5.6,4.6,9.7,7.3c3.8,1.8,7.1,3.2,10.6,4.2c3.4,1,7,1.5,11.4,1.5H77V155H61.7V86.4c-2.5-0.5-4.9-1.3-7.2-2.2
		c-2.3-0.9-4.6-2-6.9-3.2l0,0c-4.1-2.5-7.8-5.1-11.2-8.1c-3.4-2.9-6.5-6.2-9.5-10.1l0,0c-2.2-3.5-4.2-6.9-5.8-10.3
		C19.6,48.9,18.3,45.3,17.3,41L17.3,41L17.3,41z M33.4,41.1h-16c1.1,4.2,2.4,7.8,4,11.2c1.6,3.5,3.5,6.8,5.8,10.3
		c3,3.9,6.1,7.1,9.5,10.1c3.4,2.9,7.1,5.5,11.2,8c2.2,1.2,4.5,2.3,6.8,3.2c2.3,0.9,4.7,1.7,7.2,2.2l0,0v68.5h15.1V72.9
		c-4.3,0-7.9-0.5-11.4-1.5c-3.5-1-6.8-2.4-10.6-4.2l0,0c-4.1-2.7-7.1-4.9-9.7-7.3c-2.7-2.5-5-5.2-7.7-9.3v0c-1-1.7-1.7-3.2-2.4-4.7
		C34.5,44.5,34,43,33.4,41.1z"/>
	<path fill="#ED0000" d="M123.6,154.4c5.1,0,10.2,0,15.2,0c0-19.3,0-38.6,0-57.9c5.9-1.8,10.8-3.8,16.2-6.9
		c9.4-6.6,14.7-12.1,21.1-21.8c3.1-5.6,5.1-10.4,6.6-16.7c-5.4,0-10.8,0-16.2,0c-0.9,3.2-1.6,4.8-3,7.8c-5.7,9.1-10.6,13.7-20,19.3
		c-6.6,3.1-12.9,4.8-20.2,4.8C123.4,106.8,123.5,130.6,123.6,154.4z"/>
	<path fill="#ED0000" d="M123.7,154.4h15.1V96.5l0,0c3-0.9,5.7-1.8,8.3-3c2.6-1.1,5.2-2.4,7.9-3.9c4.7-3.3,8.4-6.3,11.7-9.7
		c3.3-3.4,6.2-7.2,9.4-12.1c1.5-2.8,2.8-5.4,3.9-8.1c1.1-2.7,1.9-5.4,2.7-8.5h-16.1c-0.4,1.6-0.8,2.8-1.3,3.9
		c-0.5,1.2-1,2.3-1.7,3.8v0c-2.9,4.6-5.5,8-8.6,11c-3.1,3-6.7,5.5-11.4,8.3h0c-3.3,1.5-6.5,2.7-9.8,3.6c-3.3,0.8-6.7,1.3-10.4,1.3
		L123.7,154.4z M138.8,154.5h-15.3c-0.1-23.9-0.2-47.7-0.3-71.6h0.1c3.7,0,7.1-0.4,10.4-1.3c3.3-0.8,6.5-2,9.8-3.5
		c4.7-2.8,8.3-5.3,11.4-8.3c3.1-3,5.7-6.4,8.6-11c0.7-1.5,1.2-2.6,1.7-3.8c0.5-1.2,0.9-2.4,1.3-4l0,0h16.4l0,0.1
		c-0.8,3.1-1.6,5.9-2.7,8.6c-1.1,2.7-2.3,5.3-3.9,8.1l0,0c-3.2,4.9-6.2,8.7-9.5,12.1c-3.3,3.4-7,6.4-11.7,9.8h0
		c-2.7,1.6-5.3,2.8-7.9,4c-2.6,1.1-5.3,2.1-8.3,3L138.8,154.5L138.8,154.5z"/>
	<polygon fill="#ED0000" points="67.7,165.8 67.7,199.3 77.4,199.3 77.4,165.8 	"/>
	<path fill="#ED0000" d="M67.7,165.9v33.4h9.6v-33.4L67.7,165.9z M67.6,199.3v-33.5c3.3,0,6.6,0,9.8,0v33.7L67.6,199.3L67.6,199.3z"
		/>
	<path fill="#ED0000" d="M62,165.9c0,2.4,0,4.8,0,7.3c-7.2-1.7-13.2-0.2-14.6,8c-0.2,4.5-0.1,6.2,3.3,9.6c3.5,1.9,7.6,2.6,11.4,1.1
		c0,2.4,0,4.8,0,7.3c-14.3,3.1-24-3.1-24.4-18.2C40.3,167.6,49.4,163.4,62,165.9z"/>
	<path fill="#ED0000" d="M62.1,165.9v7.3l-0.1,0c-0.5-0.1-1-0.2-1.5-0.3c-3.1-0.5-5.9-0.4-8.2,0.7c-2.2,1.1-3.9,3.2-4.7,6.6
		c-0.1,0.3-0.1,0.6-0.2,1c-0.1,2.2-0.1,3.8,0.3,5.2s1.3,2.7,3,4.4c1.8,1,3.8,1.7,5.8,1.9c1.8,0.2,3.7-0.1,5.5-0.8l0.1,0v7.4l0,0
		c-2.1,0.5-4.1,0.7-6,0.8c-4.6,0.1-8.6-0.9-11.6-3.2c-3.1-2.3-5.2-5.7-6.2-10.3c-0.4-1.7-0.6-3.5-0.6-5.5v0l0-0.1
		c1.3-6.6,4.3-11,8.4-13.4s9.6-2.9,15.8-1.6L62.1,165.9L62.1,165.9z M62,173.1V166l-0.1,0c-6.2-1.2-11.6-0.8-15.8,1.6
		c-4.1,2.4-7.1,6.7-8.4,13.3l0,0.1c0.1,2,0.3,3.8,0.6,5.5c1,4.6,3.1,8,6.2,10.3c3,2.2,7,3.3,11.6,3.2c1.9-0.1,3.8-0.3,5.9-0.8V192
		c-1.8,0.7-3.7,0.9-5.5,0.8c-2-0.2-4-0.9-5.9-1.9l0,0l0,0c-1.7-1.7-2.6-3-3-4.4c-0.4-1.4-0.4-3-0.3-5.2v0c0.1-0.3,0.1-0.7,0.2-1
		c0.8-3.5,2.5-5.6,4.7-6.7c2.3-1.1,5.1-1.3,8.2-0.7C61,172.9,61.5,173,62,173.1z"/>
	<path fill="#ED0000" d="M82.3,165.9c0,11.1,0,22.3,0,33.4c3.2,0,6.5,0,9.7,0c0-6.5,0-12.9,0-19.4c0.3,0.4,0.5,0.7,0.8,1.1
		c2.8,4,4.5,7.9,5.3,12.7c2.1,0,4.1,0,6.2,0c0.9-4.3,2.3-11,5.9-13.6c0,6.4,0,12.7,0,19.1c3.2,0,6.4,0,9.6,0c0-11.2,0-22.4,0-33.6
		c-3.3,0-6.5,0-9.8,0c-3.1,3.4-5.2,6.8-7.2,10.8c-0.2,0.6-1.3,3.3-1.7,3.8c-2.2-5.7-4.7-9.8-8.9-14.4
		C88.9,165.8,85.6,165.9,82.3,165.9z"/>
	<path fill="#ED0000" d="M82.4,166v33.3h9.6v-19.5c0.3,0.4,0.6,0.8,0.9,1.2c1.4,2,2.5,4,3.4,6c0.9,2.1,1.5,4.2,2,6.6h6.1
		c0.4-2.1,1-4.8,1.9-7.4c0.9-2.5,2.2-4.9,4-6.2l0.1-0.1v19.1h9.5v-33.5h-9.7c-1.5,1.7-2.8,3.4-4,5.1c-1.2,1.8-2.2,3.6-3.2,5.7
		c-0.1,0.4-0.6,1.5-1,2.4c-0.3,0.6-0.5,1.2-0.6,1.4l-0.1,0.1l0-0.1c-1.1-2.8-2.3-5.3-3.7-7.6c-1.4-2.3-3.1-4.5-5.2-6.7L82.4,166z
		 M82.2,199.4v-33.5c3.3,0,6.7-0.1,10-0.1l0,0c2.1,2.3,3.8,4.4,5.2,6.8c1.4,2.3,2.6,4.7,3.7,7.5c0.1-0.2,0.3-0.7,0.6-1.2
		c0.4-0.9,0.9-2.1,1-2.4v0c1-2,2-3.9,3.2-5.7c1.2-1.8,2.5-3.5,4-5.2l0,0h9.9v33.7h-9.7v-19c-1.7,1.3-2.9,3.6-3.8,6.1
		c-0.9,2.5-1.5,5.3-1.9,7.4l0,0h-6.3l0-0.1c-0.4-2.4-1.1-4.6-2-6.6c-0.9-2.1-2-4-3.4-6l-0.7-0.9v19.3L82.2,199.4L82.2,199.4z"/>
	<path fill="#ED0000" d="M125.9,167.7c-0.7,1-1.3,1.9-2,2.9c1.8,0,3.6,0,5.4,0c2.9-3.6,5.1-8.2-0.2-11.1c-1.6-0.2-2.4-0.3-3.7,0.6
		c-1.4,1.3-1.6,1.7-1.9,3.6C123.5,165.8,124,166.7,125.9,167.7z"/>
	<path fill="#ED0000" d="M125.9,167.7l-1.9,2.8h5.3c1.4-1.8,2.7-3.8,2.9-5.7c0.2-1.9-0.5-3.8-3.2-5.2c-0.8-0.1-1.4-0.2-1.9-0.1
		c-0.6,0.1-1.1,0.2-1.8,0.6c-0.7,0.7-1.1,1.1-1.3,1.6c-0.3,0.5-0.4,1-0.6,2c0.1,1,0.2,1.8,0.6,2.4
		C124.4,166.6,125,167.1,125.9,167.7L125.9,167.7L125.9,167.7z M123.8,170.5l2-2.8c-0.9-0.5-1.5-1-1.9-1.6c-0.4-0.6-0.5-1.4-0.6-2.5
		v0v0c0.2-0.9,0.3-1.5,0.6-2c0.3-0.5,0.7-0.9,1.4-1.6v0l0,0c0.7-0.4,1.2-0.6,1.8-0.7c0.6-0.1,1.2,0,2,0.1h0l0,0
		c2.7,1.5,3.5,3.4,3.3,5.3c-0.2,2-1.5,4-3,5.8l0,0L123.8,170.5L123.8,170.5z"/>
	<path fill="#ED0000" d="M132.5,199.1c3.3,0,6.6,0,9.9,0c1.7-4.2,3.5-6.1,7.4-8.6c0-2.5,0-5.1,0-7.6c-2.9,0-5.1,0.4-7.6-1
		c-1.9-1.9-1.4-2.3-1.4-4.9c1-2.5,2.3-3,4.8-3.7c2,0,3.9,0,5.9,0c0,8.7,0,17.3,0,26c3.2,0,6.4,0,9.6,0c0-11.2,0-22.4,0-33.6
		c-6.4,0-12.7,0-19.1,0c-10.1,1.8-14.4,11-8.8,19.4c2.6,1.9,4.5,2.8,7.6,3.6C137,190.9,133.2,194.4,132.5,199.1z"/>
	<path fill="#ED0000" d="M132.6,199h9.8c0.9-2.1,1.7-3.6,2.9-4.9c1.1-1.3,2.6-2.4,4.5-3.7v-7.6c-0.4,0-0.8,0-1.3,0
		c-2.3,0.1-4.2,0.1-6.4-1.1l0,0l0,0c-1.5-1.5-1.5-2.1-1.4-3.6c0-0.4,0-0.8,0-1.4v0v0c0.5-1.3,1.1-2,1.9-2.6s1.7-0.8,3-1.2l0,0h6v26
		h9.4v-33.5h-19c-2.3,0.4-4.3,1.2-5.9,2.3c-2,1.3-3.5,3.1-4.3,5c-0.9,2-1.2,4.2-0.8,6.5c0.3,1.8,1.1,3.6,2.2,5.5
		c1.3,0.9,2.4,1.6,3.6,2.2c1.2,0.6,2.4,1,4,1.4l0.1,0l-0.1,0.1c-1.8,1.2-3.7,2.7-5.2,4.4C134.1,194.7,133,196.7,132.6,199z
		 M142.4,199.1h-10l0-0.1c0.4-2.3,1.5-4.4,3-6.1c1.5-1.7,3.3-3.2,5.1-4.4c-1.5-0.4-2.7-0.8-3.9-1.3c-1.2-0.6-2.3-1.3-3.6-2.2l0,0
		l0,0c-1.2-1.8-1.9-3.7-2.3-5.5c-0.4-2.3-0.1-4.6,0.8-6.6c0.9-2,2.4-3.8,4.4-5.1c1.7-1.1,3.7-1.9,6-2.3c3.2-0.6,15,0,19.1,0
		c0,11.2,0,22.5,0,33.7h-9.7v-26h-5.8c-1.2,0.3-2.2,0.6-2.9,1.1c-0.8,0.5-1.3,1.3-1.8,2.5c0,0.5,0,1,0,1.4c-0.1,1.5-0.1,2,1.4,3.5
		c2.1,1.2,4,1.1,6.3,1c0.4,0,0.9,0,1.3,0h0.1v7.7l0,0c-2,1.2-3.4,2.4-4.5,3.7C144.2,195.5,143.3,197,142.4,199.1L142.4,199.1
		L142.4,199.1z"/>
</g>
</svg>
