<?xml version="1.0" encoding="utf-8"?>
<!-- Generator: Adobe Illustrator 19.2.1, SVG Export Plug-In . SVG Version: 6.00 Build 0)  -->
<svg version="1.1" id="Layer_1" xmlns="http://www.w3.org/2000/svg" xmlns:xlink="http://www.w3.org/1999/xlink" x="0px" y="0px"
	 viewBox="0 0 200 200" style="enable-background:new 0 0 200 200;" xml:space="preserve">
<style type="text/css">
	.st0{fill:#FFFFFF;}
</style>
<g id="Layer_x0020_1">
	<path class="st0" d="M89.8,17.5c4.4,0,7.9,3.5,7.9,7.8c0,4.3-3.5,7.8-7.9,7.8c-4.4,0-7.9-3.5-7.9-7.8C81.9,21,85.5,17.5,89.8,17.5z
		"/>
	<path class="st0" d="M109.9,24.7c4.4,0,7.9,3.5,7.9,7.8c0,4.3-3.5,7.8-7.9,7.8c-4.4,0-7.9-3.5-7.9-7.8
		C102,28.2,105.6,24.7,109.9,24.7z"/>
	<path class="st0" d="M72,55.7c4.4,0,7.9,3.5,7.9,7.8c0,4.3-3.5,7.8-7.9,7.8c-4.4,0-7.9-3.5-7.9-7.8C64.1,59.2,67.7,55.7,72,55.7z"
		/>
	<path class="st0" d="M127.4,64.7c4.4,0,7.9,3.5,7.9,7.8c0,4.3-3.5,7.8-7.9,7.8c-4.4,0-7.9-3.5-7.9-7.8
		C119.5,68.2,123,64.7,127.4,64.7z"/>
	<path class="st0" d="M44.7,11.6c4.7,0,9.4,0,14.1,0c1.7,5.9,5.3,11,9.5,15.5c3.7,3.4,6.6,5.7,11.1,8.2c6.7,3,10.7,4,18.2,4.2
		c0,36.2,0,72.4,0,108.6c-4.4,0-8.7,0-13.1,0c0-32.3,0-64.5,0-96.8C73.8,50,62.8,41,55.7,33.3C50.2,26,47.1,20.8,44.7,11.6z"/>
	<path class="st0" d="M101.8,46.8c12.1-0.4,18.7-3.6,28.2-11.3c4.8-5.8,7.8-9.6,10.7-16.9c4.6,0,9.2,0,13.8,0
		c-3.9,14.3-11.3,25.4-23.8,33.6c-5.2,2.7-9.4,4.8-15.1,6.5c0,29.8,0,59.5,0,89.3c-4.4,0-8.7,0-13.1,0
		C102.2,114.3,102,80.5,101.8,46.8z"/>
	<path class="st0" d="M26.8,47.9c4.8,0,9.5,0,14.3,0c1,3.3,1.9,5.4,3.6,8.4c4.9,7.2,8.2,9.8,15.4,14.7c6.7,3.1,11.7,5,19.4,5
		c0,24.2,0,48.4,0,72.6c-4.5,0-9,0-13.4,0c0-20.2,0-40.4,0-60.6c-4.4-0.9-8.5-2.7-12.4-4.8c-7.3-4.4-13-9.2-18.3-16
		C31.5,60.8,28.7,55.3,26.8,47.9z"/>
	<path class="st0" d="M120.9,148.1c4.5,0,9,0,13.5,0c0-17.1,0-34.2,0-51.2c5.3-1.6,9.5-3.4,14.3-6.1c8.3-5.9,13-10.7,18.7-19.3
		c2.7-4.9,4.5-9.2,5.8-14.8c-4.8,0-9.6,0-14.4,0c-0.8,2.8-1.4,4.3-2.6,6.9c-5.1,8.1-9.3,12.1-17.7,17c-5.8,2.7-11.4,4.2-17.9,4.2
		C120.7,106,120.8,127.1,120.9,148.1z"/>
	<polygon class="st0" points="71.4,158.2 71.4,187.8 80,187.8 80,158.2 	"/>
	<path class="st0" d="M66.4,158.3c0,2.1,0,4.3,0,6.4c-6.4-1.5-11.7-0.2-12.9,7.1c-0.1,4-0.1,5.5,2.9,8.5c3.1,1.7,6.7,2.3,10.1,1
		c0,2.1,0,4.3,0,6.4c-12.6,2.8-21.2-2.8-21.6-16.1C47.2,159.8,55.3,156.1,66.4,158.3z"/>
	<path class="st0" d="M84.3,158.3c0,9.9,0,19.7,0,29.6c2.9,0,5.7,0,8.6,0c0-5.7,0-11.4,0-17.2c0.2,0.3,0.5,0.6,0.7,1
		c2.4,3.5,3.9,7,4.7,11.2c1.8,0,3.7,0,5.5,0c0.8-3.8,2.1-9.7,5.2-12.1c0,5.6,0,11.2,0,16.9c2.8,0,5.7,0,8.5,0c0-9.9,0-19.8,0-29.7
		c-2.9,0-5.8,0-8.7,0c-2.7,3-4.6,6-6.4,9.6c-0.2,0.5-1.2,2.9-1.5,3.3c-1.9-5-4.2-8.7-7.9-12.7C90.2,158.2,87.3,158.3,84.3,158.3z"/>
	<path class="st0" d="M122.9,159.8c-0.6,0.9-1.2,1.7-1.8,2.6c1.6,0,3.2,0,4.8,0c2.6-3.1,4.5-7.2-0.2-9.8c-1.4-0.2-2.1-0.2-3.3,0.5
		c-1.2,1.2-1.4,1.5-1.7,3.2C120.8,158.2,121.2,159,122.9,159.8z"/>
	<path class="st0" d="M128.8,187.6c2.9,0,5.8,0,8.8,0c1.5-3.7,3.1-5.4,6.5-7.6c0-2.3,0-4.5,0-6.8c-2.5,0-4.5,0.3-6.8-0.9
		c-1.7-1.7-1.2-2-1.2-4.4c0.9-2.2,2-2.7,4.2-3.3c1.7,0,3.5,0,5.2,0c0,7.7,0,15.3,0,23c2.8,0,5.6,0,8.5,0c0-9.9,0-19.8,0-29.7
		c-5.6,0-11.2,0-16.9,0c-8.9,1.6-12.7,9.7-7.8,17.2c2.3,1.7,4,2.5,6.7,3.2C132.8,180.4,129.4,183.5,128.8,187.6z"/>
</g>
</svg>
