<?xml version="1.0" encoding="utf-8"?>
<!-- Generator: Adobe Illustrator 18.0.0, SVG Export Plug-In . SVG Version: 6.00 Build 0)  -->
<!DOCTYPE svg PUBLIC "-//W3C//DTD SVG 1.1//EN" "http://www.w3.org/Graphics/SVG/1.1/DTD/svg11.dtd">
<svg version="1.1" id="Layer_1" xmlns="http://www.w3.org/2000/svg" xmlns:xlink="http://www.w3.org/1999/xlink" x="0px" y="0px"
	 viewBox="0 0 200 200" enable-background="new 0 0 200 200" xml:space="preserve">
<g id="Слой_x0020_1">
	<polygon fill="#898989" points="74.8,82.5 74.8,89.5 81.7,89.5 81.7,82.5 	"/>
	<polygon fill="#898989" points="74.8,91.5 81.8,91.5 81.8,115 74.8,115 	"/>
	<path fill="#898989" d="M67.2,98.5c1.7-0.5,3.4-0.9,5.1-1.4c-1.3-2.8-2-4.3-4.8-5.4c-2.7-0.8-4.7-0.9-7.4-0.5
		c-3.1,0.5-5.9,2.4-6.9,5.5c-1,3.8,0.2,6.6,3.3,8c2.8,1.2,5.6,1.6,8.7,2c1.6,0.3,2.4,1,1.9,2.4c-0.8,1.5-1.7,1.6-3.2,1.7
		c-2.8,0.1-5-0.2-6-3.1c-2,0.3-3.9,0.6-5.9,0.9c1.5,4.2,3,5.6,6.9,6.6c3.2,0.6,5.1,0.5,7.9-0.1c3.3-1,5.3-2.6,6-5.1
		c0.7-2.9,0.8-5-1.1-7.3c-2.2-2.3-4.9-2.5-7.9-2.9c-1.6-0.3-4.1-0.3-4.7-1.7c-0.6-3.3,3.2-3.1,5.1-2.5
		C66.2,96.2,66.5,96.8,67.2,98.5z"/>
	<path fill="#898989" d="M85,91.5c2.2,0,4.3,0,6.5,0c0,1.3,0,2.7,0,4c2.5-3.9,4.2-4.9,8.9-4.2c2.6,0.5,4.3,2.6,4.6,4.2
		c0.5,2.1,0.5,3.7,0.5,5.9c0,4.6,0,9.2,0,13.8c-2.3,0-4.6,0-7,0c0-4.5,0-9.1,0-13.6c-0.1-2.5-0.3-5.4-3.6-5c-2.9,0.7-3,3.1-3,5.7
		c0,4.3,0,8.6,0,12.9c-2.3,0-4.6,0-7,0C85,107.2,85,99.3,85,91.5z"/>
	<path fill="#898989" d="M110.7,84.5c-0.2,2.3-0.4,4.6-0.6,7c-1.4,0-2.8,0-4.1,0c0,1.8,0,3.6,0,5.4c1.2,0,2.5,0,3.7,0
		c0,3.8,0,7.7,0,11.5c0.1,3.2,0.5,5,2.9,6.2c3,1.1,4.1,1,7.1,0.8c0.8-0.1,1.6-0.2,2.3-0.4c0-1.7,0-3.4,0-5.2c-0.5,0-1,0.1-1.4,0.1
		c-2.5,0-4.1,0-4-2.8c0-3.4,0-6.8,0-10.2c1.7,0,3.4,0,5.1,0c0-1.8,0-3.6,0-5.4c-1.7,0-3.4,0-5.1,0c0-2.5,0-5,0-7.4
		C114.7,84.2,112.7,84.3,110.7,84.5z"/>
	<polygon fill="#898989" points="146.1,83.2 153,83.2 153,115 146.1,115 	"/>
	<path fill="#898989" d="M129,104.4c5.1,0,10.1,0,15.2,0c-0.1-1.7-0.1-3.8-0.6-5.5c-1.7-5.4-5.7-8.3-11.3-8c-4,0.3-7.1,1.9-9.1,5.7
		c-2.1,4.8-2.2,8-0.5,12.3c2.6,4.9,5.5,6.5,10.6,6.5c5.7-0.5,7.5-1.8,10.1-6.5c0.2-0.6,0.4-1.1,0.6-1.7c-2.1-0.2-4.2-0.3-6.3-0.5
		c-0.2,0.6-0.4,1.3-0.7,1.9c-1.6,3.1-7.1,2.1-7.8-1.2C129.1,106.4,128.9,105.6,129,104.4z"/>
	<path fill="#FEFEFE" d="M128.9,100.4c0.5-3.8,1.6-5,4.8-4.8c3,0.1,3.5,2.4,3.6,4.8C134.5,100.4,131.7,100.4,128.9,100.4z"/>
	<path fill="#898989" d="M159.1,93.3c2.2-1.8,3.8-2.2,7-2.3c5.3,0.3,7.4,1.4,9.9,5.7c2.3,5,2.4,10.8-1.6,15.4
		c-2.6,2.6-4.4,3.3-8.3,3.5c-3.3-0.1-5.2-0.3-8.1-3.5c-3-4.1-3.2-6.1-2.9-10.9C155.5,98,156.9,95.6,159.1,93.3z"/>
	<path fill="#FEFEFE" d="M166.3,95.5c2.7,0.3,3.3,1.4,3.7,4.2c0.2,2.4,0.3,4.4,0,6.8c-0.3,2.8-1.4,4.5-3.8,4.4
		c-2.8-0.2-3.4-1.6-3.8-4.8c-0.2-2.6-0.2-4.7,0.2-7.3C162.9,96.9,164.1,95.5,166.3,95.5z"/>
	
		<linearGradient id="SVGID_1_" gradientUnits="userSpaceOnUse" x1="948.8713" y1="-7285.5605" x2="2501.7971" y2="-9333.375" gradientTransform="matrix(1.227295e-002 0 0 -1.227295e-002 0.9877 3.4692)">
		<stop  offset="0" style="stop-color:#8B8B8B"/>
		<stop  offset="0.2784" style="stop-color:#C4C4C4"/>
		<stop  offset="0.5608" style="stop-color:#8B8B8B"/>
		<stop  offset="1" style="stop-color:#FEFEFE"/>
	</linearGradient>
	<path fill="url(#SVGID_1_)" d="M8.6,119.4c0.7,0.9,2.3,0.6,3.2,0.4c8.3-2.2,16.7-4.5,25-6.7c2.3-0.9,3-2,2.4-4.2
		c-1.7-6.4-3.4-12.8-5.1-19.2c-7.6-3.4-11.4-1.3-10.8,7.7c0.2,1.8,0.5,3.7,0.7,5.6C24.7,114.2,19.7,117.7,8.6,119.4z"/>
	
		<linearGradient id="SVGID_2_" gradientUnits="userSpaceOnUse" x1="422.9684" y1="-6536.6436" x2="2181.864" y2="-8375.9785" gradientTransform="matrix(1.227295e-002 0 0 -1.227295e-002 0.9877 3.4692)">
		<stop  offset="0" style="stop-color:#FEFEFE"/>
		<stop  offset="0.1216" style="stop-color:#E88F91"/>
		<stop  offset="0.4314" style="stop-color:#D12023"/>
		<stop  offset="1" style="stop-color:#D12023"/>
	</linearGradient>
	<path fill="url(#SVGID_2_)" d="M30.8,81.2c-1.3-0.5-1.6-0.6-3-0.4C19.5,83,11.2,85.2,3,87.4c-2.9,1-3.4,2.4-2.6,5.2
		c1.6,6.1,3.3,12.2,4.9,18.3c12.3,5.1,11.2-5.2,10-14.1c-0.4-3.1,0.4-6,0.9-8C19.1,83.7,25.2,81.9,30.8,81.2z"/>
	<path fill="none" d="M30.8,81.2c1.1,2.8,2.3,5.6,3.4,8.4C26.3,86.2,23,88.5,23.4,97c0.1,1,0.3,2,0.4,3c0.6,5,0.9,9-2,13.5
		c-2.8,3.9-8.4,5-13.2,5.8c-1.1-2.8-2.3-5.6-3.4-8.4c3.2,1.5,7.1,2.3,9.2-0.3c2-2.3,1.7-5.5,1.4-8.8c-0.6-4.8-1.1-8.1,0.3-13
		C19.3,83.7,25,81.9,30.8,81.2z"/>
	<path fill="#9D9E9E" d="M162.2,84c-0.8-0.5-1.1-0.8-2.1-0.9c-1.6,0-2.2,1.3-2.2,2.7c0,0.6,0.1,1,0.2,1.6c0.6,1.8,2.7,1.7,4.1,0.5
		c0,0,0,0,0.1,0c0,0.5,0,0.9,0,1.4c-1.5,0.7-2.9,0.8-4.4-0.1c-0.9-0.5-1.2-1.6-1.3-2.9c-0.1-2.2,0.6-3.7,2.9-4.2
		c0.8-0.1,1.4,0,2.2,0.3c0.2,0.1,0.4,0.2,0.6,0.3c0,0.5,0,0.9,0,1.4C162.3,84.1,162.2,84.1,162.2,84C162.2,84,162.2,84,162.2,84z"/>
	<path fill="#9D9E9E" d="M163.5,82.4c0,0.4,0,0.9,0,1.3c0,0,0.1,0,0.1,0c1-0.4,2.8-0.9,3.7-0.1c0.3,0.5,0.3,0.7,0.3,1.2
		c-1.1,0.1-2.2,0.1-3.2,0.5c-1.6,0.7-1.9,2-1.2,3.6c0.6,1.1,1.9,1.3,3.2,0.9c0.6-0.2,0.8-0.5,1.2-0.8c0,0.3,0,0.6,0,0.8
		c0.4,0,0.8,0,1.3,0c0-1.8,0-3.5,0-5.3c-0.1-1.7-0.9-2.2-2.5-2.4C165.3,82.1,164.6,82.1,163.5,82.4z"/>
	<path fill="#FEFEFE" d="M167.6,85.8c0,0.7,0,1.4,0,2.1c-1.1,0.9-3.3,1.6-3.4-0.5C164.3,85.8,166.3,86,167.6,85.8z"/>
	<path fill="#898989" d="M170.6,89.7h1.3c0-1.8,0-3.6,0-5.4c1-0.9,1.5-0.8,2.7-0.8c0-0.4,0-0.9,0-1.3c-0.3,0-0.6,0-0.9,0
		c-0.8,0.2-1.2,0.6-1.8,1.1c0-0.4,0-0.8,0-1.1h-1.3V89.7z"/>
	<path fill="#898989" d="M175.6,82.2c0,3.4,0,6.8,0,10.3c0.4,0,0.9,0,1.3,0c0-1,0-2.1,0-3.1c1.4,0.8,2.7,0.7,3.9-0.3
		c0.9-1,1-1.6,1.2-2.8c0-1.8-0.2-3.8-2.1-4.2c-1.3-0.1-1.9,0.1-2.9,0.9c0-0.3,0-0.5,0-0.8C176.4,82.2,176,82.2,175.6,82.2z"/>
	<path fill="#FEFEFE" d="M176.9,84.1c0,1.4,0,2.8,0,4.3c1.5,0.6,3.4,0.6,3.7-1.4c0.2-1.3,0.3-3.6-1.5-3.7
		C178.1,83.3,177.6,83.5,176.9,84.1z"/>
	<path fill="#9D9E9E" d="M184,86.1l0.1,0c1.7,0,3.4,0,5.1,0c0-0.2,0-0.4,0-0.7c0-2.3-1.1-3.6-3.4-3.4c-2.2,0.3-2.9,1.8-3.1,3.8
		c0,1.6,0.3,2.6,1.7,3.6c1,0.4,1.5,0.5,2.5,0.5c0.3-0.1,0.6-0.1,0.9-0.2c0.3-0.1,0.5-0.2,0.8-0.3c0.2-0.1,0.3-0.1,0.5-0.2v-1.4
		c-1.6,1.1-3.4,1.4-4.6,0C184,87.4,184,86.7,184,86.1z"/>
	<path fill="#FEFEFE" d="M184,85.2c1.3,0,2.6,0,4,0C187.7,81.9,184.2,82.8,184,85.2z"/>
	<path fill="#9D9E9E" d="M189.6,82.2h0.9V80h1.3v2.2h2.3v1.1h-2.3c0,1.4,0,2.9,0,4.3c0,1.5,1.2,1.3,2.3,0.8c0,0.4,0,0.8,0,1.2
		c-0.5,0.1-0.7,0.2-1.5,0.2c-1.7-0.2-2-1-2.1-2.6v-4h0h-0.9L189.6,82.2z"/>
	<path fill="#9D9E9E" d="M194.6,87.8c0.7,0.6,1.2,0.8,2.1,1c2.2,0.4,2.8-1.7,1.2-2.1c-1.3-0.3-3.6-0.6-3.2-2.6
		c0.6-2.3,3.3-2.5,5.1-1.5c0,0.5,0,0.9,0,1.4c-0.5-0.4-1.1-0.8-1.9-0.9c-0.6,0-1.1,0-1.5,0.3c-0.3,0.2-0.5,0.8-0.3,1.1
		c0.2,0.9,2.7,1,3.2,1.4c1.1,0.8,1,2.2,0.2,3.2c-1.3,1.2-3.2,0.9-4.8,0.2c0,0,0,0,0,0C194.6,88.8,194.6,88.3,194.6,87.8z"/>
	<path fill="#898989" d="M179.4,91.5c2.2,0,4.3,0,6.5,0c0,1.3,0,2.7,0,4c2.5-3.9,4.2-4.9,8.9-4.2c2.6,0.5,4.3,2.6,4.6,4.2
		c0.5,2.1,0.5,3.7,0.5,5.9c0,4.6,0,9.2,0,13.8c-2.3,0-4.6,0-7,0c0-4.5,0-9.1,0-13.6c-0.1-2.5-0.3-5.4-3.6-5c-2.9,0.7-3,3.1-3,5.7
		c0,4.3,0,8.6,0,12.9c-2.3,0-4.6,0-7,0C179.4,107.2,179.4,99.3,179.4,91.5z"/>
</g>
</svg>
