<?xml version="1.0" encoding="utf-8"?>
<!-- Generator: Adobe Illustrator 19.2.1, SVG Export Plug-In . SVG Version: 6.00 Build 0)  -->
<svg version="1.1" id="Layer_1" xmlns="http://www.w3.org/2000/svg" xmlns:xlink="http://www.w3.org/1999/xlink" x="0px" y="0px"
	 viewBox="0 0 200 200" style="enable-background:new 0 0 200 200;" xml:space="preserve">
<style type="text/css">
	.st0{fill:#FFFFFF;}
</style>
<g id="Слой_x0020_1">
	<polygon class="st0" points="75.1,82.7 75.1,89.6 82,89.6 82,82.7 	"/>
	<polygon class="st0" points="75.1,91.5 82,91.5 82,114.9 75.1,114.9 	"/>
	<path class="st0" d="M67.6,98.5c1.7-0.4,3.3-0.9,5-1.3c-1.3-2.8-2-4.3-4.8-5.4c-2.7-0.8-4.6-0.9-7.3-0.5c-3.1,0.5-5.8,2.3-6.8,5.4
		c-1,3.8,0.2,6.6,3.3,8c2.8,1.2,5.6,1.6,8.6,2c1.6,0.3,2.4,1,1.9,2.4c-0.8,1.4-1.7,1.6-3.2,1.7c-2.8,0.1-5-0.2-6-3.1
		c-1.9,0.3-3.9,0.6-5.8,0.9c1.4,4.2,3,5.6,6.9,6.5c3.1,0.6,5.1,0.5,7.8-0.1c3.3-1,5.3-2.6,5.9-5c0.7-2.9,0.8-5-1.1-7.2
		c-2.2-2.3-4.8-2.5-7.8-2.9c-1.6-0.3-4.1-0.3-4.6-1.7c-0.6-3.2,3.2-3,5.1-2.5C66.6,96.2,66.9,96.8,67.6,98.5z"/>
	<path class="st0" d="M85.2,91.5c2.1,0,4.3,0,6.4,0c0,1.3,0,2.6,0,4c2.4-3.9,4.2-4.8,8.8-4.2c2.6,0.5,4.3,2.6,4.6,4.1
		c0.4,2.1,0.5,3.7,0.5,5.8c0,4.6,0,9.1,0,13.7c-2.3,0-4.6,0-6.9,0c0-4.5,0-9,0-13.5c-0.1-2.5-0.3-5.4-3.5-4.9c-2.9,0.7-3,3.1-3,5.6
		c0,4.3,0,8.5,0,12.8c-2.3,0-4.6,0-6.9,0C85.2,107.1,85.2,99.3,85.2,91.5z"/>
	<path class="st0" d="M110.6,84.6c-0.2,2.3-0.4,4.6-0.6,6.9c-1.4,0-2.7,0-4.1,0c0,1.8,0,3.6,0,5.4c1.2,0,2.5,0,3.7,0
		c0,3.8,0,7.6,0,11.4c0.1,3.2,0.5,4.9,2.9,6.2c3,1.1,4.1,0.9,7,0.8c0.8-0.1,1.5-0.2,2.3-0.3c0-1.7,0-3.4,0-5.1c-0.5,0-1,0.1-1.4,0.1
		c-2.5,0-4,0-3.9-2.8c0-3.4,0-6.8,0-10.1c1.7,0,3.4,0,5,0c0-1.8,0-3.6,0-5.4c-1.7,0-3.4,0-5,0c0-2.5,0-4.9,0-7.4
		C114.6,84.3,112.6,84.5,110.6,84.6z"/>
	<polygon class="st0" points="145.7,83.3 152.6,83.3 152.6,114.9 145.7,114.9 	"/>
	<path class="st0" d="M136.7,108.7c-1.5,3.1-7,2.1-7.7-1.2c-0.2-1.2-0.3-2-0.3-3.1c5,0,10,0,15,0c-0.1-1.7-0.1-3.8-0.6-5.4
		c-1.7-5.4-5.6-8.2-11.2-7.9c-3.9,0.3-7,1.9-9,5.7c-2.1,4.8-2.1,8-0.5,12.2c2.6,4.9,5.5,6.4,10.5,6.4c5.6-0.5,7.4-1.8,10-6.4
		c0.2-0.6,0.4-1.1,0.6-1.7c-2.1-0.2-4.2-0.3-6.2-0.5C137.2,107.4,136.9,108.1,136.7,108.7z M133.5,95.6c2.9,0.1,3.5,2.4,3.6,4.8
		c-2.8,0-5.5,0-8.3,0C129.2,96.6,130.3,95.4,133.5,95.6z"/>
	<path class="st0" d="M175.3,96.6c-2.4-4.2-4.6-5.3-9.8-5.6c-3.1,0.1-4.7,0.6-6.9,2.3c-2.2,2.3-3.6,4.7-4,7.8
		c-0.3,4.7-0.1,6.7,2.9,10.8c2.9,3.2,4.7,3.3,8,3.4c3.9-0.2,5.7-0.9,8.3-3.5C177.7,107.3,177.6,101.6,175.3,96.6z M169.4,106.5
		c-0.3,2.7-1.4,4.4-3.8,4.4c-2.8-0.2-3.4-1.6-3.7-4.7c-0.2-2.5-0.2-4.7,0.2-7.2c0.2-2,1.5-3.3,3.6-3.4c2.7,0.3,3.3,1.4,3.7,4.2
		C169.6,102.1,169.6,104.1,169.4,106.5z"/>
	<path class="st0" d="M9.6,119.2c0.7,0.9,2.2,0.6,3.2,0.3c8.3-2.2,16.5-4.4,24.8-6.7c2.3-0.9,3-2,2.4-4.2c-1.7-6.3-3.4-12.7-5.1-19
		c-7.5-3.4-11.2-1.3-10.7,7.6c0.2,1.8,0.5,3.7,0.7,5.5C25.5,114,20.5,117.5,9.6,119.2z"/>
	<path class="st0" d="M31.5,81.3c-1.3-0.5-1.6-0.6-3-0.4c-8.2,2.2-16.4,4.4-24.6,6.6c-2.9,1-3.4,2.4-2.6,5.2
		c1.6,6,3.2,12.1,4.9,18.1c12.2,5.1,11.1-5.2,9.9-14c-0.4-3,0.4-6,0.9-7.9C19.9,83.9,25.9,82,31.5,81.3z"/>
	<path class="st0" d="M161.7,84.2c-0.8-0.5-1.1-0.8-2.1-0.9c-1.5,0-2.1,1.3-2.2,2.7c0,0.6,0.1,1,0.2,1.6c0.6,1.8,2.7,1.7,4.1,0.5
		c0,0,0,0,0.1,0c0,0.5,0,0.9,0,1.4c-1.5,0.7-2.9,0.8-4.4-0.1c-0.9-0.5-1.2-1.6-1.3-2.9c-0.1-2.1,0.6-3.7,2.9-4.2
		c0.8-0.1,1.3,0,2.2,0.3c0.2,0.1,0.4,0.2,0.6,0.3c0,0.5,0,0.9,0,1.4C161.7,84.2,161.7,84.2,161.7,84.2
		C161.7,84.2,161.7,84.2,161.7,84.2z"/>
	<path class="st0" d="M165.8,82.2c-1.1,0-1.8,0.1-2.9,0.3c0,0.4,0,0.9,0,1.3c0,0,0.1,0,0.1,0c1-0.4,2.8-0.9,3.7-0.1
		c0.3,0.4,0.3,0.7,0.3,1.2c-1.1,0.1-2.1,0.1-3.1,0.5c-1.6,0.7-1.9,1.9-1.2,3.5c0.6,1.1,1.9,1.3,3.1,0.9c0.6-0.2,0.8-0.5,1.2-0.8
		c0,0.3,0,0.5,0,0.8c0.4,0,0.8,0,1.2,0c0-1.7,0-3.5,0-5.2C168.2,83,167.4,82.5,165.8,82.2z M167,88c-1.1,0.9-3.3,1.6-3.4-0.5
		c0.1-1.5,2.1-1.4,3.4-1.5C167,86.6,167,87.3,167,88z"/>
	<path class="st0" d="M170,89.8h1.3c0-1.8,0-3.5,0-5.3c1-0.9,1.4-0.8,2.7-0.8c0-0.4,0-0.9,0-1.3c-0.3,0-0.6,0-0.9,0
		c-0.8,0.2-1.2,0.6-1.8,1.1c0-0.4,0-0.7,0-1.1H170V89.8z"/>
	<path class="st0" d="M179.1,82.3c-1.3-0.1-1.9,0.1-2.9,0.9c0-0.3,0-0.5,0-0.8c-0.4,0-0.8,0-1.3,0c0,3.4,0,6.8,0,10.2
		c0.4,0,0.8,0,1.3,0c0-1,0-2.1,0-3.1c1.4,0.7,2.7,0.7,3.8-0.3c0.9-1,1-1.6,1.2-2.8C181.2,84.6,181,82.6,179.1,82.3z M179.8,87.1
		c-0.3,1.9-2.2,2-3.6,1.4c0-1.4,0-2.8,0-4.2c0.7-0.6,1.2-0.8,2.1-0.8C180.1,83.5,180,85.8,179.8,87.1z"/>
	<path class="st0" d="M188.4,86.2c0-0.2,0-0.4,0-0.7c0-2.3-1.1-3.6-3.3-3.4c-2.2,0.3-2.8,1.8-3,3.7c0,1.6,0.3,2.6,1.6,3.6
		c1,0.4,1.5,0.5,2.5,0.5c0.3-0.1,0.6-0.1,0.9-0.2c0.3-0.1,0.5-0.2,0.8-0.3c0.2-0.1,0.3-0.1,0.5-0.2V88c-1.6,1.1-3.3,1.4-4.6,0
		c-0.4-0.4-0.4-1.2-0.4-1.7l0.1,0C185,86.2,186.7,86.2,188.4,86.2z M183.2,85.3c0.2-2.3,3.7-3.2,3.9,0
		C185.9,85.3,184.5,85.3,183.2,85.3z"/>
	<path class="st0" d="M188.8,82.3h0.9v-2.1h1.3v2.1h2.3v1.1H191c0,1.4,0,2.8,0,4.3c0,1.5,1.2,1.3,2.2,0.8c0,0.4,0,0.8,0,1.2
		c-0.5,0.1-0.7,0.2-1.5,0.2c-1.7-0.2-2-1-2.1-2.6v-4h0h-0.9L188.8,82.3z"/>
	<path class="st0" d="M193.8,87.9c0.7,0.6,1.2,0.8,2.1,1c2.2,0.4,2.7-1.7,1.1-2.1c-1.3-0.3-3.5-0.6-3.2-2.6c0.6-2.3,3.3-2.4,5.1-1.5
		c0,0.5,0,0.9,0,1.4c-0.5-0.4-1.1-0.8-1.9-0.9c-0.6,0-1.1,0-1.5,0.3c-0.3,0.2-0.5,0.7-0.3,1.1c0.2,0.9,2.6,1,3.1,1.4
		c1.1,0.8,1,2.2,0.2,3.1c-1.2,1.2-3.2,0.9-4.8,0.2c0,0,0,0,0,0C193.8,88.9,193.8,88.4,193.8,87.9z"/>
	<path class="st0" d="M178.7,91.5c2.1,0,4.3,0,6.4,0c0,1.3,0,2.6,0,4c2.4-3.9,4.2-4.8,8.8-4.2c2.6,0.5,4.3,2.6,4.6,4.1
		c0.4,2.1,0.5,3.7,0.5,5.8c0,4.6,0,9.1,0,13.7c-2.3,0-4.6,0-6.9,0c0-4.5,0-9,0-13.5c-0.1-2.5-0.3-5.4-3.5-4.9c-2.9,0.7-3,3.1-3,5.6
		c0,4.3,0,8.5,0,12.8c-2.3,0-4.6,0-6.9,0C178.7,107.1,178.7,99.3,178.7,91.5z"/>
</g>
</svg>
