<?xml version="1.0" encoding="utf-8"?>
<!-- Generator: Adobe Illustrator 19.2.1, SVG Export Plug-In . SVG Version: 6.00 Build 0)  -->
<svg version="1.1" id="Layer_1" xmlns="http://www.w3.org/2000/svg" xmlns:xlink="http://www.w3.org/1999/xlink" x="0px" y="0px"
	 viewBox="0 0 200 200" style="enable-background:new 0 0 200 200;" xml:space="preserve">
<style type="text/css">
	.st0{fill:#FFFFFF;}
</style>
<g id="Layer_x0020_1">
	<path class="st0" d="M85.3,90.3c0-1.9,0-3.8,0-5.7h11.9v17.5c-4.2,1.4-6.2,1.6-10.7,1.6c-2.7-0.3-4.4-0.6-7-1.4
		c-3.2-1.5-4.3-2.5-6.4-5.4c-0.7-1.7-1.2-3-1.7-4.8c-0.6-6,0.7-11.2,6-14.8c5.2-3,10.6-2.8,16.4-1.9v6.2c-0.4-0.1-0.9-0.2-1.3-0.3
		c-3.9-0.6-6.5-0.6-10,1.2c-0.9,0.8-1.3,1.2-2,2.1c-1.1,2.2-1.2,4.2-0.9,6.6c0.1,0.5,0.3,1,0.4,1.5c1.9,4.2,5.2,4.8,9.5,4.8
		c0-2.5,0-4.9,0-7.4C88,90.3,86.7,90.3,85.3,90.3z"/>
	<path class="st0" d="M102.8,81.6c0,1.9,0,3.8,0,5.6c0.1,0,0.3-0.1,0.4-0.1c0.1,0,0.3-0.1,0.4-0.1c0.5-0.1,0.9-0.2,1.4-0.3
		c0.9-0.1,1.7-0.2,2.6-0.2c2.1,0.1,3.3,0.1,5.1,1.4c1.1,1.3,1.2,1.5,1.4,3.2c0.1,2.3,0,4.5,0,6.8c-1.5,0-3,0-4.5,0
		c-1.2-0.2-1.6-0.3-2.1-1.4c-0.1-0.9,0-1.1,0.5-1.8c0.4-0.2,0.8-0.3,1.2-0.5c1.1,0,2.3,0,3.4,0c0-0.4,0-0.8,0-1.2
		c0-0.4-0.1-0.7-0.1-1.1c-0.1-0.4-0.1-0.7-0.2-1.1c-0.2-0.4-0.3-0.7-0.5-1.1c-1.2,0-2.4,0-3.6,0c-1.6,0.2-2.5,0.2-4.1,0.8
		c-2.1,1.2-3,1.9-3.8,4.2c-0.4,2.5-0.3,4.4,1.2,6.5c2.3,1.5,4.4,1.9,7,2.1c4.2,0,8.4,0,12.6,0c0-3.7,0-7.4,0-11.1
		c0-0.9,0-1.7-0.1-2.7c-0.4-2.1-0.6-3-1.8-4.8c-2.7-2.3-5.6-3-9.1-3.4C107.6,81.3,105.3,81.4,102.8,81.6z"/>
	<polygon class="st0" points="125.6,75.4 132.7,75.4 132.7,103.2 125.6,103.2 	"/>
	<path class="st0" d="M137,75.5c2.6,0,5.1,0,7.7,0c-0.2,0.9-0.4,1.7-0.8,2.6c-0.3,0.5-0.5,0.8-0.8,1.2c-0.3,0.3-0.6,0.5-0.9,0.8
		c-0.3,0.1-0.5,0.2-0.9,0.3c-0.1,0-0.3,0-0.4,0c-1-0.1-1.7-0.5-2.3-1.3c-0.5-0.7-0.8-1.1-1.1-1.9c-0.1-0.3-0.4-1.3-0.4-1.5
		C137,75.7,137,75.6,137,75.5z"/>
	<path class="st0" d="M166.4,75.4c2.6,0,5.1,0,7.7,0c-0.2,0.9-0.4,1.7-0.8,2.6c-0.1,0.2-0.2,0.4-0.4,0.6c-0.1,0.2-0.3,0.4-0.4,0.6
		c-0.2,0.2-0.3,0.3-0.5,0.5c-0.5,0.4-0.7,0.5-1.3,0.6c-0.3,0-0.5,0-0.9,0c-0.4-0.1-0.6-0.3-1-0.5c-0.3-0.3-0.5-0.5-0.8-0.8
		c-0.8-1.1-1.2-2.1-1.5-3.4c0,0,0,0,0,0C166.4,75.6,166.4,75.5,166.4,75.4z"/>
	<polygon class="st0" points="144.4,81.7 144.4,103.2 137.3,103.2 137.3,81.7 	"/>
	<polygon class="st0" points="173.8,81.6 173.8,103.1 166.7,103.1 166.7,81.6 	"/>
	<path class="st0" d="M163.4,87.2c0-1.9,0-3.7,0-5.6c-2.3-0.4-4.4-0.5-6.7-0.3c-1.1,0.3-1.8,0.5-2.8,0.9c-1.9,1.1-2.8,1.8-4,3.5
		c-0.9,1.6-1.3,2.7-1.7,4.4c-0.1,1.2-0.2,2.2-0.2,3.4c0.2,1.2,0.3,2,0.6,3.1c0.4,1.1,0.8,1.7,1.4,2.7c1.6,1.8,2.5,2.5,4.7,3.5
		c0,0,0,0,0.1,0c2.8,0.7,6.3,1.2,9.2,0.4c0-1.9,0-3.8,0-5.6c-0.3,0.2-0.4,0.3-0.7,0.4c-1.2,0.4-2.4,0.4-3.7,0.3
		c-1.5-0.4-2.2-0.7-3.3-1.7c-0.8-1.4-0.8-2-0.9-3.5c0-1.2,0.1-3.3,0.8-4.3c0.6-0.7,1-1,1.7-1.6C159.8,86.3,161.3,86.3,163.4,87.2z"
		/>
	<path class="st0" d="M189.1,89.6c0.5,1.3,0.6,3.1,0.6,4.5c-0.7,0-1.5,0-2.2,0c-1.5,0-2.9,0.3-3,2c0.2,1.4,0.7,1.5,1.9,1.9
		c1.6,0,3.2,0,4.7,0c0-2.1,0-4.3,0-6.4c-0.1-1-0.1-1.3-0.4-2.3c-0.7-1.1-1-1.4-2.1-2.1c-1.1-0.4-1.8-0.5-2.9-0.7
		c-2.2,0.1-3.6,0.3-5.8,0.7c0-1.8,0-3.7,0-5.5c1.7-0.2,3.3-0.3,5-0.4c1.3,0,2.5,0,3.9,0c1.4,0.2,2.3,0.4,3.6,0.8
		c2,0.8,2.7,1.3,4.2,2.8c1.5,2.1,1.6,3.6,1.7,6c0,4.1,0,8.2,0,12.4c-3.7,0-7.4,0-11.1,0c-0.9,0-1.8-0.1-2.6-0.1
		c-2.5-0.4-5.1-0.8-6.6-3.1c-0.5-1.1-0.5-1.3-0.7-2.6c0-2.3,0-3.4,1.4-5.2C181.8,89.2,185.1,89.6,189.1,89.6z"/>
	<path class="st0" d="M85.9,126.6l16.1,0c0-4.2,0-8.4,0-12.5c-1.9,0-2.9,0-4.7,0.7c-0.9,0.5-0.9,0.5-1.6,1.3
		c-0.6,0.7-0.6,0.9-0.9,1.8c-0.2,0.8-0.3,1.5-0.4,2.3c-0.1,2.1,0.2,3.5,0.5,5.5c-2.2,0-4.3,0-6.5,0c-0.4-1.8-0.7-3.2-0.8-5.1
		c0.1-1.4,0.2-2.5,0.3-3.9c0.4-1.2,0.7-2.1,1.3-3.2c0.8-1,1.2-1.5,2.3-2.3c0,0,0.1-0.1,0.1-0.1c1.1-0.7,1.8-1,3-1.4
		c1.4-0.3,2.4-0.4,3.8-0.5c3.4,0,6.7,0,10.1,0v17.6h2.4v4.9h-25L85.9,126.6z"/>
	<path class="st0" d="M152.5,126.9c0,1.5,0,3,0,4.6c-2.3,0.4-4.6,0.5-6.9,0.6c-0.6-0.1-1.3-0.2-1.9-0.2c-0.4-0.1-0.8-0.2-1.2-0.3
		c-0.5-0.2-1-0.3-1.5-0.5c-1-0.5-1.6-0.9-2.5-1.5c-0.9-0.9-1.2-1.3-1.9-2.5c-0.5-1.2-0.6-1.6-0.9-2.8c0-1.3,0-2.3,0.1-3.6
		c0.2-0.8,0.5-1.5,0.8-2.3c0.4-0.7,0.7-1.1,1.2-1.7c0.6-0.5,1-0.9,1.7-1.4c1.6-0.8,2.6-1.1,4.3-1.4c1.7-0.1,3-0.1,4.6,0.3
		c1.6,0.4,2.3,0.7,3.5,1.8c1.1,1.3,1.3,1.6,1.9,3.1c0.6,1.9,0.6,3.4,0.6,5.4c-3.7,0-7.3,0-11,0c-0.1-0.2-0.2-0.3-0.3-0.5
		c-0.1-0.2-0.1-0.4-0.2-0.6c0-0.2-0.1-0.4-0.1-0.7c0-0.6,0.1-1.2,0.1-1.7c1.9,0,3.9,0,5.8,0c0-0.7-0.1-0.8-0.3-1.5
		c-0.3-0.4-0.4-0.5-0.8-0.9c-0.8-0.3-0.9-0.3-1.7-0.4c-0.7,0-1.1,0-1.7,0.1c-1.1,0.4-1.2,0.6-1.9,1.5c-0.3,0.8-0.4,1.2-0.6,2.1
		c-0.1,2.8,0.4,4,2.9,5.3c1.3,0.4,2.3,0.4,3.7,0.5c1.2-0.1,1.9-0.1,3-0.4C151.7,127.1,152.1,127,152.5,126.9z"/>
	<path class="st0" d="M152.5,126.9v4.6h0c-1.2,0.2-2.3,0.4-3.4,0.4c-1.1,0.1-2.3,0.1-3.5,0.2c-1.2,0-3.5-0.6-4.6-1.1
		c-0.5-0.3-0.9-0.5-1.3-0.7c-0.4-0.2-0.7-0.5-1.2-0.8l0,0c-0.5-0.5-0.8-0.8-1.1-1.2c-0.3-0.4-0.5-0.7-0.9-1.3l0,0
		c-0.2-0.6-0.4-1-0.5-1.4c-0.1-0.4-0.2-0.8-0.3-1.5l0,0c0-0.7,0-1.2,0-1.8c0-0.6,0-1.1,0.1-1.8v0c0.1-0.4,0.2-0.8,0.4-1.1
		c0.1-0.4,0.3-0.8,0.4-1.1l0,0c0.2-0.3,0.4-0.6,0.6-0.9c0.2-0.3,0.4-0.5,0.6-0.8v0c0.3-0.3,0.6-0.5,0.8-0.7c0.3-0.2,0.5-0.4,0.9-0.7
		l0,0c0.8-0.4,1.4-0.7,2.1-0.9c0.7-0.2,1.4-0.4,2.2-0.6h0c0.8,0,1.6-0.1,2.3,0c0.7,0,1.5,0.1,2.3,0.3l0,0c0.8,0.2,1.4,0.4,1.9,0.7
		c0.5,0.3,1,0.6,1.6,1.2v0c0.6,0.6,0.9,1,1.1,1.5c0.3,0.4,0.5,0.9,0.8,1.6v0c0.3,1,0.5,1.8,0.5,2.7c0.1,0.9,0.1,1.7,0,2.7v0h-11
		c-0.9-1.2-0.6-2-0.5-3.5h5.8c0-0.6-0.1-0.8-0.2-1.2c0-0.1-0.1-0.2-0.1-0.3c-0.1-0.2-0.3-0.3-0.4-0.5c-0.1-0.1-0.2-0.2-0.4-0.4
		c-0.4-0.2-0.6-0.2-0.8-0.3c-0.2-0.1-0.5-0.1-0.9-0.1c-0.3,0-0.6,0-0.9,0s-0.5,0.1-0.9,0.1c-1.1,0.4-1.2,0.6-1.8,1.4l0,0.1
		c-0.2,0.4-0.3,0.7-0.4,1c-0.1,0.3-0.2,0.6-0.2,1.1c0,1.4,0.1,2.4,0.5,3.2c0.4,0.8,1.2,1.4,2.4,2.1c1.3,0.4,2.3,0.4,3.7,0.5h0
		c0.6,0,1.1-0.1,1.5-0.1c0.5-0.1,0.9-0.1,1.5-0.2L152.5,126.9L152.5,126.9z M152.5,131.4v-4.6c-0.3,0.1-0.8,0.3-1.1,0.4
		c-0.6,0.1-1,0.2-1.5,0.2c-0.5,0.1-0.9,0.1-1.5,0.1c0,0,0,0,0,0c-1.4,0-2.3-0.1-3.7-0.5h0c-1.3-0.7-2-1.3-2.4-2.1
		c-0.4-0.8-0.5-1.8-0.5-3.2v0c0.1-0.4,0.2-0.8,0.2-1.1c0.1-0.3,0.2-0.6,0.4-1c0,0,0,0,0-0.1c0.6-0.8,0.8-1,1.9-1.4h0
		c0.3-0.1,0.6-0.1,0.9-0.1c0.3,0,0.5,0,0.9,0h0c0.4,0,0.6,0.1,0.9,0.1c0.2,0.1,0.5,0.1,0.8,0.3l0,0h0c0.2,0.2,0.3,0.3,0.4,0.4
		c0.1,0.1,0.2,0.3,0.4,0.5v0c0,0.1,0.1,0.2,0.1,0.3c0.2,0.4,0.2,0.6,0.2,1.2v0H143l-0.1,1.7l0.1,0.7l0.2,0.6l0.3,0.5h11
		c0-1,0-1.8,0-2.7c-0.1-0.9-0.2-1.7-0.5-2.7c-0.3-0.7-0.5-1.2-0.8-1.6c-0.3-0.4-0.6-0.8-1.1-1.5c-0.6-0.5-1.1-0.9-1.6-1.2
		c-0.5-0.3-1.1-0.5-1.9-0.7c-0.8-0.2-1.6-0.3-2.3-0.3c-0.7,0-1.5,0-2.3,0c-0.8,0.2-1.5,0.4-2.2,0.6c-0.7,0.2-1.3,0.5-2.1,0.9
		c-0.3,0.2-0.6,0.4-0.9,0.7c-0.3,0.2-0.5,0.5-0.8,0.7c-0.3,0.3-0.5,0.5-0.6,0.8c-0.2,0.3-0.4,0.5-0.6,0.9c-0.1,0.4-0.3,0.8-0.4,1.1
		c-0.1,0.4-0.2,0.8-0.4,1.1c-0.1,0.7-0.1,1.2-0.1,1.8c0,0.6,0,1.1,0,1.8c0.1,0.6,0.2,1,0.3,1.4c0.1,0.4,0.3,0.8,0.5,1.4
		c0.4,0.6,0.6,0.9,0.9,1.3c0.3,0.4,0.6,0.7,1.1,1.2c0.5,0.3,0.8,0.6,1.2,0.8c0.4,0.2,0.8,0.4,1.3,0.7l1.5,0.5l1.2,0.3l1.9,0.2
		c1.2,0,2.3-0.1,3.5-0.2C150.2,131.8,151.3,131.6,152.5,131.4z"/>
	<path class="st0" d="M131.6,124.7c-0.9-1.3-1.5-1.9-3.1-2.2c0.3-0.1,0.7-0.2,1-0.3c0.8-0.4,1-0.5,1.6-1.2c0.5-0.9,0.5-1.1,0.8-2.1
		c0-0.9-0.1-1.1-0.3-2c-0.4-0.9-0.5-1-1.1-1.8c-1.1-0.7-1.7-0.9-3-1.2h-12.8v17.6c4,0,8,0,12,0c0.4,0,0.8-0.1,1.2-0.1
		c1.2-0.3,1.7-0.4,2.7-1.1c0.8-0.7,0.9-0.9,1.4-1.8c0.2-0.8,0.2-1.1,0.2-1.9C132,125.8,132,125.6,131.6,124.7z M126.1,126.4
		c-0.4,0.8-0.2,0.7-1,1.1c-0.2,0-0.4,0-0.6,0c-1.3,0-2.6,0-3.9,0v-9.4h3.7c1.3,0.4,1.4,0.4,1.5,1.8c-0.5,1-0.8,0.9-1.8,1
		c-0.7,0-1.5,0-2.2,0v3.3h2.7c0.7,0.3,0.9,0.3,1.4,0.8C126.1,125.7,126.2,125.7,126.1,126.4z"/>
	<path class="st0" d="M158.5,114v18.7h5.8v-14.3c0.4,0,0.8,0,1.2,0c0.8,0.1,1.4,0.2,2.2,0.3c0.9,0.4,1.1,0.6,1.7,1.4
		c0.5,1.1,0.6,1.7,0.6,2.8c-0.2,1.1-0.3,1.4-1,2.3c-1.3,1-2.1,0.8-3.5,0.7c0,1.5,0,2.9,0,4.4c0.8,0.1,1.6,0.2,2.4,0.2
		c1,0,1.7-0.1,2.7-0.3c0.9-0.4,1.5-0.7,2.4-1.2c0.6-0.6,1-1,1.6-1.6c0.1-0.1,0.1-0.2,0.2-0.3c0.1-0.1,0.1-0.2,0.2-0.3
		c0.2-0.4,0.4-0.8,0.6-1.2c0.3-1.2,0.4-1.9,0.5-3.1c-0.1-1.1-0.1-2-0.3-3c-0.1-0.3-0.2-0.7-0.3-1c-0.4-0.7-0.7-1.2-1.2-1.8
		c-0.1-0.1-0.1-0.1-0.2-0.2c-0.1-0.1-0.1-0.1-0.2-0.2c-0.7-0.6-1.5-1-2.2-1.5c-1-0.3-1.8-0.5-2.8-0.7c-0.5,0-1-0.1-1.6-0.1H158.5z"
		/>
	<polygon class="st0" points="179.3,114 179.3,132.6 185.1,132.6 185.1,114 	"/>
</g>
<path class="st0" d="M29.5,135.7c1.9-1.5,3.8-2.8,5.8-4.1c2-1.3,4.1-2.5,6.2-3.7l0.1-0.1l0,0c3.7-2,6.2-3.5,8.2-5.2
	c2-1.6,3.4-3.4,4.9-6.1c0.6-1.2,1.2-2.8,1.6-4.3c0.3-1.2,0.5-2.3,0.5-3.4V64.2H1.9v44.3h0c0.1,2.7,0.8,5.1,1.7,7.1
	c1.5,3.2,3.5,5.4,4.4,6.1l0,0l0,0c0.8,0.8,2.2,1.9,3.8,3c2.2,1.4,4.7,2.9,6.2,3.6l0,0c2.1,1.2,4,2.3,5.9,3.6
	C25.8,133.1,27.6,134.4,29.5,135.7z M35.4,131.8c-2,1.3-4,2.7-5.9,4.2l-0.1,0.1l-0.1-0.1c-1.9-1.4-3.7-2.7-5.6-3.9
	c-1.9-1.2-3.8-2.4-5.9-3.6c-1.5-0.8-4-2.2-6.2-3.6c-1.6-1.1-3.1-2.2-3.8-3c-0.9-0.8-2.9-2.9-4.4-6.2c-0.9-2-1.6-4.4-1.7-7.2v0V63.9
	h55.5v44.9c0,1.1-0.2,2.3-0.6,3.5c-0.4,1.5-1,3.1-1.6,4.3l0,0c-1.5,2.7-3,4.5-5,6.2c-2,1.7-4.5,3.2-8.2,5.2l-0.1,0.1l0,0
	C39.5,129.3,37.5,130.5,35.4,131.8z"/>
<path class="st0" d="M40.8,115l0.3,0.3l0.1,0.4l0,0.5l-0.3,0.5l-0.5,0.4l-0.5,0.5l-0.5,0.7l-0.3,0.5l-0.4,0.7l-0.2-0.1l0.4-0.7l0,0
	l0.4-0.5l0.5-0.7c0.2-0.2,0.3-0.4,0.5-0.5l0.4-0.4l0.3-0.4l0-0.4l-0.1-0.3l-0.2-0.3L40.8,115z"/>
<path class="st0" d="M35.5,123.8c-0.1,0.1-0.1,0.3-0.1,0.4c0,0.1,0,0.2,0,0.4c0.1,0.3,0.3,0.5,0.5,0.7c0,0,0.1,0.1,0.2,0.1
	c0.3,0.2,0.5,0.4,0.6,0.7c0.2,0.3,0.3,0.5,0.3,0.9l0.1,0.3l0,0c0.1,0.5,0.1,1,0,1.3c-0.1,0.4-0.4,0.7-1,0.9l0,0l-0.1,0l0,0
	c0,0-0.1,0-0.1,0c-0.1,0-0.3,0.1-0.4,0.1v0l-1.1,0l0.4-0.3c0.3-0.2,0.5-0.4,0.7-0.6c0.1-0.2,0.2-0.5,0-0.8l0,0
	c-0.1-0.2-0.2-0.5-0.1-0.8l0.2,0.1c-0.1,0.2,0,0.4,0.1,0.6l0,0c0.2,0.4,0.1,0.8-0.1,1c-0.1,0.2-0.2,0.3-0.4,0.4l0.2,0h0
	c0.1,0,0.2,0,0.3-0.1c0,0,0.1,0,0.1,0l0,0c0.5-0.2,0.7-0.5,0.8-0.8c0.1-0.3,0.1-0.7,0-1.2l-0.1-0.3l0,0c0-0.3-0.1-0.6-0.2-0.8
	c-0.1-0.2-0.4-0.4-0.6-0.6l0,0c-0.1-0.1-0.1-0.1-0.2-0.1c-0.3-0.2-0.4-0.4-0.6-0.8l0,0l0,0c0-0.2,0-0.3,0-0.5c0-0.1,0.1-0.3,0.2-0.4
	L35.5,123.8z"/>
<path class="st0" d="M35.7,128.1c-0.3,0.1-0.6,0.1-0.9,0c-0.3-0.2-0.6-0.4-0.8-0.7l0,0l0,0c0-0.1,0-0.1-0.1-0.2
	c-0.2-0.4-0.4-0.9-0.4-1.3l-0.2-0.3l0,0c-0.1,0-0.1-0.1-0.2-0.1l-0.4-0.1l0-0.3l0.4,0.1l0,0c0.1,0,0.2,0.1,0.3,0.1c0,0,0,0,0.1,0
	l0,0l0.2,0.4v0c0,0.3,0.2,0.8,0.4,1.2c0,0.1,0.1,0.1,0.1,0.2c0.2,0.2,0.4,0.5,0.7,0.6c0.2,0.1,0.4,0.1,0.6,0L35.7,128.1z"/>
<path class="st0" d="M34,126.9c-0.5,0.4-0.9,0.7-1.2,1c-0.3,0.4-0.6,0.8-0.9,1.4l0,0c-0.3,0.5-0.5,0.8-0.8,1
	c-0.3,0.2-0.6,0.2-1.1,0.2c0,0.2,0,0.4,0.1,0.6c0.1,0.2,0.3,0.4,0.6,0.6l0.4,0.2l-0.4,0.1c-0.2,0-0.4,0.1-0.6,0
	c-0.2,0-0.4-0.1-0.6-0.2l0,0l0,0c-0.3-0.2-0.4-0.4-0.5-0.6c-0.1-0.2-0.2-0.4-0.2-0.7l0,0c0-0.1,0-0.2,0-0.2c0-0.1,0-0.1,0-0.2l0-0.3
	v0c0-0.1,0-0.2,0.1-0.3c0-0.1,0.1-0.1,0.1-0.2l0,0l0,0c0.1-0.1,0.2-0.2,0.3-0.2c0.1,0,0.2-0.1,0.4,0l0,0l0.2,0.1l0,0
	c0.5,0.5,0.4,0.9,0.2,1.1c0.4,0,0.6,0,0.8-0.2c0.2-0.1,0.4-0.4,0.7-0.9l0,0c0.4-0.6,0.6-1.1,1-1.4c0.3-0.4,0.7-0.7,1.3-1.1L34,126.9
	z M29.7,130.3l0-0.1h0c0,0,0-0.1,0-0.1c0.1-0.2,0.2-0.4-0.1-0.8l-0.2-0.1c-0.1,0-0.2,0-0.3,0c-0.1,0-0.2,0.1-0.2,0.1
	c0,0.1-0.1,0.1-0.1,0.1c0,0,0,0.1,0,0.2l0,0l0,0.3c0,0.1,0,0.2,0,0.2c0,0.1,0,0.1,0,0.2l0,0c0.1,0.3,0.1,0.5,0.2,0.6
	c0.1,0.2,0.2,0.3,0.4,0.5c0.2,0.1,0.4,0.1,0.5,0.1c0.1,0,0.1,0,0.2,0c-0.2-0.2-0.3-0.3-0.4-0.5C29.7,130.9,29.7,130.6,29.7,130.3z"
	/>
<path class="st0" d="M30.6,126.7C30.6,126.8,30.6,126.8,30.6,126.7c-0.1,0.1-0.1,0.1-0.1,0.1l0,0c-0.2,0.3-0.5,0.6-0.7,0.9l-0.5,0.4
	l0,0l-0.4,0.3l-0.1,0.2l0,0l0,0.3l0.2,0.3l-0.2,0.1l-0.2-0.3l0-0.1l0-0.4l0-0.1l0.1-0.3l0.4-0.4l0,0l0.5-0.4l0.3-0.3l0.4-0.5
	c0,0,0,0,0,0c0,0,0,0,0-0.1L30.6,126.7z"/>
<path class="st0" d="M25.9,127.7l0.3-0.1l0-0.4l0.1-0.3l0,0l0-0.2l-0.2-0.1l-0.3-0.1l-0.2,0l-0.3,0.3l-0.2,0.3l-0.2,0.3l-0.1,0.3
	l0.2,0.7l-0.1,0l0.1,0.2l0.2,0.4l0.1,0.2l0-0.2c0-0.1,0-0.2-0.1-0.3l0.1-0.3l0.1-0.3l0.2-0.2L25.9,127.7L25.9,127.7z M26.4,127.8
	l-0.2,0.1l0.1,0.1l0,0l0.3,0.3l0.5,0.1l0.4-0.1l0,0l0,0l0.3-0.2l0.3-0.2l0.1,0l0,0c0,0,0,0,0.1-0.1c0.1-0.1,0.1-0.1,0.2-0.1l0.5-0.1
	l0,0c0,0,0,0,0,0l0,0c0.2,0,0.4-0.1,0.5-0.1l0.4,0l0,0l0,0c0,0,0,0,0,0c0,0,0,0,0,0l0.2,0.1c0,0,0,0,0,0.1c0,0,0,0,0,0.1
	c0,0.1-0.1,0.1-0.1,0.1l0,0c0,0,0,0,0,0l0,0l-0.5,0l-0.5,0.1l0,0c0,0,0,0,0,0l0,0l-0.6,0.1h0c0,0,0,0,0,0c0,0-0.1,0.1-0.2,0.1
	l-0.1,0l-0.3,0.2l-0.3,0.3l-0.1,0l-0.4,0.1l-0.6-0.2l-0.4-0.3l0,0l-0.2-0.2l-0.1,0.1l-0.1,0.2l-0.1,0.2l0,0.2l0,0.3l0.1,0.3l0.4,0.7
	l-0.8-0.5l-0.2-0.3c-0.1-0.1-0.2-0.3-0.2-0.4l-0.1-0.4l0.1-0.1l-0.1-0.5l0.1-0.4c0.1-0.1,0.2-0.3,0.2-0.4l0.3-0.3l0.4-0.3l0.4-0.1
	l0.4,0.1l0.3,0.2l0,0.4l0,0.1l-0.1,0.2L26.4,127.8L26.4,127.8z"/>
<polygon class="st0" points="26.4,127.5 26.4,127.5 26.3,127.7 26.4,127.6 26.5,127.6 26.3,127.8 25.4,127.1 "/>
<path class="st0" d="M25.1,126.5L25.1,126.5l0.3-0.3l0.1-0.3l0.2-0.2l0.4-0.2l0.4,0l1.8,0h0h0.1l0,0l0.3,0l0,0h0l0.7-0.2l0,0h0
	l0.4-0.1h0l0.4-0.2h0l0.3-0.2l0.2-0.1l0.2-0.2l0,0l0.2-0.1l0.3-0.3l0,0l0.2-0.2l0.7-0.9l0.2-0.3l0.2-0.4l0.4-0.7l1-1.9l0.2-0.5
	l0.1-0.4c0.1-0.2,0.2-0.3,0.2-0.5l0.2-0.4l0,0l0.5-0.6c0.3-0.3,0.6-0.5,1-0.8l0,0l0.2-0.2l0.3-0.1l0.2-0.1l0.3-0.2l0.4-0.2l0.2-0.2
	l0,0l0.2-0.3l0.2,0.1l-0.2,0.4l0,0l-0.2,0.2l-0.4,0.2c-0.1,0.1-0.2,0.1-0.3,0.2l-0.3,0.1l-0.2,0.1l-0.2,0.1l-0.5,0.4l-0.4,0.4
	l-0.4,0.6l0,0l-0.2,0.3l-0.2,0.5l-0.1,0.4l-0.2,0.5c-0.3,0.6-0.6,1.3-1,1.9l-0.4,0.7l-0.2,0.4l-0.2,0.4l-0.7,0.9l-0.2,0.3v0
	l-0.3,0.3l-0.2,0.1l-0.2,0.2c-0.1,0.1-0.2,0.1-0.2,0.2l-0.4,0.3h0l-0.4,0.2h0l-0.3,0.1l0,0l0,0l-0.8,0.2h0l0,0l-0.3,0l0,0h-0.1v0
	l-1.8,0l-0.4,0l-0.3,0.2l-0.1,0.2l-0.1,0.3l-0.3,0.3v0l0,0l0,0l0,0L25.1,126.5z"/>
<path class="st0" d="M36.7,116.5h-1h0l-0.4,0c-0.4,0-0.8-0.1-1.2-0.1l-0.3-0.1l-0.1,0l-0.1,0.3l0,0l-0.1,0.3l-0.2,0.4l-0.2,0.2
	l-0.3,0.3l0,0l-0.3,0.2l-0.3,0.2l0,0l-0.4,0.2l0,0l0,0c0,0,0,0,0,0h0c0,0,0,0,0,0l-0.4,0.2l0.1-0.3l0.3-0.3l0.2-0.2l0.1-0.2l0-0.1
	l0-0.2l0-0.2l-0.1-0.3l-0.1-0.2l-0.1,0.2l0,0l-0.1,0.2l-0.4,0.3l-1.2,0.2c-0.2,0-0.4,0-0.6,0l-0.5-0.1l0,0l-0.6-0.1l-0.3-0.3
	l-0.2-0.3l-0.1-0.3l0-0.3l0,0l0-0.4v0l0.1-0.6l0.5,0.3h0l0.2,0.1l0.2,0.1l0.2,0.1l0.2,0h0l0.2,0l0,0l0.3,0l0.2-0.1l0.1-0.1l0,0
	l0.1-0.1l0.1-0.2l0.1-0.2l0-0.1h0l0.1-0.3v-0.3l-0.1-0.5l0,0l-0.1-0.6l-0.1-0.8v0l-0.1-0.6v0l-0.1-1.1l0-0.8l0,0l0.1-0.4l0,0
	l0.3-0.6l0.5-0.7l0,0l0.5-0.6l0,0l0.5-0.6l0.3-0.3l0,0l0.2-0.2l-0.8-0.2l-0.6-0.2l-0.6-0.1l0,0l-0.5-0.1l-0.5,0l0,0h0l-0.5-0.1
	l-0.3,0l-0.3,0l-0.6,0.1l-0.3,0.1l0,0.1l0.2,0.4l0,0l0.2,0.4l0.1,0.3l0,0l0.3,0.9l0.1,1.1l0,0.1l-0.2,0.9l0,0c0,0,0,0,0,0
	c0,0,0,0.1-0.1,0.1l-0.3,0.6l-0.1,0.1l-0.5,0.7l0,0l0,0l0,0.3l0.1,2.1c-0.7-0.5-1-0.8-1.6-1.4l-0.1-0.2l-0.2,0.3l-0.1,0.4
	c0,0,0,0,0,0c0,0,0,0.1,0.1,0.1l0.7,0.3h0.4l-0.8,0.7l-1.9-0.4l-0.3-1.1l0-0.1l-0.1,0.3l-0.3,0.3l-0.5,0.2l-0.6,0.1h-0.1l-0.6,0
	l0.3-0.6l0.2-0.4l0.1-0.5l0.3,0.1l-0.1,0.5c-0.1,0.2-0.1,0.3-0.2,0.5l-0.1,0.1l0,0l0,0h0.1l0.6-0.1l0.5-0.2l0.2-0.2l0.4-0.9l0.3,0.8
	l0,0l0.2,0.9l1.6,0.4l0.3-0.2l-0.7-0.3l0-0.1c0,0,0,0,0,0c0,0,0,0,0,0l-0.1,0l0.2-0.7l0.4-0.6l0.3,0.4l0.7,0.7l0.4,0.3l-0.1-1.5
	l0.1-0.3l0.1-0.1l0,0c0.2-0.3,0.4-0.5,0.6-0.8l0.4-0.7l0.1,0c0,0,0,0,0,0l0,0l0.2-0.9l0-0.1l-0.1-1l-0.3-0.9l0,0l-0.1-0.3l-0.2-0.4
	v0l-0.2-0.4l-0.2-0.3l0.2-0.1l0.4-0.1c0.3,0,0.6-0.1,0.9-0.1h0l0.3,0l0.5,0.1h0h0l0.5,0l0.6,0.1l0,0l0.6,0.1l0.6,0.2l1.3,0.3
	l-0.6,0.5l-0.3,0.3l-0.5,0.6l0,0l-0.5,0.6l-0.5,0.7l-0.3,0.6l0,0l-0.1,0.3v0l0,0.7l0.1,1.1l0,0l0.1,0.6l0.1,0.8l0.1,0.6l0.1,0.5v0.3
	l-0.1,0.3l0,0l0,0.1l-0.2,0.3l-0.1,0.3l-0.2,0.1l-0.2,0.2l-0.1,0l-0.2,0.1l-0.3,0l0,0l-0.2,0h0l-0.3-0.1l-0.3-0.1l-0.2-0.1l-0.2-0.2
	h0l-0.1,0l0,0.1l0,0l0,0.3l0,0l0,0.3l0.1,0.2l0.1,0.3l0.2,0.2l0.5,0.1h0l0.4,0.1l0.5,0l1.1-0.2l0.3-0.3l0.2-0.2l0,0l0.4-0.6l0.2,0.3
	l0,0l0.1,0.3l0.1,0.3l0,0.2l0,0.3l-0.1,0.2l-0.1,0.2l-0.1,0.1l0.2-0.1l0.4-0.2l0,0l0.2-0.2l0.1-0.2l0.2-0.3l0.1-0.2l0.1-0.6
	c0.2,0.1,0.5,0.1,0.7,0.2l0.4,0.1l0.8,0.1l0.4,0v0h1V116.5z"/>
<path class="st0" d="M21.1,114l-0.8,0h-1l-1.2,0.1l-0.9,0.1l-0.7,0.1l-0.6,0.2l-0.1-0.3l0.6-0.2c0.3,0,0.5-0.1,0.8-0.1
	c0.7-0.1,1.4-0.1,2.1-0.2l0,0h1l0.8,0L21.1,114z"/>
<polygon class="st0" points="20.8,112.4 20.7,112.9 20.6,113.3 20.4,113.7 20.2,114 20,113.8 20.1,113.6 20.3,113.2 20.4,112.9 
	20.5,112.4 "/>
<polygon class="st0" points="19.8,112.4 19.8,112.4 19.7,113 19.6,113.4 19.4,113.8 19.3,113.9 19,113.8 19.1,113.7 19.3,113.3 
	19.5,112.9 19.6,112.4 19.6,112.4 "/>
<path class="st0" d="M19.1,112.5l-0.1,0.3c0,0.1-0.1,0.2-0.1,0.3l-0.1,0.3c0,0.1-0.1,0.2-0.1,0.2l-0.1,0.2c-0.1,0.1-0.2,0.2-0.2,0.3
	l-0.2-0.2l0.1-0.1c0.1-0.1,0.2-0.2,0.3-0.4l0.1-0.2l0.1-0.2l0.1-0.3l0.1-0.3L19.1,112.5z"/>
<polygon class="st0" points="18,112.6 17.9,112.8 17.8,113.2 17.8,113.2 17.6,113.4 17.6,113.5 17.4,113.6 17.4,113.7 17.3,113.8 
	17.3,113.8 17.1,114 16.9,114.2 16.8,114.1 16.7,114.1 16.7,114 16.9,113.8 17.1,113.7 17.1,113.7 17.2,113.5 17.4,113.3 17.5,113 
	17.7,112.8 17.7,112.6 "/>
<path class="st0" d="M16.5,113.3l-0.3,0.2l-0.2,0.2l-0.1,0.1l0,0.2l0,0l0.1,0.4l0,0.5h0v0h0l0,0.6l-0.1,0.5
	c-0.1,0.3-0.2,0.5-0.3,0.8l-0.3,0.4l-0.4,0.4l-0.3,0.2l-0.3,0.2l-0.3,0.1l-0.3,0l-0.4-0.1l-0.4-0.2c-0.3-0.3-0.5-0.5-0.8-0.8
	l0.7,0.2h0l0.4,0l0.3-0.1l0.3-0.2l0.2-0.2l0.1-0.2l0-0.2l0-0.1l0.1-0.2l0.1,0l0.2-0.1l0.3-0.1h0c0.1,0,0.1,0,0.2,0l0.1,0l0.3,0.1
	l0,0l0.3,0.2l0,0l0-0.1l0.1-0.5l0-0.5v0v0v0l0-0.5l-0.1-0.4l0-0.1l0-0.3l0.2-0.2l0.3-0.2l0.4-0.2L16.5,113.3z M15.2,116.7l0.2-0.4
	l-0.1-0.1l-0.2-0.1l-0.2-0.1l0,0l-0.2,0h0l-0.2,0l-0.2,0.1l0,0l-0.1,0.1l0,0l0,0.3l-0.2,0.3l-0.2,0.3l-0.3,0.2l-0.4,0.1l-0.3,0
	l0.2,0.2l0.3,0.2l0.3,0.1l0.3,0l0.3-0.1l0.3-0.1l0.3-0.2l0.4-0.3L15.2,116.7z"/>
<path class="st0" d="M14,116.6l-0.3-0.1l-0.2-0.1l-0.2-0.2l0-0.1l-0.1-0.2l0,0l-0.1-0.2v-0.5L13,115c0.1-0.1,0.1-0.3,0.2-0.4
	l0.2-0.5l0.1-0.4l0.1-0.3l0-0.3l-0.1-0.5l0.3,0l0.1,0.5l0,0.4l-0.1,0.3l-0.1,0.4l-0.2,0.5l-0.2,0.4l0,0.3v0.4l0.1,0.2l0.1,0.2l0,0
	c0.1,0,0.1,0.1,0.2,0.1l0.2,0.1l0.2,0.1L14,116.6z"/>
<path class="st0" d="M13.3,114.5L13.3,114.5L13.3,114.5L13.3,114.5l-0.5,0l-0.9,0.1l-0.6,0.1l-0.7,0.1l0,0c0,0,0,0,0,0
	c0,0,0,0-0.1,0c-0.3,0.1-0.6,0.2-0.9,0.2l-0.4,0.2l-0.3,0h0H8.8l-0.2-0.1H8.5c-0.1-0.1-0.2-0.1-0.3-0.2l-0.2-0.3l0,0l0,0l-0.1,0.2
	l-0.1,0.2l0,0.4l0.1,0.3l0.3,0.7c-0.2-0.2-0.4-0.3-0.6-0.5l-0.3-0.3c-0.1-0.1-0.2-0.3-0.3-0.4l-0.1-0.3l-0.1-0.4l0.1-0.4l0.1-0.2
	l0.2-0.3l0.3-0.3l0.4-0.3l0.3-0.1l0,0l0.2-0.1l0.3,0l0.2,0.1l0.2,0.2l0.1,0.3v0.3l-0.1,0.4l-0.2,0.2l-0.2,0.1l0.2,0.2l0,0l0.1,0.1h0
	l0.2,0.1h0.1v0l0.2,0l0.4-0.1l0.5-0.1l0.5-0.1h0c0,0,0,0,0,0l0,0l0.7-0.1l0.7-0.1l0,0l0.9-0.1l0.5,0l0,0c0,0,0,0,0,0c0,0,0,0,0.1,0
	c0,0,0,0,0.1,0h0l0,0L13.3,114.5L13.3,114.5C13.4,114.4,13.4,114.4,13.3,114.5C13.4,114.4,13.4,114.4,13.3,114.5L13.3,114.5z
	 M13.4,114.4L13.4,114.4C13.4,114.4,13.4,114.4,13.4,114.4L13.4,114.4z M7.9,114.4L7.9,114.4l0.1-0.1l0.3-0.1l0.1-0.1l0.1-0.3v-0.2
	l-0.1-0.2l-0.1-0.1l-0.1-0.1l-0.2,0l-0.2,0.1l-0.3,0.1l-0.3,0.2l-0.3,0.2L7,114.1l-0.1,0.2l0,0.4l0.1,0.4l0.1,0.3l0.2,0.4l0.2,0.2
	l-0.1-0.3l0-0.5l0.1-0.3l0.2-0.3L7.9,114.4z"/>
<polygon class="st0" points="10.4,113.7 10.4,114 10.3,114.3 10.3,114.3 10.3,114.5 10.3,114.5 10.2,114.8 9.9,114.7 10,114.5 
	10,114.5 10.1,114.2 10.1,114 10.1,113.7 "/>
<polygon class="st0" points="7.8,113.1 7.8,112.9 7.9,112.7 8,112.5 8.2,112.3 8.5,112.3 9.9,112.2 10.3,112.2 10.5,112.1 10.8,112 
	10.9,112.2 10.6,112.4 10.3,112.5 10,112.5 9.9,112.5 8.5,112.5 8.3,112.6 8.2,112.7 8.1,112.8 8,113 8,113.2 "/>
<path class="st0" d="M6.5,110.1l-0.2,0L6,110.3l-0.2,0.2l-0.2,0.2l-0.1,0.2l-0.2,0.5c-0.1-0.2-0.2-0.5-0.2-0.7
	c0-0.2-0.1-0.4-0.1-0.6l0.1-0.6l0.2-0.3l0.1,0l0.3-0.3l0.4-0.2l0.4-0.1l0.3-0.1h0.4l0.3,0.1l0.3,0.1l0.2,0.1l0.1,0.2l0,0.5l-0.2,0.3
	l-0.2,0.2l-0.3,0.1H7l-0.2-0.1l0,0.2l0.1,0.3l0.1,0.2l0.2,0.1l0.3,0.1l0.4,0.1l0.4,0.1h0l0.4,0.1l0,0l0.3,0.1l0.4,0.3l0,0
	c0.3,0.2,0.5,0.3,0.8,0.5l-0.1,0.2l-0.5-0.3l-0.4-0.2l0,0l-0.4-0.2l-0.3-0.1v0l-0.4-0.1l0,0l-0.4-0.1l-0.4-0.1l-0.4-0.2l-0.3-0.2
	l-0.2-0.3l-0.1-0.4L6.5,110.1z M6.3,109.9l0.2,0l0-0.1L7,110h0.1l0.2-0.1l0.1-0.1l0.1-0.3l0-0.4l0-0.1l-0.1,0l-0.2-0.1l-0.2,0H6.8
	l-0.3,0L6.2,109l-0.4,0.2l-0.3,0.3l0,0l-0.1,0.3l-0.1,0.5l0.1,0.5l0,0l0.1-0.1l0.2-0.3l0.2-0.2L6.3,109.9L6.3,109.9z"/>
<path class="st0" d="M7.3,108.6l0.2-0.1l0.3,0l0.4,0c0.2,0.1,0.4,0.2,0.6,0.4c0.2,0.2,0.3,0.3,0.5,0.5l0.6,0.6l0.6,0.4l0.5,0.3
	l0.5,0.2l0.3,0.1l0.6,0.1l0.6-0.1l0.4-0.1l0.1,0.3l-0.4,0.1c-0.2,0-0.4,0.1-0.7,0.1c-0.2,0-0.4-0.1-0.6-0.1c-0.1,0-0.3-0.1-0.4-0.1
	l-0.5-0.2l-0.5-0.3c-0.2-0.2-0.4-0.3-0.6-0.5l-0.6-0.6l-0.5-0.4l-0.5-0.3l-0.4,0l-0.2,0l-0.2,0.1L7.3,108.6z"/>
<path class="st0" d="M9.9,110l-0.4-0.7c-0.1-0.2-0.2-0.3-0.3-0.5c-0.1-0.2-0.1-0.3-0.1-0.6v0l0,0c0-0.2,0.1-0.3,0.1-0.5
	c0.1-0.1,0.1-0.2,0.2-0.3c-0.1-0.1-0.1-0.1-0.2-0.2c-0.1-0.1-0.2-0.1-0.3-0.1c-0.2,0-0.3,0-0.5,0c-0.1,0-0.3,0.1-0.4,0.3l-0.4,0.3
	l0.2-0.5c0.1-0.1,0.1-0.2,0.2-0.3c0.2-0.4,0.6-0.7,0.9-0.9c0.4-0.2,0.8-0.2,1.3,0.1c0.1,0,0.2,0.1,0.2,0.1l0,0l0,0
	c0.1,0.1,0.2,0.2,0.4,0.3c0.1,0.1,0.2,0.3,0.3,0.4l0,0l0,0c0,0.2,0,0.3-0.1,0.4c-0.1,0.2-0.2,0.4-0.3,0.5c-0.1,0.1-0.3,0.2-0.6,0.2
	c-0.1,0-0.3,0-0.4-0.1l-0.1,0l0-0.1c0-0.1-0.1-0.2-0.1-0.3c0,0,0-0.1-0.1-0.1c-0.1,0.1-0.1,0.1-0.1,0.2c-0.1,0.1-0.1,0.2-0.1,0.4
	c0,0.2,0,0.3,0,0.4c0,0.1,0.1,0.2,0.2,0.4l0,0l0.4,0.7L9.9,110z M9.8,107.4L9.8,107.4L9.8,107.4c0.1,0.2,0.1,0.2,0.2,0.3
	c0,0.1,0.1,0.1,0.1,0.2c0.1,0,0.2,0,0.3,0c0.2,0,0.3,0,0.4-0.1c0.1-0.1,0.2-0.2,0.2-0.3c0-0.1,0-0.2,0.1-0.3
	c-0.1-0.1-0.2-0.2-0.2-0.3c-0.1-0.1-0.2-0.2-0.3-0.3c-0.1,0-0.1-0.1-0.2-0.1c-0.4-0.2-0.8-0.2-1.1-0.1c-0.3,0.1-0.5,0.3-0.7,0.6
	c0,0,0.1,0,0.1,0c0.2-0.1,0.3-0.1,0.6-0.1h0l0,0c0.2,0.1,0.3,0.1,0.4,0.2C9.7,107.2,9.7,107.3,9.8,107.4z"/>
<path class="st0" d="M11.2,107c0.2,0,0.4,0,0.5,0.1c0.1,0.1,0.2,0.2,0.3,0.4l0,0l0,0c0.1,0.3,0.1,0.5,0.1,0.7c0,0.2-0.1,0.4-0.2,0.6
	c0,0.1,0,0.1,0,0.2c0,0.1,0,0.1,0,0.2l0,0.1l0,0.1c0.1,0.4,0.2,0.5,0.5,0.9l0.2,0.2c0.1,0.1,0.2,0.2,0.3,0.2
	c0.1,0.1,0.2,0.1,0.3,0.2l-0.2,0.2c-0.1-0.1-0.2-0.1-0.3-0.2c-0.1-0.1-0.2-0.2-0.3-0.2c-0.1-0.1-0.2-0.1-0.2-0.2
	c-0.4-0.4-0.5-0.6-0.6-1c0,0,0-0.1,0-0.2l0,0l0-0.1c0-0.1,0-0.1,0-0.2c0-0.1,0-0.1,0-0.2l0,0l0,0c0.1-0.2,0.1-0.4,0.1-0.6
	c0-0.2,0-0.3-0.1-0.6c-0.1-0.1-0.1-0.2-0.2-0.3c-0.1-0.1-0.2-0.1-0.3-0.1L11.2,107z"/>
<path class="st0" d="M9.7,109.1c0.3,0.1,0.4,0.1,0.6,0.1s0.3-0.1,0.6-0.2l0.1,0.2c-0.3,0.1-0.5,0.2-0.7,0.2c-0.2,0-0.4,0-0.7-0.1
	L9.7,109.1z"/>
<path class="st0" d="M13.5,110.9l0.5-0.2l0,0c0.8-0.2,1.4-0.3,1.9-0.4c0.5-0.2,1-0.4,1.8-0.7l0,0l1-0.5c0.4-0.2,0.7-0.4,1.1-0.5
	c0.3-0.1,0.7-0.2,1.1-0.4l0,0l0,0c0.4,0,0.6-0.1,0.9,0c0.3,0,0.5,0,0.9,0.1l0,0l0,0c0.5,0.3,0.5,0.3,1.7,0.1c0.1,0,0.3-0.1,0.5-0.1
	l0.1,0.3c-0.2,0-0.3,0.1-0.5,0.1c-1.3,0.3-1.3,0.3-1.9-0.1c-0.3-0.1-0.6-0.1-0.8-0.1c-0.2,0-0.5,0-0.8,0c-0.4,0.1-0.8,0.2-1.1,0.4
	c-0.3,0.1-0.6,0.3-1,0.5l-1,0.5l0,0c-0.8,0.4-1.3,0.6-1.8,0.7c-0.5,0.2-1.1,0.3-1.9,0.4l-0.5,0.2L13.5,110.9z"/>
<path class="st0" d="M21.6,111.8l0.5-0.2l0.5-0.2h0.1l0.6-0.1l0,0l0.6-0.1h0.1l0.4,0h0h0.1l0.5,0h0.1l0.5-0.1l0,0c0,0,0,0,0,0v0
	c0,0,0,0,0,0l0.2-0.1v0l0.2-0.2c0,0,0,0,0,0c0,0,0,0,0,0l0-0.2l0,0c0,0,0,0,0,0c0,0,0,0,0,0l0-0.4l0.3,0l0,0.4l0,0c0,0,0,0,0,0
	c0,0,0,0,0,0l-0.1,0.3l0,0l0,0l0,0l-0.1,0.1c0,0,0,0,0,0.1c0,0,0,0-0.1,0l0,0l-0.2,0.2h0c0,0,0,0,0,0l-0.5,0.1h-0.1l-0.5,0h-0.1
	l-0.4,0h0H24l-0.6,0.1l0,0l-0.6,0.1h0l-0.5,0.2l-0.5,0.2L21.6,111.8z M25.7,110.9C25.7,110.9,25.7,110.9,25.7,110.9L25.7,110.9
	L25.7,110.9L25.7,110.9z"/>
<path class="st0" d="M22.2,108.4c-0.4-0.4-0.8-0.7-1.1-1.1c-0.3-0.3-0.6-0.7-0.9-1.1c-0.4,0.4-0.9,0.6-1.3,0.7c-0.5,0-1-0.1-1.6-0.3
	l-0.4-0.2l0.4-0.1c0.5-0.1,0.8-0.2,1-0.3c0.2-0.1,0.3-0.3,0.4-0.7c-0.3,0.1-0.5,0.1-0.8,0.1c-0.3,0-0.7-0.1-1-0.3l0,0l0,0
	c-0.1-0.1-0.3-0.2-0.4-0.3c-0.1-0.1-0.2-0.2-0.3-0.3l0,0c-0.4-0.5-0.5-1-0.5-1.4c0.1-0.4,0.4-0.9,0.8-1.3l0.3-0.2l0,0.4
	c-0.1,0.4,0,0.9,0.3,1.2l0,0c0.1,0.1,0.2,0.2,0.2,0.3c0.1,0.1,0.2,0.1,0.3,0.1c0.2,0,0.4,0,0.6-0.2l0,0l0,0c0.8-0.4,1.2-1,1.6-1.7
	c0.1-0.1,0.2-0.3,0.3-0.4l0,0c0.2-0.3,0.4-0.6,0.6-0.9c0.2-0.3,0.4-0.6,0.6-0.9l0,0l0,0c0.6-0.5,1.2-0.7,1.9-0.9
	c0.7-0.1,1.4-0.2,2.1-0.2v0c0.7,0,1.4,0.1,2,0.2c0.5,0.1,1,0.2,1.6,0.2v0c0.4,0,0.7-0.2,1-0.4c0.3-0.2,0.5-0.6,0.6-0.9l0.2,0.1
	c-0.2,0.4-0.4,0.7-0.7,1c-0.3,0.3-0.7,0.5-1.2,0.5h0c-0.6,0-1.1-0.1-1.7-0.2c-0.6-0.1-1.2-0.2-2-0.2h0c-0.7,0-1.4,0-2,0.1
	c-0.6,0.1-1.2,0.4-1.8,0.8c-0.2,0.3-0.4,0.6-0.6,0.8c-0.2,0.3-0.4,0.6-0.6,0.9l0,0c-0.1,0.2-0.2,0.3-0.3,0.4
	c-0.5,0.8-0.8,1.4-1.7,1.8c-0.3,0.2-0.5,0.2-0.8,0.2c-0.2,0-0.3-0.1-0.4-0.2c-0.1-0.1-0.2-0.2-0.3-0.3v0c-0.2-0.3-0.3-0.7-0.3-1
	c-0.3,0.3-0.5,0.6-0.5,0.9c-0.1,0.4,0.1,0.8,0.4,1.2c0.1,0.1,0.2,0.2,0.3,0.3c0.1,0.1,0.2,0.2,0.3,0.3c0.4,0.1,0.7,0.2,0.9,0.2
	c0.3,0,0.6,0,0.9-0.2l0.2-0.1l-0.1,0.3c-0.1,0.6-0.3,0.9-0.5,1.1c-0.2,0.1-0.4,0.2-0.7,0.3c0.4,0.1,0.7,0.2,1,0.1
	c0.4,0,0.9-0.2,1.3-0.7l0.1-0.1l0.1,0.1c0.4,0.4,0.7,0.8,1,1.2c0.3,0.4,0.7,0.7,1.1,1.1L22.2,108.4z"/>
<path class="st0" d="M25.4,99.3c0.7,0.1,1.3,0.1,1.8,0.1c0.6,0,1.1,0,1.8-0.1c0.6-0.1,1-0.2,1.4-0.3c0.4-0.1,0.8-0.3,1.3-0.5
	l0.1,0.2c-0.5,0.2-0.9,0.4-1.3,0.5c-0.4,0.1-0.8,0.2-1.4,0.3h0c-0.7,0.1-1.2,0.1-1.8,0.1c-0.6,0-1.2,0-1.8-0.1L25.4,99.3z"/>
<path class="st0" d="M33.1,100.2c0.2,0.2,0.4,0.6,0.6,1c0.1,0.5,0.2,1,0.3,1.8l0,0.6l-0.3-0.5c-0.2-0.5-0.6-0.9-1-1.2
	c-0.4-0.3-0.9-0.6-1.4-0.9l0,0l0,0c-0.5-0.3-0.6-0.4-1.1-0.5l-0.2-0.1l0.1-0.2c0,0,0,0,0.1-0.1c0.1-0.1,0.1-0.1,0.3-0.2l0,0h0
	c0.1,0,0.2-0.1,0.3-0.1c0.4-0.2,0.7-0.3,1.1-0.3l0,0l0.6,0l0,0.3l-0.6,0l0,0c-0.4,0-0.7,0.1-1,0.3c-0.1,0-0.2,0.1-0.3,0.1
	c0,0-0.1,0-0.1,0c0.4,0.1,0.6,0.2,1,0.5l0,0h0c0.5,0.3,0.9,0.6,1.4,0.9c0.3,0.3,0.6,0.5,0.8,0.8c0-0.5-0.1-0.9-0.2-1.2
	c-0.1-0.4-0.3-0.7-0.5-0.9L33.1,100.2z"/>
<path class="st0" d="M34,103.1l-0.1,0.9l0,0c-0.1,0.5-0.3,0.9-0.5,1.3c-0.2,0.4-0.4,0.8-0.8,1.2l-0.2-0.2c0.3-0.4,0.5-0.8,0.7-1.2
	c0.2-0.4,0.3-0.8,0.5-1.3l0.1-0.9L34,103.1z"/>
<path class="st0" d="M29.7,93.4l-0.8-0.3l-0.7,0l-0.8,0.1l-0.7,0.3l-0.1,0L26,93.6l-1.1,0.2l-0.1,0l-0.5,0l0.1,0.1l0.6,0.5l1,0.7
	l0.8,0.4h0l0.8,0.4l0,0l1.2,0.6l0.1,0l0,0l1.2,0.5l0.9,0.3c0.2,0.2,0.4,0.4,0.6,0.7l0.5,0.5l0.7,1.1l-0.2,0.1l-0.7-1.1l-0.5-0.5
	l-0.6-0.6c-0.7-0.3-1.3-0.5-2-0.8l-0.1,0l-1.2-0.6l0,0l-0.8-0.4l0,0l-0.8-0.4c-0.3-0.2-0.7-0.5-1-0.7c-0.2-0.2-0.4-0.4-0.6-0.5
	l-0.4-0.5l1-0.1l0.1,0l1.1-0.2l0.7-0.1l0.1,0l0.7-0.3l0.8-0.1l0.8,0l0.8,0.3L29.7,93.4z"/>
<path class="st0" d="M12.6,96.2c-0.2,0.3-0.3,0.4-0.3,0.6c0,0.1,0.1,0.2,0.2,0.4l0.8-0.5c0.3-0.1,0.7-0.2,1-0.3
	c0.4-0.1,0.8-0.1,1.2-0.2h0.1l2.1-0.6l0.3,0.6l0.3,0.2l0.5,0.1H19l0.4-0.1l0.1,0l-0.2-0.1l-0.4-0.4v-0.7l0.2-0.4l0.5-0.4l0.2,0.6
	l0,0.1l0,0l0.5,0.6l0.6,0.4l0.7,0.1h0.1v0l0.6,0l0.9-0.2l0.4-0.2L23,95.7l-0.1-0.1l-0.5-0.3l-0.1-0.1l-0.6-0.5l-0.1-0.6l0.2-0.4
	l0.5-0.1h0c0,0,0,0,0,0l0,0h0.7c0,0,0,0,0,0c0,0,0,0,0,0c0,0,0,0,0,0c0,0,0,0,0.1,0l0,0l0.5,0h0c0,0,0,0,0.1,0c0.1,0,0.1,0,0.2,0.1
	l-0.2,0.2c0,0,0,0-0.1,0c0,0,0,0-0.1,0v0l-0.5,0l0,0c0,0,0,0-0.1,0c0,0,0,0-0.1,0c0,0,0,0,0,0h-0.6l0,0c0,0,0,0-0.1,0l0,0
	c0,0,0,0-0.1,0c0,0,0,0,0,0L22,94l-0.1,0.3l0.1,0.4l0.5,0.4l0.1,0.1l0.4,0.2l0,0l0.1,0l0.6,0.2h0.1l0,0l0.9,0.1l-1.4,0.6
	c-0.3,0.1-0.6,0.1-0.9,0.2l-0.7,0h0h-0.1l-0.7-0.1c-0.2-0.2-0.5-0.3-0.7-0.5l-0.5-0.6l0,0l-0.1-0.1l-0.1-0.3L19.3,95l-0.1,0.3v0.5
	l0.3,0.3l0.7,0.4l-0.6,0.3L19,96.7h-0.1l-0.6-0.1l-0.5-0.3l-0.3-0.5l-1.9,0.5h-0.1l-1.1,0.2l-1,0.3l-1,0.6l-0.1-0.1
	c-0.2-0.3-0.3-0.5-0.3-0.7c0-0.2,0.1-0.4,0.3-0.7L12.6,96.2z"/>
<path class="st0" d="M12.6,97.2c0.2,0.3,0.3,0.5,0.4,0.7c0.1,0.2,0.2,0.5,0.3,0.8l0,0l0,0.6v0c-0.2,2-0.8,2-2.2,1.9
	c-0.1,0-0.2,0-0.2,0l-0.4,0l0.3-0.2c0.1-0.1,0.2-0.1,0.2-0.1c0,0,0.1,0,0.1,0l0.1-0.1c0.3-0.3,0.4-0.4,0.5-0.9l0-0.6l0,0
	c0.1-0.5,0.4-0.6,0.7-0.7c0.2,0,0.4,0.1,0.7,0.2l0,0c-0.1-0.3-0.2-0.5-0.3-0.7c-0.1-0.2-0.2-0.4-0.4-0.7L12.6,97.2z M13.1,99.3
	l0-0.2c-0.2-0.1-0.5-0.2-0.6-0.2c-0.2,0-0.3,0.1-0.4,0.4l0,0.6l0,0c-0.1,0.5-0.2,0.7-0.6,1C12.5,101,12.9,100.9,13.1,99.3z"/>
<path class="st0" d="M11.9,100.1c-0.4-0.1-0.5-0.1-0.8-0.3l-0.1,0l0,0c-0.4-0.6-0.4-0.9-0.5-1.4c0-0.1,0-0.1,0-0.2
	c0-0.1,0-0.2-0.1-0.2c-0.1-0.4-0.1-0.7-0.7-0.9l0.1-0.2c0.6,0.3,0.7,0.6,0.8,1.1c0,0.1,0,0.2,0.1,0.2l0,0l0,0c0,0.1,0,0.2,0,0.2
	c0.1,0.5,0.1,0.8,0.4,1.3l0,0c0.3,0.2,0.3,0.2,0.7,0.3L11.9,100.1z"/>
<path class="st0" d="M6.6,99.9c0.1-0.1,0.1-0.2,0.1-0.3c0-0.1,0.1-0.2,0.1-0.4c-0.1-0.3-0.1-0.5-0.2-0.5c-0.1-0.1-0.3-0.1-0.5,0.1
	c0,0,0,0.1-0.1,0.1c-0.2,0.3-0.4,0.7-0.4,1c0,0.3,0.1,0.7,0.5,0.9c0,0,0,0,0.1,0c0.2,0.1,0.3,0.2,0.5,0.2
	C6.4,100.4,6.4,100.1,6.6,99.9z M7,99.7c0,0.1,0,0.1-0.1,0.1c0,0,0.1,0,0.1,0c0.4,0,0.8-0.1,1.1-0.9l0,0l0.2-0.3l0,0
	c0.3-0.1,0.7-0.3,1-0.4c0.4-0.1,0.8-0.3,1.2-0.3l0.1,0.3c-0.3,0.1-0.7,0.2-1.1,0.3c-0.3,0.1-0.7,0.3-1,0.4l-0.2,0.3
	c-0.4,1-0.9,1-1.4,1c-0.1,0-0.2,0-0.3,0c-0.1,0.1-0.1,0.3,0.2,1.1l0.1,0.3l-0.3-0.1c-0.1,0-0.1,0-0.2-0.1c-0.2-0.1-0.4-0.1-0.7-0.3
	l0,0l0,0c0,0,0,0-0.1-0.1c-0.4-0.3-0.6-0.7-0.6-1.2c0-0.4,0.2-0.8,0.5-1.2c0,0,0.1-0.1,0.1-0.1l0,0l0,0c0.4-0.2,0.6-0.2,0.8,0
	C7,98.6,7,98.9,7.1,99.2l0,0l0,0C7.1,99.4,7,99.6,7,99.7z"/>
<path class="st0" d="M5.9,98.7c-0.2-0.7,0-0.8,0.5-1c0.1,0,0.2-0.1,0.3-0.1c0.2-0.2,0.5-0.3,0.7-0.4c0.3-0.2,0.6-0.3,1-0.6l0.4-0.4
	l0.2,0.2l-0.4,0.4l0,0c-0.4,0.3-0.7,0.5-1.1,0.7c-0.2,0.1-0.4,0.2-0.7,0.4l0,0l0,0c-0.1,0.1-0.2,0.1-0.3,0.2
	c-0.4,0.2-0.5,0.2-0.4,0.7L5.9,98.7z"/>
<path class="st0" d="M8.2,96.9c-0.2-0.1-0.4-0.1-0.5-0.1c-0.2,0-0.3,0-0.5,0c-0.2,0-0.3,0-0.5,0l0,0C6.3,97,6.3,97,6,97.1l0,0l0,0
	c-0.1,0-0.2,0-0.3,0c-0.1,0-0.2,0-0.3,0h0l0,0c-0.3-0.1-0.4-0.1-0.5-0.2c-0.1-0.1-0.2-0.3-0.3-0.5l0.3-0.1c0.1,0.2,0.1,0.4,0.2,0.4
	s0.2,0.1,0.4,0.2c0.1,0,0.2,0,0.2,0c0.1,0,0.1,0,0.2,0l0,0c0.3-0.1,0.3-0.1,0.6-0.4l0,0l0.1,0c0,0,0.1,0,0.1,0c0.2,0,0.3,0,0.5,0
	c0.2,0,0.4,0,0.6,0c0.2,0,0.3,0.1,0.6,0.1L8.2,96.9z"/>
<polygon class="st0" points="6.8,95.9 6.7,96.6 6.4,96.6 6.5,95.9 "/>
<path class="st0" d="M4.8,96.3c0,0,0.1-0.1,0.1-0.1c0,0,0,0,0,0C5,96,5.1,95.8,5.1,95.7c0-0.1,0-0.3,0-0.4l0-0.1h0l0-0.1l-0.2,0H4.6
	c0,0-0.1,0-0.1,0c-0.2,0.1-0.3,0.1-0.5,0.2v0c-0.1,0.1-0.2,0.2-0.4,0.4c-0.4,0.7-0.2,1.1-0.1,1.3c0,0,0,0.1,0.1,0.1
	c0,0,0.1,0.1,0.1,0.1c0,0,0.1,0.1,0.1,0.1c-0.1-0.3-0.1-0.6,0.2-1l0,0l0,0c0,0,0.1-0.1,0.2-0.1l0,0c0.1,0,0.2-0.1,0.3-0.1h0
	L4.8,96.3L4.8,96.3z M5,96.3c-0.1,0.1-0.3,0.3-0.4,0.1l-0.2-0.1c0,0-0.1,0-0.1,0.1l0,0c-0.1,0-0.1,0.1-0.2,0.1
	c-0.2,0.3-0.1,0.6-0.1,1c0,0,0,0,0,0.1l0.1,0.3l-0.3-0.2c-0.3-0.1-0.3-0.2-0.5-0.4c0,0-0.1-0.1-0.1-0.1l0,0l0,0c0,0,0-0.1,0-0.1
	c-0.1-0.2-0.3-0.7,0.2-1.5l0,0l0,0c0.2-0.2,0.3-0.3,0.4-0.4h0C4,95,4.2,95,4.4,94.9l0,0h0c0,0,0,0,0,0l0,0c0,0,0,0,0,0l0,0h0.3
	l0.3,0.1l0.1,0.1l0,0l0.1,0.1l0,0c0,0.2,0,0.4,0,0.6C5.3,96,5.2,96.1,5,96.3L5,96.3L5,96.3C5.1,96.3,5,96.3,5,96.3z"/>
<path class="st0" d="M4.5,95l0-0.2l0.2-0.2l0.2-0.2l0.3-0.1h0.3c0.2,0,0.4,0.1,0.6,0.1c0.3,0.1,0.6,0.2,0.9,0.3l0,0h0l0.3,0.1l0,0
	l0.3,0l0.5,0l0.6-0.2l0.5-0.3l0.6-0.2l0.1,0l0.9-0.2l0.9-0.3l0.8-0.4l0.8-0.6h0l0.5-0.4c0.4-0.4,0.8-0.7,1.2-1.1l0.9-0.8l0,0
	c0.2-0.2,0.5-0.4,0.7-0.5c0.2-0.2,0.4-0.3,0.7-0.5c0.3-0.2,0.5-0.4,0.8-0.6c0.4-0.3,0.7-0.6,1.1-0.9l0,0l1-0.6c0,0,0,0,0.1,0
	c0.1-0.1,0.3-0.2,0.4-0.2l0.7-0.4l0,0l0.5-0.3l0,0l0.3-0.2l0.2,0.2L22,86.2l0,0l-0.5,0.3l0,0L20.9,87h0c0,0-0.2,0.1-0.3,0.2
	c0,0,0,0-0.1,0l-1,0.6c-0.4,0.3-0.7,0.6-1.1,0.9c-0.3,0.2-0.5,0.4-0.8,0.6l0,0c-0.2,0.2-0.5,0.3-0.7,0.5c-0.2,0.2-0.4,0.3-0.7,0.5
	l0,0l-0.9,0.8l-0.6,0.5l-0.6,0.6c-0.2,0.2-0.4,0.3-0.6,0.5h-0.1l-0.7,0.5l-0.9,0.4l0,0L10.9,94c-0.3,0.1-0.6,0.1-0.9,0.2l0,0
	l-0.6,0.2l-0.5,0.3L8.3,95l-0.6,0l-0.4,0l0,0L7,94.9l0,0l0,0l0,0l-0.4-0.1l-0.5-0.1l-0.6-0.1H5.3l-0.2,0.1l-0.1,0.1l-0.1,0.1l0,0.1
	L4.5,95z"/>
<path class="st0" d="M4.5,93.6c0-0.2,0-0.3,0-0.4c0-0.1,0-0.3,0-0.4l0,0l0-0.1c0.1-0.3,0.1-0.3,0.3-0.6l0,0l0,0
	c0.1-0.1,0.3-0.2,0.5-0.3c0.2-0.1,0.4-0.1,0.6-0.1c0.2,0,0.3,0,0.4,0c0.1,0,0.2,0,0.4,0.1l0,0l0,0c0.1,0,0.2,0.1,0.2,0.1
	c0,0,0.1,0.1,0.1,0.1c0.1-0.1,0.2-0.1,0.3-0.1c0,0,0.1,0,0.1,0h0c0.2,0,0.3,0.1,0.5,0.3c0.1,0.2,0.3,0.4,0.3,0.5
	c0.1,0.3,0.1,0.5,0.1,0.7l0,0.1c0.2,0.2,0.9,0.9,0.9,0.9l0,0l-0.2,0.2l0,0c0,0-0.8-0.8-1-0.9l0,0l0-0.1c0-0.3-0.1-0.4-0.1-0.7l0,0v0
	c0-0.1-0.1-0.2-0.2-0.3C7.7,92.1,7.6,92,7.5,92c0,0-0.1,0-0.1,0c-0.1,0-0.1,0-0.2,0.1l-0.1,0.1L7,92.1c0,0-0.1-0.1-0.2-0.1
	c-0.1,0-0.1-0.1-0.2-0.1c-0.2,0-0.3-0.1-0.4-0.1c-0.1,0-0.2,0-0.4,0l0,0c-0.2,0-0.3,0-0.5,0.1C5.3,92,5.2,92.1,5,92.2
	c-0.2,0.2-0.2,0.3-0.2,0.5l0,0c0,0.2,0,0.3,0,0.4c0,0.1,0,0.3,0,0.4L4.5,93.6z"/>
<path class="st0" d="M6.9,94.7c0.1-0.2,0.2-0.3,0.3-0.4c0.1-0.1,0.3-0.2,0.4-0.5l0.2,0.1c-0.1,0.4-0.3,0.5-0.5,0.6
	c-0.1,0.1-0.2,0.2-0.3,0.3L6.9,94.7z"/>
<path class="st0" d="M6.7,94.8c-0.1-0.1-0.2-0.2-0.3-0.3c-0.4-0.4-0.6-0.6-0.5-1.4l0-0.1L6,93c0.4,0,0.7,0,0.9-0.1
	c0.1-0.1,0.2-0.4,0-0.8L7.2,92l0,0.1h0c0.2,0.5,0.1,0.8-0.1,1c-0.2,0.2-0.5,0.2-1,0.2c-0.1,0.6,0.1,0.7,0.4,1
	c0.1,0.1,0.2,0.2,0.3,0.3L6.7,94.8z"/>
<polygon class="st0" points="4.5,93.5 4.6,93.2 4.9,92.9 5.2,92.7 5.6,92.7 5.9,92.7 6.1,92.8 6.3,93 6.1,93.2 5.9,93 5.8,93 
	5.6,92.9 5.3,93 5.1,93.1 4.9,93.3 4.7,93.6 "/>
<path class="st0" d="M19.4,87.8l-0.8,0l-1.2,0c-0.4-0.1-0.8-0.2-1.2-0.3l0,0c-0.5-0.3-0.9-0.7-1.2-1.1c-0.2-0.4-0.3-1-0.1-1.6
	l0.1-0.4l0.1,0.4c0,0.1,0.1,0.4,0.2,0.6c0.1,0.2,0.2,0.4,0.3,0.4l0,0l0,0c0.3,0.1,0.6,0.2,0.8,0.2c0.3,0,0.5-0.1,0.9-0.2l0,0h0.1
	c0.8-0.3,1.2-0.7,1.7-1.2c0.2-0.2,0.5-0.4,0.8-0.7l0,0c0.3-0.3,0.6-0.5,0.8-0.7c0.3-0.2,0.5-0.4,0.9-0.6l0,0c0.1,0,0.1-0.1,0.2-0.1
	c0.2-0.1,0.5-0.2,0.7-0.3c0.4-0.1,0.9-0.2,1.4-0.3c0.2,0,0.3-0.1,0.4-0.1l0.6-0.1l0.1,0.3l-0.6,0.1c-0.2,0-0.3,0.1-0.4,0.1
	c-0.5,0.1-1,0.2-1.4,0.3c-0.2,0.1-0.4,0.2-0.6,0.3c-0.1,0-0.2,0.1-0.2,0.1c-0.4,0.2-0.6,0.4-0.9,0.6c-0.2,0.2-0.5,0.4-0.8,0.7l0,0
	c-0.3,0.2-0.5,0.5-0.7,0.7c-0.5,0.5-0.9,0.9-1.8,1.2l0,0h-0.1c-0.3,0.1-0.6,0.2-0.9,0.2c-0.3,0-0.6-0.1-0.9-0.2
	c-0.2-0.1-0.4-0.3-0.5-0.6c0-0.1,0-0.1-0.1-0.2c0,0.4,0,0.7,0.2,0.9c0.2,0.4,0.6,0.7,1.1,1l1.2,0.2l1.2,0l0.8,0L19.4,87.8z"/>
<path class="st0" d="M26,80.5l-0.4,0.6l0,0l-0.5,0.8l-0.3,0.9c-0.2,0.3-0.3,0.6-0.5,0.9c-0.1,0.2-0.3,0.4-0.4,0.6l-0.4,0.5l-0.1,0.1
	l0,0l-0.5,0.2l-0.7,0l0,0h-0.1l0.1,0.3l0.2,0.3l0.3,0.3l0.3,0.1l0,0l0.9,0l0.1,0l0.8-0.6l1.1-1.3l0.5-1l0.2,0.1l-0.6,1
	c-0.4,0.4-0.8,0.9-1.1,1.3c-0.3,0.2-0.6,0.4-0.9,0.7l-0.1,0l-0.9,0l-0.1,0l-0.3-0.2l-0.3-0.4l-0.2-0.4l-0.3-0.9l0.4,0.2h0.1l0,0
	l0.6,0l0.4-0.2l0,0l0.1,0l0.4-0.5l0.4-0.6l0.4-0.9l0.3-0.9l0.5-0.8l0,0l0.4-0.7L26,80.5z"/>
<path class="st0" d="M24.9,85.7l-0.1,0.9l0,0l-0.1,0.8l-0.3,0.3l-0.7,0.6l0,0l-0.6,0.5l0,0c0,0,0,0,0,0l0,0l0,0l-0.8,0.4h-0.1
	l-0.8,0.1h-0.1c-0.2-0.1-0.4-0.1-0.6-0.2l-0.1,0l-0.5-0.4l-0.3-0.4l-0.2-0.5l0.8,0.2l0.4,0L21,88l0,0l0,0l0.3-0.2l0.4-0.4l0.5-0.6
	l0.5-0.6l0.2,0.2L22.4,87l-0.5,0.6c-0.1,0.1-0.3,0.3-0.4,0.4l-0.3,0.2l-0.1,0l0,0l-0.3,0.1l-0.4,0L20,88.2l0.3,0.3l0.4,0.3l0,0
	l0.6,0.1h0l0.8-0.1h0.1l0.7-0.3l0,0c0,0,0,0,0.1,0l0.6-0.4l0.6-0.6l0.3-0.3l0.1-0.7l0,0l0.1-0.9L24.9,85.7z"/>
<path class="st0" d="M24.7,87.4l-0.1,0.5l0,0l-0.4,1.3l-0.2,0.3l-0.2,0.2l-0.2,0.1l-0.2,0.1l-0.2,0l-0.1,0l0,0l0.2,0.2l0.2,0.1
	l0.2,0.1h0l0.3,0l0.4-0.1l0.3-0.2l0.3-0.3l0,0l0.4-0.5l0.3-0.4l0.2-0.4l0,0l0.1-0.1l0.1-0.3l0.1-0.3c0-0.1,0.1-0.3,0.1-0.4l0.2-0.3
	l0.2-0.3l0.1,0.6v0L27,88l0,0l0.1,0.7v0l0,0.5l0,0.5v0l0,0.3l-0.1,0.3l0,0L27,90.7l-0.2,0.2l0,0l0,0l-0.2,0.2h0l-0.2,0.1l-0.2,0l0,0
	l0.1,0.2l0.2,0.1l0,0l0.2,0.1l0.2,0l0.3,0l0,0h0l0.3-0.1l0.3-0.1l0.4-0.3l0.3-0.3l0.2-0.3l0.1-0.4l0.1-0.4l0-0.4l0-0.7L28.6,88
	l-0.1-0.4l-0.4-1.5c0.3,0.5,0.5,1,0.8,1.5l0.2,0.6l0,0l0.2,0.5l0,0l0.2,0.5l0.1,0.5l0.1,0.4v0.5L29.7,91l-0.2,0.3l-0.2,0.2l-0.2,0.1
	l0,0l0,0l0,0l0.2,0.1l0,0l0.3,0.1h0.3l0.2-0.1l0.3-0.2l0.3-0.2l0.3-0.3l0.1-0.3l0-0.3l0-0.6L31,89.4l-0.1-0.5
	c-0.1-0.4-0.2-0.7-0.3-1.1l-0.2-0.5l-0.1-0.6c0-0.3,0-0.6-0.1-0.9l0.6,0.9l0.2,0.4l0,0l0.3,0.5l0,0l0.3,0.5h0l0.3,0.5l0,0l0.2,0.4
	l0.2,0.5l0.1,0.4l0,0.5l-0.2,0.4l-0.4,0.3l0,0l0.4,0.1l0.4,0l0.5-0.2l0,0l0.3-0.3l0.2-0.4l0-0.7l-0.1-0.7L33.4,88l-0.3-0.7
	c-0.1-0.2-0.2-0.4-0.2-0.6c0-0.2-0.1-0.4-0.1-0.6c0-0.2,0-0.4,0-0.6c0.4,0.5,0.8,1,1.2,1.5l0.4,0.5c0.1,0.1,0.1,0.2,0.2,0.4l0.2,0.4
	l0.1,0.4V89l-0.2,0.4c-0.1,0.1-0.2,0.2-0.3,0.3l0.1,0l0.4,0l0.5-0.1l0.3-0.2l0.2-0.2L36,89l0.1-0.5l0-0.7L36,87.1l0-0.2l-0.7-1v0
	l-0.5-0.8l0,0l-0.1-0.2l0.2-0.2l0.1,0.2l0,0l0.5,0.8l0,0l0.7,1.1l0.1,0.2c0,0.2,0.1,0.5,0.1,0.7c0,0.2,0,0.5,0,0.7l-0.2,0.6L36,89.4
	l-0.3,0.3l-0.4,0.2L34.8,90l-0.4,0l-0.5-0.1l0,0.4l-0.3,0.5L33.3,91l-0.1,0l-0.5,0.2l-0.6,0l-0.5-0.2l-0.4-0.3l-0.1,0.2l-0.3,0.4
	l-0.3,0.3l-0.4,0.2L29.8,92h-0.3l-0.4-0.1l0,0l-0.2-0.1l0,0c0,0,0,0,0,0l0,0l-0.4-0.3l0.5-0.1l0.2-0.1l0.1-0.1l0.2-0.2l0.1-0.3v-0.4
	l-0.1-0.4l-0.1-0.4l-0.2-0.5l0,0l-0.2-0.5l0,0l0,0.2c0,0.3,0,0.5,0,0.8l0,0.4l-0.1,0.5l0,0l-0.1,0.4l-0.2,0.4l-0.4,0.4h0l-0.3,0.3
	l-0.3,0.2h0L27,91.9h0l0,0l-0.3,0l-0.3,0l-0.2-0.1l0,0L26,91.5l0,0l-0.2-0.2l-0.2-0.5l0.4,0l0.3,0l0.2-0.1l0.2-0.1l0,0l0,0l0.1-0.2
	l0.1-0.2l0,0l0.1-0.3l0-0.3l0,0l0-0.5l0-0.5v0l-0.1-0.6l0,0l-0.1-0.6l0,0l-0.1,0.3l-0.1,0.3c0,0.1-0.1,0.2-0.1,0.3l-0.1,0.2l0,0
	L26,89c-0.1,0.1-0.2,0.3-0.3,0.4l-0.4,0.5l0,0l0,0l-0.3,0.3c-0.1,0.1-0.3,0.2-0.4,0.3L24,90.6l0,0l-0.3,0h0l-0.3-0.1l-0.3-0.2
	l-0.2-0.3l-0.4-0.6l0.5,0.2h0l0.2,0l0.2,0l0.2,0l0.2-0.1l0.1-0.1l0.2-0.3l0.3-1.2l0,0l0.1-0.5L24.7,87.4z M31.3,90.8L31.3,90.8
	l0.3-0.1l0.3-0.2l0.2-0.3l0-0.4L32,89.4L31.8,89l-0.2-0.4l-0.3-0.5l0,0l-0.3-0.5l0,0l-0.3-0.5h0l-0.2-0.4l0-0.1l0.1,0.5
	c0.1,0.4,0.2,0.7,0.3,1.1l0.1,0.5l0,0l0.1,0.6c0,0.2,0.1,0.3,0.1,0.5c0,0.2,0,0.4,0,0.6L31.3,90.8L31.3,90.8z M33.9,89.4l0,0.3
	l0.4-0.3l0.2-0.2l0.1-0.3v-0.3l-0.1-0.4L34.3,88l-0.2-0.3c-0.2-0.3-0.4-0.5-0.7-0.8l-0.4-0.4l0.1,0.3l0.2,0.6l0.3,0.7l0.2,0.7
	C33.9,88.9,33.9,89.2,33.9,89.4L33.9,89.4z"/>
<polygon class="st0" points="35.3,84.6 35.4,85.2 35.6,86 35.4,86.1 35.2,85.3 35.1,84.6 "/>
<path class="st0" d="M36.2,86.9l0.4,0.1h0l0.4,0.1h0.6l0.5-0.2l0.3-0.3l-0.1,0l-0.4-0.1l-0.3-0.1l-0.3-0.2l-0.2-0.3l-0.1-0.3
	L37,85.2c0-1.1,0-2.1,0-3.1l0-0.9l-0.2-0.9l-0.2-0.6l-0.4-0.9L36,78.4l0.1,0.3l0.1,0.6v0l0.1,0.5V80l0,0l0,0.6l0,0.1L36,81.1
	c0,0,0,0.1,0,0.1c0,0,0,0,0,0l0,0l-0.6,0.6l-0.1-0.6l-0.1-0.5l-0.3-0.5l-0.3-0.5l-0.4-0.5c-0.4-0.5-0.7-0.9-1-1.3l-0.3-0.4
	c-0.1-0.2-0.2-0.3-0.3-0.5c-0.1-0.1-0.1-0.3-0.2-0.4l-0.1-0.4l-0.1-0.4l0.3,0l0.1,0.4l0.1,0.4l0.2,0.4l0.3,0.5l0.3,0.4l0.4,0.5
	l0.2,0.3c0.4,0.5,0.8,1,1.2,1.5l0.3,0.6l0.1,0.5l0,0l0,0.1l0.2-0.2l0,0v0c0,0,0,0,0,0l0,0c0.1-0.2,0.1-0.3,0.2-0.5l0,0l0-0.6l0,0v0
	L36,79.4v0l-0.1-0.5l-0.2-0.7L35,76.7l1.2,1.4l0.3,0.6l0.4,0.9l0,0l0.2,0.6c0.1,0.3,0.1,0.6,0.2,0.9l0,0.9v0l0,1l0,1.2l0,0.8
	l0.1,0.4l0.1,0.3l0.1,0.2l0.2,0.2l0.2,0.1l0.3,0l0.6,0l-0.3,0.4c-0.1,0.1-0.3,0.3-0.4,0.4l-0.6,0.3h-0.7l-0.4-0.1h0l-0.4-0.1
	L36.2,86.9z M36,81.2L36,81.2L36,81.2L36,81.2z"/>
<path class="st0" d="M27.8,86.6l0.1,0.1l0.2,0.1l0.1,0.1l0.2,0.1l0.2,0.1l0.3,0l0.3,0l0.5-0.2l0.3-0.2l0.4-0.6
	c0.2,0.1,0.3,0.1,0.5,0.2l0.2,0.1l0.3,0.1l0.3,0l0.3,0l0.2-0.1l0.3-0.2l0,0l0.2-0.2l0,0l0.1-0.1l0.1-0.2l0,0l0-0.2l0-0.2l-0.2-0.5
	l0.6,0.3l0.4,0.1h0l0.4-0.1l0.4-0.1l0.3-0.2l0.2-0.2l0-0.1l0.1-0.6l0-0.7L35,82.6L34.8,82l0,0l-0.2-0.6l-0.3-0.6L34,80.2
	c-0.1-0.2-0.2-0.4-0.2-0.5L33.6,79l-0.1-0.5l0.3,0l0.1,0.5l0.2,0.6l0.2,0.5l0.3,0.6c0.1,0.2,0.2,0.4,0.3,0.6l0.2,0.6v0l0.2,0.6
	c0,0.2,0.1,0.3,0.1,0.5c0,0.2,0,0.5,0,0.7c0,0.2,0,0.5-0.1,0.7l-0.1,0.2L35,84.9l-0.4,0.2l-0.5,0.1l-0.4,0.1h-0.1l-0.4-0.1l0,0.1
	l0,0.2l0,0.1l-0.1,0.2L33,86l0,0l-0.3,0.2l0,0l-0.3,0.2c-0.1,0-0.2,0.1-0.3,0.1l-0.4,0l-0.3,0c-0.1,0-0.3,0-0.4-0.1l-0.2-0.1
	l-0.3-0.1l-0.3,0.5l-0.4,0.3l-0.5,0.2l-0.4,0l-0.3,0l-0.2-0.1l0,0l-0.2-0.1l-0.2-0.1l0,0l-0.2-0.2l-0.1-0.1L27.8,86.6z"/>
<path class="st0" d="M30.8,81.9l0.1,0.4l0.3,0.6l0,0l0.2,0.5l0,0l0.2,0.5c0,0.2,0.1,0.3,0.1,0.5c0,0.1,0,0.2,0,0.4v0.5l-0.3,0.5
	L31.3,86l0,0l-0.4,0.2l-0.6,0.2l0.1-0.6l0.1-0.8l0.1-1c0-0.9,0-1.7,0.1-2.6L30.8,81.9z M31,83l-0.2-0.4l0,0.2l0,1.1l-0.1,1l0,0
	c-0.1,0.4-0.1,0.7-0.2,1.1l0.2,0l0.3-0.2l0.2-0.1l0.2-0.4v-0.4l0-0.3L31.4,84l-0.2-0.5l0,0l0,0L31,83L31,83z"/>
<path class="st0" d="M33,84.9l0.2-0.1l0.2-0.2l0.1-0.2l0-0.3v-0.4l-0.1-0.4l-0.2-0.4L33,82.2v0l-0.4-0.7l0,0l-0.3-0.6l0,0l-0.4-0.9
	l-0.4-0.8l0,0l-0.3-0.7l-0.2-0.6l-0.1-0.4l0.3-0.1l0.1,0.4l0,0l0.2,0.6l0.3,0.7l0.4,0.8l0.4,0.9l0.3,0.6l0,0l0.4,0.7h0l0.3,0.6
	c0.1,0.2,0.1,0.3,0.2,0.5c0,0.1,0.1,0.3,0.1,0.4v0.5l-0.1,0.4l-0.2,0.3L33.4,85l-0.3,0.1L33,84.9z"/>
<polygon class="st0" points="30.2,78.7 30.2,79.2 30.4,80 30.4,80.1 30.6,80.9 30.6,80.9 30.8,81.5 30.9,82 30.6,82 30.5,81.6 
	30.4,81 30.3,81 30.1,80.1 30.1,80 30,79.2 30,78.7 "/>
<path class="st0" d="M28.6,79.3l-0.1,1l0,0.8l0,0.8l0,0l0,0.8l0,0l0.1,0.6l0,0c0.1,0.2,0.1,0.5,0.2,0.7l0.1,0.6l0,0l0,0.6l0,0v0
	L29,85.8c-0.1,0.1-0.1,0.2-0.2,0.4l0,0.1l-0.3,0.3l-0.3,0.2l-0.1,0l-0.3,0.1l-0.1-0.3c0.1,0,0.2-0.1,0.4-0.1l0.3-0.2l0.3-0.3l0,0
	l0.1-0.3l0.1-0.5v0l0,0l0-0.6l-0.1-0.5l-0.2-0.7l0,0l0,0l-0.1-0.5l0,0l0-0.8l0,0l0-0.9c0-0.3,0-0.5,0-0.8l0.1-1L28.6,79.3z"/>
<path class="st0" d="M24.7,86.2l0.3,0l0.2,0.2l0.2,0.2c0.1,0.1,0.2,0.1,0.3,0.2l0.3,0.1l0.5,0l0.2,0l0.3-0.3l0.4-0.4l0.2-0.4
	l0.2-0.6l0.2-0.7l0.1-0.7l0.1-0.7l0.1-0.7l0.3,0c-0.1,0.5-0.1,1-0.2,1.5l-0.1,0.7l0,0l-0.2,0.7c-0.1,0.2-0.2,0.4-0.3,0.6l-0.3,0.4
	c-0.1,0.1-0.3,0.3-0.4,0.4c-0.1,0.1-0.3,0.2-0.4,0.3l-0.4,0l-0.6,0l-0.3-0.1l-0.1,0l-0.3-0.2L25,86.6l0,0l-0.1-0.1l-0.1,0L24.7,86.2
	z"/>
<path class="st0" d="M24.9,86.2l0.3,0h0l0.3-0.1l0.2-0.1l0.2-0.3l0.1-0.3l0.1-0.3l0.1-0.3l0-0.4l0-0.4l0-0.5l0,0c0,0,0,0,0-0.1l0,0
	l0-0.1l0-0.4l0-1.2l0-0.7l0-0.4l0,0l0.1-0.6l0.1-0.6v0l0.2-0.5l0.2-0.3l0.2-0.2l0.2-0.2l0.2,0.2l-0.2,0.2l-0.2,0.2L27.1,79l-0.2,0.4
	v0l-0.2,0.6l-0.1,0.6l0,0.4l0,0.6c0,0.5,0,1.1,0,1.6l0,0.1c0,0,0,0.1,0,0.1l0,0.5l0,0.5v0l0,0.4c0,0.1,0,0.2-0.1,0.3
	c0,0.1-0.1,0.2-0.1,0.4l-0.2,0.3L26,86.2l-0.3,0.2l0,0l0,0l-0.4,0.1h0l-0.3,0L24.9,86.2z"/>
<polygon class="st0" points="28.4,77.9 28.6,77.6 28.7,77.4 28.8,77.2 28.8,77 28.8,77 28.8,77 28.7,76.7 28.7,76.6 28.9,76.5 
	29,76.6 29,77 29,77 29,77 29,77.2 29,77.5 28.8,77.7 28.6,78.1 "/>
<path class="st0" d="M30,75.4l0.1,0.2l0.1,0.2l0.1,0.2l0,0.2v0l0,0l0,0.2l0,0v0c0,0.1,0,0.2,0,0.3l0,0l0,0l-0.1,0.4l-0.3-0.1
	l0.1-0.4l0-0.3v0l0,0l0-0.2l0,0v0l0-0.2L30,75.9l-0.1-0.1l-0.1-0.2L30,75.4z"/>
<path class="st0" d="M31,75.9L31,75.9l0-0.4l-0.1-0.2L30.8,75l-0.1-0.1l-0.1-0.2l-0.1-0.2l-0.2-0.2l0,0.1l0,0.3c0,0.1,0,0.2-0.1,0.3
	c0,0.1-0.1,0.2-0.1,0.3L30,75.6c-0.1,0.2-0.2,0.3-0.3,0.5c-0.1,0.1-0.2,0.2-0.3,0.3l-0.3,0.2l-0.3,0.1l-0.4,0l-0.5,0.1c0,0,0,0,0,0
	l0,0l-0.5,0.1l-0.5,0.2l0,0l-0.4,0.2l-0.4,0.3l-0.3,0.3l-0.1,0.3l-0.3,0.4l-0.2,0.3L25,79.2l-0.2,0.3l-0.4,0.3L24,79.9l-0.4,0.1
	l-0.3,0L23,79.9l0,0l-0.1,0l-0.3-0.1l-0.3-0.2l-0.2-0.3L22.1,79l0.1-0.3l0.1-0.2l-0.2,0.1l-0.3,0.3l-0.2,0.3l-0.1,0.2l-0.1,0.3
	l0.1,0.3l0.1,0.3l0.3,0.4l0.4,0.3l0.6,0.4l0.4,0.2l0.1,0l0.6,0.2h0l0.5,0.1l0,0.3l-0.5-0.1h0l-0.6-0.2l-0.1,0l-0.4-0.2
	c-0.2-0.1-0.4-0.3-0.6-0.4l-0.4-0.4l-0.3-0.4L21.2,80l-0.1-0.4l0.1-0.4l0.1-0.3l0.2-0.3c0.1-0.1,0.2-0.2,0.3-0.3
	c0.1-0.1,0.2-0.2,0.3-0.2c0.3-0.2,0.6-0.4,0.9-0.6l-0.6,0.9l-0.1,0.3l0,0.3l0.1,0.2l0.1,0.2l0.2,0.2l0.2,0.1l0,0l0,0l0.3,0.1l0.3,0
	l0.3-0.1l0.3-0.1l0.4-0.2l0.2-0.2l0.3-0.3l0.2-0.3l0.3-0.4l0.2-0.3l0.3-0.3c0.1-0.1,0.3-0.2,0.4-0.3l0.4-0.2l0,0l0.5-0.2l0.5-0.1
	c0,0,0,0,0.1,0l0,0c0.2,0,0.4-0.1,0.5-0.1l0.4,0l0.2-0.1l0.2-0.2l0.2-0.2l0.2-0.3l0.1-0.2l0.1-0.2L30,75l0-0.3l0-0.3l0-0.7l0.4,0.4
	l0,0c0,0,0,0,0,0c0,0,0,0,0,0l0.2,0.2l0.2,0.2l0.1,0.2l0.1,0.2l0.1,0.3l0,0l0.1,0.2c0,0.1,0,0.2,0,0.3l0,0.1L31,75.9z M27.9,76.8
	C27.9,76.7,28,76.7,27.9,76.8L27.9,76.8C27.9,76.7,27.9,76.7,27.9,76.8L27.9,76.8z M27.8,76.6C27.8,76.6,27.8,76.6,27.8,76.6z
	 M27.8,76.5L27.8,76.5L27.8,76.5L27.8,76.5z"/>
<path class="st0" d="M14.9,80.1l0.4,0.5l0.1,0l0.4,0.4c0,0,0,0,0,0c0,0,0,0,0,0l0,0l0,0l0.4,0.4l0,0l0.4,0.3l0.4,0.2l0.5,0.2
	l0.1,0.5l0.3,0.6l0,0l0.3,0.5l0,0l0.4,0.5l0,0l0,0v0c0,0,0,0,0,0l0.3,0.4l0,0l-0.2,0.1l0,0l-0.4-0.5v0l0,0L18,84l0-0.1l-0.3-0.5
	l0-0.1l-0.3-0.6l-0.1-0.4L17,82.3l0,0L16.5,82l-0.5-0.3l0,0l-0.4-0.4c0,0,0,0-0.1,0c0,0,0,0,0,0l0,0l-0.3-0.4l-0.1,0l-0.4-0.6
	L14.9,80.1z M15.7,81.1C15.7,81.1,15.7,81.1,15.7,81.1L15.7,81.1z"/>
<path class="st0" d="M17.3,86c-0.4-0.5-0.8-0.9-1.2-1.3c-0.4-0.4-0.9-0.8-1.4-1.1l-0.1,0c-0.4-0.1-0.6-0.1-1,0.1
	c-0.1,0.2-0.2,0.3-0.2,0.5c-0.1,0.2-0.1,0.3-0.2,0.5l-0.1,0.8l-0.2-0.5c-0.2-0.5-0.3-1-0.4-1.5c0-0.5,0-1,0.2-1.6l0,0l0,0
	c0.1-0.1,0.1-0.2,0.2-0.3c0.1-0.1,0.2-0.2,0.2-0.3l0,0l0.2-0.1c-0.2-0.1-0.4-0.2-0.6-0.1c-0.2,0-0.4,0.2-0.6,0.5L12,82.4l-0.1-0.2
	c-0.3-0.5-0.5-0.8-0.4-1.2c0-0.4,0.2-0.7,0.6-1.2l0,0l0.2-0.1l0-0.1l-0.1-0.4l0-0.3l0.1-0.2l0.2-0.2l0.2,0.1l-0.2,0.2L12.4,79l0,0.2
	l0,0.4l0.1,0.4l-0.3,0l-0.1,0c-0.3,0.4-0.5,0.7-0.5,1c0,0.3,0.1,0.5,0.2,0.8l0.1-0.3l0,0c0.3-0.4,0.5-0.6,0.8-0.7
	c0.3-0.1,0.6,0,1,0.3l0.2,0.1l-0.6,0.4c-0.1,0.1-0.1,0.1-0.2,0.2c-0.1,0.1-0.1,0.2-0.2,0.3c-0.2,0.5-0.3,1-0.2,1.4
	c0,0.3,0.1,0.6,0.2,1c0.1-0.2,0.1-0.3,0.1-0.4c0.1-0.2,0.1-0.3,0.3-0.5l0,0l0,0c0.5-0.3,0.7-0.3,1.2-0.2l0.1,0l0,0
	c0.5,0.3,1,0.7,1.5,1.1c0.4,0.4,0.8,0.9,1.2,1.4L17.3,86z"/>
<polygon class="st0" points="12.2,79.9 11.8,79.6 11.8,79.6 11.3,79.1 11,78.7 10.6,78.1 10.6,78.1 10.3,77.7 10,77.3 10,77.3 
	9.8,76.9 9.6,76.6 9.6,76.6 9.3,76.3 9.1,76.2 8.9,76 8.7,75.8 8.7,75.8 8.6,75.8 8.7,75.5 8.8,75.6 8.8,75.6 9.1,75.8 9.3,75.9 
	9.3,76 9.5,76.2 9.8,76.5 9.8,76.5 10,76.8 10.3,77.2 10.3,77.2 10.5,77.5 10.8,77.9 10.8,77.9 11.2,78.5 11.5,78.9 12,79.4 
	12,79.4 12.3,79.7 "/>
<polygon class="st0" points="10.6,76.3 10.5,76.5 10.5,76.7 10.4,77 10.4,77 10.4,77.2 10.4,77.4 10.1,77.4 10.1,77.2 10.2,76.9 
	10.2,76.9 10.2,76.7 10.2,76.7 10.2,76.4 10.3,76.2 "/>
<path class="st0" d="M11.3,77.2l-0.1,0.2l-0.1,0.2l0,0.3l0,0.3l0,0.2l-0.3,0l0-0.2c0-0.1,0-0.2,0-0.3l0-0.3l0.1-0.3l0.1-0.3
	L11.3,77.2z"/>
<path class="st0" d="M12,77.9l-0.1,0.2l-0.1,0.2l-0.1,0.2l0,0.3l0,0.2l0,0v0l0,0.1l-0.3,0l0-0.1v0v0l0-0.3c0-0.1,0-0.2,0-0.3
	c0-0.1,0-0.2,0.1-0.2l0.1-0.3l0.1-0.2L12,77.9z"/>
<path class="st0" d="M9.9,75.3l-0.4,0l-0.3,0.1l-0.3,0.2l-0.1,0.2c-0.2,0.2-0.3,0.4-0.5,0.6c-0.3,0.2-0.5,0.4-0.8,0.6L7,77l0,0
	l-0.4,0.2c-0.1,0-0.3,0.1-0.4,0.1c-0.1,0-0.3,0-0.4,0c-0.1,0-0.2,0-0.4-0.1l-0.2-0.1l-0.3-0.2l-0.2-0.3l-0.2-0.3L4.5,76l-0.1-1
	l0.5,0.8l0.2,0.2h0L5.3,76h0l0,0l0.3,0l0.2-0.1l0-0.1c0,0,0-0.1,0-0.1l0,0l0-0.3l0,0v-0.1L6,74.9l0.2-0.3l0.3-0.2
	c0.1-0.1,0.2-0.1,0.4-0.2C7,74.1,7.1,74.1,7.3,74l0,0l0.4-0.2L8,73.6l0.2-0.1l0-0.2l0-0.2L8.4,73l0.1,0.2l0,0.3
	c-0.1,0.1-0.2,0.2-0.2,0.2C8,73.9,7.9,73.9,7.8,74c-0.2,0.1-0.3,0.1-0.5,0.2l0,0L7,74.4l-0.3,0.2l-0.3,0.2l-0.2,0.2l-0.1,0.3v0v0
	l0,0.3c0,0,0,0.1,0,0.1L6.2,76l-0.4,0.3H5.7h0l-0.4,0l0,0H5.3L5,76.2H5L4.8,76l0.1,0.2L5,76.5l0.2,0.2l0.2,0.2L5.5,77L5.8,77l0.3,0
	l0.4-0.1l0.4-0.1l0,0l0.4-0.2l0.7-0.5l0.4-0.5l0.2-0.2l0.4-0.3L9.5,75l0.5,0L9.9,75.3z"/>
<path class="st0" d="M6,75.9l0.3-0.2c0.2-0.1,0.4-0.2,0.6-0.3l0.1,0l0,0l0.4,0l0.2,0.3l0,0.4l-0.1,0.9l-0.3,0l0.1-0.8l0-0.3
	l-0.1-0.1l-0.2,0l0,0l-0.2,0.1l-0.3,0.2l-0.3,0.2L6,75.9z"/>
<path class="st0" d="M7.3,74.1l-0.2-0.3l-0.3-0.3l-0.3-0.3h0L6.3,73L6,72.8l-0.2-0.1l-0.2,0l0,0c0,0,0,0,0,0h0l-0.4-0.1l0,0
	l-0.2-0.1l-0.1,0l0,0l-0.2-0.1l-0.2-0.2l-0.3-0.4l-0.1-0.3l0-0.3l0.3,0l0,0.3l0.1,0.2L4.6,72l0.1,0.1L5,72.2l0,0l0.2,0.1l0.4,0.1
	c0,0,0,0,0,0c0,0,0,0,0,0c0,0,0,0,0,0l0,0l0.2,0l0.3,0.1l0.3,0.2L6.7,73l0,0L7,73.3c0.1,0.1,0.2,0.2,0.3,0.4L7.6,74L7.3,74.1z"/>
<polygon class="st0" points="6.5,72 6.2,72.2 6,72.4 6,72.4 5.8,72.6 5.6,72.4 5.8,72.2 5.9,72.2 6,72 6.3,71.8 "/>
<path class="st0" d="M5.1,70l0.2,0.1l0.1,0.3c0,0.1,0,0.1,0,0.2v0.1l-0.1,0.3l-0.2,0.2l-0.3,0.2l-0.3,0.1l-0.2-0.2l-0.2-0.1l-0.2,0
	l-0.2,0.1l-0.2,0.1l-0.2,0.2l-0.1,0.2L3,72.7c-0.1-0.3-0.1-0.6-0.2-0.9c0-0.2,0-0.4,0-0.6l0.1-0.4L3,70.6l0.2-0.2l0,0l0.2-0.2l0,0
	c0,0,0,0,0,0l0,0l0,0L3.7,70l0.1,0l0.4-0.1l0.1,0C4.6,70,4.7,70,5.1,70L5.1,70z M5,70.4L5,70.4l-0.4-0.1l-0.4,0l0,0l-0.3,0.1l0,0
	l-0.3,0.2h0l-0.2,0.2l0,0l-0.1,0.1l-0.1,0.2L3,71.2l0,0.5l0.1-0.2l0.2-0.2l0.3-0.2L4,71.1l0.3,0l0.3,0.1l0.1,0.1l0.1,0l0.2-0.2
	l0.1-0.1l0.1-0.2v0l0-0.2L5,70.4z"/>
<path class="st0" d="M4.9,70l0.3-0.1l0.1,0c0.1,0,0.2,0,0.3-0.1h0.1l0.3,0.1c0,0,0,0,0.1,0l0.3,0.2l0,0l0,0l0,0l0.3,0.3l0,0L7,70.9
	l0.4,0.4l0,0l0.3,0.2l0.7,0.4l-0.1,0.2l-0.7-0.4l-0.3-0.2l0,0c-0.2-0.1-0.3-0.3-0.5-0.4l-0.4-0.5l-0.3-0.3h0l0,0l-0.2-0.2l0,0
	l-0.3-0.1h0l-0.2,0.1l0,0l-0.2,0.1L4.9,70z"/>
<path class="st0" d="M6.9,68L6.9,68l0,0.1l0.2,0.2c0,0,0,0,0,0v0c0,0,0,0,0,0h0l0.2,0h0c0,0,0,0,0,0l0.2-0.1l0,0l0,0l0.2-0.1L8,67.9
	l0-0.2l-0.2-0.2l0,0l0,0l-0.4-0.3l0,0L7,67l0,0l0,0l0,0l-0.4-0.1c0,0,0,0,0,0l0,0c0,0,0,0,0,0l-0.4,0h0c0,0,0,0,0,0l0,0l0,0
	l-0.3,0.1l-0.2,0.2l-0.2,0.3l0,0L6,67.5H6l0.4,0h0l0.3,0.1l0.2,0.2L6.9,68z M6.7,66.7C6.7,66.7,6.7,66.7,6.7,66.7z M7.1,68.3
	C7.1,68.3,7.1,68.3,7.1,68.3z"/>
<polygon class="st0" points="7.1,69.9 7.4,69.9 7.8,69.7 7.9,70 7.5,70.1 7.1,70.1 "/>
<path class="st0" d="M7.8,67.5l0.5-0.1l0.3,0l0.1,0.1l0.2,0.2l0,0.1C8.9,68,9,68.1,9,68.3l0.1,0.6l0,0v0.5l0.1,0.6l0.2,0.5l0.1,0.2
	l0,0l0.3,0.3l0.3,0.2h0l0.4,0.2l0.3,0.4c0.1,0.2,0.2,0.3,0.3,0.5l0.4,0.5l0,0l0.3,0.3l0.5,0.4L13,74l0,0c0.7,0.4,1.5,0.9,2.2,1.3h0
	l1.3,0.7l0,0l1.3,0.9c0.2,0.2,0.5,0.4,0.7,0.7c0.1,0.2,0.3,0.3,0.4,0.5l0.3,0.4l0.5,0.6l0,0l0.6,0.4l0.6,0.3l0.6,0.3l-0.1,0.2
	l-0.6-0.3l0,0l-0.6-0.4l-0.6-0.5l0,0L19,78.7l-0.3-0.5l-0.4-0.5l-0.7-0.6l-1.3-0.9l-1.3-0.7l0,0l-1-0.6l-1.2-0.7l0,0l-0.7-0.4
	c-0.2-0.1-0.3-0.3-0.5-0.4L11.3,73l0-0.1l-0.4-0.5L10.6,72l0,0l-0.3-0.3L10,71.5l0,0l-0.4-0.2l-0.4-0.4l0-0.1l-0.1-0.2L8.9,70
	l-0.1-0.6v-0.6l0,0l-0.1-0.5l-0.1-0.4l0,0l-0.1-0.2l0,0l-0.2,0l-0.3,0L7.8,67.5z"/>
<path class="st0" d="M9,70.2l0.1-0.6l0,0l0.1-0.4l0,0l0.1-0.5l0,0l0-0.1l0.2-0.3l0.4-0.2l0.4-0.1l0,0l0,0l0.1,0l0,0l0-0.1l-0.1-0.2
	l-0.2-0.2l-0.4-0.3L9,67l0.5-0.3l0.5-0.1l0.5,0.1l0.3,0.2l0.3,0.2l0.2,0.3l0.2,0.4l0.1,0.4l0,0.5L11.8,69l-0.4,0.2h-0.1
	c-0.1,0-0.2,0-0.4,0l-0.1,0l0,0L10.6,69l0-0.1l-0.1-0.1l-0.1,0l-0.1-0.3l0-0.2h0L10,68.4l-0.3,0.2l-0.1,0.2l0,0l-0.1,0.4l0,0
	l-0.1,0.5l-0.1,0.6L9,70.2z M10.5,68.3l0,0.2l0.1,0.2l0,0l0.2,0.2l0,0l0.2,0.1l0,0l0.3,0l0.2-0.1l0-0.1l0-0.4l-0.1-0.4l-0.2-0.4
	l-0.2-0.2l-0.3-0.2l-0.3-0.1l-0.4-0.1l-0.4,0.1l0.1,0l0.4,0.3l0.2,0.3l0.1,0.3l0,0.3L10.5,68.3z"/>
<polygon class="st0" points="9.4,69.3 9.5,69.6 9.7,69.8 10.1,69.9 10.3,69.9 10.2,70.2 10,70.1 9.6,70 9.3,69.7 9.1,69.4 "/>
<path class="st0" d="M11.8,68.7l0.1,0.2l0.1,0.2v0.2L12,69.6l-0.1,0.2L11.6,70l0,0l-0.2,0.2l-0.3,0.2L11,70.6l-0.1,0.2l-0.1,0.2
	l-0.1,0.2l0,0.3l0,0.3l-0.3,0l0-0.3l0-0.3l0.1-0.3l0.1-0.3l0.2-0.2c0.1-0.1,0.2-0.1,0.2-0.2l0.2-0.2l0.2-0.2l0,0l0.2-0.2l0.1-0.2
	l0.1-0.2v-0.2L11.7,69l-0.1-0.2L11.8,68.7z"/>
<polygon class="st0" points="30.2,72.3 30.3,73.2 30.4,74 30.1,74 30,73.2 29.9,72.3 "/>
<path class="st0" d="M28.9,76.6c-0.2,0.1-0.2,0.1-0.3,0c0,0,0,0-0.1,0L27,76.5l0,0c-0.1,0-0.1,0-0.1,0c0,0-0.1,0-0.1,0l0,0
	c-0.9-0.1-1.8-0.3-2.7-0.4l0.1-0.6h0.2l0.4-0.2l0.2-0.2l0-0.4l-0.2,0.1l-0.5,0.4c-0.2,0.1-0.4,0.2-0.5,0.3h-0.1L23,75.6h-0.6
	l-0.6-0.1l-0.4-0.1L21,75l-0.3-0.4l-0.2-0.5c0-0.2,0-0.5,0-0.7l0.1-0.5l0.3-0.3l0.1-0.1l0.3-0.2l0.1,0l0.4-0.1l-0.2,0.5l0,0.6
	l0.1,0.4l0.2,0.2l0.3,0.2l0.3,0.1l0.3,0h0.1c0.2,0,0.4,0,0.6,0l0.8-0.4l0.5-0.3l0.4-0.3l0.5-0.2l0,0l0.1,0l0,0L26,73l0.7,0
	c0.2,0.1,0.4,0.1,0.6,0.2l0.4,0.3l0.1,0l0,0l0,0l-0.5-0.8l-0.6-0.5l-0.4-0.2l-0.3,0l-0.2,0.2l-0.3,0.3L25.3,73l-0.1,0l-0.6,0h0h-0.1
	l-0.5-0.1h0l-0.6-0.1L23,72.4L22.8,72c-0.1-0.1-0.1-0.3-0.2-0.4l0-0.5l0.2-0.3l0.4-0.2l0.5-0.1l0.1,0.3l-0.4,0.1L23,71l-0.1,0.2
	l0,0.3l0.2,0.3l0.2,0.4l0.3,0.3l0.5,0.1v0l0.5,0.1h0.1v0l0.6,0l0,0l0.3-0.2l0.3-0.3l0.3-0.3l0.5-0.1l0.5,0.2l0.6,0.5l0.6,0.9
	l0.3,1.2l-0.7-0.8l-0.1,0l-0.4-0.3l-0.1,0l-0.5-0.2l-0.7,0l-0.4,0.1h0l-0.1,0l-0.5,0.2c-0.3,0.2-0.6,0.4-0.8,0.6
	c-0.3,0.2-0.6,0.3-0.8,0.5h-0.1c-0.2,0-0.4,0-0.6,0l-0.4-0.1l-0.4-0.2l-0.3-0.2L21.4,74l-0.2-0.5l0.1-0.6l0.1-0.1L21,72.9l-0.1,0
	l-0.2,0.2l-0.1,0.4l0,0.7l0.2,0.4l0.3,0.3l0.4,0.3l0.4,0.1l0.5,0.1H23l0.5-0.2h0.1l0.5-0.2l0.5-0.4l0.4-0.2l0-0.1l0,0.1l0.4-0.2
	c0.2,0,0.4-0.1,0.6-0.1c0.3,0,0.5,0,0.8,0l0.9,0.2l0.4,0.4v0.5l-0.3,0.3l-0.1,0L27,75.5h-0.2h0l-0.6,0h-0.1l-0.5-0.1h-0.1l-0.3-0.1
	l-0.1,0l-0.1-0.1l0,0.1c-0.1,0.1-0.2,0.2-0.3,0.3c-0.2,0.1-0.3,0.2-0.5,0.3l0,0.1l0.7,0.1l1.8,0.3c0,0,0,0,0,0c0,0,0,0,0.1,0
	c0,0,0,0,0.1,0c0,0,0,0,0.1,0c0.5,0,1.1,0.1,1.6,0.1c0.1,0,0.2,0,0.2,0.1c0,0,0,0,0,0L28.9,76.6z M25.1,74.5l0.3,0.5l0,0l0.2,0.1
	h0.1l0.5,0.1h0.1h0l0.6,0H27l0.5-0.1l0,0l0.2-0.2v-0.3l-0.3-0.3l-0.8-0.2l-0.7,0l-0.5,0.1L25.1,74.5z"/>
<polygon class="st0" points="24.1,72.8 24.1,73 24.3,73.3 24.5,73.4 24.5,73.3 24.4,73 24.5,72.9 24.7,72.9 24.7,73 24.7,73.3 
	24.9,73.9 24.4,73.6 24.1,73.4 24,73.4 23.9,73 23.8,72.8 "/>
<path class="st0" d="M26.4,69.4l0.1,0.2l0,0l0.1,0.2l0,0l0,0l0.2,0.1l0,0c0.1,0.1,0.2,0.1,0.3,0.2l0.3,0.1l0,0h0.4
	c0.1,0,0.2-0.1,0.3-0.1l0.3-0.2l0,0l0.2-0.2l0,0c0,0,0,0,0,0l0.1-0.3l-0.1-0.1l0,0L28.3,69l0,0l0,0l-0.4-0.1l0,0l-0.3-0.1l-0.3,0
	l-0.3,0.1h0l-0.3,0.2l-0.2,0.2l0,0C26.5,69.3,26.5,69.3,26.4,69.4L26.4,69.4L26.4,69.4z M26.3,69.7l-0.1-0.1l-0.3,0.1h0l-0.3,0.1
	h-0.1l-0.2,0l0,0l0,0l-0.3-0.1v0l-0.1-0.1c0,0,0,0-0.1-0.1l0,0l-0.3,0.1l-0.3,0.1l-0.2,0.1l-0.3,0.2l-0.3,0.3l-0.2,0.1l0,0l-0.4,0.2
	l0,0c0,0,0,0,0,0l-0.1,0.1l0,0.1l0,0.2l0.1,0.1l0,0l0.2,0.1l-0.2,0.2l-0.2-0.1l0,0c0,0,0,0,0,0L22.3,71l0-0.3l0.1-0.2l0-0.1l0.1-0.1
	c0,0,0.1,0,0.1,0l0,0c0,0,0,0,0,0L23,70l0,0l0.2-0.1l0.3-0.3c0.1-0.1,0.2-0.2,0.3-0.2l0.2-0.2c0.1,0,0.2-0.1,0.3-0.1l0.4-0.1
	l0.2,0.2l0,0l0.2,0.2l0,0l0.2,0.1l0,0l0,0l0.1,0h0l0.3-0.1h0l0.4-0.1l0.2-0.1l0,0c0,0,0,0,0,0l0.2-0.2l0.3-0.2h0l0.3-0.1h0l0.3,0
	l0.4,0.1l0,0l0.4,0.1l0,0l0.3,0.1l0,0l0.1,0l0,0L29,69L29,69.1l0.1,0L29,69.3l0,0l-0.2,0.4l0,0L28.6,70l0,0l-0.3,0.3l0,0l-0.3,0.1
	h-0.5l0,0L27,70.3l0,0l-0.3-0.2l0,0l-0.2-0.2l0,0l0,0C26.5,69.9,26.4,69.8,26.3,69.7L26.3,69.7z M22.6,70.3L22.6,70.3L22.6,70.3
	L22.6,70.3L22.6,70.3z M22.6,70.3C22.6,70.3,22.6,70.3,22.6,70.3z"/>
<path class="st0" d="M30.6,69.3C30.6,69.3,30.6,69.3,30.6,69.3l-0.1,0l-1.6,0l0-0.3l1.6,0l0,0c0,0,0,0,0.1,0V69.3z"/>
<path class="st0" d="M32.8,68.2l0.3,0.1l0.3,0l0.3-0.1l0.4-0.3l0.3-0.3l0.1-0.1l0-0.1l-0.1-0.3l-0.2-0.3l-0.3-0.3l-0.3-0.2l0,0l0,0
	v0.3l-0.2,0.3l-0.4,0.2c-0.1,0-0.3,0-0.4,0C32.3,67,32.1,67,32,67l0,0l-0.5-0.1L31,66.8l0,0l-0.4-0.1l-0.5-0.1l-0.7,0l-0.5,0
	l-0.5,0.1l-0.5,0.1L27.3,67l-0.4,0.2l-0.3,0.2l-0.2,0.2L26,67.9l-0.2,0L25.5,68l-0.3,0.2L25,68.5l-0.1,0.3l0,0.3l-0.3,0l0.1-0.4
	l0.2-0.4l0.2-0.3l0.3-0.3l0.4-0.1l0.1,0l0.2-0.2l0,0l0.2-0.2l0.3-0.2c0.2-0.1,0.3-0.2,0.5-0.3c0.2-0.1,0.4-0.2,0.6-0.2
	c0.2,0,0.4-0.1,0.5-0.1l0.6-0.1l0,0l0.5,0h0l0.7,0c0.2,0,0.4,0,0.5,0.1l0.5,0.1l0,0l0.4,0.1l0.5,0.1l0,0l0.5,0.1l0.3,0l0.3-0.1
	l0.1-0.2v-0.2L33,65.8l0.6,0.3l0,0l0.4,0.2l0.3,0.3l0.3,0.3l0.1,0.3l0.1,0.3l-0.2,0.2L34.4,68c-0.1,0.1-0.3,0.2-0.4,0.3l-0.4,0.2
	l-0.4,0l-0.4-0.1L32.8,68.2z"/>
<path class="st0" d="M34.6,67.4l0.2-0.1l0,0c0.1,0,0.2-0.1,0.3-0.1l0.3,0l0.5,0.1l0.3,0.2l0.2,0.3l0.1,0.3l0.1,0.5l0,0.6v0l-0.1,0.7
	c-0.1,0.2-0.1,0.4-0.2,0.6l-0.3,0.4h0l-0.2,0.2l-0.2,0.2c-0.1,0-0.3,0.1-0.4,0.1l-0.3,0.1l0,0l-0.3,0l-0.1,0l-0.3-0.1h-0.1l-0.4-0.2
	l-0.3-0.2l0.1-0.2l0.3,0.2l0.3,0.1h0l0.4,0.1l0,0l0,0l0.2,0l0,0l0.3-0.1l0.3-0.1l0.1-0.1l0.1-0.2l0,0l0.3-0.4l0.2-0.5l0.1-0.6l0-0.6
	l-0.1-0.5l-0.1-0.3l-0.1-0.2l-0.2-0.2l-0.4-0.1l-0.3,0L35,67.6l0,0l-0.2,0.1L34.6,67.4z"/>
<polygon class="st0" points="32.5,71.5 33,71.8 33.6,72 33.4,72.2 33.4,72.2 33,72.7 32.6,72.8 32.1,72.8 31.8,72.7 31.3,72.5 
	31.5,72.3 31.8,72.5 32.1,72.5 32.5,72.5 32.8,72.4 33.1,72.1 32.9,72 32.4,71.7 "/>
<polygon class="st0" points="33.4,71.9 34,71.9 34.4,71.8 34.4,71.8 34.7,71.6 34.7,71.6 35,71.3 35.2,71.5 34.9,71.9 34.8,71.9 
	34.5,72.1 34.4,72.1 34,72.2 33.4,72.2 "/>
<path class="st0" d="M35.9,71.2l0.5,1.2l0.5,1.1l0.6,1.2l0.3,0.5l0.3,0.2l0.4,0l0.5-0.1l0.4-0.3l-0.1,0.7l-0.2,0.4l-0.2,0.3
	l-0.4,0.3l-0.3,0.1l-0.4,0.1h-0.4l-0.6-0.1l-0.2-0.6l-0.3-0.6l-0.3-0.6l-0.2-0.4l-0.2-0.4v0l-0.3-0.5L35,73.1l0,0l-0.4-0.6l0.2-0.1
	l0.4,0.6l0,0l0.3,0.5l0.3,0.5v0l0.3,0.4l0.2,0.4l0.3,0.6l0,0l0.3,0.7l0.2,0.5l0.4,0.1h0.4l0.3,0l0.2-0.1l0.4-0.2l0.2-0.2l0.1-0.3
	l0-0.1l-0.5,0.1l-0.5-0.1l-0.4-0.3l-0.4-0.6l-0.6-1.2c-0.3-0.8-0.7-1.6-1-2.4L35.9,71.2z"/>
<path class="st0" d="M35.9,74.1L35.9,74.1l0.2,1.1l0,0l0,0.7c0,0.2,0,0.4,0,0.6L36,77l0,0c0,0,0,0.1,0,0.1l0,0
	c-0.1,0.2-0.2,0.3-0.3,0.5l-0.4,0.3l0,0L35,78.3l0-0.9l-0.1-0.7l-0.3-0.6l-0.4-0.6l-0.2-0.4l-0.4-0.5l0,0l-0.4-0.7l0,0l-0.3-0.5
	l0.2-0.1l0.3,0.5l0,0l0.4,0.7l0.4,0.5l0,0l0.2,0.4l0.4,0.6c0.1,0.2,0.2,0.4,0.3,0.6l0.1,0.7l0,0.3l0.3-0.2l0.2-0.4c0,0,0,0,0,0h0
	l0.1-0.5l0-0.5l0-0.7l-0.1-1l0-0.1L35.9,74.1z M36,77.1L36,77.1L36,77.1L36,77.1z"/>
<path class="st0" d="M37.1,76.6l0.3,0.9l0.2,0.8l0,0l0.2,0.7l0.2,0.6l0.3,0.5l0,0l0.2,0.2l0.2,0.1l0.4,0.1h0l0.7-0.1l-0.1,0.5
	l-0.2,0.3l-0.3,0.3L39,81.8l-0.4,0.1l-0.4,0c-0.1,0-0.3,0-0.4-0.1l-0.5-0.2l-0.5-0.4h0.4v0.1l0.1-0.1l0.2,0.2l0.4,0.1l0.4,0.1l0.3,0
	l0.4-0.1l0.3-0.2l0.2-0.3l0.1-0.3l0,0l-0.3,0.1h-0.1l-0.4-0.1l-0.2-0.1c0,0,0,0-0.1,0l0,0c0,0,0,0,0-0.1v0l0,0l-0.2-0.2l0-0.1
	l-0.3-0.5l-0.2-0.6l0,0l-0.2-0.7c-0.1-0.3-0.1-0.6-0.2-0.9l-0.3-0.9L37.1,76.6z"/>
<path class="st0" d="M24.4,70.8l0.3-0.2l0.4-0.1l0,0l0.1,0c0.1,0,0.3,0,0.4,0l0.1,0l0.4,0.1l-0.1,0.3l-0.4-0.1l0,0l-0.3,0l-0.1,0
	l-0.3,0.1L24.5,71L24.4,70.8z"/>
<polygon class="st0" points="24.7,71.4 24.9,71.1 25,71 25.3,70.9 25.4,70.9 25.4,70.9 26,71 26.3,71.1 26.2,71.3 25.9,71.2 
	25.4,71.2 25.4,71.2 25.3,71.2 25.1,71.3 25.1,71.3 24.9,71.5 "/>
<polygon class="st0" points="25,71.9 25.4,71.6 25.4,71.6 25.8,71.4 26.3,71.5 26.3,71.7 25.8,71.7 25.6,71.8 25.6,71.8 25.2,72.1 
	"/>
<path class="st0" d="M31.3,124.6l-0.8,0l0,0h-0.1l-0.6-0.2l-0.5-0.4l-0.4-0.6l-0.4-0.5l-0.3-0.2l-0.3,0l-0.1,0.1l0.1,0.2l0.1,0.4
	l-0.1,0.4l-0.3,0.4l-0.6,0.1l-0.1,0v0.1l0.1,0.4L27,125l0.4,0.1l0.4,0.1l0.3-0.2l0.4-0.5l0.2,0.2l-0.5,0.5l-0.4,0.3
	c-0.2,0-0.4-0.1-0.5-0.1c-0.1-0.1-0.3-0.1-0.4-0.2l-0.3-0.4l-0.1-0.5v-0.5l0.4,0l0.5-0.1l0.2-0.3l0.1-0.3l0-0.3l-0.2-0.3l0.3-0.3
	l0.4,0l0.4,0.3c0.1,0.2,0.3,0.4,0.4,0.6l0.3,0.6l0.5,0.3l0.5,0.2h0.1l0,0l0.8,0L31.3,124.6z"/>
<polygon class="st0" points="27.9,125.3 28.4,125.5 28.3,125.7 27.8,125.5 "/>
<path class="st0" d="M27.6,122.8l-0.6,0.1h-0.7l-0.3,0.1l-0.4,0.3l0,0l-0.2,0.3l-0.1,0.4l0,0.4l0,0.1l0.4-0.5l0.4-0.1l0,0l0,0
	l0.3-0.1l0.1,0l0.2,0.1l0,0l0,0l0,0l0,0l0,0.2l-0.1,0l-0.2-0.1l-0.3,0l0,0l0,0l-0.3,0.1l-0.4,0.4l-0.2,0.9c-0.1-0.4-0.2-0.8-0.3-1.2
	l0-0.5l0.1-0.5l0.3-0.4l0,0l0.4-0.3l0.4-0.1H27l0.6-0.1L27.6,122.8z"/>
<polygon class="st0" points="28.1,126.9 28.2,127.4 28.2,127.8 28,127.9 27.9,127.5 27.8,127 "/>
<path class="st0" d="M31.2,128.3c0.1,0.2,0.2,0.3,0.3,0.4c0.1,0.1,0.2,0.3,0.3,0.5l-0.2,0.1c-0.1-0.2-0.2-0.3-0.3-0.5
	c-0.1-0.1-0.2-0.3-0.3-0.4L31.2,128.3z"/>
<path class="st0" d="M35.6,125.3c0,0,0-0.1,0.1-0.2c0.1-0.1,0.1-0.3,0.2-0.4l0,0l0,0c0.6-0.7,1.3-1.3,2-2c0.7-0.6,1.3-1.2,1.9-1.9
	c0.2-0.3,0.2-0.4,0.3-0.6c0.1-0.2,0.1-0.3,0.2-0.6l0-0.2l0.2,0.1c0.3,0.2,0.7,0.3,1,0.3c0.3,0,0.6-0.1,0.9-0.3
	c0.4-0.3,0.4-0.4,0.5-0.8c-0.2,0.1-0.3,0.2-0.5,0.2c-0.2,0.1-0.5,0-0.7-0.2c0,0,0,0,0,0l0,0l0,0c-0.1-0.2-0.2-0.4-0.2-0.6
	c0-0.2,0-0.3,0-0.6l0-0.2l0.2,0.1c0.7,0.2,1.2,0.3,1.7,0.2c0.5-0.1,1-0.3,1.4-0.6c0.2-0.2,0.4-0.5,0.5-0.9c0.1-0.2,0.1-0.5,0.1-0.8
	c-0.1,0.2-0.3,0.3-0.5,0.4c-0.4,0.1-0.8,0.1-1.2,0l0,0l0,0c-0.2-0.1-0.4-0.2-0.6-0.4c-0.2-0.1-0.4-0.3-0.5-0.5h0
	c-0.1-0.1-0.1-0.2-0.2-0.2c-0.3-0.3-0.5-0.5-0.9-0.7l-0.4-0.2l0.5,0c0.5,0,0.8-0.1,1.2-0.4l0.1-0.1c0.2-0.2,0.4-0.4,0.5-0.7
	c0.1-0.3,0-0.6-0.2-1l-0.2-0.3c-0.3,0.9-1,0.8-1.8,0.7c-0.1,0-0.2,0-0.3,0L40,112h0c-0.2,0-0.5-0.1-0.7-0.1c-0.2,0-0.5,0-0.7-0.1
	l-0.1,0l0-0.1c0-0.1,0-0.2,0-0.3c-0.1-1.2-0.2-1.6,0.5-2.8l0,0c0.4-0.7,1.2-1.3,1.9-1.9c0.8-0.6,1.5-1.2,1.9-1.9
	c0.2-0.4,0.3-0.7,0.5-1.1c0.1-0.4,0.2-0.7,0.3-1.1l0.1-0.2l0.2,0.1c0.2,0.2,0.4,0.3,0.5,0.4c0.5,0.4,0.9,0.7,1.3,1.4l0,0l0,0
	c0.1,0.3,0.2,0.6,0.2,1c0,0.2-0.1,0.4-0.2,0.6c-0.1,0.2-0.3,0.3-0.5,0.4c-0.1,0-0.1,0-0.2,0.1c0.2,0,0.4,0.1,0.7,0.1l0.1,0
	c0.1,0,0.6,0,0.9-0.2c0.2-0.1,0.3-0.3,0.4-0.4c0.1-0.1,0.2-0.3,0.2-0.5l0.2-0.4l0.1,0.4c0,0,0,0.1,0,0.2c0.1,0.5,0.2,0.6,0.1,1.2
	l0,0l0,0c-0.4,0.8-0.8,1-1.4,1.2c-0.2,0.1-0.4,0.2-0.6,0.3c-0.1,0.1-0.2,0.2-0.3,0.3c0.6-0.3,1-0.3,1.6-0.2c0.2,0,0.5,0,0.8,0h0
	c0.9-0.1,1.6-0.4,2.1-0.8c0.4-0.4,0.7-1,0.7-1.8l0-0.1c0.4-0.1,0.8-0.3,1.2-0.4l0,0c0.1,0,0.4-0.2,0.6-0.3c0.1,0,0.1-0.1,0.2-0.1
	c0.7-0.6,1-1,1.3-1.4c0.3-0.4,0.5-0.9,0.8-1.7c0.1-0.5,0.2-0.9,0.3-1.3c0.1-0.4,0.1-0.9,0.2-1.3c-0.1-1.1-0.1-2-0.3-2.8
	s-0.5-1.7-0.9-2.7l0.2-0.1c0.4,1,0.7,1.8,0.9,2.7c0.2,0.9,0.3,1.8,0.3,2.9v0l0,0c0,0.5-0.1,0.9-0.2,1.4c-0.1,0.4-0.2,0.9-0.3,1.3
	l0,0l0,0c-0.3,0.8-0.5,1.3-0.8,1.7c-0.3,0.4-0.7,0.8-1.4,1.4l0,0l0,0c0,0-0.1,0.1-0.2,0.1c-0.2,0.1-0.5,0.3-0.7,0.4l-1,0.3
	c0,0.9-0.3,1.5-0.8,1.9c-0.5,0.5-1.2,0.7-2.2,0.8l0,0h0c-0.3,0-0.6,0-0.8,0c-0.7-0.1-1.1-0.1-2,0.5l-0.5,0.3l0.3-0.5
	c0.1-0.2,0.2-0.3,0.3-0.5c0.1-0.1,0.2-0.2,0.4-0.4l0,0l0,0c0.2-0.1,0.4-0.2,0.6-0.3c0.5-0.2,1-0.4,1.3-1.1c0.1-0.4,0.1-0.6,0-0.9
	c0,0.1-0.1,0.1-0.1,0.2c-0.1,0.2-0.2,0.3-0.4,0.5l0,0l0,0c-0.4,0.2-1,0.2-1,0.2h0l-0.1,0c-0.6,0-0.8-0.1-1.4-0.3l-0.8-0.3l0.8,0
	c0.3,0,0.5,0,0.7-0.1c0.2-0.1,0.3-0.2,0.3-0.3c0.1-0.1,0.1-0.3,0.1-0.4c0-0.3-0.1-0.6-0.2-0.8c-0.4-0.6-0.8-0.9-1.2-1.3
	c-0.1-0.1-0.2-0.2-0.4-0.3c-0.1,0.3-0.2,0.7-0.3,1c-0.1,0.4-0.3,0.7-0.5,1.1l0,0c-0.4,0.8-1.2,1.4-2,2c-0.7,0.6-1.4,1.1-1.8,1.8l0,0
	c-0.6,1.1-0.6,1.5-0.5,2.6c0,0.1,0,0.1,0,0.2c0.2,0,0.4,0.1,0.6,0.1c0.2,0,0.5,0,0.7,0.1l0,0l0.8,0.1c0.1,0,0.2,0,0.3,0
	c0.7,0.1,1.4,0.2,1.5-0.8l0-0.3c0.2,0.2,0.4,0.5,0.6,0.7l0,0c0.2,0.5,0.3,0.9,0.2,1.2c-0.1,0.3-0.3,0.6-0.6,0.8c0,0-0.1,0.1-0.1,0.1
	c-0.4,0.3-0.7,0.3-1,0.4c0.3,0.2,0.4,0.3,0.6,0.6c0.1,0.1,0.1,0.1,0.2,0.2c0.2,0.2,0.3,0.3,0.5,0.4c0.2,0.1,0.3,0.2,0.6,0.4
	c0.4,0.1,0.8,0.1,1.1,0c0.3-0.1,0.5-0.4,0.6-0.8l0.2-0.9l0,1c0,0.6,0,1.1-0.1,1.5c-0.1,0.4-0.3,0.8-0.6,1l0,0l0,0
	c-0.5,0.3-1,0.5-1.5,0.6c-0.5,0.1-1.1,0-1.7-0.2c0,0.1,0,0.2,0,0.4c0,0.1,0.1,0.3,0.2,0.5c0,0,0,0,0,0c0.1,0.1,0.2,0.1,0.4,0.1
	c0.2,0,0.4-0.1,0.6-0.3c0.1,0,0.1-0.1,0.1-0.1l0.3-0.3l-0.1,0.4c0,0,0,0.1,0,0.2c-0.1,0.6-0.2,0.7-0.6,1.1l0,0l0,0
	c-0.3,0.2-0.7,0.3-1.1,0.3c-0.3,0-0.7-0.1-1-0.2c-0.1,0.2-0.1,0.4-0.1,0.5c-0.1,0.2-0.2,0.3-0.3,0.6l0,0l0,0
	c-0.6,0.7-1.3,1.3-1.9,1.9c-0.7,0.6-1.4,1.3-2,1.9c0,0.1-0.1,0.3-0.2,0.4c0,0,0,0.1-0.1,0.2L35.6,125.3z"/>
<path class="st0" d="M52.4,95.9l0-0.7l0.2-0.8l0,0l0-0.1l0.4-0.4l0.1,0l0.8-0.5h0c0.5-0.3,0.9-0.6,1.2-1c0.1-0.2,0.3-0.4,0.4-0.6
	c-0.2,0.2-0.4,0.3-0.7,0.5l0,0l0,0c-0.1,0-0.2,0.1-0.4,0.1c-0.8,0.2-1.3,0.3-2.1,0.8c-0.4,0.4-0.6,0.7-0.7,1
	c-0.1,0.3-0.2,0.7-0.3,1.2c0.1,0.3,0.3,0.5,0.5,0.6C52,96,52.2,96,52.4,95.9z M52.7,95.3l0,0.7c0.3,1,0.5,2.1,0.4,3.1
	c0,1.1-0.3,2.1-0.7,3.1l0,0l0,0c-0.4,0.4-0.7,0.7-1,0.9c-0.3,0.2-0.7,0.4-1.3,0.5l0,0h-0.1c-0.1,0-0.1,0-0.1,0c-0.2,0-0.5,0-0.6,0v0
	c-1.4-0.4-2.3-0.9-3.3-1.7c-1-0.8-1.9-1.8-3.2-3.3c-1.2-0.8-3.2-2.2-4.7-4.3c-1-1.4-1.9-3.1-2.1-5l0.3,0c0.3,1.9,1.1,3.5,2.1,4.9
	c1.5,2,3.4,3.5,4.6,4.3l0,0l0,0c1.3,1.5,2.2,2.6,3.2,3.3c0.9,0.7,1.9,1.2,3.2,1.6h0c0.1,0,0.3,0,0.5,0c0.1,0,0.1,0,0.1,0H50
	c0.5-0.1,0.9-0.2,1.2-0.4c0.3-0.2,0.6-0.5,1-0.8c0.4-0.9,0.6-1.9,0.7-3c0-1-0.1-2-0.4-2.9c-0.3,0.1-0.6,0.1-0.8-0.1
	c-0.3-0.2-0.4-0.4-0.6-0.8l0,0l0,0c0.1-0.5,0.1-0.9,0.3-1.3c0.2-0.4,0.4-0.7,0.8-1.1l0,0l0,0c0.8-0.5,1.4-0.6,2.2-0.8
	c0.1,0,0.2,0,0.3-0.1c0.4-0.2,0.6-0.4,1-0.8c0.1-0.1,0.1-0.1,0.2-0.2l0.5-0.6l-0.3,0.7c-0.2,0.6-0.5,1-0.8,1.4
	c-0.3,0.4-0.7,0.7-1.2,1.1l0,0l-0.8,0.5l-0.1,0l-0.3,0.3l0,0L52.7,95.3z"/>
<path class="st0" d="M54.6,92C54.6,92,54.6,92,54.6,92C54.6,92,54.6,92,54.6,92c0.4-0.7,0.6-1.2,0.7-1.8c0.1-0.3,0.1-0.5,0.1-0.8
	c-0.1,0.2-0.2,0.4-0.5,0.7l0,0l-0.1,0c-0.1,0-0.1,0.1-0.2,0.1c-0.3,0.1-0.6,0.3-0.8,0.3c-0.3,0.1-0.7,0.2-1.2,0.4
	c-0.4,0.2-0.9,0.3-1,0.5l0,0c-0.1,0.1-0.4,0.4-0.6,0.7c-0.1,0.2-0.2,0.3-0.2,0.4v0l0,0c-0.1,0.8-0.1,0.9,0,1.5l0,0.2l0.3,0.5
	l0.3,0.4l-0.2,0.1c-0.2-0.3-0.4-0.7-0.6-1l0-0.2c-0.1-0.7-0.1-0.8,0-1.6c0-0.1,0.1-0.3,0.2-0.5c0.2-0.3,0.5-0.6,0.6-0.8l0,0
	c0.2-0.2,0.6-0.4,1.1-0.6c0.5-0.2,1-0.3,1.2-0.4l0,0h0c0.2,0,0.5-0.1,0.7-0.2c0.1,0,0.1-0.1,0.2-0.1l0,0l0.1,0
	c0.5-0.5,0.5-0.6,0.6-1.1c0-0.1,0.1-0.3,0.1-0.4l0.2-0.8l0,0.8c0,0.7,0,1.3-0.2,1.9c-0.1,0.6-0.4,1.1-0.7,1.8l0,0l0,0
	c-0.1,0.1-0.1,0.1-0.2,0.1c0,0,0,0,0,0L54.6,92z"/>
<path class="st0" d="M54,89.1c-0.4,0.2-0.9,0.4-1.3,0.6c-0.4,0.2-0.9,0.4-1.3,0.6c-0.6,0.7-0.8,1.3-0.9,1.9
	c-0.1,0.6,0.1,1.3,0.3,2.2l0.1,0.3l-0.3-0.2c-0.7-0.4-1.3-0.8-1.7-1.4c-0.4-0.5-0.7-1.2-0.7-2.1v0l0,0c0-0.1,0-0.2,0.1-0.3
	c0.1-0.2,0.1-0.5,0.2-0.7l0,0l0,0c0.3-0.6,0.7-1.2,1.2-1.6c0.4-0.3,1-0.5,1.6-0.6c0.1,0,0.2,0,0.3,0c0.3,0,0.5,0,0.8,0l0,0
	c1.1,0.1,1.5,0,2.5-0.3l0,0c0.4-0.4,0.5-0.6,0.6-1c0-0.1,0.1-0.2,0.1-0.4l0.2-0.8l0,0.9c0,0.7,0,1.2-0.2,1.6
	c-0.2,0.4-0.6,0.7-1.2,1.1l0,0.1c-0.2,0.6-0.3,1.1-0.8,1.6l0,0h-0.1v-0.1l-0.1-0.1C53.7,90,53.9,89.6,54,89.1z M52.7,89.5
	c0.5-0.2,1-0.4,1.5-0.7c0.6-0.4,0.9-0.7,1.1-1c0.1-0.1,0.1-0.3,0.2-0.4c-0.1,0.1-0.2,0.3-0.4,0.5l0,0l-0.1,0
	c-1.1,0.3-1.4,0.4-2.6,0.3c-0.2,0-0.5,0-0.7,0c-0.1,0-0.2,0-0.3,0h0c-0.5,0-1,0.2-1.4,0.5c-0.5,0.4-0.9,0.9-1.1,1.5
	c-0.1,0.2-0.1,0.4-0.2,0.6c0,0.1,0,0.2-0.1,0.3c0,0.8,0.2,1.4,0.6,1.9c0.3,0.4,0.8,0.8,1.4,1.1c-0.2-0.7-0.3-1.3-0.2-1.9
	c0.1-0.7,0.4-1.3,1-2.1l0,0l0,0C51.7,89.8,52.2,89.6,52.7,89.5z"/>
<path class="st0" d="M50,88.3c0.2-0.6,0.2-1,0.1-1.3c-0.1-0.2-0.4-0.4-0.8-0.6c0.5,1.2-0.4,2-1.3,2.8c-0.1,0.1-0.2,0.2-0.3,0.2
	l-0.4,0.6c-0.3,0.7-0.3,1.4-0.2,1.9c0.2,0.7,0.7,1.2,1.3,1.8l0.6,0.2c0.3,0.1,0.5,0.1,0.8,0.2c0.2,0,0.5,0,0.8,0.1l0,0.3
	c-0.3,0-0.6,0-0.8-0.1c-0.2,0-0.5-0.1-0.8-0.2l0,0l-0.7-0.3l0,0c-0.7-0.5-1.2-1.2-1.5-1.9c-0.2-0.6-0.2-1.4,0.2-2.1l0,0
	c0.1-0.2,0.3-0.5,0.4-0.7l0,0c0.1-0.1,0.2-0.2,0.3-0.2c0.9-0.8,1.8-1.6,1.1-2.8l-0.2-0.3L49,86c0.7,0.3,1.1,0.5,1.3,0.9
	c0.2,0.4,0.2,0.8-0.1,1.5L50,88.3z"/>
<path class="st0" d="M49.1,87.8c-1.4-1.2-2.9-2.8-4-4.6c-0.9-1.5-1.4-3-1.4-4.5c-0.1-1.6,0.2-3.6,1.2-5.2c0.7-1.2,1.8-2.1,3.3-2.3
	l0.4,0l-0.4,0.3c-0.2,0.2-0.4,0.3-0.4,0.4c-0.1,0.1-0.1,0.2-0.2,0.5c0,0,0,0,0,0.1c0,0.1,0,0.1,0,0.2c0,0.2-0.1,0.3-0.1,0.4
	c0,0,0,0.1,0,0.1c0,0.1,0,0.3,0,0.4c0,0.1,0.1,0.3,0.1,0.4c0.2,0.7,0.6,1.7-0.2,2.1l0,0h0c-0.1,0-0.2,0-0.3,0c-0.1,0-0.2,0-0.3,0
	l0,0c-0.5,0-0.7-0.1-0.9-0.3c0.1,0.3,0.2,0.6,0.4,0.9c0.3,0.3,0.6,0.6,1.1,0.9c0,0,0.1,0,0.1,0c0.1,0,0.3,0.1,0.4,0.1
	c0.3,0,0.5-0.1,0.7-0.1c0.2-0.1,0.3-0.2,0.5-0.4l0.2-0.3c-0.1,0-0.2-0.1-0.3-0.1c-0.1-0.1-0.2-0.1-0.4-0.3l0,0l0,0
	c-0.1-0.1-0.2-0.3-0.3-0.4c-0.1-0.1-0.1-0.3-0.2-0.5l-0.1-0.2l0.2,0.1c0.1,0,0.2,0.1,0.3,0.1c0.3,0.1,0.5,0.1,0.7-0.2
	c0-0.4,0-0.7-0.1-1.1c-0.1-0.5-0.2-1,0-1.5l0,0l0,0c0.2-0.4,0.3-0.6,0.6-0.9c0,0,0.1-0.1,0.1-0.1l0.2,0.2c0,0-0.1,0.1-0.1,0.1
	c-0.2,0.3-0.4,0.4-0.5,0.8c-0.1,0.5,0,1,0,1.4c0.1,0.4,0.1,0.7,0.1,1.2l0,0l0,0c-0.4,0.5-0.6,0.4-1,0.3c0,0.1,0.1,0.1,0.1,0.2
	c0.1,0.1,0.1,0.2,0.2,0.4c0.1,0.1,0.2,0.2,0.3,0.2c0.1,0.1,0.2,0.1,0.4,0.2l0.1,0.1c-0.1,0.2-0.3,0.4-0.4,0.6l0,0
	c-0.3,0.3-0.4,0.4-0.6,0.5c-0.2,0.1-0.4,0.1-0.8,0.2l0,0h0c-0.1,0-0.3,0-0.5-0.1c-0.1,0-0.1,0-0.2,0l0,0l0,0c-0.5-0.3-1-0.6-1.2-1
	c-0.3-0.4-0.5-0.9-0.5-1.5l0-0.5l0.3,0.4c0.3,0.5,0.4,0.6,1,0.6c0.1,0,0.2,0,0.2,0c0.1,0,0.2,0,0.3,0c0.5-0.3,0.2-1.2,0-1.8
	c-0.1-0.2-0.1-0.3-0.1-0.5l0,0v0c0-0.1,0-0.3,0-0.4c0-0.1,0-0.1,0-0.2l0,0v0c0-0.1,0-0.3,0.1-0.5c0-0.1,0-0.1,0-0.2l0,0l0,0
	c0-0.1,0,0,0-0.2c0.1-0.3,0.1-0.4,0.2-0.5c0.1-0.1,0.1-0.2,0.2-0.3c-1.2,0.3-2.1,1.1-2.7,2.1c-0.9,1.5-1.2,3.5-1.1,5v0
	c0,1.5,0.6,3,1.4,4.4c1.1,1.8,2.6,3.4,3.9,4.6L49.1,87.8z"/>
<path class="st0" d="M52,72.7c0,0.1-0.1,0.4-0.2,0.6c0,0.1,0,0.2,0,0.2l0,0l0,0c0,0.3,0.1,0.5,0.1,0.7c0.1,0.8,0.2,1.1-0.7,2.1l0,0
	l0,0c-0.6,0.4-0.8,0.5-1.3,0.6c-0.1,0-0.1,0-0.2,0.1l0,0l0,0c-0.1,0.9-0.1,1.6,0,2.1c0.2,0.6,0.6,1,1.4,1.5c0.2,0,0.4,0.1,0.6,0.1
	c0.1,0,0.1,0,0.2,0l0,0l-0.2-0.4l-0.2-0.5l0-0.5v0v0c0-0.1,0.1-0.4,0.1-0.7c0.1-0.2,0.1-0.3,0.2-0.4l0.2-0.2
	c0.3-0.4,0.6-0.6,0.7-0.9c0.2-0.3,0.3-0.6,0.4-1.1c0.1-0.7,0.2-1.2,0.2-1.8c0-0.5,0-1.1-0.1-1.8l0.3,0c0.1,0.7,0.1,1.3,0.1,1.8
	c0,0.6-0.1,1.1-0.2,1.8l0,0c-0.1,0.5-0.3,0.8-0.5,1.2c-0.2,0.3-0.5,0.6-0.8,1l0,0l-0.3,0.3l0,0c-0.1,0-0.1,0.1-0.2,0.3
	c-0.1,0.2-0.1,0.5-0.1,0.6v0l0,0.4l0.2,0.5l0.2,0.3l0.6,0.6l-0.4-0.1c-0.2,0-0.4-0.1-0.6-0.1c-0.2,0-0.4-0.1-0.6-0.1l0,0l0,0
	c-0.9-0.5-1.4-1-1.6-1.6c-0.2-0.6-0.2-1.3-0.1-2.3v0l0-0.2l0.1,0c0.1,0,0.2-0.1,0.3-0.1c0.5-0.1,0.7-0.2,1.2-0.6
	c0.8-0.8,0.7-1.1,0.6-1.8c0-0.2-0.1-0.4-0.1-0.7c0-0.1,0-0.2,0-0.4c0.1-0.2,0.2-0.6,0.2-0.7L52,72.7z"/>
<path class="st0" d="M53.4,76l0.4,0.1c0,0,0.1,0,0.1,0c0.1,0,0.2,0,0.3,0h0v0c0.1,0,0.2,0,0.3,0c0.1,0,0.1,0,0.2-0.1l0,0
	c0.2-0.1,0.4-0.2,0.7-0.4c0.2-0.2,0.3-0.4,0.4-0.6l0,0c0-0.1,0.1-0.2,0.1-0.4c0-0.1,0-0.1,0-0.2l0,0l0,0c0-0.4,0-0.5-0.1-0.7
	c-0.1,0.2-0.2,0.3-0.3,0.4c-0.1,0.1-0.3,0.2-0.4,0.2c-0.1,0-0.3,0-0.4-0.1c-0.2-0.1-0.3-0.3-0.5-0.6l0,0l0,0c0-0.2,0-0.4,0-0.5
	c0-0.2,0-0.4,0-0.5c0-0.1,0-0.2-0.1-0.2c-0.1-0.4-0.1-0.5-0.5-0.9c-0.3-0.3-0.5-0.5-0.8-0.8c-0.3-0.2-0.6-0.4-0.9-0.6l0,0l0,0
	c-0.6-0.2-1-0.3-1.5-0.4c-0.5-0.1-1-0.1-1.6-0.2c-0.6,0.1-1.2,0.1-1.7,0.3c-0.5,0.1-1,0.3-1.6,0.6c-0.3,0.2-0.5,0.3-0.7,0.5
	c-0.2,0.2-0.4,0.3-0.6,0.5c-0.2,0.2-0.3,0.4-0.5,0.6s-0.3,0.4-0.4,0.6l0,0c-0.1,0.1-0.1,0.1-0.1,0.2c-0.2,0.3-0.3,0.6-0.4,0.9
	l-0.1,0.3c-0.1,0.3-0.2,0.6-0.3,0.8c-0.1,0.3-0.2,0.5-0.3,0.8c-0.2,0.8-0.2,1.4-0.3,2c0,0.6,0,1.2,0.1,2c0.2,1.2,0.5,2.4,1,3.5
	c0.5,1.1,1.1,2.2,1.9,3.2l0,0c0.4,0.5,0.8,1.1,1.3,1.6c0.5,0.6,1.1,1.2,1.7,1.7l-0.2,0.2c-0.6-0.5-1.1-1.1-1.7-1.7
	c-0.5-0.5-0.9-1.1-1.3-1.6h0c-0.8-1-1.4-2.1-1.9-3.2c-0.5-1.1-0.9-2.3-1-3.5l0,0c-0.1-0.8-0.1-1.4-0.1-2c0-0.6,0.1-1.2,0.3-2l0,0
	c0.1-0.3,0.2-0.6,0.3-0.8c0.1-0.3,0.2-0.6,0.3-0.8l0,0l0.1-0.3c0.1-0.3,0.3-0.6,0.5-0.9l0.1-0.2l0,0c0.2-0.3,0.3-0.5,0.4-0.7
	c0.1-0.2,0.3-0.4,0.5-0.6l0,0l0,0c0.2-0.2,0.5-0.4,0.7-0.6c0.2-0.2,0.4-0.3,0.7-0.5l0,0l0,0c0.6-0.3,1.1-0.5,1.7-0.7
	c0.5-0.1,1.1-0.2,1.7-0.3h0h0c0.7,0,1.2,0.1,1.6,0.2c0.5,0.1,1,0.2,1.6,0.4l0,0l0,0c0.4,0.2,0.6,0.4,0.9,0.6
	c0.3,0.2,0.5,0.5,0.8,0.8l0,0l0,0c0.4,0.5,0.4,0.6,0.5,1c0,0.1,0.1,0.2,0.1,0.2l0,0l0,0c0,0.2,0,0.4,0,0.5c0,0.2,0,0.3,0,0.5
	c0.1,0.2,0.2,0.4,0.4,0.5C54.9,73.9,55,74,55,74c0.1,0,0.2,0,0.3-0.1c0.1-0.1,0.2-0.3,0.3-0.6l0.1-0.3l0.2,0.3
	c0.2,0.5,0.3,0.5,0.3,1.1l0,0l0,0c0,0.1,0,0.1,0,0.2c0,0.1,0,0.3-0.1,0.4v0c-0.1,0.3-0.3,0.5-0.5,0.7c-0.2,0.2-0.5,0.4-0.7,0.5l0,0
	c-0.1,0-0.2,0-0.3,0.1c-0.1,0-0.2,0-0.3,0h0h0c-0.1,0-0.2,0-0.3,0c0,0-0.1,0-0.1,0h0l-0.4-0.1L53.4,76z"/>
<polygon class="st0" points="6.9,68.1 6.8,69.2 6.9,70.6 7.4,71.4 7.5,71.5 7.7,71.6 7.2,70.5 7.1,70.1 7.1,69.9 7,69.2 7.1,68.3 
	"/>
</svg>
