<?xml version="1.0" encoding="utf-8"?>
<!-- Generator: Adobe Illustrator 19.2.1, SVG Export Plug-In . SVG Version: 6.00 Build 0)  -->
<svg version="1.1" id="Layer_1" xmlns="http://www.w3.org/2000/svg" xmlns:xlink="http://www.w3.org/1999/xlink" x="0px" y="0px"
	 viewBox="0 0 200 200" style="enable-background:new 0 0 200 200;" xml:space="preserve">
<style type="text/css">
	.st0{fill:#FFFFFF;}
	.st1{font-family:'ArialMT';}
	.st2{font-size:11.4638px;}
</style>
<g>
	<text transform="matrix(1 0 0 1 187.9249 130.7219)" class="st0 st1 st2">R</text>
	<path class="st0" d="M168.5,134.5l-0.2-4.1H167c-0.2,1.3-0.6,2.2-1.3,2.8c-0.2,0.2-0.2,0.2-0.4,0.4c-1.5-0.4-3-0.6-4.5-1.1
		c-3-1.3-6-2.2-9-2.2c-0.2,0-0.6,0-0.9,0c-5.8-1.1-11.9-1.9-17.7-2.6c-0.2-4.5-4.1-8.2-8.6-8.2c-4.1,0-7.5,3-8.4,6.9
		c-3.2-0.2-6.5-0.2-9.7-0.2c-4.1,0-8,0-12.1,0.2l27.8-20.7L83.4,46.4l-28,20.7l39,59.3c-15.5,0.4-31.5,1.7-46.3,5.8
		c-2.6-1.3-5.4-1.7-8.4-1.7c-6.2,0-11.6,2.2-16.2,6.7c-2.4,2.4-4.3,5.2-5.6,8.2l-16.4,8.8l0.2,0.2l16.2-8.8
		c-1.3,3.4-2.2,7.1-2.2,11.2c0,8,2.2,14.2,6.7,19.2s9.9,7.5,16.6,7.5c6.5,0,12.1-2.6,16.6-7.5c3.2-3.4,5.4-7.8,6.2-12.5v-13.1
		c-0.9-4.7-3-8.8-6.2-12.3c-2.2-2.4-4.7-4.3-7.3-5.6c18.7-5,39-5.8,58.2-5.8c3.2,0,6.5,0,9.7,0.2c0,0.4-0.2,1.1-0.2,1.5
		c0,4.7,3.9,8.6,8.6,8.6s8.6-3.9,8.6-8.6v-0.2c5.6,0.6,11,1.5,16.6,2.4c-3.7,0.2-7.1,1.5-10.3,3.4c-3.7,2.4-6.7,5.6-8.8,9.9
		c-2.2,4.3-3.2,8.8-3.2,14c0,6.2,1.7,11.9,5,16.4c4.3,6.2,10.6,9.3,18.3,9.3c4.3,0,8.2-1.1,11.4-3.2s6-5.4,8.4-9.9l-1.1-0.6
		c-2.8,4.1-5.4,6.9-7.8,8.4c-2.4,1.5-5.2,2.2-8.2,2.2c-3.7,0-6.7-0.9-9.5-2.8c-2.8-1.7-5-4.3-6.2-7.8c-1.3-3.4-2.2-7.3-2.2-11.9
		c0-5.6,0.6-10.1,2.2-14c1.5-3.7,3.4-6.5,6-8.2s5.4-2.6,8.6-2.6c3.9,0,7.1,1.1,9.7,3.4c2.6,2.4,4.7,6,6.2,11.2h1.1l-0.9-12.9
		c10.1,2.8,19.6,6.5,28.4,10.8h0.2l0.2-0.2h-0.2C188.4,140.8,178.7,137.3,168.5,134.5z M54.6,157.6c0,8-1.5,13.8-4.3,17.7
		c-3,3.7-6.7,5.6-11.2,5.6c-4.3,0-7.5-1.7-10.1-5.2c-3.2-4.5-5-10.8-5-19.2c0-8.2,1.5-14.2,4.7-18.3c2.6-3.4,6-5,10.3-5
		c4.5,0,8.2,1.7,10.8,5.2C53.1,142.5,54.6,149,54.6,157.6z M164.2,133.9c-0.4,0-1.1-0.2-2.2-0.9c0,0-0.2,0-0.2-0.2
		c1.1,0.2,2.2,0.4,3.2,0.9C164.7,133.9,164.5,133.9,164.2,133.9z"/>
	<polygon class="st0" points="67.3,102.2 47.7,72.5 19.9,93.4 39.5,122.9 	"/>
	<polyline class="st0" points="119.4,19.7 91.6,40.4 150.2,129.4 150.2,129.4 150.2,129.4 174.8,111.3 174.8,111.3 178.2,108.7 
		119.6,19.7 	"/>
	<path class="st0" d="M62.1,163.2v10.3c0,2.8-0.2,4.7-0.9,5.4c-0.9,1.3-2.4,1.9-4.3,1.9h-1.7v1.3H72v-1.3h-1.7
		c-1.9,0-3.2-0.4-4.1-1.5c-0.6-0.9-0.9-2.8-0.9-5.8v-34l18.5,42.7h1.1l18.3-42.7v33.8c0,2.8-0.2,4.7-0.9,5.4
		c-0.9,1.3-2.2,1.9-4.3,1.9h-1.7v1.3H116v-1.3c0.2,0,0.4,0,0.6,0l0,0h-1.5c-1.9,0-3.2-0.4-4.1-1.5c-0.6-0.9-1.1-2.8-1.1-5.8v-33
		c0-2.8,0.2-4.7,0.9-5.4c0.9-1.3,2.4-1.9,4.3-1.9h1.7v-1.3h-13.6l-12.9,29.9l-4.3,9.9l-5-11.9l-12.3-28.2H55.2v1.3
		c1.9,0,3.4,0.2,4.3,0.6c0.9,0.4,1.5,1.1,1.7,1.7c0.4,1.1,0.6,2.6,0.6,5v9.9c0.4,1.9,0.6,4.1,0.6,6.5
		C62.8,158.9,62.5,161,62.1,163.2z"/>
	<path class="st0" d="M131.7,182.4v-1.3c-1.5,0-2.6-0.2-3.2-0.4c-0.6-0.4-1.1-0.9-1.3-1.5c-0.2-0.6-0.4-2.2-0.4-4.3V147h-1.5
		l-9.7,4.1l0.4,1.3c0.9-0.4,1.7-0.6,2.4-0.6c0.6,0,1.1,0.2,1.5,0.4s0.6,0.9,0.9,1.7c0.2,1.1,0.2,3.4,0.2,7.3v13.1
		c0,2.2-0.2,3.4-0.4,4.3c-0.2,0.9-0.6,1.3-1.3,1.5c-0.4,0.2-1.3,0.4-2.4,0.4v1.3h14.9L131.7,182.4L131.7,182.4z"/>
	<ellipse class="st0" cx="192" cy="126.3" rx="6.2" ry="6.5"/>
</g>
</svg>
