<?xml version="1.0" encoding="utf-8"?>
<!-- Generator: Adobe Illustrator 19.2.1, SVG Export Plug-In . SVG Version: 6.00 Build 0)  -->
<svg version="1.1" id="Layer_1" xmlns="http://www.w3.org/2000/svg" xmlns:xlink="http://www.w3.org/1999/xlink" x="0px" y="0px"
	 viewBox="0 0 200 200" style="enable-background:new 0 0 200 200;" xml:space="preserve">
<style type="text/css">
	.st0{fill:#FFFFFF;}
</style>
<g id="Layer_x0020_1">
	<path class="st0" d="M184.8,81.9H90.6c1.5-2.4,3-4.9,4.5-7.3c-2.2,0-4.4,0-6.6,0c-1.7,2.9-3.4,5.9-5.1,8.8
		c-8.1,0-16.2,1.4-24.2,2.6c2.4,1,4.7,2,7.1,3c-7.5,1.5-19.1,5.6-24.9,11c-8.8,0-17.5,0-26.3,0c-0.3,0.5-0.7,0.9-1,1.4
		c8.4,0,16.7,0,25.1,0c-0.9,1-1.8,1.9-2.6,2.9c-8.2,0-16.4,0-24.6,0c-0.5,0.5-1,1-1.6,1.6c8.4,0,16.7,0,25,0c-0.6,0.9-1,1.7-1.4,2.7
		c-8.4,0-16.9,0-25.3,0c-0.6,0.6-1.1,1.1-1.7,1.7c8.9,0,17.8,0,26.7,0c0.1,1.5,0.2,1.6,0.9,2.8c-9.7,0-19.5,0-29.2,0
		c-0.5,0.6-1.1,1.1-1.6,1.7c10.7,0,21.4,0,32.2,0c1.4,1.5,3,2.1,4.9,2.8c-13,0-25.9,0-38.9,0c-0.5,0.5-1,1-1.4,1.4
		c20.6,0,41.1,0,61.7,0c-0.4,0.6-3.9,6.4-4,6.5h6.3l4.2-6.9c0.8,0,1.6,0,2.4,0l1.7-1.1h-3.6c0.6-1,1.4-2.4,2-3.4
		c9.4-0.8,15.5-2.8,24-6.2c4.1-1.9,7.8-3.7,11.3-6.7c21.5,0,43,0,64.6,0c0.3-0.6,0.7-1.2,1-1.7c-21.2,0-42.4,0-63.7,0
		c0.9-1,1.3-1.6,1.9-2.8c21.3,0,42.7,0,64,0c0.3-0.5,0.5-0.9,0.8-1.4c-21.4,0-42.9,0-64.3,0c0-1.3-0.1-1.8-0.8-2.8
		c22.4,0,44.8,0,67.2,0l1-1.7H108c-0.7-1.3-1.1-1.8-2.2-2.8c24.9,0,49.7,0,74.6,0l1-1.5h-77.6c-3.2-1.5-6.1-2.4-9.6-3
		c30,0,59.6,0,89.6,0L184.8,81.9z M62.9,117.1c-4.6-0.2-8.2-0.4-11.5-1.5c-9.2-3.2-9.6-7.2-2-13.9c4.7-4.3,11-6.8,17.7-9.2
		c3.7-1.3,8.8-3.1,12.8-3.4C74.2,98.4,68.6,107.7,62.9,117.1z M98.6,87.9c9.9,0.8,12.5,4.4,4.6,12.2c-7.3,6-15.3,9.4-24.2,12
		c-2.4,0.6-4.9,1.2-7.6,1.4c5.3-8.6,10.5-17.2,15.8-25.8C91.1,87.7,95,87.6,98.6,87.9z"/>
	<path class="st0" d="M109.1,104.1c-4.7,1.5-8.6,5.3-10.5,10.1c-1.3,4.2,1.3,5.3,5.6,3.3c4.1-2,7.1-4.9,9.1-9.1
		C114.7,103.9,112.8,103.2,109.1,104.1z M108,112.5c-1.2,1.4-6.9,5.7-6.7,2c0.9-5,6-8.2,8.3-8C111.3,106.6,111.6,108.4,108,112.5z"
		/>
	<path class="st0" d="M125.8,104.5c-2,0-4,0-6,0c-2.9,4.4-5.9,8.7-8.8,13.1l2.2-0.1l3.4-4.7h4.3C124,112.7,130.2,104.9,125.8,104.5z
		 M121.1,110.5h-3.2l2.6-3.8c0.9,0,1.8,0,2.7,0C126.2,106.9,122.8,110.6,121.1,110.5z"/>
	<polygon class="st0" points="123.3,117.6 132.2,104.4 135.7,104.4 131.9,113.1 140.1,104.4 143.6,104.4 134.8,117.6 132.6,117.6 
		139.3,107.8 130.3,117.6 128,117.6 132.2,107.6 125.4,117.7 	"/>
	<polygon class="st0" points="138.9,117.7 147.8,104.3 156.8,104.3 155.4,106.4 148.8,106.4 146.8,109.5 152.8,109.5 151.1,111.9 
		145.3,111.9 142.8,115.6 149.2,115.6 147.7,117.7 	"/>
	<polygon class="st0" points="159.6,104.2 169.4,104.2 167.6,106.7 164.1,106.7 156.8,117.6 154.3,117.6 161.5,106.7 157.9,106.7 	
		"/>
	<polygon class="st0" points="186.7,82 191.7,82 191,83 189.3,83 186.5,88.6 185.1,88.6 188.1,83 186.1,83 	"/>
	<polygon class="st0" points="190.2,88.5 192.8,81.9 194.3,81.9 194,87.1 198,82 199.5,82 196.9,88.5 195.7,88.5 197.8,83.9 
		194.1,88.5 193.1,88.5 193.1,83.6 191,88.5 	"/>
</g>
</svg>
