<?xml version="1.0" encoding="utf-8"?>
<!-- Generator: Adobe Illustrator 18.0.0, SVG Export Plug-In . SVG Version: 6.00 Build 0)  -->
<!DOCTYPE svg PUBLIC "-//W3C//DTD SVG 1.1//EN" "http://www.w3.org/Graphics/SVG/1.1/DTD/svg11.dtd">
<svg version="1.1" id="Layer_1" xmlns="http://www.w3.org/2000/svg" xmlns:xlink="http://www.w3.org/1999/xlink" x="0px" y="0px"
	 viewBox="0 0 200 200" enable-background="new 0 0 200 200" xml:space="preserve">
<g id="Layer_x0020_1">
	<path fill="#29166F" d="M58,125.5c0-0.1,3.6-5.9,4-6.5c-20.7,0-41.3,0-62,0c0.5-0.5,1-1,1.4-1.4c13,0,26.1,0,39.1,0
		c-1.9-0.7-3.5-1.3-4.9-2.8c-10.8,0-21.5,0-32.3,0c0.5-0.6,1.1-1.1,1.6-1.7c9.8,0,19.6,0,29.4,0c-0.7-1.1-0.8-1.3-0.9-2.8
		c-8.9,0-17.9,0-26.8,0c0.6-0.6,1.1-1.1,1.7-1.7c8.5,0,16.9,0,25.4,0c0.4-1,0.8-1.8,1.4-2.7c-8.4,0-16.8,0-25.2,0
		c0.5-0.5,1.1-1.1,1.6-1.6c8.2,0,16.5,0,24.7,0c0.9-1,1.7-2,2.7-2.9c-8.4,0-16.8,0-25.2,0c0.4-0.5,0.7-0.9,1.1-1.4
		c8.8,0,17.6,0,26.4,0c5.8-5.5,17.5-9.6,25-11.1c-2.4-1-4.8-2-7.2-3c8.1-1.2,16.2-2.6,24.4-2.6c1.7-2.9,3.4-5.9,5.1-8.8
		c2.2,0,4.4,0,6.6,0c-1.5,2.4-3,4.9-4.5,7.3h94.6l-1,1.6c-30.1,0-59.9,0-90,0c3.5,0.5,6.4,1.4,9.6,3h78l-1,1.5c-25,0-50,0-75,0
		c1.2,0.9,1.5,1.5,2.3,2.8h70.6l-1,1.7c-22.5,0-45,0-67.5,0c0.7,1,0.7,1.6,0.8,2.8c21.5,0,43.1,0,64.6,0c-0.3,0.5-0.5,0.9-0.8,1.4
		c-21.5,0-42.9,0-64.3,0c-0.6,1.2-1,1.8-1.9,2.8c21.3,0,42.6,0,63.9,0c-0.3,0.6-0.7,1.2-1,1.7c-21.6,0-43.2,0-64.9,0
		c-3.5,3-7.2,4.8-11.3,6.7c-8.6,3.4-14.7,5.4-24.1,6.2c-0.6,1-1.4,2.4-2,3.4h3.6l-1.8,1.1c-0.8,0-1.6,0-2.4,0l-4.3,7H58z"/>
	<path fill="#FEFEFE" d="M79.8,89c-5.7,9.4-11.4,18.8-17.1,28.1c-4.6-0.2-8.2-0.4-11.5-1.5c-9.2-3.3-9.6-7.3-2-14
		c4.7-4.3,11.1-6.9,17.7-9.3C70.7,91.1,75.8,89.3,79.8,89z"/>
	<path fill="#FEFEFE" d="M87.2,87.6c3.9,0,7.8-0.1,11.5,0.2c10,0.8,12.6,4.4,4.6,12.3c-7.4,6-15.4,9.4-24.3,12.1
		c-2.4,0.6-4.9,1.2-7.6,1.4C76.6,104.9,81.9,96.3,87.2,87.6z"/>
	<path fill="#29166F" d="M98.5,114.2c1.9-4.8,5.9-8.6,10.6-10.1c3.8-0.9,5.6-0.2,4.2,4.3c-2,4.2-5,7.1-9.1,9.2
		C99.8,119.5,97.2,118.4,98.5,114.2z"/>
	<path fill="#FEFEFE" d="M101.3,114.5c0.9-5,6-8.2,8.4-8.1c1.7,0.1,2,1.9-1.6,6.1C106.9,113.9,101.1,118.2,101.3,114.5z"/>
	<path fill="#29166F" d="M111.1,117.6c3-4.4,5.9-8.8,8.9-13.1c2,0,4,0,6,0c4.5,0.4-1.8,8.3-5,8.3h-4.3l-3.4,4.8L111.1,117.6z"/>
	<path fill="#FEFEFE" d="M118,110.6l2.6-3.9c0.9,0,1.8,0,2.7,0c3.1,0.2-0.4,3.9-2.1,3.9H118z"/>
	<polygon fill="#29166F" points="123.4,117.7 132.4,104.4 135.9,104.4 132.1,113.2 140.3,104.5 143.8,104.5 135,117.7 132.8,117.7 
		139.5,107.8 130.5,117.6 128.2,117.6 132.4,107.7 125.5,117.7 	"/>
	<polygon fill="#29166F" points="139.1,117.8 148.1,104.3 157,104.3 155.7,106.4 149.1,106.4 147.1,109.5 153.1,109.5 151.4,111.9 
		145.5,111.9 143.1,115.7 149.4,115.7 148,117.8 	"/>
	<polygon fill="#29166F" points="159.9,104.2 169.7,104.2 167.9,106.7 164.4,106.7 157.1,117.6 154.6,117.6 161.8,106.8 
		158.2,106.8 	"/>
	<polygon fill="#29166F" points="187.2,81.9 192.1,81.9 191.5,82.9 189.8,82.9 187,88.5 185.6,88.5 188.5,82.9 186.5,82.9 	"/>
	<polygon fill="#29166F" points="190.7,88.4 193.3,81.9 194.7,81.9 194.5,87.1 198.4,81.9 200,81.9 197.3,88.5 196.2,88.5 
		198.3,83.8 194.6,88.4 193.5,88.4 193.6,83.6 191.5,88.4 	"/>
</g>
</svg>
