<?xml version="1.0" encoding="utf-8"?>
<!-- Generator: Adobe Illustrator 19.2.1, SVG Export Plug-In . SVG Version: 6.00 Build 0)  -->
<svg version="1.1" id="Layer_1" xmlns="http://www.w3.org/2000/svg" xmlns:xlink="http://www.w3.org/1999/xlink" x="0px" y="0px"
	 viewBox="0 0 200 200" style="enable-background:new 0 0 200 200;" xml:space="preserve">
<style type="text/css">
	.st0{fill:#FFFFFF;}
</style>
<g id="Слой_x0020_1">
	<path class="st0" d="M60.2,106.5c-0.3,4.1-18.2,6.5-40.1,5.3c-7-0.4-13.6-1.1-19.3-2c4.7,0.6,9.8,1,15.2,1.2c21.9,1,40-2.4,40-5.2
		c0-4.7-17.8-8.1-46.8-6.6C33.4,95.5,60.8,98,60.2,106.5z"/>
	<path class="st0" d="M43.3,90.4l-4.6,19.3h-5.6c-0.6,0-1.1-0.1-1.6-0.2c-0.4-0.2-0.7-0.5-0.8-0.9l-3.1-7.6l-1.8,6.9l-0.1,0.5
		c0,0.2,0.1,0.4,0.3,0.5c0.2,0.1,0.4,0.2,0.7,0.2l-0.2,0.7h-6.9c-0.4,0-0.6-0.1-0.8-0.3c-0.2-0.2-0.3-0.5-0.3-0.8
		c0-0.1,0-0.3,0.1-0.5l4.2-18c0-0.2,0-0.4-0.2-0.6s-0.4-0.3-0.7-0.3l0.2-0.7h7.8c0.2,0,0.5,0.1,0.8,0.4c0.3,0.2,0.5,0.5,0.6,0.8
		l3.3,7.8l1.5-6.7c0-0.1,0.1-0.3,0.1-0.6c0-0.2-0.1-0.5-0.3-0.6c-0.2-0.2-0.4-0.3-0.7-0.3l0.2-0.7h6.9c0.3,0,0.6,0.1,0.8,0.3
		c0.2,0.2,0.3,0.5,0.3,0.8L43.3,90.4z"/>
	<path class="st0" d="M75,109.9V87.9h3l11.6,17.3V87.9h2.8v22.1h-3L77.8,92.6v17.3H75z M101.8,109.9V87.9h15.9v2.6h-13v6.8h12.2v2.6
		h-12.2v7.5h13.5v2.6H101.8z M126.6,109.9V87.9h4.4l5.2,15.6c0.5,1.5,0.8,2.5,1.1,3.3c0.3-0.8,0.6-2,1.2-3.5l5.3-15.4h3.9v22.1h-2.8
		V91.5l-6.4,18.5h-2.6l-6.4-18.8v18.8H126.6z M154.4,109.9l8.5-22.1h3.2l9,22.1h-3.3l-2.6-6.7h-9.3l-2.4,6.7H154.4z M160.8,100.9
		h7.5l-2.3-6.1c-0.7-1.9-1.2-3.4-1.6-4.6c-0.3,1.4-0.7,2.9-1.2,4.2L160.8,100.9z M181.8,109.9V87.9h3l11.6,17.3V87.9h2.8v22.1h-3
		l-11.6-17.3v17.3H181.8z"/>
</g>
</svg>
