<?xml version="1.0" encoding="utf-8"?>
<!-- Generator: Adobe Illustrator 19.2.1, SVG Export Plug-In . SVG Version: 6.00 Build 0)  -->
<svg version="1.1" id="Layer_1" xmlns="http://www.w3.org/2000/svg" xmlns:xlink="http://www.w3.org/1999/xlink" x="0px" y="0px"
	 viewBox="0 0 200 200" style="enable-background:new 0 0 200 200;" xml:space="preserve">
<style type="text/css">
	.st0{fill:#FFFFFF;}
</style>
<g id="Layer_x0020_1">
	<path class="st0" d="M51.5,127.1h99.1c0-19.7,0-39.5,0-59.2c-7,8.4-19.2,19.1-29.4,23.6c-2.4-8-4.8-16-7.2-24.1
		c9.5-5.1,22.3-14.2,4.3-17.8c-10.7,0.3-27.7,5.7-39.9,15.9c-4.3,4.9-1.9,8.3,3.8,10.6c-8.7,9.1-17.3,18.3-26,27.4
		c-1.8-1.8-3.5-3.5-5.3-5.3L51.5,127.1z"/>
	<polygon class="st0" points="55,80.2 50.9,86.5 50.9,80.3 	"/>
	<path class="st0" d="M71.4,66.5c3.8-4,5.7-5.4,10.3-8.5H50.9v8.4C57.8,66.5,64.6,66.5,71.4,66.5z"/>
	<path class="st0" d="M51.1,55.4L51,47.5h60.9c-9.7,1.5-16.7,3.4-25.8,7.5L51.1,55.4z"/>
	<polygon class="st0" points="51,44.2 51,37.3 150.1,37.3 150.1,44.2 	"/>
	<polygon class="st0" points="51,25.6 51,34.1 150.1,34.1 150.1,25.8 	"/>
	<path class="st0" d="M135.7,47.7h14.4v6.7c-4.9-5.3-7.7-5-14.4-5.7C135.7,48.4,135.7,48.1,135.7,47.7z"/>
	<path class="st0" d="M23.9,143.5h-6.3L1.5,172.8l-0.2,1.7h5.3l3.6-6.8h20.9l3.6,6.8h5.5L23.9,143.5z M11.8,164.2l8.2-16.4l9.4,16.4
		H11.8z"/>
	<path class="st0" d="M11.8,164.2l8.2-16.4c3.2,5.5,6.3,11,9.5,16.5L11.8,164.2L11.8,164.2z M20,147.8l-8.2,16.4h17.6L20,147.8z"/>
	<path class="st0" d="M71.1,143.3H44.1v31.2h5.2v-10.1c7.3,0,14.7,0,22,0C80.9,163.9,81.7,144.7,71.1,143.3z M71.5,159.1
		c-7.3,0-14.9,0-22.2,0v-10.3l22.1-0.1C75.2,150.6,75,157.4,71.5,159.1z"/>
	<path class="st0" d="M49.3,148.8v10.3h22.2c0.8-0.4,1.5-1.1,1.9-2c0.5-0.9,0.7-2,0.7-3.1c0-1.1-0.2-2.2-0.7-3.2
		c-0.5-0.9-1.1-1.7-2.1-2.2L49.3,148.8z M49.3,159.1v-10.4c7.4,0,14.8-0.1,22.2-0.1h0c0.9,0.5,1.6,1.3,2.1,2.2
		c0.5,1,0.7,2.1,0.7,3.2c0,1.1-0.3,2.2-0.7,3.1c-0.5,0.9-1.1,1.6-2,2h0L49.3,159.1L49.3,159.1z"/>
	<polygon class="st0" points="85,143.5 85,174.5 114.6,174.5 114.6,169.6 89.1,169.6 89.1,160.9 112.9,160.9 112.9,156 88.8,156 
		88.8,147.7 114.4,147.7 114.4,143.5 	"/>
	<path class="st0" d="M152.3,155c1.7,0,3.4,0,5.2,0c0-1.3,0-2.5,0.1-3.8c0.1-4.2-2.3-7.6-5.7-7.6c-7.2,0-14.4,0-21.6-0.1
		c-4.6,0-7.8,3.4-7.8,7.1c0,4.8,0,12.4,0,17.2c0,5,3.3,6.9,7.7,6.9c6.4,0,12.8,0,19.2,0c5.6-0.1,8.3-4.2,8.3-8.2c0-1.3,0-2.6,0-3.9
		c-1.8,0-3.6,0-5.4,0c-0.1,3.6,0.8,7-4.1,7c-5.8,0-11.5,0-17.3,0c-2.4-0.1-3.2-1.6-3.1-3.5c0-4.9,0-9.7,0-14.6
		c0-2.5,1.3-3.4,3.7-3.4c6.2,0,12,0,18.2,0c1.9,0.1,2.6,0.7,2.6,2.4C152.2,152,152.3,153.5,152.3,155z"/>
	<path class="st0" d="M164.8,164c2.2,0,3.2,0,5.5,0c0,2.7,0.2,5.6,2.9,5.6c6.4,0,11.5,0,17.9,0c2.4,0,2.6-0.4,2.6-3c0-0.5,0-1.9,0-3
		c0-1.2-0.3-1.3-1-1.2c-2.9,0-5.7,0-8.6-0.1c-0.1,0-0.2,0-0.3,0c-2.9-0.1-5.8-0.1-8.7-0.2c-0.1,0-0.2,0-0.2,0
		c-6,0-10.3-4.1-10.2-9.6c-0.1-3.5,2.7-9.1,8.2-9.1c6.5,0,13,0,19.5,0c0.7,0.1,1.6,0.4,2.2,0.8c3,2.2,4,4.7,4,6.8c0,1.1,0,1.6,0,2.7
		c-1.7,0-3.3,0-5,0c-0.4-6.5-2.8-5.1-8.3-5.4c-4.1,0-8.2,0-12.3-0.1c-4.2,0-3.9,8.9,0.1,8.9c4.7,0.1,10.6,0.1,15.2,0.2
		c7.6,0.1,10.3-0.2,10.3,4.9c0,1.6,0,3.3,0,4.9c-0.1,2.5-0.3,7.1-6,7.1c-6.6,0-12.5,0-19.1,0c-1.3,0-2.6,0-3.9,0
		c-3.3-1-4.9-3.9-4.9-7.4C164.8,166.1,164.8,165.1,164.8,164z"/>
	<path class="st0" d="M50.9,76.4v-7.5h18.5c-4.7,2.6-7,4.1-11.1,7.5H50.9z"/>
</g>
</svg>
