<?xml version="1.0" encoding="utf-8"?>
<!-- Generator: Adobe Illustrator 18.0.0, SVG Export Plug-In . SVG Version: 6.00 Build 0)  -->
<!DOCTYPE svg PUBLIC "-//W3C//DTD SVG 1.1//EN" "http://www.w3.org/Graphics/SVG/1.1/DTD/svg11.dtd">
<svg version="1.1" id="Layer_1" xmlns="http://www.w3.org/2000/svg" xmlns:xlink="http://www.w3.org/1999/xlink" x="0px" y="0px"
	 viewBox="0 0 200 200" enable-background="new 0 0 200 200" xml:space="preserve">
<g id="Layer_x0020_1_1_">
	<path fill="#A02000" d="M23.6,69.5l50.5-21.1l49.6,21h-44c0-2.5,0-5.1,0-7.6c0-7.8-10.9-7.7-10.9-0.4v8.2L23.6,69.5z"/>
	<path fill="#A02000" d="M36.8,71.6c25,0,50,0,75,0c0,9,0,16.9,0,25.8c-4.1,0-8.2,0-12.3,0c0-5,0-8.4,0-13.4c0-7.6-13-7.6-13-0.2
		l0,13.6h-5.6c0-4.5,0-8.9,0-13.4c0-7.4-13.2-7.7-13.3-0.1l0,13.5h-5c0-4.9,0-9.1,0-14c-0.2-6.9-12.8-6.6-13.3-0.6
		c0,5.3,0,9.4,0,14.6H36.9C36.8,88.4,36.9,80.5,36.8,71.6z"/>
	<path fill="#A02000" d="M0.1,121.9V93c10.4,0,20.5,0,30.8,0c2.7,0.1,3.8,1.2,3.8,4.3c0,3.1,0,6.1,0,9.2c0,1.8-2,2.8-3.3,3.6
		c2.2,1.6,3,2,3.1,3.9v8.1h-9.3c0-2,0-4.1,0-6c0-0.5-0.2-1.1-0.8-1.1H9v7.1H0.1z"/>
	<path fill="#FFFFFF" d="M9.2,100.3l0,5.8c4.9,0,9.3,0,14.2,0c3.3-0.1,3.6-5.7-0.2-5.8L9.2,100.3z"/>
	<path fill="#2B2A29" d="M41.3,103.1c6.7,0,13.4,0,20.1,0c3.9,0.1,3.8,1.7,3.8,5.2c0,3.2,0,6.4,0,9.6c-0.1,3.7-1.7,4-5.4,4H43.9
		c-3.6-0.1-6.1,0.6-6.2-4.5c0-3.1,0-6.2,0-9.4C37.7,103.8,39.3,103.2,41.3,103.1z"/>
	<path fill="#2B2A29" d="M41.3,103h20.1c3.9,0.1,3.9,1.6,3.9,5v0.4v9.6c-0.1,1.9-0.5,2.9-1.4,3.5c-0.9,0.5-2.2,0.6-4.1,0.6H43.9
		c-0.5,0-0.9,0-1.4,0c-2.9,0-4.8,0-4.9-4.6V108c0-2.1,0.4-3.3,1-4.1C39.4,103.2,40.3,103,41.3,103L41.3,103z M61.3,103.2H41.3
		c-0.9,0-1.8,0.2-2.4,0.9c-0.6,0.7-1,1.9-1,3.9v9.4c0.1,4.4,1.9,4.4,4.7,4.4c0.4,0,0.9,0,1.4,0h15.7c1.9,0,3.2-0.1,4-0.6
		c0.8-0.5,1.2-1.5,1.3-3.3v-9.6V108C65,104.7,65,103.3,61.3,103.2z"/>
	<path fill="#2B2A29" d="M69.2,107.8c0,3,0,6.1,0,9.1c0,2.9,1.3,5,4.3,5c3.5,0,7,0,10.5,0c3.4,0,4-2,4-5.1c0-0.7,0-1.4,0-2.2
		c-2.4,0-4.8,0-7.2,0c0,0.5,0,1,0,1.4c0,1.1-0.3,0.9-0.9,0.9c-0.9,0-1.8,0-2.7,0c-0.5,0-0.6-0.1-0.6-1v-8.2h11.5v-4.9H77.3v-4.1
		h-8.1v4.2h-2.5v4.9H69.2z"/>
	<path fill="#2B2A29" d="M90.6,105.4c0,4.7,0,9.3,0,14c0,2.5,1,2.5,3.3,2.5c5.7,0,12.9,0,18.7,0c1.8,0,2.1-0.6,2.1-1.9
		c0-1,0-2,0-3.1c-1.9,0-3.8,0-5.7,0c0,0.4,0,0.7-0.9,0.7c-3.1,0-6.1,0-9.2,0c-1.3,0-1.6-0.6-1.6-1.6c0-0.6,0-1.1,0-1.7
		c4.7,0,9.4,0,14.1,0c3.5,0,3.9-0.4,3.9-2.3v-5.8c0-2.3-0.7-3.4-3.2-3.4c-6,0-12,0-17.9,0C91.3,102.9,90.6,103.8,90.6,105.4z"/>
	<path fill="#FFFFFF" d="M97.1,111c3.7,0,7.5,0,11.2,0c0-1,0-1.9,0-2.9c0-0.5,0-1-0.8-1c-3.1,0-6.3,0-9.4,0c-0.6,0-1,0.1-1,1
		C97.1,109,97.1,110,97.1,111z"/>
	<polygon fill="#2B2A29" points="115.9,102.9 115.9,104.3 124.4,112.4 116.3,120.2 116.3,121.9 123.3,121.9 129.1,116.1 
		134.3,121.9 141.4,121.9 141.4,120.2 134,112.4 141.6,104.3 141.6,102.9 134,102.9 128.8,108.7 123.9,102.9 	"/>
	<polygon fill="#A02000" points="0.1,126 200,126 0,151.6 	"/>
	<path fill="#FEFEFE" d="M46.7,108.1c3.1,0,6.2,0,9.3,0c1.8,0,1.7,0.8,1.8,2.5c0,1.5,0,3,0,4.5c-0.1,1.7-0.8,1.9-2.5,1.9
		c-2.4,0-4.8,0-7.3,0c-1.7-0.1-2.8,0.3-2.8-2.1c0-1.5,0-2.9,0-4.4C45.1,108.5,45.9,108.2,46.7,108.1z"/>
	<path fill="#2B2A29" d="M46.7,108H56c1.8,0,1.8,0.8,1.9,2.4v0.2v4.5c0,0.9-0.2,1.4-0.7,1.7c-0.4,0.3-1,0.3-1.9,0.3
		c-0.9,0-1.6,0-2.4,0c-1.6,0-3.2,0-4.8,0h0c-0.2,0-0.4,0-0.6,0c-1.4,0-2.3,0-2.3-2.2v-4.4c0-1,0.2-1.6,0.5-1.9
		C45.8,108.1,46.3,108,46.7,108L46.7,108z M56,108.2h-9.3c-0.4,0-0.8,0.1-1.1,0.4c-0.3,0.3-0.4,0.8-0.4,1.8v4.4c0,2,0.9,2,2.1,2
		c0.2,0,0.4,0,0.6,0c1.6,0,3.2,0,4.8,0c0.8,0,1.7,0,2.4,0c0.9,0,1.5,0,1.8-0.3c0.4-0.2,0.5-0.7,0.6-1.5v-4.5v-0.2
		C57.6,108.9,57.6,108.3,56,108.2z"/>
</g>
</svg>
