<?xml version="1.0" encoding="utf-8"?>
<!-- Generator: Adobe Illustrator 19.2.1, SVG Export Plug-In . SVG Version: 6.00 Build 0)  -->
<svg version="1.1" id="Layer_1" xmlns="http://www.w3.org/2000/svg" xmlns:xlink="http://www.w3.org/1999/xlink" x="0px" y="0px"
	 viewBox="0 0 200 200" style="enable-background:new 0 0 200 200;" xml:space="preserve">
<style type="text/css">
	.st0{fill:#FFFFFF;}
</style>
<g id="Layer_x0020_1_1_">
	<path class="st0" d="M25,69.9L74.8,49l48.9,20.7H80.3c0-2.5,0-5,0-7.5c0-7.7-10.8-7.6-10.8-0.4v8.1L25,69.9z"/>
	<path class="st0" d="M38,71.9c24.7,0,49.3,0,74,0c0,8.9,0,16.6,0,25.5c-4.1,0-8.1,0-12.2,0c0-4.9,0-8.3,0-13.2
		c0-7.5-12.8-7.5-12.9-0.2l0,13.4h-5.6c0-4.4,0-8.8,0-13.2c0-7.3-13-7.6-13.1-0.1l0,13.3h-4.9c0-4.9,0-9,0-13.8
		c-0.2-6.8-12.6-6.5-13.1-0.6c0,5.2,0,9.3,0,14.5H38.1C38,88.6,38.1,80.8,38,71.9z"/>
	<path class="st0" d="M35.9,106.4c0-3,0-6,0-9.1c0-3.1-1.1-4.2-3.8-4.3c-10.2,0-20.2,0-30.4,0v28.6h8.8v-7h15.2
		c0.7,0,0.8,0.6,0.8,1.1c0,1.9,0,4,0,6h9.1v-7.9c-0.1-1.8-0.8-2.2-3-3.8C34,109.1,35.8,108.1,35.9,106.4z M24.7,106
		c-4.9,0-9.1,0-14,0l0-5.7l13.7,0C28.2,100.4,28,105.9,24.7,106z"/>
	<path class="st0" d="M42.4,103h19.8c3.8,0.1,3.8,1.6,3.9,4.9v0.4v9.4c-0.1,1.9-0.5,2.9-1.4,3.4c-0.9,0.5-2.2,0.6-4.1,0.6H45
		c-0.5,0-0.9,0-1.4,0c-2.9,0-4.7,0-4.8-4.5v-9.2c0-2.1,0.4-3.3,1-4C40.5,103.2,41.4,103,42.4,103L42.4,103z M62.2,103.2H42.4
		c-0.9,0-1.8,0.2-2.4,0.9c-0.6,0.7-1,1.8-1,3.9v9.2c0.1,4.3,1.9,4.3,4.6,4.4c0.4,0,0.9,0,1.3,0h15.5c1.8,0,3.2-0.1,4-0.6
		c0.8-0.5,1.2-1.5,1.3-3.3v-9.4v-0.4C65.8,104.7,65.8,103.2,62.2,103.2z"/>
	<path class="st0" d="M69.9,107.7c0,3,0,6,0,9c0,2.9,1.3,5,4.2,5c3.5,0,6.9,0,10.4,0c3.4,0,4-2,4-5.1c0-0.7,0-1.4,0-2.1
		c-2.4,0-4.7,0-7.1,0c0,0.5,0,1,0,1.4c0,1.1-0.3,0.9-0.9,0.9c-0.9,0-1.8,0-2.7,0c-0.5,0-0.5-0.1-0.5-1v-8.1h11.3v-4.9H77.9v-4.1h-8
		v4.1h-2.5v4.8H69.9z"/>
	<path class="st0" d="M112.2,102.9c-5.9,0-11.8,0-17.7,0c-2.7,0-3.3,0.9-3.3,2.5c0,4.6,0,9.2,0,13.8c0,2.4,1,2.5,3.2,2.5
		c5.6,0,12.8,0,18.4,0c1.8,0,2-0.6,2-1.9c0-1,0-2,0-3c-1.9,0-3.8,0-5.6,0c0,0.4,0,0.7-0.9,0.7c-3,0-6.1,0-9.1,0
		c-1.3,0-1.6-0.6-1.6-1.6c0-0.6,0-1.1,0-1.7c4.6,0,9.3,0,13.9,0c3.4,0,3.9-0.4,3.9-2.3v-5.7C115.3,104,114.6,102.9,112.2,102.9z
		 M108.6,110.9c-3.7,0-7.4,0-11.1,0c0-1,0-2-0.1-2.9c0-0.9,0.4-1,1-1c3.1,0,6.2,0,9.3,0c0.8,0,0.8,0.5,0.8,1
		C108.6,109,108.6,109.9,108.6,110.9z"/>
	<polygon class="st0" points="116.1,102.8 116.1,104.2 124.4,112.3 116.5,119.9 116.5,121.6 123.4,121.6 129.1,115.9 134.2,121.6 
		141.3,121.6 141.2,119.9 133.9,112.3 141.5,104.2 141.5,102.8 133.9,102.8 128.8,108.6 124,102.8 	"/>
	<polygon class="st0" points="1.7,125.7 199.1,125.7 1.6,151 	"/>
	<path class="st0" d="M62.2,103.1c-6.6,0-13.2,0-19.8,0c-1.9,0.1-3.5,0.7-3.4,4.9c0,3.1,0,6.2,0,9.2c0.1,5.1,2.5,4.3,6.1,4.5h15.5
		c3.7,0,5.2-0.3,5.4-4c0-3.2,0-6.3,0-9.4C65.9,104.7,66,103.1,62.2,103.1z M58.7,114.9c-0.1,1.7-0.8,1.8-2.5,1.8c-2.4,0-4.8,0-7.2,0
		c-1.6-0.1-2.8,0.3-2.8-2.1c0-1.4,0-2.9,0-4.3c0-1.9,0.7-2.2,1.6-2.3c3,0,6.1,0,9.1,0c1.8,0,1.7,0.8,1.7,2.4
		C58.7,111.9,58.7,113.4,58.7,114.9z"/>
	<path class="st0" d="M47.8,107.9h9.1c1.8,0,1.8,0.8,1.8,2.4v0.2v4.4c0,0.9-0.2,1.4-0.7,1.6c-0.4,0.3-1,0.3-1.9,0.3
		c-0.9,0-1.6,0-2.4,0c-1.6,0-3.2,0-4.8,0h0c-0.2,0-0.4,0-0.6,0c-1.3,0-2.2,0-2.3-2.2v-4.3c0-1,0.2-1.6,0.5-1.9
		C46.9,108,47.3,107.9,47.8,107.9L47.8,107.9z M56.9,108.1h-9.1c-0.4,0-0.8,0.1-1.1,0.4c-0.3,0.3-0.4,0.8-0.4,1.8v4.3
		c0,2,0.8,2,2.1,2c0.2,0,0.4,0,0.6,0c1.6,0,3.2,0,4.8,0c0.8,0,1.6,0,2.4,0c0.8,0,1.4,0,1.8-0.3c0.4-0.2,0.5-0.7,0.6-1.5v-4.4v-0.2
		C58.5,108.8,58.5,108.1,56.9,108.1z"/>
</g>
</svg>
