<?xml version="1.0" encoding="utf-8"?>
<!-- Generator: Adobe Illustrator 19.2.1, SVG Export Plug-In . SVG Version: 6.00 Build 0)  -->
<svg version="1.1" id="Layer_1" xmlns="http://www.w3.org/2000/svg" xmlns:xlink="http://www.w3.org/1999/xlink" x="0px" y="0px"
	 viewBox="0 0 200 200" style="enable-background:new 0 0 200 200;" xml:space="preserve">
<style type="text/css">
	.st0{fill:#FFFFFF;}
</style>
<g id="Layer_x0020_1">
	<path class="st0" d="M2.3,71.5l0,37.4c0,10.8,4.3,24.3,29.1,24.2c16.9,0,28.2-5.7,29.4-22.3l0-39.3l-18.4,0l0,37.4
		c0,7.2-3.5,10.4-10.3,10.5c-5.2,0.1-10.9-2-10.5-10l0-37.8H2.3z"/>
	<path class="st0" d="M69.7,111.8l17.4-0.1c0.6,3.7,0.7,5.9,3.7,8.1c5,4.5,16,2.9,16.2-6.8c-0.9-4.5-3.9-6.8-9.9-7.5
		c-10.6-1.4-19-2.8-23.7-13.6c-3.9-10.1,5.7-19.7,15.2-21c5.7,0,11.4,0,17.1,0c8.2,0.2,17.6,7.9,16.8,18.4c-5.8,0-11.7,0-17.5,0
		c-0.4-1-0.7-1.9-1.1-2.9c-3.7-8.6-17.7-5.9-14.2,1.5c2.2,4.8,25.7,3.1,33.8,17.8c5,11-4.3,21.8-14,25.8
		C94.3,136.5,68.5,131.6,69.7,111.8z"/>
	<polygon class="st0" points="134,71.5 134,132.3 152.4,132.3 152.4,117.6 162.6,107.8 175.3,132.2 197.7,132.2 197.7,130.5 
		175.3,95.2 175.3,93.2 195.7,73.5 195.7,71.6 171.1,71.6 152.6,92.1 152.6,71.5 	"/>
	<path class="st0" d="M41.5,134.3c2.8,9.6,6.8,20.1,16.6,25.3c23.2,10.6,46.9-8.6,63.1-18.1c-12.4,16.1-59.7,51.2-79.3,35.8
		C31.2,166.1,34.4,146.7,41.5,134.3z"/>
	<path class="st0" d="M41.6,134.2c1.4,4.8,3.1,9.8,5.6,14.3c2.6,4.5,6,8.4,10.9,11c19.8,9.1,40.1-3.8,55.7-13.6
		c2.6-1.6,5-3.2,7.3-4.5l0.5-0.3l-0.3,0.4c-0.1,0.1-0.2,0.3-0.3,0.4c-6.4,8.1-21.2,20.8-36.9,29.5c-15.7,8.7-32.2,13.6-42,6.1
		c-0.1,0-0.1-0.1-0.2-0.1c-4.9-5.1-6.9-11.9-7-18.9c-0.1-8.5,2.6-17.4,6.5-24.3l0.1-0.2L41.6,134.2z M47.1,148.6
		c-2.5-4.4-4.2-9.3-5.6-14.1c-3.8,6.8-6.4,15.6-6.4,23.9c0.1,7,2.1,13.7,6.9,18.8l0.2,0.1c9.7,7.4,26.1,2.6,41.8-6.1
		c15.6-8.7,30.4-21.3,36.8-29.4c-2.1,1.3-4.4,2.7-6.8,4.2c-15.6,9.9-36,22.7-55.9,13.6h0C53.1,157,49.7,153.1,47.1,148.6z"/>
	<path class="st0" d="M40.9,139c-3.6,9.9-6.6,22.3-1.5,32.1c10.2,21.7,58.5-8.4,68.5-18.6c-9.5,4.9-19.4,9.8-29.9,11.2
		c-8.9,1.2-18.1-0.1-26.4-6.1C44.9,151.7,43.9,147.1,40.9,139z"/>
	<path class="st0" d="M40.9,139.3c-1.8,4.9-3.3,10.3-3.9,15.8c-0.6,5.5,0,11.1,2.5,16l0,0c0.7,1.5,1.6,2.8,2.7,3.8
		c3.6,3.5,9.2,4.4,15.6,3.5c6.4-0.9,13.6-3.5,20.6-6.8c12.5-5.9,24.2-14,29-18.7c-4.5,2.3-9.2,4.7-13.9,6.6c-5,2-10.1,3.6-15.4,4.3
		c-4.5,0.6-9,0.6-13.5-0.4c-4.5-0.9-8.8-2.7-13-5.7l0,0c-5.8-5.2-7.3-9.4-9.6-15.8C41.5,141.1,41.2,140.2,40.9,139.3z M36.8,155.1
		c0.6-5.6,2.2-11.2,4-16.1l0.1-0.3L41,139c0.4,1,0.7,2,1.1,2.9c2.3,6.4,3.8,10.5,9.5,15.7c4.2,3,8.5,4.8,12.9,5.7
		c4.4,0.9,8.9,0.9,13.4,0.3c5.2-0.7,10.3-2.3,15.3-4.3c5-2,9.8-4.5,14.6-6.9l0.6-0.3l-0.5,0.5c-4.4,4.6-16.6,13.1-29.5,19.2
		c-7,3.3-14.2,5.9-20.7,6.8c-6.4,0.9-12,0-15.7-3.6c-1.1-1-2-2.3-2.7-3.8C36.7,166.2,36.2,160.7,36.8,155.1z"/>
	<path class="st0" d="M158.2,65c-3.3-9.4-7.9-19.6-18-24.4c-23.7-9.3-46.4,11.3-62,21.7C89.6,45.5,134.8,7.8,155.2,22
		C166.6,32.6,164.5,52.1,158.2,65z"/>
	<path class="st0" d="M158.1,65c-1.7-4.7-3.6-9.6-6.5-13.9c-2.8-4.3-6.5-8-11.5-10.4c-20.3-7.9-39.9,6.1-54.8,16.8
		c-2.5,1.8-4.8,3.4-7,4.9l-0.5,0.3l0.3-0.5c0.1-0.1,0.2-0.3,0.3-0.4c5.9-8.5,20-21.9,35.1-31.6c15.2-9.6,31.4-15.4,41.6-8.5
		c0.1,0,0.1,0.1,0.2,0.1c5.2,4.8,7.6,11.4,8.1,18.5c0.6,8.5-1.6,17.6-5.1,24.6l-0.1,0.2L158.1,65z M151.8,51
		c2.8,4.3,4.7,9.1,6.4,13.7c3.4-7,5.5-15.9,5-24.3c-0.5-7-2.9-13.6-8-18.3L155,22c-10.1-6.9-26.3-1.1-41.3,8.5
		c-15.1,9.6-29.1,23-35.1,31.5c2.1-1.4,4.3-3,6.5-4.6c15-10.7,34.6-24.7,55.1-16.8v0C145.3,42.9,148.9,46.6,151.8,51z"/>
	<path class="st0" d="M158.5,60.2c3-10.1,5.3-22.6-0.3-32.1C146.7,7,100.3,39.8,90.9,50.6c9.2-5.4,18.8-10.9,29.2-12.9
		c8.8-1.7,18-0.9,26.7,4.5C153.8,47.7,155,52.3,158.5,60.2z"/>
	<path class="st0" d="M158.5,59.9c1.5-5,2.7-10.5,3-16c0.2-5.6-0.6-11.1-3.4-15.8l0,0c-0.8-1.5-1.8-2.7-2.9-3.6
		c-3.8-3.3-9.4-3.8-15.7-2.6c-6.3,1.2-13.4,4.2-20.2,7.9C107.2,36.4,96,45.2,91.5,50.1c4.4-2.6,8.9-5.2,13.6-7.4
		c4.9-2.3,9.9-4.2,15.1-5.2c4.4-0.9,9-1.1,13.5-0.4c4.5,0.7,9,2.2,13.3,5l0,0c6.1,4.9,7.8,8.9,10.5,15.2
		C157.7,58.1,158.1,59,158.5,59.9z M161.7,43.9c-0.2,5.6-1.6,11.3-3.1,16.3l-0.1,0.3l-0.1-0.3c-0.4-1-0.9-2-1.2-2.9
		c-2.7-6.2-4.4-10.3-10.4-15.1c-4.3-2.7-8.8-4.3-13.2-4.9c-4.5-0.7-9-0.4-13.4,0.4c-5.2,1-10.2,2.9-15,5.2c-4.9,2.3-9.5,5-14.1,7.7
		L90.4,51l0.4-0.5c4.2-4.8,15.8-14,28.4-20.9c6.8-3.7,13.9-6.7,20.2-8c6.4-1.2,12-0.7,15.9,2.7c1.1,1,2.1,2.2,2.9,3.7
		C161.1,32.8,161.9,38.3,161.7,43.9z"/>
</g>
</svg>
