<?xml version="1.0" encoding="utf-8"?>
<!-- Generator: Adobe Illustrator 18.0.0, SVG Export Plug-In . SVG Version: 6.00 Build 0)  -->
<!DOCTYPE svg PUBLIC "-//W3C//DTD SVG 1.1//EN" "http://www.w3.org/Graphics/SVG/1.1/DTD/svg11.dtd">
<svg version="1.1" id="Layer_1" xmlns="http://www.w3.org/2000/svg" xmlns:xlink="http://www.w3.org/1999/xlink" x="0px" y="0px"
	 viewBox="0 0 200 200" enable-background="new 0 0 200 200" xml:space="preserve">
<g id="Layer_x0020_1">
	<path fill="#E57B17" d="M0,70.8l0,38.2c0,11,4.4,24.8,29.8,24.8c17.3,0,28.9-5.9,30.1-22.8l0-40.2l-18.8,0l0,38.2
		c0,7.4-3.6,10.7-10.5,10.8c-5.3,0.1-11.1-2.1-10.7-10.3l0-38.7H0z"/>
	<path fill="#E77715" d="M69,112.1l17.8-0.1c0.6,3.8,0.7,6,3.7,8.3c5.1,4.6,16.4,3,16.6-7c-0.9-4.6-4-6.9-10.1-7.7
		c-10.8-1.4-19.5-2.9-24.3-13.9c-4-10.4,5.9-20.2,15.6-21.5c5.8,0,11.7,0,17.5,0c8.4,0.2,18,8.1,17.2,18.8c-6,0-12,0-17.9,0
		c-0.4-1-0.7-2-1.1-3c-3.8-8.8-18.1-6.1-14.6,1.5c2.3,4.9,26.4,3.2,34.6,18.2c5.1,11.3-4.4,22.3-14.3,26.4
		C94.2,137.4,67.8,132.3,69,112.1z"/>
	<polygon fill="#E77715" points="134.8,70.9 134.8,133 153.7,133 153.7,118 164.1,108 177.1,132.9 200,132.9 200,131.3 177.1,95.1 
		177.1,93 198,72.9 198,70.9 172.8,70.9 153.9,91.9 153.9,70.8 	"/>
	<path fill="#2B2A29" d="M40.1,135.1c2.8,9.8,6.9,20.5,17,25.9c23.7,10.8,48-8.8,64.6-18.5c-12.7,16.5-61.1,52.4-81.1,36.6
		C29.6,167.7,32.9,147.8,40.1,135.1z"/>
	<path fill="#2B2A29" d="M40.2,135c1.4,4.9,3.1,10,5.8,14.6c2.6,4.6,6.1,8.6,11.2,11.3c20.3,9.3,41.1-3.8,57-13.9
		c2.6-1.7,5.1-3.2,7.5-4.6l0.5-0.3l-0.3,0.5c-0.1,0.1-0.2,0.3-0.3,0.4c-6.6,8.3-21.7,21.2-37.8,30.2c-16.1,8.9-33,13.9-43,6.2
		c-0.1,0-0.1-0.1-0.2-0.1c-5-5.2-7.1-12.1-7.1-19.4c-0.1-8.7,2.7-17.8,6.7-24.8l0.1-0.2L40.2,135z M45.8,149.7
		c-2.6-4.5-4.3-9.6-5.7-14.4c-3.9,6.9-6.6,15.9-6.5,24.5c0.1,7.2,2.1,14,7.1,19.2l0.2,0.1c9.9,7.6,26.8,2.7,42.7-6.2
		c16-8.9,31.1-21.8,37.7-30.1c-2.2,1.3-4.5,2.8-7,4.3c-16,10.1-36.8,23.3-57.2,13.9h0C52,158.4,48.5,154.3,45.8,149.7z"/>
	<path fill="#FFFFFF" d="M39.5,139.9c-3.7,10.1-6.7,22.8-1.5,32.9c10.5,22.2,59.9-8.6,70.1-19.1c-9.7,5-19.9,10.1-30.6,11.5
		c-9.1,1.2-18.5-0.1-27-6.2C43.6,152.9,42.6,148.2,39.5,139.9z"/>
	<path fill="#2B2A29" d="M39.5,140.2c-1.8,5-3.4,10.6-4,16.2c-0.6,5.7,0,11.3,2.5,16.3l0,0c0.7,1.5,1.7,2.8,2.7,3.9
		c3.7,3.6,9.4,4.5,15.9,3.6c6.5-0.9,13.9-3.5,21.1-6.9c12.8-6,24.7-14.4,29.6-19.1c-4.6,2.4-9.4,4.8-14.3,6.8
		c-5.1,2.1-10.3,3.7-15.7,4.4c-4.6,0.6-9.2,0.6-13.8-0.4c-4.6-0.9-9-2.8-13.3-5.9l0,0c-5.9-5.3-7.5-9.6-9.8-16.1
		C40.1,142.1,39.8,141.2,39.5,140.2z M35.3,156.4c0.6-5.7,2.3-11.4,4.1-16.5l0.1-0.3l0.1,0.3c0.4,1,0.7,2,1.1,3
		c2.3,6.5,3.9,10.8,9.8,16.1c4.3,3,8.7,4.9,13.2,5.8c4.5,0.9,9.1,1,13.7,0.4c5.4-0.7,10.6-2.3,15.7-4.4c5.1-2.1,10.1-4.6,14.9-7.1
		l0.6-0.3l-0.5,0.5c-4.6,4.7-16.9,13.4-30.2,19.7c-7.2,3.4-14.6,6-21.2,6.9c-6.6,0.9-12.3,0-16.1-3.7c-1.1-1.1-2-2.4-2.8-3.9
		C35.2,167.8,34.7,162.1,35.3,156.4z"/>
	<path fill="#2B2A29" d="M159.5,64.2c-3.4-9.7-8.1-20.1-18.5-24.9c-24.3-9.5-47.5,11.5-63.4,22.2c11.7-17.2,58-55.8,78.9-41.3
		C168.2,31,166,51,159.5,64.2z"/>
	<path fill="#2B2A29" d="M159.4,64.2c-1.7-4.8-3.7-9.8-6.6-14.3c-2.9-4.4-6.6-8.2-11.8-10.6c-20.8-8.1-40.8,6.2-56.1,17.2
		c-2.5,1.8-4.9,3.5-7.2,5l-0.5,0.3l0.3-0.5c0.1-0.1,0.2-0.3,0.3-0.4c6.1-8.7,20.5-22.5,36-32.3c15.5-9.9,32.1-15.7,42.6-8.7
		c0.1,0,0.1,0.1,0.2,0.1c5.3,4.9,7.8,11.7,8.2,18.9c0.6,8.7-1.7,18-5.2,25.2l-0.1,0.2L159.4,64.2z M153,49.8c2.8,4.4,4.9,9.3,6.5,14
		c3.5-7.2,5.7-16.3,5.1-24.8c-0.5-7.2-2.9-13.9-8.2-18.8l-0.2-0.1c-10.3-7-26.9-1.1-42.3,8.7C98.5,38.6,84.1,52.3,78.1,61
		c2.1-1.4,4.4-3,6.7-4.7c15.4-11,35.4-25.3,56.3-17.2v0C146.3,41.6,150.1,45.4,153,49.8z"/>
	<path fill="#FFFFFF" d="M159.9,59.3c3.1-10.3,5.4-23.2-0.3-32.9c-11.7-21.6-59.3,12.1-68.8,23.1c9.4-5.5,19.2-11.2,29.9-13.2
		c9-1.7,18.5-0.9,27.3,4.6C155,46.5,156.3,51.2,159.9,59.3z"/>
	<path fill="#2B2A29" d="M159.9,58.9c1.5-5.1,2.8-10.8,3-16.4c0.2-5.7-0.6-11.3-3.5-16.2l0,0c-0.8-1.5-1.8-2.7-2.9-3.7
		c-3.9-3.4-9.6-3.9-16.1-2.7c-6.5,1.3-13.7,4.3-20.7,8.1C107.4,34.9,95.9,43.9,91.3,49c4.5-2.6,9.1-5.3,13.9-7.6
		c5-2.4,10.1-4.3,15.5-5.3c4.5-0.9,9.2-1.1,13.8-0.4c4.6,0.7,9.2,2.3,13.6,5.1l0,0c6.2,5,8,9.1,10.7,15.6
		C159.1,57.1,159.5,58,159.9,58.9z M163.1,42.6c-0.2,5.7-1.6,11.5-3.1,16.7l-0.1,0.3l-0.1-0.3c-0.5-1-0.9-2-1.3-2.9
		c-2.7-6.4-4.5-10.5-10.7-15.5c-4.4-2.8-9-4.4-13.6-5.1c-4.6-0.7-9.2-0.4-13.7,0.4c-5.3,1-10.4,3-15.4,5.3c-5,2.4-9.8,5.2-14.5,7.9
		l-0.6,0.3l0.4-0.5c4.3-4.9,16.1-14.4,29-21.4c7-3.8,14.2-6.9,20.7-8.1c6.5-1.3,12.3-0.7,16.3,2.7c1.2,1,2.2,2.2,3,3.8
		C162.5,31.2,163.4,36.9,163.1,42.6z"/>
</g>
</svg>
