<!-- Generator: Adobe Illustrator 19.0.0, SVG Export Plug-In  -->
<svg version="1.1"
	 xmlns="http://www.w3.org/2000/svg" xmlns:xlink="http://www.w3.org/1999/xlink" xmlns:a="http://ns.adobe.com/AdobeSVGViewerExtensions/3.0/"
	 x="0px" y="0px" width="24px" height="24px" viewBox="0 0 24 24" style="enable-background:new 0 0 24 24;" xml:space="preserve">
<style type="text/css">
	.st0{fill:#1976D2;}
</style>
<defs>
</defs>
<g>
	<g>
		<path class="st0" d="M17.2,15.1h-1.1l-0.4-0.4c1.3-1.6,2.2-3.6,2.2-5.8c0-4.9-4-8.9-8.9-8.9S0,4,0,8.9s4,8.9,8.9,8.9
			c2.2,0,4.2-0.8,5.8-2.2l0.4,0.4v1.1L22,24l2-2L17.2,15.1z M8.9,15.1c-3.4,0-6.2-2.8-6.2-6.2s2.8-6.2,6.2-6.2s6.2,2.8,6.2,6.2
			S12.3,15.1,8.9,15.1z"/>
		<path class="st0" d="M12.3,9.6H9.6v2.7H8.2V9.6H5.5V8.2h2.7V5.5h1.4v2.7h2.7V9.6z"/>
	</g>
</g>
</svg>
