<?xml version="1.0" encoding="utf-8"?>
<!-- Generator: Adobe Illustrator 19.0.0, SVG Export Plug-In . SVG Version: 6.00 Build 0)  -->
<svg version="1.1" id="Layer_1" xmlns="http://www.w3.org/2000/svg" xmlns:xlink="http://www.w3.org/1999/xlink" x="0px" y="0px"
	 viewBox="-31 44 136 114" style="enable-background:new -31 44 136 114;" xml:space="preserve">
<style type="text/css">
	.st0{fill:#FFFFFF;}
</style>
<g>
	<polygon class="st0" points="22.1,110.8 28.1,114.5 23.6,126 67,103.1 66.8,104 11.2,139.7 	"/>
	<path class="st0" d="M84.1,92.1l-31,1.5l17,45.8L17,105.5v-5.3l52.8,39l-22-45.3l-12,0.4l-1.2,4.1h13.8l3,6.4L25,104.9l3.6-10.4
		l-27.2,1L-5,91.6h34.6l10.9-31.9l11.8,31.9L84.1,92.1z M36.6,91.6h10.1l-6.2-12.7L36.6,91.6z"/>
	<path class="st0" d="M83.7,101.5c0,1.8-0.5,3.3-1.5,4.5c-1.4,1.6-4.7,2.4-7.6,2.4h-6.3v21.2l-4.2-12.7V98.3l-5.5-3.9h15.9
		c3.1,0,6.5,0.9,7.8,2.7C83.3,98.4,83.7,99.8,83.7,101.5 M78.5,101.5c0-1.2-0.5-2-1.4-2.5c-0.6-0.3-1.3-0.5-2.2-0.5h-6.6v5.9h6.6
		c1.2,0,2.1-0.3,2.7-0.8C78.2,103.1,78.5,102.4,78.5,101.5"/>
	<path class="st0" d="M13.4,109.9v-8c-7.7,7.9-21.4,3.5-21.7-6.1C-8.5,86.2,5.9,82,13.4,90.1v-8L10.6,84c-5.9-3.3-15.9-2.7-21,2
		c-6.5,5.9-6.4,14.2,0.1,20.1c5.1,4.7,14.5,5.8,20.9,2.2L13.4,109.9z"/>
	<path class="st0" d="M70.2,82.1l-2.6-3.9L66,77.1h4.9L70,78.2l1.3,1.9l1-1.7L71,77.1h4.1l-1.4,1.4l-2.2,4c-0.2,0.3-0.4,0.6-0.6,0.9
		c-0.2,0.3-0.5,0.5-0.7,0.7c-0.2,0.2-0.5,0.3-0.7,0.3l-0.3,0.1l-0.3,0.1h-0.2c-0.1,0-0.3,0-0.4-0.1c-0.1,0-0.4-0.1-0.8-0.4
		c-0.1,0-0.1-0.1-0.2-0.3c0-0.2-0.1-0.3-0.1-0.5c0-0.3,0-0.6,0.1-0.9c0.1-0.3,0.2-0.6,0.4-0.9c0.2-0.3,0.4-0.5,0.6-0.7v0.1V81
		c0,0.1,0,0.2,0.1,0.4c0,0.1,0,0.2,0,0.3c0,0.1,0,0.1,0,0.2c0.1,0.4,0.3,0.6,0.5,0.8c0.1,0.1,0.2,0.2,0.3,0.2
		c0.1,0.1,0.2,0.1,0.3,0.1l0,0l0,0c0.1,0,0.3,0,0.4-0.1l0.1-0.1l0.1-0.1C70.2,82.3,70.2,82.3,70.2,82.1L70.2,82.1z"/>
	<path class="st0" d="M81.7,83h0.8v2.6l-1.4-1.3h-6.7L73,85.6V83h1.2l2.2-4.8l-1-1.1H80l-0.7,1.1L81.7,83z M75.6,83h3.9l-2-4.2
		L75.6,83z"/>
	<path class="st0" d="M65.9,82.2c0.1-0.4,0.2-0.8,0.2-1.3v-0.2c0-0.4,0-0.8-0.1-1.2s-0.2-0.7-0.4-0.9c-0.4-0.5-0.8-0.9-1.3-1.2l0,0
		c-0.3-0.1-0.6-0.3-0.9-0.4c-0.2-0.1-0.4-0.1-0.7-0.1l0,0L61,76.6h-3.3v-4.2H63l2.1,1.9v-3.4h-12l1.9,2.5v8.4l-1.9,2.6h9.7l0.5-0.1
		l0.5-0.1l0.6-0.1c0.2,0,0.4-0.1,0.5-0.3c0.2-0.2,0.4-0.4,0.5-0.6s0.2-0.3,0.2-0.5C65.8,82.5,65.9,82.3,65.9,82.2 M57.8,82.8v-4.5
		h3.6c0.4,0,0.8,0.2,1,0.6c0.3,0.4,0.4,1.1,0.4,1.7c0,0.7-0.2,1.3-0.6,1.7c-0.4,0.3-0.8,0.5-1.2,0.5H57.8z"/>
</g>
</svg>
