<?xml version="1.0" encoding="utf-8"?>
<!-- Generator: Adobe Illustrator 19.0.0, SVG Export Plug-In . SVG Version: 6.00 Build 0)  -->
<svg version="1.1" id="Layer_1" xmlns="http://www.w3.org/2000/svg" xmlns:xlink="http://www.w3.org/1999/xlink" x="0px" y="0px"
	 viewBox="8 -8 48 48" style="enable-background:new 8 -8 48 48;" xml:space="preserve">
<path d="M50,28v2c0,2.2-1.8,4-4,4H18c-2.2,0-4-1.8-4-4V2c0-2.2,1.8-4,4-4h28c2.2,0,4,1.8,4,4v2H32c-2.2,0-4,1.8-4,4v16
	c0,2.2,1.8,4,4,4H50z M32,24h20V8H32V24z M40,19c-1.7,0-3-1.3-3-3s1.3-3,3-3s3,1.3,3,3S41.7,19,40,19z"/>
</svg>
