<?xml version="1.0" encoding="utf-8"?>
<!-- Generator: Adobe Illustrator 19.0.0, SVG Export Plug-In . SVG Version: 6.00 Build 0)  -->
<svg version="1.1" id="Layer_1" xmlns="http://www.w3.org/2000/svg" xmlns:xlink="http://www.w3.org/1999/xlink" x="0px" y="0px"
	 viewBox="-15 17 48 48" style="enable-background:new -15 17 48 48;" xml:space="preserve">
<style type="text/css">
	.st0{fill:#FFFFFF;}
</style>
<path class="st0" d="M8.6,38.8c-4.5-1.2-6-2.4-6-4.3c0-2.2,2-3.7,5.4-3.7c3.6,0,4.9,1.7,5,4.2h4.4c-0.1-3.4-2.2-6.6-6.4-7.6V23H5
	v4.3c-3.9,0.8-7,3.4-7,7.2c0,4.6,3.8,6.9,9.4,8.3c5,1.2,6,3,6,4.8c0,1.4-1,3.6-5.4,3.6c-4.1,0-5.7-1.8-6-4.2h-4.4
	c0.2,4.4,3.5,6.8,7.4,7.7V59h6v-4.3c3.9-0.7,7-3,7-7.1C18,41.9,13.1,40,8.6,38.8z"/>
</svg>
