<?xml version="1.0" encoding="utf-8"?>
<!-- Generator: Adobe Illustrator 19.0.0, SVG Export Plug-In . SVG Version: 6.00 Build 0)  -->
<svg version="1.1" id="Layer_1" xmlns="http://www.w3.org/2000/svg" xmlns:xlink="http://www.w3.org/1999/xlink" x="0px" y="0px"
	 viewBox="-15 17 48 48" style="enable-background:new -15 17 48 48;" xml:space="preserve">
<style type="text/css">
	.st0{fill:#FFFFFF;}
</style>
<path class="st0" d="M15,54c-5,0-9.4-2.8-11.5-7H15v-4H2.2C2.1,42.3,2,41.7,2,41s0.1-1.3,0.2-2H15v-4H3.5c2.2-4.2,6.5-7,11.5-7
	c3.2,0,6.2,1.2,8.5,3.1l3.5-3.5c-3.2-2.9-7.4-4.6-12-4.6C7.2,23,0.5,28-2,35h-7v4h6.1C-3,39.7-3,40.3-3,41s0,1.3,0.1,2H-9v4h7
	c2.5,7,9.1,12,17,12c4.6,0,8.8-1.7,12-4.6l-3.6-3.5C21.2,52.8,18.2,54,15,54z"/>
</svg>
