<?xml version="1.0" encoding="utf-8"?>
<!-- Generator: Adobe Illustrator 19.0.0, SVG Export Plug-In . SVG Version: 6.00 Build 0)  -->
<svg version="1.1" id="Layer_1" xmlns="http://www.w3.org/2000/svg" xmlns:xlink="http://www.w3.org/1999/xlink" x="0px" y="0px"
	 viewBox="8 -8 48 48" style="enable-background:new 8 -8 48 48;" xml:space="preserve">
<path d="M38,34h4v-4h-4V34z M46,10h4V6h-4V10z M14,2v28c0,2.2,1.8,4,4,4h8v-4h-8V2h8v-4h-8C15.8-2,14-0.2,14,2z M46-2v4h4
	C50-0.2,48.2-2,46-2z M30,38h4V-6h-4V38z M46,26h4v-4h-4V26z M38,2h4v-4h-4V2z M46,18h4v-4h-4V18z M46,34c2.2,0,4-1.8,4-4h-4V34z"/>
</svg>
