<?xml version="1.0" encoding="utf-8"?>
<!-- Generator: Adobe Illustrator 19.0.0, SVG Export Plug-In . SVG Version: 6.00 Build 0)  -->
<svg version="1.1" id="Layer_1" xmlns="http://www.w3.org/2000/svg" xmlns:xlink="http://www.w3.org/1999/xlink" x="0px" y="0px"
	 viewBox="8 -8 48 48" style="enable-background:new 8 -8 48 48;" xml:space="preserve">
<path d="M34-2c-9.9,0-18,8.1-18,18h-6l7.8,7.8l0.1,0.3L26,16h-6c0-7.7,6.3-14,14-14s14,6.3,14,14s-6.3,14-14,14
	c-3.9,0-7.4-1.6-9.9-4.1l-2.8,2.8C24.5,32,29,34,34,34c9.9,0,18-8.1,18-18S43.9-2,34-2z M32,8v10l8.6,5.1l1.4-2.4l-7-4.2V8H32z"/>
</svg>
