<?xml version="1.0" encoding="utf-8"?>
<!-- Generator: Adobe Illustrator 19.0.0, SVG Export Plug-In . SVG Version: 6.00 Build 0)  -->
<svg version="1.1" id="Layer_1" xmlns="http://www.w3.org/2000/svg" xmlns:xlink="http://www.w3.org/1999/xlink" x="0px" y="0px"
	 viewBox="8 -8 48 48" style="enable-background:new 8 -8 48 48;" xml:space="preserve">
<path d="M46-2H18c-2.2,0-4,1.8-4,4l0,28c0,2.2,1.8,4,4,4h28c2.2,0,4-1.8,4-4V2C50-0.2,48.2-2,46-2z M46,22h-8c0,3.3-2.7,6-6,6
	s-6-2.7-6-6h-8V2h28V22z M40,12h-4V6h-8v6h-4l8,8L40,12z"/>
</svg>
