<!-- Generator: Adobe Illustrator 19.0.0, SVG Export Plug-In  -->
<svg version="1.1"
	 xmlns="http://www.w3.org/2000/svg" xmlns:xlink="http://www.w3.org/1999/xlink" xmlns:a="http://ns.adobe.com/AdobeSVGViewerExtensions/3.0/"
	 x="0px" y="0px" width="26px" height="22.4px" viewBox="0 0 26 22.4" style="enable-background:new 0 0 26 22.4;"
	 xml:space="preserve">
<style type="text/css">
	.st0{fill:#FFFFFF;}
	.st1{fill:#E91E63;}
</style>
<defs>
</defs>
<path class="st0" d="M24.8,8.2h-5.7L14,0.5C13.8,0.2,13.4,0,13,0s-0.8,0.2-1,0.5L6.8,8.2H1.2C0.5,8.2,0,8.8,0,9.4c0,0.1,0,0.2,0,0.3
	l3,11c0.3,1,1.2,1.7,2.3,1.7h15.4c1.1,0,2-0.7,2.3-1.7l3-11l0-0.3C26,8.8,25.5,8.2,24.8,8.2z M13,3l3.5,5.2H9.5L13,3z"/>
<path class="st1" d="M16.8,13.2l-2.2,2.2h1.6c0,1.8-1.5,3.3-3.3,3.3c-0.6,0-1.1-0.1-1.5-0.4l-0.8,0.8c0.7,0.4,1.5,0.7,2.3,0.7
	c2.4,0,4.4-2,4.4-4.4H19L16.8,13.2z M9.7,15.4c0-1.8,1.5-3.3,3.3-3.3c0.6,0,1.1,0.1,1.5,0.4l0.8-0.8C14.7,11.3,13.9,11,13,11
	c-2.4,0-4.4,2-4.4,4.4H7l2.2,2.2l2.2-2.2H9.7z"/>
</svg>
