<?xml version="1.0" encoding="utf-8"?>
<!-- Generator: Adobe Illustrator 18.0.0, SVG Export Plug-In . SVG Version: 6.00 Build 0)  -->
<!DOCTYPE svg PUBLIC "-//W3C//DTD SVG 1.1//EN" "http://www.w3.org/Graphics/SVG/1.1/DTD/svg11.dtd">
<svg version="1.1" id="Layer_1" xmlns="http://www.w3.org/2000/svg" xmlns:xlink="http://www.w3.org/1999/xlink" x="0px" y="0px"
	 viewBox="-31 0 120 50" enable-background="new -31 0 120 50" xml:space="preserve">
<g>
	<path fill="#78909C" d="M88,1V0H58.5C58.2,0,58,0.2,58,0.5v11c0,0.3,0.2,0.5,0.5,0.5H88v-1H59V1H88z"/>
	<path fill="#78909C" d="M36.9,35.2c0.2-0.2,0.2-0.5,0-0.7l-2-2l-0.7,0.7l1.6,1.6L33.6,37L0,2.8V1h1V0h-31v1h29v10h-29v1h29.5
		c0.3,0,0.5-0.2,0.5-0.5V9.9l29.9,31l-1.8,1.8l-1.7-1.7l-0.7,0.7l2.1,2.1c0.1,0.1,0.2,0.1,0.4,0.1c0.1,0,0.3-0.1,0.4-0.1l2.1-2.2
		l7.7,7.9l3.9-3.8l-7.9-8L36.9,35.2z"/>
	<path fill="#78909C" d="M47.9,4.8C47.3,12.9,45,20.6,41,27.7l-0.8-1.2l-0.7,4.7l3.9-2.8l-1.5-0.2c4-7.2,6.4-15.1,7-23.4L47.9,4.8z"
		/>
	<rect x="19" fill="#78909C" width="2" height="1"/>
	<rect x="31" fill="#78909C" width="2" height="1"/>
	<rect x="23" fill="#78909C" width="2" height="1"/>
	<rect x="27" fill="#78909C" width="2" height="1"/>
	<rect x="43" fill="#78909C" width="2" height="1"/>
	<rect x="39" fill="#78909C" width="2" height="1"/>
	<rect x="35" fill="#78909C" width="2" height="1"/>
	<rect x="3" fill="#78909C" width="2" height="1"/>
	<rect x="51" fill="#78909C" width="2" height="1"/>
	<rect x="55" fill="#78909C" width="2" height="1"/>
	<rect x="47" fill="#78909C" width="2" height="1"/>
	<rect x="15" fill="#78909C" width="2" height="1"/>
	<rect x="7" fill="#78909C" width="2" height="1"/>
	<rect x="11" fill="#78909C" width="2" height="1"/>
</g>
</svg>
