<?xml version="1.0" encoding="utf-8"?>
<!-- Generator: Adobe Illustrator 18.0.0, SVG Export Plug-In . SVG Version: 6.00 Build 0)  -->
<!DOCTYPE svg PUBLIC "-//W3C//DTD SVG 1.1//EN" "http://www.w3.org/Graphics/SVG/1.1/DTD/svg11.dtd">
<svg version="1.1" id="Layer_1" xmlns="http://www.w3.org/2000/svg" xmlns:xlink="http://www.w3.org/1999/xlink" x="0px" y="0px"
	 viewBox="-31 0 120 50" enable-background="new -31 0 120 50" xml:space="preserve">
<g>
	<polygon fill="#0D47A1" points="88,38.7 88,37.7 58,37.7 58,48.7 56.5,48.7 56.5,49.7 58,49.7 59,49.7 88,49.7 88,48.7 59,48.7 
		59,38.7 	"/>
	<path fill="#0D47A1" d="M35.9,11.4l7.5-7.6L39.8,0l-7.5,7.7l-2.4-2.4c-0.2-0.2-0.5-0.2-0.7,0l-2,2L27.9,8l1.6-1.6l2,2L0,40.7
		c0-1.5,0-2.7,0-3h-30v1h29v10h-29v1H0c0-0.2,0-1,0-2l35.2-35.6l2.6,2.6l-1.6,1.6l0.7,0.7l2-2c0.2-0.2,0.2-0.5,0-0.7L35.9,11.4z"/>
	<path fill="#0D47A1" d="M45.4,21l-3.9-2.8l0.7,4.7l0.8-1.2c3.9,7.1,6.3,14.8,6.8,22.9l1-0.1c-0.6-8.3-2.9-16.2-7-23.4L45.4,21z"/>
	<rect x="24.5" y="48.7" fill="#0D47A1" width="2" height="1"/>
	<rect x="16.5" y="48.7" fill="#0D47A1" width="2" height="1"/>
	<rect x="20.5" y="48.7" fill="#0D47A1" width="2" height="1"/>
	<rect x="12.5" y="48.7" fill="#0D47A1" width="2" height="1"/>
	<rect x="0.5" y="48.7" fill="#0D47A1" width="2" height="1"/>
	<rect x="4.5" y="48.7" fill="#0D47A1" width="2" height="1"/>
	<rect x="8.5" y="48.7" fill="#0D47A1" width="2" height="1"/>
	<rect x="48.5" y="48.7" fill="#0D47A1" width="2" height="1"/>
	<rect x="40.5" y="48.7" fill="#0D47A1" width="2" height="1"/>
	<rect x="28.5" y="48.7" fill="#0D47A1" width="2" height="1"/>
	<rect x="52.5" y="48.7" fill="#0D47A1" width="2" height="1"/>
	<rect x="44.5" y="48.7" fill="#0D47A1" width="2" height="1"/>
	<rect x="36.5" y="48.7" fill="#0D47A1" width="2" height="1"/>
	<rect x="32.5" y="48.7" fill="#0D47A1" width="2" height="1"/>
</g>
</svg>
