<?xml version="1.0" encoding="utf-8"?>
<!-- Generator: Adobe Illustrator 18.0.0, SVG Export Plug-In . SVG Version: 6.00 Build 0)  -->
<!DOCTYPE svg PUBLIC "-//W3C//DTD SVG 1.1//EN" "http://www.w3.org/Graphics/SVG/1.1/DTD/svg11.dtd">
<svg version="1.1" id="Layer_1" xmlns="http://www.w3.org/2000/svg" xmlns:xlink="http://www.w3.org/1999/xlink" x="0px" y="0px"
	 viewBox="-31 0 120 50" enable-background="new -31 0 120 50" xml:space="preserve">
<g>
	<path fill="#78909C" d="M17.5,30.8l-0.7-4.7L16,27.2C12,20.1,9.7,12.4,9.1,4.3l-1,0.1c0.6,8.3,2.9,16.2,7,23.4L13.6,28L17.5,30.8z"
		/>
	<rect x="40" fill="#78909C" width="2" height="1"/>
	<rect x="28" fill="#78909C" width="2" height="1"/>
	<rect x="32" fill="#78909C" width="2" height="1"/>
	<rect x="36" fill="#78909C" width="2" height="1"/>
	<rect x="52" fill="#78909C" width="2" height="1"/>
	<rect x="48" fill="#78909C" width="2" height="1"/>
	<rect x="44" fill="#78909C" width="2" height="1"/>
	<rect x="16" fill="#78909C" width="2" height="1"/>
	<rect x="24" fill="#78909C" width="2" height="1"/>
	<rect x="4" fill="#78909C" width="2" height="1"/>
	<rect x="8" fill="#78909C" width="2" height="1"/>
	<path fill="#78909C" d="M-30,0v1h29v10h-29v1h29.5c0.3,0,0.5-0.2,0.5-0.5V1h2V0H-30z"/>
	<rect x="12" fill="#78909C" width="2" height="1"/>
	<rect x="20" fill="#78909C" width="2" height="1"/>
	<path fill="#78909C" d="M88,1V0H56v1h2v0.3L23.4,36.5l-2.2-2.2l1.6-1.6L22.1,32l-2,2c-0.2,0.2-0.2,0.5,0,0.7l2.5,2.5l-7.9,8
		l3.9,3.8l7.7-8l2.7,2.7c0.1,0.1,0.2,0.1,0.4,0.1s0.3,0,0.4-0.1l2-2L31.1,41l-1.6,1.6l-2.4-2.4L58,8.3v3.2c0,0.3,0.2,0.5,0.5,0.5H88
		v-1H59V1H88z"/>
</g>
</svg>
