<?xml version="1.0" encoding="utf-8"?>
<!-- Generator: Adobe Illustrator 18.0.0, SVG Export Plug-In . SVG Version: 6.00 Build 0)  -->
<!DOCTYPE svg PUBLIC "-//W3C//DTD SVG 1.1//EN" "http://www.w3.org/Graphics/SVG/1.1/DTD/svg11.dtd">
<svg version="1.1" id="Layer_1" xmlns="http://www.w3.org/2000/svg" xmlns:xlink="http://www.w3.org/1999/xlink" x="0px" y="0px"
	 viewBox="-31 0 120 50" enable-background="new -31 0 120 50" xml:space="preserve">
<g>
	<path fill="#78909C" d="M-0.5,38H-30v1h29v10h-29v1h29.5c0.3,0,0.5-0.2,0.5-0.5v-11C0,38.2-0.2,38-0.5,38z"/>
	<path fill="#78909C" d="M59,41v-2h29v-1H58.5c-0.3,0-0.5,0.2-0.5,0.5V40L27.9,8.8l1.5-1.5l2.6,2.6l0.7-0.7l-3-3
		c-0.2-0.2-0.5-0.2-0.7,0l-1.9,1.9l-7.5-7.8l-3.9,3.8l7.9,8l-2.5,2.5c-0.2,0.2-0.2,0.5,0,0.7l2,2l0.7-0.7L22.2,15l2.2-2.2L58,47v2
		h-1v1h1.5H59h29v-1H59v-1V41z"/>
	<path fill="#78909C" d="M10.1,45c0.6-8.1,2.9-15.8,6.8-22.9l0.8,1.2l0.7-4.7l-3.9,2.8l1.5,0.2c-4,7.2-6.4,15.1-7,23.4L10.1,45z"/>
	<rect x="49" y="49" fill="#78909C" width="2" height="1"/>
	<rect x="13" y="49" fill="#78909C" width="2" height="1"/>
	<rect x="17" y="49" fill="#78909C" width="2" height="1"/>
	<rect x="5" y="49" fill="#78909C" width="2" height="1"/>
	<rect x="1" y="49" fill="#78909C" width="2" height="1"/>
	<rect x="53" y="49" fill="#78909C" width="2" height="1"/>
	<rect x="9" y="49" fill="#78909C" width="2" height="1"/>
	<rect x="37" y="49" fill="#78909C" width="2" height="1"/>
	<rect x="41" y="49" fill="#78909C" width="2" height="1"/>
	<rect x="45" y="49" fill="#78909C" width="2" height="1"/>
	<rect x="25" y="49" fill="#78909C" width="2" height="1"/>
	<rect x="21" y="49" fill="#78909C" width="2" height="1"/>
	<rect x="29" y="49" fill="#78909C" width="2" height="1"/>
	<rect x="33" y="49" fill="#78909C" width="2" height="1"/>
</g>
</svg>
