<?xml version="1.0" encoding="utf-8"?>
<!-- Generator: Adobe Illustrator 18.0.0, SVG Export Plug-In . SVG Version: 6.00 Build 0)  -->
<!DOCTYPE svg PUBLIC "-//W3C//DTD SVG 1.1//EN" "http://www.w3.org/Graphics/SVG/1.1/DTD/svg11.dtd">
<svg version="1.1" id="Layer_1" xmlns="http://www.w3.org/2000/svg" xmlns:xlink="http://www.w3.org/1999/xlink" x="0px" y="0px"
	 viewBox="0 0 96 96" enable-background="new 0 0 96 96" xml:space="preserve">
<g>
	<polygon fill="#0D47A1" points="38.4,58.2 44,61.5 39.9,72 79.4,51.1 79.2,51.9 28.6,84.5 	"/>
	<path fill="#0D47A1" d="M95,41.2l-28.3,1.4l15.5,41.7l-48.4-31v-4.8L81.9,84l-20-41.4L50.9,43l-1.1,3.7h12.6l2.8,5.8l-24,0.1
		l3.2-9.5l-24.8,0.9l-5.8-3.6h31.5l9.9-29l10.8,29L95,41.2z M51.7,40.6h9.2L55.2,29L51.7,40.6z"/>
	<polygon fill="#0D47A1" points="28.7,43.2 32.8,43.2 32.8,65.6 28.7,78.9 	"/>
	<path fill="#0D47A1" d="M94.6,49.6c0,1.7-0.5,3.1-1.4,4.1c-1.3,1.5-4.3,2.2-7,2.2h-5.8v19.3l-3.8-11.6V46.7l-4.9-3.4h14.6
		c2.9,0,5.8,0.8,7.1,2.5C94.3,46.8,94.6,48.1,94.6,49.6L94.6,49.6z M89.9,49.6c0-1.1-0.4-1.9-1.2-2.2c-0.6-0.3-1.2-0.4-2-0.4h-6v5.4
		h6c1.1,0,1.9-0.3,2.5-0.6C89.6,51.1,89.9,50.5,89.9,49.6L89.9,49.6z"/>
	<path fill="#0D47A1" d="M27.1,57.3V50c-7,7.2-19.5,3.2-19.8-5.6c-0.2-8.8,13-12.6,19.8-5.2v-7.3l-2.6,1.7
		c-5.4-3.1-14.5-2.4-19.1,1.8c-5.9,5.4-5.8,12.9,0.1,18.4c4.6,4.3,13.2,5.3,19.1,1.9L27.1,57.3z"/>
	<path fill="#0D47A1" d="M82.3,32L80,28.4l-1.4-1H83l-0.8,1l1.2,1.8l0.9-1.6l-1.1-1.2H87l-1.3,1.3l-2,3.6c-0.2,0.3-0.4,0.6-0.6,0.8
		c-0.2,0.3-0.5,0.5-0.6,0.6C82.3,33.9,82,34,81.8,34l-0.3,0.1l-0.3,0.1h-0.2c-0.1,0-0.3,0-0.4-0.1c-0.1,0-0.4-0.1-0.7-0.4
		c-0.1,0-0.1-0.1-0.2-0.3c0-0.2-0.1-0.3-0.1-0.5c0-0.3,0-0.6,0.1-0.8c0.1-0.3,0.2-0.6,0.3-0.8c0.2-0.3,0.3-0.5,0.6-0.6v0.1v0.1
		c0,0.1,0,0.2,0.1,0.4c0,0.1,0,0.2,0,0.3c0,0.1,0,0.1,0,0.2c0.1,0.4,0.3,0.6,0.5,0.7c0.1,0.1,0.2,0.2,0.3,0.2
		c0.1,0.1,0.2,0.1,0.3,0.1l0,0l0,0c0.1,0,0.3,0,0.4-0.1l0.1-0.1l0.1-0.1C82.3,32.2,82.3,32.1,82.3,32L82.3,32z"/>
	<path fill="#0D47A1" d="M92.9,32.7h0.7v2.3l-1.2-1.2h-6.1l-1.2,1.2v-2.3h1.1l1.9-4.4l-0.9-1h4.2l-0.6,1L92.9,32.7z M87.2,32.7h3.5
		l-1.9-3.8L87.2,32.7z"/>
	<path fill="#0D47A1" d="M78.4,32c0.1-0.4,0.2-0.7,0.2-1.2v-0.1c0-0.4,0-0.7-0.1-1.1c-0.1-0.3-0.2-0.6-0.4-0.8
		c-0.4-0.5-0.7-0.8-1.2-1l0,0l0,0c-0.3-0.1-0.6-0.3-0.8-0.4c-0.2-0.1-0.4-0.1-0.6-0.1l0,0L73.9,27h-3v-3.8h4.8l1.9,1.7v-3.2H66.8
		l1.8,2.2v7.6l-1.8,2.3h8.8l0.5-0.1l0.5-0.1l0.6-0.1c0.2,0,0.4-0.1,0.5-0.3c0.2-0.2,0.4-0.4,0.5-0.6c0.1-0.2,0.2-0.3,0.2-0.5
		C78.3,32.4,78.4,32.2,78.4,32L78.4,32z M71,32.7v-4.1h3.3c0.4,0,0.6,0.2,0.9,0.6c0.3,0.4,0.4,1,0.4,1.6c0,0.6-0.2,1.2-0.6,1.6
		c-0.4,0.3-0.6,0.5-1.1,0.5L71,32.7L71,32.7z"/>
</g>
</svg>
