<!-- Generator: Adobe Illustrator 19.0.0, SVG Export Plug-In  -->
<svg version="1.1"
	 xmlns="http://www.w3.org/2000/svg" xmlns:xlink="http://www.w3.org/1999/xlink" xmlns:a="http://ns.adobe.com/AdobeSVGViewerExtensions/3.0/"
	 x="0px" y="0px" width="37.5px" height="40px" viewBox="0 0 37.5 40" style="enable-background:new 0 0 37.5 40;"
	 xml:space="preserve">
<style type="text/css">
	.st0{fill:#1976D2;}
</style>
<defs>
</defs>
<g>
	<path class="st0" d="M31.2,12.4c-0.1,2.5-0.8,4.8-2.2,6.9c-3.1,4.4-6.1,8.7-9.2,13c-0.6,0.8-1.3,0.8-1.9,0
		c-3.1-4.4-6.2-8.8-9.3-13.2c-1.4-2-2.2-4.3-2.1-6.7C6.7,7.1,9.1,3,14.2,0.9c7-2.9,15,1.4,16.6,8.8C31,10.6,31,11.5,31.2,12.4z
		 M18.8,4.7c-4.2,0-7.5,3.4-7.5,7.6c0,4.1,3.4,7.4,7.6,7.4c4.1,0,7.5-3.4,7.4-7.6C26.2,8,22.8,4.7,18.8,4.7z"/>
	<path class="st0" d="M0,40c0.1-0.1,0.1-0.3,0.2-0.4C2.6,35.1,5,30.5,7.4,26c0.1-0.2,0.3-0.3,0.6-0.3c1.1,0,2.2,0,3.3,0
		c0.2,0,0.4,0.1,0.5,0.3c0.2,0.4,0.5,0.7,0.8,1.1c-0.3,0-0.6,0-0.8,0c-1,0-2,0-2.9,0c-0.1,0-0.4,0.1-0.4,0.2
		c-0.7,1.2-1.3,2.4-1.9,3.6c0,0,0,0.1-0.1,0.2c2,0,4,0,6,0c0,0.5,0,0.9,0,1.4c-0.2,0-0.5,0-0.7,0c-1.9,0-3.8,0-5.7,0
		c-0.3,0-0.5,0.1-0.6,0.4c-0.9,1.8-1.9,3.6-2.8,5.3c-0.1,0.1-0.1,0.2-0.2,0.4c5.2,0,10.4,0,15.7,0c0-1,0-2.1,0-3.2
		c0.5,0,0.9,0,1.4,0c0,1,0,2.1,0,3.2c5.2,0,10.4,0,15.6,0c-0.1-0.2-0.1-0.3-0.2-0.4c-1-1.8-2-3.6-3-5.4c-0.1-0.3-0.3-0.3-0.6-0.3
		c-2,0-4,0-5.9,0c-0.1,0-0.3,0-0.5,0c0-0.5,0-0.9,0-1.4c2,0,4,0,6,0c-0.1-0.2-0.1-0.3-0.2-0.4c-0.6-1.1-1.2-2.2-1.9-3.4
		c-0.1-0.2-0.3-0.3-0.5-0.3c-1,0-1.9,0-2.9,0c-0.1,0-0.3,0-0.5,0c0.3-0.5,0.6-0.9,0.9-1.3c0.1-0.1,0.2-0.1,0.3-0.1c1,0,2,0,3.1,0
		c0.1,0,0.3,0.1,0.4,0.2c2.6,4.6,5.1,9.2,7.7,13.8c0,0.1,0.1,0.1,0.1,0.2C25,40,12.5,40,0,40z"/>
</g>
</svg>
