<!-- Generator: Adobe Illustrator 19.0.0, SVG Export Plug-In  -->
<svg version="1.1"
	 xmlns="http://www.w3.org/2000/svg" xmlns:xlink="http://www.w3.org/1999/xlink" xmlns:a="http://ns.adobe.com/AdobeSVGViewerExtensions/3.0/"
	 x="0px" y="0px" width="38px" height="38px" viewBox="0 0 38 38" style="enable-background:new 0 0 38 38;" xml:space="preserve">
<style type="text/css">
	.st0{fill:#1976D2;}
</style>
<defs>
</defs>
<g>
	<path class="st0" d="M34.5,8.2C31.2,3.2,25.5,0,19,0C8.6,0,0,8.6,0,19h3.2c0-8.7,7.1-15.8,15.8-15.8c5.5,0,10.5,2.8,13.3,7.3
		l-3.8,3.8H38V4.8L34.5,8.2z"/>
	<circle class="st0" cx="6.3" cy="19" r="1.6"/>
	<circle class="st0" cx="10" cy="10" r="1.6"/>
	<circle class="st0" cx="28" cy="10" r="1.6"/>
	<circle class="st0" cx="31.7" cy="19" r="1.6"/>
	<path class="st0" d="M26.8,29.1c0.6,0.6,1.6,0.6,2.2,0s0.6-1.6,0-2.2c-0.6-0.6-1.6-0.6-2.2,0C26.3,27.4,26.3,28.5,26.8,29.1z"/>
	<circle class="st0" cx="19" cy="31.7" r="1.6"/>
	<path class="st0" d="M8.9,26.8c-0.6,0.6-0.6,1.6,0,2.2c0.6,0.6,1.6,0.6,2.2,0c0.6-0.6,0.6-1.6,0-2.2C10.6,26.3,9.5,26.3,8.9,26.8z"
		/>
	<path class="st0" d="M19,4.8c-1,0-1.6,0.6-1.6,1.6v10c-1,0.5-1.6,1.6-1.6,2.7c0,1.7,1.4,3.2,3.2,3.2c0.3,0,0.5,0,0.8-0.2l2.5,2.5
		c0.6,0.6,1.6,0.6,2.2,0c0.6-0.6,0.6-1.6,0-2.2L22,19.8c0-0.3,0.2-0.5,0.2-0.8c0-1.1-0.6-2.2-1.6-2.7v-10C20.6,5.4,20,4.8,19,4.8z
		 M17.4,19c0-1,0.6-1.6,1.6-1.6s1.6,0.6,1.6,1.6S20,20.6,19,20.6c-0.2,0-0.5,0-0.6-0.2c-0.2-0.2-0.3-0.2-0.5-0.3l0,0
		C17.6,19.8,17.4,19.5,17.4,19z"/>
	<path class="st0" d="M19,34.8c-5.5,0-10.4-2.8-13.3-7.3l3.8-3.8H0v9.5l3.5-3.5c3.3,4.9,9,8.2,15.5,8.2c10.5,0,19-8.5,19-19h-3.2
		C34.8,27.7,27.7,34.8,19,34.8z"/>
</g>
</svg>
