<!-- Generator: Adobe Illustrator 19.0.0, SVG Export Plug-In  -->
<svg version="1.1"
	 xmlns="http://www.w3.org/2000/svg" xmlns:xlink="http://www.w3.org/1999/xlink" xmlns:a="http://ns.adobe.com/AdobeSVGViewerExtensions/3.0/"
	 x="0px" y="0px" width="79.1px" height="80px" viewBox="0 0 79.1 80" style="enable-background:new 0 0 79.1 80;"
	 xml:space="preserve">
<style type="text/css">
	.st0{fill:#ECEFF1;}
</style>
<defs>
</defs>
<g>
	<g>
		<path class="st0" d="M60.7,70.9c-10.1,2.9-20.2,3.8-30.5,0.5c-0.5,2.4-1.1,4.7-1.6,7.1c-0.2,1.2-0.8,1.6-2,1.6
			c-1.6-0.1-3.2-0.1-4.8,0c-1.2,0.1-1.4-0.4-1.4-1.5c0-3.7,0-7.4,0-11.1c0-1-0.3-1.6-1.2-2.1c-4.6-3-9.1-5.9-13.6-9
			C1.1,53-0.2,48.2,0,42.8c0.1-1.9,0.6-2.3,2.5-2.4c0.7,0,1.4,0,2-0.1C6.8,40,8.7,39.5,10,37c1.2-2.2,3.2-3.9,5-6
			c-0.7-1.3-1.6-2.9-2.5-4.6c-0.5-0.9-0.9-1.9-1.2-2.9c-0.5-1.5,0-2.1,1.6-1.9c3.7,0.3,7.1,1.6,10,4.1c1.1,1,2.3,1.8,3.5,2.7
			c-0.1,0.2-0.2,0.3-0.3,0.5c-0.1-0.9-0.1-1.8-0.3-2.7c-0.2-0.8,0-1.3,0.8-1.7c5.7-2.6,11.8-3.8,18.1-3.6c9.5,0.4,18.1,3.3,25.5,9.4
			c4.1,3.4,7.2,7.6,8.3,12.9c1.2,5.5,0,10.7-3,15.5c-0.6,0.9-1.1,1.9-1.8,2.5c-2.6,2.1-2.9,5-3.2,8c-0.3,3.1-0.8,6.1-1.2,9.1
			c-0.1,1.1-0.7,1.5-1.8,1.5c-1.4,0-2.9-0.1-4.3,0c-1,0-1.4-0.3-1.5-1.4c-0.2-2.2-0.5-4.4-0.8-6.6C61,71.6,60.8,71.3,60.7,70.9z
			 M16.9,41.9c1.5,0,2.7-1.2,2.7-2.7c0-1.6-1.1-2.9-2.6-3c-1.4,0-2.8,1.4-2.7,2.9C14.2,40.6,15.4,41.9,16.9,41.9z"/>
		<path class="st0" d="M59.5,20.2c-2.5-0.6-4.9-1.3-7.6-1.9c0-0.5,0.1-1.2,0-1.8c-0.3-1.7-1.4-2.6-2.8-3.3c-1-0.5-2.1-0.8-3-1.3
			c-0.5-0.3-0.7-1-1-1.5c0.5-0.3,1.1-0.9,1.6-0.9c1.3,0,2.6,0.3,3.9,0.5c0,0,0.1-0.1,0.1-0.2c0.9-2.5,0.7-2.8-1.9-3.2
			c-0.3-0.1-0.8-0.3-0.9-0.6c-0.5-1.8-0.5-1.8-2.6-1.5c0.5,1.8-0.8,2.3-2.1,3.1c-2.8,1.6-2.8,5.2-0.1,7c0.9,0.6,2,0.9,3,1.3
			c0.9,0.4,1.9,0.6,2.1,2C42.9,17.4,37.9,17.7,33,19C31,14.3,32.2,7.1,37.8,2.9c5.3-4,12.8-3.8,17.9,0.5
			C60.6,7.5,62.3,14.8,59.5,20.2z"/>
	</g>
</g>
</svg>
