<!-- Generator: Adobe Illustrator 19.0.0, SVG Export Plug-In  -->
<svg version="1.1"
	 xmlns="http://www.w3.org/2000/svg" xmlns:xlink="http://www.w3.org/1999/xlink" xmlns:a="http://ns.adobe.com/AdobeSVGViewerExtensions/3.0/"
	 x="0px" y="0px" width="80px" height="72px" viewBox="0 0 80 72" style="enable-background:new 0 0 80 72;" xml:space="preserve">
<style type="text/css">
	.st0{fill:#ECEFF1;}
</style>
<defs>
</defs>
<g>
	<path class="st0" d="M0,33.3c0-9.9,0-19.7,0-29.6C0,1,1,0,3.6,0C20.8,0,37.9,0,55,0c1.2,0,2.1,0.4,3,1.2
		c6.8,6.1,13.6,12.2,20.5,18.2c1,0.9,1.5,1.9,1.5,3.3c0,13.4,0,26.8,0,40.1c0,2.8-0.9,3.7-3.7,3.7c-13,0-26,0-39,0
		c-2,0-3.2-1.1-3.2-2.8c0-1.7,1.2-2.9,3.1-2.9c7.5,0,15,0,22.4,0c4.5,0,8.9,0,13.4,0c0.9,0,1.2-0.3,1.2-1.2c0-11.8,0-23.5,0-35.3
		c0-1.4-1-2.4-2.4-2.3c-3.8,0-7.6,0-11.3,0c-3.4,0-4.8-1.4-4.8-4.8c0-3.1,0-6.2,0-9.4c0-1.4-0.7-2.1-2.1-2.1c-13.7,0-27.4,0-41.1,0
		c-1.9,0-3.8,0-5.7,0C6,5.8,5.7,6.1,5.7,7c0,10.7,0,21.4,0,32.2c0,6.7,0,13.5,0,20.2c0,1.1,0.3,1.5,1.4,1.4c2.3-0.1,4.5,0,6.8,0
		c1.8,0,3.1,1.2,3.1,2.9c0,1.7-1.2,2.9-3.1,2.9c-3.5,0-7.1,0-10.6,0c-2.3,0-3.3-1.1-3.3-3.3C0,53.2,0,43.2,0,33.3z"/>
	<path class="st0" d="M15.2,49.5c-1-0.7-2.6-0.2-2.9-1.7C11.9,46.4,13.4,46,14,45c-0.3-0.3-0.8-0.5-1-0.8c-0.4-0.5-1.1-1.2-1.1-1.7
		c0.1-0.5,0.9-1,1.5-1.4c0.3-0.2,0.8-0.3,1.1-0.5c-0.2-1.2-1.8-1.8-1.1-3.2c0.7-1.4,2.1-0.4,3.1-0.9c0.2-1.1-1-2.3,0.1-3.3
		c1.1-1,2.2,0.3,3.4,0.3c0.1-0.5,0.2-1.1,0.3-1.7c0.2-1.4,1.4-1.9,2.5-1c0.4,0.4,0.9,0.8,1.3,1.1c1-0.6,0.8-2.3,2.3-2.3
		c1.6,0,1.4,1.6,2.3,2.5c0.4-0.3,0.9-0.7,1.4-1.1c1.1-0.8,2.2-0.4,2.4,1c0.1,0.6,0.1,1.1,0.2,1.9c0.6-0.2,1.2-0.3,1.8-0.5
		c1.4-0.4,2.3,0.5,1.9,1.9c-0.1,0.6-0.3,1.1-0.4,1.7c1.1,0.4,2.5-0.3,3.2,1.1c0.6,1.4-0.9,2-1.2,3c0.7,0.8,2.4,0.6,2.5,2.1
		c0.1,1.5-1.5,1.5-2.3,2.5c0.4,0.4,0.8,0.9,1.2,1.3c0.9,1.1,0.6,2.1-0.8,2.5c-0.6,0.2-1.2,0.3-1.8,0.4c1.1,3.9,1.1,3.9-2.8,3.6
		c-0.4,1.3,1.1,4-2.4,3.3c0,5.1,0,10.2,0,15.2c-0.1,0-0.2,0.1-0.2,0.1c-1.8-2.5-3.7-5-5.6-7.6c-1.9,2.6-3.8,5-5.7,7.5
		c-0.1,0-0.2,0-0.2-0.1c0-5.1,0-10.2,0-15.3c-0.1,0.1-0.2,0.2-0.3,0.3c-0.7-0.4-1.6-0.6-1.9-1.2C17.5,55,17.8,54,17.8,53
		c-0.6,0.1-1.2,0.2-1.7,0.1c-0.5-0.1-1.3-0.1-1.5-0.5c-0.3-0.4-0.2-1.1-0.1-1.7C14.6,50.5,14.9,50,15.2,49.5z"/>
</g>
</svg>
