<!-- Generator: Adobe Illustrator 19.0.0, SVG Export Plug-In  -->
<svg version="1.1"
	 xmlns="http://www.w3.org/2000/svg" xmlns:xlink="http://www.w3.org/1999/xlink" xmlns:a="http://ns.adobe.com/AdobeSVGViewerExtensions/3.0/"
	 x="0px" y="0px" width="60px" height="80px" viewBox="0 0 60 80" style="enable-background:new 0 0 60 80;" xml:space="preserve">
<style type="text/css">
	.st0{fill:#ECEFF1;}
</style>
<defs>
</defs>
<g>
	<path class="st0" d="M34.1,80c-0.3-0.1-0.6-0.2-0.9-0.4c-1.9-0.8-3.1-2.3-3.1-4.4c-0.1-8.3,0-16.7,0-25c0-0.1,0-0.1,0-0.2
		c3.3,0,6.6,0,9.9,0c0-1.7,0-3.3,0-5c-3.3,0-6.5,0-9.9,0c0-3.3,0-6.6,0-10c3.3,0,6.6,0,9.9,0c0-1.7,0-3.3,0-5c-3.3,0-6.6,0-9.9,0
		c0-3.3,0-6.6,0-10c3.3,0,6.6,0,9.9,0c0-1.7,0-3.3,0-5c-3.3,0-6.6,0-9.9,0c0-0.3,0-0.6,0-0.8c0-3,0-6,0-9c0-2.5,1.3-4.3,3.8-5.1
		C33.9,0.1,34,0,34.1,0C41.4,0,48.7,0,56,0c0.1,0,0.1,0.1,0.2,0.1C58.8,0.9,60,2.6,60,5.4c0,12.7,0,25.4,0,38.1c0,10.5,0,21,0,31.5
		c0,2-0.9,3.5-2.7,4.5c-0.4,0.2-0.9,0.4-1.4,0.5C48.7,80,41.4,80,34.1,80z M45,70c2.8,0,5-2.2,5-5c0-2.8-2.3-5-5-5c-2.7,0-5,2.3-5,5
		C40,67.8,42.3,70,45,70z"/>
	<path class="st0" d="M4.1,80c-0.3-0.1-0.5-0.2-0.8-0.3c-1.9-0.8-3.1-2.2-3.2-4.2c-0.1-1.8,0-3.6,0-5.4c6.6,0,13.3,0,19.9,0
		c0,2,0.2,3.9,0,5.9c-0.2,1.9-1.5,3.2-3.4,3.8c-0.2,0.1-0.4,0.2-0.6,0.2C12,80,8,80,4.1,80z"/>
	<path class="st0" d="M0.1,25c6.7,0,13.3,0,19.9,0c0,13.3,0,26.6,0,39.9c-6.6,0-13.2,0-19.9,0C0.1,51.7,0.1,38.4,0.1,25z"/>
	<path class="st0" d="M10,0c3.4,6.7,6.6,13.3,10,19.9c-6.7,0-13.2,0-19.9,0C3.4,13.3,6.7,6.7,10,0z"/>
</g>
</svg>
