<!-- Generator: Adobe Illustrator 19.0.0, SVG Export Plug-In  -->
<svg version="1.1"
	 xmlns="http://www.w3.org/2000/svg" xmlns:xlink="http://www.w3.org/1999/xlink" xmlns:a="http://ns.adobe.com/AdobeSVGViewerExtensions/3.0/"
	 x="0px" y="0px" width="75.6px" height="82px" viewBox="0 0 75.6 82" style="enable-background:new 0 0 75.6 82;"
	 xml:space="preserve">
<style type="text/css">
	.st0{fill:#ECEFF1;}
</style>
<defs>
</defs>
<path class="st0" d="M22.4,55.4c-1.4,0-2.6,0-3.7,0c-3.3-0.1-5.6-1.7-6.7-4.8c-1.2-3.6-2.4-7.3-3.5-10.9c-0.2-0.7-0.4-1.4-0.4-2.2
	c0-0.5,0.2-1.1,0.5-1.6c0.8-1.2,1.9-2,3.2-2.6c2-1,4.1-1.9,6.2-2.9c0.5-0.2,0.6-0.5,0.6-1c-0.1-3.2-0.4-6.5-0.1-9.7
	C19.3,11,25.6,3.4,34,1.2c6.6-1.7,13.2-1.7,19.4,1.6C61,6.8,64.9,13.4,65.2,22c0.1,2.5,0,4.9-0.1,7.4c0,0.6,0.2,0.8,0.7,1
	c2.1,0.9,4.2,1.8,6.1,2.9c1.2,0.6,2.2,1.6,3.1,2.5c0.6,0.5,0.7,1.3,0.5,2.1c-0.7,4.6-2.4,9-4.1,13.3c-1,2.5-3,4.1-6,4.1
	c-1.2,0-2.3,0-3.5,0c-0.2,0-0.6,0.1-0.7,0.3c-2.4,4.7-6.4,7-11.2,8.5c-1.2,0.4-2.3,0.8-3.4,1.4c-3,1.5-6.2,1.5-9.3,0.1
	c-1.2-0.5-2.3-1.3-2.2-2.8c0-1.4,1.1-2.2,2.2-2.7c3.3-1.4,6.5-1.4,9.7,0.3c0.3,0.1,0.6,0.2,0.9,0.2c2.7-0.7,5.3-1.7,7.3-3.7
	c0.9-0.9,1.7-2,2.4-3.1c0.3-0.5,0.3-1.3,0.4-1.9c0.3-1.6,0.5-3.1,0.9-4.7c2-8.6,2.6-17.3,2.4-26.1C61,12.4,53.8,4.9,44.9,4.2
	C41.4,4,37.9,3.9,34.6,5c-7.3,2.4-12.3,9.3-12.3,17c0,9.8,1,19.4,3.4,29c0.7,2.7,0.9,5.5,0.3,8.3c-1,4.4-4,6.8-8.5,6.9
	c-3.5,0-6.9,0-10.4,0c-1.8,0-3.4,2-3,3.8c0.2,1.1,0.9,2,1.8,2.8c0.2,0.2,0.7,0.2,1,0.2c6.4,0,12.7,0,19.1,0c0.3,0,0.6,0,1,0
	c0,3,0,6,0,9.1c-1.2,0-2.5,0-3.9,0c0-1.4,0-2.7,0-4.1c0-1.1,0-1.1-1.1-1.1c-5.5,0-11,0-16.5,0c-0.7,0-1.1-0.2-1.6-0.6
	c-1.3-1.2-2.4-2.4-3.1-4.1C-0.3,70-0.2,67.9,1,65.8c0.4-0.7,0.9-1.3,1.4-1.9c1.1-1.2,2.3-1.8,4-1.7c3.5,0.2,7,0,10.5,0
	c0.5,0,0.9,0,1.4-0.1c2-0.2,3.2-1.2,3.6-3.2C22.2,57.9,22.3,56.7,22.4,55.4z"/>
</svg>
