<!-- Generator: Adobe Illustrator 19.0.0, SVG Export Plug-In  -->
<svg version="1.1"
	 xmlns="http://www.w3.org/2000/svg" xmlns:xlink="http://www.w3.org/1999/xlink" xmlns:a="http://ns.adobe.com/AdobeSVGViewerExtensions/3.0/"
	 x="0px" y="0px" width="222.2px" height="200px" viewBox="0 0 222.2 200" style="enable-background:new 0 0 222.2 200;"
	 xml:space="preserve">
<style type="text/css">
	.st0{fill:#ECEFF1;}
</style>
<defs>
</defs>
<g>
	<path class="st0" d="M63,134.6c-0.6,0.8-1.1,1.5-1.6,2.1c-6.2,8.7-12.8,17-21,24c-4.2,3.6-8.7,6.7-14,8.4
		c-9.6,3.2-18.8-0.7-23.2-9.8c-3-6.1-3.6-12.6-2.9-19.2C2.7,116.7,13,96.7,27.6,78.7c1.2-1.5,1.5-2.7,0.7-4.5
		c-1.5-3.5-2.9-7.2-4.2-10.8c-3.6-9.4-1.9-18,4.9-25.1C39.2,27.6,49.7,17,60.5,6.7C67.6,0,76.2-1.8,85.6,1.8
		c15.2,5.9,30.5,11.8,45.7,17.7c4.7,1.8,8.9,4.6,12.5,8.2C167.5,51.5,191.3,75.2,215,99c9.7,9.7,9.6,24.5,0,34.5
		c-4.4,4.6-8.9,9-13.4,13.4c-15.1,15.1-30.1,30.1-45.2,45.2c-8.2,8.2-19.7,10.2-29.3,5c-2.2-1.2-4.2-2.9-6-4.6
		c-18.8-18.7-37.5-37.4-56.2-56.1C64.3,135.8,63.7,135.3,63,134.6z M59.5,54.3c1-0.2,1.8-0.5,2.6-0.6c4.6-0.6,9.1-1.4,13.7-1.6
		c3.4-0.1,5.7,2.7,5.5,5.6c-0.2,3-2.7,5.1-6.1,5.1c-1.1,0-2.2-0.1-3.2,0c-8.8,0.4-16.3,4.1-22.9,9.6c-21,17.6-33.6,40.1-38,67.1
		c-0.8,5.1-0.7,10.3,1.7,15.2c2.2,4.5,6,6.2,10.5,4.3c3.3-1.4,6.5-3.3,9.2-5.6c8.9-7.4,15.9-16.6,22.3-26.1c0.1-0.1,0-0.3,0.1-0.5
		c-0.4-0.4-0.8-0.9-1.2-1.3c-7.2-6.1-11.8-14-14.5-22.9c-0.3-0.9-0.2-2.3,0.3-2.9c4.6-5.4,9-11,14.1-15.9c6.5-6.2,14.2-10,23.7-9.5
		c10,0.5,18-6.9,19-16.5c1-9.8-5.6-18.5-15.5-20.4C70.3,35.1,59.6,43.6,59.5,54.3z M179.8,131.2c8.6,0,14.9-5.6,15.7-13.8
		c1.2-11.6-8.6-23.3-20.3-24.4c-8.9-0.8-16,4.3-17.5,12.5C155.5,118.1,166.8,131.2,179.8,131.2z M108.2,111.8
		c-9.8-0.6-17.6,7.6-16.5,17.3c1.2,9.8,8,17.7,17.5,20.3c11.2,3,21.3-4.6,20.8-15.7C129.4,122.2,119.8,112.5,108.2,111.8z
		 M159.8,158.3c-0.2-0.8-0.4-1.5-0.6-2.2c-3.8-12.8-7.5-25.5-11.3-38.3c-3.3-11.4-6.7-22.8-10-34.1c-0.9-3.1-1.8-3.6-4.9-2.7
		c-0.6,0.2-1.2,0.4-1.8,0.5c-3.8,1.1-4.1,1.9-3,5.7c6.4,21.9,12.9,43.9,19.3,65.8c0.7,2.4,1.4,4.7,2.1,7.1c0.6,1.9,2,2.7,3.8,2
		C155.8,161.2,159.1,161.8,159.8,158.3z"/>
	<path class="st0" d="M186.1,115.6c0,3.8-2.4,6.2-6.3,6.1c-6.5-0.1-12.8-6.5-12.7-12.9c0-4.3,3.1-6.9,7.3-6.2
		C181,103.7,186.1,109.4,186.1,115.6z"/>
	<path class="st0" d="M120.3,134.3c0,3.9-2.1,6-5.9,6.1c-6.3,0.1-12.7-5.8-13-12.1c-0.3-4.8,2.4-7.4,7.2-6.9
		C114.7,122,120.4,128.2,120.3,134.3z"/>
</g>
</svg>
