<!-- Generator: Adobe Illustrator 19.0.0, SVG Export Plug-In  -->
<svg version="1.1"
	 xmlns="http://www.w3.org/2000/svg" xmlns:xlink="http://www.w3.org/1999/xlink" xmlns:a="http://ns.adobe.com/AdobeSVGViewerExtensions/3.0/"
	 x="0px" y="0px" width="90px" height="66.7px" viewBox="0 0 90 66.7" style="enable-background:new 0 0 90 66.7;"
	 xml:space="preserve">
<style type="text/css">
	.st0{fill:#ECEFF1;}
</style>
<defs>
</defs>
<g>
	<path class="st0" d="M90,55.7c-1.1,2.5-2.2,2.5-5.3,2.2C85.6,49.1,78,42.8,70.9,43c-8.1,0.2-14.1,7.2-13.3,14.9
		c-7.4,0-14.9,0-22.4,0c0.4-4.5-1.2-8.2-4.5-11.5c9.2,0,18.2,0,27.4,0c0-0.4,0-0.7,0-1.1c0-9.8,0-19.6,0-29.4c0-2.8,1.6-4.4,4.4-4.4
		c3.7,0,7.4,0,11.1,0c1.3,0,2.2,0.5,2.8,1.6c3.3,5.8,6.6,11.5,9.8,17.3c0.5,1,0.8,2.2,0.8,3.3c0.1,3.9,0,7.7,0,11.6
		c0,0.3,0,0.7,0,1.1c1.6,0.1,2.4,1,2.9,2.3C90,51.1,90,53.4,90,55.7z M71.1,29c2.1,0,4.3,0,6.4,0c1.1,0,1.3-0.4,0.8-1.3
		c-1.8-3.2-3.7-6.5-5.5-9.7c-0.2-0.3-0.7-0.7-1.1-0.7c-2.3-0.1-4.5,0-6.8,0c-0.8,0-1.1,0.3-1.1,1.1c0,3.2,0,6.4,0,9.6
		c0,0.8,0.3,1.1,1.1,1.1C67,29,69.1,29,71.1,29z"/>
	<path class="st0" d="M55.1,43.5c-5,0-9.8,0-14.7,0c-12.3,0-24.7,0-37,0C1.1,43.5,0,42.4,0,40C0,28.8,0,17.6,0,6.4
		C0,2.4,2.4,0,6.4,0c14.2,0,28.4,0,42.6,0c3.7,0,6.2,2.4,6.2,6.1c0,12.2,0,24.3,0,36.5C55.1,42.9,55.1,43.1,55.1,43.5z M27.6,5.7
		c-6.7,0-13.4,0-20.1,0C6,5.7,5.7,5.9,5.7,7.4c0,9.6,0,19.1,0,28.7c0,1.5,0.2,1.7,1.7,1.7c13.5,0,26.9,0,40.4,0
		c1.3,0,1.6-0.3,1.6-1.6c0-9.6,0-19.2,0-28.9c0-1.3-0.3-1.6-1.6-1.6C41.1,5.7,34.3,5.7,27.6,5.7z"/>
	<path class="st0" d="M21.8,46.5c5.5,0,10.1,4.6,10.1,10.1c0,5.6-4.6,10.1-10.2,10.1c-5.5,0-10.1-4.6-10-10.2
		C11.7,51,16.2,46.5,21.8,46.5z M26.2,56.6c0-2.4-1.9-4.4-4.3-4.4c-2.5,0-4.4,1.9-4.5,4.4c0,2.4,1.9,4.4,4.3,4.4
		C24.2,61,26.1,59.1,26.2,56.6z"/>
	<path class="st0" d="M61,56.5c0-5.5,4.6-10.1,10-10.1c5.7,0,10.2,4.6,10.2,10.2c0,5.5-4.6,10-10.1,10C65.5,66.7,61,62.2,61,56.5z
		 M75.5,56.7c0-2.5-1.9-4.4-4.4-4.5c-2.4,0-4.4,1.9-4.4,4.3c0,2.5,1.9,4.4,4.4,4.5C73.5,61,75.5,59.1,75.5,56.7z"/>
	<path class="st0" d="M12.8,46.5c-3.3,3.2-4.9,6.9-4.5,11.5c-2,0-3.9,0.1-5.9,0C1,57.8,0,56.6,0,55.1c0-1.9,0-3.9,0-5.8
		c0-1.5,1.1-2.8,2.5-2.8C5.9,46.4,9.3,46.5,12.8,46.5z"/>
	<path class="st0" d="M11.5,31.7c0.3-0.4,0.5-0.6,0.7-0.9c2.4-2.8,4.9-5.6,7.3-8.4c0.5-0.5,0.5-0.9,0-1.4c-2.5-2.8-4.9-5.6-7.3-8.4
		c-0.2-0.2-0.4-0.5-0.7-0.9c0.5,0,0.8-0.1,1-0.1c2.3,0,4.7,0,7,0c0.5,0,1.2,0.3,1.5,0.7c2.5,2.8,4.9,5.6,7.4,8.4
		c0.8,0.9,0.8,1.2,0,2c-2.5,2.8-4.9,5.7-7.4,8.4c-0.3,0.3-0.9,0.6-1.3,0.7c-2.5,0.1-5,0-7.4,0C12.1,31.9,11.9,31.8,11.5,31.7z"/>
	<path class="st0" d="M26.3,31.7c2.9-3.4,5.7-6.6,8.6-9.9c-2.8-3.3-5.7-6.5-8.7-10c0.5-0.1,0.7-0.1,1-0.1c2.3,0,4.6,0,6.9,0
		c0.5,0,1.1,0.3,1.4,0.6c2.5,2.8,5,5.7,7.5,8.5c0.6,0.7,0.6,1.2,0,1.9c-2.5,2.8-5,5.7-7.5,8.5c-0.3,0.3-0.8,0.6-1.2,0.6
		c-2.4,0.1-4.9,0-7.3,0C26.8,31.9,26.7,31.8,26.3,31.7z"/>
</g>
</svg>
